<svg width="82" height="17" viewBox="0 0 82 17" fill="none" xmlns="http://www.w3.org/2000/svg">
<g id="svgexport-57" clip-path="url(#clip0_72_3282)">
<g id="Group 2723">
<g id="Group 2724">
<path id="Vector" d="M23.7694 3.12039H19.2516V8.31625H23.7541C24.4075 8.31625 24.9179 8.0583 25.2854 7.54239C25.6633 7.01597 25.8521 6.4053 25.8521 5.71043C25.8521 5.41562 25.8113 5.09977 25.7295 4.76285C25.3927 3.66788 24.7393 3.12039 23.7694 3.12039ZM25.5152 13.1331L23.5549 8.96373H19.2516V13.1331H18.5625V2.47288H23.7541C24.6014 2.47288 25.2804 2.794 25.7908 3.43624C26.3115 4.06795 26.5719 4.82602 26.5719 5.71043C26.5719 6.47901 26.3626 7.16863 25.944 7.77933C25.5356 8.3794 24.9791 8.75846 24.2747 8.91639L26.2503 13.1331H25.5152ZM29.2062 3.27832C29.1041 3.39413 28.9714 3.45204 28.808 3.45204C28.6447 3.45204 28.5068 3.39413 28.3945 3.27832C28.2822 3.16251 28.2261 3.02037 28.2261 2.85192C28.2261 2.68345 28.2822 2.54658 28.3945 2.44129C28.5068 2.32548 28.6447 2.26758 28.808 2.26758C28.9611 2.26758 29.0938 2.32548 29.2062 2.44129C29.3185 2.55711 29.3746 2.69398 29.3746 2.85192C29.3746 3.02037 29.3185 3.16251 29.2062 3.27832ZM28.4405 13.1331V5.3156H29.0836V13.1331H28.4405ZM35.2883 5.72621C34.645 5.72621 34.058 5.92625 33.5271 6.32634C32.9961 6.72642 32.5469 7.23707 32.1794 7.85827V13.1331H31.5362V5.3156H32.0415L32.1488 6.89489C32.9655 5.70516 34.012 5.11028 35.2883 5.11028C36.2479 5.11028 37.0187 5.41562 37.6007 6.02628C38.1928 6.6264 38.4889 7.41078 38.4889 8.3794V13.1331H37.8457V8.3794C37.8457 7.54766 37.5803 6.87383 37.0494 6.35792C36.549 5.93678 35.962 5.72621 35.2883 5.72621ZM44.0698 5.72621C43.1816 5.72621 42.4363 6.07892 41.8338 6.78433C41.2418 7.47922 40.9457 8.28466 40.9457 9.20063C40.9457 10.1377 41.2418 10.9589 41.8338 11.6644C42.4363 12.3698 43.1816 12.7224 44.0698 12.7224C44.9784 12.7224 45.7441 12.3698 46.3669 11.6644C46.9897 10.9589 47.301 10.1377 47.301 9.20063C47.301 8.25308 46.9897 7.43711 46.3669 6.75275C45.7441 6.0684 44.9784 5.72621 44.0698 5.72621ZM44.2382 16.4338C43.1764 16.4338 41.9972 16.1495 40.7007 15.581L40.961 15.044C42.033 15.5599 43.1254 15.8178 44.2382 15.8178C45.1775 15.8178 45.9126 15.5704 46.4435 15.0756C46.9846 14.5912 47.2551 13.8859 47.2551 12.9594V11.5222C46.908 12.0802 46.4486 12.5224 45.8768 12.8487C45.3154 13.1752 44.713 13.3384 44.0698 13.3384C42.9876 13.3384 42.079 12.9277 41.3438 12.1065C40.6189 11.2853 40.2566 10.3167 40.2566 9.20063C40.2566 8.08464 40.6241 7.12652 41.3592 6.32634C42.0942 5.51564 42.9978 5.11028 44.0698 5.11028C44.6211 5.11028 45.2183 5.26295 45.8615 5.56828C46.1372 5.72621 46.3976 5.91573 46.6426 6.13683C46.908 6.41057 47.1173 6.67379 47.2705 6.92646L47.393 5.3156H47.8984V12.9594C47.8984 14.0965 47.5614 14.9598 46.8876 15.5494C46.2138 16.1389 45.3306 16.4338 44.2382 16.4338ZM56.2924 12.1539C55.5573 12.9435 54.6487 13.3384 53.5664 13.3384C52.4842 13.3384 51.5807 12.9382 50.8558 12.1381C50.1309 11.3379 49.7685 10.3798 49.7685 9.26387C49.7685 8.12669 50.1309 7.15283 50.8558 6.34214C51.5807 5.52091 52.4842 5.11028 53.5664 5.11028C54.6588 5.11028 55.5675 5.52091 56.2924 6.34214C57.0275 7.16337 57.395 8.13725 57.395 9.26387C57.395 10.3904 57.0275 11.3538 56.2924 12.1539ZM53.5664 12.7224C54.4853 12.7224 55.2357 12.3856 55.8176 11.7117C56.4098 11.0274 56.7059 10.2114 56.7059 9.26387C56.7059 8.31625 56.4046 7.48975 55.8023 6.78433C55.2101 6.07892 54.4649 5.72621 53.5664 5.72621C52.6578 5.72621 51.9124 6.07892 51.3306 6.78433C50.7486 7.48975 50.4576 8.31625 50.4576 9.26387C50.4576 10.2114 50.7536 11.0274 51.3458 11.7117C51.938 12.3856 52.6782 12.7224 53.5664 12.7224ZM58.4668 12.2487L58.7731 11.759C59.3141 12.1276 59.9217 12.3802 60.5955 12.5171C61.1264 12.654 61.642 12.7224 62.1422 12.7224C62.8058 12.7224 63.3163 12.5804 63.6736 12.2961C64.0208 12.0223 64.1841 11.6801 64.1637 11.2695C64.1535 11.0379 64.0923 10.8325 63.9799 10.6535C63.8676 10.4641 63.74 10.3167 63.5971 10.2114C63.4541 10.0955 63.2601 9.99037 63.0151 9.8955C62.7701 9.80081 62.571 9.73231 62.4179 9.69023C62.2749 9.64815 62.0758 9.60072 61.8206 9.54802C59.9217 9.13747 58.9722 8.36361 58.9722 7.22654C58.9722 6.52112 59.2428 5.99469 59.7838 5.64725C60.3351 5.28928 60.9732 5.11028 61.6981 5.11028C62.8416 5.11028 63.8115 5.38931 64.6078 5.94731L64.3169 6.43689C63.5 5.9631 62.6578 5.72621 61.79 5.72621C61.1468 5.72621 60.621 5.85782 60.2126 6.12104C59.8042 6.38425 59.6051 6.75275 59.6153 7.22654C59.6153 8.00561 60.3861 8.55318 61.9278 8.86896C62.2953 8.9532 62.6118 9.0427 62.8772 9.13748C63.153 9.23216 63.4541 9.36383 63.7809 9.5323C64.1075 9.70068 64.3577 9.92712 64.5313 10.2114C64.715 10.4852 64.8069 10.801 64.8069 11.159C64.8171 11.4643 64.7609 11.7539 64.6384 12.0276C64.1791 12.9014 63.301 13.3384 62.0044 13.3384C60.6976 13.3384 59.5183 12.9751 58.4668 12.2487ZM69.5009 12.7541V13.3384C68.6944 13.3384 68.041 13.1541 67.5407 12.7856C67.0506 12.4066 66.8056 11.8276 66.8056 11.0484V5.93152H65.8715V5.3156H66.8056V3.29411L67.4488 2.91508V5.3156H69.3631V5.69463L69.2253 5.93152H67.4488V11.0484C67.4488 12.1855 68.1329 12.7541 69.5009 12.7541ZM72.7528 12.7224C73.4982 12.7224 74.2588 12.4329 75.0347 11.8539C75.1266 11.7907 75.2594 11.6907 75.4329 11.5538C75.6064 11.4064 75.7187 11.3116 75.7698 11.2695V8.86896L73.2583 9.07432C72.9111 9.10585 72.6099 9.15328 72.3547 9.21644C72.1097 9.26905 71.8595 9.35856 71.6043 9.48487C71.3491 9.61118 71.155 9.79555 71.0223 10.0377C70.8896 10.2799 70.8233 10.5747 70.8233 10.922C70.8233 11.5117 71.0019 11.9591 71.3592 12.2645C71.7166 12.5698 72.1811 12.7224 72.7528 12.7224ZM75.9076 13.1331L75.7851 11.8854C74.611 12.8541 73.5492 13.3384 72.5998 13.3384C71.8748 13.3384 71.2827 13.1225 70.8233 12.6909C70.3638 12.2487 70.1341 11.6591 70.1341 10.922C70.1341 10.3746 70.2873 9.91658 70.5936 9.54802C70.8999 9.17955 71.2572 8.92684 71.6656 8.78999C72.0739 8.64269 72.5436 8.54783 73.0745 8.50584L75.7698 8.33203V7.47922C75.7698 6.84751 75.5605 6.40004 75.1419 6.13683C74.7233 5.86308 74.1924 5.72621 73.5492 5.72621C72.5385 5.72621 71.6808 5.89466 70.9764 6.23159L70.7467 5.64725C71.5431 5.28928 72.4823 5.11028 73.5645 5.11028C74.4119 5.11028 75.096 5.29981 75.6167 5.67883C76.1475 6.04733 76.413 6.64746 76.413 7.47922V13.1331H75.9076ZM81.5999 12.7541V13.3384C80.7933 13.3384 80.1399 13.1541 79.6396 12.7856C79.1496 12.4066 78.9046 11.8276 78.9046 11.0484V5.93152H77.9704V5.3156H78.9046V3.29411L79.5477 2.91508V5.3156H81.462V5.69463L81.3242 5.93152H79.5477V11.0484C79.5477 12.1855 80.2318 12.7541 81.5999 12.7541Z" fill="white"/>
<path id="Vector_2" d="M1.69935e-05 1.4061C0.270339 1.4061 0.528718 1.4061 0.786014 1.4061C1.20546 1.40075 1.62439 1.43825 2.03666 1.51806C2.4146 1.58732 2.77132 1.74766 3.07779 1.98602C3.27987 2.15084 3.44302 2.36082 3.55492 2.60015C3.66682 2.83947 3.72454 3.10187 3.72374 3.36757C3.73915 3.67819 3.69865 3.98906 3.60432 4.28448C3.45459 4.6961 3.19627 5.05634 2.85849 5.32455C2.42186 5.68618 1.92633 5.96481 1.39506 6.14743C1.31689 6.1743 1.30494 6.22468 1.3614 6.29297C1.76091 6.7643 2.15826 7.23564 2.5556 7.70585C3.23304 8.50068 3.91155 9.29449 4.59116 10.0871C5.00044 10.5641 5.41516 11.0355 5.82661 11.509C5.84037 11.5281 5.8527 11.5484 5.86352 11.5695L6.87967 10.7063C6.85362 10.6749 6.8319 10.6457 6.80694 10.6189C6.11647 9.87334 5.41842 9.13435 4.73772 8.37981C4.18513 7.7663 3.65208 7.13265 3.10928 6.51017C3.05825 6.45195 3.08322 6.42844 3.13424 6.39821C3.65773 6.05123 4.12487 5.62126 4.51843 5.12415C4.87178 4.67261 5.07062 4.11334 5.08404 3.53325C5.11986 2.85144 4.98308 2.22002 4.5727 1.6692C4.23441 1.21125 3.77365 0.865291 3.24715 0.673904C2.96272 0.568667 2.67068 0.485822 2.37864 0.40521H2.4872C4.71818 0.40521 6.94807 0.386176 9.18236 0.411927C10.8379 0.429845 12.0462 1.2404 12.7942 2.763C13.0501 3.29672 13.1806 3.88504 13.1753 4.48041C13.1753 4.76926 13.1753 5.05809 13.1753 5.34583V5.42195H12.4642C12.0082 5.42195 11.5512 5.39509 11.0963 5.41412C10.4358 5.42801 9.78307 5.56414 9.16926 5.81604C8.5242 6.07976 7.98361 6.55916 7.63417 7.17742C7.19125 7.97121 7.17062 9.34711 8.1423 10.2304C8.53739 10.5729 8.97556 10.8588 9.44505 11.0802C9.89665 11.3041 10.3581 11.5146 10.8107 11.7407C11.1605 11.9016 11.4824 12.1201 11.7639 12.3878C12.3067 12.9409 12.3588 13.6731 11.8953 14.3012C11.7213 14.5137 11.5099 14.6903 11.2721 14.8218C10.6589 15.2158 9.95039 15.4238 9.22794 15.4219C7.45509 15.4219 5.68114 15.4286 3.9083 15.4219C3.11767 15.4094 2.34871 15.1535 1.70011 14.6871C1.0515 14.2208 0.552852 13.5651 0.268166 12.8043C0.089479 12.3234 -0.00142949 11.8124 1.69935e-05 11.2974C1.69935e-05 8.041 1.69935e-05 4.78418 1.69935e-05 1.52701V1.4061Z" fill="white"/>
<path id="Vector_3" d="M13.1653 6.61348V11.7634C13.1044 11.6952 13.0566 11.6415 13.0078 11.5855C12.7752 11.3207 12.5046 11.0942 12.2055 10.9136C11.6618 10.5916 11.1028 10.2979 10.5304 10.0337C10.2048 9.87359 9.89534 9.68897 9.58699 9.49857C9.34269 9.35186 9.13432 9.14922 8.97796 8.90637C8.83009 8.66378 8.76374 8.37773 8.78929 8.0924C8.81476 7.80706 8.93065 7.53837 9.11915 7.32776C9.44481 6.95496 9.87144 6.77918 10.3328 6.66723C10.8676 6.54919 11.4161 6.51147 11.9612 6.55527C12.2326 6.56982 12.5042 6.5799 12.7744 6.59446C12.9004 6.5911 13.0274 6.60341 13.1653 6.61348Z" fill="white"/>
</g>
</g>
</g>
<defs>
<clipPath id="clip0_72_3282">
<rect width="81.6" height="17" fill="white"/>
</clipPath>
</defs>
</svg>
