<svg width="87" height="29" viewBox="0 0 87 29" fill="none" xmlns="http://www.w3.org/2000/svg">
<g id="svgexport-56" clip-path="url(#clip0_72_3288)">
<g id="mc today">
<path id="Vector" d="M41.0271 28.2622L14.7349 27.0452L19.6076 0.641602L41.0271 6.20414V28.2622Z" stroke="white"/>
<path id="Vector_2" d="M12.1333 9.70654L13.676 21.0901H11.3031L10.4213 14.5948L7.97563 21.0929H5.8505L3.44248 14.5948L2.50188 21.0901H0L1.5236 9.70654H3.93161L6.8473 17.1169L9.76293 9.70654H12.1333Z" fill="white"/>
<path id="Vector_3" d="M25.7544 19.5414C25.3514 20.1605 24.7829 20.6456 24.1178 20.9381C23.265 21.3254 22.3392 21.5117 21.4078 21.4834C20.6402 21.4802 19.88 21.3271 19.1677 21.0322C18.4653 20.7516 17.8207 20.3369 17.2673 19.81C16.7156 19.2767 16.2686 18.6389 15.9505 17.9314C15.608 17.1724 15.4346 16.3439 15.4429 15.5067C15.4346 14.6696 15.6081 13.8411 15.9505 13.082C16.2747 12.3668 16.7278 11.7216 17.2857 11.1809C17.8393 10.6542 18.484 10.2396 19.1861 9.95872C19.8984 9.66545 20.658 9.51393 21.4249 9.51221C21.9054 9.51275 22.3846 9.56486 22.8547 9.66763C23.2764 9.75399 23.6869 9.89129 24.0775 10.0766C24.4194 10.2445 24.7413 10.4526 25.0366 10.6969C25.3008 10.9094 25.5295 11.1649 25.7135 11.4536L24.9612 13.5858C24.602 13.1603 24.1599 12.8175 23.6637 12.5797C23.0327 12.2581 22.3356 12.0983 21.6318 12.114C21.1275 12.1082 20.6257 12.1868 20.1459 12.3472C19.7129 12.4956 19.3107 12.7269 18.9608 13.0289C18.621 13.3181 18.3484 13.682 18.1629 14.094C17.9774 14.5061 17.8837 14.9557 17.8886 15.4099C17.8829 15.8649 17.9763 16.3155 18.1618 16.7284C18.3473 17.1414 18.6204 17.5061 18.9608 17.7957C19.3107 18.0977 19.7129 18.329 20.1459 18.4774C20.6257 18.6378 21.1275 18.7165 21.6318 18.7105C22.3483 18.7328 23.059 18.5729 23.7014 18.2449C24.1963 17.9952 24.6327 17.6377 24.9805 17.1972L25.7544 19.4057V19.5414Z" fill="white"/>
<path id="Vector_4" d="M28.426 18.4546C28.5805 18.2949 28.765 18.1694 28.9683 18.0861C29.1715 18.0028 29.3892 17.9633 29.6079 17.97C29.8266 17.9636 30.0443 18.0033 30.2475 18.0867C30.4508 18.1701 30.6354 18.2953 30.7902 18.4549C30.9448 18.6144 31.0664 18.8048 31.1472 19.0145C31.228 19.2241 31.2665 19.4486 31.2603 19.6741C31.2665 19.8996 31.228 20.1241 31.1472 20.3338C31.0664 20.5434 30.9448 20.7339 30.7902 20.8934C30.6354 21.0529 30.4508 21.1783 30.2475 21.2616C30.0443 21.345 29.8266 21.3847 29.6079 21.3783C29.3892 21.3845 29.1715 21.3448 28.9683 21.2614C28.7651 21.1779 28.5805 21.0527 28.4257 20.8932C28.2711 20.7337 28.1496 20.5433 28.0687 20.3337C27.9878 20.124 27.9492 19.8996 27.9553 19.6741C27.9488 19.4485 27.9871 19.2239 28.0681 19.0141C28.1491 18.8044 28.2709 18.614 28.426 18.4546Z" fill="white"/>
<path id="Vector_5" d="M39.0686 20.2202C38.8199 20.5711 38.4902 20.8522 38.1095 21.0383C37.6579 21.2628 37.1618 21.3755 36.6605 21.3675C36.2234 21.4044 35.7838 21.3435 35.3716 21.189C34.9595 21.0346 34.5846 20.7901 34.2723 20.4725C33.708 19.7656 33.4246 18.8643 33.4791 17.9504V13.7241H31.8267V12.9266L35.1561 8.58105H35.8898V11.1032H38.9562V13.7221H35.8707V17.4078C35.8492 17.5959 35.8704 17.7867 35.9324 17.965C35.9944 18.1434 36.0957 18.3044 36.2282 18.4357C36.4704 18.6289 36.7689 18.7316 37.075 18.7267C37.3602 18.735 37.6434 18.6753 37.9026 18.5523C38.157 18.4122 38.3818 18.221 38.5635 17.99L39.0712 20.2012L39.0686 20.2202Z" fill="white"/>
<path id="Vector_6" d="M45.7476 21.3843C45.0692 21.3868 44.3973 21.2477 43.7725 20.9753C43.1661 20.7127 42.6115 20.338 42.1359 19.8696C41.6599 19.3931 41.2762 18.8275 41.0056 18.203C40.7237 17.5431 40.5826 16.8285 40.5917 16.1075C40.5825 15.3868 40.7236 14.6724 41.0056 14.0128C41.2756 13.3877 41.6588 12.8213 42.1345 12.3441C42.6103 11.8762 43.165 11.5021 43.7712 11.2399C44.397 10.971 45.0683 10.8325 45.7463 10.8325C46.4242 10.8325 47.0955 10.971 47.7213 11.2399C48.3276 11.5019 48.8823 11.8761 49.358 12.3441C49.8338 12.8213 50.2169 13.3876 50.4869 14.0128C50.7698 14.6722 50.9118 15.3866 50.9033 16.1075V16.1273C50.9145 16.8483 50.7734 17.5631 50.4895 18.2221C50.2199 18.8416 49.8365 19.4016 49.3605 19.871C48.8851 20.3395 48.3304 20.7143 47.724 20.9766C47.0986 21.2488 46.4263 21.3874 45.7476 21.3843ZM45.7833 13.4894C45.4172 13.4838 45.0535 13.5494 44.7111 13.6829C44.3918 13.8066 44.0982 13.9916 43.8458 14.2282C43.6006 14.4581 43.4078 14.7412 43.2814 15.0571C43.1441 15.3961 43.074 15.76 43.0752 16.1273V16.1662C43.0745 16.5326 43.1446 16.8954 43.2814 17.2336C43.4074 17.5512 43.6002 17.8359 43.8458 18.0673C44.098 18.3042 44.3916 18.4893 44.7111 18.6127C45.0534 18.7463 45.4172 18.8121 45.7833 18.8063C46.4849 18.8208 47.1652 18.5571 47.6836 18.0694C47.929 17.8335 48.127 17.5502 48.2666 17.2357C48.4188 16.9019 48.4961 16.5371 48.4927 16.1682C48.4963 15.7932 48.4191 15.4221 48.2666 15.0817C48.1281 14.7608 47.9301 14.4708 47.6836 14.2282C47.4354 13.9956 47.1485 13.8108 46.8368 13.6829C46.5012 13.5483 46.1433 13.4826 45.7833 13.4894Z" fill="white"/>
<g id="Group 2721">
<path id="Vector_7" d="M57.4081 21.384C56.7626 21.3833 56.1234 21.2515 55.5271 20.9962C54.935 20.7471 54.3977 20.3776 53.9473 19.9096C53.4892 19.4299 53.1256 18.8632 52.8765 18.2409C52.6062 17.5646 52.4713 16.8388 52.4799 16.1073L52.4983 16.166C52.4903 15.4345 52.6251 14.7089 52.8949 14.0324C53.1442 13.41 53.5079 12.8431 53.9658 12.3631C54.4126 11.8996 54.943 11.5307 55.5271 11.2772C56.1106 11.0223 56.7373 10.8904 57.371 10.8892C58.0046 10.869 58.6349 10.9951 59.2157 11.2581C59.6467 11.44 60.0047 11.7688 60.2298 12.1899V7.00928H62.6198V21.1318H60.3064V20.0848C60.0789 20.5116 59.7126 20.8415 59.2714 21.0159C58.6839 21.2779 58.048 21.4036 57.4081 21.384ZM57.6901 13.528C57.3057 13.519 56.923 13.5847 56.5623 13.7215C56.2367 13.8439 55.9368 14.0289 55.6784 14.2669C55.4325 14.4983 55.2396 14.7833 55.114 15.1012C54.9769 15.4391 54.9066 15.8017 54.907 16.168V16.1878C54.9066 16.554 54.9769 16.9167 55.114 17.2546C55.2396 17.5725 55.4325 17.8575 55.6784 18.0889C55.937 18.3265 56.2369 18.5116 56.5623 18.6342C56.923 18.7709 57.3057 18.8365 57.6901 18.8278C58.246 18.836 58.7954 18.7027 59.2894 18.4399C59.6958 18.2531 60.0238 17.9219 60.2135 17.5068V14.8484C60.0232 14.4331 59.6952 14.102 59.2883 13.9151C58.7942 13.6528 58.2455 13.5199 57.6901 13.528Z" fill="white"/>
<path id="Vector_8" d="M69.7477 21.3852C69.1023 21.3846 68.4629 21.2529 67.8664 20.9974C67.275 20.7481 66.7376 20.3785 66.2868 19.9108C65.8287 19.4303 65.4652 18.863 65.2159 18.24C64.9491 17.573 64.8147 16.8579 64.8197 16.1364C64.8141 15.4143 64.9491 14.6984 65.2159 14.0309C65.4652 13.4086 65.8288 12.842 66.2863 12.3621C66.737 11.8941 67.2745 11.5245 67.8664 11.2756C68.4629 11.0201 69.1023 10.8883 69.7477 10.8877C70.3876 10.8681 71.0235 10.994 71.6105 11.2565C72.0516 11.4307 72.418 11.7607 72.6448 12.1876V11.1399H74.9583V21.1303H72.6448V20.0825C72.418 20.5095 72.0511 20.8395 71.6105 21.0143C71.0235 21.2772 70.3876 21.4038 69.7477 21.3852ZM70.0122 13.5284C69.6279 13.5196 69.2452 13.5854 68.8845 13.7227C68.5592 13.8451 68.2587 14.0301 68.0004 14.268C67.7545 14.4995 67.5615 14.7845 67.436 15.1024C67.2986 15.4403 67.2283 15.8029 67.2289 16.1692V16.1883C67.2283 16.5548 67.2986 16.9176 67.436 17.2558C67.5615 17.5735 67.7545 17.8585 68.0004 18.0901C68.2592 18.3277 68.5592 18.5127 68.8845 18.6354C69.2452 18.7721 69.6279 18.8378 70.0122 18.829C70.5683 18.837 71.1175 18.7035 71.611 18.4404C72.0179 18.2508 72.3449 17.9171 72.5328 17.4997V14.8413C72.3421 14.4291 72.0151 14.1005 71.6105 13.9142C71.1164 13.6511 70.5671 13.5177 70.0111 13.5257L70.0122 13.5284Z" fill="white"/>
<path id="Vector_9" d="M79.2659 11.1016L81.8051 17.3094L84.3436 11.1016H86.9999L81.2029 25.2241H78.5878L80.5631 20.4709L76.688 11.1016H79.2659Z" fill="white"/>
</g>
</g>
</g>
<defs>
<clipPath id="clip0_72_3288">
<rect width="87" height="29" fill="white"/>
</clipPath>
</defs>
</svg>
