<svg width="86" height="25" viewBox="0 0 86 25" fill="none" xmlns="http://www.w3.org/2000/svg">
<g id="svgexport-58" clip-path="url(#clip0_72_3300)">
<path id="Vector" fill-rule="evenodd" clip-rule="evenodd" d="M10.5077 0.254233C7.52707 0.626623 4.82099 2.10929 2.88299 4.43182C1.03211 6.64989 0 9.50512 0 12.4073C0 17.8043 3.4703 22.5982 8.49321 24.1394C10.9949 24.9072 13.756 24.7824 16.1814 23.7922C21.8661 21.4712 24.9145 15.0912 23.2328 9.03396C21.7785 3.79591 17.0673 0.149662 11.7998 0.185318C11.3691 0.188252 10.7876 0.219262 10.5077 0.254233ZM30.0636 6.99763C29.8762 7.0819 29.6408 7.36263 29.5603 7.59774C29.466 7.87261 29.4651 16.8415 29.5594 17.1159C29.7085 17.551 30.0587 17.7933 30.5385 17.7933C30.8993 17.7933 31.1608 17.6725 31.3476 17.4197C31.5601 17.1324 31.6031 16.8113 31.6038 15.5076L31.6046 14.3284L32.4271 13.5165L33.2495 12.7044L34.3182 14.4022C34.9059 15.3359 35.5401 16.353 35.7274 16.6623C36.2989 17.6065 36.5362 17.7926 37.1682 17.7926C37.5856 17.7926 37.7849 17.716 37.9879 17.4776C38.2579 17.1601 38.2565 16.6945 37.9844 16.1409C37.8937 15.9569 37.1258 14.783 36.2774 13.5321C35.4291 12.2813 34.7395 11.2437 34.7453 11.2263C34.7508 11.2088 35.3569 10.6079 36.0919 9.89083C37.6012 8.41834 37.7 8.28592 37.66 7.78775C37.6323 7.44308 37.461 7.17165 37.184 7.03319C36.9236 6.90312 36.4122 6.89096 36.171 7.00903C36.0259 7.08008 35.1873 7.95093 32.4316 10.8927L31.6283 11.7503L31.6046 9.74342C31.5833 7.94956 31.5717 7.71575 31.4957 7.5415C31.3098 7.1158 31.0128 6.92848 30.5284 6.93136C30.3515 6.93243 30.1423 6.96222 30.0636 6.99763ZM58.613 7.02188C56.7599 7.43985 55.4656 8.7849 55.0098 10.7665C54.741 11.934 54.8156 13.5601 55.1867 14.6265C55.7577 16.2667 56.7957 17.2843 58.2672 17.6458C59.0361 17.8347 60.3561 17.8441 61.0532 17.6657C62.4294 17.3133 63.5522 16.2185 63.8756 14.9135C63.9897 14.4531 63.9904 14.1521 63.8782 13.897C63.6688 13.4214 63.1441 13.2274 62.6211 13.4326C62.4498 13.4999 62.2477 13.812 62.067 14.2889C61.7531 15.1161 61.2584 15.6768 60.6183 15.9304C60.2729 16.0674 59.447 16.1187 59.0457 16.0282C58.0426 15.8023 57.3478 14.9698 57.0989 13.6957C56.912 12.7382 56.9839 11.3624 57.2643 10.5338C57.5893 9.57342 58.3008 8.87001 59.1337 8.68571C59.2788 8.65362 59.6052 8.63864 59.8937 8.65094C60.3532 8.67042 60.432 8.68839 60.7572 8.84778C61.2233 9.07628 61.5775 9.45057 61.9661 10.1254C62.338 10.7711 62.4582 10.9187 62.6708 10.9911C62.9471 11.0853 63.3605 11.0305 63.5602 10.8732C63.8404 10.6525 63.9349 10.4039 63.9095 9.95271C63.8915 9.62905 63.8587 9.50949 63.6937 9.16726C63.3175 8.38671 62.7868 7.86658 61.906 7.41541C61.1905 7.04888 60.8351 6.96832 59.8448 6.94804C59.1682 6.93415 58.9416 6.94774 58.613 7.02188ZM66.289 7.20848C66.0911 7.31225 65.9998 7.39815 65.9099 7.56526L65.7914 7.78535L65.7787 12.3249C65.7704 15.2934 65.7825 16.9286 65.8141 17.0495C65.8855 17.3233 66.0542 17.5528 66.2778 17.6802C66.6868 17.9132 67.379 17.7879 67.6209 17.4372C67.8366 17.1246 67.8527 16.9553 67.8527 14.9916V13.1409H68.4362C69.7719 13.1409 69.9763 13.3309 71.5285 16.0197C72.2378 17.2482 72.4494 17.54 72.7434 17.6948C72.9842 17.8216 73.5091 17.8299 73.738 17.7105C74.4111 17.3592 74.4141 16.8433 73.7507 15.5492C73.1737 14.4234 72.3239 13.3326 71.7499 12.9809C71.6653 12.929 71.5959 12.88 71.5959 12.8718C71.5959 12.8637 71.7505 12.8087 71.9395 12.7495C73.0853 12.3912 73.7545 11.7504 73.9959 10.7803C74.0977 10.3697 74.0955 9.58905 73.9908 9.17923C73.7474 8.22586 73.0324 7.49699 72.0427 7.19322C71.7926 7.11648 71.4753 7.10508 69.1557 7.0894L66.5495 7.07173L66.289 7.20848ZM76.5028 7.14916C76.2354 7.24754 76.0872 7.37291 75.979 7.5929C75.8864 7.78061 75.8834 7.89584 75.8708 12.2846C75.862 15.4252 75.8745 16.8624 75.9108 17.044C75.9679 17.3276 76.1576 17.5945 76.3917 17.7194C76.5584 17.8082 77.0882 17.8182 77.2439 17.7356C77.3039 17.7037 77.4232 17.6094 77.5084 17.5258C77.8055 17.2353 77.8025 17.2768 77.807 13.242L77.8107 9.59503L78.6783 13.1409C79.1548 15.0911 79.5905 16.8078 79.6446 16.9557C79.8602 17.5394 80.2114 17.7926 80.8056 17.7926C81.0665 17.7926 81.2095 17.7669 81.3451 17.6957C81.6066 17.5577 81.8518 17.2565 81.9519 16.9502C81.9994 16.8053 82.4269 15.1021 82.9026 13.1654L83.7666 9.64387L83.7702 13.242C83.7739 17.1675 83.7739 17.1654 84.0451 17.4982C84.2126 17.7037 84.4386 17.7954 84.7735 17.7937C85.0758 17.7923 85.2707 17.7099 85.453 17.5071C85.7227 17.2065 85.716 17.3374 85.7137 12.4107C85.7116 7.61906 85.7137 7.65892 85.4952 7.41008C85.447 7.35522 85.3226 7.26316 85.2188 7.20549C85.0477 7.11095 84.9409 7.09905 84.1325 7.08448C83.1196 7.06624 82.9033 7.104 82.6818 7.33755C82.4906 7.53928 82.4084 7.8211 81.5407 11.2198C81.1413 12.7858 80.7997 14.0513 80.7827 14.032C80.7649 14.0126 80.4055 12.6441 79.9832 10.9908C79.5608 9.33762 79.174 7.86864 79.1221 7.72657C79.0088 7.4139 78.8073 7.19489 78.5709 7.12708C78.2989 7.04913 76.7296 7.0659 76.5028 7.14916ZM12.7843 7.72491C13.6799 8.05066 14.3453 8.78054 14.6229 9.74173C14.7376 10.139 14.7376 10.9094 14.6229 11.3068C14.4429 11.93 13.973 12.6426 13.5745 12.8968L13.4094 13.0022V14.4881C13.4094 15.8872 13.4035 15.9902 13.3079 16.254C13.1862 16.5897 12.8753 16.9308 12.5329 17.1046C12.3317 17.2066 12.2279 17.2248 11.8458 17.2248C11.4184 17.2248 11.3801 17.2159 11.0876 17.0498C10.8839 16.9339 10.7198 16.7933 10.6025 16.634C10.2941 16.215 10.2821 16.1352 10.2821 14.4839V13.0074L10.0846 12.8663C9.82689 12.6821 9.4617 12.2264 9.28897 11.8732C8.88655 11.05 8.88551 10.0005 9.28655 9.18048C9.65754 8.42171 10.3549 7.85366 11.1824 7.63603C11.5951 7.5275 12.358 7.56985 12.7843 7.72491ZM70.8163 8.79253C71.1455 8.85534 71.295 8.92862 71.5316 9.14316C71.9934 9.56164 72.0724 10.4707 71.689 10.9511C71.3338 11.3959 70.7982 11.5221 69.0965 11.5621L67.8527 11.5912V10.1652V8.73905H69.1944C69.9626 8.73905 70.6559 8.7619 70.8163 8.79253ZM41.697 9.88833C40.3503 10.1987 39.4609 11.0888 39.0832 12.5043C38.942 13.0332 38.9095 14.1802 39.0185 14.7793C39.344 16.5682 40.5604 17.6689 42.3369 17.7816C43.3814 17.8479 44.2443 17.6826 44.9116 17.2887C45.7486 16.7943 46.2549 15.88 45.9874 15.3459C45.9009 15.1733 45.6518 15.0482 45.3945 15.0482C45.1388 15.0482 45.0682 15.0904 44.5928 15.5263C43.7911 16.2614 43.3956 16.443 42.6735 16.4078C42.1901 16.3842 41.8933 16.2628 41.5603 15.9524C41.2431 15.6564 40.941 14.9487 40.9395 14.4981L40.9389 14.3147L42.704 14.313C44.8093 14.3111 45.3555 14.2712 45.7065 14.094C45.9066 13.9929 45.9763 13.9237 46.0649 13.7382C46.1597 13.5395 46.1739 13.4401 46.1681 13.0186C46.1488 11.6219 45.2734 10.4272 43.9375 9.97405C43.6141 9.86432 43.4724 9.84708 42.7869 9.83316C42.2275 9.82191 41.9176 9.83753 41.697 9.88833ZM47.3122 9.88351C46.9922 10.029 46.7672 10.3834 46.7672 10.7414C46.7672 10.9854 46.7935 11.0586 48.1632 14.6233C49.0445 16.9165 49.2803 17.5771 49.2556 17.6801C49.2089 17.8741 48.8662 18.6155 48.7274 18.8229C48.524 19.1267 48.3704 19.1712 47.6506 19.1341C47.0778 19.1046 47.0156 19.1099 46.8764 19.2004C46.6472 19.3491 46.5567 19.525 46.5606 19.8134C46.5703 20.4935 47.0264 20.7052 48.3881 20.6617C49.2134 20.6354 49.4541 20.5673 49.9083 20.2316C50.1987 20.0168 50.5181 19.564 50.7478 19.0414C51.025 18.4102 53.6281 11.298 53.7074 10.9548C53.7741 10.6667 53.7787 10.5709 53.733 10.4277C53.6639 10.212 53.4808 9.98173 53.3027 9.88664C53.1205 9.78932 52.6217 9.79333 52.4575 9.89351C52.1789 10.0634 52.0985 10.2646 50.9573 13.6464C50.5956 14.718 50.2907 15.5654 50.2795 15.5294C50.157 15.1383 48.7701 10.9767 48.6766 10.7199C48.4188 10.0119 48.2136 9.81432 47.7384 9.81717C47.5821 9.81816 47.3903 9.84798 47.3122 9.88351ZM43.2272 11.3316C43.7395 11.5294 44.0446 11.9174 44.2084 12.5782C44.3646 13.2085 44.5555 13.1409 42.6212 13.1409C40.6917 13.1409 40.8731 13.1977 41.0137 12.6379C41.175 11.9946 41.533 11.5199 41.9948 11.3365C42.3344 11.2019 42.8855 11.1997 43.2272 11.3316Z" fill="white"/>
</g>
<defs>
<clipPath id="clip0_72_3300">
<rect width="85.7143" height="25" fill="white"/>
</clipPath>
</defs>
</svg>
