<svg width="48" height="48" viewBox="0 0 48 48" fill="none" xmlns="http://www.w3.org/2000/svg">
<g opacity="0.2">
<path d="M14 43C11.6131 43 9.32387 42.0518 7.63604 40.364C5.94821 38.6761 5 36.3869 5 34C5 31.6131 5.94821 29.3239 7.63604 27.636C9.32387 25.9482 11.6131 25 14 25C16.3869 25 18.6761 25.9482 20.364 27.636C22.0518 29.3239 23 31.6131 23 34C23 36.3869 22.0518 38.6761 20.364 40.364C18.6761 42.0518 16.3869 43 14 43ZM34 23C32.8181 23 31.6478 22.7672 30.5558 22.3149C29.4639 21.8626 28.4718 21.1997 27.636 20.364C26.8003 19.5282 26.1374 18.5361 25.6851 17.4442C25.2328 16.3522 25 15.1819 25 14C25 12.8181 25.2328 11.6478 25.6851 10.5558C26.1374 9.46392 26.8003 8.47177 27.636 7.63604C28.4718 6.80031 29.4639 6.13738 30.5558 5.68508C31.6478 5.23279 32.8181 5 34 5C36.3869 5 38.6761 5.94821 40.364 7.63604C42.0518 9.32387 43 11.6131 43 14C43 16.3869 42.0518 18.6761 40.364 20.364C38.6761 22.0518 36.3869 23 34 23ZM6 16C6 13.3478 7.05357 10.8043 8.92893 8.92893C10.8043 7.05357 13.3478 6 16 6H22V10H16C14.4087 10 12.8826 10.6321 11.7574 11.7574C10.6321 12.8826 10 14.4087 10 16V22H6V16ZM38 26V32C38 33.5913 37.3679 35.1174 36.2426 36.2426C35.1174 37.3679 33.5913 38 32 38H26V42H32C34.6522 42 37.1957 40.9464 39.0711 39.0711C40.9464 37.1957 42 34.6522 42 32V26H38Z" fill="#DDE6F7"/>
</g>
</svg>
