<svg width="48" height="48" viewBox="0 0 48 48" fill="none" xmlns="http://www.w3.org/2000/svg">
<g id="mdi:hand-coin" opacity="0.2">
<path id="Vector" d="M32.0007 24C37.5207 24 42.0008 19.52 42.0008 14C42.0008 8.48 37.5207 4 32.0007 4C26.4807 4 22.0007 8.48 22.0007 14C22.0007 19.52 26.4807 24 32.0007 24ZM42.9008 35.2C42.1208 34.4 41.1408 34 40.0008 34H26.0007L21.8407 32.54L22.5007 30.66L26.0007 32H31.6007C32.3008 32 32.8608 31.72 33.3207 31.26C33.7807 30.8 34.0008 30.24 34.0008 29.62C34.0008 28.54 33.4807 27.8 32.4407 27.38L17.9007 22H14.0007V40L28.0007 44L44.0608 38C44.0808 36.94 43.6808 36 42.9008 35.2ZM10.0007 22H1.96875V44H10.0007V22Z" fill="#DDE6F7"/>
</g>
</svg>
