<svg width="48" height="48" viewBox="0 0 48 48" fill="none" xmlns="http://www.w3.org/2000/svg">
<g id="streamline:ai-redo-spark-solid" opacity="0.2" clip-path="url(#clip0_135_891)">
<path id="Vector" fill-rule="evenodd" clip-rule="evenodd" d="M35.0153 8.7016C31.9588 6.50176 28.3137 5.26761 24.5495 5.15817C20.7853 5.04873 17.0746 6.06903 13.8955 8.08759C10.7164 10.1061 8.21465 13.0305 6.71259 16.4837C5.21053 19.9369 4.77699 23.7609 5.46784 27.4627C5.58166 28.1278 5.42951 28.811 5.04421 29.3649C4.6589 29.9188 4.07132 30.2991 3.40818 30.4237C2.74505 30.5483 2.0595 30.4073 1.4994 30.031C0.939293 29.6548 0.549516 29.0735 0.414129 28.4125C-0.479337 23.6308 0.101485 18.6906 2.0796 14.2466C4.05772 9.80257 7.33972 6.06467 11.4905 3.52836C15.6414 0.992059 20.465 -0.222872 25.322 0.04462C30.179 0.312112 34.8401 2.04939 38.6873 5.02618L40.7856 2.92789C41.0251 2.68773 41.3305 2.52404 41.6631 2.45753C41.9958 2.39102 42.3406 2.42468 42.6541 2.55426C42.9676 2.68384 43.2356 2.9035 43.4242 3.18546C43.6128 3.46741 43.7135 3.79897 43.7136 4.13818V11.9999C43.7136 12.4545 43.5329 12.8906 43.2115 13.2121C42.89 13.5336 42.4539 13.7142 41.9993 13.7142H34.1376C33.7991 13.7134 33.4683 13.6125 33.1871 13.4241C32.9059 13.2356 32.6868 12.9682 32.5573 12.6554C32.4279 12.3426 32.394 11.9985 32.4598 11.6665C32.5256 11.3345 32.6883 11.0293 32.9273 10.7896L35.0153 8.7016ZM44.5844 17.537C45.2546 17.4106 45.9475 17.5556 46.5107 17.9402C47.074 18.3247 47.4614 18.9172 47.5878 19.5873C48.4821 24.3695 47.9016 29.3106 45.9234 33.7553C43.9452 38.2 40.6627 41.9385 36.5112 44.475C32.3597 47.0115 27.5352 48.2262 22.6775 47.9581C17.8198 47.69 13.1584 45.9516 9.31127 42.9736L7.21299 45.0753C6.97323 45.3157 6.6675 45.4794 6.33455 45.5458C6.00161 45.6122 5.65645 45.5783 5.34283 45.4483C5.0292 45.3183 4.76124 45.0981 4.57292 44.8156C4.38459 44.5331 4.28438 44.2011 4.28499 43.8616V35.9999C4.28499 35.5452 4.4656 35.1092 4.78709 34.7877C5.10858 34.4662 5.54461 34.2856 5.99927 34.2856H13.861C14.2005 34.285 14.5325 34.3852 14.815 34.5735C15.0975 34.7619 15.3177 35.0298 15.4477 35.3434C15.5777 35.6571 15.6116 36.0022 15.5452 36.3352C15.4788 36.6681 15.3151 36.9738 15.0747 37.2136L12.9833 39.3016C16.0397 41.5014 19.6849 42.7356 23.4491 42.845C27.2133 42.9545 30.924 41.9342 34.103 39.9156C37.2821 37.8971 39.7839 34.9727 41.2859 31.5195C42.788 28.0663 43.2215 24.2423 42.5307 20.5405C42.4682 20.2081 42.4718 19.8668 42.5414 19.5359C42.611 19.205 42.7452 18.891 42.9363 18.6121C43.1274 18.3331 43.3716 18.0945 43.655 17.9101C43.9384 17.7256 44.2554 17.5988 44.5878 17.537H44.5844ZM21.1913 13.8307C21.8427 10.8479 26.0838 10.8342 26.7627 13.8033L26.797 13.9542C27.1637 15.7796 28.0737 17.4515 29.4075 18.7505C30.7414 20.0494 32.4368 20.9148 34.2713 21.233C37.3707 21.7713 37.3707 26.2285 34.2678 26.7667C32.4747 27.0786 30.8138 27.9135 29.4937 29.1665C28.1737 30.4195 27.2533 32.0346 26.8484 33.809L26.7627 34.1965C26.0838 37.169 21.8427 37.1485 21.1913 34.1725L21.1193 33.8399C20.7294 32.0595 19.818 30.4357 18.5015 29.1753C17.185 27.915 15.5229 27.0753 13.7273 26.7633C10.6313 26.225 10.6313 21.7782 13.7273 21.2399C15.517 20.9282 17.1739 20.0923 18.488 18.838C19.8022 17.5836 20.7143 15.9674 21.109 14.1942L21.1638 13.9507L21.1913 13.8307Z" fill="#DDE6F7"/>
</g>
<defs>
<clipPath id="clip0_135_891">
<rect width="48" height="48" fill="white"/>
</clipPath>
</defs>
</svg>
