<svg width="65" height="65" viewBox="0 0 65 65" fill="none" xmlns="http://www.w3.org/2000/svg">
<path d="M16.4923 34.5984H14.405V40.8734H16.4923V34.5984Z" fill="#F66801"/>
<path d="M20.6679 34.5984H18.5806V40.8734H20.6679V34.5984Z" fill="#F66801"/>
<path d="M64.5013 64.926H35.2788V63.8801C35.2788 58.1855 37.0457 52.7399 40.3886 48.1319L40.7591 47.6226C42.8756 44.7057 46.2905 42.9634 49.89 42.9634C53.4896 42.9634 56.9045 44.7057 59.021 47.6236L59.3905 48.1309C62.7343 52.7399 64.5013 58.1855 64.5013 63.8801V64.926Z" fill="#F66801"/>
<path d="M23.3059 42.3591L23.0054 41.4544C23.4844 41.0706 23.7985 40.487 23.7985 39.8261V35.6427C23.7985 34.4891 22.8624 33.551 21.7112 33.551H20.6676V3.22174C20.6676 1.49193 19.2628 0.0842285 17.5366 0.0842285C15.8104 0.0842285 14.4056 1.49193 14.4056 3.22174V33.551H13.362C12.2108 33.551 11.2746 34.4891 11.2746 35.6427V39.8261C11.2746 40.487 11.5888 41.0706 12.0678 41.4544L11.7673 42.3591C9.54948 49.0252 7.23256 54.8662 1.30353 58.8268L0 59.697L1.30249 60.5671C1.56966 60.7449 7.93807 64.9262 17.5366 64.9262C27.1351 64.9262 33.5035 60.7449 33.7707 60.5671L35.0732 59.697L33.7707 58.8268C27.8417 54.8662 25.5237 49.0252 23.3059 42.3591ZM14.0748 45.2215L14.3284 41.9177H14.4025C14.3889 48.7763 13.7095 55.6611 12.383 62.39C11.4583 62.231 10.5848 62.0407 9.76865 61.8273C12.1764 56.5783 13.6312 51.0029 14.0748 45.2215ZM16.4909 41.9177H16.4929V62.8136C15.7926 62.7895 15.1143 62.7393 14.4536 62.6724C15.7916 55.8493 16.4773 48.8705 16.4909 41.9177ZM18.5803 42.6645C18.5803 49.1706 19.1689 55.7155 20.3305 62.1191L20.4338 62.6912C19.8316 62.7487 19.2148 62.7926 18.5792 62.8146L18.5803 42.6645ZM22.3844 61.7447C21.2447 55.4645 20.6676 49.0441 20.6676 42.6645V41.9177H20.7448L20.9984 45.2215C21.442 51.0029 22.8968 56.5783 25.3035 61.8273C24.4341 62.0543 23.499 62.2561 22.5065 62.4203L22.3844 61.7447ZM16.4929 3.22174C16.4929 2.64444 16.9615 2.1759 17.5366 2.1759C18.1117 2.1759 18.5803 2.64444 18.5803 3.22174V33.551H16.4929V3.22174ZM13.362 35.6427H21.7112L21.7123 39.8261H13.362V35.6427ZM11.5074 49.0472C10.8196 53.2609 9.55887 57.3376 7.74604 61.2249C6.05948 60.6602 4.72047 60.0515 3.81457 59.5882C7.50704 56.7048 9.77804 53.0465 11.5074 49.0472ZM27.3272 61.2249C25.5143 57.3376 24.2536 53.2598 23.5658 49.0472C25.2952 53.0454 27.5651 56.7048 31.2586 59.5882C30.3538 60.0515 29.0137 60.6602 27.3272 61.2249Z" fill="black"/>
<path d="M54.0649 47.1465H51.9775V49.2382H54.0649V47.1465Z" fill="black"/>
<path d="M42.5846 54.4678H40.4973V56.5594H42.5846V54.4678Z" fill="black"/>
<path d="M58.2394 55.5137H56.1521V57.6053H58.2394V55.5137Z" fill="black"/>
<path d="M49.8901 58.6511H47.8027V60.7428H49.8901V58.6511Z" fill="black"/>
<path d="M44.6719 29.3677V27.2761C43.5208 27.2761 42.5846 26.3379 42.5846 25.1844C42.5846 24.0308 43.5208 23.0927 44.6719 23.0927C45.0539 23.0927 45.4213 23.2004 45.7636 23.4127L46.7593 24.0298L47.2571 22.9672C48.115 21.138 49.9685 19.9552 51.9776 19.9552C54.8549 19.9552 57.1959 22.301 57.1959 25.1844H59.2832C59.2832 21.1485 56.0061 17.8635 51.9776 17.8635C49.5072 17.8635 47.206 19.1384 45.868 21.182C45.4797 21.0627 45.0769 21.001 44.6719 21.001C42.3696 21.001 40.4973 22.8773 40.4973 25.1844C40.4973 27.4915 42.3696 29.3677 44.6719 29.3677Z" fill="black"/>
<path d="M55.1083 23.0925H53.021V25.1842H55.1083V23.0925Z" fill="black"/>
<path d="M48.8466 26.23H46.7593V28.3217H48.8466V26.23Z" fill="black"/>
<path d="M41.5407 31.4594C40.688 31.4594 39.8458 31.679 39.0902 32.089C38.1154 31.0254 36.7524 30.4136 35.2787 30.4136C32.4013 30.4136 30.0604 32.7594 30.0604 35.6428C30.0604 35.6867 30.0604 35.7306 30.0625 35.7745C28.2632 36.2389 26.9294 37.8798 26.9294 39.8261C26.9294 42.1332 28.8018 44.0095 31.1041 44.0095V41.9178C29.9529 41.9178 29.0168 40.9797 29.0168 39.8261C29.0168 38.6726 29.9529 37.7344 31.0394 37.7313L32.6257 37.8045L32.2657 36.4366C32.1853 36.1312 32.1477 35.8791 32.1477 35.6428C32.1477 33.9129 33.5525 32.5052 35.2787 32.5052C36.3808 32.5052 37.3827 33.0826 37.9567 34.0479L38.5871 35.1104L39.5274 34.3104C39.9355 33.9642 40.6149 33.5511 41.5407 33.5511C43.2669 33.5511 44.6716 34.9588 44.6716 36.6886C44.6716 38.4184 43.2669 39.8261 41.5407 39.8261V41.9178C44.418 41.9178 46.759 39.572 46.759 36.6886C46.759 33.8052 44.418 31.4594 41.5407 31.4594Z" fill="black"/>
<path d="M42.5846 35.6423H40.4973V37.734H42.5846V35.6423Z" fill="black"/>
<path d="M36.3227 34.5964H34.2354V36.6881H36.3227V34.5964Z" fill="black"/>
<path d="M60.3268 34.5968C60.1421 34.5968 59.9584 34.6094 59.7758 34.6345C59.0483 33.3439 57.6738 32.5051 56.1522 32.5051C53.8499 32.5051 51.9775 34.3814 51.9775 36.6885H54.0649C54.0649 35.5349 55.001 34.5968 56.1522 34.5968C57.0852 34.5968 57.9087 35.2337 58.155 36.1446L58.4607 37.2804L59.5503 36.8422C60.9394 36.2879 62.4141 37.3662 62.4141 38.7802C62.4141 39.9337 61.478 40.8718 60.3268 40.8718V42.9635C62.6291 42.9635 64.5014 41.0873 64.5014 38.7802C64.5014 36.473 62.6291 34.5968 60.3268 34.5968Z" fill="black"/>
</svg>
