<svg width="59" height="73" viewBox="0 0 59 73" fill="none" xmlns="http://www.w3.org/2000/svg">
<path d="M54.2263 7.51581C53.8803 7.21714 45.6051 0.206055 35.9344 0.206055C26.2637 0.206055 17.9885 7.21714 17.6426 7.51581L16.8232 8.21973L19.2462 11.559C24.0465 18.173 26.584 25.9922 26.584 34.1722H28.9216C28.9216 25.4945 26.2286 17.1973 21.1361 10.1804L20.0106 8.62967C21.3968 7.59077 24.3726 5.55983 28.0964 4.13091C29.4242 6.84117 30.51 9.67442 31.3013 12.5861L33.5571 11.9712C32.7564 9.01852 31.6636 6.14311 30.3347 3.38599C32.1089 2.87884 33.9977 2.54855 35.9344 2.54855C37.8711 2.54855 39.7599 2.87884 41.5353 3.38482C40.2064 6.14428 39.1136 9.02086 38.3129 11.9701L40.5687 12.585C41.3577 9.67676 42.4435 6.84352 43.7724 4.12973C47.4963 5.55866 50.4732 7.5896 51.8583 8.6285L50.7327 10.1792C45.6402 17.1973 42.9473 25.4945 42.9473 34.1722H45.2849C45.2849 25.9922 47.8224 18.173 52.6227 11.5578L55.0456 8.21856L54.2263 7.51581Z" fill="black"/>
<path d="M46.4539 47.0559H45.6533C45.7842 46.6881 45.8684 46.2969 45.8684 45.8847C45.8684 43.9474 44.2952 42.3709 42.362 42.3709H40.6099V38.8572H38.2723V42.3709H33.5971V38.8572H31.2595V42.3709H29.6056L24.9304 47.0559H7.8833L7.88447 64.6246H20.2563L23.7627 68.1384H31.2595V72.8234H40.6099V68.1384H46.4539C48.3872 68.1384 49.9604 66.5619 49.9604 64.6246C49.9604 63.7216 49.6086 62.9052 49.0487 62.2821C49.6097 61.659 49.9604 60.8427 49.9604 59.9396C49.9604 59.0366 49.6086 58.2202 49.0487 57.5971C49.6097 56.974 49.9604 56.1577 49.9604 55.2546C49.9604 54.3516 49.6086 53.5353 49.0487 52.9122C49.6097 52.289 49.9604 51.4727 49.9604 50.5697C49.9604 48.6324 48.3872 47.0559 46.4539 47.0559ZM47.6228 50.5697C47.6228 51.215 47.0991 51.7409 46.4539 51.7409H33.5971C33.0945 51.7409 32.6749 51.4188 32.5101 50.9726L34.0798 49.3984H41.7787H42.362H46.4539C47.0991 49.3984 47.6228 49.9243 47.6228 50.5697ZM47.6228 55.2546C47.6228 55.9 47.0991 56.4259 46.4539 56.4259H33.5971C32.9519 56.4259 32.4283 55.9 32.4283 55.2546C32.4283 54.6093 32.9519 54.0834 33.5971 54.0834H46.4539C47.0991 54.0834 47.6228 54.6093 47.6228 55.2546ZM47.6228 59.9396C47.6228 60.585 47.0991 61.1109 46.4539 61.1109H33.5971C32.9519 61.1109 32.4283 60.585 32.4283 59.9396C32.4283 59.2943 32.9519 58.7684 33.5971 58.7684H46.4539C47.0991 58.7684 47.6228 59.2943 47.6228 59.9396ZM21.2241 62.2821H10.2221L10.2209 49.3984H25.8981L30.5734 44.7134H42.362C43.0071 44.7134 43.5308 45.2393 43.5308 45.8847C43.5308 46.53 43.0071 47.0559 42.362 47.0559H41.7787H33.112L24.5879 55.5978L26.2406 57.254L30.8083 52.6767C30.8702 52.7575 30.9345 52.8372 31.0023 52.9122C30.4413 53.5353 30.0906 54.3516 30.0906 55.2546C30.0906 56.1577 30.4425 56.974 31.0023 57.5971C30.4413 58.2202 30.0906 59.0366 30.0906 59.9396C30.0906 60.8427 30.4425 61.659 31.0023 62.2821C30.4413 62.9052 30.0906 63.7216 30.0906 64.6246C30.0906 65.0369 30.1748 65.4281 30.3057 65.7959H24.7305L21.2241 62.2821ZM38.2723 70.4809H33.5971V68.1384H38.2723V70.4809ZM46.4539 65.7959H40.6099H33.5971C32.9519 65.7959 32.4283 65.27 32.4283 64.6246C32.4283 63.9793 32.9519 63.4534 33.5971 63.4534H46.4539C47.0991 63.4534 47.6228 63.9793 47.6228 64.6246C47.6228 65.27 47.0991 65.7959 46.4539 65.7959Z" fill="black"/>
<path d="M55.8039 43.5422H53.4663V45.8847H55.8039V43.5422Z" fill="black"/>
<path d="M53.4668 45.884H51.1292V48.2265H53.4668V45.884Z" fill="black"/>
<path d="M55.8039 48.2266H53.4663V50.5691H55.8039V48.2266Z" fill="black"/>
<path d="M58.1418 45.884H55.8042V48.2265H58.1418V45.884Z" fill="black"/>
<path d="M41.1465 27.3289L38.8381 26.9611C39.869 20.4666 42.2557 14.3854 45.9328 8.88525L47.8754 10.1889C44.3876 15.4056 42.1237 21.1716 41.1465 27.3289Z" fill="black"/>
<path d="M40.6697 31.8902L38.3345 31.7684C38.3765 30.9626 38.4397 30.1626 38.5226 29.365L40.8462 29.6086C40.7679 30.3652 40.7095 31.1265 40.6697 31.8902Z" fill="black"/>
<path d="M42.9475 40.0287H28.9218C27.6326 40.0287 26.5842 38.9781 26.5842 37.6862V33.0012H45.2852V37.6862C45.2852 38.9781 44.2367 40.0287 42.9475 40.0287Z" fill="#F66801"/>
<path d="M31.1999 31.8902C31.1602 31.1265 31.1017 30.3652 31.0234 29.6086L33.347 29.365C33.43 30.1626 33.4931 30.9626 33.5352 31.7684L31.1999 31.8902Z" fill="black"/>
<path d="M30.7229 27.3289C29.7458 21.1728 27.4818 15.4056 23.9929 10.1889L25.9355 8.88525C29.6125 14.3854 31.9992 20.4666 33.0301 26.9611L30.7229 27.3289Z" fill="black"/>
<path d="M55.8049 21.2891H53.4673V23.6316H55.8049V21.2891Z" fill="black"/>
<path d="M53.4668 23.6309H51.1292V25.9734H53.4668V23.6309Z" fill="black"/>
<path d="M55.8049 25.9734H53.4673V28.3159H55.8049V25.9734Z" fill="black"/>
<path d="M58.1421 23.6309H55.8044V25.9734H58.1421V23.6309Z" fill="black"/>
<path d="M14.896 29.4866H12.5583V31.8291H14.896V29.4866Z" fill="black"/>
<path d="M12.5586 31.8291H10.2209V34.1716H12.5586V31.8291Z" fill="black"/>
<path d="M14.896 34.1721H12.5583V36.5146H14.896V34.1721Z" fill="black"/>
<path d="M17.2336 31.8291H14.896V34.1716H17.2336V31.8291Z" fill="black"/>
<path d="M12.5586 4.89136H10.2209V7.23385H12.5586V4.89136Z" fill="black"/>
<path d="M10.2209 7.23389H7.8833V9.57638H10.2209V7.23389Z" fill="black"/>
<path d="M12.5586 9.57617H10.2209V11.9187H12.5586V9.57617Z" fill="black"/>
<path d="M14.896 7.23389H12.5583V9.57638H14.896V7.23389Z" fill="black"/>
<path d="M7.88345 68.1387H3.20822C1.91903 68.1387 0.870605 67.0881 0.870605 65.7962V45.885C0.870605 44.5931 1.91903 43.5425 3.20822 43.5425H7.88345C9.17265 43.5425 10.2211 44.5931 10.2211 45.885V65.7962C10.2211 67.0881 9.17265 68.1387 7.88345 68.1387Z" fill="#F66801"/>
</svg>
