<svg width="71" height="72" viewBox="0 0 71 72" fill="none" xmlns="http://www.w3.org/2000/svg">
<path d="M39.0198 64.2312H26.457V66.5201H39.0198V64.2312Z" fill="#F66801"/>
<path d="M44.7302 64.2312H41.304V66.5201H44.7302V64.2312Z" fill="#F66801"/>
<path d="M42.4463 40.1979H28.7414C26.222 40.1979 24.1731 38.1447 24.1731 35.6201C24.1731 33.0954 26.222 31.0422 28.7414 31.0422H42.4463C44.9657 31.0422 47.0145 33.0954 47.0145 35.6201C47.0145 38.1447 44.9657 40.1979 42.4463 40.1979Z" fill="#F66801"/>
<path d="M26.4572 24.1753C26.4572 19.3846 28.4981 14.9303 31.6582 12.8268L30.394 10.9202C26.5566 13.4746 24.1731 18.5537 24.1731 24.1753H26.4572Z" fill="black"/>
<path d="M35.5938 11.586V9.29712C34.7098 9.29712 33.8293 9.42873 32.9773 9.68852L33.642 11.8779C34.2793 11.6845 34.9348 11.586 35.5938 11.586Z" fill="black"/>
<path d="M58.4353 7.00864H43.1018C40.8611 5.55175 38.3074 4.71973 35.5938 4.71973C32.8803 4.71973 30.3266 5.55175 28.0859 7.00864H12.7524C11.4927 7.00864 10.4682 8.03522 10.4682 9.29755V13.8754C10.4682 15.1377 11.4927 16.1643 12.7524 16.1643H12.9271L13.3074 18.4532H9.32617V20.7421H13.6889L15.5585 31.983C15.9365 34.2559 17.6073 35.9966 19.7396 36.5562C19.6516 36.9946 19.6048 37.4466 19.6048 37.909C19.6048 38.2992 19.6448 38.6803 19.7076 39.0534H19.6048V40.1979C19.6048 46.4272 23.1315 51.9114 28.5039 54.5574L25.3632 65.0475L25.3152 71.0982H45.8725V65.3759L42.6804 54.5585C48.0539 51.9137 51.5829 46.4283 51.5829 40.1979V39.0534H51.4801C51.5429 38.6803 51.5829 38.2992 51.5829 37.909C51.5829 37.4466 51.536 36.9946 51.4481 36.5562C53.5803 35.9966 55.2512 34.2559 55.6292 31.983L58.2606 16.1643H58.4353C59.695 16.1643 60.7194 15.1377 60.7194 13.8754V9.29755C60.7194 8.03522 59.695 7.00864 58.4353 7.00864ZM49.2987 24.1755C49.2987 26.8352 48.7791 29.4366 47.8391 31.7976C46.9049 31.3181 45.8508 31.0422 44.7304 31.0422H26.4573C25.338 31.0422 24.2828 31.3181 23.3485 31.7976C22.4086 29.4366 21.889 26.8352 21.889 24.1755C21.889 14.7097 28.0367 7.00864 35.5938 7.00864C43.1509 7.00864 49.2987 14.7097 49.2987 24.1755ZM26.4573 33.3312H44.7304C47.2498 33.3312 49.2987 35.3843 49.2987 37.909C49.2987 40.4337 47.2498 42.4868 44.7304 42.4868H26.4573C23.9378 42.4868 21.889 40.4337 21.889 37.909C21.889 35.3843 23.9378 33.3312 26.4573 33.3312ZM12.7524 9.29755H25.3118C24.0384 10.6034 22.9431 12.1518 22.0534 13.8754H12.7524V9.29755ZM17.8118 31.6065L16.0039 20.7421H18.4628V18.4532H15.6236L15.2432 16.1643H21.0404C20.1268 18.6111 19.6048 21.3178 19.6048 24.1755C19.6048 27.3422 20.2467 30.4586 21.4481 33.2385C21.1135 33.5978 20.8188 33.9926 20.5664 34.4184C19.1674 34.162 18.0527 33.0588 17.8118 31.6065ZM38.7585 53.564L39.2827 55.7911C39.7179 55.6881 40.1427 55.5668 40.5619 55.4306L43.5883 65.5442V68.8093H27.5993V65.5442L30.627 55.4306C31.045 55.5668 31.471 55.6881 31.9061 55.7911L32.4303 53.564C27.2636 52.3406 23.4045 48.3224 22.2533 43.3188C23.4148 44.2287 24.8721 44.7757 26.4573 44.7757H44.7304C46.3156 44.7757 47.7729 44.2287 48.9355 43.3188C47.7843 48.3235 43.9241 52.3406 38.7585 53.564ZM53.3759 31.6065C53.1338 33.0588 52.0191 34.162 50.6212 34.4184C50.3688 33.9938 50.0742 33.5978 49.7396 33.2385C50.941 30.4586 51.5829 27.3422 51.5829 24.1755C51.5829 21.3178 51.0609 18.6111 50.1473 16.1643H55.9444L53.3759 31.6065ZM58.4353 13.8754H49.1331C48.2446 12.1518 47.1493 10.6034 45.8748 9.29755H58.4353V13.8754Z" fill="black"/>
<path d="M6.23462 30.233L7.84951 31.8512L9.32621 30.3715V37.9089H11.6104V30.3715L13.0871 31.8512L14.7019 30.233L10.4683 25.9905L6.23462 30.233Z" fill="black"/>
<path d="M11.6103 40.198H9.32617V42.4869H11.6103V40.198Z" fill="black"/>
<path d="M56.1511 45.9199H53.8669V48.2088H56.1511V45.9199Z" fill="black"/>
<path d="M53.8672 48.209H51.583V50.4979H53.8672V48.209Z" fill="black"/>
<path d="M56.1511 50.498H53.8669V52.787H56.1511V50.498Z" fill="black"/>
<path d="M58.4353 48.209H56.1511V50.4979H58.4353V48.209Z" fill="black"/>
<path d="M68.7138 64.2314H66.4297V66.5204H68.7138V64.2314Z" fill="black"/>
<path d="M66.4297 66.5203H64.1455V68.8092H66.4297V66.5203Z" fill="black"/>
<path d="M68.7138 68.8091H66.4297V71.098H68.7138V68.8091Z" fill="black"/>
<path d="M70.9983 66.5203H68.7141V68.8092H70.9983V66.5203Z" fill="black"/>
<path d="M65.2878 0.141846H63.0037V2.43076H65.2878V0.141846Z" fill="black"/>
<path d="M63.0036 2.43066H60.7195V4.71958H63.0036V2.43066Z" fill="black"/>
<path d="M65.2878 4.71973H63.0037V7.00864H65.2878V4.71973Z" fill="black"/>
<path d="M67.5717 2.43066H65.2876V4.71958H67.5717V2.43066Z" fill="black"/>
<path d="M4.75778 49.3533H2.47363V51.6422H4.75778V49.3533Z" fill="black"/>
<path d="M2.4736 51.6421H0.189453V53.931H2.4736V51.6421Z" fill="black"/>
<path d="M4.75778 53.9312H2.47363V56.2201H4.75778V53.9312Z" fill="black"/>
<path d="M7.04171 51.6421H4.75757V53.931H7.04171V51.6421Z" fill="black"/>
<path d="M4.75778 0.141846H2.47363V2.43076H4.75778V0.141846Z" fill="black"/>
<path d="M2.4736 2.43066H0.189453V4.71958H2.4736V2.43066Z" fill="black"/>
<path d="M4.75778 4.71973H2.47363V7.00864H4.75778V4.71973Z" fill="black"/>
<path d="M7.04171 2.43066H4.75757V4.71958H7.04171V2.43066Z" fill="black"/>
</svg>
