<svg width="73" height="74" viewBox="0 0 73 74" fill="none" xmlns="http://www.w3.org/2000/svg">
<path d="M40.3679 27.8444H33.3765V23.1737H28.7156V16.1677H33.3765V11.4971H40.3679V16.1677H45.0288V23.1737H40.3679V27.8444Z" fill="#F66801"/>
<path d="M30.5022 46.9277C31.1465 45.9819 32.2302 45.3595 33.4595 45.3595C34.1657 45.3595 34.8566 45.5685 35.4439 45.962L41.9261 50.2929C43.1636 49.0236 43.8639 47.3375 43.8639 45.53C43.8639 44.4768 43.6145 43.4188 43.1438 42.473L36.8725 29.9043L30.6012 42.4742C30.1305 43.4188 29.8811 44.4756 29.8811 45.53C29.8811 45.9375 29.9161 46.3415 29.9871 46.7338L30.5022 46.9277Z" fill="#F66801"/>
<path d="M23.511 46.038L24.4875 46.6778L28.3048 40.8103L27.3306 40.1728C22.3609 36.9185 19.3942 31.4363 19.3942 25.5092C19.3942 15.8515 27.2351 7.99427 36.8727 7.99427C46.5103 7.99427 54.3512 15.8515 54.3512 25.5092C54.3512 31.4363 51.3845 36.9185 46.4148 40.1728L45.4407 40.8103L49.258 46.6778L50.2344 46.038C57.1897 41.4829 61.3426 33.8078 61.3426 25.5092C61.3426 11.9889 50.3661 0.988281 36.8727 0.988281C23.3793 0.988281 12.4028 11.9889 12.4028 25.5092C12.4028 33.8078 16.5557 41.4829 23.511 46.038ZM36.8727 3.32361C49.0808 3.32361 59.0121 13.2756 59.0121 25.5092C59.0121 32.6273 55.6341 39.2386 49.9198 43.4189L48.6462 41.4607C53.6987 37.7183 56.6817 31.8392 56.6817 25.5092C56.6817 14.5636 47.7956 5.65894 36.8727 5.65894C25.9498 5.65894 17.0638 14.5636 17.0638 25.5092C17.0638 31.8392 20.0468 37.7183 25.0992 41.4607L23.8256 43.4189C18.1113 39.2386 14.7333 32.6273 14.7333 25.5092C14.7333 13.2756 24.6646 3.32361 36.8727 3.32361Z" fill="black"/>
<path d="M70.6642 51.1976H61.3423C60.0571 51.1976 59.0119 52.245 59.0119 53.533V55.8683H53.4316C52.7382 55.8683 52.0682 55.6651 51.4926 55.2798L36.0894 44.9903C35.3075 44.4672 34.3975 44.1917 33.4595 44.1917C30.8447 44.1917 28.7158 46.3238 28.7158 48.944V49.278C28.7158 50.8707 29.5058 52.3501 30.8272 53.2329L38.5387 58.3846L37.4131 59.5126C36.7536 60.1746 35.8762 60.539 34.9417 60.539H24.6783L22.8547 57.7961C21.2945 55.4503 20.2679 52.8522 19.8053 50.0697C19.4639 48.0169 17.7079 46.527 15.6314 46.527H15.4683C13.1355 46.527 11.2373 48.4291 11.2373 50.7679C11.2373 51.1603 11.2921 51.5514 11.4005 51.9321L12.3769 55.3569L8.35572 51.3261C7.52141 50.4912 6.41211 50.03 5.17463 50.03C3.99192 50.03 2.88145 50.4924 2.04482 51.3284C1.21051 52.1668 0.750244 53.2808 0.750244 54.5243C0.750244 55.7037 1.20818 56.8106 2.03666 57.642L11.2478 66.8712C12.3897 68.0155 13.83 68.7885 15.4147 69.1061L30.1397 72.0568C30.6664 72.1619 31.2048 72.2156 31.7384 72.2156H59.337C59.7413 72.9104 60.4847 73.3833 61.3435 73.3833H70.6653C71.9506 73.3833 72.9958 72.3359 72.9958 71.0479V53.533C72.9946 52.245 71.9506 51.1976 70.6642 51.1976ZM13.6412 51.2922C13.5923 51.1206 13.5678 50.9443 13.5678 50.7679C13.5678 49.717 14.4207 48.8623 15.4683 48.8623H15.6314C16.5648 48.8623 17.3536 49.5314 17.5063 50.4538C18.0236 53.5633 19.1702 56.4696 20.9146 59.0911L21.8782 60.539H18.9955C18.0621 60.539 17.1847 60.1746 16.5228 59.5126L15.7701 58.7583L13.6412 51.2922ZM30.5965 69.767L15.8726 66.8163C14.7412 66.5898 13.7123 66.0375 12.8966 65.2201L3.68546 55.9909C3.29628 55.6009 3.08071 55.0778 3.08071 54.4659C3.08071 53.9055 3.29861 53.3765 3.69362 52.9807C4.44636 52.2275 5.8761 52.1458 6.70691 52.9783L14.874 61.1648C15.9763 62.2659 17.4387 62.8743 18.9943 62.8743H34.9417C36.4972 62.8743 37.9608 62.2659 39.0619 61.1637L39.8589 60.365L41.5928 65.5786L43.8032 64.8395L41.3469 57.454L32.1206 51.2899C31.4483 50.8403 31.0463 50.0895 31.0463 49.278V48.944C31.0463 47.6106 32.1288 46.527 33.4583 46.527C33.9361 46.527 34.3987 46.6671 34.796 46.9333L50.198 57.2228C51.1594 57.8638 52.2768 58.2036 53.4316 58.2036H59.0119V69.8803H31.7384C31.3562 69.8803 30.9717 69.8429 30.5965 69.767ZM68.3337 71.0479V66.3773H66.0033V71.0479H61.3423V53.533H66.0033V64.042H68.3337V53.533H70.6642L70.6653 71.0479H68.3337Z" fill="black"/>
</svg>
