<svg width="64" height="64" viewBox="0 0 64 64" fill="none" xmlns="http://www.w3.org/2000/svg">
<path d="M56.5649 7.82666H35.2322V26.15H56.5649V7.82666Z" fill="#F66801"/>
<path d="M31.1687 26.15H27.1053V19.0243C27.1053 18.4624 26.6502 18.0063 26.0894 18.0063H9.83594V7.82666H31.1687V26.15Z" fill="#F66801"/>
<path d="M56.5649 30.2219H35.2322V48.5453H56.5649V30.2219Z" fill="#F66801"/>
<path d="M31.169 48.5453H27.1056H23.0422V42.4375H26.0898C26.6505 42.4375 27.1056 41.9814 27.1056 41.4195V30.2219H31.169V48.5453Z" fill="#F66801"/>
<path d="M61.6442 0.700684H4.75698C3.6365 0.700684 2.72529 1.6138 2.72529 2.73661V6.80847C2.72529 7.93128 3.6365 8.8444 4.75698 8.8444V16.9881H2.72529C1.60482 16.9881 0.693604 17.9012 0.693604 19.024V26.1498V37.3474V50.4018C0.693604 51.38 0.97296 52.3328 1.50221 53.1564L2.72529 55.061V63.8145H18.9788V54.2324L21.3894 52.3003C22.3138 51.5592 23.0137 50.6166 23.4678 49.563H61.6442V8.8444C62.7647 8.8444 63.6759 7.93128 63.6759 6.80847V2.73661C63.6759 1.6138 62.7647 0.700684 61.6442 0.700684ZM6.78866 8.8444H8.82035V16.9881H6.78866V8.8444ZM55.5492 47.527H36.2481V31.2396H55.5492V47.527ZM55.5492 25.1318H36.2481V8.8444H55.5492V25.1318ZM55.5492 27.1678V29.2037H34.2164V47.527H32.1848V29.2037H28.1214V27.1678H32.1848V8.8444H34.2164V27.1678H55.5492ZM30.1531 25.1318H28.1214V19.024C28.1214 17.9012 27.2102 16.9881 26.0897 16.9881H10.852V8.8444H30.1531V25.1318ZM22.0263 46.7361C22.0263 48.2905 21.3315 49.7401 20.1206 50.7112L16.9471 53.2541V61.7785H4.75698V54.4624L3.21086 52.0539C2.8929 51.5602 2.72529 50.9891 2.72529 50.4018V37.3474V26.1498C2.72529 25.6245 3.0402 25.1634 3.47498 25.0524C3.84678 24.9578 4.1302 25.0982 4.3029 25.2336C4.58327 25.4515 4.75698 25.8016 4.75698 26.1467V37.3474H6.78866V26.1467V24.1139C6.78866 23.553 7.24478 23.0959 7.80451 23.0959C8.36424 23.0959 8.82035 23.553 8.82035 24.1139V37.3474H10.852V24.1139C10.852 23.553 11.3082 23.0959 11.8679 23.0959C12.4276 23.0959 12.8837 23.553 12.8837 24.1139V37.3474H14.9154V24.1139C14.9154 23.553 15.3715 23.0959 15.9313 23.0959C16.491 23.0959 16.9471 23.553 16.9471 24.1139V32.7666V34.2935V42.4372H18.9788V34.2935V32.7666C18.9788 31.9247 19.6624 31.2396 20.5026 31.2396C21.3427 31.2396 22.0263 31.9247 22.0263 32.7666V46.7361ZM20.5026 29.2037C19.955 29.2037 19.442 29.3391 18.9788 29.561V24.1139C18.9788 22.4301 17.6115 21.06 15.9313 21.06C15.148 21.06 14.44 21.3664 13.8996 21.854C13.3591 21.3654 12.6511 21.06 11.8679 21.06C11.0847 21.06 10.3766 21.3664 9.83619 21.854C9.29577 21.3664 8.58772 21.06 7.80451 21.06C6.42702 21.06 5.27506 21.9853 4.89818 23.2445C4.29477 22.9798 3.62431 22.9147 2.97316 23.0806C2.88681 23.102 2.80757 23.1376 2.72529 23.1672V19.024H26.0897V41.4193H24.058V32.7666C24.058 30.8019 22.4631 29.2037 20.5026 29.2037ZM24.058 46.7361V43.4552H26.0897C27.2102 43.4552 28.1214 42.5421 28.1214 41.4193V31.2396H30.1531V47.527H24.0143C24.0428 47.2664 24.058 47.0028 24.058 46.7361ZM59.6125 47.527H57.5808V8.8444H59.6125V47.527ZM4.75698 6.80847V2.73661H61.6442L61.6452 6.80847H4.75698Z" fill="black"/>
<path d="M61.644 51.5991H59.6123V53.635H61.644V51.5991Z" fill="black"/>
<path d="M59.6125 53.6348H57.5808V55.6707H59.6125V53.6348Z" fill="black"/>
<path d="M61.644 55.6709H59.6123V57.7068H61.644V55.6709Z" fill="black"/>
<path d="M63.676 53.6348H61.6443V55.6707H63.676V53.6348Z" fill="black"/>
<path d="M34.2163 57.7065H32.1846V59.7425H34.2163V57.7065Z" fill="black"/>
<path d="M32.1848 59.7424H30.1531V61.7784H32.1848V59.7424Z" fill="black"/>
<path d="M34.2163 61.7788H32.1846V63.8147H34.2163V61.7788Z" fill="black"/>
<path d="M36.248 59.7424H34.2163V61.7784H36.248V59.7424Z" fill="black"/>
<path d="M51.486 37.3474H49.4543V39.3833H51.486V37.3474Z" fill="black"/>
<path d="M49.4541 39.3835H47.4224V41.4195H49.4541V39.3835Z" fill="black"/>
<path d="M51.486 41.4194H49.4543V43.4554H51.486V41.4194Z" fill="black"/>
<path d="M53.5175 39.3835H51.4858V41.4195H53.5175V39.3835Z" fill="black"/>
<path d="M42.343 12.9163H40.3113V14.9522H42.343V12.9163Z" fill="black"/>
<path d="M40.3115 14.9519H38.2798V16.9878H40.3115V14.9519Z" fill="black"/>
<path d="M42.343 16.988H40.3113V19.024H42.343V16.988Z" fill="black"/>
<path d="M44.3749 14.9519H42.3433V16.9878H44.3749V14.9519Z" fill="black"/>
</svg>
