<svg width="77" height="77" viewBox="0 0 77 77" fill="none" xmlns="http://www.w3.org/2000/svg">
<path d="M48.6985 59.7654H27.3235V74.0154H48.6985V59.7654Z" fill="#F66801"/>
<path d="M64.4233 41.9885C59.361 40.7214 55.8234 36.1923 55.8234 30.9733V19.3904C55.8234 9.56857 47.8328 1.57788 38.0109 1.57788C28.1891 1.57788 20.1984 9.56857 20.1984 19.3904V30.9733C20.1984 36.1935 16.6609 40.7214 11.5986 41.9885L9.96338 42.397L11.6959 44.9953C13.1768 47.2171 15.2062 48.9579 17.6049 50.0789C17.7617 50.0172 17.9101 49.9412 18.074 49.8901L32.0734 45.5154V40.3628C29.1819 38.6896 27.061 35.8325 26.3746 32.4529H26.1359C23.5128 32.4529 21.3859 30.3261 21.3859 27.7029C21.3859 25.0797 23.5128 22.9529 26.1359 22.9529C26.1359 19.7146 27.4351 16.7826 29.5369 14.6404H29.4182C28.8541 14.0098 28.5109 13.1774 28.5109 12.2654C28.5109 10.2977 30.1058 8.70288 32.0734 8.70288C33.1066 8.70288 34.0281 9.14938 34.6788 9.85119C35.1799 8.49032 36.4767 7.51538 38.0109 7.51538C39.5452 7.51538 40.8419 8.49032 41.3431 9.85119C41.9938 9.14938 42.9153 8.70288 43.9484 8.70288C45.9161 8.70288 47.5109 10.2977 47.5109 12.2654C47.5109 13.1774 47.1678 14.0098 46.6037 14.6404H46.4849C48.5868 16.7826 49.8859 19.7146 49.8859 22.9529C52.5091 22.9529 54.6359 25.0797 54.6359 27.7029C54.6359 30.3261 52.5091 32.4529 49.8859 32.4529H49.6473C48.9609 35.8325 46.84 38.6896 43.9484 40.3628V45.5154L57.9491 49.8901C58.1118 49.9412 58.2602 50.0172 58.4181 50.0789C60.8169 48.9579 62.8463 47.2171 64.3271 44.9953L66.0597 42.397L64.4233 41.9885Z" fill="#F66801"/>
<path d="M64.136 56.6909C64.136 53.0346 61.7919 49.8462 58.303 48.7561L45.136 44.6426V41.0124C47.7604 39.2964 49.7245 36.6626 50.5854 33.5703C53.5269 33.2188 55.8235 30.7369 55.8235 27.7029C55.8235 24.8173 53.7525 22.4114 51.0189 21.8794C50.7944 19.1339 49.7257 16.6247 48.062 14.6214C48.4705 13.9077 48.6985 13.1002 48.6985 12.2654C48.6985 9.64576 46.5681 7.51538 43.9485 7.51538C43.1576 7.51538 42.381 7.71844 41.6922 8.09488C40.8064 7.00119 39.4585 6.32788 38.011 6.32788C36.5634 6.32788 35.2156 7.00119 34.3297 8.09488C33.641 7.71844 32.8644 7.51538 32.0735 7.51538C29.4539 7.51538 27.3235 9.64576 27.3235 12.2654C27.3235 13.1002 27.5515 13.9077 27.96 14.6214C26.2963 16.6259 25.2275 19.1351 25.0031 21.8794C22.2695 22.4114 20.1985 24.8173 20.1985 27.7029C20.1985 30.7369 22.4951 33.2188 25.4365 33.5691C26.2963 36.6626 28.2616 39.2953 30.886 41.0112V44.6414L17.719 48.7561C14.2301 49.8462 11.886 53.0358 11.886 56.6909V65.7029H14.261V75.2029H61.761V65.7029H64.136V56.6909ZM52.8844 59.6929C54.0149 60.8234 54.636 62.3244 54.636 63.9216C54.636 65.5188 54.0149 67.0198 52.8844 68.1503L51.0735 69.9613V72.8279H24.9485V69.9613L23.1375 68.1503C22.007 67.0198 21.386 65.5188 21.386 63.9216C21.386 62.3244 22.007 60.8234 23.1375 59.6929C24.3049 58.5256 24.9485 56.9724 24.9485 55.3206V48.9853L27.3235 48.2431V57.3904H48.6985V48.2443L51.0735 48.9864V55.3218C51.0735 56.9724 51.7171 58.5256 52.8844 59.6929ZM43.9485 18.2029V20.5779H41.5735V18.2029H39.1985V20.5779H36.8235V18.2029H34.4485V20.5779H32.0735V18.2029H29.6985V20.5779H27.599C28.6832 15.8255 32.9356 12.2654 38.011 12.2654C43.0864 12.2654 47.3388 15.8255 48.423 20.5779H46.3235V18.2029H43.9485ZM53.4485 27.7029C53.4485 29.2668 52.4284 30.5849 51.0236 31.0623C51.0485 30.7358 51.0735 30.4104 51.0735 30.0779V24.3589C52.4522 24.8505 53.4485 26.1568 53.4485 27.7029ZM46.3235 12.2654C46.3235 12.4566 46.2926 12.6442 46.2475 12.8271C45.0719 11.8688 43.7241 11.1206 42.2622 10.6159C42.7171 10.1504 43.3108 9.89038 43.9485 9.89038C45.2583 9.89038 46.3235 10.9556 46.3235 12.2654ZM38.011 8.70288C38.923 8.70288 39.7364 9.25507 40.1259 10.078C39.436 9.96401 38.733 9.89038 38.011 9.89038C37.289 9.89038 36.586 9.96401 35.896 10.078C36.2855 9.25507 37.099 8.70288 38.011 8.70288ZM32.0735 9.89038C32.7112 9.89038 33.3049 10.1504 33.7585 10.6148C32.2967 11.1194 30.9489 11.8688 29.7733 12.8259C29.7294 12.643 29.6985 12.4566 29.6985 12.2654C29.6985 10.9556 30.7637 9.89038 32.0735 9.89038ZM22.5735 27.7029C22.5735 26.1568 23.5698 24.8505 24.9485 24.3589V30.0779C24.9485 30.4104 24.9734 30.7358 24.9984 31.0623C23.5935 30.5849 22.5735 29.2668 22.5735 27.7029ZM27.3235 30.0779V22.9529H48.6985V30.0779C48.6985 35.9703 43.9045 40.7654 38.011 40.7654C32.1174 40.7654 27.3235 35.9703 27.3235 30.0779ZM38.011 43.1404C39.6877 43.1404 41.2861 42.8114 42.761 42.2331V45.0238L38.011 49.7738L33.261 45.0238V42.2331C34.7359 42.8114 36.3342 43.1404 38.011 43.1404ZM31.7422 46.8632L38.011 53.132L44.2798 46.8632L46.3235 47.5021V55.0154H29.6985V47.5021L31.7422 46.8632ZM14.261 56.6909C14.261 54.0796 15.9354 51.802 18.4267 51.0242L22.5735 49.7274V55.3206C22.5735 56.3371 22.1769 57.2942 21.4584 58.0138C20.0216 59.4507 19.1808 61.3198 19.0407 63.3279H14.261V56.6909ZM16.636 65.7029H19.2057C19.5406 67.2538 20.3089 68.6799 21.4572 69.8294L22.5735 70.9445V72.8279H16.636V65.7029ZM59.386 72.8279H53.4485V70.9445L54.5635 69.8294C55.713 68.6811 56.4802 67.2549 56.815 65.7029H59.386V72.8279ZM61.761 63.3279H56.9825C56.8424 61.3198 56.0016 59.4507 54.5647 58.0138C53.8451 57.2942 53.4485 56.3383 53.4485 55.3206V49.7274L57.5952 51.023C60.0866 51.802 61.761 54.0796 61.761 56.6909V63.3279Z" fill="black"/>
<path d="M43.9485 27.7029C44.6043 27.7029 45.136 27.1712 45.136 26.5154C45.136 25.8595 44.6043 25.3279 43.9485 25.3279C43.2926 25.3279 42.761 25.8595 42.761 26.5154C42.761 27.1712 43.2926 27.7029 43.9485 27.7029Z" fill="black"/>
<path d="M32.0735 27.7029C32.7293 27.7029 33.261 27.1712 33.261 26.5154C33.261 25.8595 32.7293 25.3279 32.0735 25.3279C31.4176 25.3279 30.886 25.8595 30.886 26.5154C30.886 27.1712 31.4176 27.7029 32.0735 27.7029Z" fill="black"/>
<path d="M42.761 32.4529H40.386C40.386 33.7627 39.3208 34.8279 38.011 34.8279C36.7012 34.8279 35.636 33.7627 35.636 32.4529H33.261C33.261 35.0725 35.3914 37.2029 38.011 37.2029C40.6306 37.2029 42.761 35.0725 42.761 32.4529Z" fill="black"/>
<path d="M41.5735 64.5154H27.3235V66.8904H41.5735V64.5154Z" fill="black"/>
<path d="M48.6985 64.5154H43.9485V66.8904H48.6985V64.5154Z" fill="black"/>
</svg>
