<svg width="24" height="24" viewBox="0 0 24 24" fill="none" xmlns="http://www.w3.org/2000/svg">
<g id="Frame">
<path id="Vector" d="M14 2.00269C18.4183 2.00269 22 5.58441 22 10.0026C22 13.2473 20.0684 16.0407 17.2924 17.2959C16.0373 20.0716 13.2441 22.0026 10 22.0026C5.58172 22.0026 2 18.4209 2 14.0026C2 10.7585 3.93102 7.96542 6.70634 6.71C7.96193 3.93425 10.7554 2.00269 14 2.00269ZM11 9.00269H9V10.0026C7.61929 10.0026 6.5 11.1219 6.5 12.5026C6.5 13.8281 7.53154 14.9127 8.83563 14.9973L9 15.0026H11L11.0899 15.0107C11.3231 15.053 11.5 15.2572 11.5 15.5026C11.5 15.7481 11.3231 15.9523 11.0899 15.9946L11 16.0026H7V18.0026H9V19.0026H11V18.0026C12.3807 18.0026 13.5 16.8834 13.5 15.5026C13.5 14.1772 12.4684 13.0926 11.1644 13.008L11 13.0026H9L8.91013 12.9946C8.67688 12.9523 8.5 12.7481 8.5 12.5026C8.5 12.2572 8.67688 12.053 8.91013 12.0107L9 12.0026H13V10.0026H11V9.00269ZM14 4.00269C12.2165 4.00269 10.6147 4.78085 9.51576 6.01617C9.67645 6.00752 9.83766 6.00269 10 6.00269C14.4183 6.00269 18 9.58441 18 14.0026C18 14.1653 17.9951 14.3269 17.9856 14.4871C19.2216 13.3884 20 11.7864 20 10.0026C20 6.68898 17.3137 4.00269 14 4.00269Z" fill="black"/>
</g>
</svg>
