<svg width="18" height="16" viewBox="0 0 18 16" fill="none" xmlns="http://www.w3.org/2000/svg">
<path id="Vector" d="M14.9755 7.25009H1.23907C1.04306 7.25009 0.855073 7.3291 0.71647 7.46974C0.577867 7.61037 0.5 7.80111 0.5 8C0.5 8.19889 0.577867 8.38963 0.71647 8.53026C0.855073 8.6709 1.04306 8.7499 1.23907 8.7499H14.9755L9.58469 14.2182C9.44591 14.359 9.36794 14.55 9.36794 14.7491C9.36794 14.9483 9.44591 15.1393 9.58469 15.2801C9.72346 15.4209 9.91169 15.5 10.1079 15.5C10.3042 15.5 10.4924 15.4209 10.6312 15.2801L17.2829 8.53093C17.3517 8.46127 17.4063 8.37852 17.4436 8.28741C17.4808 8.19631 17.5 8.09864 17.5 8C17.5 7.90136 17.4808 7.80369 17.4436 7.71259C17.4063 7.62148 17.3517 7.53873 17.2829 7.46907L10.6312 0.719919C10.4924 0.579107 10.3042 0.5 10.1079 0.5C9.91169 0.5 9.72346 0.579107 9.58469 0.719919C9.44591 0.860732 9.36794 1.05171 9.36794 1.25085C9.36794 1.44999 9.44591 1.64097 9.58469 1.78179L14.9755 7.25009Z" fill="#292929"/>
</svg>
