<svg width="32" height="33" viewBox="0 0 32 33" fill="none" xmlns="http://www.w3.org/2000/svg">
<g id="lucide:radio">
<g id="Group">
<path id="Vector" d="M6.53281 26.3249C1.33281 21.1249 1.33281 12.5916 6.53281 7.3916M10.3995 22.4583C7.33281 19.3916 7.33281 14.3249 10.3995 11.1249" stroke="white" stroke-width="2" stroke-linecap="round" stroke-linejoin="round"/>
<path id="Vector_2" d="M15.9948 19.5247C17.4676 19.5247 18.6615 18.3308 18.6615 16.8581C18.6615 15.3853 17.4676 14.1914 15.9948 14.1914C14.522 14.1914 13.3281 15.3853 13.3281 16.8581C13.3281 18.3308 14.522 19.5247 15.9948 19.5247Z" stroke="#2AB96D" stroke-width="2" stroke-linecap="round" stroke-linejoin="round"/>
<path id="Vector_3" d="M21.6016 11.2583C24.6682 14.3249 24.6682 19.3916 21.6016 22.5916M25.4682 7.3916C30.6682 12.5916 30.6682 20.9916 25.4682 26.1916" stroke="white" stroke-width="2" stroke-linecap="round" stroke-linejoin="round"/>
</g>
</g>
</svg>
