<svg width="109" height="38" viewBox="0 0 109 38" fill="none" xmlns="http://www.w3.org/2000/svg">
<g id="Frame 2847">
<g id="Mask group">
<mask id="mask0_1_949" style="mask-type:alpha" maskUnits="userSpaceOnUse" x="-57" y="-7" width="166" height="55">
<path id="Vector" d="M72.0965 30.0586V36.1329H40.5306V5.09832H46.7257V30.0586H72.0965ZM13.3905 11.1726H34.0677V5.09832H11.7242C6.62243 5.09832 2.48215 9.15361 2.48215 14.1603V27.0731C2.48215 32.0754 6.62243 36.135 11.7242 36.135H34.0677V19.5824H27.8727V30.0586H13.3905C10.7891 30.0586 8.67502 27.9879 8.67502 25.435V15.794C8.67502 13.239 10.7869 11.1705 13.3905 11.1705V11.1726ZM108.999 11.8851V5.81079H78.2893V36.1329H108.999V30.0586H84.4844V24.2275H108.215V18.1532H84.4844V11.4845H108.999V11.8851ZM-3.29581 9.59702C-5.77208 6.49529 -9.00791 5.95286 -12.382 4.17491C-14.4478 3.00395 -15.4532 1.19156 -15.7145 -1.04703C-15.8176 -1.93816 -16.1206 -2.43538 -17.0558 -2.75825C-21.2246 -4.37047 -25.6788 -4.91074 -30.1242 -4.46087C-30.6292 -4.35109 -31.1275 -4.20257 -31.6522 -4.21764L-31.6785 -4.20257C-37.114 -3.13924 -42.1214 -0.36684 -45.928 3.59804C-48.5075 6.49744 -50.4832 9.83594 -51.6423 13.5145C-58.474 36.9573 -31.6039 55.445 -11.403 41.2278C-25.1629 52.9072 -48.1826 47.3172 -54.4742 30.4632V30.4589C-55.6772 27.8888 -56.1843 25.0325 -56.3907 22.23L-56.3841 22.2343C-56.6805 20.3616 -56.4412 18.4545 -56.1382 16.5969C-56.0987 15.9167 -55.989 15.2473 -55.7519 14.6037H-55.7563C-54.191 7.02049 -48.8126 0.313345 -41.8316 -3.21243C-40.2774 -4.09925 -38.6397 -4.78805 -36.8879 -5.20563C-32.9781 -6.3938 -28.6622 -6.81999 -24.6536 -5.98483C-17.6573 -5.15397 -11.4249 -1.26443 -6.72263 3.74441C-8.593 0.500612 -11.9188 -1.61528 -15.1371 -3.47288C-9.13085 -4.20903 -4.06196 0.588863 -3.54826 6.31232C-3.37703 7.39072 -3.2058 8.46696 -3.298 9.59702H-3.29581ZM-52.5775 24.8861C-52.5512 24.9378 -52.5248 24.9916 -52.5007 25.0433C-52.5204 24.9894 -52.5446 24.9356 -52.5775 24.8861ZM-42.4661 13.8568C-42.3848 13.4952 -42.2356 13.168 -41.9853 12.8882C-41.9985 12.7031 -41.9107 12.5718 -41.7548 12.477C-41.7548 12.477 -41.7548 12.477 -41.7504 12.477H-41.7548C-32.3283 -4.04544 -6.42407 3.11373 -7.11997 21.9695C-7.07826 22.1073 -7.08924 22.2364 -7.17046 22.3613C-7.08265 22.7702 -7.12876 23.1706 -7.25608 23.5645C-7.94759 29.783 -12.224 35.5625 -18.1578 37.9345C-33.3469 44.9107 -49.7763 28.696 -42.4639 13.8611L-42.4661 13.8568ZM-10.1407 15.8737C-9.96725 16.6249 -9.40525 16.1255 -9.10231 16.0954C-8.7774 16.0609 -9.11767 15.7079 -9.13523 15.4948C-9.14401 15.3764 -9.21866 15.2667 -9.26695 15.1504C-9.32623 15.1311 -9.38769 15.116 -9.44477 15.0945C-10.2812 14.7199 -10.1297 15.0945 -10.1407 15.8737ZM-33.696 6.2456V6.25206C-33.696 6.25206 -33.6916 6.24775 -33.6894 6.2456H-33.6981H-33.696ZM-31.1692 36.0877C-31.6631 34.8909 -32.2734 33.7285 -32.5742 32.4607C-33.1625 31.8387 -34.1174 31.8128 -34.6136 31.0573C-35.0131 30.5536 -35.3863 30.0263 -35.889 29.6001C-36.9998 28.3968 -35.4456 27.4648 -36.0273 26.3477C-36.2798 26.1561 -36.3347 25.773 -36.9142 26.0463C-37.2391 26.2121 -38.0141 25.6998 -38.1941 25.0949C-38.8922 24.574 -39.531 23.9649 -40.464 23.8314C-40.9469 23.7647 -41.8141 22.9101 -41.8536 22.5076C-41.9677 21.3969 -42.6263 20.4628 -42.9073 19.3844C-43.1312 20.2023 -43.2366 21.0138 -43.2542 21.8382C-43.2432 21.8382 -43.23 21.8425 -43.2212 21.8447V21.8511C-43.23 21.8511 -43.241 21.8511 -43.2498 21.8468C-42.9139 29.3246 -37.3182 36.77 -29.5996 38.0292C-29.863 37.2565 -30.8904 36.8712 -31.1692 36.0898V36.0877ZM-22.612 20.5876C-22.6208 18.9001 -25.4505 22.9231 -26.0279 23.2007C-26.0476 22.598 -25.6261 22.4065 -25.4132 22.0987C-24.8161 21.3561 -24.4297 20.4412 -23.4594 20.0861C-23.1564 19.9634 -22.6823 19.7847 -22.8689 19.3004C-23.0708 18.7731 -22.9764 18.024 -23.8875 17.9637C-24.8073 17.9013 -25.7403 17.8195 -26.445 17.1113C-26.7918 18.1273 -26.4559 19.4662 -26.5591 20.5812C-26.1815 20.6651 -25.8039 20.7426 -25.4154 20.9449C-25.8171 21.2829 -26.1991 20.8567 -26.5547 20.9923C-26.3791 23.4117 -26.4977 25.8354 -26.4867 28.2569C-26.4867 28.5992 -26.4033 28.8338 -25.9949 28.8058C-22.5506 29.656 -25.6217 30.4417 -25.58 31.9291C-25.5273 33.0225 -26.4186 33.3067 -27.3209 33.5843C-27.7402 34.2494 -27.6809 35.2374 -28.5963 35.5474C-28.7171 36.0661 -29.0991 36.4041 -29.4196 36.7808C-28.8246 39.1442 -25.6678 38.5932 -23.7821 38.4124C-23.9072 38.3693 -24.0346 38.3306 -24.1575 38.2854C-24.107 38.2789 -24.0543 38.2746 -24.006 38.2638C-24.7853 37.9001 -25.5164 37.3921 -25.883 36.5763C-26.2276 35.8918 -26.1881 35.1212 -26.1552 34.3033C-25.8874 34.4496 -25.7008 34.5572 -25.681 34.8112C-24.7897 35.6313 -23.3738 35.7282 -22.7964 36.9745C-22.6998 35.3881 -22.7547 33.8491 -22.6186 32.3187C-22.6142 28.4054 -22.612 24.4944 -22.6098 20.5833L-22.612 20.5876ZM-27.0443 17.0296C-27.5733 16.9671 -27.7248 17.6904 -28.2253 17.6064C-28.5568 18.1854 -29.6632 18.7709 -29.121 19.492C-28.952 19.3198 -28.66 19.2875 -28.5678 19.5501C-28.4492 19.8579 -28.1726 19.9333 -27.9619 20.1055C-27.9619 20.1507 -27.9619 20.1873 -27.9553 20.2174C-27.8982 20.2454 -27.8412 20.2733 -27.7841 20.2992C-27.5689 20.2002 -27.2945 20.2346 -27.1255 20.3788C-27.2331 20.155 -27.154 19.9806 -26.9696 19.8321C-27.1101 19.7029 -27.1496 19.5286 -27.1409 19.3542C-27.097 18.5793 -27.3055 17.7894 -27.0443 17.0274V17.0296ZM-28.4185 28.0309C-28.1178 28.2225 -27.6809 28.3236 -27.3187 28.3107C-27.2726 28.2763 -27.2265 28.2375 -27.187 28.1945C-27.1365 26.3477 -27.1848 22.6712 -27.0772 20.8373C-27.7402 20.8093 -28.3702 20.6479 -28.9586 20.1916C-28.8005 22.4667 -28.9344 24.6364 -28.8839 26.7932C-28.8159 27.0235 -28.6863 27.2216 -28.5502 27.4153C-28.4339 27.594 -28.3439 27.7834 -28.4185 28.0288V28.0309ZM-22.072 19.8429C-22.1203 20.3487 -19.1259 20.5058 -18.9305 21.0741C-20.0216 20.7943 -21.0775 21.003 -21.9666 20.409C-22.2739 20.2023 -22.3618 20.2712 -22.3859 20.5876C-22.3025 24.5912 -22.3771 28.5949 -22.252 32.6006C-22.23 33.791 -22.2169 34.9834 -22.2235 36.1738C-21.8503 36.1264 -21.8898 35.6959 -21.6241 35.5474C-21.1324 34.7208 -20.2214 34.2839 -20.1138 33.1172C-19.1106 34.6498 -19.3081 36.46 -20.5814 37.7645C-19.4069 37.5191 -16.6255 36.5913 -16.1382 35.5711C-16.1426 35.5668 -16.1491 35.5603 -16.1535 35.5582C-16.4038 35.5302 -16.3577 35.4225 -16.2435 35.274C-15.5784 34.2882 -15.1437 33.1775 -14.7178 32.084C-14.7244 32.0754 -14.7288 32.0647 -14.7332 32.0561C-14.7244 32.0561 -14.7178 32.0604 -14.7068 32.0625C-14.2349 31.1606 -13.146 30.3125 -13.5016 29.1976C-14.0548 28.3236 -12.5972 27.0278 -13.7102 26.8384C-13.91 26.9676 -14.0131 26.804 -14.0461 26.6232C-14.6454 26.6619 -16.0482 26.8083 -16.6277 26.6985C-16.8977 26.7954 -17.1414 26.9461 -17.4509 26.7265C-17.8461 26.4187 -19.1435 24.8797 -19.0688 24.4793C-19.0688 24.4836 -19.0754 24.4858 -19.0776 24.4879C-19.0842 24.4879 -19.0908 24.4836 -19.0974 24.4793C-19.0886 24.4664 -19.0776 24.4535 -19.0667 24.4406C-19.284 23.7862 -18.6693 23.0135 -19.0425 22.2795C-19.071 22.1977 -19.0249 22.0685 -18.9766 21.9846C-18.5881 21.313 -18.3708 20.5252 -17.6068 20.1098C-17.429 20.0129 -17.2643 19.8558 -17.2621 19.6168C-17.1392 18.8549 -16.3994 17.8109 -15.5498 18.1295C-14.7771 17.7915 -14 17.5957 -13.1394 17.5677C-12.1625 17.3826 -12.9045 18.4523 -12.3623 18.6913C-11.8771 18.8312 -11.55 19.182 -11.1439 19.4274C-10.8234 19.6211 -10.6544 19.6599 -10.6258 19.2165C-10.6302 18.3878 -9.50404 19.6319 -8.75546 19.3542C-8.66545 16.7713 -9.53917 18.8183 -10.2768 16.7368C-10.5402 16.6787 -9.83114 17.5634 -10.5644 17.6322C-10.8585 17.6559 -10.9266 17.2599 -11.0363 17.0425C-11.2668 16.5582 -12.2701 14.9782 -12.8409 15.2258C-12.303 15.878 -10.9441 16.4893 -11.7542 17.4816C-11.9803 17.7076 -12.1076 17.473 -12.2767 17.361C-11.6861 17.0059 -11.6642 16.7842 -12.2306 16.4032C-12.797 16.1535 -13.0538 15.3205 -13.7102 15.3743C-13.8441 15.5852 -14.057 15.5831 -14.2744 15.5723C-14.461 15.5637 -14.5795 15.6218 -14.6366 15.8306C-14.7793 16.3278 -15.2996 16.6615 -15.26 17.2556C-15.8308 18.1273 -17.3565 17.643 -17.2731 16.5323C-17.5036 14.7824 -15.9845 16.1191 -15.675 15.3657C-15.4971 14.5736 -16.3906 14.4702 -16.7419 13.9128C-15.7737 14.0118 -15.3764 13.1615 -15.0208 12.5502C-14.0417 12.1886 -15.1217 11.8335 -14.8737 11.4568C-14.6432 11.3233 -14.5817 11.6849 -14.4434 11.7947C-14.0812 12.3005 -13.5477 12.4318 -12.9265 12.0595C-12.516 11.8119 -13.0099 11.3147 -12.7487 10.9832C-13.2272 10.7357 -12.8409 10.5226 -12.5906 10.2363C-14.3995 10.5699 -13.8134 8.86517 -14.5795 8.64347C-15.0405 8.74679 -14.4961 9.6659 -14.4719 9.98662C-13.7782 10.161 -13.8639 10.8842 -13.708 11.3965C-13.8595 12.3371 -14.6388 10.9186 -14.9242 10.6926C-14.9769 10.6991 -15.0339 10.7034 -15.0866 10.7012C-15.6486 11.3448 -16.5728 9.83809 -16.1469 9.39038C-16.0152 8.8049 -16.3533 8.25387 -16.3731 7.71144C-16.0921 7.10229 -16.4916 6.83538 -16.9372 6.59C-18.1095 5.98084 -22.0676 4.1297 -23.1521 4.70226C-23.4023 5.65366 -22.2937 4.93043 -22.5857 7.26803C-22.5462 7.61673 -22.9303 7.87288 -23.3387 7.89871C-23.8063 7.92669 -24.1487 8.24741 -24.5504 8.38087C-26.0147 8.57674 -26.0762 11.2157 -27.6941 10.1029C-29.8894 7.74588 -27.2001 7.65763 -28.1573 7.13457C-28.4932 6.97314 -28.4668 6.73421 -28.4295 6.45654C-28.2517 5.37169 -29.6391 6.20255 -29.694 5.39106C-29.7049 5.08971 -29.514 4.95195 -28.9871 4.83787C-28.9037 4.82065 -29.0156 4.71087 -28.9783 4.78621C-29.3998 4.85294 -29.8103 5.18657 -30.2494 5.28774C-31.65 5.52236 -32.0473 6.24775 -30.9123 7.197C-30.9782 7.67915 -30.8048 7.97835 -30.3218 8.13763C-29.9508 8.27324 -30.6116 8.91253 -30.8509 8.66284C-30.9716 8.57674 -31.0265 8.31414 -31.2241 8.49925C-31.3821 8.64562 -31.2899 8.8415 -31.1714 8.99863C-30.9058 9.71325 -32.381 10.1201 -32.4578 9.25047C-32.8486 8.68436 -33.3776 9.37962 -33.5335 8.99863C-33.5269 8.62625 -32.9452 8.77477 -32.6905 8.72957C-32.5676 8.36364 -31.909 8.30768 -32.0802 7.9353C-32.2054 7.67054 -32.1988 7.26588 -32.6576 7.26588C-33.4193 7.59736 -33.4764 8.56382 -34.5082 8.40024C-34.5214 8.4562 -34.5389 8.51217 -34.5543 8.56813C-33.9177 9.12778 -34.1811 9.21818 -34.8068 9.31074C-35.1295 9.36886 -35.1163 9.27415 -35.0658 9.15576C-39.5573 11.2394 -35.1251 11.0865 -35.832 12.7074C-35.3819 12.7569 -35.529 12.3457 -35.36 12.1606C-34.5872 11.6742 -34.6202 10.7895 -34.2777 10.0921C-34.0406 9.22894 -32.5742 9.40975 -32.3942 10.2342C-32.2998 10.7378 -32.0802 10.7034 -31.7509 10.4688C-31.5446 10.3203 -31.2921 10.2944 -31.2131 10.5269C-30.9694 11.2437 -30.4404 11.7603 -30.0101 12.35C-30.0101 12.3587 -30.0145 12.3651 -30.0167 12.3737C-29.3339 12.6363 -30.5545 13.5081 -29.6215 13.6932C-29.2747 13.775 -29.3581 14.1452 -29.2769 14.3841C-29.4459 14.537 -29.5381 14.3777 -29.6523 14.3605C-30.0452 14.2959 -30.6292 14.3605 -30.7784 14.1366C-30.9716 13.8654 -30.3416 13.5361 -30.2823 13.0281C-30.774 13.4177 -31.3734 13.3596 -31.8388 13.6157C-31.9858 13.6975 -32.0078 13.6243 -32.0715 13.5447C-32.2712 13.2756 -32.5961 13.422 -32.7586 13.6136C-32.7388 13.831 -32.0232 13.6179 -32.3898 14.0613C-32.3568 14.184 -32.3854 14.3131 -32.3678 14.438C-32.2076 14.6984 -31.7905 14.4939 -31.5358 14.5671C-31.1911 14.4939 -31.0814 14.7996 -31.4238 14.9201C-31.8958 15.0622 -32.3876 15.4927 -32.8793 15.4216C-33.3096 15.1268 -33.9616 15.2193 -34.1065 15.7015C-34.2272 16.104 -34.4731 16.2396 -34.765 16.3214C-34.9824 16.4527 -35.0658 16.7454 -35.3314 16.81C-35.3512 16.8186 -35.3731 16.8208 -35.3951 16.8251C-36.2776 17.6839 -35.4785 17.8109 -36.2315 18.2995C-38.205 19.5049 -36.822 19.5458 -37.2457 21.0848C-37.5157 20.8933 -37.6233 20.6177 -37.6123 20.409C-37.6957 19.0787 -39.3729 19.6986 -40.1764 19.8945C-40.9404 20.3551 -40.7472 21.7844 -40.5606 22.5507C-40.374 23.3966 -39.3817 23.304 -39.3005 22.4667C-39.2434 22.2364 -39.0305 22.1848 -38.8044 22.2149C-38.4312 22.2644 -38.6639 22.527 -38.677 22.6992C-38.6902 22.88 -38.6221 23.0802 -38.8109 23.2136C-39.2434 24.5805 -37.3818 23.1297 -37.7484 24.9916C-37.7199 24.9485 -37.6979 24.9033 -37.6826 24.8517C-37.6672 25.2348 -37.2677 26.0248 -36.754 25.6373C-36.4444 25.392 -36.1832 25.8031 -35.8781 25.8225C-35.1756 24.2253 -33.8979 25.4178 -32.6773 25.3683C-31.4041 25.5125 -30.8201 26.7739 -29.391 26.5758C-29.4393 24.4169 -29.1473 22.2666 -29.2878 20.1055C-30.6972 20.4563 -31.527 22.4603 -32.7652 23.1684C-32.5149 22.456 -31.9002 21.991 -31.5468 21.3496C-31.9858 21.0203 -31.5687 20.8287 -31.4195 20.5941C-29.0178 17.6818 -29.9859 18.5923 -30.627 15.3528C-29.1495 17.191 -30.6204 18.4308 -27.8477 16.8832C-27.4702 16.5904 -27.1233 16.2977 -27.3165 15.7036C-27.7753 13.902 -28.6315 12.18 -28.7983 10.3418C-28.1287 12.1649 -26.8621 13.6502 -26.9543 15.6003C-27.1914 16.4828 -26.0366 15.5938 -26.2189 16.4505C-26.6184 17.1738 -24.5548 17.1436 -24.1114 17.4794C-22.7284 17.9637 -24.1685 15.878 -24.0521 15.2667C-23.2465 15.9985 -23.4682 17.3589 -22.5176 17.8884C-22.2037 18.0283 -21.7998 17.9379 -21.5473 18.2328C-22.0391 18.5772 -22.7986 17.8561 -22.6471 19.238C-22.6274 19.6685 -21.971 19.294 -22.083 19.8429H-22.072ZM-17.7429 24.0036C-17.7122 24.0574 -17.6858 24.1198 -17.6617 24.1844C-17.6331 24.1414 -17.6068 24.0983 -17.5783 24.0574C-17.6309 24.0402 -17.6858 24.023 -17.7407 24.0036H-17.7429ZM-6.20674 12.7698C-7.87514 9.19881 -10.7707 6.21977 -14.237 4.27392C-16.9241 2.63373 -20.1928 1.61345 -23.3804 1.56394C-21.712 1.90188 -20.0501 2.23982 -18.4366 2.79731C-9.37452 6.06694 -3.95879 15.8005 -5.65792 25.0626C-6.12113 26.6899 -6.53164 28.3818 -7.26706 29.9466C-10.2526 36.2147 -16.5245 40.3819 -23.4462 41.3225C-16.8363 41.1718 -10.0704 37.2048 -7.00143 31.434C-5.77647 29.9079 -5.15301 27.8415 -4.65468 25.9408C-3.63169 21.5648 -4.00708 16.7562 -6.20674 12.7698ZM-34.6004 41.4301C-35.057 41.3376 -35.4917 41.1977 -35.8759 40.9308C-58.8406 31.0831 -49.7061 -2.15556 -24.9039 0.358547C-27.2418 0.311192 -29.5293 0.687878 -31.7992 1.14205C-50.8059 6.75789 -52.718 32.5059 -34.5938 40.6639C-33.7003 40.9953 -32.8069 41.3268 -31.9134 41.6562C-29.7291 42.1684 -27.5316 42.4332 -25.2837 42.4332C-25.3166 42.698 -25.5186 42.6549 -25.6678 42.6614C-28.6951 42.7797 -31.7751 42.5968 -34.5982 41.4301H-34.6004ZM-31.2812 42.1555C-31.2592 42.1598 -31.2372 42.1641 -31.2153 42.1684C-31.2307 42.1491 -31.2482 42.1362 -31.2658 42.1211C-31.2702 42.134 -31.2768 42.1469 -31.2812 42.1555ZM-37.665 24.3415C-37.654 24.5094 -37.6804 24.6881 -37.6694 24.8538C-37.6255 24.7075 -37.6233 24.4987 -37.665 24.3415ZM-38.1743 23.8508C-37.9043 23.9197 -37.7287 24.0919 -37.665 24.3415C-37.687 24.0402 -37.8406 23.8228 -38.1743 23.8508ZM-17.4092 11.9066C-16.4982 12.2123 -17.5146 13.3165 -16.5992 13.351C-15.7825 13.3983 -15.4884 13.0496 -16.1404 12.4361C-16.4521 12.0013 -16.9877 11.7667 -17.1985 11.2243C-17.249 11.0973 -17.598 10.8067 -17.8219 10.9768C-18.081 11.2264 -17.6134 11.7258 -17.4092 11.9066ZM-20.7592 9.15145C-19.4991 8.36364 -21.859 8.46696 -22.3815 8.48634C-21.9315 9.3215 -21.4397 9.4937 -20.7592 9.15145ZM-35.9066 22.3613C-36.563 22.1374 -37.4301 21.242 -38.0338 22.0061C-37.3643 21.8533 -36.6969 22.5593 -36.0339 22.753C-35.6849 22.8047 -35.5641 22.5012 -35.9066 22.3613ZM-17.9778 12.97C-17.4246 13.0216 -17.2951 11.883 -17.8724 11.8657C-18.3817 11.7947 -18.4651 12.9829 -17.9778 12.97ZM-34.6333 22.7057C-35.4873 22.428 -35.3556 23.4784 -34.6202 23.2588C-34.4336 23.1727 -34.1987 23.3041 -33.9791 23.0953C-34.1482 22.8348 -34.3897 22.7509 -34.6333 22.7057ZM-13.1284 16.9047C-12.7969 16.8208 -12.9638 16.3558 -13.2821 16.3192C-13.3721 16.5625 -13.3809 16.7691 -13.1284 16.9047ZM8.04058 41.5959H8.69038V43.9959C8.38963 44.2542 8.03619 44.4522 7.62568 44.59C7.21735 44.7277 6.78488 44.7966 6.33265 44.7966C5.69164 44.7966 5.11428 44.6589 4.60059 44.3833C4.0869 44.1078 3.68296 43.7268 3.391 43.2382C3.09683 42.7496 2.95194 42.2029 2.95194 41.598C2.95194 40.9932 3.09902 40.4465 3.391 39.9578C3.68296 39.4692 4.0869 39.0882 4.60059 38.8127C5.11428 38.5372 5.69384 38.3994 6.34144 38.3994C6.83099 38.3994 7.27882 38.4769 7.68933 38.6276C8.09766 38.7804 8.44451 39.0064 8.72551 39.3056L8.30402 39.7275C7.79691 39.2368 7.1515 38.9914 6.36998 38.9914C5.8497 38.9914 5.38211 39.1033 4.96281 39.3293C4.54351 39.5532 4.21642 39.8653 3.97713 40.2635C3.73785 40.6617 3.6193 41.1073 3.6193 41.598C3.6193 42.0888 3.73785 42.5322 3.97713 42.9283C4.21642 43.3243 4.54132 43.6364 4.95842 43.8624C5.37333 44.0906 5.84092 44.2047 6.36119 44.2047C7.02197 44.2047 7.57957 44.0433 8.03838 43.7204V41.598L8.04058 41.5959ZM13.1885 40.2204C13.4914 40.059 13.8646 39.9772 14.3125 39.9772V40.5971L14.1566 40.5885C13.6495 40.5885 13.2522 40.7413 12.9646 41.047C12.677 41.3526 12.5343 41.781 12.5343 42.332V44.7407H11.8845V40.0117H12.508V40.9372C12.6616 40.6208 12.8877 40.3797 13.1907 40.2183L13.1885 40.2204ZM21.0629 42.5753H17.0302C17.0675 43.066 17.2607 43.4642 17.6076 43.7656C17.9566 44.0691 18.3957 44.2198 18.9269 44.2198C19.2255 44.2198 19.5021 44.1681 19.7524 44.0626C20.0026 43.9572 20.22 43.8043 20.4044 43.5998L20.771 44.0131C20.558 44.265 20.2902 44.4565 19.9697 44.5878C19.6492 44.7191 19.2957 44.7859 18.9116 44.7859C18.4154 44.7859 17.9786 44.6825 17.5966 44.4759C17.2146 44.2693 16.9161 43.983 16.7031 43.6171C16.4902 43.2511 16.3826 42.8379 16.3826 42.3772C16.3826 41.9166 16.4858 41.5033 16.69 41.1374C16.8941 40.7715 17.1751 40.4873 17.5329 40.2829C17.8908 40.0784 18.2925 39.9772 18.7382 39.9772C19.1838 39.9772 19.5855 40.0784 19.939 40.2829C20.2924 40.4873 20.5712 40.7693 20.7732 41.1331C20.9751 41.4947 21.0761 41.9101 21.0761 42.3772L21.0673 42.5753H21.0629ZM17.5659 40.9609C17.2498 41.2515 17.0719 41.6303 17.0302 42.0974H20.4505C20.4087 41.6303 20.2287 41.2515 19.9148 40.9609C19.5987 40.6703 19.2079 40.5261 18.736 40.5261C18.264 40.5261 17.882 40.6703 17.5681 40.9609H17.5659ZM28.1756 42.5753H24.1429C24.1802 43.066 24.3712 43.4642 24.7203 43.7656C25.0693 44.0691 25.5084 44.2198 26.0396 44.2198C26.3382 44.2198 26.6148 44.1681 26.865 44.0626C27.1153 43.9572 27.3326 43.8043 27.5148 43.5998L27.8815 44.0131C27.6663 44.265 27.4007 44.4565 27.0802 44.5878C26.7597 44.7191 26.4062 44.7859 26.0221 44.7859C25.5281 44.7859 25.0891 44.6825 24.7071 44.4759C24.3251 44.2693 24.0266 43.983 23.8136 43.6171C23.5985 43.2511 23.4931 42.8379 23.4931 42.3772C23.4931 41.9166 23.5941 41.5033 23.8005 41.1374C24.0046 40.7715 24.2856 40.4873 24.6434 40.2829C25.0013 40.0784 25.403 39.9772 25.8486 39.9772C26.2943 39.9772 26.696 40.0784 27.0495 40.2829C27.4029 40.4873 27.6817 40.7693 27.8837 41.1331C28.0856 41.4947 28.1866 41.9101 28.1866 42.3772L28.1778 42.5753H28.1756ZM24.6786 40.9609C24.3646 41.2515 24.1846 41.6303 24.1429 42.0974H27.5631C27.5192 41.6303 27.3414 41.2515 27.0275 40.9609C26.7136 40.6703 26.3206 40.5261 25.8486 40.5261C25.3766 40.5261 24.9947 40.6703 24.6808 40.9609H24.6786ZM34.8668 40.4938C35.2246 40.8382 35.4025 41.3397 35.4025 42.0005V44.7428H34.7505V42.0651C34.7505 41.5743 34.6253 41.1998 34.3751 40.9415C34.1248 40.6832 33.767 40.5541 33.3016 40.5541C32.7813 40.5541 32.3708 40.7048 32.0678 41.0083C31.7649 41.3096 31.6134 41.7293 31.6134 42.261V44.7428H30.9636V40.0138H31.5871V40.8856C31.7649 40.5993 32.0108 40.3754 32.3247 40.2161C32.6386 40.0568 33.0052 39.9772 33.4201 39.9772C34.0238 39.9772 34.5068 40.1494 34.8646 40.4938H34.8668ZM42.9191 38.4489H43.5974V44.1659H47.1911V44.7407H42.9191V38.4489ZM49.7025 38.845C49.6103 38.7546 49.5642 38.647 49.5642 38.5221C49.5642 38.3973 49.6103 38.2983 49.7025 38.2079C49.7947 38.1175 49.9066 38.0723 50.0405 38.0723C50.1745 38.0723 50.2886 38.1153 50.3786 38.2036C50.4708 38.2897 50.5169 38.393 50.5169 38.5135C50.5169 38.6448 50.4708 38.7567 50.3786 38.845C50.2864 38.9354 50.1745 38.9806 50.0405 38.9806C49.9066 38.9806 49.7925 38.9354 49.7025 38.845ZM49.7113 40.0138H50.3611V44.7428H49.7113V40.0138ZM54.6001 38.7912C54.4574 38.9419 54.385 39.1636 54.385 39.4563V40.0138H55.8712V40.5541H54.4048V44.7428H53.755V40.5541H52.8944V40.0138H53.755V39.4305C53.755 39 53.8823 38.6577 54.1347 38.4059C54.3894 38.1541 54.7472 38.0292 55.2126 38.0292C55.397 38.0292 55.5726 38.055 55.7439 38.1067C55.9151 38.1584 56.0578 38.2315 56.1741 38.3263L55.9546 38.802C55.7658 38.647 55.5265 38.5695 55.239 38.5695C54.9514 38.5695 54.745 38.6448 54.6023 38.7933L54.6001 38.7912ZM62.4351 42.5753H58.4023C58.4397 43.066 58.6306 43.4642 58.9797 43.7656C59.3287 44.0691 59.7678 44.2198 60.2991 44.2198C60.5976 44.2198 60.8742 44.1681 61.1245 44.0626C61.3747 43.9572 61.5921 43.8043 61.7743 43.5998L62.1409 44.0131C61.9258 44.265 61.6601 44.4565 61.3396 44.5878C61.0191 44.7191 60.6657 44.7859 60.2815 44.7859C59.7876 44.7859 59.3485 44.6825 58.9665 44.4759C58.5845 44.2693 58.286 43.983 58.073 43.6171C57.8579 43.2511 57.7525 42.8379 57.7525 42.3772C57.7525 41.9166 57.8535 41.5033 58.0599 41.1374C58.264 40.7715 58.545 40.4873 58.9029 40.2829C59.2607 40.0784 59.6624 39.9772 60.1081 39.9772C60.5537 39.9772 60.9554 40.0784 61.3089 40.2829C61.6623 40.4873 61.9411 40.7693 62.1431 41.1331C62.345 41.4947 62.446 41.9101 62.446 42.3772L62.4372 42.5753H62.4351ZM58.938 40.9609C58.6241 41.2515 58.4441 41.6303 58.4023 42.0974H61.8226C61.7787 41.6303 61.6009 41.2515 61.2869 40.9609C60.973 40.6703 60.5801 40.5261 60.1081 40.5261C59.6361 40.5261 59.2541 40.6703 58.9402 40.9609H58.938ZM74.059 44.1659V44.7407H69.5214V38.4489H73.9207V39.0237H70.1997V41.2622H73.519V41.8283H70.1997V44.1659H74.059ZM80.7063 40.4938C81.0641 40.8382 81.242 41.3397 81.242 42.0005V44.7428H80.5922V42.0651C80.5922 41.5743 80.467 41.1998 80.2168 40.9415C79.9665 40.6832 79.6087 40.5541 79.1433 40.5541C78.623 40.5541 78.2125 40.7048 77.9095 41.0083C77.6066 41.3096 77.4551 41.7293 77.4551 42.261V44.7428H76.8053V40.0138H77.4288V40.8856C77.6066 40.5993 77.8525 40.3754 78.1664 40.2161C78.4803 40.0568 78.8469 39.9772 79.2618 39.9772C79.8677 39.9772 80.3485 40.1494 80.7063 40.4938ZM88.6861 42.5753H84.6534C84.6908 43.066 84.8839 43.4642 85.2308 43.7656C85.5798 44.0691 86.0189 44.2198 86.5501 44.2198C86.8487 44.2198 87.1253 44.1681 87.3755 44.0626C87.6258 43.9572 87.8431 43.8043 88.0275 43.5998L88.3941 44.0131C88.1812 44.265 87.9134 44.4565 87.5929 44.5878C87.2724 44.7191 86.9189 44.7859 86.5348 44.7859C86.0386 44.7859 85.6018 44.6825 85.2198 44.4759C84.8378 44.2693 84.5393 43.983 84.3263 43.6171C84.1134 43.2511 84.0058 42.8379 84.0058 42.3772C84.0058 41.9166 84.109 41.5033 84.3132 41.1374C84.5173 40.7715 84.7983 40.4873 85.1561 40.2829C85.5139 40.0784 85.9157 39.9772 86.3613 39.9772C86.807 39.9772 87.2087 40.0784 87.5622 40.2829C87.9156 40.4873 88.1944 40.7693 88.3963 41.1331C88.5983 41.4947 88.6993 41.9101 88.6993 42.3772L88.6905 42.5753H88.6861ZM85.1891 40.9609C84.8729 41.2515 84.6951 41.6303 84.6534 42.0974H88.0737C88.0319 41.6303 87.8519 41.2515 87.538 40.9609C87.2219 40.6703 86.8311 40.5261 86.3591 40.5261C85.8871 40.5261 85.5052 40.6703 85.1913 40.9609H85.1891ZM92.7825 40.2204C93.0854 40.059 93.4586 39.9772 93.9065 39.9772V40.5971L93.7506 40.5885C93.2435 40.5885 92.8462 40.7413 92.5586 41.047C92.271 41.3526 92.1283 41.781 92.1283 42.332V44.7407H91.4785V40.0117H92.102V40.9372C92.2556 40.6208 92.4818 40.3797 92.7847 40.2183L92.7825 40.2204ZM100.936 40.0138V44.1659C100.936 44.9688 100.736 45.5629 100.334 45.9504C99.9347 46.3378 99.331 46.5294 98.5231 46.5294C98.0775 46.5294 97.6538 46.4648 97.2543 46.3357C96.8547 46.2065 96.5276 46.0278 96.2774 45.8018L96.6067 45.3175C96.8394 45.522 97.1204 45.6791 97.4541 45.7932C97.7877 45.9073 98.1368 45.9633 98.5034 45.9633C99.1137 45.9633 99.5637 45.8234 99.8513 45.5457C100.139 45.2659 100.282 44.8332 100.282 44.2477V43.645C100.08 43.9442 99.8162 44.1724 99.4891 44.3274C99.162 44.4824 98.7998 44.562 98.4024 44.562C97.9502 44.562 97.5397 44.4651 97.1687 44.2693C96.7999 44.0755 96.5079 43.8022 96.2971 43.4513C96.0864 43.1005 95.981 42.7044 95.981 42.261C95.981 41.8176 96.0864 41.4215 96.2971 41.075C96.5079 40.7284 96.7977 40.4572 97.1643 40.2656C97.5309 40.0741 97.9436 39.9772 98.4024 39.9772C98.8107 39.9772 99.1817 40.059 99.511 40.2204C99.8403 40.3819 100.108 40.6165 100.308 40.9221V40.0138H100.931H100.936ZM99.4144 43.7763C99.6954 43.63 99.9128 43.4255 100.071 43.1607C100.227 42.896 100.304 42.5968 100.304 42.261C100.304 41.9252 100.224 41.6282 100.071 41.3656C99.9149 41.1051 99.6976 40.9006 99.421 40.7543C99.1422 40.6079 98.8261 40.5347 98.4727 40.5347C98.1192 40.5347 97.8097 40.6057 97.5331 40.75C97.2543 40.8942 97.037 41.0965 96.8811 41.3613C96.7252 41.6239 96.6484 41.9252 96.6484 42.2588C96.6484 42.5925 96.7274 42.8938 96.8811 43.1586C97.037 43.4233 97.2543 43.6278 97.5331 43.7742C97.8097 43.9206 98.1236 43.9938 98.4727 43.9938C98.8217 43.9938 99.1356 43.9206 99.4166 43.7742L99.4144 43.7763ZM108.347 40.0138L105.937 45.3089C105.741 45.7523 105.515 46.0666 105.258 46.2517C105.001 46.4368 104.692 46.5315 104.332 46.5315C104.099 46.5315 103.882 46.4949 103.682 46.4239C103.48 46.3529 103.307 46.2431 103.16 46.101L103.463 45.6253C103.706 45.8643 104 45.9848 104.343 45.9848C104.562 45.9848 104.751 45.9245 104.907 45.804C105.063 45.6834 105.208 45.4811 105.342 45.1927L105.552 44.7342L103.399 40.0138H104.077L105.893 44.0325L107.708 40.0138H108.349H108.347Z" fill="white"/>
</mask>
<g mask="url(#mask0_1_949)">
<rect id="Rectangle 369" x="-0.00195312" y="0.308655" width="113.037" height="37.679" fill="white"/>
</g>
</g>
</g>
</svg>
