<svg width="32" height="32" viewBox="0 0 32 32" fill="none" xmlns="http://www.w3.org/2000/svg">
<g id="Earth-Green">
<path id="Vector" d="M3.20001 16C3.20678 14.3005 3.55193 12.6193 4.21532 11.0546C4.87871 9.48993 5.84706 8.07301 7.06387 6.88652C8.28069 5.70004 9.7216 4.76775 11.3025 4.14406C12.8835 3.52036 14.5728 3.21775 16.272 3.25387C17.9711 3.28999 19.646 3.66412 21.199 4.35444C22.7521 5.04475 24.152 6.03743 25.3173 7.27455C26.4826 8.51168 27.3899 9.96848 27.9862 11.56C28.5825 13.1514 28.8559 14.8457 28.7904 16.544C28.2651 16.4001 27.7346 16.2757 27.2 16.1712V16.0016C27.202 14.4149 26.866 12.846 26.2143 11.3993C25.5627 9.95253 24.6104 8.6612 23.4208 7.6112L23.3104 7.7296C22.9888 8.0784 22.5424 8.5552 22.0496 9.0672C21.0864 10.0688 19.888 11.264 19.0816 11.872C19.1296 11.9776 19.2416 12.1536 19.4688 12.4464L19.6688 12.6992C20.1744 13.3344 20.9056 14.2544 21.2016 15.392C21.28 15.6864 21.336 15.96 21.3776 16.208C20.8336 16.328 20.3168 16.48 19.8304 16.6656C19.7879 16.3724 19.7292 16.0818 19.6544 15.7952C19.4496 15.0096 18.9504 14.3744 18.432 13.7152L18.2032 13.4256C17.9472 13.096 17.624 12.6608 17.5056 12.1936C17.4281 11.9047 17.4421 11.599 17.5456 11.3184C17.6608 11.0144 17.8704 10.7808 18.1088 10.6016C18.7936 10.0896 19.912 8.9808 20.8976 7.9584C21.3808 7.456 21.8192 6.9872 22.136 6.6432L22.1456 6.6336C20.2051 5.35746 17.9145 4.71921 15.5936 4.808C15.7808 5.1632 15.9968 5.6144 16.1888 6.1248C16.6384 7.3184 17.032 9.032 16.3248 10.5376C15.6784 11.9136 14.5696 12.272 13.7136 12.4928L13.5584 12.5328C12.7488 12.7408 12.3504 12.8432 12.0704 13.2688C11.7984 13.68 11.8656 14.1872 12.1296 15.0496L12.192 15.248C12.2976 15.5856 12.4208 15.9792 12.4848 16.3488C12.5648 16.8064 12.5824 17.3664 12.304 17.9008C12.0627 18.3905 11.6775 18.7947 11.2 19.0592C10.8254 19.249 10.4222 19.376 10.0064 19.4352L9.86561 19.4592C9.21281 19.5744 8.83361 19.64 8.47841 20.0208C8.19361 20.3248 8.03041 20.8336 7.93921 21.5264C7.90348 21.8104 7.87574 22.0953 7.85601 22.3808L7.84321 22.5328C7.82286 22.8579 7.78063 23.1813 7.71681 23.5008L7.71041 23.5328C9.34343 25.3325 11.5182 26.5513 13.9056 27.0048C13.608 27.4784 13.336 27.9664 13.0832 28.4672C10.2713 27.8082 7.76465 26.218 5.97049 23.9547C4.17632 21.6915 3.19998 18.8881 3.20001 16ZM14.0768 5.3664C14.0092 5.24375 13.9387 5.12266 13.8656 5.0032C12.1111 5.34439 10.4637 6.10036 9.06084 7.208C7.65803 8.31564 6.54056 9.74281 5.80172 11.3703C5.06289 12.9979 4.72413 14.7786 4.81374 16.5637C4.90334 18.3488 5.41871 20.0866 6.31681 21.632C6.32641 21.5264 6.33921 21.4224 6.35361 21.3152C6.45281 20.568 6.66241 19.6208 7.30881 18.9296C8.04801 18.1376 8.94881 17.9888 9.55361 17.8896L9.72641 17.8592C10.0512 17.8016 10.264 17.7472 10.4352 17.6544C10.6334 17.541 10.7907 17.368 10.8848 17.16C10.9312 17.0736 10.9616 16.9248 10.9088 16.6224C10.8496 16.3319 10.7721 16.0455 10.6768 15.7648L10.6 15.52C10.3568 14.7248 10.0016 13.5008 10.736 12.3872C11.376 11.416 12.3984 11.168 13.0992 10.9968L13.3136 10.944C14.0608 10.752 14.5488 10.5568 14.8768 9.856C15.2944 8.9664 15.1056 7.7888 14.6912 6.688C14.5184 6.23329 14.3131 5.79161 14.0768 5.3664Z" fill="white"/>
<path id="Vector_2" d="M15.4724 29.7261C16.1042 28.4657 16.8662 27.3201 17.8765 26.298L18.3479 25.8212L18.6704 26.409C18.9077 26.8415 19.197 27.2434 19.5317 27.6058C20.2154 28.3424 21.2902 29.1 22.8001 29.1C23.7536 29.1 24.5247 28.8571 25.1481 28.4513L25.1484 28.4511C25.7695 28.0474 26.229 27.4917 26.5823 26.8845L26.583 26.8833C27.1343 25.9421 27.4552 24.8079 27.7074 23.9093C27.7074 23.9093 27.7074 23.9093 27.7074 23.9093L27.7091 23.9033L27.7097 23.901C27.7253 23.8466 27.7406 23.7924 27.7558 23.7389C27.8011 23.5788 27.8448 23.4245 27.8872 23.2875L27.8887 23.2825L27.8888 23.2825C28.1647 22.422 28.5331 21.5939 28.9876 20.8128C29.1677 20.4969 29.3378 20.2195 29.4823 19.9839C29.4927 19.967 29.5029 19.9503 29.513 19.9339L29.5168 19.9276L29.5208 19.9215L29.5442 19.8858L29.5621 19.8566C29.692 19.6455 29.802 19.4666 29.8672 19.3349L29.8679 19.3335C29.8907 19.2878 29.9014 19.237 29.8991 19.186C29.8968 19.135 29.8815 19.0854 29.8547 19.0419C29.8278 18.9986 29.7903 18.9628 29.7458 18.9379C29.7012 18.9131 29.6509 18.9 29.5998 18.9H29.5873H29.5566L29.5262 18.8962C29.4478 18.8866 29.37 18.8733 29.2929 18.8563L29.283 18.8542L29.283 18.8541C29.116 18.8138 28.9499 18.7695 28.7851 18.721L28.6377 18.6806L28.6311 18.6788L28.6311 18.6788C28.1946 18.5528 27.7548 18.4388 27.3121 18.3369C25.8208 17.9941 24.281 17.9148 22.7624 18.1026C20.9162 18.333 19.5532 18.952 18.6452 19.7991L15.4724 29.7261ZM15.4724 29.7261C15.4351 29.7922 15.3741 29.8418 15.3016 29.8647C15.2273 29.8882 15.1467 29.8818 15.077 29.847C15.0072 29.8121 14.9538 29.7515 14.928 29.6779C14.9029 29.6062 14.9059 29.5277 14.9364 29.4582C16.105 27.124 17.6878 25.2242 20.2329 23.739L20.233 23.7392L20.2438 23.7324C21.3354 23.0574 22.4847 22.4806 23.6782 22.0086C23.8385 21.9476 23.9851 21.8555 24.1096 21.7375C24.2352 21.6186 24.3357 21.4757 24.4054 21.3174C24.4751 21.159 24.5124 20.9884 24.5153 20.8154C24.5182 20.6425 24.4865 20.4706 24.4222 20.3101C24.3578 20.1495 24.262 20.0034 24.1405 19.8803C24.0189 19.7572 23.874 19.6596 23.7143 19.5933C23.5545 19.5269 23.3831 19.4931 23.2101 19.4938C23.0392 19.4945 22.87 19.5289 22.7124 19.5951C20.7203 20.3917 18.8786 21.3942 17.3041 22.6141C17.3499 21.5951 17.7869 20.6002 18.6452 19.7991L15.4724 29.7261Z" fill="white" stroke="white"/>
<path id="Vector_3" d="M29.9893 18.5013C30.1083 18.5676 30.2084 18.6633 30.2801 18.7792C30.3517 18.8951 30.3925 19.0273 30.3986 19.1634C30.4048 19.2995 30.3761 19.4349 30.3153 19.5568C30.2337 19.7216 30.0993 19.9376 29.9665 20.1536L29.9393 20.1952C29.7873 20.4432 29.6097 20.7312 29.4209 21.0624C28.9841 21.8128 28.63 22.6084 28.3649 23.4352C28.3105 23.6112 28.2545 23.8144 28.1905 24.0384L28.1888 24.0443C27.9394 24.9333 27.6036 26.1302 27.0145 27.136C26.6337 27.7904 26.1249 28.4128 25.4209 28.8704C24.7105 29.3328 23.8433 29.6 22.8001 29.6C21.1057 29.6 19.9073 28.7456 19.1649 27.9456C18.8023 27.5532 18.4891 27.1179 18.2321 26.6496C17.2641 27.6288 16.5297 28.7312 15.9153 29.9584C15.8166 30.1413 15.6506 30.2787 15.4524 30.3414C15.2541 30.4041 15.0393 30.3872 14.8534 30.2942C14.6674 30.2012 14.525 30.0395 14.4562 29.8433C14.3874 29.6471 14.3977 29.4319 14.4849 29.2432C15.6913 26.8304 17.3377 24.8496 19.9809 23.3072C21.0986 22.616 22.2755 22.0254 23.4977 21.5424C23.5973 21.5048 23.6884 21.4478 23.7657 21.3745C23.843 21.3013 23.9049 21.2134 23.9478 21.116C23.9906 21.0186 24.0136 20.9135 24.0154 20.8071C24.0172 20.7006 23.9977 20.5949 23.9581 20.4961C23.9185 20.3973 23.8595 20.3074 23.7847 20.2316C23.7099 20.1559 23.6207 20.0958 23.5224 20.055C23.4241 20.0142 23.3187 19.9933 23.2122 19.9938C23.1057 19.9942 23.0004 20.0159 22.9025 20.0576C20.6129 20.9728 18.5409 22.1584 16.8609 23.6256C16.8225 23.3632 16.8001 23.0864 16.8001 22.7936C16.8001 21.5712 17.2961 20.3744 18.3041 19.4336C19.3073 18.4976 20.7777 17.8464 22.7009 17.6064C24.2774 17.4114 25.8759 17.4938 27.4241 17.8496C27.8757 17.9536 28.3244 18.0699 28.7697 18.1984L28.9217 18.24C29.08 18.2866 29.2396 18.3293 29.4001 18.368C29.4619 18.3815 29.5244 18.3922 29.5873 18.4H29.6001C29.7363 18.4 29.8703 18.4349 29.9893 18.5013Z" fill="#52D890"/>
</g>
</svg>
