<svg width="52" height="52" viewBox="0 0 52 52" fill="none" xmlns="http://www.w3.org/2000/svg">
<g clip-path="url(#clip0_72_2454)">
<path d="M29.0777 50.4162L37.6952 45.4412C42.7741 42.509 45.9028 37.09 45.9028 31.2256V9.98849C45.9028 8.89451 45.0488 7.98528 43.9562 7.92963C34.7218 7.45927 29.707 3.69855 27.4681 1.38302C26.6674 0.554944 25.3326 0.554944 24.5319 1.38302C22.2931 3.69855 17.2783 7.45927 8.0438 7.92963C6.95125 7.98528 6.09717 8.89451 6.09717 9.98849V31.2256C6.09717 37.09 9.22594 42.509 14.3048 45.4412L22.9223 50.4162C24.8269 51.5157 27.1732 51.5157 29.0777 50.4162Z" fill="#EAB14D"/>
<path d="M20.0497 43.1323C16.1714 43.1323 12.4888 42.2945 9.17261 40.7907C10.5115 42.6583 12.2482 44.2538 14.305 45.4412L22.9225 50.4163C24.8269 51.5157 27.1732 51.5157 29.0777 50.4163L37.6952 45.4412C42.774 42.5091 45.9028 37.09 45.9028 31.2256V21.9614C43.49 34.0348 32.8329 43.1323 20.0497 43.1323Z" fill="#E7A52E"/>
<path d="M26 47.1372C25.6403 47.1372 25.2856 47.0421 24.9741 46.8624L16.3566 41.8873C12.5596 39.6952 10.2009 35.6098 10.2009 31.2256V12.7961C10.2009 12.2806 10.5835 11.8433 11.095 11.7791C17.9348 10.9185 22.5332 8.37534 25.3666 6.14025C25.7383 5.84713 26.2617 5.84713 26.6334 6.14025C29.4669 8.37534 34.0653 10.9184 40.905 11.7791C41.4164 11.8434 41.799 12.2807 41.799 12.7961V31.2256C41.799 35.6099 39.4404 39.6953 35.6434 41.8874L27.0259 46.8624C26.7144 47.0422 26.3597 47.1372 26 47.1372Z" fill="#FFE07D"/>
<path d="M16.5615 39.6442C15.477 39.6442 14.4081 39.5772 13.3579 39.45C14.2124 40.4034 15.2193 41.2307 16.3566 41.8873L24.974 46.8623C25.2855 47.0422 25.6403 47.1372 26 47.1372C26.3596 47.1372 26.7144 47.0421 27.0259 46.8623L35.6433 41.8874C39.4403 39.6953 41.799 35.6099 41.799 31.2256V20.9275C38.5205 31.7584 28.4627 39.6442 16.5615 39.6442Z" fill="#FFD064"/>
<path d="M22.922 35.7628C22.1342 35.7628 21.3466 35.4623 20.7455 34.8614L14.5895 28.7054C13.3875 27.5033 13.3875 25.5544 14.5895 24.3523C15.7916 23.1503 17.7404 23.1503 18.9424 24.3523L22.9219 28.3319L33.0574 18.1963C34.2594 16.9943 36.2083 16.9943 37.4102 18.1963C38.6123 19.3984 38.6123 21.3474 37.4102 22.5494L25.0983 34.8614C24.4975 35.4623 23.7097 35.7628 22.922 35.7628Z" fill="#95D6A4"/>
<path d="M37.4104 18.1963C37.0988 17.8847 36.7368 17.6545 36.3507 17.5045C36.7794 18.6074 36.5494 19.9075 35.659 20.7979L23.3471 33.1099C22.7461 33.7109 21.9584 34.0113 21.1706 34.0113C20.3829 34.0113 19.5952 33.7109 18.9941 33.1099L20.7456 34.8613C21.3465 35.4623 22.1343 35.7627 22.922 35.7627C23.7098 35.7627 24.4975 35.4623 25.0985 34.8613L37.4105 22.5494C38.6124 21.3473 38.6124 19.3983 37.4104 18.1963Z" fill="#78C2A4"/>
<path d="M45.9031 18.1087C46.3238 18.1087 46.6649 17.7677 46.6649 17.3469V9.98841C46.6649 8.4839 45.4921 7.24539 43.9948 7.16891C34.9609 6.70891 30.1055 3.01441 28.0154 0.853163C27.4834 0.302975 26.7677 0 26 0C25.2324 0 24.5167 0.302975 23.9848 0.853062C21.8946 3.01431 17.0392 6.70881 8.0051 7.16891C6.508 7.24539 5.33521 8.4838 5.33521 9.98841V31.2262C5.33521 37.3427 8.62608 43.0424 13.9238 46.1012L22.5417 51.0758C23.6084 51.692 24.8041 52.0001 26.0001 52.0001C27.1959 52.0001 28.3919 51.692 29.4584 51.0759L38.0765 46.1013C43.374 43.0425 46.665 37.3428 46.665 31.2263V20.902C46.665 20.4812 46.3239 20.1402 45.9032 20.1402C45.4825 20.1402 45.1415 20.4812 45.1415 20.902V31.2263C45.1415 36.8002 42.1424 41.9944 37.3147 44.7819L28.6965 49.7567C27.0334 50.7174 24.9668 50.7173 23.3034 49.7566L14.6855 44.7819C9.85778 41.9944 6.85871 36.8002 6.85871 31.2263V9.98841C6.85871 9.29572 7.39641 8.72552 8.0827 8.69048C17.6386 8.20388 22.8337 4.23484 25.08 1.9122C25.3223 1.66164 25.649 1.52361 26 1.52361C26.3511 1.52361 26.6778 1.66164 26.9201 1.9123C29.1663 4.23484 34.3613 8.20388 43.9172 8.69048C44.6037 8.72563 45.1414 9.29572 45.1414 9.98841V17.3469C45.1414 17.7677 45.4824 18.1087 45.9031 18.1087Z" fill="black"/>
<path d="M10.2012 20.1401C9.78052 20.1401 9.43945 20.4811 9.43945 20.9018V31.2261C9.43945 35.8808 11.9438 40.2188 15.9753 42.5473L24.5936 47.5222C25.0214 47.7689 25.5077 47.8993 26 47.8993C26.4923 47.8993 26.9786 47.7689 27.4067 47.522L36.0248 42.5472C40.0562 40.2188 42.5606 35.8808 42.5606 31.2261V12.7958C42.5606 11.8965 41.8895 11.1344 41.0001 11.0232C34.1678 10.1639 29.6732 7.56822 27.1049 5.54135C26.4544 5.02955 25.5457 5.02955 24.8943 5.54206C22.3269 7.56822 17.8322 10.1639 11.0006 11.0231C10.1107 11.1344 9.43955 11.8965 9.43955 12.7958V17.347C9.43955 17.7678 9.78062 18.1088 10.2013 18.1088C10.622 18.1088 10.9631 17.7678 10.9631 17.347V12.7958C10.9631 12.6631 11.0604 12.551 11.1902 12.5349C18.3701 11.6317 23.1188 8.88413 25.8373 6.73883C25.9329 6.66336 26.0668 6.66326 26.162 6.73812C28.8812 8.88413 33.6299 11.6318 40.8106 12.535C40.9397 12.551 41.0371 12.6632 41.0371 12.7958V31.2261C41.0371 35.3384 38.8245 39.1709 35.2631 41.228L26.6454 46.2025C26.2521 46.4294 25.7479 46.4292 25.3551 46.2027L16.7372 41.2281C13.1757 39.1709 10.9631 35.3385 10.9631 31.2261V20.9018C10.963 20.4811 10.622 20.1401 10.2012 20.1401Z" fill="black"/>
<path d="M16.7662 24.2126C17.3848 24.2126 17.9663 24.4534 18.4036 24.8908L22.384 28.8702C22.6816 29.1678 23.1638 29.1676 23.4613 28.8702L27.8215 24.5099C28.119 24.2123 28.119 23.7301 27.8215 23.4326C27.524 23.1352 27.0417 23.1352 26.7443 23.4326L22.9226 27.2543L19.4809 23.8136C18.756 23.0885 17.7919 22.6892 16.7663 22.6892C15.7406 22.6892 14.7766 23.0886 14.0516 23.8135C13.3261 24.539 12.9265 25.5034 12.9265 26.529C12.9265 27.555 13.3262 28.5192 14.0516 29.2439L20.207 35.3994C20.9316 36.1252 21.896 36.5249 22.9227 36.5249C23.9488 36.5249 24.9129 36.1251 25.6369 35.3999L37.9486 23.0881C38.6743 22.363 39.0739 21.3988 39.0739 20.3731C39.0739 19.3473 38.6744 18.383 37.9489 17.6575C37.2239 16.9325 36.2598 16.5333 35.2342 16.5333C34.2086 16.5333 33.2445 16.9326 32.5195 17.6575L29.2582 20.9187C28.9607 21.2163 28.9607 21.6985 29.2582 21.996C29.5557 22.2934 30.038 22.2934 30.3354 21.996L33.5967 18.7347C34.034 18.2974 34.6154 18.0567 35.2342 18.0567C35.8528 18.0567 36.4343 18.2974 36.8717 18.7348C37.3094 19.1725 37.5505 19.7543 37.5505 20.3731C37.5505 20.9917 37.3095 21.5731 36.8717 22.0105L24.5592 34.3231C24.1225 34.7606 23.5413 35.0015 22.9227 35.0015C22.3035 35.0015 21.7219 34.7606 21.2848 34.3226L15.1286 28.1664C14.691 27.7292 14.45 27.1477 14.45 26.529C14.45 25.9103 14.6911 25.3285 15.1289 24.8908C15.566 24.4534 16.1475 24.2126 16.7662 24.2126Z" fill="black"/>
</g>
<defs>
<clipPath id="clip0_72_2454">
<rect width="52" height="52" fill="white"/>
</clipPath>
</defs>
</svg>
