<svg width="54" height="54" viewBox="0 0 54 54" fill="none" xmlns="http://www.w3.org/2000/svg">
<path d="M10.9688 26.1562H14.3438V53.1562H10.9688V26.1562Z" fill="#7A838B"/>
<path d="M10.9688 26.1562H14.3438V27.8438H10.9688V26.1562Z" fill="#5D6972"/>
<path d="M10.9688 48.0938H14.3438V49.7812H10.9688V48.0938Z" fill="#5D6972"/>
<path d="M37.1089 0.832764C39.7942 0.832764 42.3695 1.8995 44.2683 3.79831C46.1671 5.69711 47.2339 8.27245 47.2339 10.9578V31.2078H26.9839V10.9578C26.9839 8.27245 28.0506 5.69711 29.9494 3.79831C31.8482 1.8995 34.4236 0.832764 37.1089 0.832764Z" fill="#7A838B"/>
<path d="M29.5312 10.9688H44.7188V18.5625C44.7188 20.5765 43.9187 22.508 42.4946 23.9321C41.0705 25.3562 39.139 26.1562 37.125 26.1562C35.111 26.1562 33.1795 25.3562 31.7554 23.9321C30.3313 22.508 29.5312 20.5765 29.5312 18.5625V10.9688Z" fill="#5D6972"/>
<path d="M38.7964 26.1453V22.7703H35.4214V26.1453C35.4214 26.5928 35.2436 27.022 34.9271 27.3385C34.6107 27.655 34.1814 27.8328 33.7339 27.8328H31.2026V31.2078H43.0151V27.8328H40.4839C40.0363 27.8328 39.6071 27.655 39.2906 27.3385C38.9742 27.022 38.7964 26.5928 38.7964 26.1453Z" fill="#FFD3B6"/>
<path d="M35.4375 25.9613C36.5475 26.2212 37.7025 26.2212 38.8125 25.9613V22.7812H35.4375V25.9613Z" fill="#F9B995"/>
<path d="M29.5151 9.27026H44.7026V16.864C44.7026 18.878 43.9026 20.8095 42.4785 22.2336C41.0544 23.6577 39.1229 24.4578 37.1089 24.4578C35.0949 24.4578 33.1634 23.6577 31.7393 22.2336C30.3152 20.8095 29.5151 18.878 29.5151 16.864V9.27026Z" fill="#FFD3B6"/>
<path d="M39.6563 21.9375C37.6423 21.9375 35.7108 21.1374 34.2867 19.7133C32.8626 18.2892 32.0625 16.3577 32.0625 14.3438V9.28125H29.5313V16.875C29.5299 18.5313 30.0705 20.1425 31.0705 21.4627C32.0706 22.783 33.4752 23.7398 35.0699 24.1871C36.6646 24.6344 38.3619 24.5476 39.9026 23.9401C41.4434 23.3325 42.7431 22.2374 43.6033 20.8221C42.4158 21.5512 41.0497 21.9372 39.6563 21.9375Z" fill="#F9B995"/>
<path d="M28.6714 12.6453H29.5151V16.0203H28.6714C28.2238 16.0203 27.7946 15.8425 27.4781 15.526C27.1617 15.2095 26.9839 14.7803 26.9839 14.3328C26.9839 13.8852 27.1617 13.456 27.4781 13.1395C27.7946 12.8231 28.2238 12.6453 28.6714 12.6453Z" fill="#F9B995"/>
<path d="M45.5471 16.0194H44.7034V12.6444H45.5471C45.9947 12.6444 46.4239 12.8222 46.7404 13.1387C47.0568 13.4551 47.2346 13.8844 47.2346 14.3319C47.2346 14.7795 47.0568 15.2087 46.7404 15.5252C46.4239 15.8416 45.9947 16.0194 45.5471 16.0194Z" fill="#FFD3B6"/>
<path d="M28.6714 7.58276V12.6453H37.3991C38.2942 12.6451 39.1525 12.2894 39.7853 11.6564L40.4839 10.9578L41.1834 11.6564C41.8161 12.2894 42.6744 12.6451 43.5695 12.6453H45.5464V7.58276H28.6714Z" fill="#7A838B"/>
<path d="M51.4526 34.5828V53.1453L27.8437 53.1562L27.8276 39.6562H22.7651V34.5828C22.7651 32.7926 23.4763 31.0757 24.7422 29.8098C26.008 28.5439 27.7249 27.8328 29.5151 27.8328H32.9745C33.1682 28.7864 33.6856 29.6439 34.439 30.2597C35.1925 30.8756 36.1357 31.212 37.1089 31.212C38.082 31.212 39.0253 30.8756 39.7787 30.2597C40.5322 29.6439 41.0496 28.7864 41.2433 27.8328H44.7026C46.4928 27.8328 48.2097 28.5439 49.4756 29.8098C50.7415 31.0757 51.4526 32.7926 51.4526 34.5828Z" fill="#A7D0E1"/>
<path d="M44.7187 50.6183V39.6563L42.1874 34.5938H29.0182C28.9188 34.5938 28.8214 34.6216 28.7369 34.6739C28.6524 34.7262 28.5841 34.801 28.5398 34.8899C28.3909 35.1904 28.1559 35.4397 27.8648 35.606C27.5736 35.7724 27.2395 35.8482 26.9051 35.8239C26.5706 35.7995 26.2511 35.6761 25.9871 35.4693C25.7231 35.2625 25.5267 34.9818 25.4229 34.663C25.3392 34.3659 25.2966 34.0587 25.2964 33.75V32.0516C25.2959 30.8821 25.6014 29.7328 26.1823 28.7179C25.145 29.306 24.2822 30.1587 23.6819 31.189C23.0816 32.2193 22.7652 33.3904 22.7651 34.5828V39.6563H27.8276L27.8437 53.1563L51.4526 53.1453V50.6141L44.7187 50.6183Z" fill="#80BBCE"/>
<path d="M27.8276 44.7078C27.8276 45.6029 27.4721 46.4613 26.8391 47.0943C26.2062 47.7272 25.3477 48.0828 24.4526 48.0828H10.9526C10.5051 48.0828 10.0759 47.905 9.75939 47.5885C9.44293 47.2721 9.26514 46.8428 9.26514 46.3953V43.0203C9.26514 42.5727 9.44293 42.1435 9.75939 41.827C10.0759 41.5106 10.5051 41.3328 10.9526 41.3328H14.3276C14.7752 41.3328 15.2044 41.5106 15.5209 41.827C15.8373 42.1435 16.0151 42.5727 16.0151 43.0203H22.7651V39.6562H27.8276V44.7078Z" fill="#FFD3B6"/>
<path d="M27 45.5625H16.0312C14.9124 45.5625 13.8393 45.118 13.0481 44.3269C12.257 43.5357 11.8125 42.4626 11.8125 41.3438H10.9687C10.5212 41.3438 10.092 41.5215 9.77551 41.838C9.45904 42.1545 9.28125 42.5837 9.28125 43.0312V46.4062C9.28125 46.8538 9.45904 47.283 9.77551 47.5995C10.092 47.916 10.5212 48.0938 10.9687 48.0938H24.4687C25.232 48.0924 25.9722 47.8323 26.5686 47.356C27.1651 46.8798 27.5824 46.2154 27.7526 45.4714C27.506 45.5301 27.2535 45.5607 27 45.5625Z" fill="#F9B995"/>
<path d="M46.3901 39.6562H51.4526V53.1453H46.3901V39.6562Z" fill="#FFD3B6"/>
<path d="M48.9374 47.8575V39.6562H46.3901V53.1453H51.4526V50.3719C50.7858 50.3717 50.1463 50.1067 49.6747 49.6352C49.203 49.1638 48.9379 48.5244 48.9374 47.8575Z" fill="#F9B995"/>
<path d="M31.6406 26.1562C31.9763 26.1562 32.2982 26.2896 32.5356 26.5269C32.7729 26.7643 32.9062 27.0862 32.9062 27.4219V34.5938H30.375V27.4219C30.375 27.0862 30.5083 26.7643 30.7457 26.5269C30.983 26.2896 31.305 26.1562 31.6406 26.1562Z" fill="#F8C460"/>
<path d="M42.6094 26.1562C42.945 26.1562 43.267 26.2896 43.5043 26.5269C43.7417 26.7643 43.875 27.0862 43.875 27.4219V34.5938H41.3438V27.4219C41.3438 27.0862 41.4771 26.7643 41.7144 26.5269C41.9518 26.2896 42.2737 26.1562 42.6094 26.1562Z" fill="#F8C460"/>
<path d="M46.4062 53.1562H27.8438V39.6562L30.375 34.5938H43.875L46.4062 39.6562V53.1562Z" fill="#F8C460"/>
<path d="M30.375 37.9215C30.3753 37.3976 30.4972 36.8809 30.7311 36.412L31.6406 34.5938H30.375L27.8438 39.6562V53.1562H46.4062V50.625H43.0785C39.7093 50.625 36.4781 49.2866 34.0958 46.9042C31.7134 44.5219 30.375 41.2907 30.375 37.9215Z" fill="#EAAC47"/>
<path d="M9.28125 22.7812H16.0312V24.4688C16.0312 24.9163 15.8535 25.3455 15.537 25.662C15.2205 25.9785 14.7913 26.1562 14.3438 26.1562H10.9688C10.5212 26.1562 10.092 25.9785 9.77551 25.662C9.45904 25.3455 9.28125 24.9163 9.28125 24.4688V22.7812Z" fill="#7A838B"/>
<path d="M11.8125 24.4688V22.7812H9.28125V24.4688C9.28125 24.9163 9.45904 25.3455 9.77551 25.662C10.092 25.9785 10.5212 26.1562 10.9688 26.1562H13.5C13.0524 26.1562 12.6232 25.9785 12.3068 25.662C11.9903 25.3455 11.8125 24.9163 11.8125 24.4688Z" fill="#5D6972"/>
<path d="M22.7812 12.6562C16.0312 8.15625 9.28125 8.15625 2.53125 12.6562L9.28125 22.7812H16.0312L22.7812 12.6562Z" fill="#F8C460"/>
<path d="M4.95956 11.2354C4.12259 11.6603 3.31172 12.1347 2.53125 12.6562L9.28125 22.7812H16.0312L17.7188 20.25C15.6424 20.2499 13.5982 19.7372 11.7675 18.7575C9.93676 17.7779 8.37618 16.3615 7.22419 14.634L4.95956 11.2354Z" fill="#EAAC47"/>
<path d="M30.375 32.9062H32.9062V34.5938H30.375V32.9062Z" fill="#EAAC47"/>
<path d="M41.3438 32.9062H43.875V34.5938H41.3438V32.9062Z" fill="#EAAC47"/>
<path d="M43.0312 37.125H41.3438C41.12 37.125 40.9054 37.0361 40.7471 36.8779C40.5889 36.7196 40.5 36.505 40.5 36.2812C40.5 36.0575 40.5889 35.8429 40.7471 35.6846C40.9054 35.5264 41.12 35.4375 41.3438 35.4375H43.0312C43.255 35.4375 43.4696 35.5264 43.6279 35.6846C43.7861 35.8429 43.875 36.0575 43.875 36.2812C43.875 36.505 43.7861 36.7196 43.6279 36.8779C43.4696 37.0361 43.255 37.125 43.0312 37.125Z" fill="white"/>
<path d="M48.0937 27.7973V10.9688C48.0937 8.05966 46.938 5.26971 44.881 3.21267C42.8239 1.15563 40.034 0 37.1249 0C34.2158 0 31.4259 1.15563 29.3688 3.21267C27.3118 5.26971 26.1562 8.05966 26.1562 10.9688V27.783C24.8868 28.409 23.8177 29.3774 23.0694 30.5787C22.3212 31.7801 21.9235 33.1666 21.9214 34.5819V42.1757H16.7146C16.5884 41.8237 16.3861 41.5039 16.1221 41.239C15.8581 40.9742 15.539 40.7708 15.1874 40.6434V33.75C15.1874 33.5262 15.0985 33.3116 14.9403 33.1534C14.782 32.9951 14.5674 32.9062 14.3437 32.9062C14.1199 32.9062 13.9053 32.9951 13.747 33.1534C13.5888 33.3116 13.4999 33.5262 13.4999 33.75V40.4882H11.8124V27H13.4999V30.375C13.4999 30.5988 13.5888 30.8134 13.747 30.9716C13.9053 31.1299 14.1199 31.2188 14.3437 31.2188C14.5674 31.2188 14.782 31.1299 14.9403 30.9716C15.0985 30.8134 15.1874 30.5988 15.1874 30.375V26.8447C15.6792 26.6709 16.1053 26.3493 16.4074 25.924C16.7095 25.4987 16.8727 24.9904 16.8749 24.4688V23.0344L23.4832 13.122C23.5447 13.0298 23.5874 12.9264 23.609 12.8177C23.6305 12.709 23.6304 12.5971 23.6087 12.4884C23.587 12.3798 23.5441 12.2764 23.4825 12.1843C23.4208 12.0923 23.3416 12.0132 23.2494 11.9517C20.154 9.74855 16.4689 8.5244 12.6705 8.4375H12.6562H12.6418C8.8431 8.52514 5.15801 9.75018 2.06287 11.9543C1.97067 12.0157 1.89149 12.0948 1.82984 12.1869C1.7682 12.279 1.7253 12.3823 1.7036 12.491C1.68189 12.5997 1.68181 12.7115 1.70335 12.8202C1.7249 12.929 1.76764 13.0323 1.82915 13.1245L8.4374 23.0344V24.4688C8.43956 24.9904 8.60285 25.4987 8.90491 25.924C9.20698 26.3493 9.63307 26.6709 10.1249 26.8447V40.6392C9.6294 40.8107 9.19937 41.1318 8.89421 41.5581C8.58905 41.9845 8.42383 42.4951 8.42137 43.0194V46.3944C8.42366 46.9189 8.5888 47.4297 8.89397 47.8562C9.19914 48.2828 9.62927 48.604 10.1249 48.7755V53.1562C10.1249 53.38 10.2138 53.5946 10.372 53.7529C10.5303 53.9111 10.7449 54 10.9687 54H14.3437C14.5674 54 14.782 53.9111 14.9403 53.7529C15.0985 53.5946 15.1874 53.38 15.1874 53.1562V48.9257H24.4526C25.3755 48.9226 26.2713 48.6137 26.9999 48.0473V53.1562C26.9999 53.38 27.0888 53.5946 27.247 53.7529C27.4053 53.9111 27.6199 54 27.8437 54L51.4526 53.9882C51.6764 53.9882 51.891 53.8993 52.0492 53.7411C52.2075 53.5828 52.2964 53.3682 52.2964 53.1444V34.5819C52.2945 33.1724 51.9004 31.7913 51.1582 30.593C50.4159 29.3948 49.3548 28.4268 48.0937 27.7973ZM50.6089 34.5819V38.8125H46.9276L44.7187 34.3946V28.6765C46.2817 28.6823 47.7788 29.3069 48.8826 30.4135C49.9864 31.5202 50.6071 33.0189 50.6089 34.5819ZM33.7499 33.75V30.7547C34.6753 31.594 35.8815 32.0563 37.1308 32.0507C38.3801 32.0451 39.5821 31.5719 40.4999 30.7243V33.75H33.7499ZM31.2187 27.4219C31.2187 27.31 31.2631 27.2027 31.3422 27.1236C31.4213 27.0444 31.5286 27 31.6405 27C31.7524 27 31.8597 27.0444 31.9388 27.1236C32.018 27.2027 32.0624 27.31 32.0624 27.4219V33.75H31.2187V27.4219ZM36.2812 26.1562V25.2695C36.8422 25.3268 37.4076 25.3268 37.9687 25.2695V26.1562C37.9698 26.7477 38.1781 27.32 38.5572 27.7739C38.9364 28.2278 39.4625 28.5346 40.0443 28.6411C39.7523 29.1628 39.3265 29.5972 38.8108 29.8996C38.295 30.202 37.708 30.3614 37.1101 30.3614C36.5123 30.3614 35.9252 30.202 35.4095 29.8996C34.8937 29.5972 34.468 29.1628 34.176 28.6411C34.7632 28.5408 35.2962 28.2367 35.6812 27.7822C36.0663 27.3277 36.2787 26.7519 36.2812 26.1562ZM43.0312 33.75H42.1874V27.4219C42.1874 27.31 42.2318 27.2027 42.311 27.1236C42.3901 27.0444 42.4974 27 42.6093 27C42.7212 27 42.8285 27.0444 42.9076 27.1236C42.9867 27.2027 43.0312 27.31 43.0312 27.4219V33.75ZM44.7026 26.989H44.6731C44.573 26.5147 44.3126 26.0893 43.9357 25.7844C43.5588 25.4796 43.0883 25.3138 42.6035 25.3151C42.1188 25.3164 41.6492 25.4846 41.2739 25.7915C40.8986 26.0984 40.6405 26.5251 40.5429 27H40.4999C40.2761 27 40.0615 26.9111 39.9033 26.7529C39.745 26.5946 39.6562 26.38 39.6562 26.1562V24.9235C41.3677 24.3831 42.8628 23.3117 43.9247 21.8646C44.9866 20.4175 45.5602 18.6699 45.5624 16.875C45.8505 16.8722 46.1359 16.8197 46.4062 16.7197V27.1882C45.8476 27.0578 45.2762 26.991 44.7026 26.989ZM45.5624 15.1875V13.5C45.7862 13.5 46.0008 13.5889 46.159 13.7471C46.3173 13.9054 46.4062 14.12 46.4062 14.3438C46.4062 14.5675 46.3173 14.7821 46.159 14.9404C46.0008 15.0986 45.7862 15.1875 45.5624 15.1875ZM37.1249 1.6875C39.5855 1.6904 41.9446 2.66918 43.6845 4.40912C45.4245 6.14906 46.4032 8.5081 46.4062 10.9688V11.9677C46.1359 11.8678 45.8505 11.8153 45.5624 11.8125H43.5855C43.2239 11.8129 42.8665 11.7355 42.5376 11.5855C42.4364 11.5364 42.3263 11.5079 42.214 11.5019C42.1016 11.4959 41.9892 11.5124 41.8833 11.5505C41.7774 11.5886 41.6802 11.6474 41.5974 11.7236C41.5146 11.7998 41.4479 11.8918 41.4012 11.9942C41.3545 12.0966 41.3288 12.2072 41.3255 12.3197C41.3222 12.4322 41.3414 12.5442 41.382 12.6491C41.4226 12.754 41.4838 12.8498 41.562 12.9307C41.6402 13.0116 41.7338 13.0761 41.8372 13.1203C42.3857 13.3716 42.9822 13.5011 43.5855 13.5H43.8749V16.875C43.8749 18.6652 43.1637 20.3821 41.8979 21.648C40.632 22.9138 38.9151 23.625 37.1249 23.625C35.3347 23.625 33.6178 22.9138 32.3519 21.648C31.0861 20.3821 30.3749 18.6652 30.3749 16.875V13.5H37.4143C37.9684 13.5016 38.5174 13.3932 39.0294 13.1812C39.5414 12.9691 40.0062 12.6576 40.397 12.2648L41.0964 11.5653C41.2501 11.4061 41.3352 11.193 41.3333 10.9718C41.3313 10.7506 41.2426 10.5389 41.0862 10.3825C40.9297 10.2261 40.7181 10.1373 40.4969 10.1354C40.2756 10.1335 40.0625 10.2185 39.9034 10.3722L39.2039 11.0717C38.7281 11.5446 38.0851 11.8107 37.4143 11.8125H28.6874C28.3993 11.8153 28.1139 11.8678 27.8437 11.9677V10.9688C27.8466 8.5081 28.8253 6.14906 30.5653 4.40912C32.3052 2.66918 34.6642 1.6904 37.1249 1.6875ZM28.6874 15.1875C28.4636 15.1875 28.249 15.0986 28.0908 14.9404C27.9325 14.7821 27.8437 14.5675 27.8437 14.3438C27.8437 14.12 27.9325 13.9054 28.0908 13.7471C28.249 13.5889 28.4636 13.5 28.6874 13.5V15.1875ZM27.8437 16.7197C28.1139 16.8197 28.3993 16.8722 28.6874 16.875C28.6896 18.6699 29.2632 20.4175 30.3251 21.8646C31.387 23.3117 32.8821 24.3831 34.5937 24.9235V26.1562C34.5937 26.38 34.5048 26.5946 34.3465 26.7529C34.1883 26.9111 33.9737 27 33.7499 27H33.7069C33.6093 26.5251 33.3512 26.0984 32.9759 25.7915C32.6006 25.4846 32.131 25.3164 31.6463 25.3151C31.1615 25.3138 30.691 25.4796 30.3141 25.7844C29.9372 26.0893 29.6768 26.5147 29.5767 26.989H29.5151C28.9526 26.9907 28.392 27.0549 27.8437 27.1806V16.7197ZM23.6089 34.5819C23.6109 33.0161 24.2338 31.515 25.341 30.4078C26.4482 29.3006 27.9493 28.6777 29.5151 28.6757H29.5312V34.3946L27.3222 38.8125H23.6097L23.6089 34.5819ZM15.1874 24.4688C15.1874 24.6925 15.0985 24.9071 14.9403 25.0654C14.782 25.2236 14.5674 25.3125 14.3437 25.3125H10.9687C10.7449 25.3125 10.5303 25.2236 10.372 25.0654C10.2138 24.9071 10.1249 24.6925 10.1249 24.4688V23.625H15.1874V24.4688ZM6.12637 11.6075L7.68224 14.7209C7.73177 14.8201 7.80035 14.9085 7.88406 14.9812C7.96777 15.0538 8.06497 15.1093 8.17011 15.1444C8.27526 15.1795 8.38629 15.1936 8.49686 15.1858C8.60744 15.1779 8.71539 15.1484 8.81456 15.0989C8.91373 15.0494 9.00217 14.9808 9.07483 14.8971C9.1475 14.8134 9.20297 14.7162 9.23807 14.611C9.27317 14.5059 9.28721 14.3949 9.27941 14.2843C9.2716 14.1737 9.24209 14.0658 9.19256 13.9666L7.69996 10.9814C9.02545 10.5124 10.4093 10.2284 11.8124 10.1377V14.3438C11.8124 14.5675 11.9013 14.7821 12.0595 14.9404C12.2178 15.0986 12.4324 15.1875 12.6562 15.1875C12.8799 15.1875 13.0945 15.0986 13.2528 14.9404C13.411 14.7821 13.4999 14.5675 13.4999 14.3438V10.1419C14.903 10.2327 16.2869 10.5166 17.6123 10.9856L16.1197 13.9708C16.0197 14.1711 16.0033 14.4029 16.0742 14.6153C16.1451 14.8276 16.2975 15.0031 16.4977 15.1031C16.698 15.2032 16.9298 15.2195 17.1422 15.1486C17.3545 15.0777 17.53 14.9254 17.6301 14.7251L19.1859 11.6117C20.0171 11.9902 20.8234 12.4211 21.5999 12.9018L15.5797 21.9375H9.73256L3.7124 12.9018C4.48882 12.4196 5.2951 11.9873 6.12637 11.6075ZM13.4999 52.3125H11.8124V48.9257H13.4999V52.3125ZM26.9839 44.7069C26.9839 45.3783 26.7172 46.0221 26.2425 46.4968C25.7678 46.9715 25.124 47.2382 24.4526 47.2382H10.9526C10.7288 47.2382 10.5142 47.1493 10.356 46.9911C10.1978 46.8328 10.1089 46.6182 10.1089 46.3944V43.0194C10.1089 42.7957 10.1978 42.5811 10.356 42.4228C10.5142 42.2646 10.7288 42.1757 10.9526 42.1757H14.3276C14.5514 42.1757 14.766 42.2646 14.9242 42.4228C15.0825 42.5811 15.1714 42.7957 15.1714 43.0194C15.1714 43.2432 15.2603 43.4578 15.4185 43.6161C15.5767 43.7743 15.7913 43.8632 16.0151 43.8632H22.7651C22.9889 43.8632 23.2035 43.7743 23.3617 43.6161C23.52 43.4578 23.6089 43.2432 23.6089 43.0194V40.5H26.9839V44.7069ZM28.6874 39.8554L30.8963 35.4375H43.3535L45.5472 39.825V52.3125H28.6874V39.8554ZM50.6089 52.3007H47.2499V40.5H50.6089V52.3007Z" fill="black"/>
<path d="M40.5 14.3438C40.2762 14.3438 40.0616 14.4326 39.9034 14.5909C39.7451 14.7491 39.6562 14.9637 39.6562 15.1875V16.0312C39.6562 16.255 39.7451 16.4696 39.9034 16.6279C40.0616 16.7861 40.2762 16.875 40.5 16.875C40.7238 16.875 40.9384 16.7861 41.0966 16.6279C41.2549 16.4696 41.3438 16.255 41.3438 16.0312V15.1875C41.3438 14.9637 41.2549 14.7491 41.0966 14.5909C40.9384 14.4326 40.7238 14.3438 40.5 14.3438Z" fill="black"/>
<path d="M33.75 14.3438C33.5262 14.3438 33.3116 14.4326 33.1534 14.5909C32.9951 14.7491 32.9062 14.9637 32.9062 15.1875V16.0312C32.9062 16.255 32.9951 16.4696 33.1534 16.6279C33.3116 16.7861 33.5262 16.875 33.75 16.875C33.9738 16.875 34.1884 16.7861 34.3466 16.6279C34.5049 16.4696 34.5938 16.255 34.5938 16.0312V15.1875C34.5938 14.9637 34.5049 14.7491 34.3466 14.5909C34.1884 14.4326 33.9738 14.3438 33.75 14.3438Z" fill="black"/>
</svg>
