<svg width="59" height="59" viewBox="0 0 59 59" fill="none" xmlns="http://www.w3.org/2000/svg">
<g clip-path="url(#clip0_72_2490)">
<path d="M12.1533 53.6323L12.668 54.6676C13.1177 55.5718 14.4076 55.5718 14.8572 54.6676L15.372 53.6323C16.1104 52.1473 17.3135 50.9441 18.7986 50.2056L19.8339 49.6909C20.7381 49.2414 20.7381 47.9513 19.8339 47.5017L18.7986 46.987C17.3135 46.2486 16.1104 45.0454 15.372 43.5603L14.8572 42.525C14.4076 41.6208 13.1177 41.6208 12.668 42.525L12.1533 43.5603C11.4149 45.0453 10.2116 46.2486 8.72661 46.987L7.69136 47.5017C6.78713 47.9513 6.78713 49.2413 7.69136 49.6909L8.72661 50.2056C10.2117 50.9441 11.415 52.1472 12.1533 53.6323Z" fill="#7FD49D"/>
<path d="M42.3778 9.90657C40.0074 9.90657 38.0857 11.8281 38.0855 14.1984V10.1602C38.0855 7.78963 36.1638 5.86789 33.7932 5.86789C31.4226 5.86789 29.5009 7.78963 29.5009 10.1602V7.94715C29.5009 5.57658 27.5791 3.65485 25.2086 3.65485C22.838 3.65485 20.9163 5.57658 20.9163 7.94715V13.58C20.916 11.2095 18.9944 9.288 16.624 9.288C14.2534 9.288 12.3317 11.2097 12.3317 13.5803V28.8965L10.5398 27.1046C8.32663 24.8914 4.73851 24.8914 2.52535 27.1046C0.312188 29.3178 0.312188 32.9059 2.52535 35.119L15.9971 48.5908C18.2618 50.8555 21.3903 52.2561 24.8461 52.2561H34.1556C41.0672 52.2561 46.67 46.6533 46.67 39.7417V36.1023V14.1989C46.6701 11.8283 44.7484 9.90657 42.3778 9.90657Z" fill="#FFD3BD"/>
<path d="M15.9973 48.5907C18.262 50.8553 21.3906 52.2561 24.8463 52.2561H31.7447C18.2705 46.4814 12.5541 18.7713 15.2548 9.51257C13.556 10.0842 12.3319 11.6889 12.3319 13.5804V28.8966L10.54 27.1047C8.32687 24.8915 4.73875 24.8915 2.52559 27.1047C0.312432 29.3179 0.312432 32.906 2.52559 35.1191L15.9973 48.5907Z" fill="#FFBE9D"/>
<path d="M19.7023 41.847C21.6991 41.847 23.3179 40.5579 23.3179 38.9677C23.3179 37.3776 21.6991 36.0885 19.7023 36.0885C17.7054 36.0885 16.0867 37.3776 16.0867 38.9677C16.0867 40.5579 17.7054 41.847 19.7023 41.847Z" fill="#F1AACB"/>
<path d="M39.2997 41.847C41.2965 41.847 42.9153 40.5579 42.9153 38.9677C42.9153 37.3776 41.2965 36.0885 39.2997 36.0885C37.3028 36.0885 35.6841 37.3776 35.6841 38.9677C35.6841 40.5579 37.3028 41.847 39.2997 41.847Z" fill="#F1AACB"/>
<path d="M48.8689 33.539L49.4395 34.6868C49.938 35.6894 51.3682 35.6894 51.8667 34.6868L52.4373 33.539C53.2559 31.8924 54.59 30.5584 56.2365 29.7398L57.3844 29.169C58.3869 28.6705 58.3869 27.2404 57.3844 26.7419L56.2365 26.1712C54.5901 25.3526 53.256 24.0186 52.4373 22.372L51.8667 21.2242C51.3682 20.2217 49.938 20.2217 49.4395 21.2242L48.8689 22.372C48.0503 24.0185 46.7162 25.3525 45.0696 26.1712L43.9218 26.7419C42.9193 27.2404 42.9193 28.6705 43.9218 29.169L45.0696 29.7398C46.7162 30.5584 48.0503 31.8924 48.8689 33.539Z" fill="#F7EF87"/>
<path d="M7.25338 17.1768L7.76813 18.2121C8.21777 19.1163 9.50768 19.1163 9.95732 18.2121L10.4721 17.1768C11.2105 15.6918 12.4136 14.4886 13.8987 13.7501L14.934 13.2354C15.8382 12.7858 15.8382 11.4958 14.934 11.0462L13.8987 10.5315C12.4137 9.79305 11.2105 8.5899 10.4721 7.10478L9.95732 6.06953C9.5078 5.1653 8.21777 5.1653 7.76813 6.06953L7.25338 7.10478C6.51497 8.5899 5.31171 9.79305 3.82671 10.5315L2.79146 11.0462C1.88722 11.4958 1.88722 12.7858 2.79146 13.2354L3.82671 13.7501C5.31183 14.4886 6.51509 15.6918 7.25338 17.1768Z" fill="#A3DEFE"/>
<path d="M57.7691 25.9681L56.6213 25.3973C55.1525 24.6671 53.9416 23.456 53.2112 21.9872L52.6406 20.8395C51.8246 19.1984 49.4815 19.1985 48.6656 20.8395C48.1798 21.7826 48.0262 22.2235 47.5345 22.9302V15.2515C47.5345 14.7741 47.1477 14.3873 46.6703 14.3873C46.1929 14.3873 45.806 14.7741 45.806 15.2515V24.7093C45.0001 25.3052 44.4485 25.4934 43.5371 25.9681C41.8957 26.7841 41.8963 29.1272 43.5371 29.9429C44.4482 30.4174 44.9997 30.6054 45.806 31.2016L45.8059 39.7417C45.8059 46.1656 40.5797 51.3919 34.1558 51.3919H24.8462C21.6859 51.3919 18.773 50.1443 16.6084 47.9796C16.0445 47.4157 8.52164 39.8929 8.13376 39.505C7.79613 39.1676 7.24901 39.1676 6.91149 39.505C6.57397 39.8427 6.57397 40.3898 6.91149 40.7273L10.5898 44.4055C9.33749 45.9592 7.93142 46.3619 7.30662 46.7279C5.76366 47.4952 5.76435 49.6978 7.30662 50.4648L8.34187 50.9796C9.65011 51.6302 10.7289 52.7089 11.3793 54.0171L11.894 55.0524C12.6615 56.5952 14.864 56.5949 15.6309 55.0524C15.9961 54.4526 16.4639 52.7629 18.3739 51.4564C20.3325 52.5423 22.5448 53.1203 24.8462 53.1203H34.1558C41.5328 53.1203 47.5344 47.1187 47.5344 39.7416L47.5345 32.9806C48.0268 33.6881 48.182 34.1322 48.6657 35.0712C49.4818 36.7126 51.825 36.712 52.6407 35.0712L53.2113 33.9235C53.9417 32.4548 55.1527 31.2437 56.6214 30.5134L57.7693 29.9427C59.4105 29.1268 59.4099 26.7838 57.7691 25.9681ZM14.0833 54.2828C13.9511 54.549 13.5744 54.5493 13.442 54.2828L12.9272 53.2477C11.3439 50.0631 8.54238 49.2277 8.07615 48.9171C7.81134 48.7854 7.80881 48.4088 8.07626 48.2759C8.70025 47.9097 10.3175 47.4123 11.8172 45.6331C15.1768 48.9443 15.5771 49.5137 16.8303 50.4555C14.965 51.9745 14.4507 53.6619 14.0833 54.2828ZM56.9996 28.3951C56.4913 28.7334 53.4034 29.6548 51.6634 33.1542L51.0928 34.3019C50.9119 34.6658 50.3944 34.666 50.2133 34.3019L49.6427 33.1542C48.7253 31.3091 47.2068 29.8371 45.4543 28.9658L44.3065 28.3951C43.9425 28.2142 43.9426 27.6967 44.3066 27.5158C45.138 27.071 46.0148 26.7762 47.1703 25.8367C47.201 25.8148 47.2302 25.7908 47.2577 25.7651C49.2625 24.0946 49.8113 22.2902 50.2132 21.6089C50.3941 21.2449 50.9119 21.245 51.0927 21.6089C51.4304 22.1164 52.3525 25.2052 55.8517 26.945L56.9995 27.5158C57.3636 27.6968 57.3635 28.2143 56.9996 28.3951ZM34.6073 35.8346C34.6073 36.3121 34.9942 36.6989 35.4716 36.6989C35.949 36.6989 36.3358 36.3121 36.3358 35.8346C36.3358 35.3622 36.7201 34.9779 37.1926 34.9779C37.665 34.9779 38.0494 35.3622 38.0494 35.8346C38.0494 36.3121 38.4362 36.6989 38.9136 36.6989C39.391 36.6989 39.7778 36.3121 39.7778 35.8346C39.7778 34.4092 38.6181 33.2494 37.1926 33.2494C35.7672 33.2494 34.6073 34.4092 34.6073 35.8346ZM3.13669 34.5079C1.25978 32.6312 1.25932 29.5928 3.13669 27.7157C5.01338 25.839 8.05149 25.8384 9.92886 27.7158L11.7208 29.5077C11.968 29.7546 12.3395 29.8288 12.6626 29.6949C12.9856 29.5613 13.1962 29.2461 13.1962 28.8965V15.2036C13.9662 14.6143 14.52 14.428 15.3186 14.0093C16.7975 13.2739 16.8726 11.1982 15.4666 10.354C17.7 9.55223 20.0521 11.2165 20.0522 13.5798V24.6569C20.0522 25.1344 20.439 25.5212 20.9164 25.5212C21.3938 25.5212 21.7807 25.1344 21.7807 24.6569V7.94715C21.7807 6.05698 23.3186 4.51909 25.2087 4.51909C27.0989 4.51909 28.6368 6.05698 28.6368 7.94715V23.0045C28.6368 23.4819 29.0236 23.8688 29.501 23.8688C29.9784 23.8688 30.3653 23.4819 30.3653 23.0045V10.1602C30.3653 8.27003 31.9032 6.73213 33.7933 6.73213C35.6835 6.73213 37.2214 8.27003 37.2214 10.1602V24.9813C37.2214 25.4587 37.6084 25.8456 38.0856 25.8456C38.5631 25.8456 38.9499 25.4587 38.9499 24.9813V14.1986C38.9501 12.3086 40.4879 10.7708 42.378 10.7708C43.3767 10.7708 44.3239 11.2054 44.9766 11.9631C45.2882 12.3248 45.8337 12.3652 46.1955 12.0538C46.5571 11.7422 46.5977 11.1966 46.2862 10.8349C45.3048 9.69569 43.8802 9.04232 42.378 9.04232C41.0631 9.04232 39.8617 9.53702 38.9499 10.3501V10.1603C38.9499 7.31694 36.6367 5.00376 33.7933 5.00376C32.3774 5.00376 31.0927 5.5775 30.1599 6.50466C29.5345 4.36099 27.5515 2.79071 25.2087 2.79071C22.3654 2.79071 20.0522 5.10389 20.0522 7.94726V9.73141C18.2522 8.1268 15.586 7.98506 13.6299 9.3841C11.5706 8.05097 11.0681 6.22868 10.7311 5.6849C9.96389 4.14182 7.7611 4.14228 6.99411 5.6849L6.47937 6.72015C5.82899 8.0285 4.7503 9.10731 3.44195 9.75769L2.40669 10.2724C0.863612 11.0397 0.864188 13.2424 2.40669 14.0094L3.44195 14.5242C4.7503 15.1747 5.82899 16.2535 6.47937 17.5617L6.99411 18.5968C7.76133 20.1399 9.96412 20.1395 10.7311 18.5968C11.2274 17.6099 11.2573 17.5127 11.4677 17.1546V26.8101L11.1511 26.4934C8.59873 23.9412 4.46717 23.9405 1.91454 26.4934C-0.637986 29.0457 -0.638332 33.1773 1.91442 35.7301L4.01408 37.8298C4.35182 38.1673 4.89883 38.1672 5.23635 37.8298C5.57387 37.4922 5.57387 36.945 5.23635 36.6075L3.13669 34.5079ZM9.1833 17.8273C9.0509 18.0936 8.67432 18.0937 8.54192 17.8273L8.02717 16.7922C6.44606 13.612 3.63911 12.77 3.1761 12.4616C2.9098 12.3292 2.90969 11.9526 3.1761 11.8202L4.21136 11.3055C7.39155 9.72438 8.23344 6.91743 8.5418 6.45442C8.6742 6.18812 9.05079 6.188 9.18319 6.45442C9.49167 6.91743 10.3286 9.72196 13.5136 11.3055L14.5489 11.8202C14.8151 11.9526 14.8152 12.3292 14.5489 12.4616L13.5136 12.9764C12.6641 13.3987 11.8879 14.0071 11.7137 14.1856C10.0174 15.6699 9.54283 17.2107 9.1833 17.8273ZM19.2242 35.8346C19.2242 36.3121 19.6111 36.6989 20.0885 36.6989C20.5659 36.6989 20.9527 36.3121 20.9527 35.8346C20.9527 35.3622 21.337 34.9779 21.8095 34.9779C22.2819 34.9779 22.6662 35.3622 22.6662 35.8346C22.6662 36.3121 23.0531 36.6989 23.5305 36.6989C24.0079 36.6989 24.3947 36.3121 24.3947 35.8346C24.3947 34.4092 23.235 33.2494 21.8095 33.2494C20.384 33.2494 19.2242 34.4092 19.2242 35.8346ZM30.675 37.2782C30.3785 37.6182 29.9506 37.8134 29.501 37.8134C29.0515 37.8134 28.6235 37.6183 28.3269 37.2782C28.0135 36.9182 27.4674 36.8808 27.1076 37.1945C26.7478 37.5082 26.7104 38.054 27.024 38.4138C27.6488 39.1306 28.5516 39.5418 29.5009 39.5418C30.4502 39.5418 31.3531 39.1306 31.9778 38.4138C32.2915 38.054 32.2541 37.5082 31.8942 37.1945C31.5344 36.8807 30.9886 36.9183 30.675 37.2782Z" fill="black"/>
</g>
<defs>
<clipPath id="clip0_72_2490">
<rect width="59" height="59" fill="white"/>
</clipPath>
</defs>
</svg>
