<svg width="47" height="47" viewBox="0 0 47 47" fill="none" xmlns="http://www.w3.org/2000/svg">
<g clip-path="url(#clip0_72_2502)">
<path d="M9.22146 11.4666C11.9822 11.4666 14.2203 9.22855 14.2203 6.46779C14.2203 3.70703 11.9822 1.46899 9.22146 1.46899C6.4607 1.46899 4.22266 3.70703 4.22266 6.46779C4.22266 9.22855 6.4607 11.4666 9.22146 11.4666Z" fill="#FFC338"/>
<path fill-rule="evenodd" clip-rule="evenodd" d="M9.22141 1.46899C11.9822 1.46899 14.2202 3.70709 14.2202 6.46779C14.2202 9.22858 11.9822 11.4666 9.22141 11.4666C9.0772 11.4666 8.93455 11.4601 8.79346 11.4481C11.3539 11.231 13.3643 9.08437 13.3643 6.46779C13.3643 3.85122 11.3539 1.70454 8.79346 1.48745C8.93464 1.47542 9.07729 1.46899 9.22141 1.46899Z" fill="#F5B829"/>
<path d="M43.7136 41.8864C46.1249 39.475 46.1249 35.5655 43.7136 33.1542C41.3022 30.7428 37.3927 30.7428 34.9813 33.1542C32.57 35.5655 32.57 39.475 34.9813 41.8864C37.3927 44.2977 41.3022 44.2977 43.7136 41.8864Z" fill="#8AC9FE"/>
<path fill-rule="evenodd" clip-rule="evenodd" d="M39.3557 31.3445C42.7662 31.3445 45.5312 34.1094 45.5312 37.52C45.5312 40.9306 42.7662 43.6955 39.3557 43.6955C39.2788 43.6955 39.2024 43.6935 39.1262 43.6908C42.4304 43.5701 45.0723 40.8537 45.0723 37.52C45.0723 34.1863 42.4304 31.47 39.1263 31.3492C39.2025 31.3464 39.2789 31.3445 39.3557 31.3445Z" fill="#60B7FF"/>
<path fill-rule="evenodd" clip-rule="evenodd" d="M14.7678 11.0941L16.0856 12.7822C16.2239 12.9606 16.44 13.0647 16.6646 13.0647C16.8892 13.0647 17.1053 12.9606 17.2436 12.7822L18.5614 11.0941C18.812 10.7743 18.7558 10.3129 18.4361 10.0631C18.1164 9.81339 17.6541 9.8704 17.4034 10.1901L17.3991 10.1966V6.40176C17.3991 5.99602 17.0707 5.66766 16.6645 5.66766C16.2583 5.66766 15.9299 5.99602 15.9299 6.40176V10.1966L15.9256 10.1901C15.675 9.8704 15.2127 9.81339 14.8929 10.0631C14.5734 10.3129 14.5172 10.7743 14.7678 11.0941ZM26.8616 44.0882C27.2677 44.0882 27.5961 43.7594 27.5961 43.3537V39.5592L27.6048 39.5652C27.8511 39.8849 28.3133 39.942 28.6332 39.6923C28.9529 39.4425 29.0091 38.9806 28.7585 38.6613L27.4406 36.9732C27.3024 36.7952 27.0906 36.6906 26.8617 36.6906C26.6369 36.6906 26.4253 36.7952 26.287 36.9732L24.9649 38.6613C24.7186 38.9806 24.7748 39.4425 25.0945 39.6923C25.4142 39.942 25.8723 39.8849 26.1228 39.5652L26.1271 39.5592V43.3537C26.1271 43.7595 26.4598 44.0882 26.8616 44.0882ZM4.95966 6.46776C4.95966 4.11639 6.86941 2.20316 9.22427 2.20316C11.5747 2.20316 13.4846 4.11639 13.4846 6.46776C13.4846 8.81914 11.5748 10.7319 9.22427 10.7319C6.86941 10.7319 4.95966 8.81914 4.95966 6.46776ZM3.49055 6.46776C3.49055 3.30628 6.06141 0.734589 9.22418 0.734589C12.3826 0.734589 14.9535 3.30628 14.9535 6.46776C14.9535 9.62888 12.3826 12.201 9.22418 12.201C6.06141 12.201 3.49055 9.62888 3.49055 6.46776ZM38.6228 33.851V37.5203C38.6228 37.7822 38.761 38.0253 38.9901 38.1554L41.643 39.6884C41.7597 39.7554 41.885 39.7877 42.0103 39.7877C42.2652 39.7877 42.5115 39.6555 42.6454 39.4205C42.8485 39.0688 42.7318 38.6198 42.3775 38.4172L40.0919 37.0963V33.851C40.0919 33.4453 39.7635 33.1165 39.3573 33.1165C38.9511 33.1166 38.6228 33.4454 38.6228 33.851ZM39.3572 32.0787C42.3559 32.0787 44.7971 34.5195 44.7971 37.5203C44.7971 40.5202 42.3559 42.961 39.3572 42.961C36.3543 42.961 33.9131 40.5202 33.9131 37.5203C33.9131 34.5195 36.3544 32.0787 39.3572 32.0787ZM39.3572 30.6096C43.1682 30.6096 46.2661 33.7098 46.2661 37.5203C46.2661 41.3299 43.1681 44.43 39.3572 44.43C35.5464 44.43 32.444 41.3298 32.444 37.5203C32.444 33.7098 35.5464 30.6096 39.3572 30.6096ZM11.5358 15.9501C11.9419 15.9501 12.2704 15.6213 12.2704 15.2155C12.2704 14.8103 11.942 14.4814 11.5358 14.4814H10.0667C9.66058 14.4814 9.33213 14.8103 9.33213 15.2155C9.33213 15.6213 9.66049 15.9501 10.0667 15.9501H11.5358ZM21.8149 15.9501H23.2841C23.6902 15.9501 24.0186 15.6213 24.0186 15.2155C24.0186 14.8103 23.6903 14.4814 23.2841 14.4814H21.8149C21.4088 14.4814 21.0804 14.8103 21.0804 15.2155C21.0804 15.6213 21.4088 15.9501 21.8149 15.9501ZM4.19059 15.9501H5.65962C6.06582 15.9501 6.39417 15.6213 6.39417 15.2155C6.39417 14.8103 6.06582 14.4814 5.65962 14.4814H4.19059C3.78439 14.4814 3.45603 14.8103 3.45603 15.2155C3.45603 15.6213 3.78439 15.9501 4.19059 15.9501ZM15.9431 15.9501H17.4078C17.814 15.9501 18.1423 15.6213 18.1423 15.2155C18.1423 14.8103 17.814 14.4814 17.4078 14.4814H15.9431C15.5369 14.4814 15.2085 14.8103 15.2085 15.2155C15.2085 15.6213 15.5369 15.9501 15.9431 15.9501ZM29.4324 35.7799C29.4324 35.3741 29.1041 35.0453 28.6979 35.0453H27.2289C26.827 35.0453 26.4943 35.3741 26.4943 35.7799C26.4943 36.1856 26.827 36.5144 27.2289 36.5144H28.6979C29.1041 36.5144 29.4324 36.1856 29.4324 35.7799ZM3.73252 36.5144H5.20164C5.60344 36.5144 5.9362 36.1856 5.9362 35.7799C5.9362 35.3741 5.60353 35.0453 5.20164 35.0453H3.73252C3.32641 35.0453 2.99796 35.3741 2.99796 35.7799C2.99796 36.1856 3.32641 36.5144 3.73252 36.5144ZM16.9498 35.0453H15.4807C15.0745 35.0453 14.7461 35.3741 14.7461 35.7799C14.7461 36.1856 15.0745 36.5144 15.4807 36.5144H16.9497C17.3559 36.5144 17.6843 36.1856 17.6843 35.7799C17.6843 35.3741 17.3559 35.0453 16.9498 35.0453ZM21.357 35.0453C20.9509 35.0453 20.6224 35.3741 20.6224 35.7799C20.6224 36.1856 20.9508 36.5144 21.357 36.5144H22.8261C23.2279 36.5144 23.5563 36.1856 23.5563 35.7799C23.5563 35.3741 23.228 35.0453 22.8261 35.0453H21.357ZM9.60449 35.0453C9.19829 35.0453 8.86994 35.3741 8.86994 35.7799C8.86994 36.1856 9.19829 36.5144 9.60449 36.5144H11.0735C11.4797 36.5144 11.8081 36.1856 11.8081 35.7799C11.8081 35.3741 11.4797 35.0453 11.0735 35.0453H9.60449ZM45.5317 44.7969C45.9379 44.7969 46.2662 45.1257 46.2662 45.5315C46.2662 45.9372 45.9379 46.2656 45.5317 46.2656H1.46845C1.06234 46.2656 0.733887 45.9372 0.733887 45.5315V1.46906C0.733887 1.06331 1.06224 0.734497 1.46845 0.734497C1.87465 0.734497 2.203 1.06331 2.203 1.46906V44.7969H45.5317ZM23.405 19.9727L26.8011 30.6355L29.9034 18.9716C29.9898 18.6445 30.2923 18.4177 30.6294 18.4263C30.9664 18.4332 31.2559 18.6705 31.3293 19.001L32.0163 22.0877L33.5503 17.0255C33.654 16.6937 33.9736 16.478 34.315 16.5066C34.6607 16.536 34.9415 16.8025 34.9848 17.1465L35.4644 20.9587L38.6142 15.4692L38.3939 15.5568C38.0223 15.709 37.5902 15.527 37.4391 15.1511C37.2879 14.7752 37.4693 14.347 37.8453 14.1949L40.0316 13.3118C40.2389 13.227 40.4766 13.2435 40.6754 13.3568C40.8698 13.4696 41.0037 13.6666 41.034 13.8908L41.3624 16.2249C41.4185 16.6263 41.1376 16.998 40.7358 17.0541C40.334 17.1098 39.9625 16.8303 39.9063 16.4288L39.876 16.218L35.6503 23.5909C35.4904 23.8648 35.1794 24.0074 34.8682 23.9456C34.5571 23.8838 34.3237 23.6311 34.2849 23.3178L33.9566 20.7474L32.6128 25.1935C32.5135 25.5128 32.2154 25.7276 31.8783 25.7142C31.5456 25.7016 31.2647 25.4657 31.1913 25.14L30.5518 22.2567L27.5748 33.4427C27.4885 33.7577 27.2076 33.9798 26.8835 33.988C26.8749 33.988 26.8706 33.988 26.8619 33.988C26.5465 33.988 26.2613 33.7815 26.162 33.4764L22.4332 21.7586L18.3285 27.1089C18.1557 27.3305 17.8748 27.4365 17.6026 27.3824C17.3261 27.3271 17.1057 27.1206 17.0366 26.8496L14.9324 18.9081L7.29755 27.4118C7.02537 27.7125 6.56299 27.7376 6.26061 27.4667C5.95814 27.1958 5.93657 26.7317 6.20443 26.4301L14.7509 16.9149C14.9324 16.7139 15.2046 16.6284 15.4681 16.6915C15.7317 16.7551 15.939 16.9568 16.0082 17.2178L18.0736 25.0284L22.1221 19.7489C22.2863 19.532 22.5628 19.4254 22.8307 19.4724C23.0983 19.5195 23.3186 19.7122 23.405 19.9727Z" fill="#242222"/>
</g>
<defs>
<clipPath id="clip0_72_2502">
<rect width="47" height="47" fill="white"/>
</clipPath>
</defs>
</svg>
