<svg width="53" height="51" viewBox="0 0 53 51" fill="none" xmlns="http://www.w3.org/2000/svg">
<g clip-path="url(#clip0_72_2473)">
<path d="M45.4754 18.7885L21.49 41.8683C20.4063 42.9115 18.649 42.9115 17.5649 41.8683L3.45076 28.2868C2.36667 27.2436 2.36667 25.5526 3.45076 24.5098L27.4357 1.42955C28.5198 0.386764 30.2771 0.386764 31.3608 1.42955L45.4754 15.0115C46.559 16.0543 46.559 17.7453 45.4754 18.7885Z" fill="#8CBAFA"/>
<path d="M45.4753 15.0115L43.7135 13.3162C44.6787 14.2449 44.5825 15.8434 43.4988 16.8865L19.5135 39.9664C18.4298 41.0096 16.7687 41.1022 15.8035 40.1734L17.5649 41.8683C18.6489 42.9115 20.4063 42.9115 21.49 41.8683L45.4753 18.7885C46.559 17.7453 46.559 16.0543 45.4753 15.0115Z" fill="#5692D8"/>
<path d="M27.0439 6.6902L24.6938 8.95164C23.7694 9.84074 23.7694 11.282 24.6938 12.1711C25.6177 13.0602 27.1155 13.0602 28.0394 12.1711L30.3896 9.90961C31.3135 9.02052 31.3135 7.57929 30.3896 6.6902C29.4656 5.8011 27.9679 5.8011 27.0439 6.6902Z" fill="#FFCD34"/>
<path d="M47.7402 25.6047H13.8202C12.2873 25.6047 11.0447 26.8004 11.0447 28.2751V47.4827C11.0447 48.9577 12.2873 50.1534 13.8202 50.1534H47.7402C49.2728 50.1534 50.5153 48.9577 50.5153 47.4827V28.2751C50.5153 26.8004 49.2728 25.6047 47.7402 25.6047Z" fill="#FFCD34"/>
<path d="M47.7402 25.6047H45.2559C46.7884 25.6047 48.031 26.8004 48.031 28.2751V47.4827C48.031 48.9577 46.7884 50.1534 45.2559 50.1534H47.7402C49.2728 50.1534 50.5154 48.9577 50.5154 47.4827V28.2751C50.5154 26.8004 49.2728 25.6047 47.7402 25.6047Z" fill="#E69012"/>
<path d="M11.0447 31.6385H50.5153V36.2528H11.0447V31.6385Z" fill="#575B7A"/>
<path d="M48.031 31.6385H50.5154V36.2528H48.031V31.6385Z" fill="#252D4C"/>
<path d="M40.8142 43.6259V46.4717C40.8142 46.692 40.9994 46.8702 41.2283 46.8702H45.9326C46.1614 46.8702 46.3466 46.692 46.3466 46.4717V43.6259C46.3466 43.4056 46.1614 43.2274 45.9326 43.2274H41.2283C40.9994 43.2274 40.8142 43.4056 40.8142 43.6259Z" fill="#E9E9EA"/>
<path d="M26.6306 43.6259V46.4717C26.6306 46.692 26.8162 46.8702 27.0447 46.8702H36.9947C37.2236 46.8702 37.4088 46.692 37.4088 46.4717V43.6259C37.4088 43.4056 37.2236 43.2274 36.9947 43.2274H27.0447C26.8162 43.2274 26.6306 43.4056 26.6306 43.6259Z" fill="#E9E9EA"/>
<path d="M3.99991 27.7588C3.22031 27.0086 3.22031 25.788 3.99991 25.0382L23.0246 6.73141C23.3279 6.43959 23.3279 5.96644 23.0246 5.67501C22.7213 5.38279 22.2296 5.38318 21.9268 5.67501L2.90167 23.9818C1.51715 25.314 1.51715 27.4825 2.90167 28.8152L7.69373 33.426C7.84496 33.5715 8.0439 33.6447 8.24244 33.6447C8.44139 33.6447 8.63993 33.5719 8.79156 33.426C9.09483 33.1342 9.09483 32.661 8.79156 32.3696L3.99991 27.7588Z" fill="black"/>
<path d="M19.2621 14.7784L7.51383 26.0833C7.21056 26.3751 7.21056 26.8483 7.51383 27.1401C7.66546 27.2856 7.864 27.3588 8.06295 27.3588C8.26149 27.3588 8.46003 27.286 8.61166 27.1401L20.3599 15.8352C20.6632 15.5434 20.6632 15.0702 20.3599 14.7784C20.057 14.487 19.5653 14.487 19.2621 14.7784Z" fill="black"/>
<path d="M26.3666 13.5839C27.1713 13.5839 27.976 13.2893 28.5886 12.6998L30.9387 10.4384C32.1639 9.25942 32.1639 7.34116 30.9387 6.16218C29.7135 4.98321 27.72 4.98321 26.4948 6.16218L24.1447 8.42363C23.5511 8.99483 23.2244 9.75396 23.2244 10.5617C23.2244 11.3691 23.5511 12.1286 24.1447 12.6998C24.7573 13.2893 25.562 13.5839 26.3666 13.5839ZM25.2425 9.48004L27.5927 7.21859C28.2125 6.6221 29.221 6.6221 29.8405 7.21859C30.4604 7.81508 30.4604 8.7855 29.8405 9.3816L27.4903 11.643C26.8709 12.2395 25.8624 12.2395 25.2425 11.643C24.9425 11.3543 24.7771 10.9703 24.7771 10.5617C24.7771 10.1532 24.9425 9.76875 25.2425 9.48004Z" fill="black"/>
<path d="M47.7398 24.8576H40.2665L46.0245 19.3169C47.4095 17.9842 47.4095 15.8157 46.0245 14.4831L31.91 0.901545C31.2392 0.256028 30.3471 -0.0996094 29.3985 -0.0996094C28.4499 -0.0996094 27.5579 0.256028 26.8866 0.901545L24.1208 3.56299C23.818 3.85481 23.818 4.32757 24.1208 4.61939C24.4241 4.91122 24.9158 4.91122 25.2187 4.61939L27.9849 1.95795C28.3621 1.59453 28.8644 1.39453 29.3985 1.39453C29.9323 1.39453 30.4345 1.59453 30.8122 1.95795L44.9263 15.5395C45.7059 16.2897 45.7059 17.5099 44.9263 18.2601L38.0704 24.8573H18.4505L24.0937 19.427C24.397 19.1355 24.397 18.6624 24.0937 18.3706C23.7905 18.0787 23.2988 18.0787 22.9959 18.3706L16.2548 24.8576H13.8202C11.8615 24.8576 10.2683 26.3907 10.2683 28.2751V47.4826C10.2683 49.3671 11.8615 50.9005 13.8202 50.9005H47.7398C49.6985 50.9005 51.2917 49.3671 51.2917 47.4826V44.7216C51.2917 44.3088 50.9444 43.9745 50.5153 43.9745C50.0867 43.9745 49.739 44.3088 49.739 44.7216V47.4826C49.739 48.5433 48.8425 49.4063 47.7398 49.4063H13.8202C12.7179 49.4063 11.821 48.5433 11.821 47.4826V36.9999H49.739V41.7333C49.739 42.1457 50.0863 42.4804 50.5153 42.4804C50.9444 42.4804 51.2917 42.1457 51.2917 41.7333V28.2755C51.2917 26.3907 49.6985 24.8576 47.7398 24.8576ZM13.8202 26.3518H47.7398C48.8421 26.3518 49.739 27.2148 49.739 28.2755V30.8918H11.821V28.2755C11.821 27.2148 12.7179 26.3518 13.8202 26.3518ZM11.821 35.5058V32.386H49.739V35.5058H11.821Z" fill="black"/>
<path d="M41.2283 42.4803C40.572 42.4803 40.0378 42.9943 40.0378 43.6259V46.4717C40.0378 47.1036 40.572 47.6172 41.2283 47.6172H45.9326C46.5889 47.6172 47.123 47.1036 47.123 46.4717V43.6259C47.123 42.9943 46.5889 42.4803 45.9326 42.4803H41.2283ZM45.5703 46.1231H41.5906V43.9745H45.5703V46.1231Z" fill="black"/>
<path d="M27.0447 42.4803C26.3884 42.4803 25.8542 42.9943 25.8542 43.6259V46.4717C25.8542 47.1036 26.3884 47.6172 27.0447 47.6172H36.9947C37.651 47.6172 38.1852 47.1036 38.1852 46.4717V43.6259C38.1852 42.9943 37.651 42.4803 36.9947 42.4803H27.0447ZM36.6324 46.1231H27.407V43.9745H36.6324V46.1231Z" fill="black"/>
<path d="M17.6174 46.1231C17.1888 46.1231 16.8411 46.4577 16.8411 46.8702C16.8411 47.283 17.1888 47.6173 17.6174 47.6173H22.5749C23.0035 47.6173 23.3512 47.283 23.3512 46.8702C23.3512 46.4577 23.0035 46.1231 22.5749 46.1231H17.6174Z" fill="black"/>
</g>
<defs>
<clipPath id="clip0_72_2473">
<rect width="53" height="51" fill="white"/>
</clipPath>
</defs>
</svg>
