<svg width="48" height="48" viewBox="0 0 48 48" fill="none" xmlns="http://www.w3.org/2000/svg">
<path fill-rule="evenodd" clip-rule="evenodd" d="M25.0097 33.6648C28.2512 35.6185 31.4361 36.5625 32.9311 36.1772C36.68 35.2108 37.0247 21.4964 34.124 16.0897C31.2233 10.683 16.3114 8.32646 15.5597 19.0388C15.2989 22.7567 16.86 26.0747 19.1666 28.7821L15.0308 48.0589H27.0443L25.0097 33.6648Z" fill="#F1BEBB"/>
<path fill-rule="evenodd" clip-rule="evenodd" d="M39.4461 8.59434C39.1973 7.71989 38.5282 6.97117 37.6264 6.74905C37.4077 6.69517 37.1819 6.6734 36.9569 6.68248C36.8761 6.6857 36.8535 6.70897 36.8158 6.65253C36.7878 6.61068 36.7872 6.50845 36.7757 6.45927C36.7398 6.30634 36.695 6.15532 36.6397 6.00822C36.451 5.50647 36.1339 5.06242 35.7517 4.68836C35.0367 3.98856 34.0706 3.50559 33.067 3.41821C32.5176 3.37041 31.9723 3.45966 31.453 3.63836C31.1841 3.73087 30.9234 3.84605 30.6694 3.9734C30.593 4.01173 30.3449 4.19947 30.2682 4.18731C30.1835 4.1739 30.0132 3.96331 29.9443 3.91045C29.0926 3.25703 28.0409 3.00013 26.9801 3.00799C25.7827 3.01683 24.6298 3.07666 23.6312 3.80657C23.4198 3.96111 23.2185 4.13031 23.0268 4.30845C22.9258 4.40223 22.8281 4.49954 22.7348 4.60089C22.6785 4.66203 22.6238 4.72455 22.571 4.78876C22.4815 4.89773 22.4959 4.93353 22.3706 4.85749C21.89 4.56551 21.3331 4.42896 20.7722 4.49789C20.4391 4.53885 20.115 4.63885 19.8073 4.77048C19.7025 4.81528 19.46 4.99402 19.3484 4.99576C19.2376 4.99747 18.9985 4.83179 18.8844 4.78968C18.2681 4.56216 17.6038 4.50608 16.956 4.61121C16.2877 4.71969 15.6313 4.98629 15.0652 5.3547C14.7929 5.53192 14.5553 5.72827 14.3645 5.99178C14.2821 6.10555 14.2076 6.2259 14.1142 6.33139C14.0595 6.39316 13.9512 6.45654 13.9219 6.53471C13.9395 6.4879 13.1911 6.19941 13.1205 6.18097C12.7443 6.08271 12.3612 6.10263 11.9928 6.22386C11.3001 6.45184 10.7043 6.96308 10.2147 7.48724C9.9632 7.75647 9.74313 8.05407 9.55633 8.37114C9.4668 8.52301 9.38493 8.67922 9.31003 8.83876C9.27373 8.91604 9.24967 9.01272 9.20186 9.08235C9.14022 9.17206 9.0988 9.17377 8.98717 9.21288C8.42022 9.4115 7.9034 9.7477 7.50982 10.202C7.11173 10.6616 6.85341 11.2275 6.74511 11.8236C6.73874 11.8587 6.73495 12.0042 6.71439 12.0232C6.68621 12.0493 6.5722 12.0378 6.52907 12.0428C6.37972 12.0604 6.23142 12.0864 6.08511 12.1211C5.81538 12.1849 5.55284 12.2789 5.30449 12.4017C4.33638 12.8807 3.64407 13.7787 3.30524 14.7892C2.94972 15.8496 2.95602 17.0645 3.38094 18.1051C3.44958 18.2732 3.53125 18.4364 3.62718 18.5907C3.68608 18.6854 3.70509 18.6857 3.66684 18.7851C3.62421 18.8957 3.54633 19.0031 3.49571 19.1112C3.33055 19.4638 3.21509 19.8378 3.14216 20.2198C3.02251 20.8464 2.96321 21.5049 3.08125 22.1362C3.13606 22.4294 3.23156 22.716 3.37725 22.9771C3.45153 23.1102 3.53844 23.2365 3.63658 23.3533C3.68753 23.4139 3.74165 23.4719 3.79824 23.5273C3.83061 23.559 3.87305 23.5868 3.90057 23.6222C3.96776 23.7085 3.98188 23.6375 3.94723 23.7643C3.89879 23.9415 3.78897 24.1164 3.72172 24.2888C3.65242 24.4665 3.58979 24.6467 3.5325 24.8286C3.41648 25.197 3.31838 25.572 3.25703 25.9535C3.13923 26.686 3.15992 27.4664 3.50637 28.1386C3.6545 28.4262 3.86701 28.6784 4.12476 28.8746C4.25092 28.9706 4.38756 29.0534 4.53091 29.1213C4.60456 29.1563 4.69861 29.1713 4.7322 29.2425C4.76837 29.3191 4.71468 29.4712 4.70244 29.5568C4.59592 30.3018 4.54249 31.084 4.76394 31.814C4.96791 32.4865 5.41699 33.0801 6.00004 33.4732C7.13113 34.2357 8.6558 34.1927 9.84427 33.5823C10.1541 33.4231 10.4439 33.2256 10.7024 32.9925C11.3608 33.8788 12.7155 33.8508 13.6778 33.5982C14.8765 33.2836 15.8384 32.4501 16.3926 31.3549C17.1505 32.2774 18.7409 31.9781 19.2664 30.9773C19.395 30.7323 19.4713 30.4624 19.5088 30.1892C19.5286 30.0456 19.516 29.9007 19.5308 29.7581C19.5498 29.5766 19.6711 29.4001 19.7408 29.2244C19.8766 28.8825 19.9609 28.5294 19.9645 28.1606C19.9664 27.9681 19.942 27.7804 19.9237 27.5894C19.9073 27.4175 19.9549 27.2573 19.982 27.0876C19.6746 27.1383 19.3 27.0554 19.0104 26.9662C18.7261 26.8787 18.4599 26.6483 18.2592 26.4379C17.7934 25.9493 17.5088 25.3087 17.3142 24.6712C16.887 23.272 17.0621 21.5933 18.4694 20.8254C19.1251 20.4677 21.0892 20.4688 21.8701 20.6456C22.6911 20.8315 23.6219 22.6432 23.6677 22.8135C23.6961 22.9189 23.6818 23.0493 23.7786 23.1195C23.9914 23.2739 24.3423 23.006 24.4992 22.8737C24.7701 22.6455 24.9632 22.3418 25.1305 22.034C25.4951 21.3634 25.789 20.6442 25.9965 19.9101C26.1566 19.344 26.2589 18.7604 26.4681 18.2088C26.6763 17.66 27.0044 17.1694 27.5146 16.8585C28.0696 16.5202 28.7058 16.3421 29.315 16.1296C29.919 15.9189 30.5125 15.6614 30.9807 15.2145C31.0836 15.1162 31.1836 15.0117 31.2664 14.896C31.3318 14.8047 31.3965 14.6298 31.4961 14.5719C31.6511 14.4818 31.8772 14.7161 32.0111 14.8011C32.6721 15.2209 33.2235 15.8064 33.6683 16.446C34.1106 17.0821 34.4735 17.6941 34.7684 18.4044C34.9871 18.9312 35.1237 19.6059 35.5084 20.0376C35.6801 20.2304 36.9569 20.347 37.3704 20.1787C37.7839 20.0104 38.2474 19.5734 38.3862 19.2995C38.5283 19.0192 38.5622 18.7113 38.5015 18.4044C38.4658 18.2239 38.3929 18.0553 38.353 17.8779C38.3194 17.729 38.2889 17.5882 38.2164 17.4517C38.079 17.1932 37.8443 17.0073 37.5612 16.9296C37.8558 16.658 38.0999 16.333 38.2688 15.9698C38.4443 15.5924 38.5931 15.1334 38.6353 14.7192C38.6696 14.3828 38.6167 14.0343 38.4325 13.7451C38.2393 13.4418 37.897 13.244 37.6009 13.0548C38.0532 12.7009 38.4404 12.2705 38.7586 11.794C39.3776 10.8673 39.7605 9.69914 39.4461 8.59434Z" fill="#35374E"/>
</svg>
