<svg width="48" height="48" viewBox="0 0 48 48" fill="none" xmlns="http://www.w3.org/2000/svg">
<path fill-rule="evenodd" clip-rule="evenodd" d="M25.0097 33.6648C28.2512 35.6185 31.4361 36.5625 32.9311 36.1772C36.68 35.2108 37.0247 21.4964 34.124 16.0897C31.2233 10.683 16.3114 8.32646 15.5597 19.0388C15.2989 22.7567 16.86 26.0747 19.1666 28.7821L15.0308 48.0589H27.0443L25.0097 33.6648Z" fill="#F1BEBB"/>
<path fill-rule="evenodd" clip-rule="evenodd" d="M35.2582 18.5169C35.1392 17.8161 34.8484 17.0379 34.6137 16.3748C34.3111 15.5201 33.8533 14.7494 33.3494 14.0231C32.4009 12.6557 31.2629 11.4209 30.0065 10.396C27.7115 8.52395 24.7901 7.44416 21.9173 7.79482C20.4668 7.97186 19.0587 8.52515 17.8602 9.44607C16.7774 10.2781 15.7359 11.503 14.3338 11.591C12.8082 11.6867 11.4098 10.3401 10.1863 9.50849C8.80676 8.57094 7.33919 7.88778 5.72687 7.62222C3.02585 7.1775 0.488449 8.09006 -1.37304 10.3061C-3.35393 12.6643 -4.79388 16.1226 -3.49302 19.2472C-3.25122 19.828 -2.94014 20.3177 -2.4937 20.7235C-2.08425 21.0957 -1.45892 21.4916 -1.29291 22.0863C-1.11658 22.7184 -1.64332 23.5338 -1.84757 24.1041C-2.14019 24.9213 -2.38044 25.779 -2.29503 26.6672C-2.15469 28.1258 -1.23806 29.5182 -0.270159 30.4769C0.714813 31.4525 1.92708 32.0119 3.22189 32.2698C4.08646 32.4419 4.97004 32.5369 5.84874 32.4723C6.28494 32.4402 6.66987 32.3191 7.0925 32.2227C7.50349 32.129 7.73319 32.2381 8.08189 32.4635C9.70174 33.5107 11.4435 33.9159 13.3139 33.7602C14.8924 33.6287 16.7119 33.2461 17.9996 32.1645C19.4297 30.9633 19.4013 29.3069 19.0648 27.5371C19.4213 27.7138 20.4077 27.8232 19.8182 27.1189C19.5847 26.8399 19.1436 26.7264 18.844 26.5624C18.4951 26.3713 18.1409 26.1245 17.87 25.8128C16.7762 24.5546 17.881 21.9941 19.2557 21.5721C21.2983 20.9452 21.7556 23.8339 23.2137 24.5811C24.0521 25.0107 24.929 24.4235 25.5572 23.8239C26.3986 23.0207 26.972 21.9566 27.4671 20.8737C27.8749 19.9819 28.2544 19.0777 28.67 18.1903C28.8641 17.776 29.5361 16.6046 29.1986 16.1361C30.6616 15.8443 32.2911 16.4523 33.5511 17.2495C34.0718 17.5791 34.4688 17.9425 34.7466 18.5244C34.8061 18.649 34.9357 19.0197 35.0984 19.0348C35.4012 19.0632 35.288 18.693 35.2582 18.5169Z" fill="#35374E"/>
</svg>
