<svg width="48" height="48" viewBox="0 0 48 48" fill="none" xmlns="http://www.w3.org/2000/svg">
<path fill-rule="evenodd" clip-rule="evenodd" d="M25.0097 33.6648C28.2512 35.6185 31.4361 36.5625 32.9311 36.1772C36.68 35.2108 37.0247 21.4964 34.124 16.0897C31.2233 10.683 16.3114 8.32646 15.5597 19.0388C15.2989 22.7567 16.86 26.0747 19.1666 28.7821L15.0308 48.0589H27.0443L25.0097 33.6648Z" fill="#F1BEBB"/>
<path fill-rule="evenodd" clip-rule="evenodd" d="M29.3782 10.2007C27.7367 9.70016 25.3537 9.5304 24.3512 9.64524C24.9215 8.27899 25.1477 6.75682 24.9633 5.27471C24.784 3.83458 24.1405 2.60834 23.5453 1.3234C23.271 0.73112 22.9601 0.142072 22.4966 -0.310952C22.0244 -0.77249 21.4267 -1.07714 20.7999 -1.22249C20.1585 -1.37126 19.4878 -1.35887 18.8454 -1.22386C18.5612 -1.16414 18.3063 -1.03421 18.0276 -0.96198C17.7422 -0.887975 17.6037 -1.06661 17.3965 -1.24613C16.8973 -1.6787 16.1654 -1.89224 15.5338 -1.96866C14.8252 -2.05437 14.0899 -1.94748 13.4141 -1.71453C12.7563 -1.48776 12.1244 -1.11951 11.6488 -0.583041C11.437 -0.344242 11.2448 -0.0724356 11.1199 0.227657C11.0687 0.350809 11.0602 0.423764 10.9373 0.468877C10.8237 0.51064 10.6907 0.511851 10.5734 0.551597C9.43922 0.935741 8.46949 1.81209 7.94148 2.93729C7.63343 3.59372 7.4875 4.74947 7.52747 6.04488C7.56744 7.34028 8.73712 10.7204 9.83112 11.9533C10.8076 13.0537 12.243 13.7799 13.6282 14.0978C12.7088 15.1488 12.0967 16.462 11.6441 17.7977C11.1525 19.2485 10.8483 20.756 10.7359 22.2919C10.6292 23.7513 10.6193 25.2946 10.9614 26.7228C11.2815 28.0583 11.9659 29.154 13.1085 29.8491C13.6319 30.1675 14.195 30.4067 14.7613 30.6253C15.3195 30.8408 15.8794 31.0502 16.4641 31.1711C17.5706 31.3998 18.8457 31.3606 19.698 30.4798C20.0053 30.1623 20.3431 29.7633 20.5673 29.3754C20.6478 29.2359 20.6964 29.1446 20.5985 29.0083C20.4812 28.845 20.2915 28.7199 20.1408 28.5921C19.2816 27.8637 18.7497 26.8913 18.6156 25.7358C18.4796 24.5633 18.7945 23.0499 19.9345 22.5382C21.3416 21.9065 22.8913 22.6316 24.142 23.3074C24.6735 21.4314 25.7649 19.7423 27.476 18.8817C29.3691 17.9297 31.5413 17.8183 33.4867 17.0015C33.9937 16.7886 34.51 16.547 34.8832 16.1133C35.0392 15.9321 35.2222 15.6969 35.2844 15.4572C35.3663 15.1423 35.1632 14.8783 35.0063 14.6328C34.1744 13.3311 31.0198 10.7013 29.3782 10.2007Z" fill="#35374E"/>
</svg>
