<svg width="16" height="16" viewBox="0 0 16 16" fill="none" xmlns="http://www.w3.org/2000/svg">
<g id="Frame">
<path id="Vector" d="M8.00034 3.01902C9.56634 1.61333 11.9863 1.66 13.4947 3.17157C15.0032 4.68315 15.055 7.09133 13.6521 8.662L7.99961 14.3233L2.34726 8.662C0.944373 7.09133 0.996813 4.67934 2.50458 3.17157C4.01405 1.6621 6.4298 1.61125 8.00034 3.01902ZM12.551 4.1134C11.5516 3.11196 9.93807 3.07134 8.89101 4.01125L8.00094 4.81016L7.11041 4.01187C6.06033 3.07065 4.44971 3.11205 3.44739 4.11438C2.45423 5.10754 2.40437 6.6982 3.31963 7.7488L7.99961 12.4362L12.6797 7.7488C13.5953 6.6978 13.5457 5.11017 12.551 4.1134Z" fill="#F30FAC"/>
</g>
</svg>
