<svg width="174" height="40" viewBox="0 0 174 40" fill="none" xmlns="http://www.w3.org/2000/svg">
<mask id="mask0_127_3319" style="mask-type:luminance" maskUnits="userSpaceOnUse" x="0" y="0" width="174" height="40">
<path d="M173.667 0.638672H0.333313V39.6387H173.667V0.638672Z" fill="white"/>
</mask>
<g mask="url(#mask0_127_3319)">
<path d="M173.667 0.638672H0.333313V39.6387H173.667V0.638672Z" fill="#004B9B"/>
<path d="M15.1713 24.3665H18.752L18.739 10.4317H23.8318L23.8411 24.3665H27.4219L27.4078 10.4595H32.5016L32.5156 28.1363L10.0869 28.1501L10.0459 10.4326H15.1397L15.1713 24.3665Z" fill="white"/>
<path d="M33.8792 16.3672H41.0407C43.9828 16.3672 45.9675 17.2095 45.9675 19.3644C45.9675 20.883 44.8021 21.7122 43.6779 21.8774C44.8712 22.1676 46.3982 22.7753 46.4122 24.7641C46.4122 27.1667 44.2056 28.1035 41.5124 28.1035H33.9099L33.8792 16.3672ZM38.4034 20.9794H40.1662C41.2075 20.9794 41.5823 20.7308 41.5823 20.0824C41.5823 19.2948 41.1795 19.0462 40.1662 19.0462H38.4034V20.9794ZM38.4034 25.4124H40.1662C41.2905 25.4124 41.915 25.3021 41.915 24.419C41.915 23.5359 41.3045 23.3411 40.1662 23.3411H38.4034V25.4124Z" fill="white"/>
<path d="M51.95 22.7883L55.947 16.3526H60.652L60.665 28.0916H56.169V21.8905L52.143 28.0916H47.4664L47.4524 16.3526H51.95V22.7883Z" fill="white"/>
<path d="M81.859 19.9141L84.857 16.3233H90.325L85.967 20.8807L90.908 28.0623H85.276L82.751 23.888L81.876 24.7581V28.0447H77.185L77.171 16.3057H81.862L81.859 19.9141Z" fill="white"/>
<path d="M95.917 15.9951C100.082 15.9951 102.649 18.4255 102.649 22.0851C102.649 26.3808 99.721 28.4105 95.945 28.4105C92.17 28.4105 89.228 26.353 89.228 22.3476C89.242 18.2605 91.921 15.9951 95.917 15.9951ZM93.933 22.0851C93.933 24.2956 94.766 25.2621 95.959 25.2621C97.223 25.2621 97.986 24.2956 97.986 22.0851C97.986 20.3597 97.195 19.1296 96.001 19.1296C94.377 19.1296 93.92 20.7595 93.933 22.0851Z" fill="white"/>
<path d="M114.821 10.4043V14.4784H108.783L108.797 28.0402H103.483L103.469 10.4154L114.821 10.4043Z" fill="#5BC4F1"/>
<path d="M131.018 15.9678C135.181 15.9678 137.749 18.3982 137.749 22.0586C137.749 26.3534 134.82 28.3831 131.045 28.3831C127.269 28.3831 124.342 26.3256 124.328 22.3211C124.328 18.233 127.035 15.9678 131.018 15.9678ZM129.033 22.0586C129.033 24.2681 129.866 25.2348 131.059 25.2348C132.322 25.2348 133.086 24.2681 133.086 22.0586C133.086 20.3322 132.295 19.1032 131.101 19.1032C129.491 19.1032 129.033 20.7496 129.033 22.0586Z" fill="#5BC4F1"/>
<path d="M143.092 24.626H146.048V16.2959H150.546V24.6232H153.488V16.2959H157.998L158.011 28.0341L138.609 28.048L138.596 16.309H143.092V24.626Z" fill="#5BC4F1"/>
<path d="M115.306 29.9341V26.8952C116.097 27.8757 117.042 28.4008 118.332 28.4008C120.969 28.4008 123.842 26.7162 123.842 22.1031C123.842 18.8722 122.134 15.9854 118.567 15.9854C117.222 15.9854 115.529 16.6348 114.876 18.0707H114.834V16.3167H110.632L110.646 29.9202L115.306 29.9341ZM117.096 19.3824C118.332 19.3824 119.147 20.2942 119.147 22.1587C119.147 23.7747 118.356 24.8238 117.121 24.8238C115.885 24.8238 115.205 23.705 115.205 22.0762C115.201 20.5122 115.972 19.3796 117.096 19.3796V19.3824Z" fill="#5BC4F1"/>
<path d="M65.676 29.9574V28.0771H72.087V29.9416H76.363V25.387H75.058V16.3408L63.719 16.3548V19.7656C63.719 22.1552 63.427 23.9093 62.512 25.4139H61.4V29.9713L65.676 29.9574ZM67.993 20.1107V19.0327H70.381V25.4H66.897C67.771 24.1431 67.993 22.016 67.993 20.1107Z" fill="white"/>
<path d="M163.813 28.0244H159.135L159.122 16.2862H163.799L163.813 28.0244Z" fill="#5BC4F1"/>
<path d="M163.897 12.6936C163.897 13.1689 163.756 13.6336 163.49 14.0288C163.224 14.4242 162.847 14.7321 162.406 14.9141C161.964 15.096 161.479 15.1435 161.01 15.0508C160.541 14.9581 160.111 14.7292 159.773 14.3931C159.436 14.0569 159.206 13.6287 159.112 13.1625C159.019 12.6962 159.067 12.213 159.25 11.7738C159.432 11.3346 159.742 10.9592 160.14 10.6951C160.537 10.431 161.003 10.2901 161.481 10.2901C162.122 10.2906 162.736 10.5439 163.189 10.9946C163.641 11.4452 163.897 12.0563 163.897 12.6936Z" fill="#5BC4F1"/>
</g>
</svg>
