<svg width="168" height="27" viewBox="0 0 168 27" fill="none" xmlns="http://www.w3.org/2000/svg">
<path d="M30.081 3.32675H4.33365C1.94025 3.32675 0 5.29344 0 7.71941V20.8974C0 23.3234 1.94025 25.2901 4.33365 25.2901H30.081C32.4744 25.2901 34.4145 23.3234 34.4145 20.8974V7.71941C34.4145 5.29344 32.4744 3.32675 30.081 3.32675Z" fill="url(#paint0_linear_127_2959)"/>
<path fill-rule="evenodd" clip-rule="evenodd" d="M130.69 14.0638C130.69 9.72295 126.408 6.25861 120.313 6.25861C114.219 6.25861 109.937 9.67866 109.937 14.0763C109.937 18.4742 114.238 21.8784 120.313 21.8784C126.39 21.8784 130.69 18.4046 130.69 14.0638ZM127.32 14.0638C127.32 12.2224 125.345 9.15032 120.317 9.15032C115.289 9.15032 113.307 12.1876 113.307 14.0763C113.307 15.9652 115.276 18.9929 120.317 18.9929C125.357 18.9929 127.32 15.905 127.32 14.0638ZM98.197 6.26495C95.8703 6.26495 93.0029 7.16972 91.0781 9.15984V6.79647H87.7128V26.5102H91.0781V19.1607L91.056 18.9708C92.6698 20.8502 95.6319 21.8848 98.197 21.8848C104.272 21.8848 108.261 18.4046 108.261 14.0701C108.261 9.73564 104.288 6.26495 98.197 6.26495ZM97.8836 18.9708C92.8701 18.9708 90.8827 15.9683 90.8827 14.0827C90.8827 12.197 92.8357 9.15984 97.8922 9.15984C102.949 9.15984 104.896 12.2002 104.896 14.0511C104.896 15.9018 102.886 18.9708 97.8737 18.9708H97.8836ZM156.761 15.0983C156.131 17.0694 154.041 18.9835 151.82 18.9835C149.305 18.9835 148.016 17.6262 148.016 14.9466V6.79647H144.679L144.707 14.9939C143.798 17.1295 141.933 18.9929 139.71 18.9929C137.194 18.9929 135.902 17.6357 135.902 14.956V6.79647H132.588V15.1236C132.588 19.398 134.855 21.8499 138.81 21.8499C141.64 21.8499 144.047 20.4673 145.213 18.2084C145.873 19.958 147.415 21.8499 150.921 21.8499C153.383 21.8499 155.522 20.809 156.761 19.031V21.3312H160.116V6.79647H156.751L156.761 15.0983ZM163.103 6.79647H166.443V21.3501H163.103V6.79647ZM164.739 0.886383C163.32 0.886383 162.292 1.79444 162.292 3.04415C162.292 4.29387 163.368 5.20498 164.739 5.20498C166.11 5.20498 167.156 4.27483 167.156 3.04415C167.156 1.81335 166.147 0.886383 164.739 0.886383ZM77.4868 15.3103C80.2535 15.1236 85.3173 14.1714 85.3173 10.6183C85.3173 7.56518 82.2545 5.75553 77.7695 5.75553C73.0842 5.75553 68.9643 7.44182 64.1057 12.6496C59.4831 17.6072 57.106 19.0183 53.4151 19.0183C48.8637 19.0183 47.0656 17.0409 46.4179 15.44H56.537V12.6653H46.4744C47.2672 11.0043 49.0874 9.1851 53.892 9.1851C58.7948 9.1851 60.6446 11.8901 60.6446 11.8901V8.09364C58.5637 6.97095 56.2518 6.35036 53.892 6.28069C47.524 6.28069 43.0182 9.4445 43.0182 14.127C43.0182 18.8095 47.7514 21.8816 53.4298 21.8816C58.5527 21.8816 61.72 19.3504 66.1792 14.6048C70.4613 10.0646 73.6435 8.47641 77.7572 8.47641C80.2732 8.47641 82.1156 9.05856 82.1156 10.4127C82.1156 11.7668 79.7324 12.2857 76.9362 12.4756C71.5528 12.8425 68.8918 14.3738 68.8918 17.0283C68.8918 19.9991 71.9903 21.8848 76.6756 21.8848C80.1625 21.8848 83.411 20.9356 85.3075 19.4612V16.1013C82.9747 18.1126 79.9856 19.1873 76.9141 19.1195C74.7128 19.1195 72.2546 18.6987 72.2546 17.2877C72.2755 15.9526 74.0183 15.554 77.4868 15.3103Z" fill="black"/>
<defs>
<linearGradient id="paint0_linear_127_2959" x1="4.45447" y1="27.235" x2="30.3053" y2="1.73177" gradientUnits="userSpaceOnUse">
<stop stop-color="#97CA3E"/>
<stop offset="1" stop-color="#FFFF22"/>
</linearGradient>
</defs>
</svg>
