<svg width="35" height="12" viewBox="0 0 35 12" fill="none" xmlns="http://www.w3.org/2000/svg">
<path fill-rule="evenodd" clip-rule="evenodd" d="M9.41979 11.1058H6.47172L4.26104 2.54222C4.15611 2.1483 3.93331 1.80005 3.60559 1.63591C2.78772 1.22343 1.88649 0.895163 0.90332 0.729601V0.399904H5.65242C6.30786 0.399904 6.79945 0.895163 6.88138 1.47035L8.0284 7.64753L10.975 0.399904H13.8412L9.41979 11.1058ZM15.4793 11.1058H12.6951L14.9877 0.399904H17.7719L15.4793 11.1058ZM21.3752 3.36413C21.4571 2.78752 21.9487 2.45782 22.5222 2.45782C23.4235 2.37504 24.4052 2.5406 25.2245 2.95165L25.7161 0.646627C24.8968 0.316929 23.9955 0.151367 23.1777 0.151367C20.4754 0.151367 18.5091 1.63429 18.5091 3.6924C18.5091 5.2581 19.9019 6.08021 20.8851 6.57547C21.9487 7.0693 22.3584 7.399 22.2764 7.89283C22.2764 8.63358 21.4571 8.96327 20.6393 8.96327C19.6561 8.96327 18.6729 8.71636 17.7731 8.30388L17.2815 10.6103C18.2647 11.0214 19.3284 11.1869 20.3115 11.1869C23.3415 11.2683 25.2245 9.7868 25.2245 7.56313C25.2245 4.76285 21.3752 4.59871 21.3752 3.36413ZM34.9667 11.1058L32.7561 0.399904H30.3815C29.8899 0.399904 29.3983 0.729601 29.2345 1.22343L25.1408 11.1058H28.007L28.579 9.54151H32.1006L32.4283 11.1058H34.9667ZM30.7915 3.28181L31.6094 7.31668H29.3168L30.7915 3.28181Z" fill="white"/>
</svg>
