<svg width="28" height="18" viewBox="0 0 28 18" fill="none" xmlns="http://www.w3.org/2000/svg">
<path d="M17.7423 2.40379H10.2582V15.6691H17.7423V2.40379Z" fill="#FF5F00"/>
<path d="M10.7335 9.03647C10.7323 7.75892 11.0258 6.49785 11.5918 5.34873C12.1578 4.1996 12.9814 3.19255 14.0003 2.4038C12.7385 1.42556 11.2232 0.817212 9.62741 0.64828C8.03167 0.479348 6.41993 0.756645 4.97642 1.44849C3.5329 2.14033 2.31585 3.2188 1.46438 4.56063C0.612912 5.90245 0.161377 7.45349 0.161377 9.03647C0.161377 10.6194 0.612912 12.1705 1.46438 13.5123C2.31585 14.8541 3.5329 15.9326 4.97642 16.6245C6.41993 17.3163 8.03167 17.5936 9.62741 17.4247C11.2232 17.2557 12.7385 16.6474 14.0003 15.6691C12.9814 14.8804 12.1578 13.8733 11.5918 12.7242C11.0258 11.5751 10.7323 10.314 10.7335 9.03647Z" fill="#EB001B"/>
<path d="M27.8388 9.03647C27.8389 10.6194 27.3874 12.1705 26.5359 13.5123C25.6845 14.8541 24.4675 15.9326 23.024 16.6244C21.5805 17.3163 19.9688 17.5936 18.3731 17.4247C16.7774 17.2557 15.262 16.6474 14.0003 15.6691C15.0183 14.8796 15.8413 13.8724 16.4072 12.7234C16.9731 11.5745 17.2671 10.3138 17.2671 9.03647C17.2671 7.75912 16.9731 6.49845 16.4072 5.3495C15.8413 4.20056 15.0183 3.19335 14.0003 2.4038C15.262 1.42556 16.7774 0.817208 18.3731 0.648278C19.9688 0.479348 21.5805 0.756657 23.024 1.44851C24.4675 2.14036 25.6845 3.21883 26.5359 4.56065C27.3874 5.90248 27.8389 7.45351 27.8388 9.03647Z" fill="#F79E1B"/>
<path d="M27.0228 14.2641V13.9926H27.1338V13.9372H26.851V13.9926H26.9621V14.2641H27.0228ZM27.5717 14.2641V13.9367H27.4851L27.3854 14.1619L27.2856 13.9367H27.1989V14.2641H27.2601V14.0171L27.3536 14.2301H27.4171L27.5106 14.0166V14.2641H27.5717Z" fill="#F79E1B"/>
</svg>
