<svg width="38" height="18" viewBox="0 0 38 18" fill="none" xmlns="http://www.w3.org/2000/svg">
<path fill-rule="evenodd" clip-rule="evenodd" d="M7.16843 2.87726C6.73139 3.43459 6.03212 3.87417 5.33284 3.81138C5.24544 3.05781 5.58779 2.25714 5.98841 1.76261C6.42546 1.18958 7.19029 0.781399 7.80943 0.75C7.88227 1.53497 7.5982 2.30424 7.16843 2.87726ZM7.80208 3.96048C7.18604 3.92227 6.62392 4.16013 6.16988 4.35226C5.8777 4.4759 5.63028 4.5806 5.44204 4.5806C5.2308 4.5806 4.97316 4.4703 4.68389 4.34646C4.30485 4.18419 3.8715 3.99867 3.41706 4.00757C2.37544 4.02327 1.40666 4.6591 0.874918 5.67171C-0.217695 7.69692 0.590839 10.6955 1.64703 12.3439C2.1642 13.1603 2.78335 14.0552 3.59917 14.0238C3.95808 14.0092 4.21625 13.8911 4.48345 13.7689C4.79106 13.6283 5.11061 13.4821 5.60957 13.4821C6.09124 13.4821 6.39681 13.6244 6.69015 13.7611C6.96907 13.891 7.23692 14.0157 7.63455 14.0081C8.4795 13.9924 9.01124 13.1917 9.52841 12.3753C10.0865 11.4991 10.3318 10.644 10.369 10.5143L10.3734 10.4993C10.3725 10.4983 10.3656 10.4949 10.3534 10.4889C10.1668 10.3968 8.74084 9.69333 8.72716 7.80682C8.71343 6.22336 9.85823 5.42109 10.0384 5.29479C10.0494 5.28711 10.0568 5.28192 10.0601 5.27922C9.33174 4.11747 8.19542 3.99188 7.80208 3.96048ZM13.6513 13.9217V1.68408H17.9125C20.1122 1.68408 21.6492 3.31682 21.6492 5.70312C21.6492 8.08942 20.0831 9.73785 17.8542 9.73785H15.414V13.9217H13.6513ZM15.4138 3.2855H17.4461C18.9758 3.2855 19.8498 4.16466 19.8498 5.71105C19.8498 7.25744 18.9758 8.14445 17.4388 8.14445H15.4138V3.2855ZM27.4693 12.4538C27.0031 13.4115 25.976 14.0159 24.8688 14.0159C23.2299 14.0159 22.0863 12.964 22.0863 11.3784C22.0863 9.80847 23.1935 8.90575 25.2403 8.77231L27.4401 8.63102V7.95594C27.4401 6.95903 26.8355 6.41741 25.7575 6.41741C24.8688 6.41741 24.2205 6.91194 24.0894 7.66551H22.5015C22.5525 6.07987 23.9365 4.92597 25.8085 4.92597C27.8262 4.92597 29.1373 6.06417 29.1373 7.83035V13.9217H27.5057V12.4538H27.4693ZM25.3422 12.5638C24.4026 12.5638 23.8053 12.0771 23.8053 11.3314C23.8053 10.5621 24.3807 10.1147 25.4806 10.044L27.44 9.9106V10.6014C27.44 11.7474 26.5368 12.5638 25.3422 12.5638ZM34.5493 14.4006C33.8428 16.5435 33.0342 17.25 31.3152 17.25C31.1841 17.25 30.747 17.2343 30.645 17.2029V15.735C30.7543 15.7507 31.0238 15.7664 31.1622 15.7664C31.9416 15.7664 32.3787 15.4132 32.6482 14.4948L32.8084 13.9531L29.8219 5.04376H31.6648L33.7408 12.2733H33.7772L35.8532 5.04376H37.6451L34.5493 14.4006Z" fill="white"/>
</svg>
