<svg width="42" height="18" viewBox="0 0 42 18" fill="none" xmlns="http://www.w3.org/2000/svg">
<path fill-rule="evenodd" clip-rule="evenodd" d="M19.4306 13.7413V8.81106H21.9535C22.9873 8.81106 23.8598 8.46167 24.5712 7.7726L24.7419 7.59791C26.0412 6.17125 25.9559 3.94875 24.5712 2.62884C23.8788 1.93007 22.9304 1.55156 21.9535 1.57098H17.9037V13.7413H19.4306ZM19.4308 7.31635V3.06547H21.992C22.5422 3.06547 23.0639 3.27898 23.4529 3.66719C24.2781 4.48243 24.2971 5.84116 23.5003 6.68551C23.1114 7.10284 22.5612 7.33576 21.992 7.31635H19.4308Z" fill="white"/>
<path fill-rule="evenodd" clip-rule="evenodd" d="M31.8647 6.06441C31.2103 5.45298 30.3187 5.14242 29.1901 5.14242C27.739 5.14242 26.6483 5.68591 25.9275 6.76319L27.2743 7.62695C27.7674 6.88936 28.4408 6.52056 29.2944 6.52056C29.835 6.52056 30.3567 6.72437 30.7645 7.09317C31.1628 7.44255 31.3905 7.94722 31.3905 8.48101V8.8401C30.8024 8.51013 30.0627 8.33543 29.1522 8.33543C28.0899 8.33543 27.2363 8.58777 26.6009 9.10214C25.9654 9.61652 25.6429 10.2959 25.6429 11.1596C25.624 11.9458 25.9559 12.6931 26.544 13.1977C27.1415 13.7412 27.9002 14.013 28.7918 14.013C29.8445 14.013 30.6791 13.5374 31.3146 12.5863H31.381V13.7412H32.8416V8.60718C32.8416 7.5299 32.5191 6.67584 31.8647 6.06441ZM27.7203 12.2079C27.4072 11.9749 27.2175 11.5964 27.2175 11.1888C27.2175 10.7327 27.4262 10.3542 27.8341 10.0533C28.2515 9.75243 28.7732 9.59715 29.3898 9.59715C30.2435 9.58744 30.9075 9.78155 31.3818 10.1698C31.3818 10.8297 31.1257 11.4023 30.623 11.8876C30.1676 12.3534 29.5511 12.6155 28.906 12.6155C28.4792 12.6252 28.0618 12.4796 27.7203 12.2079Z" fill="white"/>
<path d="M36.1232 17.4001L41.2258 5.41415H39.566L37.2044 11.3926H37.176L34.7575 5.41415H33.0977L36.4457 13.2074L34.5488 17.4001H36.1232Z" fill="white"/>
<path d="M14.1589 7.74353C14.1589 7.26798 14.121 6.79242 14.0451 6.32657H7.60523V9.01491H11.2947C11.1429 9.87868 10.6497 10.6551 9.92891 11.1404V12.8873H12.1293C13.4192 11.6741 14.1589 9.87868 14.1589 7.74353Z" fill="#4285F4"/>
<path d="M7.6055 14.5761C9.44547 14.5761 11.0006 13.9549 12.1293 12.8873L9.92891 11.1404C9.31242 11.5674 8.52548 11.8101 7.6055 11.8101C5.82244 11.8101 4.31442 10.5775 3.77381 8.92763H1.50704V10.7328C2.66414 13.0912 5.02575 14.5761 7.6055 14.5761Z" fill="#34A853"/>
<path d="M3.77381 8.92763C3.48923 8.06387 3.4895 7.12242 3.77408 6.24895V4.45349H1.50695C0.529908 6.42364 0.529908 8.7529 1.50695 10.7231L3.77381 8.92763Z" fill="#FBBC04"/>
<path d="M7.6055 3.36651C8.58239 3.3471 9.52134 3.7256 10.2232 4.41467L12.177 2.4154C10.9345 1.23136 9.3032 0.58111 7.6055 0.60052C5.02575 0.60052 2.66405 2.09512 1.50695 4.45349L3.77381 6.25866C4.31442 4.59907 5.82243 3.36651 7.6055 3.36651Z" fill="#EA4335"/>
</svg>
