<svg width="47" height="12" viewBox="0 0 47 12" fill="none" xmlns="http://www.w3.org/2000/svg">
<path d="M18.2561 5.02827C18.1359 5.91778 17.4144 5.91778 16.7531 5.91778H16.3924L16.693 4.19806C16.693 4.07946 16.8132 4.02016 16.9334 4.02016H17.1138C17.5948 4.02016 18.0156 4.02016 18.2561 4.25736C18.2561 4.49457 18.2561 4.73177 18.2561 5.02827ZM17.9555 2.65625H15.3703C15.19 2.65625 15.0697 2.77485 15.0096 2.95275L13.9875 9.47581C13.9875 9.59441 14.0477 9.71301 14.228 9.71301H15.4304C15.6108 9.71301 15.731 9.59441 15.7912 9.41651L16.0918 7.6375C16.0918 7.45959 16.2721 7.34099 16.4525 7.34099H17.2942C18.9775 7.34099 19.9395 6.51078 20.2401 4.90967C20.3603 4.19806 20.2401 3.66436 19.9395 3.24926C19.4585 2.89345 18.7972 2.65625 17.9555 2.65625Z" fill="white"/>
<path d="M23.9072 7.40029C23.787 8.1119 23.2459 8.5863 22.5245 8.5863C22.1637 8.5863 21.8631 8.4677 21.6828 8.2305C21.5024 7.9933 21.4423 7.69679 21.5024 7.40029C21.6226 6.68868 22.1637 6.21428 22.8852 6.21428C23.2459 6.21428 23.5465 6.33288 23.7269 6.57008C23.8471 6.74798 23.9673 7.04449 23.9072 7.40029ZM25.5906 5.02827H24.3882C24.268 5.02827 24.2078 5.08757 24.1477 5.20617L24.0876 5.56198L24.0275 5.44337C23.787 5.08757 23.1858 4.90967 22.5846 4.90967C21.2018 4.90967 20.0595 5.91778 19.819 7.34099C19.6988 8.0526 19.8792 8.7049 20.3 9.17931C20.6607 9.59441 21.2018 9.77231 21.8631 9.77231C22.9453 9.77231 23.5465 9.06071 23.5465 9.06071L23.4864 9.41651C23.4864 9.53511 23.5465 9.65371 23.7269 9.65371H24.809C24.9894 9.65371 25.1096 9.53511 25.1697 9.35721L25.8311 5.20617C25.8311 5.14687 25.771 5.02827 25.5906 5.02827Z" fill="white"/>
<path d="M32.1437 5.02832H30.8812C30.7609 5.02832 30.6407 5.08762 30.5806 5.20622L28.8972 7.69684L28.1757 5.32482C28.1156 5.14692 27.9954 5.08762 27.815 5.08762H26.6126C26.4924 5.08762 26.3721 5.20622 26.4323 5.38412L27.815 9.29796L26.5525 11.077C26.4322 11.1956 26.5525 11.4328 26.7329 11.4328H27.9954C28.1156 11.4328 28.2359 11.3735 28.296 11.2549L32.3842 5.38412C32.4443 5.20622 32.324 5.02832 32.1437 5.02832Z" fill="white"/>
<path d="M36.5325 5.02827C36.4122 5.91778 35.6908 5.91778 35.0295 5.91778H34.6687L34.9693 4.19806C34.9693 4.07946 35.0896 4.02016 35.2098 4.02016H35.3902C35.8711 4.02016 36.292 4.02016 36.5325 4.25736C36.5926 4.49457 36.5926 4.73177 36.5325 5.02827ZM36.2319 2.65625H33.6467C33.4663 2.65625 33.3461 2.77485 33.286 2.95275L32.2639 9.47581C32.2639 9.59441 32.3241 9.71301 32.5044 9.71301H33.827C33.9473 9.71301 34.0675 9.65371 34.0675 9.47581L34.3681 7.6375C34.3681 7.45959 34.5485 7.34099 34.7289 7.34099H35.5705C37.2539 7.34099 38.2158 6.51078 38.5164 4.90967C38.6367 4.19806 38.5164 3.66436 38.2158 3.24926C37.795 2.89345 37.1337 2.65625 36.2319 2.65625Z" fill="#D8D8D8"/>
<path d="M42.2439 7.40029C42.1236 8.1119 41.5826 8.5863 40.8611 8.5863C40.5004 8.5863 40.1998 8.4677 40.0194 8.2305C39.8391 7.9933 39.779 7.69679 39.8391 7.40029C39.9593 6.68868 40.5004 6.21428 41.2219 6.21428C41.5826 6.21428 41.8832 6.33288 42.0635 6.57008C42.1838 6.74798 42.304 7.04449 42.2439 7.40029ZM43.9273 5.02827H42.7249C42.6046 5.02827 42.5445 5.08757 42.4844 5.20617L42.4243 5.56198L42.3641 5.44337C42.1237 5.08757 41.5225 4.90967 40.9212 4.90967C39.5385 4.90967 38.3962 5.91778 38.1557 7.34099C38.0355 8.0526 38.2158 8.7049 38.6367 9.17931C38.9974 9.59441 39.5385 9.77231 40.1998 9.77231C41.282 9.77231 41.8832 9.06071 41.8832 9.06071L41.8231 9.41651C41.8231 9.53511 41.8832 9.65371 42.0635 9.65371H43.1457C43.3261 9.65371 43.4463 9.53511 43.5064 9.35721L44.1677 5.20617C44.1677 5.14687 44.0475 5.02827 43.9273 5.02827Z" fill="#D8D8D8"/>
<path d="M45.3703 2.83415L44.2881 9.47581C44.2881 9.59441 44.3482 9.71301 44.5286 9.71301H45.6107C45.7911 9.71301 45.9113 9.59441 45.9715 9.41651L46.9935 2.89345C46.9935 2.77485 46.9334 2.65625 46.753 2.65625H45.5506C45.4905 2.65625 45.4304 2.77485 45.3703 2.83415Z" fill="#D8D8D8"/>
<path d="M3.28611 10.9586L3.46646 9.71334H3.04562H0.941406L2.3843 0.640354C2.3843 0.640354 2.38429 0.581055 2.44441 0.581055H2.50454H6.05164C7.19392 0.581055 8.03561 0.818257 8.45645 1.29266C8.63681 1.52986 8.75705 1.76707 8.81718 2.00427C8.8773 2.30077 8.8773 2.59727 8.81718 3.01238V3.24958L8.99754 3.36818C9.1779 3.42748 9.29814 3.54608 9.41838 3.66468C9.59874 3.84258 9.71898 4.07979 9.71898 4.37629C9.7791 4.67279 9.7791 5.02859 9.65886 5.4437C9.53862 5.9181 9.41838 6.2739 9.23802 6.62971C9.05765 6.92621 8.81717 7.16341 8.57669 7.40062C8.33621 7.57852 7.97548 7.69712 7.67488 7.81572C7.31416 7.87502 6.95344 7.93432 6.5326 7.93432H6.232C6.05164 7.93432 5.87128 7.99362 5.69092 8.11222C5.57068 8.23082 5.45044 8.40872 5.39032 8.58663V8.70523L5.02959 10.8993V10.9586V11.0179C5.02959 11.0179 5.02959 11.0179 4.96947 11.0179H3.28611V10.9586Z" fill="white"/>
<path d="M9.23793 3.01221C9.23793 3.07151 9.23793 3.13081 9.17781 3.19011C8.69684 5.56213 7.13372 6.33304 5.08963 6.33304H4.06758C3.82709 6.33304 3.58662 6.51094 3.58662 6.74814L3.04553 10.069L2.92529 11.0178C2.92529 11.1957 3.04553 11.3143 3.16577 11.3143H5.02951C5.26999 11.3143 5.45035 11.1364 5.45035 10.9585V10.8399L5.81107 8.70506V8.58646C5.87119 8.34926 6.05155 8.23066 6.23191 8.23066H6.53251C8.33613 8.23066 9.71889 7.51905 10.0796 5.44353C10.26 4.55402 10.1397 3.84242 9.7189 3.36801C9.59865 3.24941 9.41829 3.13081 9.23793 3.01221Z" fill="#D8D8D8"/>
<path d="M8.75701 2.83415C8.69689 2.83415 8.63678 2.77485 8.51654 2.77485C8.45642 2.77485 8.33617 2.71555 8.27605 2.71555C7.97545 2.65625 7.67485 2.65625 7.37424 2.65625H4.60871C4.54859 2.65625 4.48847 2.65625 4.42835 2.71555C4.30811 2.77485 4.18787 2.89345 4.18787 3.01205L3.58667 6.68869V6.80729C3.64679 6.57008 3.82714 6.39219 4.06763 6.39219H5.08968C7.13377 6.39219 8.69689 5.56198 9.17786 3.24926C9.17786 3.18995 9.17786 3.13065 9.23798 3.07135C9.11774 3.01205 8.99749 2.95275 8.87725 2.89345C8.81713 2.83415 8.75701 2.83415 8.75701 2.83415Z" fill="#252C5E"/>
<path d="M4.18779 3.01222C4.18779 2.89362 4.30802 2.77502 4.42827 2.71572C4.48839 2.71572 4.54851 2.65642 4.60863 2.65642H7.37416C7.67476 2.65642 8.03548 2.65642 8.27596 2.71572C8.33609 2.71572 8.45633 2.71572 8.51645 2.77502C8.57657 2.77502 8.63669 2.83432 8.75693 2.83432C8.81705 2.83432 8.81705 2.83432 8.87717 2.89362C8.99741 2.95292 9.11765 3.01222 9.23789 3.07152C9.35813 2.18201 9.23789 1.58901 8.75693 1.0553C8.21585 0.462298 7.25392 0.225098 6.05151 0.225098H2.50442C2.26393 0.225098 2.02345 0.402997 2.02345 0.6402L0.580566 9.77248C0.580566 9.95038 0.700807 10.1283 0.881168 10.1283H3.0455L3.58658 6.68886L4.18779 3.01222Z" fill="white"/>
</svg>
