<svg width="42" height="42" viewBox="0 0 42 42" fill="none" xmlns="http://www.w3.org/2000/svg">
<g id="free-icon-write-feedback-11899409">
<path id="Vector" d="M7.03992 13.0795C7.03992 12.808 7.26059 12.5873 7.53211 12.5873H26.1967C26.4682 12.5873 26.6889 12.808 26.6889 13.0795C26.6889 13.351 26.4682 13.5717 26.1967 13.5717H7.53211C7.25977 13.5717 7.03992 13.3518 7.03992 13.0795ZM22.2838 17.519H7.53211C7.26059 17.519 7.03992 17.7397 7.03992 18.0112C7.03992 18.2827 7.26059 18.5034 7.53211 18.5034H22.2838C22.5553 18.5034 22.776 18.2827 22.776 18.0112C22.776 17.7397 22.5553 17.519 22.2838 17.519ZM21.023 22.4491H7.53211C7.26059 22.4491 7.03992 22.6698 7.03992 22.9413C7.03992 23.2128 7.26059 23.4335 7.53211 23.4335H21.023C21.2945 23.4335 21.5152 23.2128 21.5152 22.9413C21.5152 22.6698 21.2945 22.4491 21.023 22.4491ZM40.3462 9.39545L39.3258 10.8023C39.3241 10.8039 39.3233 10.8056 39.3217 10.8072L34.0134 17.9234V25.7796C34.0134 28.4447 31.8454 30.6128 29.1802 30.6128H16.905L10.208 37.2081C10.1145 37.3008 9.98895 37.3501 9.86262 37.3501C9.79863 37.3501 9.73383 37.3378 9.67231 37.3115C9.48938 37.2352 9.37043 37.0556 9.37043 36.8579V30.6137H6.06457C3.39855 30.6137 1.23047 28.4456 1.23047 25.7804V11.2584C1.23047 8.59319 3.39855 6.4251 6.06375 6.4251H29.1802C30.7141 6.4251 32.1357 7.15108 33.043 8.36022L34.0479 6.97471L35.0684 5.56788C35.417 5.08717 35.9338 4.77053 36.5236 4.67702C37.1134 4.58268 37.7032 4.72377 38.1831 5.07241L39.85 6.28155C40.8458 7.0026 41.0681 8.40041 40.3462 9.39545ZM38.2348 10.6194L34.5557 7.95088L25.8735 19.9233L29.3918 22.4753L38.2348 10.6194ZM25.1869 24.764L28.5502 23.0815L25.5864 20.9315L25.1869 24.764ZM33.0299 19.2441L29.8905 23.4531L29.8897 23.4523C29.8446 23.513 29.7864 23.5639 29.7158 23.5992L24.8243 26.0462C24.7546 26.0806 24.6791 26.0978 24.6045 26.0978C24.506 26.0978 24.4084 26.0683 24.3239 26.0101C24.1762 25.9075 24.0959 25.7328 24.1147 25.554L24.6963 19.9808C24.7054 19.893 24.7373 19.8118 24.7874 19.7429L32.4302 9.20432C31.7239 8.09034 30.505 7.40866 29.1802 7.40866H6.06375C3.9416 7.40948 2.21484 9.13623 2.21484 11.2584V25.7796C2.21484 27.9017 3.9416 29.6285 6.06375 29.6285H9.8618C10.1333 29.6285 10.354 29.8491 10.354 30.1206V35.6832L16.357 29.7712C16.4489 29.6801 16.5728 29.6293 16.7024 29.6293H29.1793C31.3015 29.6293 33.0282 27.9025 33.0282 25.7804V19.2441H33.0299ZM39.2725 7.07725L37.6056 5.86811C37.3373 5.6737 37.0084 5.59577 36.6786 5.64827C36.3489 5.70077 36.0601 5.87713 35.8657 6.14538L35.134 7.15436L38.818 9.82694L39.5497 8.81795C39.9533 8.26178 39.8286 7.48084 39.2725 7.07725ZM35.376 10.6965C35.1561 10.5373 34.8485 10.5857 34.6886 10.8056L29.2671 18.2803C29.1071 18.5001 29.1564 18.8077 29.3762 18.9677C29.4632 19.0308 29.5649 19.0612 29.665 19.0612C29.8175 19.0612 29.9677 18.9906 30.0636 18.8578L35.4851 11.3831C35.645 11.164 35.5958 10.8556 35.376 10.6965Z" fill="black"/>
</g>
</svg>
