<svg width="42" height="42" viewBox="0 0 42 42" fill="none" xmlns="http://www.w3.org/2000/svg">
<g id="free-icon-consultation-79703">
<path id="Vector" d="M23.0689 42H20.4639C19.2131 42 18.1956 40.9824 18.1956 39.7319V39.6453C18.1956 38.3945 19.2131 37.3772 20.4639 37.3772H23.0687C24.1175 37.3772 25.0021 38.0923 25.2606 39.0607H31.5331C35.6421 39.0607 38.9849 35.7179 38.9849 31.6089V28.8362H38.5117V30.3845C38.5117 31.5639 37.5523 32.5233 36.373 32.5233H34.5969C34.325 32.5233 34.0938 32.3506 34.0063 32.1089H33.2681C32.3617 32.1089 31.6241 31.4073 31.6241 30.5451V20.5537C31.6241 19.6914 32.3617 18.9899 33.2681 18.9899H34.0063C34.0938 18.7481 34.325 18.5755 34.5969 18.5755H36.4881C37.6038 18.5755 38.5117 19.4832 38.5117 20.5991V22.2626H38.9849V20.2722C38.9849 9.78647 30.9167 1.25575 20.9992 1.25575C11.082 1.25575 3.01356 9.78647 3.01356 20.2722V22.2626H3.48677V20.5991C3.48677 19.4832 4.39468 18.5755 5.51041 18.5755H7.40157C7.67344 18.5755 7.9047 18.7481 7.99219 18.9899H8.73036C9.6368 18.9899 10.3743 19.6914 10.3743 20.5537V30.5451C10.3743 31.4073 9.6368 32.1089 8.73036 32.1089H7.99219C7.9047 32.3506 7.67344 32.5233 7.40157 32.5233H5.62552C4.44616 32.5233 3.48677 31.5639 3.48677 30.3845V28.8362H2.38569C2.03889 28.8362 1.75781 28.5551 1.75781 28.2083V20.2722C1.75781 9.09414 10.3896 0 20.9992 0C31.6091 0 40.2409 9.09414 40.2409 20.2722V31.6087C40.2409 36.41 36.3347 40.3162 31.5333 40.3162H25.2608C25.0024 41.2846 24.1175 42 23.0689 42ZM20.4639 38.6327C19.9055 38.6327 19.4513 39.0869 19.4513 39.6451V39.7317C19.4513 40.2899 19.9055 40.744 20.4639 40.744H23.0687C23.6271 40.744 24.0813 40.2899 24.0813 39.7317V39.6451C24.0813 39.0869 23.6271 38.6327 23.0687 38.6327H20.4639ZM35.3003 31.2673H36.3732C36.86 31.2673 37.2562 30.8711 37.2562 30.3843V20.5991C37.2562 20.1757 36.9117 19.8312 36.4883 19.8312H35.3003V31.2673ZM5.51041 19.8312C5.08701 19.8312 4.74252 20.1757 4.74252 20.5991V30.3843C4.74252 30.8713 5.13871 31.2673 5.62552 31.2673H6.77369V19.8312H5.51041ZM33.2681 20.2456C33.0576 20.2456 32.8799 20.3867 32.8799 20.5537V30.5451C32.8799 30.7121 33.0578 30.8531 33.2681 30.8531H34.0446V20.2456H33.2681ZM8.02944 30.8531H8.73057C8.94112 30.8531 9.11881 30.7121 9.11881 30.5451V20.5537C9.11881 20.3867 8.94091 20.2456 8.73057 20.2456H8.02944V30.8531ZM38.5119 27.5802H38.9851V23.5183H38.5119V27.5802ZM3.01356 27.5802H3.48677V23.5183H3.01356V27.5802Z" fill="black"/>
</g>
</svg>
