<svg width="42" height="42" viewBox="0 0 42 42" fill="none" xmlns="http://www.w3.org/2000/svg">
<g id="free-icon-male-1271359" clip-path="url(#clip0_5037_1583)">
<path id="Vector" d="M27.3112 29.4088H25.2126V27.1702C27.6708 25.611 29.3718 23.1012 29.9098 20.2403C31.3443 19.8253 32.2078 17.6946 32.2078 16.118C32.3188 14.9334 31.5868 13.8322 30.4518 13.476C32.3359 11.5195 32.7509 8.5746 31.4813 6.17343C30.2117 3.77226 27.5438 2.4576 24.8663 2.91324C21.5849 -0.628402 16.1077 -0.988065 12.3911 2.09349C8.67462 5.17539 8.01405 10.6246 10.8873 14.5048C10.1625 15.0448 9.76147 15.9158 9.82329 16.8175C9.82329 18.4549 10.752 20.6935 12.2876 20.9825C12.9615 23.5435 14.5802 25.7544 16.8184 27.1702V29.4088H14.7199C11.5646 29.405 8.53766 30.6565 6.30659 32.8876C4.07586 35.1186 2.82404 38.1455 2.82814 41.3005C2.82814 41.6868 3.141 42 3.52765 42H38.5034C38.8897 42 39.2029 41.6868 39.2029 41.3005C39.1954 34.7361 33.8756 29.4163 27.3112 29.4088ZM18.2175 30.5748V27.9288C18.2803 27.9558 18.3466 27.9728 18.4105 27.9985C18.6823 28.1119 18.9593 28.2126 19.2408 28.3028C19.3463 28.3363 19.4505 28.3728 19.5584 28.4008C19.9307 28.5091 20.3089 28.5976 20.6907 28.6652L20.9008 28.6993C20.9766 28.7127 21.0541 28.7127 21.13 28.6993L21.34 28.6652C21.7222 28.5989 22.1003 28.5122 22.4733 28.4049C22.5802 28.3742 22.683 28.34 22.7913 28.3062C23.0741 28.2167 23.3522 28.1153 23.6254 28.0012C23.6869 27.9763 23.7525 27.9595 23.8143 27.9315V30.5728L22.0583 32.9063H19.9663L18.2175 30.5748ZM30.1092 18.3781V14.8265C30.5881 15.0086 30.8088 15.427 30.8088 16.118C30.7971 16.923 30.5543 17.7072 30.1092 18.3781ZM18.2175 1.42813C20.4731 1.42711 22.6158 2.41627 24.0787 4.13398C24.2484 4.33276 24.5148 4.42054 24.7696 4.36111C26.8439 3.86243 29.0026 4.76381 30.1058 6.59014C31.2091 8.41612 31.0028 10.7462 29.5962 12.3506C29.5774 12.3181 29.5501 12.2805 29.5306 12.2512C29.4384 12.0978 29.3353 11.941 29.2208 11.7819C29.1857 11.7327 29.1508 11.6845 29.1156 11.634C28.9633 11.4321 28.7946 11.2255 28.6074 11.0144C28.5688 10.971 28.5254 10.9262 28.4862 10.8829C28.3249 10.7066 28.1518 10.527 27.9666 10.3442C27.9048 10.2834 27.8427 10.2226 27.7784 10.1608C27.5431 9.93504 27.2965 9.70687 27.025 9.47325C26.3476 8.89123 25.6389 8.34678 24.9018 7.84195C24.6538 7.6763 24.3283 7.68552 24.0906 7.86586L20.2901 10.7493C18.7274 11.9376 16.8225 12.5893 14.8596 12.6064H14.6953C14.5546 12.6081 14.4145 12.6204 14.2755 12.6429C14.2554 12.6429 14.2363 12.6511 14.2161 12.6552C14.0938 12.6771 13.9729 12.7068 13.8544 12.7444L13.8195 12.7567C13.6925 12.799 13.5688 12.8506 13.4493 12.9114H13.4431C12.9544 13.1573 12.5496 13.5429 12.2805 14.0194C10.3848 11.7214 9.98587 8.53566 11.2561 5.84144C12.5267 3.14687 15.2384 1.42779 18.2175 1.42813ZM11.2223 16.8175C11.1516 16.3198 11.3907 15.829 11.8259 15.5773C11.858 15.6087 11.8887 15.6415 11.9218 15.6722V18.3145C11.9218 18.5868 11.9321 18.8576 11.9533 19.1275C11.4881 18.4457 11.2339 17.6423 11.2223 16.8175ZM13.5145 20.1535C13.3847 19.5493 13.3198 18.9328 13.3209 18.3145V15.3918C13.3209 15.3843 13.3209 15.3771 13.3209 15.3696C13.3243 15.2412 13.3465 15.1145 13.3864 14.9925C13.3936 14.9693 13.4005 14.9457 13.409 14.9225C13.4524 14.7999 13.5132 14.6838 13.5893 14.5782C13.5972 14.568 13.6061 14.5587 13.6139 14.5488C13.6939 14.445 13.7881 14.3528 13.8937 14.2749L13.9019 14.2677C14.0098 14.1922 14.1276 14.1325 14.2516 14.0894C14.2714 14.0823 14.2909 14.0768 14.3114 14.0707C14.4385 14.03 14.571 14.0081 14.7045 14.0054H14.863C17.1453 13.9846 19.3586 13.2236 21.1713 11.8368L24.5292 9.29085C24.9025 9.56069 25.491 10.002 26.1126 10.5358C26.294 10.6916 26.4668 10.8456 26.6305 10.9983C27.5325 11.7159 28.2348 12.6539 28.6696 13.7216C28.6952 13.8186 28.7088 13.9187 28.7102 14.0194V18.3145C28.7116 18.7172 28.6832 19.1193 28.6248 19.5175C28.2488 22.3132 26.6004 24.7772 24.1596 26.1909C23.2189 26.7402 22.1854 27.1121 21.1105 27.288L21.0155 27.3003L20.923 27.2856C19.8474 27.1036 18.8128 26.7316 17.8677 26.1868C15.6233 24.8879 14.0395 22.693 13.5145 20.1535ZM7.29506 33.8774C9.26245 31.9063 11.9348 30.8013 14.7199 30.8078H16.8184C16.8184 30.9591 16.8673 31.1063 16.9581 31.2276L18.8736 33.7807L17.6331 40.601H4.25005C4.41263 38.0639 5.49538 35.6733 7.29506 33.8774ZM19.0567 40.601L20.2013 34.3054H21.8326L22.974 40.601H19.0567ZM24.399 40.601L23.1588 33.7807L24.9664 31.3673L25.0719 31.2276C25.1631 31.1067 25.2123 30.9591 25.2126 30.8078H27.3112C32.8318 30.8146 37.4057 35.093 37.7807 40.601H24.399Z" fill="black"/>
</g>
<defs>
<clipPath id="clip0_5037_1583">
<rect width="42" height="42" fill="white"/>
</clipPath>
</defs>
</svg>
