<svg width="42" height="42" viewBox="0 0 42 42" fill="none" xmlns="http://www.w3.org/2000/svg">
<g id="free-icon-dubai-2597698">
<g id="Group">
<path id="Vector" d="M38.3601 37.8001H34.9603C34.6882 35.8875 33.0517 34.4401 31.0801 34.4401C30.3629 34.4401 29.6924 34.6352 29.1134 34.971C28.5192 34.6284 27.8506 34.4401 27.1601 34.4401C25.364 34.4401 23.8501 35.6421 23.3879 37.3007C25.6597 28.5039 24.8495 21.926 22.7967 17.0801H24.9201C25.2296 17.0801 25.4801 16.8296 25.4801 16.5201C25.4801 15.2847 24.4754 14.2801 23.2401 14.2801H21.376C17.1483 7.23024 10.448 4.88496 10.3317 4.8459L9.24008 4.48246V3.64008C9.24008 3.33054 8.98962 3.08008 8.68008 3.08008C8.37054 3.08008 8.12008 3.33054 8.12008 3.64008V4.88636V6.44008V14.2801H7.00008C5.76472 14.2801 4.76008 15.2847 4.76008 16.5201C4.76008 16.8296 5.01054 17.0801 5.32008 17.0801H8.12008V34.4852C6.42314 34.7331 5.0517 36.0834 4.80376 37.8001H3.64008C3.33054 37.8001 3.08008 38.0505 3.08008 38.3601C3.08008 38.6696 3.33054 38.9201 3.64008 38.9201H38.3601C38.6696 38.9201 38.9201 38.6696 38.9201 38.3601C38.9201 38.0505 38.6696 37.8001 38.3601 37.8001ZM33.8155 37.8001H28.3445C28.6045 36.5159 29.7275 35.5601 31.0801 35.5601C32.4323 35.5601 33.5554 36.5156 33.8155 37.8001ZM27.1601 35.5601C27.5036 35.5601 27.8384 35.629 28.1546 35.7495C27.6543 36.3099 27.3116 37.0152 27.1998 37.8001H24.4245C24.6845 36.5159 25.8077 35.5601 27.1601 35.5601ZM23.2401 15.4001C23.6541 15.4001 24.0161 15.6253 24.2097 15.9601H22.2881C22.1955 15.7708 22.1017 15.5836 22.0056 15.4001H23.2401ZM9.97564 5.90794C10.1659 5.97304 28.9276 12.7143 22.1398 37.6529L22.0996 37.8001H21.0195C23.9269 27.5148 22.9034 19.2133 17.9703 13.1273C15.6423 10.2556 12.9883 8.56304 11.1717 7.64926C10.9983 7.56176 10.791 7.571 10.6264 7.67278C10.4607 7.77498 10.3601 7.95544 10.3601 8.14962V34.8234C10.0112 34.6571 9.63502 34.5417 9.24008 34.4846V6.44008V5.66294L9.97564 5.90794ZM12.5575 37.8001C12.4686 37.1802 12.2347 36.6095 11.8921 36.1201H20.3065C20.1795 36.6246 20.0486 37.1309 19.9014 37.6458L19.8574 37.8001H12.5575ZM20.5701 35.0001H11.4801V33.8801H20.8147C20.7416 34.249 20.6546 34.6252 20.5701 35.0001ZM11.4801 21.0001H18.3609L11.4801 24.0584V21.0001ZM11.4801 19.3201H20.1926C20.2607 19.5071 20.3359 19.6901 20.3989 19.8801H11.4801V19.3201ZM21.4838 28.2801H11.4801V27.7201H21.4999C21.4967 27.9056 21.4905 28.0926 21.4838 28.2801ZM11.4801 29.4001H19.3471L11.4801 32.7125V29.4001ZM11.4801 26.6001V25.4801H21.4524C21.4762 25.8483 21.487 26.2236 21.4954 26.6001H11.4801ZM21.0145 32.7601H14.2533L21.3949 29.753C21.3135 30.7309 21.188 31.7328 21.0145 32.7601ZM13.5596 24.3601L20.772 21.1545C21.0398 22.1824 21.2337 23.2514 21.3557 24.3601H13.5596ZM11.4801 18.2001V17.0801H19.2159C19.4052 17.4463 19.5805 17.8205 19.7461 18.2001H11.4801ZM11.4801 15.9601V15.4001H18.2305C18.3523 15.5859 18.476 15.7705 18.591 15.9601H11.4801ZM11.4801 14.2801V9.0837C13.1234 10.0129 15.224 11.5173 17.1004 13.8328C17.2185 13.9785 17.3235 14.1317 17.4369 14.2801H11.4801ZM6.03044 15.9601C6.22406 15.6253 6.5861 15.4001 7.00008 15.4001H8.12008V15.9601H6.03044ZM8.68008 35.5601C10.0234 35.5601 11.1514 36.5191 11.4132 37.8001H5.94854C6.21202 36.5217 7.34532 35.5601 8.68008 35.5601Z" fill="black"/>
</g>
</g>
</svg>
