<svg width="42" height="42" viewBox="0 0 42 42" fill="none" xmlns="http://www.w3.org/2000/svg">
<g id="free-icon-balloons-8160478">
<g id="Star Balloon">
<path id="Vector" d="M7.36008 16.6099C7.21103 16.6101 7.06636 16.5595 6.94988 16.4665C6.8334 16.3735 6.75206 16.2436 6.71923 16.0982C6.68641 15.9528 6.70406 15.8006 6.76929 15.6666C6.83451 15.5325 6.94342 15.4247 7.07809 15.3608L8.13809 14.8574C8.99036 14.4544 9.69627 13.7964 10.1581 12.9746C10.2436 12.8229 10.3858 12.7115 10.5535 12.6647C10.7211 12.618 10.9005 12.6398 11.0521 12.7253C11.2037 12.8107 11.3152 12.953 11.3619 13.1206C11.4087 13.2883 11.3869 13.4677 11.3014 13.6193C10.7067 14.677 9.7982 15.5239 8.70141 16.043L7.64077 16.5464C7.55311 16.5883 7.4572 16.6099 7.36008 16.6099Z" fill="black"/>
<path id="Vector_2" d="M11.3483 12.1489C11.254 12.149 11.1607 12.1288 11.0749 12.0896C10.989 12.0504 10.9127 11.9931 10.851 11.9217C10.7893 11.8503 10.7437 11.7664 10.7174 11.6758C10.6911 11.5851 10.6847 11.4899 10.6985 11.3965L10.8004 10.7086C10.813 10.6233 10.8423 10.5414 10.8866 10.4675C10.9309 10.3935 10.9893 10.329 11.0585 10.2777C11.1277 10.2263 11.2064 10.1891 11.29 10.1681C11.3736 10.1472 11.4605 10.1429 11.5457 10.1555C11.631 10.1681 11.7129 10.1974 11.7869 10.2417C11.8608 10.286 11.9253 10.3444 11.9766 10.4136C12.028 10.4829 12.0652 10.5615 12.0862 10.6451C12.1071 10.7287 12.1114 10.8156 12.0988 10.9009L11.9969 11.5888C11.9738 11.7444 11.8956 11.8865 11.7766 11.9893C11.6576 12.0921 11.5056 12.1487 11.3483 12.1489Z" fill="black"/>
<path id="Vector_3" d="M37.2062 15.9439L34.901 14.9342C34.5535 14.7825 34.2489 14.5474 34.014 14.2497C33.7792 13.9521 33.6213 13.6011 33.5545 13.2279L33.1354 10.8935C33.0138 10.2167 32.702 9.58855 32.2365 9.08245C31.771 8.57634 31.171 8.21324 30.5067 8.0356C29.8424 7.85797 29.1412 7.87314 28.4852 8.07934C27.8292 8.28555 27.2455 8.67426 26.8023 9.20003L25.8607 10.317C25.4476 9.79291 24.904 9.38676 24.2843 9.13929C23.6646 8.89183 22.9908 8.81176 22.3303 8.90714L19.6528 9.28621C19.2414 9.34502 18.8218 9.30136 18.4313 9.1591C18.0408 9.01684 17.6914 8.78038 17.4142 8.47071L15.7127 6.57341C15.2255 6.03032 14.5937 5.63717 13.8913 5.43994C13.1888 5.2427 12.4448 5.24954 11.7461 5.45964C11.0474 5.66975 10.4229 6.07444 9.94575 6.62639C9.46859 7.17833 9.15843 7.85473 9.05156 8.57647L8.67793 11.0976C8.61741 11.5087 8.45643 11.8984 8.20927 12.2323C7.9621 12.5662 7.63638 12.834 7.26096 13.0119L4.81797 14.1728C4.1799 14.4762 3.63779 14.9495 3.25123 15.5409C2.86467 16.1323 2.64862 16.8188 2.62683 17.525C2.60504 18.2311 2.77834 18.9296 3.1277 19.5437C3.47706 20.1578 3.98895 20.6637 4.60711 21.0058L7.27568 22.482C7.62195 22.6743 7.91842 22.9449 8.14142 23.2723C8.36442 23.5996 8.50775 23.9746 8.55996 24.3672L8.94387 27.2937C9.03425 28.0097 9.32593 28.6854 9.78504 29.2422C10.2441 29.799 10.8518 30.2142 11.5375 30.4394C11.9333 30.5719 12.3479 30.6398 12.7654 30.6403C13.2758 30.6398 13.781 30.5368 14.2509 30.3375C14.7209 30.1382 15.146 29.8466 15.5012 29.48L16.0821 28.8858L16.1472 29.4073C16.1748 29.6166 16.2772 29.8089 16.4356 29.9486C16.5939 30.0883 16.7974 30.166 17.0086 30.1673C17.0336 30.1673 17.0592 30.1664 17.0848 30.1641C17.495 30.1277 17.8999 30.0454 18.2918 29.9189C18.5314 30.218 18.6662 30.5875 18.6755 30.9707C18.636 31.3433 18.486 31.6955 18.2448 31.9823C17.8864 32.4556 17.654 33.0122 17.5693 33.5998C17.5423 34.0985 17.614 34.5975 17.7803 35.0684C17.9466 35.5392 18.2042 35.9726 18.5383 36.3437C18.5916 36.4115 18.6577 36.4681 18.7328 36.5103C18.808 36.5525 18.8907 36.5795 18.9763 36.5897C19.0619 36.5999 19.1486 36.5932 19.2316 36.5699C19.3146 36.5466 19.3921 36.5072 19.4599 36.4539C19.5276 36.4007 19.5842 36.3346 19.6264 36.2594C19.6686 36.1843 19.6956 36.1016 19.7059 36.016C19.7161 35.9304 19.7094 35.8436 19.6861 35.7607C19.6628 35.6777 19.6234 35.6001 19.5701 35.5324C19.1148 35.0481 18.8653 34.4061 18.8741 33.7415C18.9406 33.3629 19.1008 33.0069 19.3401 32.7061C19.7229 32.2174 19.9488 31.6242 19.988 31.0046C19.9909 30.4203 19.8189 29.8486 19.4939 29.363C19.6822 29.2477 19.8634 29.1213 20.0365 28.9844C20.5939 29.1157 21.1744 29.1132 21.7305 28.9769L22.2117 28.8574C22.134 29.0311 22.1168 29.2259 22.1628 29.4106C22.2088 29.5952 22.3154 29.7591 22.4656 29.876C22.8555 30.1724 23.2849 30.4128 23.7413 30.5905C23.8891 30.9431 23.9107 31.3359 23.8025 31.7025C23.6566 32.008 23.4221 32.2625 23.1296 32.4328C22.6608 32.7486 22.2706 33.1676 21.9888 33.6575C21.6006 34.4352 21.4948 35.3236 21.6895 36.1707C21.7176 36.3212 21.7974 36.4573 21.9151 36.5552C22.0328 36.6532 22.1811 36.7069 22.3342 36.7071C22.3746 36.7071 22.415 36.7034 22.4547 36.6962C22.6258 36.6643 22.7773 36.5658 22.8758 36.4223C22.9744 36.2789 23.0119 36.1021 22.9802 35.931C22.8371 35.4759 22.8523 34.9858 23.0234 34.5405C23.1944 34.0951 23.5113 33.7209 23.9223 33.4787C24.4174 33.1635 24.8044 32.7047 25.0316 32.1636C25.1728 31.7669 25.2161 31.342 25.1578 30.9249C25.3277 30.9415 25.4977 30.9585 25.6687 30.9585C25.8719 30.9585 26.075 30.9468 26.2769 30.9236C26.3939 30.91 26.5068 30.8726 26.6087 30.8135C26.7106 30.7544 26.7992 30.6749 26.869 30.5801C26.9996 30.3992 27.0559 30.1752 27.0264 29.954L27.6586 30.5621C28.3286 31.212 29.2251 31.5759 30.1586 31.5769C30.5888 31.5764 31.0156 31.4998 31.4192 31.3507C32.0587 31.1187 32.6192 30.71 33.0358 30.1721C33.4523 29.6343 33.7078 28.9893 33.7725 28.312L34.0455 25.5794C34.0819 25.2199 34.202 24.8738 34.396 24.569C34.5901 24.2641 34.8528 24.0089 35.1631 23.8237L37.6029 22.3744C38.1754 22.0343 38.643 21.5429 38.9544 20.9543C39.2658 20.3657 39.4089 19.7027 39.3679 19.038C39.3269 18.3734 39.1034 17.7329 38.722 17.1871C38.3406 16.6412 37.8162 16.211 37.2062 15.9439ZM14.563 28.5626C14.2311 28.9022 13.8104 29.1415 13.3489 29.2532C12.8875 29.3649 12.4039 29.3446 11.9534 29.1944C11.503 29.0443 11.1039 28.7704 10.8017 28.4041C10.4996 28.0379 10.3066 27.594 10.2448 27.1232L9.86093 24.1967C9.78176 23.6005 9.56423 23.0311 9.22573 22.5339C8.88722 22.0368 8.43712 21.6257 7.9114 21.3336L5.24285 19.8574C4.83575 19.6322 4.49863 19.2991 4.26856 18.8948C4.03848 18.4904 3.92435 18.0305 3.93872 17.5655C3.9531 17.1005 4.09541 16.6484 4.35003 16.2591C4.60464 15.8697 4.96169 15.5581 5.38192 15.3585L7.82491 14.1976C8.39484 13.927 8.8893 13.5202 9.26455 13.013C9.6398 12.5059 9.88426 11.9141 9.97631 11.2899L10.3499 8.76876C10.4203 8.29351 10.6245 7.84812 10.9387 7.48468C11.2529 7.12124 11.6641 6.85476 12.1241 6.71642C12.5842 6.57807 13.0742 6.57358 13.5367 6.70346C13.9992 6.83334 14.4152 7.09223 14.736 7.44984L16.4375 9.34714C16.8587 9.81711 17.3892 10.176 17.982 10.3921C18.5749 10.6082 19.212 10.6747 19.8367 10.5859L22.5143 10.2069C22.9842 10.1378 23.4642 10.2042 23.8978 10.3982C24.3313 10.5923 24.7006 10.9059 24.9622 11.3024C24.7269 11.4985 24.4546 11.6454 24.1615 11.7343C23.8683 11.8232 23.5603 11.8523 23.2558 11.8199L20.7538 11.544C20.0919 11.471 19.4228 11.582 18.8198 11.8646C18.2169 12.1473 17.7036 12.5907 17.3363 13.1461C16.969 13.7015 16.762 14.3475 16.738 15.0129C16.714 15.6784 16.8739 16.3376 17.2002 16.918L18.5909 19.3921C18.7676 19.7073 18.868 20.0596 18.8842 20.4206C18.9003 20.7816 18.8317 21.1414 18.6838 21.4711L17.5559 23.9753C17.2569 24.6384 17.1657 25.3765 17.2943 26.0924C16.9016 26.283 16.5443 26.539 16.2376 26.8496L14.563 28.5626ZM18.5428 28.4062C18.1808 28.5922 17.7937 28.7246 17.3937 28.7994L17.2558 27.6949C17.407 27.5529 17.575 27.4299 17.7562 27.3288C17.8518 27.488 17.9592 27.6397 18.0775 27.7827C18.2519 27.9875 18.4483 28.1724 18.6633 28.334C18.6224 28.3568 18.5845 28.3848 18.5428 28.4062ZM24.6426 29.5105C24.2812 29.414 23.9354 29.2669 23.6153 29.0734L24.0727 28.4068C24.5356 28.3281 25.0115 28.3939 25.4357 28.5953L25.6366 29.6457C25.3009 29.6431 24.9668 29.5976 24.6426 29.5105ZM36.9325 21.2458L34.4928 22.6951C34.0061 22.9857 33.5941 23.3859 33.2897 23.864C32.9852 24.3421 32.7968 24.8847 32.7393 25.4486L32.4663 28.1813C32.4233 28.6124 32.2599 29.0228 31.9947 29.3654C31.7295 29.708 31.3732 29.9691 30.9666 30.1188C30.56 30.2684 30.1195 30.3007 29.6954 30.2118C29.2713 30.1229 28.8808 29.9165 28.5686 29.6162L26.9613 28.0701C26.2902 27.4208 25.3931 27.0576 24.4593 27.0572C24.1623 27.0574 23.8664 27.0937 23.5781 27.1655L21.4139 27.7029C20.9934 27.8072 20.5521 27.7911 20.1404 27.6565C19.7286 27.5218 19.3631 27.274 19.0855 26.9414C18.8079 26.6088 18.6296 26.2048 18.5708 25.7755C18.512 25.3463 18.5751 24.9093 18.753 24.5142L19.881 22.01C20.1125 21.4927 20.2199 20.9284 20.1947 20.3621C20.1694 19.7959 20.0122 19.2434 19.7355 18.7487L18.3448 16.2746C18.1368 15.9046 18.0348 15.4843 18.0501 15.0601C18.0654 14.6359 18.1974 14.2241 18.4316 13.87C18.6657 13.5159 18.993 13.2333 19.3773 13.0531C19.7617 12.873 20.1883 12.8023 20.6103 12.8488L23.1122 13.1247C23.6989 13.1892 24.2924 13.1092 24.8411 12.8917C25.3898 12.6743 25.877 12.3259 26.2602 11.8771L26.2679 11.869L26.2775 11.859L27.8059 10.046C28.0885 9.71079 28.4606 9.46295 28.8788 9.33147C29.297 9.19999 29.744 9.19031 30.1675 9.30354C30.591 9.41678 30.9735 9.64826 31.2703 9.97092C31.5671 10.2936 31.7659 10.6941 31.8434 11.1255L32.2625 13.4599C32.3673 14.0453 32.6148 14.5958 32.9831 15.0627C33.3515 15.5296 33.8293 15.8984 34.3742 16.1365L36.6794 17.1462C37.0684 17.3164 37.4028 17.5906 37.646 17.9386C37.8892 18.2866 38.0318 18.6949 38.0579 19.1187C38.0841 19.5424 37.9929 19.9652 37.7943 20.3405C37.5958 20.7158 37.2976 21.029 36.9325 21.2458Z" fill="black"/>
<path id="Vector_4" d="M26.9001 13.866C26.7681 13.8659 26.6391 13.826 26.5302 13.7515C26.4212 13.6771 26.3372 13.5715 26.2891 13.4485C26.2411 13.3255 26.2313 13.191 26.2609 13.0623C26.2906 12.9337 26.3583 12.817 26.4553 12.7275C26.5902 12.6027 26.7174 12.4698 26.836 12.3295C26.8914 12.2631 26.9594 12.2083 27.036 12.1683C27.1127 12.1282 27.1965 12.1037 27.2827 12.0962C27.3688 12.0887 27.4556 12.0983 27.538 12.1245C27.6205 12.1506 27.6969 12.1928 27.763 12.2486C27.829 12.3044 27.8834 12.3727 27.923 12.4496C27.9626 12.5265 27.9865 12.6104 27.9935 12.6966C28.0005 12.7828 27.9904 12.8696 27.9638 12.9518C27.9371 13.0341 27.8945 13.1103 27.8383 13.176C27.6847 13.3581 27.5199 13.5304 27.3448 13.6919C27.2239 13.8041 27.065 13.8662 26.9001 13.866Z" fill="black"/>
<path id="Vector_5" d="M23.4576 15.1817C22.8498 15.1701 22.2438 15.1131 21.6446 15.0112C21.4664 14.9849 21.2908 14.959 21.1197 14.9369C20.9471 14.9148 20.7903 14.825 20.6839 14.6873C20.5775 14.5497 20.5301 14.3753 20.5522 14.2027C20.5743 14.0301 20.664 13.8734 20.8017 13.767C20.9394 13.6605 21.1137 13.6132 21.2863 13.6352C21.4664 13.6583 21.6497 13.6852 21.8362 13.7128C22.9242 13.9696 24.0622 13.9192 25.1232 13.567C25.2033 13.5348 25.2889 13.5186 25.3753 13.5196C25.4616 13.5205 25.5469 13.5384 25.6262 13.5724C25.7056 13.6063 25.7775 13.6556 25.8378 13.7173C25.8981 13.7791 25.9457 13.8522 25.9777 13.9323C26.0097 14.0125 26.0256 14.0982 26.0245 14.1845C26.0234 14.2708 26.0052 14.3561 25.9711 14.4354C25.9369 14.5147 25.8875 14.5864 25.8256 14.6466C25.7637 14.7067 25.6905 14.7541 25.6102 14.7859C24.9249 15.0554 24.1939 15.1897 23.4576 15.1817Z" fill="black"/>
</g>
</g>
</svg>
