<svg width="93" height="90" viewBox="0 0 93 90" fill="none" xmlns="http://www.w3.org/2000/svg">
<path d="M31.3788 14.8565L42.9931 36.621L66.0545 45.3822L44.2899 56.9965L35.5288 80.0579L23.9145 58.2933L0.853087 49.5321L22.6176 37.9179L31.3788 14.8565ZM32.6316 34.5391L29.1193 43.6414L20.5358 48.2794L29.6381 51.7916L34.276 60.3752L37.7882 51.2729L46.3718 46.635L37.2695 43.1227L32.6316 34.5391ZM73.4265 32.6382L67.5813 21.7993L56.0887 17.3753L66.9302 11.5708L71.3516 0.0374885L77.1587 10.9198L88.6894 15.3004L77.8097 21.1482L73.4265 32.6382ZM77.0577 89.6894L71.2125 78.8505L59.7199 74.4265L70.5614 68.622L74.9828 57.0887L80.7899 67.971L92.3206 72.3516L81.4409 78.1995L77.0577 89.6894Z" fill="#FBEBF6"/>
</svg>
