<svg width="41" height="35" viewBox="0 0 41 35" fill="none" xmlns="http://www.w3.org/2000/svg">
<path fill-rule="evenodd" clip-rule="evenodd" d="M32.3059 34.8192H3.09639C1.38904 34.8192 0.000240235 33.4302 0.000240235 31.723L0 5.78292C0 4.07556 1.38904 2.68676 3.09639 2.68676L32.3059 2.68652C34.0132 2.68652 35.4025 4.07556 35.4025 5.78292V19.2351C35.4025 19.8677 34.4416 19.8674 34.4416 19.2351V5.78292C34.4416 4.60552 33.4838 3.64747 32.3061 3.64747H3.09615C1.91876 3.64747 0.960941 4.60528 0.960941 5.78292V31.723C0.960941 32.9004 1.91876 33.858 3.09615 33.858H32.3056C33.483 33.858 34.4411 32.9004 34.4411 31.723C34.4411 30.8844 34.2626 29.9484 34.9216 29.9484C35.5805 29.9484 35.4018 30.8849 35.402 31.723C35.4025 33.4304 34.0132 34.8194 32.3056 34.8194L32.3059 34.8192Z" fill="#1B1B1B"/>
<path fill-rule="evenodd" clip-rule="evenodd" d="M34.9218 10.1875H0.480264C-0.152276 10.1875 -0.152276 9.22656 0.480264 9.22656H34.9218C35.5544 9.22656 35.5544 10.1875 34.9218 10.1875Z" fill="#1B1B1B"/>
<path fill-rule="evenodd" clip-rule="evenodd" d="M7.13014 6.15434C6.4976 6.15434 6.4976 5.1934 7.13014 5.1934C9.79724 5.1934 9.79676 1.14063 7.13014 1.14063C6.01281 1.14063 5.10352 2.04992 5.10352 3.16725C5.10352 3.79979 4.14258 3.79979 4.14258 3.16725C4.14258 1.5202 5.48285 0.179688 7.13014 0.179688C8.77744 0.179688 10.1172 1.51996 10.1172 3.16725C10.1172 4.81455 8.7772 6.15434 7.13014 6.15434Z" fill="#1B1B1B"/>
<path fill-rule="evenodd" clip-rule="evenodd" d="M17.7022 6.15434C17.0696 6.15434 17.0696 5.1934 17.7022 5.1934C20.3695 5.1934 20.3693 1.14063 17.7022 1.14063C16.5846 1.14063 15.6758 2.04992 15.6758 3.16725C15.6758 3.79979 14.7148 3.79979 14.7148 3.16725C14.7148 1.5202 16.0549 0.179688 17.7019 0.179688C19.349 0.179688 20.6895 1.51996 20.6895 3.16725C20.6895 4.81455 19.349 6.15434 17.7019 6.15434H17.7022Z" fill="#1B1B1B"/>
<path fill-rule="evenodd" clip-rule="evenodd" d="M28.274 6.15434C27.6414 6.15434 27.6417 5.1934 28.274 5.1934C30.9411 5.1934 30.9406 1.14063 28.274 1.14063C27.1569 1.14063 26.2481 2.04992 26.2481 3.16725C26.2481 3.79979 25.2871 3.79979 25.2871 3.16725C25.2871 1.5202 26.6274 0.179688 28.2742 0.179688C29.9217 0.179688 31.2618 1.51996 31.2618 3.16725C31.2618 4.81455 29.9215 6.15434 28.274 6.15434Z" fill="#1B1B1B"/>
<path fill-rule="evenodd" clip-rule="evenodd" d="M8.95464 18.1429H4.37696C4.11174 18.1429 3.89648 17.9276 3.89648 17.6624V13.085C3.89648 12.8197 4.11174 12.6045 4.37696 12.6045H8.95464C9.21986 12.6045 9.43511 12.8197 9.43511 13.085V17.6624C9.43511 17.9281 9.22034 18.1429 8.95464 18.1429ZM4.85767 17.1819H8.47441V13.5654H4.85767V17.1819Z" fill="#1B1B1B"/>
<path fill-rule="evenodd" clip-rule="evenodd" d="M16.3121 18.1429H11.7344C11.4692 18.1429 11.2539 17.9276 11.2539 17.6624V13.085C11.2539 12.8197 11.4692 12.6045 11.7344 12.6045H16.3121C16.5773 12.6045 16.7925 12.8197 16.7925 13.085V17.6624C16.7925 17.9281 16.5778 18.1429 16.3121 18.1429ZM12.2148 17.1819H15.8316V13.5654H12.2148V17.1819Z" fill="#1B1B1B"/>
<path fill-rule="evenodd" clip-rule="evenodd" d="M23.6692 18.1429H19.0918C18.8266 18.1429 18.6113 17.9276 18.6113 17.6624V13.085C18.6113 12.8197 18.8266 12.6045 19.0918 12.6045H23.6692C23.9345 12.6045 24.1497 12.8197 24.1497 13.085V17.6624C24.15 17.9281 23.9345 18.1429 23.6695 18.1429H23.6692ZM19.5723 17.1819H23.1888V13.5654H19.5723V17.1819Z" fill="#1B1B1B"/>
<path fill-rule="evenodd" clip-rule="evenodd" d="M31.0252 18.1429H26.4473C26.182 18.1429 25.9668 17.9276 25.9668 17.6624V13.085C25.9668 12.8197 26.1823 12.6045 26.4473 12.6045H31.0254C31.2906 12.6045 31.5059 12.8197 31.5059 13.085V17.6624C31.5059 17.9281 31.2902 18.1429 31.0252 18.1429ZM26.9277 17.1819H30.5447V13.5654H26.9277V17.1819Z" fill="#1B1B1B"/>
<path fill-rule="evenodd" clip-rule="evenodd" d="M8.95464 24.792H4.37696C4.11174 24.792 3.89648 24.5765 3.89648 24.3116V19.7334C3.89648 19.4682 4.11174 19.2529 4.37696 19.2529H8.95464C9.21986 19.2529 9.43511 19.4684 9.43511 19.7334V24.3113C9.43511 24.5763 9.22034 24.7918 8.95464 24.7918V24.792ZM4.85767 23.8306H8.47441V20.2139H4.85767V23.8306Z" fill="#1B1B1B"/>
<path fill-rule="evenodd" clip-rule="evenodd" d="M16.3121 24.792H11.7344C11.4692 24.792 11.2539 24.5765 11.2539 24.3116V19.7334C11.2539 19.4682 11.4692 19.2529 11.7344 19.2529H16.3121C16.5773 19.2529 16.7925 19.4684 16.7925 19.7334V24.3113C16.7925 24.5763 16.5778 24.7918 16.3121 24.7918V24.792ZM12.2148 23.8306H15.8316V20.2139H12.2148V23.8306Z" fill="#1B1B1B"/>
<path fill-rule="evenodd" clip-rule="evenodd" d="M23.6692 24.792H19.0918C18.8266 24.792 18.6113 24.5765 18.6113 24.3116V19.7334C18.6113 19.4682 18.8266 19.2529 19.0918 19.2529H23.6692C23.9345 19.2529 24.1497 19.4684 24.1497 19.7334V24.3113C24.15 24.5763 23.9345 24.7918 23.6695 24.7918L23.6692 24.792ZM19.5723 23.8306H23.1888V20.2139H19.5723V23.8306Z" fill="#1B1B1B"/>
<path fill-rule="evenodd" clip-rule="evenodd" d="M29.3483 24.7925H26.4473C26.182 24.7925 25.9668 24.577 25.9668 24.3121V19.7344C25.9668 19.4692 26.1823 19.2539 26.4473 19.2539H31.0252C31.6645 19.2539 31.5057 20.1067 31.5057 20.815C31.5057 21.4475 30.5447 21.4473 30.5447 20.815V20.2148H26.9277V23.8313H29.3483C29.9809 23.8313 29.9804 24.7928 29.3483 24.7928V24.7925Z" fill="#1B1B1B"/>
<path fill-rule="evenodd" clip-rule="evenodd" d="M8.95464 31.441H4.37696C4.11174 31.441 3.89648 31.2255 3.89648 30.9605V26.3828C3.89648 26.1176 4.11174 25.9023 4.37696 25.9023H8.95464C9.21986 25.9023 9.43511 26.1178 9.43511 26.3828V30.9605C9.43511 31.2252 9.22034 31.441 8.95464 31.441ZM4.85767 30.4795H8.47441V26.863H4.85767V30.4795Z" fill="#1B1B1B"/>
<path fill-rule="evenodd" clip-rule="evenodd" d="M16.3121 31.441H11.7344C11.4692 31.441 11.2539 31.2255 11.2539 30.9605V26.3828C11.2539 26.1176 11.4692 25.9023 11.7344 25.9023H16.3121C16.5773 25.9023 16.7925 26.1178 16.7925 26.3828V30.9605C16.7925 31.2252 16.5778 31.441 16.3121 31.441ZM12.2148 30.4795H15.8316V26.863H12.2148V30.4795Z" fill="#1B1B1B"/>
<path fill-rule="evenodd" clip-rule="evenodd" d="M23.6692 31.441H19.0918C18.8266 31.441 18.6113 31.2255 18.6113 30.9605V26.3828C18.6113 26.1176 18.8266 25.9023 19.0918 25.9023H23.6692C23.9345 25.9023 24.1497 26.1178 24.1497 26.3828V30.9605C24.15 31.2252 23.9345 31.441 23.6695 31.441H23.6692ZM19.5723 30.4795H23.1888V26.863H19.5723V30.4795Z" fill="#1B1B1B"/>
<path fill-rule="evenodd" clip-rule="evenodd" d="M31.0252 31.4412H26.4473C26.182 31.4412 25.9668 31.2257 25.9668 30.9607V26.3828C25.9668 26.1176 26.1823 25.9023 26.4473 25.9023H29.542C30.1745 25.9023 30.1743 26.8633 29.542 26.8633H26.9277V30.48H30.5442V28.8498C30.5442 28.2173 31.5052 28.2175 31.5052 28.8498V30.9605C31.5059 31.2257 31.2904 31.4412 31.0252 31.4412Z" fill="#1B1B1B"/>
<path fill-rule="evenodd" clip-rule="evenodd" d="M34.9212 30.9098C31.5699 30.9098 28.8438 28.1836 28.8438 24.8324C28.8438 21.4811 31.5699 18.7549 34.9212 18.7549C38.272 18.7549 40.9982 21.4811 40.9982 24.8324C40.9982 28.1836 38.272 30.9098 34.9212 30.9098ZM34.9212 19.7161C32.1001 19.7161 29.8052 22.0113 29.8052 24.8324C29.8052 27.6534 32.1004 29.9484 34.9212 29.9484C37.7423 29.9484 40.037 27.6532 40.037 24.8324C40.037 22.0113 37.7423 19.7161 34.9212 19.7161Z" fill="#1B1B1B"/>
<path fill-rule="evenodd" clip-rule="evenodd" d="M34.9229 25.313L32.7517 25.3022C32.1192 25.299 32.123 24.3393 32.7563 24.3407L34.4422 24.3491V21.3649C34.4422 20.7324 35.4032 20.7326 35.4032 21.3649V24.8323C35.4032 25.0968 35.1882 25.3127 34.9232 25.3127L34.9229 25.313Z" fill="#1B1B1B"/>
</svg>
