<svg width="25" height="10" viewBox="0 0 25 10" fill="none" xmlns="http://www.w3.org/2000/svg">
<g id="Group">
<g id="Group_2">
<g id="Group_3">
<g id="Group_4">
<path id="Vector" d="M24.4833 5.03962H0.515438C0.230336 5.03962 0 4.80928 0 4.52418C0 4.23908 0.230336 4.00874 0.515438 4.00874H23.2382L20.1101 0.880674C19.9088 0.679331 19.9088 0.35235 20.1101 0.151007C20.3115 -0.0503357 20.6385 -0.0503357 20.8398 0.151007L24.8489 4.16015C24.9971 4.30834 25.0406 4.52901 24.9601 4.7223C24.8796 4.91398 24.6911 5.03962 24.4833 5.03962Z" fill="white"/>
</g>
<g id="Group_5">
<path id="Vector_2" d="M20.4701 9.05387C20.338 9.05387 20.206 9.00394 20.1061 8.90246C19.9047 8.70112 19.9047 8.37414 20.1061 8.17279L24.1201 4.15882C24.3214 3.95748 24.6484 3.95748 24.8497 4.15882C25.0511 4.36016 25.0511 4.68714 24.8497 4.88849L20.8358 8.90246C20.7343 9.00394 20.6022 9.05387 20.4701 9.05387Z" fill="white"/>
</g>
</g>
</g>
</g>
</svg>
