<svg width="64" height="64" viewBox="0 0 64 64" fill="none" xmlns="http://www.w3.org/2000/svg">
<g id="material-symbols:event-sharp" filter="url(#filter0_d_546_1110)">
<path id="Vector" d="M38.6667 47.9999C36.8 47.9999 35.2222 47.3555 33.9333 46.0666C32.6444 44.7777 32 43.1999 32 41.3332C32 39.4666 32.6444 37.8888 33.9333 36.5999C35.2222 35.311 36.8 34.6666 38.6667 34.6666C40.5333 34.6666 42.1111 35.311 43.4 36.5999C44.6889 37.8888 45.3333 39.4666 45.3333 41.3332C45.3333 43.1999 44.6889 44.7777 43.4 46.0666C42.1111 47.3555 40.5333 47.9999 38.6667 47.9999ZM8 58.6666V10.6666H16V5.33325H21.3333V10.6666H42.6667V5.33325H48V10.6666H56V58.6666H8ZM13.3333 53.3332H50.6667V26.6666H13.3333V53.3332Z" fill="#6E4378"/>
</g>
<defs>
<filter id="filter0_d_546_1110" x="0" y="0" width="68" height="68" filterUnits="userSpaceOnUse" color-interpolation-filters="sRGB">
<feFlood flood-opacity="0" result="BackgroundImageFix"/>
<feColorMatrix in="SourceAlpha" type="matrix" values="0 0 0 0 0 0 0 0 0 0 0 0 0 0 0 0 0 0 127 0" result="hardAlpha"/>
<feOffset dx="4" dy="4"/>
<feComposite in2="hardAlpha" operator="out"/>
<feColorMatrix type="matrix" values="0 0 0 0 0.881044 0 0 0 0 0.817448 0 0 0 0 0.895833 0 0 0 1 0"/>
<feBlend mode="normal" in2="BackgroundImageFix" result="effect1_dropShadow_546_1110"/>
<feBlend mode="normal" in="SourceGraphic" in2="effect1_dropShadow_546_1110" result="shape"/>
</filter>
</defs>
</svg>
