<svg width="38" height="38" viewBox="0 0 38 38" fill="none" xmlns="http://www.w3.org/2000/svg">
<g clip-path="url(#clip0_72_2233)">
<path d="M35.5757 18.6654V6.72172C35.5757 3.8165 33.2121 1.453 30.307 1.453H7.54152C4.6363 1.453 2.2728 3.81657 2.2728 6.72172V18.8195C0.865613 20.2907 0 22.284 0 24.4757V33.5321C0 35.1945 1.35249 36.547 3.01499 36.547C4.67741 36.547 6.0299 35.1945 6.0299 33.5321V32.5967H31.9702V33.5321C31.9702 35.1945 33.3227 36.547 34.9851 36.547C36.6475 36.547 38 35.1946 38 33.5321V24.4757C38 22.2064 37.072 20.15 35.5757 18.6654ZM7.54152 2.93738H30.307C32.3937 2.93738 34.0913 4.63506 34.0913 6.72172V17.4973C33.6368 17.2174 33.153 16.9807 32.6456 16.7929V14.3248C32.6456 12.1369 30.8656 10.3568 28.6776 10.3568H22.2259C20.8977 10.3568 19.7207 11.0134 19.0001 12.0184C18.2795 11.0134 17.1024 10.3568 15.7742 10.3568H9.32254C7.13457 10.3568 5.35451 12.1368 5.35451 14.3248V16.7929C4.79037 17.0017 4.25533 17.2709 3.75725 17.5928V6.72172C3.75718 4.63506 5.45478 2.93738 7.54152 2.93738ZM8.18878 16.2869C7.72899 16.2869 7.27804 16.3256 6.83874 16.3988V14.3248C6.83874 12.9554 7.95291 11.8412 9.32239 11.8412H15.7741C17.1436 11.8412 18.2577 12.9554 18.2577 14.3248V16.287H8.18878V16.2869ZM19.7422 14.3248C19.7422 12.9553 20.8564 11.8411 22.2258 11.8411H28.6775C30.047 11.8411 31.1612 12.9553 31.1612 14.3248V16.3987C30.7218 16.3256 30.2709 16.2868 29.8111 16.2868H19.7422V14.3248ZM8.18878 17.7713H29.8111C33.508 17.7713 36.5155 20.7788 36.5155 24.4757V26.6775H29.0717C28.6618 26.6775 28.3295 27.0099 28.3295 27.4197C28.3295 27.8295 28.6618 28.1619 29.0717 28.1619H36.5156V31.1124H1.48438V28.1619H21.6498C22.0597 28.1619 22.392 27.8295 22.392 27.4197C22.392 27.0099 22.0597 26.6775 21.6498 26.6775H1.48438V24.4757C1.48438 20.7788 4.49194 17.7713 8.18878 17.7713ZM4.54553 33.5321C4.54553 34.376 3.85893 35.0627 3.01499 35.0627C2.17105 35.0627 1.48438 34.376 1.48438 33.5321V32.5967H4.54553V33.5321ZM34.985 35.0627C34.1411 35.0627 33.4545 34.376 33.4545 33.5321V32.5967H36.5156V33.5321C36.5156 34.376 35.829 35.0627 34.985 35.0627Z" fill="#F66801"/>
<path d="M25.3605 28.1622C25.7706 28.1622 26.103 27.8298 26.103 27.4197C26.103 27.0096 25.7706 26.6771 25.3605 26.6771C24.9504 26.6771 24.6179 27.0096 24.6179 27.4197C24.6179 27.8298 24.9504 28.1622 25.3605 28.1622Z" fill="#F66801"/>
</g>
<defs>
<clipPath id="clip0_72_2233">
<rect width="38" height="38" fill="white"/>
</clipPath>
</defs>
</svg>
