<svg width="44" height="46" viewBox="0 0 44 46" fill="none" xmlns="http://www.w3.org/2000/svg">
<g clip-path="url(#clip0_72_2246)">
<path d="M40.6681 17.0499C40.3973 16.7471 40.0146 16.5733 39.6181 16.5733H38.1443C37.9862 7.40646 30.8054 0 22.0001 0C18.1568 0 14.4331 1.43557 11.5151 4.04232C11.2434 4.28507 11.2114 4.71212 11.4435 4.99619C11.6757 5.28025 12.0843 5.31381 12.3559 5.07106C15.0397 2.6735 18.4647 1.35312 22.0001 1.35312C30.1905 1.35312 36.8538 8.31937 36.8538 16.882C36.8538 25.4447 30.1905 32.4109 22.0001 32.4109C13.8097 32.4109 7.14638 25.4446 7.14638 16.882C7.14638 13.1665 8.42117 9.57137 10.736 6.75895C10.9691 6.47569 10.9385 6.04856 10.6675 5.80481C10.3964 5.56107 9.98796 5.59309 9.75481 5.87635C7.30221 8.8562 5.92405 12.644 5.85528 16.5733H4.38203C3.98554 16.5733 3.60286 16.747 3.33201 17.0499C3.06211 17.3517 2.9225 17.7608 2.94899 18.1724C3.25479 22.9223 5.18708 27.412 8.38968 30.8145C11.5126 34.1322 15.643 36.2036 20.0511 36.6721V39.3275H18.9386C18.0174 39.3275 17.268 40.1109 17.268 41.074V41.9872H16.35C15.4288 41.9872 14.6794 42.7707 14.6794 43.7337V44.9134C14.6794 45.5126 15.1457 46 15.7188 46H28.2812C28.8544 46 29.3206 45.5125 29.3206 44.9134V43.7337C29.3206 42.7706 28.5712 41.9872 27.65 41.9872H26.732V41.074C26.732 40.1109 25.9826 39.3275 25.0614 39.3275H23.9489V36.6721C28.3572 36.2037 32.4876 34.1321 35.6105 30.8142C38.8131 27.4118 40.7452 22.9222 41.051 18.1724C41.0776 17.7608 40.938 17.3517 40.6681 17.0499ZM9.31225 29.8653C6.32666 26.6935 4.52544 22.5086 4.24035 18.0814C4.23707 18.0306 4.25873 17.9949 4.27745 17.974C4.29686 17.9524 4.33077 17.9265 4.38203 17.9265H5.88384C6.36178 26.0713 12.3879 32.6724 20.0511 33.6407V35.3119C15.9918 34.8486 12.1927 32.9254 9.31225 29.8653ZM28.0263 43.7337V44.6469H15.9738V43.7337C15.9738 43.5167 16.1426 43.3403 16.3501 43.3403H27.65C27.8576 43.3402 28.0263 43.5167 28.0263 43.7337ZM25.4378 41.074V41.9872H18.5623V41.074C18.5623 40.857 18.7311 40.6806 18.9386 40.6806H25.0613C25.269 40.6805 25.4378 40.857 25.4378 41.074ZM21.3455 39.3274V33.7489C21.5627 33.758 21.7808 33.764 22.0001 33.764C22.2195 33.764 22.4375 33.7581 22.6547 33.7489V39.3274H21.3455ZM34.6882 29.8651C31.8077 32.9253 28.0084 34.8486 23.949 35.3119V33.6407C31.6121 32.6725 37.6383 26.0713 38.1162 17.9265H39.618C39.6693 17.9265 39.7032 17.9524 39.7226 17.974C39.7413 17.9949 39.763 18.0306 39.7597 18.0814C39.4747 22.5084 37.6736 26.6933 34.6882 29.8651Z" fill="#F66801"/>
<path d="M33.8085 16.8821C33.8085 17.2557 34.0982 17.5586 34.4556 17.5586C34.813 17.5586 35.1027 17.2557 35.1027 16.8821C35.1027 9.32883 29.2249 3.18384 22.0001 3.18384C14.7753 3.18384 8.89746 9.32883 8.89746 16.8821C8.89746 24.4353 14.7753 30.5803 22.0001 30.5803C25.0375 30.5803 27.9981 29.4688 30.3365 27.4506C32.6435 25.4594 34.242 22.6846 34.8374 19.6375C34.9089 19.2714 34.6831 18.914 34.3329 18.8392C33.9829 18.7644 33.6409 19.0006 33.5694 19.3667C33.0329 22.1119 31.5922 24.6122 29.5125 26.4071C27.4055 28.2257 24.7375 29.2271 22.0001 29.2271C15.4889 29.2271 10.1918 23.6892 10.1918 16.8821C10.1918 10.075 15.4889 4.53696 22.0001 4.53696C28.5113 4.53696 33.8085 10.0749 33.8085 16.8821Z" fill="#F66801"/>
<path d="M22.5379 11.5951C22.2852 11.3309 21.8754 11.3309 21.6227 11.5951L17.984 15.3992C17.7313 15.6634 17.7313 16.0918 17.984 16.3561C18.1103 16.4881 18.276 16.5542 18.4416 16.5542C18.6071 16.5542 18.7728 16.4882 18.8991 16.3561L22.5378 12.552C22.7907 12.2878 22.7907 11.8594 22.5379 11.5951Z" fill="#F66801"/>
<path d="M19.447 21.8613C19.6126 21.8613 19.7783 21.7953 19.9046 21.6631L27.6143 13.6029C27.867 13.3387 27.867 12.9103 27.6143 12.6462C27.3615 12.3819 26.9518 12.3819 26.6991 12.6462L18.9894 20.7064C18.7366 20.9706 18.7366 21.399 18.9894 21.6631C19.1158 21.7953 19.2813 21.8613 19.447 21.8613Z" fill="#F66801"/>
</g>
<defs>
<clipPath id="clip0_72_2246">
<rect width="44" height="46" fill="white"/>
</clipPath>
</defs>
</svg>
