<svg width="45" height="48" viewBox="0 0 45 48" fill="none" xmlns="http://www.w3.org/2000/svg">
<path d="M34.6023 19.2121C32.3863 16.7273 29.4318 14.9697 26.1363 14.2424V12.0606C26.1363 11.5758 25.9659 11.0909 25.625 10.7879C25.2841 10.4848 24.8863 10.2424 24.4318 10.2424H23.5227L23.4659 0.909091C23.4659 0.363636 23.0682 0 22.6136 0C22.1023 0 21.7613 0.424242 21.7613 0.909091L21.8182 10.2424H20.9091C20.4545 10.2424 20 10.4242 19.7159 10.7879C19.4318 11.1515 19.2045 11.5758 19.2045 12.0606V14.1818C15.7386 14.9697 12.7273 16.7273 10.3977 19.2121C7.2727 22.5455 5.39771 27.0909 5.39771 32.1818C5.39771 32.7273 5.79543 33.0909 6.24998 33.0909H15.3409C15.5682 34.8485 16.25 36.4242 17.3863 37.6364C18.6932 39.0303 20.5113 39.8788 22.5 39.8788C24.4886 39.8788 26.3068 39.0303 27.6136 37.6364C28.75 36.4242 29.4318 34.8485 29.6591 33.0909H38.75C39.2613 33.0909 39.6023 32.6667 39.6023 32.1818C39.6023 27.1515 37.6704 22.5455 34.6023 19.2121ZM20.8523 12.1212H24.375V13.9394C24.3182 13.9394 24.3182 13.9394 24.2613 13.9394C24.1477 13.9394 24.0909 13.9394 23.9773 13.9394C23.5227 13.8788 23.0113 13.8788 22.5568 13.8788C22.1023 13.8182 21.6477 13.8788 21.1932 13.8788C21.0795 13.8788 20.9659 13.8788 20.8523 13.9394V12.1212ZM26.4204 36.303C25.3977 37.3939 24.0341 38 22.5568 38C21.0227 38 19.6591 37.3333 18.6932 36.303C17.8977 35.4545 17.3295 34.3636 17.1591 33.0909H22.5568H28.0113C27.7841 34.303 27.2727 35.4545 26.4204 36.303ZM28.9204 31.2121H22.5568H16.1932H7.15907C7.38634 27.0303 9.03407 23.2727 11.6477 20.5455C14.0341 18 17.1591 16.303 20.6818 15.8788C20.7954 15.8788 20.9659 15.8182 21.0795 15.8182C21.5341 15.7576 22.0454 15.7576 22.5 15.7576C23.0113 15.7576 23.4659 15.7576 23.9773 15.8182C24.0909 15.8182 24.2613 15.8788 24.375 15.8788C27.8977 16.303 31.0227 18 33.4091 20.5455C36.0227 23.3333 37.6704 27.0303 37.8977 31.2121H28.9204Z" fill="#F66801"/>
<path d="M22.5569 41.1515C22.0455 41.1515 21.7046 41.5757 21.7046 42.0606V47.0909C21.7046 47.6363 22.1023 48 22.5569 48C23.0682 48 23.4091 47.5757 23.4091 47.0909V42.0606C23.4091 41.5151 23.0682 41.1515 22.5569 41.1515Z" fill="#F66801"/>
<path d="M30.3409 44.6061L27.9545 40.2425C27.7272 39.8182 27.159 39.6364 26.7613 39.8788C26.3636 40.1213 26.1931 40.7273 26.4204 41.1516L28.8068 45.5152C29.034 45.9394 29.6022 46.1213 29.9999 45.8788C30.3977 45.6364 30.5681 45.0304 30.3409 44.6061Z" fill="#F66801"/>
<path d="M35.1135 38.8484L31.0226 36.303C30.6249 36.0606 30.0567 36.1818 29.8295 36.6666C29.6022 37.0909 29.7158 37.6969 30.1704 37.9393L34.2613 40.4848C34.659 40.7272 35.2272 40.606 35.4545 40.1212C35.6817 39.6969 35.5681 39.0909 35.1135 38.8484Z" fill="#F66801"/>
<path d="M15.2842 36.6667C15.0569 36.2424 14.4887 36.0606 14.091 36.303L10.0001 38.8485C9.60235 39.0909 9.4319 39.697 9.65917 40.1212C9.88644 40.5455 10.4546 40.7273 10.8524 40.4849L14.9433 37.9394C15.341 37.6364 15.5114 37.0909 15.2842 36.6667Z" fill="#F66801"/>
<path d="M18.3524 39.8788C17.9546 39.6364 17.3865 39.8182 17.1592 40.2425L14.7728 44.6061C14.5455 45.0304 14.6592 45.6364 15.1137 45.8788C15.5115 46.1213 16.0796 46.0001 16.3069 45.5152L18.6933 41.1516C18.9205 40.7273 18.8069 40.1213 18.3524 39.8788Z" fill="#F66801"/>
</svg>
