<svg width="41" height="42" viewBox="0 0 41 42" fill="none" xmlns="http://www.w3.org/2000/svg">
<g clip-path="url(#clip0_72_2252)">
<path d="M6.83333 23.646C6.45978 23.2965 5.97261 23.1018 5.46667 23.1H2.05C0.917816 23.1 0 24.0402 0 25.2V39.9C0 41.0598 0.917816 42 2.05 42H5.46667C6.04647 41.9981 6.5981 41.7436 6.98367 41.3H24.1217C25.1244 41.3004 26.1079 41.018 26.9643 40.4838L39.77 32.4982C40.3759 32.1239 40.8025 31.5083 40.9478 30.799C41.0931 30.0896 40.9439 29.3503 40.536 28.7581C40.522 28.7336 40.5062 28.7102 40.4889 28.6881C39.8274 27.7885 38.68 27.4206 37.6359 27.7732L35.5333 28.49V19.6H37.5833C37.8317 19.6 38.0606 19.4619 38.181 19.2393C38.3014 19.0168 38.2945 18.7448 38.1628 18.529L34.3976 12.362C34.2682 12.1494 34.038 12.0237 33.7936 12.0322C33.5492 12.0407 33.3278 12.1821 33.2127 12.4032C33.0977 12.6243 33.1066 12.8914 33.236 13.104L36.3533 18.2H17.4619L11.48 8.4H21.8667C22.2441 8.4 22.55 8.0866 22.55 7.7C22.55 7.3134 22.2441 7 21.8667 7H10.25C10.0152 7.00165 9.79768 7.12668 9.67395 7.3311H9.67053L2.8372 18.5311C2.70664 18.7468 2.70026 19.018 2.82054 19.2399C2.94083 19.4617 3.16892 19.5995 3.41667 19.6H6.83333V23.646ZM5.46667 40.6H2.05C1.67261 40.6 1.36667 40.2866 1.36667 39.9V25.2C1.36667 24.8134 1.67261 24.5 2.05 24.5H5.46667C5.84406 24.5 6.15 24.8134 6.15 25.2V39.9C6.15 40.2866 5.84406 40.6 5.46667 40.6ZM38.0617 29.099C38.5304 28.9403 39.0461 29.093 39.36 29.4833C39.3702 29.5008 39.3812 29.5169 39.3928 29.5337C39.5951 29.8077 39.674 30.1569 39.61 30.4941C39.546 30.8314 39.3451 31.1248 39.0573 31.3012L26.2537 39.2882C25.6112 39.6886 24.8737 39.9002 24.1217 39.9H7.51667V25.9H8.74667C10.0075 25.9015 11.2305 26.341 12.216 27.1467C13.4434 28.1498 14.9664 28.6973 16.5367 28.7H20.1105C21.1948 28.6963 22.1771 29.3541 22.6088 30.373C22.8792 30.9711 22.8068 31.6731 22.4202 32.2H18.2587C16.9095 32.2009 15.5906 32.61 14.4675 33.376L13.9687 33.719C13.6555 33.9347 13.5722 34.3697 13.7828 34.6906C13.9934 35.0115 14.4181 35.0967 14.7313 34.881L15.226 34.5408C16.1243 33.9278 17.1793 33.6004 18.2587 33.6H24.3335C24.7021 33.6005 25.0683 33.5388 25.4173 33.4173L38.0617 29.099ZM34.1667 28.9534L24.9799 32.0908C24.7718 32.1633 24.5534 32.2002 24.3335 32.2H23.9611C24.2228 31.4289 24.1913 30.5852 23.8729 29.8368C23.3813 28.6616 22.3895 27.7832 21.1833 27.4547V19.6H34.1667V28.9534ZM17.0833 19.6H19.8167V27.3H16.5367C15.2758 27.2985 14.0528 26.859 13.0674 26.0533C11.8399 25.0502 10.3169 24.5027 8.74667 24.5H8.2V19.1009L12.3 12.3809L16.5039 19.271C16.6287 19.4757 16.8477 19.6 17.0833 19.6ZM10.25 9.0209L11.4943 11.06L7.1381 18.2H4.64667L10.25 9.0209Z" fill="#F66801"/>
<path d="M30.7437 6.31729e-08C30.3739 -0.000159257 30.0711 0.301051 30.0604 0.6797V0.6944V0.7C30.0604 0.9576 29.9982 7 24.5869 7C24.2095 7 23.9036 7.3134 23.9036 7.7C23.9036 8.0866 24.2095 8.4 24.5869 8.4C29.977 8.4 30.059 14.4438 30.0604 14.7C30.0553 15.0866 30.3571 15.4042 30.7345 15.4095C31.1119 15.4147 31.422 15.1055 31.4271 14.7189V14.7042V14.7C31.4271 14.4424 31.4892 8.4 36.8999 8.4C37.2773 8.4 37.5832 8.0866 37.5832 7.7C37.5832 7.3134 37.2773 7 36.8999 7C31.5104 7 31.4278 0.9562 31.4271 0.7C31.4271 0.313401 31.1211 6.31729e-08 30.7437 6.31729e-08ZM33.7853 7.7C32.386 8.45615 31.3044 9.70973 30.7437 11.2252C30.1831 9.70973 29.1015 8.45615 27.7022 7.7C29.1015 6.94385 30.1831 5.69027 30.7437 4.1748C31.3044 5.69027 32.386 6.94385 33.7853 7.7Z" fill="#F66801"/>
<path d="M32.1166 22.4C31.7392 22.4 31.4333 22.7134 31.4333 23.1V26.7953L27.8007 28.0357C27.4421 28.1579 27.2482 28.5547 27.3674 28.9219C27.4867 29.2892 27.874 29.4879 28.2325 29.3657L32.3325 27.9657C32.6122 27.8703 32.8006 27.602 32.7999 27.3V23.1C32.7999 22.7134 32.494 22.4 32.1166 22.4Z" fill="#F66801"/>
</g>
<defs>
<clipPath id="clip0_72_2252">
<rect width="41" height="42" fill="white"/>
</clipPath>
</defs>
</svg>
