<svg width="47" height="47" viewBox="0 0 47 47" fill="none" xmlns="http://www.w3.org/2000/svg">
<g clip-path="url(#clip0_72_2237)">
<path d="M30.1813 19.9032V16.722C30.8164 15.928 33.0056 12.9664 33.0056 9.87132C33.0056 8.33767 32.3723 6.94915 31.3536 5.95003V0.66721C31.3536 -0.194395 29.9766 -0.233592 29.9766 0.66721V4.96257C29.2266 4.58253 28.3794 4.36672 27.482 4.36672C25.9679 4.36672 24.5336 4.98635 23.5001 6.05752C22.4665 4.98625 21.0323 4.36672 19.5182 4.36672C18.6208 4.36672 17.7735 4.58244 17.0235 4.96257V0.66721C17.0235 -0.194395 15.6466 -0.233592 15.6466 0.66721V5.95012C14.6278 6.94933 13.9946 8.33776 13.9946 9.87141C13.9946 13.041 16.1751 15.94 16.8188 16.7267V19.9032L6.06243 37.92C5.26848 39.25 5.89004 41.0255 7.3363 41.5758C8.95229 42.1906 10.6356 42.7149 12.3478 43.1386C12.3822 44.1655 13.0431 45.0966 14.0767 45.4398C17.1276 46.4526 20.3059 46.9754 23.5232 46.9935C23.5807 46.9938 23.6381 46.994 23.6953 46.994C26.9346 46.994 30.0534 46.4783 32.9679 45.4609C33.9933 45.103 34.6438 44.1551 34.662 43.1251C36.3672 42.7028 38.0447 42.1821 39.6563 41.5728C41.1056 41.0248 41.7298 39.247 40.9349 37.9154L30.1813 19.9032ZM15.3716 9.87141C15.3716 7.5954 17.2317 5.74367 19.5182 5.74367C20.8815 5.74367 22.1585 6.41223 22.9342 7.53215C23.2036 7.92118 23.7966 7.92118 24.066 7.53215C24.8417 6.41223 26.1187 5.74367 27.482 5.74367C29.7684 5.74367 31.6286 7.5954 31.6286 9.87141C31.6286 12.412 29.7748 15.0024 29.1639 15.7868H27.0366C26.1749 15.7868 26.1358 17.1638 27.0366 17.1638H28.8044V19.4047H18.1958V17.1638H23.3776C24.2392 17.1638 24.2784 15.7868 23.3776 15.7868H17.8313C17.2221 15.022 15.3716 12.4831 15.3716 9.87141ZM32.5142 44.1609C29.6967 45.1445 26.6737 45.6337 23.5311 45.6166C20.4588 45.5993 17.424 45.1001 14.5106 44.1328C13.9291 43.9398 13.5988 43.2937 13.7739 42.7125L15.0936 38.3284C15.342 37.5035 14.0346 37.0689 13.7751 37.9316L12.6147 41.7865C10.9783 41.3788 9.37024 40.8763 7.82594 40.2888C7.16749 40.0382 6.88282 39.2321 7.24469 38.6259L17.8981 20.7816H18.9377L14.8263 34.4396C14.581 35.254 15.8759 35.73 16.1448 34.8365L20.3756 20.7817H26.6245L33.234 42.7387C33.2352 42.7443 33.2358 42.75 33.2371 42.7556C33.2386 42.7624 33.2417 42.7684 33.2434 42.7751C33.4021 43.3564 33.0872 43.9609 32.5142 44.1609ZM39.8508 39.5862C39.7382 39.9091 39.4898 40.1637 39.1694 40.2848C37.6247 40.8688 36.0172 41.3692 34.3824 41.7761L28.0626 20.7816H29.1021L39.7527 38.6212C39.927 38.9134 39.9628 39.265 39.8508 39.5862Z" fill="#F66801"/>
<path d="M3.08557 6.87423V5.854H4.1058C4.48611 5.854 4.79428 5.54575 4.79428 5.16552C4.79428 4.7853 4.48611 4.47705 4.1058 4.47705H3.08557V3.45691C3.08557 3.07669 2.77741 2.76843 2.39709 2.76843C2.01678 2.76843 1.70862 3.07669 1.70862 3.45691V4.47705H0.688477C0.308162 4.47705 0 4.7853 0 5.16552C0 5.54575 0.308162 5.854 0.688477 5.854H1.70862V6.87423C1.70862 7.25445 2.01678 7.56271 2.39709 7.56271C2.77741 7.56271 3.08557 7.25445 3.08557 6.87423Z" fill="#F66801"/>
<path d="M7.44189 19.1638H8.46203V20.1839C8.46203 20.5641 8.7702 20.8724 9.15051 20.8724C9.53082 20.8724 9.83899 20.5641 9.83899 20.1839V19.1638H10.8592C11.2395 19.1638 11.5477 18.8555 11.5477 18.4753C11.5477 18.0951 11.2395 17.7868 10.8592 17.7868H9.83899V16.7666C9.83899 16.3864 9.53082 16.0781 9.15051 16.0781C8.7702 16.0781 8.46203 16.3864 8.46203 16.7666V17.7868H7.44189C7.06158 17.7868 6.75342 18.0951 6.75342 18.4753C6.75342 18.8555 7.06167 19.1638 7.44189 19.1638Z" fill="#F66801"/>
<path d="M6.92449 26.1862C6.92449 25.806 6.61633 25.4978 6.23602 25.4978H5.21579V24.4775C5.21579 24.0973 4.90762 23.7891 4.52731 23.7891C4.147 23.7891 3.83883 24.0973 3.83883 24.4775V25.4978H2.8186C2.43829 25.4978 2.13013 25.806 2.13013 26.1862C2.13013 26.5665 2.43829 26.8747 2.8186 26.8747H3.83883V27.8949C3.83883 28.2751 4.147 28.5833 4.52731 28.5833C4.90762 28.5833 5.21579 28.2751 5.21579 27.8949V26.8747H6.23593C6.61624 26.8747 6.92449 26.5665 6.92449 26.1862Z" fill="#F66801"/>
<path d="M46.3116 4.47705H45.2915V3.45691C45.2915 3.07669 44.9833 2.76843 44.603 2.76843C44.2227 2.76843 43.9145 3.07669 43.9145 3.45691V4.47705H42.8943C42.514 4.47705 42.2058 4.7853 42.2058 5.16552C42.2058 5.54575 42.514 5.854 42.8943 5.854H43.9145V6.87423C43.9145 7.25445 44.2227 7.56271 44.603 7.56271C44.9833 7.56271 45.2915 7.25445 45.2915 6.87423V5.854H46.3116C46.6919 5.854 47.0001 5.54575 47.0001 5.16552C47.0001 4.7853 46.6919 4.47705 46.3116 4.47705Z" fill="#F66801"/>
<path d="M36.1409 19.1638H37.1611V20.1839C37.1611 20.5641 37.4693 20.8724 37.8496 20.8724C38.2299 20.8724 38.5381 20.5641 38.5381 20.1839V19.1638H39.5582C39.9385 19.1638 40.2467 18.8555 40.2467 18.4753C40.2467 18.0951 39.9385 17.7868 39.5582 17.7868H38.5381V16.7666C38.5381 16.3864 38.2299 16.0781 37.8496 16.0781C37.4693 16.0781 37.1611 16.3864 37.1611 16.7666V17.7868H36.1409C35.7606 17.7868 35.4524 18.0951 35.4524 18.4753C35.4524 18.8555 35.7606 19.1638 36.1409 19.1638Z" fill="#F66801"/>
<path d="M44.1815 25.4978H43.1613V24.4775C43.1613 24.0973 42.8531 23.7891 42.4728 23.7891C42.0925 23.7891 41.7843 24.0973 41.7843 24.4775V25.4978H40.7642C40.3838 25.4978 40.0757 25.806 40.0757 26.1862C40.0757 26.5665 40.3838 26.8747 40.7642 26.8747H41.7843V27.8949C41.7843 28.2751 42.0925 28.5833 42.4728 28.5833C42.8531 28.5833 43.1613 28.2751 43.1613 27.8949V26.8747H44.1815C44.5618 26.8747 44.87 26.5665 44.87 26.1862C44.87 25.806 44.5617 25.4978 44.1815 25.4978Z" fill="#F66801"/>
</g>
<defs>
<clipPath id="clip0_72_2237">
<rect width="47" height="47" fill="white"/>
</clipPath>
</defs>
</svg>
