<svg width="46" height="48" viewBox="0 0 46 48" fill="none" xmlns="http://www.w3.org/2000/svg">
<g clip-path="url(#clip0_72_2190)">
<path d="M43.9782 43.7812H33.8088C33.8286 43.6742 33.8398 43.5642 33.8398 43.4512V43.0095C33.8398 41.2618 32.4773 39.84 30.8024 39.84H23.4318V38.6609C23.4318 37.7603 22.7296 37.0275 21.8664 37.0275H21.4552V36.4643L45.5659 3.54097C45.9083 3.07344 46.0557 2.49463 45.981 1.91141C45.9063 1.328 45.6183 0.810032 45.1703 0.45275C44.7222 0.0953754 44.1675 -0.0579996 43.6086 0.0195316C43.0495 0.0975316 42.5531 0.398 42.2108 0.865532L37.7101 7.01141C37.4841 7.31994 37.5407 7.76122 37.8363 7.997C38.132 8.23288 38.555 8.17381 38.7809 7.86528L43.2815 1.71959C43.4054 1.55047 43.5849 1.44181 43.7871 1.41359C43.9896 1.385 44.1898 1.44106 44.352 1.57025C44.5141 1.69953 44.6182 1.88684 44.6452 2.09778C44.6723 2.30881 44.6189 2.51806 44.4951 2.68728L21.0737 34.6694C20.7966 34.2123 20.3858 33.8521 19.8989 33.6489L36.8723 10.4713C37.0984 10.1627 37.0418 9.72144 36.7461 9.48566C36.4504 9.24978 36.0274 9.30894 35.8016 9.61738L18.2528 33.5805C17.2466 33.9068 16.5139 34.8874 16.5139 36.0432V37.0276H16.1027C15.2396 37.0276 14.5373 37.7603 14.5373 38.661V39.8401H11.7625C11.3904 39.8401 11.0887 40.1548 11.0887 40.5433C11.0887 40.9317 11.3904 41.2464 11.7625 41.2464H30.8024C31.7342 41.2464 32.4922 42.0373 32.4922 43.0096V43.4513C32.4922 43.6332 32.3503 43.7813 32.1759 43.7813H5.79322C5.61883 43.7813 5.47696 43.6333 5.47696 43.4513V43.0096C5.47696 42.0374 6.23498 41.2464 7.16675 41.2464H8.61116C8.9833 41.2464 9.28499 40.9317 9.28499 40.5433C9.28499 40.1548 8.9833 39.8401 8.61116 39.8401H7.16675C5.49197 39.8401 4.1294 41.2619 4.1294 43.0096V43.4513C4.1294 43.5642 4.14063 43.6743 4.16039 43.7813H2.02148C0.906793 43.7812 0 44.7275 0 45.8906C0 47.0536 0.906793 47.9999 2.02148 47.9999H36.9186C37.2908 47.9999 37.5924 47.6852 37.5924 47.2968C37.5924 46.9084 37.2908 46.5937 36.9186 46.5937H2.02148C1.64989 46.5937 1.34766 46.2783 1.34766 45.8906C1.34766 45.5028 1.64989 45.1874 2.02148 45.1874H43.9782C44.3498 45.1874 44.6521 45.5028 44.6521 45.8906C44.6521 46.2783 44.3498 46.5937 43.9782 46.5937H40.0631C39.6909 46.5937 39.3893 46.9084 39.3893 47.2968C39.3893 47.6852 39.6909 47.9999 40.0631 47.9999H43.9782C45.0928 47.9999 45.9997 47.0536 45.9997 45.8906C45.9997 44.7275 45.0928 43.7812 43.9782 43.7812ZM17.8615 36.0432C17.8615 35.3969 18.3652 34.8713 18.9845 34.8713C19.6038 34.8713 20.1076 35.3969 20.1076 36.0432V37.0275H17.8615V36.0432ZM15.885 39.8401V38.661C15.885 38.5358 15.9827 38.4339 16.1027 38.4339H21.8664C21.9865 38.4339 22.0841 38.5358 22.0841 38.661V39.8401H15.885Z" fill="#F66801"/>
<path d="M8.70947 18.2345H20.6918C21.064 18.2345 21.3657 17.9198 21.3657 17.5314C21.3657 17.143 21.064 16.8282 20.6918 16.8282H8.70947C8.33734 16.8282 8.03564 17.143 8.03564 17.5314C8.03564 17.9198 8.33734 18.2345 8.70947 18.2345Z" fill="#F66801"/>
<path d="M6.43506 22.4532H18.4173C18.7895 22.4532 19.0912 22.1385 19.0912 21.7501C19.0912 21.3617 18.7895 21.047 18.4173 21.047H6.43506C6.06293 21.047 5.76123 21.3617 5.76123 21.7501C5.76123 22.1385 6.06293 22.4532 6.43506 22.4532Z" fill="#F66801"/>
<path d="M4.16064 26.672H16.1429C16.5151 26.672 16.8168 26.3573 16.8168 25.9689C16.8168 25.5805 16.5151 25.2657 16.1429 25.2657H4.16064C3.78851 25.2657 3.48682 25.5805 3.48682 25.9689C3.48682 26.3572 3.78851 26.672 4.16064 26.672Z" fill="#F66801"/>
<path d="M40.4907 26.7919L39.3627 24.6399C39.1711 24.2742 38.804 24.047 38.4046 24.047C38.0053 24.047 37.6381 24.2742 37.4464 24.6398L36.3183 26.7919L34.2557 27.9691C33.9053 28.1691 33.6877 28.5522 33.6877 28.9689C33.6877 29.3856 33.9053 29.7687 34.2557 29.9686L36.3183 31.1458L37.4464 33.2981C37.6381 33.6637 38.0053 33.8908 38.4046 33.8907C38.804 33.8907 39.1711 33.6635 39.3626 33.298L40.4907 31.1458L42.5533 29.9686C42.9036 29.7687 43.1213 29.3856 43.1213 28.9689C43.1213 28.5522 42.9036 28.1691 42.5533 27.9691L40.4907 26.7919ZM39.7786 29.9493C39.5951 30.0539 39.4449 30.2105 39.3442 30.4025L38.4045 32.1954L37.4646 30.4022C37.3641 30.2105 37.2139 30.0539 37.0306 29.9495L35.3125 28.9689L37.0304 27.9884C37.2139 27.8838 37.3641 27.7272 37.4648 27.5352L38.4045 25.7424L39.3444 27.5355C39.4449 27.7272 39.5951 27.8838 39.7783 27.9882L41.4965 28.9689L39.7786 29.9493Z" fill="#F66801"/>
</g>
<defs>
<clipPath id="clip0_72_2190">
<rect width="46" height="48" fill="white"/>
</clipPath>
</defs>
</svg>
