<svg width="1008" height="30" viewBox="0 0 1008 30" fill="none" xmlns="http://www.w3.org/2000/svg">
<path d="M0 2C0 0.89543 0.895431 0 2 0H1006C1007.1 0 1008 0.895431 1008 2V18H0V2Z" fill="#A3ACB1"/>
<path d="M0 2C0 0.89543 0.895431 0 2 0H1006C1007.1 0 1008 0.895431 1008 2V18H0V2Z" fill="url(#paint0_linear_407_355)"/>
<path d="M0 18H1008L987.646 22.105C961.613 27.3553 935.123 30 908.566 30H97.9089C68.724 30 39.6267 26.8059 11.1367 20.4748L0 18Z" fill="#647279"/>
<path d="M0 18H1008L987.646 22.105C961.613 27.3553 935.123 30 908.566 30H97.9089C68.724 30 39.6267 26.8059 11.1367 20.4748L0 18Z" fill="url(#paint1_linear_407_355)"/>
<path fill-rule="evenodd" clip-rule="evenodd" d="M421.033 0C421.547 7.81803 428.052 14 436 14H573C580.948 14 587.453 7.81803 587.967 0H421.033Z" fill="#96A1A8"/>
<path fill-rule="evenodd" clip-rule="evenodd" d="M421.033 0C421.547 7.81803 428.052 14 436 14H573C580.948 14 587.453 7.81803 587.967 0H421.033Z" fill="url(#paint2_linear_407_355)"/>
<defs>
<linearGradient id="paint0_linear_407_355" x1="-1.94452e-10" y1="9.00021" x2="1008" y2="9.00021" gradientUnits="userSpaceOnUse">
<stop stop-color="#0D1012"/>
<stop offset="0.0295345" stop-color="#CAD4DB"/>
<stop offset="0.0625" stop-color="#242729"/>
<stop offset="0.133609" stop-color="#A3ACB1"/>
<stop offset="0.865967" stop-color="#A3ACB1"/>
<stop offset="0.941937" stop-color="#242729"/>
<stop offset="0.971275" stop-color="#CAD4DB"/>
<stop offset="0.996436" stop-color="#0D1012"/>
</linearGradient>
<linearGradient id="paint1_linear_407_355" x1="504" y1="18" x2="504" y2="30" gradientUnits="userSpaceOnUse">
<stop stop-color="#7A7F83"/>
<stop offset="1" stop-color="#0B0B0E"/>
</linearGradient>
<linearGradient id="paint2_linear_407_355" x1="437.5" y1="8.49998" x2="574.5" y2="8.49998" gradientUnits="userSpaceOnUse">
<stop stop-color="#3C3C3C"/>
<stop offset="0.317518" stop-color="#3C3C3C" stop-opacity="0"/>
<stop offset="0.660584" stop-color="#3C3C3C" stop-opacity="0"/>
<stop offset="1" stop-color="#444444"/>
</linearGradient>
</defs>
</svg>
