<svg width="1440" height="934" viewBox="0 0 1440 934" fill="none" xmlns="http://www.w3.org/2000/svg">
<path d="M602.798 412L298 -46L500.601 -28.0392L653 388.651L602.798 412Z" fill="url(#paint0_linear_2271_66)"/>
<path d="M804.343 412L1110 -46L906.828 -28.0392L754 388.651L804.343 412Z" fill="url(#paint1_linear_2271_66)"/>
<path d="M571.741 435.369L-18.221 311.234L-10.7277 145.995L579.285 385.608L571.741 435.369Z" fill="url(#paint2_linear_2271_66)"/>
<path d="M850.849 445.492L1483.5 311.5L1521 124L843.305 395.73L850.849 445.492Z" fill="url(#paint3_linear_2271_66)"/>
<path d="M605.798 640L301 1107L503.601 1088.69L656 663.808L605.798 640Z" fill="url(#paint4_linear_2271_66)"/>
<path d="M807.343 640L1113 1107L909.828 1088.69L757 663.808L807.343 640Z" fill="url(#paint5_linear_2271_66)"/>
<path d="M829.99 566.575L1455.66 824.602L1463.06 1027.51L814.04 617.161L829.99 566.575Z" fill="url(#paint6_linear_2271_66)"/>
<path d="M598.311 579.019L-27.9687 826.355L-32.1414 1029.01L615.204 629.843L598.311 579.019Z" fill="url(#paint7_linear_2271_66)"/>
<path d="M601.768 556.513L-2.97956 628.657L-44.0526 464.464L594.494 505.331L601.768 556.513Z" fill="url(#paint8_linear_2271_66)"/>
<path d="M763.233 549.153L1507.5 629.5L1521 442L771.189 499.455L763.233 549.153Z" fill="url(#paint9_linear_2271_66)"/>
<defs>
<linearGradient id="paint0_linear_2271_66" x1="475.5" y1="-46" x2="475.5" y2="412" gradientUnits="userSpaceOnUse">
<stop stop-color="#F56221"/>
<stop offset="1" stop-color="#FFB800"/>
</linearGradient>
<linearGradient id="paint1_linear_2271_66" x1="932" y1="-46" x2="932" y2="412" gradientUnits="userSpaceOnUse">
<stop stop-color="#F56221"/>
<stop offset="1" stop-color="#FFB800"/>
</linearGradient>
<linearGradient id="paint2_linear_2271_66" x1="20.8514" y1="111.397" x2="482.686" y2="532.937" gradientUnits="userSpaceOnUse">
<stop stop-color="#F56221"/>
<stop offset="1" stop-color="#FFB800"/>
</linearGradient>
<linearGradient id="paint3_linear_2271_66" x1="1472.81" y1="71.2038" x2="947.151" y2="550.999" gradientUnits="userSpaceOnUse">
<stop stop-color="#F56221"/>
<stop offset="1" stop-color="#FFB800"/>
</linearGradient>
<linearGradient id="paint4_linear_2271_66" x1="478.5" y1="1107" x2="478.5" y2="640" gradientUnits="userSpaceOnUse">
<stop stop-color="#F56221"/>
<stop offset="1" stop-color="#FFB800"/>
</linearGradient>
<linearGradient id="paint5_linear_2271_66" x1="935" y1="1107" x2="935" y2="640" gradientUnits="userSpaceOnUse">
<stop stop-color="#F56221"/>
<stop offset="1" stop-color="#FFB800"/>
</linearGradient>
<linearGradient id="paint6_linear_2271_66" x1="1404.99" y1="1073.68" x2="935.239" y2="482.89" gradientUnits="userSpaceOnUse">
<stop stop-color="#F56221"/>
<stop offset="1" stop-color="#FFB800"/>
</linearGradient>
<linearGradient id="paint7_linear_2271_66" x1="27.1249" y1="1076.14" x2="490.531" y2="493.322" gradientUnits="userSpaceOnUse">
<stop stop-color="#F56221"/>
<stop offset="1" stop-color="#FFB800"/>
</linearGradient>
<linearGradient id="paint8_linear_2271_66" x1="-23.7358" y1="420.234" x2="544.474" y2="681.243" gradientUnits="userSpaceOnUse">
<stop stop-color="#F56221"/>
<stop offset="1" stop-color="#FFB800"/>
</linearGradient>
<linearGradient id="paint9_linear_2271_66" x1="1500.96" y1="398.369" x2="834.579" y2="704.472" gradientUnits="userSpaceOnUse">
<stop stop-color="#F56221"/>
<stop offset="1" stop-color="#FFB800"/>
</linearGradient>
</defs>
</svg>
