<svg width="16" height="16" viewBox="0 0 16 16" fill="none" xmlns="http://www.w3.org/2000/svg">
<g clip-path="url(#clip0_354_1150)">
<path d="M8.00003 0C4.67203 0 1.96466 2.70737 1.96466 6.03495C1.96466 10.8261 7.35245 15.6392 7.58192 15.8421C7.70192 15.9474 7.85098 16 8.00003 16C8.15498 16 8.30992 15.9432 8.43077 15.8299C8.6594 15.616 14.0354 10.5381 14.0354 6.03537C14.0354 2.70779 11.3272 0 8.00003 0ZM8.00003 8.91284C6.41056 8.91284 5.12256 7.624 5.12256 6.03579C5.12256 4.44758 6.41056 3.15874 8.00003 3.15874C9.58866 3.15874 10.8767 4.44716 10.8767 6.03579C10.8767 7.62442 9.58866 8.91284 8.00003 8.91284Z" fill="url(#paint0_linear_354_1150)"/>
</g>
<defs>
<linearGradient id="paint0_linear_354_1150" x1="8.70182" y1="-5.06667" x2="-1.66931" y2="8.73303" gradientUnits="userSpaceOnUse">
<stop stop-color="#FFA149"/>
<stop offset="1" stop-color="#FF820E"/>
</linearGradient>
<clipPath id="clip0_354_1150">
<rect width="16" height="16" fill="white"/>
</clipPath>
</defs>
</svg>
