<svg width="16" height="16" viewBox="0 0 16 16" fill="none" xmlns="http://www.w3.org/2000/svg">
<g clip-path="url(#clip0_354_1127)">
<path d="M0.334012 2.97363C2.52995 4.83334 6.38314 8.10516 7.51564 9.12531C7.66767 9.263 7.83073 9.333 8.00001 9.333C8.16895 9.333 8.33173 9.26366 8.48342 9.12663C9.61689 8.10547 13.4701 4.83334 15.666 2.97363C15.8028 2.85806 15.8236 2.65494 15.7129 2.51366C15.457 2.18719 15.0755 2 14.6667 2H1.33336C0.924512 2 0.542981 2.18719 0.287137 2.51369C0.17645 2.65494 0.197293 2.85806 0.334012 2.97363Z" fill="url(#paint0_linear_354_1127)"/>
<path d="M15.8067 3.98176C15.6885 3.92676 15.5495 3.94595 15.4512 4.02995C14.013 5.24901 12.1182 6.8597 10.6892 8.08885C10.614 8.15332 10.5717 8.24804 10.5733 8.34732C10.5749 8.44629 10.6208 8.5397 10.6983 8.60154C12.0261 9.66501 14.0271 11.1279 15.472 12.1676C15.5297 12.2093 15.598 12.2304 15.6667 12.2304C15.7188 12.2304 15.7709 12.2184 15.8187 12.1937C15.9301 12.1367 16 12.0221 16 11.8971V4.28417C16 4.15429 15.9245 4.03613 15.8067 3.98176Z" fill="url(#paint1_linear_354_1127)"/>
<path d="M0.528 12.1673C1.97331 11.1276 3.97463 9.66475 5.30209 8.60125C5.37956 8.53941 5.42547 8.44597 5.42709 8.34704C5.42872 8.24775 5.38641 8.15304 5.31122 8.08857C3.88216 6.85941 1.98697 5.24872 0.548844 4.02966C0.449875 3.94566 0.310562 3.92713 0.193375 3.98147C0.0755313 4.03585 0 4.154 0 4.28388V11.8968C0 12.0218 0.07 12.1364 0.181313 12.1934C0.229156 12.2182 0.28125 12.2302 0.333344 12.2302C0.402031 12.2302 0.470375 12.209 0.528 12.1673Z" fill="url(#paint2_linear_354_1127)"/>
<path d="M15.5915 13.0745C14.196 12.0761 11.6253 10.2148 10.0908 8.96936C9.9658 8.86748 9.7848 8.87073 9.66177 8.97686C9.36067 9.23954 9.1087 9.46092 8.92999 9.6217C8.38114 10.1171 7.61942 10.1171 7.0693 9.62104C6.89124 9.46058 6.6393 9.23854 6.33817 8.97683C6.21611 8.87004 6.0348 8.86679 5.90945 8.96933C4.38014 10.2105 1.80658 12.0741 0.408798 13.0745C0.330986 13.1305 0.280861 13.2167 0.271111 13.3121C0.261673 13.4075 0.293236 13.5022 0.358673 13.5725C0.610986 13.8444 0.966454 14.0003 1.33333 14.0003H14.6667C15.0335 14.0003 15.3887 13.8444 15.6416 13.5725C15.7067 13.5025 15.7386 13.4078 15.7292 13.3125C15.7194 13.2171 15.6693 13.1305 15.5915 13.0745Z" fill="url(#paint3_linear_354_1127)"/>
</g>
<defs>
<linearGradient id="paint0_linear_354_1127" x1="8.90514" y1="-0.322117" x2="6.43798" y2="8.91583" gradientUnits="userSpaceOnUse">
<stop stop-color="#FFA149"/>
<stop offset="1" stop-color="#FF820E"/>
</linearGradient>
<linearGradient id="paint1_linear_354_1127" x1="13.6022" y1="1.32876" x2="8.07303" y2="7.72038" gradientUnits="userSpaceOnUse">
<stop stop-color="#FFA149"/>
<stop offset="1" stop-color="#FF820E"/>
</linearGradient>
<linearGradient id="paint2_linear_354_1127" x1="3.0291" y1="1.32884" x2="-2.49977" y2="7.72078" gradientUnits="userSpaceOnUse">
<stop stop-color="#FFA149"/>
<stop offset="1" stop-color="#FF820E"/>
</linearGradient>
<linearGradient id="paint3_linear_354_1127" x1="8.89905" y1="7.27771" x2="7.65254" y2="13.9352" gradientUnits="userSpaceOnUse">
<stop stop-color="#FFA149"/>
<stop offset="1" stop-color="#FF820E"/>
</linearGradient>
<clipPath id="clip0_354_1127">
<rect width="16" height="16" fill="white"/>
</clipPath>
</defs>
</svg>
