<svg width="32" height="33" viewBox="0 0 32 33" fill="none" xmlns="http://www.w3.org/2000/svg">
<path fill-rule="evenodd" clip-rule="evenodd" d="M31.639 16.9848C31.639 15.8393 31.5364 14.7378 31.3458 13.6804H16.1626V19.9294H24.8387C24.465 21.9488 23.3292 23.6597 21.6218 24.8052V28.8586H26.8319C29.8803 26.0462 31.639 21.9047 31.639 16.9848Z" fill="#4285F4"/>
<path fill-rule="evenodd" clip-rule="evenodd" d="M16.1621 32.7724C20.5148 32.7724 24.1641 31.3259 26.8314 28.8586L21.6213 24.8052C20.1778 25.7745 18.3311 26.3472 16.1621 26.3472C11.9633 26.3472 8.40927 23.5054 7.14156 19.687H1.75562V23.8726C4.40829 29.1523 9.86018 32.7724 16.1621 32.7724Z" fill="#34A853"/>
<path fill-rule="evenodd" clip-rule="evenodd" d="M7.14216 19.687C6.81974 18.7177 6.63654 17.6823 6.63654 16.6175C6.63654 15.5528 6.81974 14.5174 7.14216 13.5481V9.36255H1.75621C0.664368 11.5435 0.0415039 14.0107 0.0415039 16.6175C0.0415039 19.2244 0.664368 21.6916 1.75621 23.8725L7.14216 19.687Z" fill="#F66801"/>
<path fill-rule="evenodd" clip-rule="evenodd" d="M16.1621 6.88812C18.529 6.88812 20.6541 7.7032 22.3248 9.304L26.9487 4.6705C24.1568 2.06369 20.5075 0.462891 16.1621 0.462891C9.86018 0.462891 4.40829 4.08305 1.75562 9.36275L7.14156 13.5483C8.40927 9.7299 11.9633 6.88812 16.1621 6.88812Z" fill="#EA4335"/>
</svg>
