<svg width="35" height="34" viewBox="0 0 35 34" fill="none" xmlns="http://www.w3.org/2000/svg">
<rect x="0.46875" width="33.9292" height="34" rx="16.9646" fill="#55ACE3"/>
<path d="M26.4246 12.665C25.8308 12.92 25.1523 13.09 24.4737 13.175C25.1523 12.75 25.746 12.0701 26.0005 11.3051C25.3219 11.7301 24.6433 11.9851 23.7951 12.1551C23.2013 11.4751 22.2683 11.05 21.3352 11.05C19.4691 11.05 17.9423 12.58 17.9423 14.45C17.9423 14.705 17.9423 14.96 18.0271 15.215C15.228 15.045 12.6833 13.685 10.9868 11.645C10.7324 12.155 10.5627 12.75 10.5627 13.345C10.5627 14.535 11.1565 15.555 12.0895 16.15C11.4958 16.15 10.9868 15.98 10.5627 15.725C10.5627 17.34 11.7502 18.785 13.277 19.04C13.0226 19.125 12.6833 19.125 12.344 19.125C12.0895 19.125 11.9199 19.125 11.6654 19.04C12.0895 20.4 13.3619 21.42 14.8887 21.42C13.7012 22.355 12.2592 22.865 10.6475 22.865C10.3931 22.865 10.1386 22.8651 9.79932 22.7801C11.3261 23.7151 13.1074 24.3101 15.0583 24.3101C21.3352 24.3101 24.7281 19.125 24.7281 14.62V14.195C25.4067 13.94 26.0005 13.345 26.4246 12.665Z" fill="white"/>
</svg>
