<svg width="191" height="64" viewBox="0 0 191 64" fill="none" xmlns="http://www.w3.org/2000/svg">
<path id="Vector" d="M148.139 42.7061V49.8174H111.905V13.4845H119.016V42.7061H148.139ZM80.7502 20.5959H104.486V13.4845H78.8376C72.9811 13.4845 68.2285 18.2321 68.2285 24.0936V39.2109C68.2285 45.0673 72.9811 49.82 78.8376 49.82H104.486V30.4414H97.3745V42.7061H80.7502C77.7641 42.7061 75.3373 40.2819 75.3373 37.2932V26.0062C75.3373 23.015 77.7615 20.5933 80.7502 20.5933V20.5959ZM190.5 21.43V14.3186H155.248V49.8174H190.5V42.7061H162.359V35.8795H189.6V28.7681H162.359V20.9609H190.5V21.43ZM61.5959 18.7512C58.7534 15.12 55.039 14.4849 51.1658 12.4034C48.7945 11.0326 47.6403 8.91074 47.3404 6.28997C47.222 5.24671 46.8743 4.66459 45.8007 4.2866C41.0153 2.39914 35.9023 1.76662 30.7994 2.2933C30.2198 2.42182 29.6477 2.5957 29.0455 2.57806L29.0152 2.5957C22.7758 3.84056 17.0277 7.08628 12.6581 11.7281C9.69712 15.1225 7.42914 19.0309 6.0986 23.3376C-1.74355 50.7826 29.1009 72.4266 52.2897 55.7822C36.4945 69.4556 10.0701 62.9112 2.84784 43.1798V43.1748C1.46689 40.1659 0.884778 36.8219 0.647901 33.5409L0.655461 33.546C0.315265 31.3536 0.589941 29.1209 0.937697 26.9462C0.983057 26.1499 1.10906 25.3662 1.38121 24.6127H1.37617C3.17291 15.7348 9.34684 7.8826 17.3604 3.75488C19.1445 2.71665 21.0244 1.91026 23.0353 1.42139C27.5234 0.0303645 32.4777 -0.46859 37.0791 0.509159C45.1103 1.48187 52.2645 6.03546 57.6622 11.8994C55.5152 8.10183 51.6975 5.6247 48.0032 3.44997C54.8978 2.58814 60.7165 8.20515 61.3061 14.9058C61.5027 16.1683 61.6992 17.4282 61.5934 18.7512H61.5959ZM5.02509 36.6506C5.05533 36.7111 5.08557 36.7741 5.11329 36.8345C5.09061 36.7715 5.06289 36.7085 5.02509 36.6506ZM16.6321 23.7383C16.7253 23.3149 16.8967 22.9319 17.184 22.6043C17.1688 22.3876 17.2696 22.2338 17.4485 22.123C17.4485 22.123 17.4485 22.123 17.4536 22.123H17.4485C28.2693 2.77965 58.005 11.1611 57.2061 33.236C57.254 33.3973 57.2414 33.5485 57.1482 33.6947C57.249 34.1735 57.1961 34.6422 57.0499 35.1033C56.2561 42.3835 51.3472 49.1496 44.5357 51.9267C27.1 60.0939 8.24057 41.1109 16.6346 23.7433L16.6321 23.7383ZM53.7387 26.0995C53.9377 26.9789 54.5828 26.3943 54.9306 26.359C55.3036 26.3187 54.913 25.9054 54.8928 25.656C54.8827 25.5174 54.797 25.3888 54.7416 25.2528C54.6736 25.2301 54.603 25.2124 54.5375 25.1872C53.5774 24.7488 53.7513 25.1872 53.7387 26.0995ZM26.6994 14.8276C26.6994 14.8276 26.6994 14.8327 26.6994 14.8352C26.6994 14.8327 26.7044 14.8302 26.7069 14.8276C26.7044 14.8276 26.6994 14.8276 26.6968 14.8276H26.6994ZM29.5999 49.7645C29.0329 48.3634 28.3323 47.0026 27.9871 45.5184C27.3117 44.7901 26.2155 44.7599 25.646 43.8753C25.1874 43.2857 24.759 42.6683 24.1819 42.1693C22.9068 40.7607 24.6909 39.6695 24.0232 38.3616C23.7334 38.1374 23.6704 37.6888 23.0051 38.0089C22.6321 38.2029 21.7426 37.6031 21.5359 36.895C20.7346 36.2852 20.0013 35.572 18.9303 35.4158C18.3759 35.3377 17.3805 34.3373 17.3351 33.866C17.2041 32.5657 16.4481 31.472 16.1256 30.2095C15.8685 31.1671 15.7476 32.1172 15.7274 33.0823C15.74 33.0823 15.7551 33.0873 15.7652 33.0899C15.7652 33.0899 15.7652 33.0949 15.7652 33.0974C15.7551 33.0974 15.7425 33.0974 15.7324 33.0924C16.118 41.8468 22.5414 50.5634 31.4016 52.0375C31.0992 51.1329 29.9199 50.6818 29.5999 49.767V49.7645ZM39.4227 31.6182C39.4126 29.6425 36.1644 34.3524 35.5016 34.6774C35.4789 33.9719 35.9628 33.7476 36.2072 33.3872C36.8926 32.5178 37.3362 31.4468 38.45 31.0311C38.7977 30.8874 39.3421 30.6783 39.1279 30.1113C38.896 29.4939 39.0044 28.6169 37.9586 28.5464C36.9027 28.4733 35.8317 28.3775 35.0228 27.5485C34.6247 28.7379 35.0102 30.3053 34.8918 31.6106C35.3252 31.7089 35.7587 31.7996 36.2047 32.0365C35.7435 32.4322 35.3051 31.9332 34.8968 32.092C35.0984 34.9244 34.9623 37.7619 34.9749 40.5969C34.9749 40.9975 35.0707 41.2722 35.5394 41.2395C39.4933 42.2348 35.9678 43.1546 36.0157 44.8959C36.0762 46.1761 35.0531 46.5087 34.0174 46.8338C33.536 47.6125 33.6041 48.7691 32.5533 49.132C32.4147 49.7393 31.9762 50.135 31.6083 50.576C32.2912 53.3429 35.9149 52.6978 38.0796 52.4861C37.9359 52.4357 37.7898 52.3903 37.6486 52.3374C37.7066 52.3298 37.7671 52.3248 37.8225 52.3122C36.9279 51.8863 36.0888 51.2916 35.6679 50.3366C35.2723 49.5352 35.3177 48.6331 35.3555 47.6755C35.6629 47.8468 35.8771 47.9728 35.8998 48.2702C36.9229 49.2303 38.5483 49.3437 39.211 50.8027C39.3219 48.9455 39.2589 47.1437 39.4151 45.3521C39.4202 40.7707 39.4227 36.192 39.4252 31.6132L39.4227 31.6182ZM34.3349 27.4527C33.7276 27.3796 33.5537 28.2263 32.9791 28.128C32.5986 28.8059 31.3286 29.4914 31.951 30.3355C32.145 30.1339 32.4802 30.0961 32.586 30.4036C32.7221 30.7639 33.0396 30.8521 33.2815 31.0537C33.2815 31.1067 33.2815 31.1495 33.2891 31.1848C33.3546 31.2175 33.4201 31.2503 33.4856 31.2805C33.7326 31.1646 34.0476 31.2049 34.2416 31.3738C34.1182 31.1117 34.2089 30.9076 34.4206 30.7337C34.2593 30.5825 34.2139 30.3784 34.224 30.1743C34.2744 29.2671 34.035 28.3422 34.3349 27.4502V27.4527ZM32.7574 40.3323C33.1026 40.5565 33.6041 40.675 34.0199 40.6599C34.0728 40.6195 34.1257 40.5742 34.1711 40.5238C34.229 38.3616 34.1736 34.0575 34.2971 31.9105C33.536 31.8778 32.8128 31.6888 32.1375 31.1545C32.3189 33.8181 32.1652 36.3583 32.2231 38.8833C32.3013 39.1529 32.4499 39.3848 32.6062 39.6116C32.7397 39.8207 32.8431 40.0425 32.7574 40.3297V40.3323ZM40.0426 30.7463C39.9872 31.3385 43.4244 31.5224 43.6487 32.1877C42.3963 31.8601 41.1842 32.1046 40.1636 31.409C39.8108 31.1671 39.71 31.2478 39.6823 31.6182C39.778 36.3054 39.6923 40.9925 39.836 45.6822C39.8612 47.0757 39.8763 48.4718 39.8687 49.8653C40.2971 49.8099 40.2518 49.3059 40.5567 49.132C41.1212 48.1643 42.1669 47.6528 42.2904 46.287C43.4421 48.0812 43.2153 50.2005 41.7537 51.7276C43.1019 51.4403 46.2947 50.3542 46.8541 49.1597C46.8491 49.1547 46.8415 49.1471 46.8365 49.1446C46.5492 49.1118 46.6021 48.9858 46.7331 48.812C47.4967 47.6578 47.9956 46.3575 48.4845 45.0774C48.477 45.0673 48.4719 45.0547 48.4669 45.0446C48.477 45.0446 48.4845 45.0497 48.4971 45.0522C49.0389 43.9963 50.2888 43.0034 49.8806 41.6981C49.2455 40.675 50.9188 39.158 49.6412 38.9362C49.4119 39.0874 49.2934 38.8959 49.2556 38.6842C48.5677 38.7296 46.9574 38.9009 46.2921 38.7724C45.9822 38.8858 45.7025 39.0622 45.3471 38.8052C44.8936 38.4448 43.4043 36.643 43.4899 36.1743C43.4899 36.1794 43.4824 36.1819 43.4799 36.1844C43.4723 36.1844 43.4647 36.1794 43.4572 36.1743C43.4673 36.1592 43.4799 36.1441 43.4925 36.129C43.243 35.3629 43.9486 34.4582 43.5202 33.5989C43.4874 33.5031 43.5403 33.3519 43.5958 33.2537C44.0418 32.4674 44.2913 31.5451 45.1682 31.0588C45.3723 30.9454 45.5613 30.7614 45.5639 30.4817C45.705 29.5896 46.5542 28.3674 47.5294 28.7404C48.4165 28.3448 49.3085 28.1154 50.2964 28.0827C51.4178 27.866 50.566 29.1184 51.1884 29.3981C51.7454 29.5619 52.1208 29.9727 52.587 30.2599C52.9549 30.4867 53.149 30.5321 53.1817 30.013C53.1767 29.0428 54.4694 30.4993 55.3288 30.1743C55.4321 27.1503 54.4291 29.5468 53.5824 27.11C53.28 27.0419 54.094 28.0776 53.2523 28.1583C52.9146 28.186 52.8365 27.7223 52.7105 27.4678C52.4459 26.9008 51.2943 25.0512 50.6391 25.341C51.2565 26.1045 52.8163 26.8202 51.8865 27.9819C51.6269 28.2465 51.4808 27.9718 51.2867 27.8408C51.9646 27.425 51.9898 27.1654 51.3396 26.7194C50.6895 26.4271 50.3946 25.4518 49.6412 25.5148C49.4875 25.7618 49.243 25.7593 48.9935 25.7467C48.7794 25.7366 48.6433 25.8046 48.5778 26.0491C48.414 26.6312 47.8167 27.0218 47.8621 27.7173C47.2069 28.7379 45.4555 28.1709 45.5513 26.8706C45.2867 24.8218 47.0305 26.3867 47.3858 25.5048C47.5899 24.5774 46.5643 24.4564 46.1611 23.8038C47.2724 23.9197 47.7285 22.9243 48.1368 22.2086C49.2607 21.7853 48.0208 21.3695 48.3056 20.9285C48.5702 20.7722 48.6408 21.1956 48.7995 21.3241C49.2153 21.9163 49.8277 22.07 50.5408 21.6341C51.012 21.3443 50.445 20.7622 50.7449 20.3741C50.1956 20.0843 50.6391 19.8348 50.9264 19.4997C48.8499 19.8903 49.5227 17.8944 48.6433 17.6349C48.1141 17.7558 48.739 18.8319 48.7668 19.2073C49.5631 19.4115 49.4648 20.2582 49.6437 20.8579C49.4698 21.9592 48.5752 20.2985 48.2476 20.0339C48.1872 20.0415 48.1216 20.0465 48.0612 20.044C47.416 20.7974 46.3551 19.0335 46.844 18.5093C46.9952 17.8239 46.6071 17.1788 46.5845 16.5437C46.907 15.8306 46.4484 15.5181 45.9368 15.2308C44.5912 14.5177 40.0476 12.3505 38.8028 13.0208C38.5155 14.1346 39.7881 13.2879 39.4529 16.0246C39.4983 16.4329 39.0573 16.7327 38.5886 16.763C38.0518 16.7957 37.6587 17.1712 37.1976 17.3274C35.5167 17.5568 35.4462 20.6463 33.589 19.3434C31.069 16.5841 34.156 16.4807 33.0573 15.8684C32.6717 15.6794 32.7019 15.3997 32.7448 15.0746C32.9489 13.8045 31.3563 14.7772 31.2933 13.8272C31.2807 13.4744 31.4999 13.3131 32.1047 13.1796C32.2005 13.1594 32.0719 13.0309 32.1148 13.1191C31.6309 13.1972 31.1597 13.5878 30.6557 13.7062C29.048 13.9809 28.5919 14.8302 29.8947 15.9415C29.8191 16.5059 30.0182 16.8562 30.5726 17.0427C30.9984 17.2014 30.2399 17.9499 29.9652 17.6576C29.8266 17.5568 29.7636 17.2493 29.5369 17.466C29.3554 17.6374 29.4613 17.8667 29.5973 18.0507C29.9022 18.8873 28.2088 19.3636 28.1206 18.3455C27.6721 17.6828 27.0648 18.4967 26.8858 18.0507C26.8934 17.6147 27.5612 17.7886 27.8535 17.7357C27.9946 17.3073 28.7506 17.2418 28.5541 16.8058C28.4104 16.4959 28.418 16.0221 27.8913 16.0221C27.0169 16.4102 26.9514 17.5416 25.767 17.3501C25.7519 17.4156 25.7317 17.4812 25.7141 17.5467C26.4448 18.2019 26.1425 18.3077 25.4243 18.4161C25.0538 18.4841 25.0689 18.3732 25.1269 18.2346C19.971 20.674 25.0589 20.4951 24.2474 22.3926C24.764 22.4506 24.5952 21.9692 24.7892 21.7525C25.6763 21.183 25.6385 20.1473 26.0316 19.3308C26.3037 18.3203 27.9871 18.532 28.1937 19.4971C28.3021 20.0868 28.5541 20.0465 28.9321 19.7718C29.1689 19.5979 29.4587 19.5677 29.5494 19.8399C29.8292 20.679 30.4365 21.2838 30.9304 21.9743C30.9304 21.9844 30.9254 21.9919 30.9228 22.002C31.7065 22.3094 30.3054 23.33 31.3764 23.5467C31.7746 23.6425 31.6788 24.0759 31.7721 24.3556C31.578 24.5346 31.4722 24.3481 31.3412 24.3279C30.8901 24.2523 30.2198 24.3279 30.0484 24.0659C29.8266 23.7483 30.5499 23.3628 30.6179 22.7681C30.0534 23.2242 29.3655 23.1561 28.8313 23.456C28.6624 23.5518 28.6372 23.4661 28.5641 23.3729C28.3348 23.0579 27.9619 23.2292 27.7754 23.4535C27.7981 23.708 28.6196 23.4585 28.1987 23.9777C28.2365 24.1213 28.2038 24.2725 28.2239 24.4186C28.4079 24.7236 28.8867 24.4842 29.179 24.5698C29.5746 24.4842 29.7006 24.842 29.3075 24.9831C28.7657 25.1494 28.2013 25.6534 27.6368 25.5703C27.1429 25.225 26.3944 25.3334 26.2281 25.8979C26.0895 26.3691 25.8073 26.5279 25.4721 26.6236C25.2227 26.7773 25.1269 27.1201 24.822 27.1957C24.7993 27.2057 24.7741 27.2083 24.7489 27.2133C23.7359 28.2188 24.6531 28.3674 23.7888 28.9395C21.5233 30.3507 23.1109 30.3985 22.6246 32.2003C22.3146 31.976 22.1911 31.6535 22.2037 31.409C22.108 29.8517 20.1827 30.5775 19.2604 30.8068C18.3835 31.3461 18.6052 33.0193 18.8194 33.9164C19.0336 34.9068 20.1726 34.7984 20.2659 33.8181C20.3314 33.5485 20.5758 33.488 20.8354 33.5233C21.2638 33.5813 20.9967 33.8887 20.9815 34.0903C20.9664 34.302 21.0445 34.5363 20.8278 34.6926C20.3314 36.2928 22.4683 34.5943 22.0475 36.7741C22.0803 36.7237 22.1055 36.6707 22.1231 36.6103C22.1407 37.0588 22.5994 37.9837 23.189 37.5301C23.5444 37.2428 23.8442 37.7241 24.1945 37.7468C25.0009 35.877 26.4675 37.273 27.8686 37.2151C29.3302 37.3839 30.0005 38.8606 31.641 38.6288C31.5856 36.1012 31.9207 33.5838 31.7595 31.0537C30.1416 31.4645 29.1891 33.8106 27.7678 34.6397C28.0551 33.8055 28.7607 33.2612 29.1664 32.5103C28.6624 32.1247 29.1412 31.9004 29.3126 31.6258C32.0694 28.2162 30.9581 29.2822 30.2223 25.4896C31.9182 27.6417 30.2298 29.0932 33.4126 27.2813C33.846 26.9386 34.2442 26.5959 34.0224 25.9004C33.4957 23.7912 32.5129 21.7752 32.3214 19.6231C33.09 21.7576 34.544 23.4963 34.4382 25.7794C34.166 26.8126 35.4915 25.7719 35.2824 26.7748C34.8237 27.6215 37.1925 27.5863 37.7016 27.9794C39.2891 28.5464 37.636 26.1045 37.7696 25.3888C38.6944 26.2456 38.4399 27.8382 39.5311 28.4582C39.8914 28.622 40.3551 28.5161 40.6449 28.8614C40.0804 29.2646 39.2085 28.4204 39.3824 30.0382C39.4051 30.5422 40.1585 30.1037 40.03 30.7463H40.0426ZM45.012 35.6174C45.0473 35.6804 45.0775 35.7535 45.1052 35.8291C45.138 35.7787 45.1682 35.7283 45.201 35.6804C45.1405 35.6602 45.0775 35.6401 45.0145 35.6174H45.012ZM58.2544 22.4657C56.3393 18.285 53.0154 14.7974 49.0364 12.5193C45.9519 10.5991 42.1997 9.40466 38.5407 9.3467C40.4559 9.74233 42.3635 10.138 44.2157 10.7906C54.6181 14.6185 60.8349 26.0138 58.8844 36.8572C58.3527 38.7623 57.8815 40.743 57.0373 42.575C53.6101 49.9132 46.4106 54.7919 38.4651 55.8931C46.0527 55.7167 53.8193 51.0724 57.3422 44.3163C58.7484 42.5297 59.464 40.1105 60.0361 37.8854C61.2104 32.7623 60.7795 27.1327 58.2544 22.4657ZM25.6611 56.0191C25.137 55.9107 24.638 55.7469 24.197 55.4345C-2.16438 43.9056 8.32121 4.99219 36.7918 7.93551C34.1081 7.88008 31.4823 8.32107 28.8766 8.85279C7.05871 15.4274 4.86381 45.5713 25.6687 55.122C26.6943 55.5101 27.7199 55.8981 28.7456 56.2837C31.253 56.8834 33.7754 57.1934 36.3559 57.1934C36.3181 57.5034 36.0863 57.453 35.9149 57.4605C32.4399 57.5991 28.9043 57.3849 25.6637 56.0191H25.6611ZM29.4713 56.8683C29.4965 56.8734 29.5217 56.8784 29.5469 56.8834C29.5293 56.8608 29.5091 56.8456 29.489 56.828C29.4839 56.8431 29.4764 56.8582 29.4713 56.8683ZM22.1433 36.013C22.1559 36.2096 22.1256 36.4187 22.1382 36.6128C22.1886 36.4414 22.1911 36.197 22.1433 36.013ZM21.5586 35.4385C21.8686 35.5191 22.0702 35.7207 22.1433 36.013C22.1181 35.6602 21.9417 35.4057 21.5586 35.4385ZM45.395 21.4552C46.4408 21.813 45.2741 23.1057 46.3249 23.1461C47.2623 23.2015 47.6 22.7933 46.8516 22.0751C46.4937 21.566 45.8789 21.2914 45.6369 20.6563C45.579 20.5077 45.1783 20.1675 44.9213 20.3665C44.6239 20.6588 45.1607 21.2435 45.395 21.4552ZM41.5496 18.2296C42.996 17.3073 40.287 17.4282 39.6873 17.4509C40.2039 18.4287 40.7684 18.6303 41.5496 18.2296ZM24.1618 33.6947C23.4083 33.4326 22.4129 32.3843 21.7199 33.2789C22.4885 33.0999 23.2546 33.9265 24.0156 34.1533C24.4163 34.2138 24.5549 33.8585 24.1618 33.6947ZM44.7424 22.7C45.3774 22.7605 45.5261 21.4274 44.8633 21.4073C44.2787 21.3241 44.1829 22.7151 44.7424 22.7ZM25.6233 34.0979C24.6431 33.7728 24.7943 35.0025 25.6385 34.7455C25.8527 34.6447 26.1223 34.7984 26.3743 34.554C26.1802 34.2491 25.9031 34.1508 25.6233 34.0979ZM50.309 27.3065C50.6895 27.2083 50.498 26.6639 50.1326 26.6211C50.0293 26.9059 50.0192 27.1478 50.309 27.3065ZM74.6091 56.2131H75.355V59.0229C75.0097 59.3253 74.604 59.5571 74.1328 59.7184C73.6641 59.8797 73.1676 59.9603 72.6485 59.9603C71.9127 59.9603 71.2499 59.799 70.6603 59.4765C70.0706 59.1539 69.6069 58.7079 69.2718 58.1359C68.9341 57.5638 68.7678 56.9238 68.7678 56.2156C68.7678 55.5075 68.9366 54.8675 69.2718 54.2954C69.6069 53.7234 70.0706 53.2774 70.6603 52.9548C71.2499 52.6322 71.9152 52.471 72.6586 52.471C73.2206 52.471 73.7346 52.5617 74.2059 52.7381C74.6746 52.917 75.0727 53.1816 75.3953 53.5319L74.9115 54.0258C74.3293 53.4512 73.5885 53.164 72.6914 53.164C72.0941 53.164 71.5574 53.295 71.0761 53.5596C70.5947 53.8217 70.2193 54.1871 69.9446 54.6533C69.6699 55.1195 69.5338 55.6411 69.5338 56.2156C69.5338 56.7902 69.6699 57.3093 69.9446 57.773C70.2193 58.2367 70.5922 58.6021 71.071 58.8667C71.5473 59.1338 72.084 59.2673 72.6813 59.2673C73.4398 59.2673 74.0799 59.0783 74.6065 58.7003V56.2156L74.6091 56.2131ZM80.5184 54.6029C80.8661 54.4139 81.2945 54.3181 81.8086 54.3181V55.0439L81.6297 55.0338C81.0476 55.0338 80.5915 55.2127 80.2613 55.5705C79.9312 55.9284 79.7674 56.4298 79.7674 57.075V59.8948H79.0215V54.3584H79.7372V55.442C79.9136 55.0716 80.1731 54.7893 80.5209 54.6003L80.5184 54.6029ZM89.5575 57.3597H84.9283C84.9712 57.9343 85.1929 58.4005 85.5911 58.7533C85.9918 59.1086 86.4958 59.285 87.1056 59.285C87.4483 59.285 87.7658 59.2245 88.0531 59.101C88.3404 58.9775 88.5899 58.7986 88.8015 58.5592L89.2224 59.0431C88.9779 59.3379 88.6705 59.5622 88.3026 59.7159C87.9347 59.8696 87.5289 59.9477 87.0879 59.9477C86.5184 59.9477 86.017 59.8268 85.5785 59.5848C85.14 59.3429 84.7973 59.0078 84.5529 58.5794C84.3084 58.151 84.1849 57.6671 84.1849 57.1279C84.1849 56.5886 84.3034 56.1048 84.5377 55.6764C84.7721 55.248 85.0947 54.9153 85.5054 54.6759C85.9162 54.4365 86.3773 54.3181 86.8889 54.3181C87.4004 54.3181 87.8616 54.4365 88.2673 54.6759C88.673 54.9153 88.993 55.2455 89.2249 55.6713C89.4567 56.0947 89.5726 56.581 89.5726 57.1279L89.5626 57.3597H89.5575ZM85.5432 55.4697C85.1803 55.8099 84.9762 56.2534 84.9283 56.8003H88.8544C88.8066 56.2534 88.5999 55.8099 88.2396 55.4697C87.8767 55.1295 87.4281 54.9607 86.8864 54.9607C86.3446 54.9607 85.9061 55.1295 85.5457 55.4697H85.5432ZM97.7222 57.3597H93.093C93.1359 57.9343 93.3551 58.4005 93.7558 58.7533C94.1565 59.1086 94.6605 59.285 95.2703 59.285C95.613 59.285 95.9305 59.2245 96.2178 59.101C96.5051 58.9775 96.7546 58.7986 96.9637 58.5592L97.3846 59.0431C97.1376 59.3379 96.8327 59.5622 96.4648 59.7159C96.0969 59.8696 95.6911 59.9477 95.2501 59.9477C94.6831 59.9477 94.1792 59.8268 93.7407 59.5848C93.3022 59.3429 92.9595 59.0078 92.715 58.5794C92.4681 58.151 92.3471 57.6671 92.3471 57.1279C92.3471 56.5886 92.4631 56.1048 92.6999 55.6764C92.9343 55.248 93.2568 54.9153 93.6676 54.6759C94.0784 54.4365 94.5395 54.3181 95.0511 54.3181C95.5626 54.3181 96.0238 54.4365 96.4295 54.6759C96.8352 54.9153 97.1552 55.2455 97.3871 55.6713C97.6189 56.0947 97.7348 56.581 97.7348 57.1279L97.7248 57.3597H97.7222ZM93.7079 55.4697C93.3476 55.8099 93.1409 56.2534 93.093 56.8003H97.0192C96.9688 56.2534 96.7646 55.8099 96.4043 55.4697C96.0439 55.1295 95.5928 54.9607 95.0511 54.9607C94.5093 54.9607 94.0708 55.1295 93.7104 55.4697H93.7079ZM105.403 54.9229C105.814 55.3261 106.018 55.9132 106.018 56.6869V59.8973H105.27V56.7625C105.27 56.1879 105.126 55.7495 104.839 55.4471C104.551 55.1447 104.141 54.9935 103.606 54.9935C103.009 54.9935 102.538 55.1699 102.19 55.5252C101.842 55.878 101.669 56.3694 101.669 56.9918V59.8973H100.923V54.3609H101.638V55.3815C101.842 55.0464 102.125 54.7843 102.485 54.5978C102.845 54.4113 103.266 54.3181 103.742 54.3181C104.435 54.3181 104.99 54.5197 105.401 54.9229H105.403ZM114.646 52.5289H115.425V59.222H119.55V59.8948H114.646V52.5289ZM122.433 52.9926C122.327 52.8868 122.274 52.7608 122.274 52.6146C122.274 52.4684 122.327 52.3525 122.433 52.2467C122.539 52.1409 122.667 52.0879 122.821 52.0879C122.975 52.0879 123.106 52.1383 123.209 52.2416C123.315 52.3424 123.368 52.4634 123.368 52.6045C123.368 52.7582 123.315 52.8893 123.209 52.9926C123.103 53.0984 122.975 53.1514 122.821 53.1514C122.667 53.1514 122.536 53.0984 122.433 52.9926ZM122.443 54.3609H123.189V59.8973H122.443V54.3609ZM128.055 52.9296C127.891 53.106 127.808 53.3656 127.808 53.7083V54.3609H129.514V54.9935H127.831V59.8973H127.085V54.9935H126.097V54.3609H127.085V53.678C127.085 53.174 127.231 52.7734 127.521 52.4785C127.813 52.1837 128.224 52.0375 128.758 52.0375C128.97 52.0375 129.171 52.0678 129.368 52.1283C129.565 52.1887 129.728 52.2744 129.862 52.3853L129.61 52.9422C129.393 52.7608 129.119 52.67 128.788 52.67C128.458 52.67 128.221 52.7582 128.058 52.9321L128.055 52.9296ZM137.049 57.3597H132.42C132.463 57.9343 132.682 58.4005 133.082 58.7533C133.483 59.1086 133.987 59.285 134.597 59.285C134.94 59.285 135.257 59.2245 135.544 59.101C135.832 58.9775 136.081 58.7986 136.29 58.5592L136.711 59.0431C136.464 59.3379 136.159 59.5622 135.791 59.7159C135.424 59.8696 135.018 59.9477 134.577 59.9477C134.01 59.9477 133.506 59.8268 133.067 59.5848C132.629 59.3429 132.286 59.0078 132.042 58.5794C131.795 58.151 131.674 57.6671 131.674 57.1279C131.674 56.5886 131.79 56.1048 132.027 55.6764C132.261 55.248 132.584 54.9153 132.994 54.6759C133.405 54.4365 133.866 54.3181 134.378 54.3181C134.889 54.3181 135.35 54.4365 135.756 54.6759C136.162 54.9153 136.482 55.2455 136.714 55.6713C136.946 56.0947 137.061 56.581 137.061 57.1279L137.051 57.3597H137.049ZM133.035 55.4697C132.674 55.8099 132.468 56.2534 132.42 56.8003H136.346C136.295 56.2534 136.091 55.8099 135.731 55.4697C135.371 55.1295 134.92 54.9607 134.378 54.9607C133.836 54.9607 133.397 55.1295 133.037 55.4697H133.035ZM150.392 59.222V59.8948H145.183V52.5289H150.233V53.2018H145.962V55.8225H149.772V56.4853H145.962V59.222H150.392ZM158.023 54.9229C158.433 55.3261 158.637 55.9132 158.637 56.6869V59.8973H157.892V56.7625C157.892 56.1879 157.748 55.7495 157.461 55.4471C157.173 55.1447 156.763 54.9935 156.228 54.9935C155.631 54.9935 155.16 55.1699 154.812 55.5252C154.464 55.878 154.291 56.3694 154.291 56.9918V59.8973H153.545V54.3609H154.26V55.3815C154.464 55.0464 154.747 54.7843 155.107 54.5978C155.467 54.4113 155.888 54.3181 156.364 54.3181C157.06 54.3181 157.612 54.5197 158.023 54.9229ZM167.183 57.3597H162.554C162.596 57.9343 162.818 58.4005 163.216 58.7533C163.617 59.1086 164.121 59.285 164.731 59.285C165.073 59.285 165.391 59.2245 165.678 59.101C165.966 58.9775 166.215 58.7986 166.427 58.5592L166.848 59.0431C166.603 59.3379 166.296 59.5622 165.928 59.7159C165.56 59.8696 165.154 59.9477 164.713 59.9477C164.144 59.9477 163.642 59.8268 163.204 59.5848C162.765 59.3429 162.422 59.0078 162.178 58.5794C161.934 58.151 161.81 57.6671 161.81 57.1279C161.81 56.5886 161.929 56.1048 162.163 55.6764C162.397 55.248 162.72 54.9153 163.131 54.6759C163.541 54.4365 164.003 54.3181 164.514 54.3181C165.026 54.3181 165.487 54.4365 165.892 54.6759C166.298 54.9153 166.618 55.2455 166.85 55.6713C167.082 56.0947 167.198 56.581 167.198 57.1279L167.188 57.3597H167.183ZM163.168 55.4697C162.806 55.8099 162.601 56.2534 162.554 56.8003H166.48C166.432 56.2534 166.225 55.8099 165.865 55.4697C165.502 55.1295 165.053 54.9607 164.512 54.9607C163.97 54.9607 163.531 55.1295 163.171 55.4697H163.168ZM171.885 54.6029C172.233 54.4139 172.661 54.3181 173.175 54.3181V55.0439L172.996 55.0338C172.414 55.0338 171.958 55.2127 171.628 55.5705C171.298 55.9284 171.134 56.4298 171.134 57.075V59.8948H170.388V54.3584H171.104V55.442C171.28 55.0716 171.54 54.7893 171.887 54.6003L171.885 54.6029ZM181.244 54.3609V59.222C181.244 60.1619 181.015 60.8574 180.554 61.311C180.095 61.7646 179.402 61.9889 178.475 61.9889C177.963 61.9889 177.477 61.9133 177.018 61.7621C176.56 61.6109 176.184 61.4017 175.897 61.1371L176.275 60.5702C176.542 60.8096 176.864 60.9935 177.247 61.1271C177.631 61.2606 178.031 61.3261 178.452 61.3261C179.153 61.3261 179.669 61.1623 179.999 60.8373C180.329 60.5097 180.493 60.0032 180.493 59.3177V58.6121C180.261 58.9624 179.959 59.2295 179.583 59.411C179.208 59.5924 178.792 59.6856 178.336 59.6856C177.817 59.6856 177.346 59.5722 176.92 59.3429C176.497 59.1161 176.161 58.7961 175.919 58.3853C175.678 57.9746 175.557 57.5109 175.557 56.9918C175.557 56.4727 175.678 56.009 175.919 55.6033C176.161 55.1976 176.494 54.8801 176.915 54.6558C177.336 54.4315 177.809 54.3181 178.336 54.3181C178.805 54.3181 179.231 54.4139 179.609 54.6029C179.987 54.7919 180.294 55.0665 180.523 55.4244V54.3609H181.239H181.244ZM179.498 58.7659C179.82 58.5945 180.07 58.3551 180.251 58.0451C180.43 57.7352 180.518 57.3849 180.518 56.9918C180.518 56.5987 180.428 56.2509 180.251 55.9435C180.072 55.6386 179.823 55.3992 179.505 55.2278C179.185 55.0565 178.822 54.9708 178.417 54.9708C178.011 54.9708 177.656 55.0539 177.338 55.2228C177.018 55.3916 176.769 55.6285 176.59 55.9384C176.411 56.2459 176.323 56.5987 176.323 56.9893C176.323 57.3799 176.413 57.7327 176.59 58.0426C176.769 58.3526 177.018 58.592 177.338 58.7633C177.656 58.9347 178.016 59.0204 178.417 59.0204C178.817 59.0204 179.178 58.9347 179.5 58.7633L179.498 58.7659ZM189.752 54.3609L186.985 60.5601C186.76 61.0792 186.501 61.4471 186.206 61.6638C185.911 61.8805 185.556 61.9914 185.143 61.9914C184.875 61.9914 184.626 61.9486 184.397 61.8654C184.165 61.7823 183.966 61.6537 183.797 61.4874L184.145 60.9305C184.424 61.2102 184.762 61.3513 185.155 61.3513C185.407 61.3513 185.624 61.2808 185.803 61.1397C185.982 60.9986 186.148 60.7617 186.302 60.424L186.544 59.8872L184.072 54.3609H184.85L186.934 59.0657L189.018 54.3609H189.754H189.752Z" fill="url(#paint0_linear_1_470)"/>
<defs>
<linearGradient id="paint0_linear_1_470" x1="-38.0591" y1="-5.58095" x2="304.653" y2="56.3685" gradientUnits="userSpaceOnUse">
<stop stop-color="#2AB96D"/>
<stop offset="0.126445" stop-color="#76BB36"/>
<stop offset="0.291003" stop-color="#CBDC2F"/>
<stop offset="0.450765" stop-color="#219A3E"/>
<stop offset="0.580644" stop-color="#008E42"/>
<stop offset="0.715456" stop-color="#1C5473"/>
<stop offset="0.83667" stop-color="#2E3192"/>
</linearGradient>
</defs>
</svg>
