<svg width="17" height="18" viewBox="0 0 17 18" fill="none" xmlns="http://www.w3.org/2000/svg">
<g clip-path="url(#clip0_32_91)">
<path d="M14.716 3.30687C13.2434 1.83431 11.2847 1.02283 9.20349 1.02283C7.08384 1.02283 5.10061 1.85879 3.62106 3.37682C3.46016 3.54122 3.46366 3.80705 3.62805 3.97144C3.79245 4.13234 4.05828 4.12884 4.22267 3.96445C5.54483 2.61081 7.3112 1.86579 9.20349 1.86579C13.0405 1.86229 16.1605 4.98229 16.1605 8.81934C16.1605 12.6564 13.0405 15.7764 9.20349 15.7764C5.36644 15.7764 2.24644 12.6564 2.24644 8.81934V8.7319L2.939 9.42445C3.01944 9.5049 3.12787 9.54687 3.2363 9.54687C3.34474 9.54687 3.44967 9.5049 3.53361 9.42445C3.69801 9.26006 3.69801 8.99423 3.53361 8.82983L2.12751 7.42023C1.96312 7.25584 1.69729 7.25584 1.53289 7.42023L0.123296 8.82983C-0.0410987 8.99423 -0.0410987 9.26006 0.123296 9.42445C0.287691 9.58885 0.553521 9.58885 0.717916 9.42445L1.41047 8.7319V8.81934C1.41047 10.9005 2.22195 12.8593 3.69451 14.3318C5.16707 15.8044 7.12582 16.6159 9.20699 16.6159C11.2882 16.6159 13.2469 15.8044 14.7195 14.3318C16.192 12.8593 17 10.9005 17 8.81934C17 6.73817 16.1885 4.77942 14.716 3.30687Z" fill="url(#paint0_linear_32_91)"/>
<path d="M11.435 5.98262L6.27933 11.1348C6.11494 11.2992 6.11494 11.5651 6.27933 11.7294C6.35978 11.8099 6.46821 11.8519 6.57664 11.8519C6.68507 11.8519 6.79001 11.8099 6.87395 11.7294L12.0297 6.57375C12.194 6.40935 12.194 6.14352 12.0297 5.97913C11.8653 5.81823 11.5994 5.81823 11.435 5.98262Z" fill="url(#paint1_linear_32_91)"/>
<path d="M10.0849 9.45244C9.50079 10.0366 9.50079 10.9915 10.0849 11.5756C10.3682 11.8589 10.746 12.0163 11.1482 12.0163C11.5505 12.0163 11.9282 11.8589 12.2116 11.5756C12.7957 10.9915 12.7957 10.0366 12.2116 9.45244C11.9282 9.16912 11.5505 9.01172 11.1482 9.01172C10.746 9.01172 10.3717 9.16912 10.0849 9.45244ZM11.6169 10.9845C11.491 11.1104 11.3266 11.1768 11.1482 11.1768C10.9698 11.1768 10.8055 11.1069 10.6795 10.9845C10.4207 10.7256 10.4207 10.3059 10.6795 10.0471C10.8055 9.92114 10.9698 9.85468 11.1482 9.85468C11.3266 9.85468 11.491 9.92463 11.6169 10.0471C11.8758 10.3059 11.8758 10.7256 11.6169 10.9845Z" fill="url(#paint2_linear_32_91)"/>
<path d="M7.27271 5.6084C6.87047 5.6084 6.49271 5.7658 6.20939 6.04912C5.92608 6.33244 5.76868 6.71019 5.76868 7.11244C5.76868 7.51468 5.92608 7.89244 6.20939 8.17576C6.49271 8.45908 6.87047 8.61647 7.27271 8.61647C7.67496 8.61647 8.05272 8.45908 8.33603 8.17576C8.61935 7.89244 8.77675 7.51468 8.77675 7.11244C8.77675 6.71019 8.61935 6.33244 8.33603 6.04912C8.04922 5.7658 7.67496 5.6084 7.27271 5.6084ZM7.74141 7.58114C7.6155 7.70706 7.4511 7.77351 7.27271 7.77351C7.09433 7.77351 6.92993 7.70356 6.80401 7.58114C6.67809 7.45522 6.61164 7.29082 6.61164 7.11244C6.61164 6.93405 6.68159 6.76966 6.80401 6.64374C6.92993 6.51782 7.09433 6.45136 7.27271 6.45136C7.4511 6.45136 7.6155 6.52131 7.74141 6.64374C7.86733 6.76966 7.93379 6.93405 7.93379 7.11244C7.93379 7.28732 7.86733 7.45522 7.74141 7.58114Z" fill="url(#paint3_linear_32_91)"/>
</g>
<defs>
<linearGradient id="paint0_linear_32_91" x1="9.48837" y1="-3.91496" x2="0.873755" y2="12.6498" gradientUnits="userSpaceOnUse">
<stop stop-color="#FFA149"/>
<stop offset="1" stop-color="#FF820E"/>
</linearGradient>
<linearGradient id="paint1_linear_32_91" x1="9.50315" y1="3.96111" x2="6.03399" y2="10.0838" gradientUnits="userSpaceOnUse">
<stop stop-color="#FFA149"/>
<stop offset="1" stop-color="#FF820E"/>
</linearGradient>
<linearGradient id="paint2_linear_32_91" x1="11.3228" y1="8.06027" x2="9.58245" y2="11.128" gradientUnits="userSpaceOnUse">
<stop stop-color="#FFA149"/>
<stop offset="1" stop-color="#FF820E"/>
</linearGradient>
<linearGradient id="paint3_linear_32_91" x1="7.4476" y1="4.65584" x2="5.70573" y2="7.72802" gradientUnits="userSpaceOnUse">
<stop stop-color="#FFA149"/>
<stop offset="1" stop-color="#FF820E"/>
</linearGradient>
<clipPath id="clip0_32_91">
<rect width="17" height="17" fill="white" transform="translate(0 0.319336)"/>
</clipPath>
</defs>
</svg>
