<svg width="17" height="18" viewBox="0 0 17 18" fill="none" xmlns="http://www.w3.org/2000/svg">
<g clip-path="url(#clip0_32_113)">
<path d="M4.79461 6.83712C4.7045 6.61804 4.49333 6.47656 4.25646 6.47656C4.25629 6.47656 4.25609 6.47656 4.25589 6.47656C4.01879 6.47676 3.80762 6.61871 3.71783 6.83814C3.71627 6.8419 3.71478 6.84568 3.71335 6.84947L2.32364 10.4984C2.22575 10.7554 2.35475 11.0432 2.61181 11.141C2.86903 11.239 3.1566 11.1099 3.25448 10.8529L3.47844 10.2649H5.02378L5.24514 10.8514C5.32045 11.0509 5.50994 11.1738 5.71122 11.1738C5.76962 11.1738 5.82909 11.1634 5.88696 11.1416C6.14432 11.0444 6.27421 10.7571 6.17709 10.4998L4.79999 6.85066C4.7983 6.84615 4.7965 6.84163 4.79461 6.83712ZM3.85782 9.26881L4.25466 8.22687L4.64789 9.26881H3.85782Z" fill="url(#paint0_linear_32_113)"/>
<path d="M14.211 7.4895C14.486 7.4895 14.709 7.26651 14.709 6.99146C14.709 6.7164 14.486 6.49341 14.211 6.49341H12.6657C12.3907 6.49341 12.1677 6.7164 12.1677 6.99146V10.6587C12.1677 10.9338 12.3907 11.1568 12.6657 11.1568H14.211C14.486 11.1568 14.709 10.9338 14.709 10.6587C14.709 10.3837 14.486 10.1607 14.211 10.1607H13.1638V9.32311H14.097C14.3721 9.32311 14.595 9.10012 14.595 8.82506C14.595 8.55001 14.3721 8.32702 14.097 8.32702H13.1638V7.4895H14.211Z" fill="url(#paint1_linear_32_113)"/>
<path d="M8.5 7.61014C8.68494 7.51485 8.89479 7.46106 9.11692 7.46106C9.38785 7.46106 9.64916 7.54108 9.87262 7.69182C10.1007 7.84588 10.4102 7.78579 10.5642 7.55801C10.7183 7.32991 10.6582 7.02045 10.4304 6.86639C10.0416 6.60375 9.5874 6.46497 9.11692 6.46497C8.90342 6.46497 8.69657 6.49352 8.5 6.54731C7.50324 6.81891 6.76813 7.732 6.76813 8.81376C6.76813 9.89518 7.50324 10.8083 8.5 11.0799C8.69657 11.1337 8.90342 11.1622 9.11692 11.1622C10.3507 11.1622 11.2124 10.1963 11.2124 8.81376C11.2124 8.5385 10.9892 8.31571 10.7143 8.31571H9.60699C9.33207 8.31571 9.10895 8.5385 9.10895 8.81376C9.10895 9.08868 9.33207 9.3118 9.60699 9.3118H10.1525C10.029 9.77 9.71524 10.1661 9.11692 10.1661C8.89479 10.1661 8.68494 10.1123 8.5 10.017C8.06338 9.79258 7.76422 9.33737 7.76422 8.81376C7.76422 8.29014 8.06338 7.83493 8.5 7.61014Z" fill="url(#paint2_linear_32_113)"/>
<path d="M16.502 8.32129C16.227 8.32129 16.0039 8.54441 16.0039 8.81934C16.0039 10.8238 15.2233 12.7081 13.8062 14.1255C12.3888 15.5426 10.5045 16.3232 8.5 16.3232C6.49553 16.3232 4.61125 15.5426 3.19381 14.1255C1.7767 12.7081 0.996094 10.8238 0.996094 8.81934C0.996094 6.81486 1.7767 4.93059 3.19381 3.51314C4.61125 2.09604 6.49553 1.31543 8.5 1.31543C9.50506 1.31543 10.4802 1.51066 11.3983 1.89549C11.9226 2.11529 12.4196 2.3942 12.8812 2.72689L12.2211 2.81023C11.9481 2.84443 11.7546 3.09379 11.7891 3.36672C11.821 3.6184 12.0351 3.80234 12.2825 3.80234C12.3034 3.80234 12.3243 3.80102 12.3456 3.79836L14.1273 3.57391C14.3922 3.55199 14.6031 3.29898 14.5752 3.03402L14.4165 1.24637C14.3922 0.972441 14.1502 0.769902 13.8763 0.794141C13.6023 0.818711 13.4001 1.06043 13.4244 1.33436L13.4771 1.92869C12.9505 1.54752 12.3828 1.22811 11.7835 0.97709C10.7429 0.540469 9.6382 0.319336 8.5 0.319336C6.22957 0.319336 4.09494 1.20354 2.48957 2.80891C0.884199 4.41428 0 6.54891 0 8.81934C0 11.0898 0.884199 13.2244 2.48957 14.8298C4.09494 16.4351 6.22957 17.3193 8.5 17.3193C10.7704 17.3193 12.9051 16.4351 14.5104 14.8298C16.1158 13.2244 17 11.0898 17 8.81934C17 8.54441 16.7769 8.32129 16.502 8.32129Z" fill="url(#paint3_linear_32_113)"/>
</g>
<defs>
<linearGradient id="paint0_linear_32_113" x1="4.47791" y1="4.9891" x2="1.53061" y2="9.32543" gradientUnits="userSpaceOnUse">
<stop stop-color="#FFA149"/>
<stop offset="1" stop-color="#FF820E"/>
</linearGradient>
<linearGradient id="paint1_linear_32_113" x1="13.5861" y1="5.01668" x2="10.4417" y2="8.03897" gradientUnits="userSpaceOnUse">
<stop stop-color="#FFA149"/>
<stop offset="1" stop-color="#FF820E"/>
</linearGradient>
<linearGradient id="paint2_linear_32_113" x1="9.24863" y1="4.9775" x2="6.4534" y2="9.64198" gradientUnits="userSpaceOnUse">
<stop stop-color="#FFA149"/>
<stop offset="1" stop-color="#FF820E"/>
</linearGradient>
<linearGradient id="paint3_linear_32_113" x1="9.48837" y1="-5.064" x2="-0.355746" y2="12.2983" gradientUnits="userSpaceOnUse">
<stop stop-color="#FFA149"/>
<stop offset="1" stop-color="#FF820E"/>
</linearGradient>
<clipPath id="clip0_32_113">
<rect width="17" height="17" fill="white" transform="translate(0 0.319336)"/>
</clipPath>
</defs>
</svg>
