<svg width="1438" height="715" viewBox="0 0 1438 715" fill="none" xmlns="http://www.w3.org/2000/svg">
<path opacity="0.8" d="M94.2429 442.862C46.1246 471.926 -11.7098 472.143 -69.9782 462.447L-170 715H1438V44.3853C1408.7 34.7786 1367.31 15.8505 1351.64 7.35944C1331.57 -1.5462 1312.82 -0.65448 1290.56 1.26361C1219.35 7.3974 1161.2 40.7053 1093.64 55.247C1065.54 61.2956 1040.19 63.0962 1011.36 59.0278C983.232 55.0564 955.385 49.8171 927.623 44.5936L924.95 44.0909C877.965 35.2529 831.623 38.0744 793.507 62.0647C770.269 76.6909 751.82 94.2524 746.575 117.164C743.261 131.639 737.418 144.637 729.772 158.132C721.608 172.542 707.449 186.261 691.034 196.063C663.787 212.333 637.784 220.183 602.881 224.697C534.877 233.492 465.008 227.571 396.363 231.019C324.754 234.615 252.7 252.085 197.874 288.039C173.753 303.858 154.215 322.39 147.549 346.175C144.186 358.172 143.399 371.038 141.589 383.239C138.182 406.198 117.578 428.767 94.2429 442.862Z" fill="url(#paint0_linear_1_442)"/>
<defs>
<linearGradient id="paint0_linear_1_442" x1="1010.04" y1="9.00599" x2="1129.74" y2="744.166" gradientUnits="userSpaceOnUse">
<stop stop-color="#EAFFF4"/>
<stop offset="0.697917" stop-color="white" stop-opacity="0"/>
</linearGradient>
</defs>
</svg>
