<svg width="1439" height="761" viewBox="0 0 1439 761" fill="none" xmlns="http://www.w3.org/2000/svg">
<path opacity="0.8" d="M94.2429 488.862C46.1246 517.926 -11.7098 518.143 -69.9782 508.447L-170 761H1438V90.3853C1408.7 80.7786 1367.31 61.8505 1351.64 53.3594C1331.57 44.4538 1312.82 45.3455 1290.56 47.2636C1219.35 53.3975 1161.2 86.7053 1093.64 101.247C1065.54 107.296 1040.19 109.096 1011.36 105.028C983.229 101.056 955.379 95.816 927.613 90.5919L924.95 90.0909C877.965 81.253 831.623 84.0744 793.507 108.065C770.269 122.691 751.82 140.252 746.575 163.164C743.261 177.639 737.418 190.637 729.772 204.132C721.608 218.542 707.449 232.261 691.034 242.063C663.787 258.333 637.784 266.183 602.881 270.697C534.877 279.492 465.008 273.571 396.363 277.019C324.754 280.615 252.7 298.085 197.874 334.039C173.753 349.858 154.215 368.39 147.549 392.175C144.186 404.172 143.399 417.038 141.589 429.239C138.182 452.198 117.578 474.767 94.2429 488.862Z" fill="url(#paint0_linear_201_46)"/>
<path d="M-71 508.268C-12.7307 517.96 45.1046 517.743 93.2235 488.69C116.559 474.601 137.163 452.04 140.57 429.09C142.381 416.894 143.167 404.033 146.53 392.041C153.197 368.265 172.735 349.74 196.856 333.927C251.683 297.987 323.737 280.524 395.348 276.929C463.994 273.483 533.864 279.402 601.869 270.61C636.772 266.097 662.776 258.25 690.024 241.987C706.439 232.189 720.597 218.475 728.762 204.07C736.408 190.581 742.251 177.588 745.565 163.118C750.81 140.216 769.259 122.661 792.498 108.041C830.614 84.0596 876.957 81.2393 923.943 90.0737C952.591 95.4604 981.323 100.908 1010.36 105.005C1039.18 109.072 1064.53 107.272 1092.64 101.226C1160.2 86.6895 1218.35 53.3946 1289.56 47.2631C1311.82 45.3458 1330.57 44.4544 1350.64 53.3566C1366.31 61.8444 1407.7 80.7651 1437 90.3681" stroke="url(#paint1_linear_201_46)" stroke-width="3" stroke-linecap="round" stroke-dasharray="20 20"/>
<rect x="1192" y="45" width="38.1638" height="38.1638" rx="19.0819" fill="black"/>
<path d="M1209.66 55.0981L1214.02 55.0981L1217.14 66.3117" stroke="white" stroke-width="1.32867" stroke-linecap="round" stroke-linejoin="round"/>
<path d="M1215.24 69.1213L1206.76 69.1213" stroke="white" stroke-width="1.32867" stroke-linecap="round" stroke-linejoin="round"/>
<path d="M1204.29 71.5263C1205.66 71.5263 1206.76 70.4201 1206.76 69.0555C1206.76 67.6909 1205.66 66.5847 1204.29 66.5847C1202.93 66.5847 1201.82 67.6909 1201.82 69.0555C1201.82 70.4201 1202.93 71.5263 1204.29 71.5263Z" stroke="white" stroke-width="1.32867" stroke-linecap="round" stroke-linejoin="round"/>
<path d="M1217.71 71.5263C1219.07 71.5263 1220.18 70.4201 1220.18 69.0555C1220.18 67.6909 1219.07 66.5847 1217.71 66.5847C1216.34 66.5847 1215.24 67.6909 1215.24 69.0555C1215.24 70.4201 1216.34 71.5263 1217.71 71.5263Z" stroke="white" stroke-width="1.32867" stroke-linecap="round" stroke-linejoin="round"/>
<path d="M1213.02 62.4017C1213.01 62.3601 1212.99 62.3216 1212.96 62.2896C1212.93 62.2575 1212.9 62.2329 1212.86 62.218L1211 61.5219L1211.47 59.1597C1211.48 59.105 1211.48 59.0482 1211.45 58.9978C1211.43 58.9473 1211.39 58.9058 1211.34 58.8793C1211.29 58.853 1211.23 58.8437 1211.18 58.8531C1211.12 58.8624 1211.07 58.8897 1211.03 58.9309L1207.43 62.7981C1207.4 62.8288 1207.37 62.8664 1207.36 62.9075C1207.35 62.9486 1207.35 62.9919 1207.36 63.0333C1207.37 63.0747 1207.39 63.113 1207.42 63.1449C1207.45 63.1769 1207.48 63.2016 1207.52 63.217L1209.38 63.9131L1208.91 66.2753C1208.9 66.3301 1208.9 66.3868 1208.93 66.4373C1208.95 66.4877 1208.99 66.5292 1209.04 66.5557C1209.08 66.5744 1209.12 66.5843 1209.16 66.5847C1209.19 66.5849 1209.23 66.5778 1209.26 66.5639C1209.29 66.5501 1209.32 66.5297 1209.35 66.5041L1212.96 62.637C1212.98 62.6063 1213.01 62.5687 1213.02 62.5276C1213.03 62.4864 1213.03 62.4432 1213.02 62.4017V62.4017Z" fill="#52D890"/>
<rect x="1034" y="87" width="38" height="38" rx="19" fill="black"/>
<path d="M1042.5 105.25H1044" stroke="white" stroke-width="1.5" stroke-linecap="round" stroke-linejoin="round"/>
<path d="M1062 105.25H1063.5" stroke="white" stroke-width="1.5" stroke-linecap="round" stroke-linejoin="round"/>
<path d="M1061.25 114.25H1059C1058.8 114.25 1058.61 114.171 1058.47 114.03C1058.33 113.89 1058.25 113.699 1058.25 113.5V111.25H1047.75V113.5C1047.75 113.699 1047.67 113.89 1047.53 114.03C1047.39 114.171 1047.2 114.25 1047 114.25H1044.75C1044.55 114.25 1044.36 114.171 1044.22 114.03C1044.08 113.89 1044 113.699 1044 113.5V105.25L1046.8 98.95C1046.86 98.8167 1046.96 98.7032 1047.08 98.6233C1047.2 98.5434 1047.34 98.5006 1047.49 98.5H1058.51C1058.66 98.5006 1058.8 98.5434 1058.92 98.6233C1059.04 98.7032 1059.14 98.8167 1059.2 98.95L1062 105.25V113.5C1062 113.699 1061.92 113.89 1061.78 114.03C1061.64 114.171 1061.45 114.25 1061.25 114.25Z" stroke="white" stroke-width="1.5" stroke-linecap="round" stroke-linejoin="round"/>
<path d="M1055.83 104.935C1055.82 104.893 1055.8 104.854 1055.77 104.822C1055.74 104.79 1055.71 104.766 1055.67 104.751L1053.81 104.055L1054.28 101.693C1054.29 101.638 1054.29 101.581 1054.26 101.531C1054.24 101.48 1054.2 101.439 1054.15 101.412C1054.1 101.386 1054.04 101.377 1053.99 101.386C1053.93 101.395 1053.88 101.423 1053.84 101.464L1050.23 105.331C1050.21 105.362 1050.18 105.399 1050.17 105.44C1050.16 105.481 1050.16 105.525 1050.17 105.566C1050.18 105.608 1050.2 105.646 1050.23 105.678C1050.26 105.71 1050.29 105.735 1050.33 105.75L1052.19 106.446L1051.72 108.808C1051.71 108.863 1051.71 108.92 1051.74 108.97C1051.76 109.021 1051.8 109.062 1051.85 109.089C1051.89 109.107 1051.93 109.117 1051.97 109.118C1052 109.118 1052.04 109.111 1052.07 109.097C1052.1 109.083 1052.13 109.063 1052.16 109.037L1055.76 105.17C1055.79 105.139 1055.82 105.102 1055.83 105.06C1055.84 105.019 1055.84 104.976 1055.83 104.935V104.935Z" fill="#52D890"/>
<rect x="814" y="71" width="38.1638" height="38.1638" rx="19.0819" fill="black"/>
<path d="M840.5 85.6652C840.5 85.2673 840.342 84.8858 840.061 84.6045C839.779 84.3232 839.398 84.1652 839 84.1652H835.25L840.5 93.1652" stroke="white" stroke-width="1.32867" stroke-linecap="round" stroke-linejoin="round"/>
<path d="M840.5 96.9152C842.571 96.9152 844.25 95.2362 844.25 93.1652C844.25 91.0941 842.571 89.4152 840.5 89.4152C838.429 89.4152 836.75 91.0941 836.75 93.1652C836.75 95.2362 838.429 96.9152 840.5 96.9152Z" stroke="white" stroke-width="1.32867" stroke-linecap="round" stroke-linejoin="round"/>
<path d="M825.5 96.9152C827.571 96.9152 829.25 95.2362 829.25 93.1652C829.25 91.0941 827.571 89.4152 825.5 89.4152C823.429 89.4152 821.75 91.0941 821.75 93.1652C821.75 95.2362 823.429 96.9152 825.5 96.9152Z" stroke="white" stroke-width="1.32867" stroke-linecap="round" stroke-linejoin="round"/>
<path d="M825.5 84.1652H828.125L829.744 87.0189" stroke="white" stroke-width="1.32867" stroke-linecap="round" stroke-linejoin="round"/>
<path d="M836.947 87.1652H829.878L825.5 93.1652" stroke="white" stroke-width="1.32867" stroke-linecap="round" stroke-linejoin="round"/>
<path d="M835.245 91.8986C835.237 91.8656 835.221 91.835 835.199 91.8096C835.177 91.7842 835.148 91.7647 835.117 91.7528L833.644 91.2006L834.017 89.3264C834.026 89.283 834.02 89.2379 834.001 89.1979C833.983 89.1579 833.951 89.1249 833.912 89.1039C833.873 89.083 833.828 89.0757 833.784 89.0831C833.74 89.0905 833.7 89.1122 833.67 89.1448L830.806 92.2131C830.782 92.2374 830.765 92.2673 830.756 92.2999C830.748 92.3325 830.747 92.3668 830.755 92.3997C830.763 92.4325 830.778 92.4629 830.801 92.4883C830.823 92.5136 830.851 92.5333 830.883 92.5455L832.355 93.0977L831.982 94.9719C831.973 95.0153 831.979 95.0604 831.998 95.1004C832.017 95.1404 832.048 95.1734 832.087 95.1944C832.116 95.2092 832.149 95.2171 832.181 95.2174C832.209 95.2175 832.237 95.2119 832.262 95.2009C832.288 95.1899 832.311 95.1738 832.33 95.1535L835.193 92.0852C835.217 92.0609 835.234 92.031 835.243 91.9984C835.252 91.9658 835.252 91.9315 835.245 91.8986V91.8986Z" fill="#52D890"/>
<g clip-path="url(#clip0_201_46)">
<rect x="936.684" y="46" width="32" height="32" rx="8" transform="rotate(8.83592 936.684 46)" fill="#2AB96D"/>
<path d="M953.907 64.1927C953.698 63.4122 953.266 62.7093 952.665 62.1695C952.064 61.6297 951.319 61.2763 950.521 61.1522C949.722 61.0281 948.905 61.1387 948.168 61.4705C947.432 61.8023 946.807 62.3411 946.371 63.0213C945.663 63.2402 945.03 63.6528 944.544 64.2123C944.059 64.7719 943.739 65.4561 943.621 66.1879C943.287 68.2979 944.724 70.322 946.821 70.7029C947.347 70.7992 947.887 70.7879 948.408 70.6696L947.953 73.5983C947.928 73.7621 948.036 73.4925 948.134 73.6264C948.232 73.7603 948.407 73.6688 948.571 73.6943C948.735 73.7198 948.874 73.8601 949.008 73.7622C949.142 73.6644 949.163 73.9542 949.189 73.7903L949.644 70.8617C950.075 71.1148 950.549 71.284 951.043 71.3602L951.146 71.3762C953.262 71.6524 955.246 70.1563 955.566 68.0457C955.676 67.3127 955.579 66.5634 955.286 65.8825C954.993 65.2017 954.515 64.6163 953.907 64.1927ZM951.305 70.1353C950.767 70.0671 950.264 69.838 949.859 69.4782L950.15 67.6052L952.446 66.871C952.525 66.8469 952.599 66.8073 952.663 66.7544C952.726 66.7015 952.779 66.6365 952.818 66.5631C952.856 66.4897 952.88 66.4094 952.887 66.3269C952.894 66.2443 952.885 66.1611 952.859 66.0822C952.834 66.0033 952.793 65.9302 952.74 65.8671C952.686 65.804 952.62 65.7523 952.546 65.7149C952.472 65.6775 952.391 65.6552 952.309 65.6492C952.226 65.6432 952.143 65.6538 952.065 65.6802L950.365 66.2233L950.53 65.1637C950.555 64.9998 950.515 64.8325 950.417 64.6987C950.319 64.5648 950.172 64.4753 950.008 64.4498C949.844 64.4243 949.677 64.465 949.543 64.5628C949.409 64.6607 949.32 64.8077 949.294 64.9716L948.937 67.2669L947.483 66.2334C947.348 66.1402 947.181 66.1039 947.019 66.1324C946.858 66.1609 946.713 66.2519 946.618 66.3858C946.523 66.5196 946.484 66.6856 946.511 66.8477C946.537 67.0099 946.626 67.1553 946.758 67.2524L948.722 68.6487L948.623 69.2861C948.129 69.5064 947.579 69.5717 947.047 69.4734C946.444 69.3641 945.897 69.054 945.493 68.5937C945.09 68.1333 944.854 67.5499 944.824 66.9384C944.795 66.327 944.973 65.7235 945.33 65.2264C945.688 64.7293 946.203 64.3678 946.792 64.2008C947.042 64.1294 947.257 63.9668 947.393 63.7449C947.694 63.2546 948.134 62.8642 948.656 62.6228C949.178 62.3814 949.76 62.2997 950.328 62.3881C950.897 62.4764 951.427 62.7309 951.851 63.1194C952.275 63.508 952.575 64.0133 952.713 64.5718C952.776 64.8247 952.931 65.0449 953.148 65.1889C953.659 65.5268 954.04 66.0276 954.229 66.6097C954.419 67.1918 954.405 67.821 954.192 68.3946C953.978 68.9682 953.576 69.4526 953.052 69.7687C952.527 70.0848 951.912 70.214 951.305 70.1353Z" fill="white"/>
<path d="M958.559 64.207L951.872 55.9201C951.749 55.7665 951.573 55.6645 951.378 55.6343C951.184 55.604 950.985 55.6477 950.821 55.7567L941.934 61.6226C941.844 61.6844 941.767 61.7636 941.709 61.8555C941.65 61.9473 941.61 62.05 941.591 62.1575L940.192 71.1611C940.16 71.3677 940.211 71.5785 940.334 71.7472C940.458 71.916 940.643 72.0288 940.849 72.0609L956.423 74.4818C956.63 74.5139 956.841 74.4627 957.009 74.3394C957.178 74.216 957.291 74.0307 957.323 73.8242L958.723 64.8206C958.738 64.7125 958.731 64.6026 958.703 64.4972C958.675 64.3918 958.626 64.2931 958.559 64.207V64.207Z" stroke="white" stroke-width="1.2" stroke-linecap="round" stroke-linejoin="round"/>
</g>
<path d="M946.81 85.0186C946.81 85.0186 945.54 82.3929 944.239 81.1862C942.749 79.8045 939.673 78.8491 939.673 78.8491L955.483 81.3068C955.483 81.3068 952.249 81.2738 950.405 82.1447C948.805 82.9006 946.81 85.0186 946.81 85.0186Z" fill="#2AB96D"/>
<rect x="1288" width="32" height="32" rx="8" fill="#2AB96D"/>
<path d="M1307.81 15.3312C1307.49 14.5921 1306.95 13.9638 1306.28 13.5228C1305.6 13.0817 1304.81 12.8469 1304 12.8469C1303.19 12.8469 1302.4 13.0817 1301.72 13.5228C1301.05 13.9638 1300.51 14.5921 1300.19 15.3312C1299.52 15.6563 1298.96 16.1612 1298.57 16.7887C1298.17 17.4163 1297.96 18.1415 1297.96 18.8827C1297.95 21.0189 1299.68 22.7983 1301.81 22.8525C1302.35 22.867 1302.88 22.7728 1303.37 22.5758V25.5397C1303.37 25.7055 1303.44 25.4224 1303.56 25.5397C1303.68 25.6569 1303.83 25.5397 1304 25.5397C1304.17 25.5397 1304.33 25.6569 1304.44 25.5397C1304.56 25.4224 1304.63 25.7055 1304.63 25.5397V22.5758C1305.09 22.7598 1305.58 22.8541 1306.08 22.8536H1306.19C1308.32 22.8014 1310.05 21.0184 1310.04 18.8837C1310.04 18.1424 1309.83 17.4169 1309.44 16.7892C1309.04 16.1614 1308.48 15.6564 1307.81 15.3312ZM1306.15 21.603C1305.61 21.6181 1305.08 21.4692 1304.63 21.1758V19.2802L1306.78 18.2022C1306.86 18.1662 1306.92 18.1157 1306.98 18.0536C1307.03 17.9916 1307.07 17.9193 1307.1 17.8408C1307.13 17.7624 1307.14 17.6794 1307.13 17.5967C1307.13 17.514 1307.11 17.4333 1307.07 17.3592C1307.03 17.2851 1306.98 17.2191 1306.92 17.165C1306.85 17.111 1306.78 17.07 1306.7 17.0444C1306.62 17.0188 1306.54 17.0091 1306.46 17.0159C1306.38 17.0227 1306.3 17.0458 1306.22 17.084L1304.63 17.8817V16.8094C1304.63 16.6436 1304.56 16.4845 1304.44 16.3673C1304.33 16.25 1304.17 16.1841 1304 16.1841C1303.83 16.1841 1303.68 16.25 1303.56 16.3673C1303.44 16.4845 1303.37 16.6436 1303.37 16.8094V19.1322L1301.78 18.3345C1301.63 18.2631 1301.46 18.2528 1301.31 18.3058C1301.15 18.3589 1301.02 18.4709 1300.95 18.6178C1300.87 18.7647 1300.86 18.9346 1300.91 19.0908C1300.96 19.2471 1301.07 19.377 1301.22 19.4527L1303.37 20.5307V21.1758C1302.92 21.4694 1302.39 21.6184 1301.85 21.603C1301.23 21.5875 1300.65 21.3652 1300.18 20.9723C1299.71 20.5795 1299.38 20.0392 1299.26 19.4395C1299.14 18.8398 1299.22 18.2161 1299.5 17.67C1299.77 17.1239 1300.23 16.6876 1300.78 16.4322C1301.02 16.3231 1301.21 16.1294 1301.31 15.8892C1301.53 15.3585 1301.9 14.9053 1302.38 14.5865C1302.86 14.2677 1303.42 14.0977 1304 14.0977C1304.58 14.0977 1305.14 14.2677 1305.62 14.5865C1306.1 14.9053 1306.47 15.3585 1306.69 15.8892C1306.79 16.1294 1306.98 16.3231 1307.22 16.4322C1307.77 16.6876 1308.23 17.1239 1308.5 17.67C1308.78 18.2161 1308.86 18.8398 1308.74 19.4395C1308.62 20.0392 1308.29 20.5795 1307.82 20.9723C1307.36 21.3652 1306.77 21.5875 1306.15 21.603Z" fill="white"/>
<path d="M1312.41 14.6307L1304.53 7.46937C1304.39 7.33646 1304.2 7.26276 1304 7.26276C1303.8 7.26276 1303.61 7.33646 1303.47 7.46937L1295.59 14.6307C1295.51 14.7056 1295.44 14.7956 1295.4 14.8954C1295.36 14.9952 1295.33 15.1028 1295.33 15.2119V24.3237C1295.33 24.5327 1295.41 24.7331 1295.56 24.8809C1295.71 25.0287 1295.91 25.1117 1296.12 25.1117H1311.88C1312.09 25.1117 1312.29 25.0287 1312.44 24.8809C1312.59 24.7331 1312.67 24.5327 1312.67 24.3237V15.2119C1312.67 15.1028 1312.64 14.9952 1312.6 14.8954C1312.56 14.7956 1312.49 14.7056 1312.41 14.6307V14.6307Z" stroke="white" stroke-width="1.2" stroke-linecap="round" stroke-linejoin="round"/>
<path d="M1304 37C1304 37 1302.34 34.6006 1300.87 33.608C1299.19 32.4715 1296 32 1296 32H1312C1312 32 1308.8 32.4643 1307.11 33.608C1305.65 34.6006 1304 37 1304 37Z" fill="#2AB96D"/>
<defs>
<linearGradient id="paint0_linear_201_46" x1="1010.04" y1="55.006" x2="1129.74" y2="790.166" gradientUnits="userSpaceOnUse">
<stop stop-color="#EAFFF4"/>
<stop offset="0.697917" stop-color="white" stop-opacity="0"/>
</linearGradient>
<linearGradient id="paint1_linear_201_46" x1="1591.78" y1="45.8541" x2="-50.6113" y2="359.462" gradientUnits="userSpaceOnUse">
<stop offset="0.0647852" stop-color="#008E42" stop-opacity="0"/>
<stop offset="0.345424" stop-color="#2AB96D"/>
<stop offset="0.775746" stop-color="#2AB96D"/>
<stop offset="1" stop-color="#2AB96D" stop-opacity="0"/>
</linearGradient>
<clipPath id="clip0_201_46">
<rect x="936.684" y="46" width="32" height="32" rx="8" transform="rotate(8.83592 936.684 46)" fill="white"/>
</clipPath>
</defs>
</svg>
