<svg width="20" height="20" viewBox="0 0 20 20" fill="none" xmlns="http://www.w3.org/2000/svg">
<g id="outline/close">
<g id="outline/close_2">
<g id="menu">
<path id="Vector" d="M15.9324 4.83534L5.32583 15.4419C5.08423 15.6835 4.68354 15.6835 4.44194 15.4419C4.20035 15.2003 4.20035 14.7997 4.44194 14.5581L15.0485 3.95146C15.2901 3.70986 15.6908 3.70986 15.9324 3.95146C16.174 4.19305 16.174 4.59375 15.9324 4.83534Z" fill="#EEF2FE"/>
<path id="Vector_2" d="M15.1647 15.9324L4.55806 5.32583C4.31646 5.08423 4.31646 4.68354 4.55806 4.44194C4.79965 4.20035 5.20035 4.20035 5.44194 4.44194L16.0485 15.0485C16.2901 15.2901 16.2901 15.6908 16.0485 15.9324C15.8069 16.174 15.4063 16.174 15.1647 15.9324Z" fill="#EEF2FE"/>
</g>
</g>
</g>
</svg>
