<svg width="20" height="20" viewBox="0 0 20 20" fill="none" xmlns="http://www.w3.org/2000/svg">
<g id="vuesax/outline/facebook">
<g id="facebook">
<path id="Vector" d="M12.2917 18.9583H8.54167V12.9167H7.74999C7.26666 12.9167 6.875 12.525 6.875 12.0417V10.4583C6.875 9.97499 7.26666 9.58333 7.74999 9.58333H8.54167V7.5C8.54167 5.775 9.94167 4.375 11.6667 4.375H13.9167C14.4 4.375 14.7917 4.76666 14.7917 5.24999V7.25001C14.7917 7.73334 14.4 8.125 13.9167 8.125H12.2917V9.58333H13.8583C14.125 9.58333 14.3667 9.7 14.5333 9.9C14.7 10.1 14.7667 10.3667 14.7167 10.625L14.4 12.2083C14.3167 12.6167 13.9583 12.9083 13.5417 12.9083H12.2917V18.9583ZM9.79167 17.7083H11.0417V11.6667H13.2417L13.4083 10.8333H11.05V7.74999C11.05 7.26666 11.4417 6.875 11.925 6.875H13.55V5.625H11.6667C10.6333 5.625 9.79167 6.46667 9.79167 7.5V10.8333H8.125V11.6667H9.79167V17.7083Z" fill="#EEF2FE"/>
<path id="Vector_2" d="M12.5003 18.9583H7.50033C2.97533 18.9583 1.04199 17.025 1.04199 12.5V7.49996C1.04199 2.97496 2.97533 1.04163 7.50033 1.04163H12.5003C17.0253 1.04163 18.9587 2.97496 18.9587 7.49996V12.5C18.9587 17.025 17.0253 18.9583 12.5003 18.9583ZM7.50033 2.29163C3.65866 2.29163 2.29199 3.65829 2.29199 7.49996V12.5C2.29199 16.3416 3.65866 17.7083 7.50033 17.7083H12.5003C16.342 17.7083 17.7087 16.3416 17.7087 12.5V7.49996C17.7087 3.65829 16.342 2.29163 12.5003 2.29163H7.50033Z" fill="#EEF2FE"/>
</g>
</g>
</svg>
