<svg width="20" height="20" viewBox="0 0 20 20" fill="none" xmlns="http://www.w3.org/2000/svg">
<g id="vuesax/outline/instagram">
<g id="instagram">
<path id="Vector" d="M12.5003 18.9583H7.50033C2.97533 18.9583 1.04199 17.025 1.04199 12.5V7.49996C1.04199 2.97496 2.97533 1.04163 7.50033 1.04163H12.5003C17.0253 1.04163 18.9587 2.97496 18.9587 7.49996V12.5C18.9587 17.025 17.0253 18.9583 12.5003 18.9583ZM7.50033 2.29163C3.65866 2.29163 2.29199 3.65829 2.29199 7.49996V12.5C2.29199 16.3416 3.65866 17.7083 7.50033 17.7083H12.5003C16.342 17.7083 17.7087 16.3416 17.7087 12.5V7.49996C17.7087 3.65829 16.342 2.29163 12.5003 2.29163H7.50033Z" fill="#EEF2FE"/>
<path id="Vector_2" d="M9.99967 13.5417C8.04967 13.5417 6.45801 11.95 6.45801 10C6.45801 8.05004 8.04967 6.45837 9.99967 6.45837C11.9497 6.45837 13.5413 8.05004 13.5413 10C13.5413 11.95 11.9497 13.5417 9.99967 13.5417ZM9.99967 7.70837C8.73301 7.70837 7.70801 8.73337 7.70801 10C7.70801 11.2667 8.73301 12.2917 9.99967 12.2917C11.2663 12.2917 12.2913 11.2667 12.2913 10C12.2913 8.73337 11.2663 7.70837 9.99967 7.70837Z" fill="#EEF2FE"/>
<path id="Vector_3" d="M14.1663 6.25004C14.058 6.25004 13.9497 6.22504 13.8497 6.18338C13.7497 6.14171 13.658 6.08338 13.5747 6.00838C13.4997 5.92504 13.433 5.83338 13.3913 5.73338C13.3497 5.63338 13.333 5.52504 13.333 5.41671C13.333 5.30838 13.3497 5.20004 13.3913 5.10004C13.4413 4.99171 13.4997 4.90838 13.5747 4.82504C13.6163 4.79171 13.658 4.75004 13.6997 4.72504C13.7497 4.69171 13.7997 4.66671 13.8497 4.65004C13.8997 4.62504 13.9497 4.60838 14.008 4.60004C14.2747 4.54171 14.558 4.63338 14.758 4.82504C14.833 4.90838 14.8913 4.99171 14.933 5.10004C14.9747 5.20004 14.9997 5.30838 14.9997 5.41671C14.9997 5.52504 14.9747 5.63338 14.933 5.73338C14.8913 5.83338 14.833 5.92504 14.758 6.00838C14.6747 6.08338 14.583 6.14171 14.483 6.18338C14.383 6.22504 14.2747 6.25004 14.1663 6.25004Z" fill="#EEF2FE"/>
</g>
</g>
</svg>
