<svg width="32" height="33" viewBox="0 0 32 33" fill="none" xmlns="http://www.w3.org/2000/svg">
<g id="mdi:linkedin">
<path id="Vector" d="M26.1111 3.875C26.8773 3.875 27.6121 4.17936 28.1539 4.72114C28.6956 5.26291 29 5.99771 29 6.76389V26.9861C29 27.7523 28.6956 28.4871 28.1539 29.0289C27.6121 29.5706 26.8773 29.875 26.1111 29.875H5.88889C5.12271 29.875 4.38791 29.5706 3.84614 29.0289C3.30436 28.4871 3 27.7523 3 26.9861V6.76389C3 5.99771 3.30436 5.26291 3.84614 4.72114C4.38791 4.17936 5.12271 3.875 5.88889 3.875H26.1111ZM25.3889 26.2639V18.6083C25.3889 17.3595 24.8928 16.1617 24.0097 15.2786C23.1266 14.3956 21.9289 13.8994 20.68 13.8994C19.4522 13.8994 18.0222 14.6506 17.3289 15.7772V14.1739H13.2989V26.2639H17.3289V19.1428C17.3289 18.0306 18.2244 17.1206 19.3367 17.1206C19.873 17.1206 20.3874 17.3336 20.7666 17.7129C21.1458 18.0921 21.3589 18.6065 21.3589 19.1428V26.2639H25.3889ZM8.60444 11.9061C9.24804 11.9061 9.86527 11.6504 10.3204 11.1954C10.7754 10.7403 11.0311 10.123 11.0311 9.47944C11.0311 8.13611 9.94778 7.03833 8.60444 7.03833C7.95702 7.03833 7.33612 7.29552 6.87832 7.75332C6.42052 8.21112 6.16333 8.83202 6.16333 9.47944C6.16333 10.8228 7.26111 11.9061 8.60444 11.9061ZM10.6122 26.2639V14.1739H6.61111V26.2639H10.6122Z" fill="white"/>
</g>
</svg>
