<svg width="32" height="33" viewBox="0 0 32 33" fill="none" xmlns="http://www.w3.org/2000/svg">
<g id="formkit:twitter">
<path id="Vector" d="M16 2.875C23.74 2.875 30 9.135 30 16.875C30 24.615 23.74 30.875 16 30.875C8.26 30.875 2 24.615 2 16.875C2 9.135 8.26 2.875 16 2.875ZM13.44 24.255C19.64 24.255 23.04 19.115 23.04 14.655V14.215C23.7 13.735 24.28 13.135 24.72 12.455C24.12 12.715 23.46 12.895 22.78 12.995C23.48 12.575 24.02 11.915 24.26 11.135C23.6 11.515 22.88 11.795 22.12 11.955C21.5 11.295 20.62 10.895 19.66 10.895C17.8 10.895 16.28 12.415 16.28 14.275C16.28 14.535 16.3 14.795 16.38 15.035C13.58 14.895 11.08 13.555 9.42 11.515C9.14 12.015 8.96 12.595 8.96 13.215C8.96 14.375 9.56 15.415 10.46 16.015C9.9 16.015 9.38 15.855 8.94 15.595V15.635C8.94 17.275 10.1 18.635 11.64 18.955C11.36 19.035 11.06 19.075 10.76 19.075C10.54 19.075 10.34 19.055 10.12 19.015C10.54 20.355 11.8 21.335 13.26 21.355C12.1 22.255 10.64 22.795 9.06 22.795C8.78 22.795 8.52 22.795 8.26 22.755C9.74 23.715 11.52 24.275 13.42 24.275" fill="white"/>
</g>
</svg>
