<svg width="81" height="80" viewBox="0 0 81 80" fill="none" xmlns="http://www.w3.org/2000/svg">
<path fill-rule="evenodd" clip-rule="evenodd" d="M13.2911 15.5886C13.1907 15.688 13.1751 16.5211 13.1793 21.5425L13.1844 27.3806L13.9831 27.4037C14.4224 27.4165 14.8627 27.4069 14.9615 27.3825L15.1412 27.3382V24.7314V22.1246H17.2418C18.7691 22.1246 19.3686 22.0987 19.4382 22.0297C19.5718 21.8976 19.5684 20.4856 19.4343 20.3604C19.363 20.294 18.7608 20.2672 17.3377 20.2672C16.2395 20.2672 15.296 20.2545 15.2411 20.239C15.1659 20.2177 15.1412 19.8523 15.1412 18.757V17.3033H17.7769H20.4126V16.4338V15.5644L17.0781 15.5633C15.244 15.5627 13.668 15.5422 13.5757 15.5177C13.48 15.4923 13.3577 15.5227 13.2911 15.5886ZM32.4731 15.7225C32.4731 15.8095 32.4371 15.8806 32.3932 15.8806C32.3493 15.8806 32.3133 15.9496 32.3133 16.034C32.3133 16.1184 32.2774 16.2094 32.2334 16.2363C32.1895 16.2631 32.1536 16.3541 32.1536 16.4385C32.1536 16.5229 32.1176 16.5919 32.0737 16.5919C32.0298 16.5919 31.9938 16.6309 31.9938 16.6787C31.9938 16.7636 31.8137 17.2059 31.6676 17.48C31.6274 17.5555 31.5945 17.6711 31.5945 17.7368C31.5945 17.8027 31.5585 17.8566 31.5146 17.8566C31.4707 17.8566 31.4347 17.9104 31.4347 17.9762C31.4347 18.0419 31.4019 18.1576 31.3617 18.2331C31.1637 18.6051 30.8756 19.2967 30.8756 19.3999C30.8756 19.4639 30.8397 19.5164 30.7957 19.5164C30.7518 19.5164 30.7159 19.6053 30.7159 19.7139C30.7159 19.8226 30.6799 19.9116 30.636 19.9116C30.5921 19.9116 30.5561 19.9826 30.5561 20.0696C30.5561 20.1566 30.5202 20.2277 30.4762 20.2277C30.4323 20.2277 30.3964 20.2816 30.3964 20.3474C30.3964 20.4131 30.3647 20.5287 30.3259 20.6042C30.2871 20.6797 30.2181 20.8304 30.1727 20.939C30.0433 21.2484 29.7257 21.9483 29.4058 22.6283C29.2449 22.9704 29.0697 23.3884 29.0165 23.5569C28.9634 23.7256 28.8927 23.8635 28.8595 23.8635C28.8261 23.8635 28.799 23.9325 28.799 24.0169C28.799 24.1013 28.7631 24.1923 28.7192 24.2191C28.6752 24.246 28.6393 24.337 28.6393 24.4214C28.6393 24.5058 28.6033 24.5748 28.5594 24.5748C28.5155 24.5748 28.4795 24.6438 28.4795 24.7282C28.4795 24.8126 28.4476 24.9012 28.4085 24.9251C28.3695 24.949 28.3139 25.0616 28.285 25.1756C28.2343 25.3752 27.9856 25.9697 27.834 26.2533C27.7937 26.3287 27.7607 26.4444 27.7607 26.5102C27.7607 26.576 27.7247 26.6298 27.6808 26.6298C27.6369 26.6298 27.6009 26.7009 27.6009 26.7879C27.6009 26.8748 27.565 26.946 27.5211 26.946C27.4771 26.946 27.4412 27.0349 27.4412 27.1436V27.3412H28.4697C29.6071 27.3412 29.6013 27.3436 29.7704 26.8074C29.8286 26.6227 29.9033 26.4717 29.9366 26.4717C29.9699 26.4717 29.997 26.4027 29.997 26.3183C29.997 26.2339 30.033 26.1429 30.0769 26.1161C30.1208 26.0892 30.1568 25.9982 30.1568 25.9138C30.1568 25.8294 30.1927 25.7604 30.2366 25.7604C30.2806 25.7604 30.3165 25.6914 30.3165 25.607C30.3165 25.5226 30.3497 25.4333 30.3903 25.4086C30.4309 25.3837 30.4877 25.2571 30.5165 25.1272L30.5688 24.891H32.5848H34.6007L34.8549 25.464C34.9947 25.7792 35.1091 26.0816 35.1089 26.1358C35.1088 26.1902 35.1447 26.2346 35.1886 26.2346C35.2325 26.2346 35.2685 26.3236 35.2685 26.4322C35.2685 26.5409 35.3044 26.6298 35.3484 26.6298C35.3923 26.6298 35.4282 26.7009 35.4282 26.7879C35.4282 26.8748 35.4617 26.946 35.5025 26.946C35.5434 26.946 35.5883 27.0259 35.6023 27.1238C35.6273 27.2971 35.6558 27.3022 36.7261 27.3236C37.3302 27.3357 37.8243 27.3146 37.8243 27.2765C37.8243 27.2385 37.7743 27.1041 37.7132 26.9779C37.6521 26.8516 37.54 26.6061 37.4641 26.4322C37.3882 26.2584 37.2375 25.9205 37.1293 25.6814C37.021 25.4423 36.8955 25.1577 36.85 25.049C36.8045 24.9404 36.7356 24.7897 36.6968 24.7143C36.658 24.6387 36.6263 24.5231 36.6263 24.4574C36.6263 24.3916 36.5904 24.3377 36.5464 24.3377C36.5025 24.3377 36.4666 24.2695 36.4666 24.1862C36.4666 24.1029 36.4396 24.0229 36.4066 24.0084C36.3509 23.9838 36.1658 23.5418 35.9568 22.9347C35.9082 22.7936 35.8412 22.6779 35.808 22.6779C35.7748 22.6779 35.7477 22.6089 35.7477 22.5245C35.7477 22.4401 35.7118 22.3491 35.6679 22.3222C35.6239 22.2954 35.588 22.2044 35.588 22.1199C35.588 22.0356 35.552 21.9666 35.5081 21.9666C35.4642 21.9666 35.4282 21.8976 35.4282 21.8131C35.4282 21.7287 35.3923 21.6377 35.3484 21.6108C35.3044 21.584 35.2685 21.5134 35.2685 21.4539C35.2685 21.3588 35.0617 20.8777 34.5546 19.793C34.1278 18.88 33.9905 18.5526 33.9905 18.4472C33.9905 18.3832 33.9546 18.3307 33.9107 18.3307C33.8667 18.3307 33.8308 18.2617 33.8308 18.1774C33.8308 18.0929 33.7948 18.002 33.7509 17.9751C33.707 17.9482 33.671 17.8573 33.671 17.7728C33.671 17.6885 33.6351 17.6195 33.5912 17.6195C33.5472 17.6195 33.5113 17.5705 33.5113 17.5106C33.5113 17.4059 33.2614 16.8115 32.9444 16.1621C32.8609 15.9909 32.7925 15.7865 32.7925 15.7076C32.7925 15.6171 32.7337 15.5644 32.6328 15.5644C32.5263 15.5644 32.4731 15.6171 32.4731 15.7225ZM48.4072 15.6404C48.3192 15.6764 48.0856 15.7518 47.888 15.8081C47.4044 15.9459 46.6778 16.279 46.5302 16.4306C46.4643 16.4981 46.3144 16.6022 46.197 16.6618C45.9536 16.7853 45.1434 17.6017 44.8545 18.0146C44.7481 18.1667 44.6392 18.309 44.6125 18.3307C44.512 18.4128 44.0488 19.445 44.0013 19.6926C43.9741 19.8348 43.9191 19.9924 43.8792 20.043C43.7852 20.162 43.7864 22.666 43.8805 22.785C43.9199 22.8347 43.9715 23 43.9951 23.1521C44.0348 23.4076 44.5042 24.4845 44.6152 24.5748C44.6418 24.5966 44.7747 24.7744 44.9103 24.97C45.1239 25.2784 45.6053 25.7493 46.2798 26.3096C46.3837 26.3959 46.5723 26.512 46.6991 26.5675C46.8258 26.623 46.9295 26.6953 46.9295 26.7281C46.9295 26.761 46.9839 26.7879 47.0505 26.7879C47.1169 26.7879 47.2427 26.8235 47.33 26.8669C47.4172 26.9104 47.5534 26.9775 47.6327 27.016C48.4268 27.402 50.5448 27.4456 51.602 27.0976C51.9094 26.9964 52.173 26.8853 52.1876 26.8507C52.2023 26.8162 52.2832 26.7879 52.3673 26.7879C52.4516 26.7879 52.5205 26.7523 52.5205 26.7088C52.5205 26.6654 52.5704 26.6298 52.6314 26.6298C52.6924 26.6298 52.823 26.5652 52.9217 26.4861L53.101 26.3425L52.8707 25.9921C52.7439 25.7995 52.5773 25.5729 52.5005 25.4886C52.4236 25.4043 52.3607 25.2887 52.3607 25.2317C52.3607 25.1747 52.3248 25.1281 52.2808 25.1281C52.2369 25.1281 52.201 25.09 52.201 25.0435C52.201 24.9968 52.1491 24.9074 52.0857 24.8446C51.9852 24.7452 51.9325 24.7516 51.6759 24.8942C51.081 25.2249 50.0029 25.4874 49.5189 25.4195C48.6729 25.3006 47.743 24.9884 47.6617 24.7959C47.647 24.7613 47.5863 24.7329 47.5268 24.7329C47.3659 24.7329 46.5106 23.8516 46.3287 23.4983C46.2419 23.3296 46.1438 23.1798 46.1109 23.1653C46.0778 23.1507 46.051 23.0708 46.051 22.9875C46.051 22.9041 46.015 22.8359 45.9711 22.8359C45.9272 22.8359 45.8912 22.7136 45.8912 22.564C45.8912 22.4144 45.8553 22.27 45.8114 22.2432C45.7673 22.2162 45.7315 21.8619 45.7315 21.4528C45.7315 21.0436 45.7673 20.6894 45.8114 20.6624C45.8553 20.6356 45.8912 20.5296 45.8912 20.4269C45.8912 19.9228 46.7566 18.6918 47.455 18.2024C47.8373 17.9345 48.5906 17.6195 48.8488 17.6195C48.9792 17.6195 49.086 17.5838 49.086 17.5404C49.086 17.4939 49.3655 17.4614 49.7649 17.4614C50.1643 17.4614 50.4438 17.4939 50.4438 17.5404C50.4438 17.5838 50.5666 17.6195 50.7168 17.6195C50.8668 17.6195 51.0015 17.6495 51.0163 17.6862C51.0545 17.7823 51.4274 17.8602 51.5322 17.7939C51.581 17.7632 51.7906 17.3918 51.998 16.9688C52.4312 16.0853 52.429 16.0765 51.7217 15.8458C51.4801 15.767 51.1999 15.6716 51.099 15.6335C50.8683 15.5466 48.6224 15.5524 48.4072 15.6404ZM60.5873 21.4528V27.3412H64.173C67.3689 27.3412 67.7639 27.3276 67.807 27.2161C67.8337 27.1474 67.8555 26.8124 67.8555 26.4717C67.8555 26.1311 67.8337 25.7961 67.807 25.7274C67.7642 25.6169 67.4576 25.6023 65.1799 25.6023C62.9021 25.6023 62.5955 25.5876 62.5527 25.4773C62.526 25.4086 62.5042 24.626 62.5042 23.7385V22.1246H64.6048C66.1321 22.1246 66.7316 22.0987 66.8012 22.0297C66.9016 21.9305 66.9395 20.5872 66.8486 20.3527C66.806 20.243 66.5371 20.2277 64.6522 20.2277H62.5042V18.7655V17.3033H65.1314C67.4534 17.3033 67.7642 17.2887 67.807 17.1782C67.8337 17.1095 67.8555 16.7745 67.8555 16.4338C67.8555 16.0932 67.8337 15.7582 67.807 15.6895C67.7639 15.578 67.3689 15.5644 64.173 15.5644H60.5873V21.4528ZM32.7231 20.5486C32.7571 20.6112 32.8436 20.8046 32.9153 20.9786C32.987 21.1525 33.0785 21.3565 33.1187 21.4319C33.159 21.5074 33.1919 21.623 33.1919 21.6888C33.1919 21.7546 33.2278 21.8085 33.2717 21.8085C33.3157 21.8085 33.3516 21.8796 33.3516 21.9666C33.3516 22.0535 33.3875 22.1246 33.4314 22.1246C33.4754 22.1246 33.5113 22.1903 33.5113 22.2706C33.5113 22.3508 33.5691 22.5309 33.6395 22.6707C33.71 22.8105 33.7537 22.9386 33.7368 22.9555C33.7197 22.9723 33.2037 22.9906 32.5902 22.996C31.3821 23.0067 31.4136 23.021 31.6398 22.5669C31.7027 22.4407 31.7542 22.2896 31.7542 22.231C31.7542 22.1726 31.7902 22.1246 31.8341 22.1246C31.878 22.1246 31.914 22.0601 31.914 21.9813C31.914 21.9026 32.0032 21.655 32.1122 21.4315C32.2212 21.2077 32.3558 20.8809 32.4112 20.7052C32.5124 20.3845 32.6079 20.3365 32.7231 20.5486ZM13.2243 40.3826V46.3104H14.1828H15.1412V43.7021C15.1412 42.2676 15.1502 41.0865 15.1612 41.0774C15.1721 41.0683 16.1516 41.0416 17.3377 41.0181L19.4941 40.9753L19.5168 40.1269L19.5394 39.2786L17.3603 39.2575L15.1811 39.2365L15.1594 37.7545L15.1377 36.2726H17.7752H20.4126V35.3636V34.4546H16.8185H13.2243V40.3826ZM48.7665 34.5301C48.7007 34.5742 48.5294 34.6108 48.3861 34.6116C48.2427 34.6122 48.063 34.6441 47.9867 34.6825C47.9104 34.7209 47.7581 34.7884 47.6483 34.8325C47.1139 35.0468 46.5019 35.3402 46.4104 35.426C46.2223 35.6025 45.9696 35.7983 45.9302 35.7983C45.8787 35.7983 45.1015 36.5929 44.8739 36.8785C44.7757 37.0016 44.6949 37.1469 44.6942 37.2012C44.6937 37.2556 44.6572 37.3 44.6133 37.3C44.5694 37.3 44.5334 37.3534 44.5334 37.4186C44.5334 37.4838 44.4975 37.5371 44.4535 37.5371C44.4096 37.5371 44.3737 37.6083 44.3737 37.6952C44.3737 37.7822 44.3427 37.8533 44.3048 37.8533C44.2669 37.8533 44.1757 38.0577 44.1025 38.3077C44.0291 38.5577 43.9343 38.8715 43.8919 39.0049C43.7959 39.3066 43.789 41.7012 43.884 41.7593C43.9221 41.7826 43.9768 41.9467 44.0054 42.1239C44.0602 42.4627 44.3611 43.1698 44.4697 43.2147C44.5048 43.2293 44.5334 43.3093 44.5334 43.3926C44.5334 43.4758 44.5616 43.5441 44.596 43.5441C44.6305 43.5441 44.719 43.645 44.7927 43.7685C44.9763 44.0761 45.9996 45.1248 46.1162 45.1248C46.1682 45.1248 46.2107 45.1604 46.2107 45.2039C46.2107 45.2474 46.2646 45.2829 46.3305 45.2829C46.3964 45.2829 46.4503 45.3116 46.4503 45.3465C46.4503 45.4296 47.2125 45.8362 47.3682 45.8362C47.4345 45.8362 47.4886 45.8717 47.4886 45.9152C47.4886 45.9587 47.5964 45.9943 47.7282 45.9943C47.86 45.9943 47.9678 46.0298 47.9678 46.0733C47.9678 46.1167 48.0914 46.1524 48.2427 46.1524C48.3939 46.1524 48.5397 46.1879 48.5669 46.2314C48.5959 46.2779 49.072 46.3104 49.725 46.3104C50.378 46.3104 50.854 46.2779 50.8831 46.2314C50.9102 46.1879 51.0561 46.1524 51.2073 46.1524C51.3585 46.1524 51.4821 46.1167 51.4821 46.0733C51.4821 46.0298 51.5545 45.9943 51.643 45.9943C51.7314 45.9943 51.8662 45.961 51.9425 45.9203C52.0187 45.8796 52.2912 45.7493 52.5479 45.6306C53.0536 45.3972 53.1545 45.273 52.9874 45.0901C52.8027 44.8877 52.7238 44.7763 52.6075 44.5532C52.5456 44.4344 52.4365 44.2743 52.3651 44.1975C52.2937 44.1206 52.1805 43.9794 52.1134 43.8836C52 43.7216 51.9757 43.7175 51.7675 43.8244C51.6444 43.8876 51.494 43.9393 51.4331 43.9393C51.3722 43.9393 51.3224 43.9671 51.3224 44.0011C51.3224 44.2531 48.8323 44.4312 48.5948 44.1961C48.5399 44.1418 48.4123 44.0974 48.3112 44.0974C48.2103 44.0974 48.1276 44.0617 48.1276 44.0183C48.1276 43.9748 48.0557 43.9393 47.9678 43.9393C47.88 43.9393 47.8081 43.908 47.8081 43.8698C47.8081 43.8316 47.7037 43.7576 47.5759 43.7052C47.0101 43.4733 45.8912 41.9714 45.8912 41.4437C45.8912 41.3434 45.8553 41.2393 45.8114 41.2125C45.7667 41.1852 45.7315 40.8165 45.7315 40.3778C45.7315 39.9067 45.7634 39.5921 45.8114 39.5921C45.8553 39.5921 45.8912 39.5027 45.8912 39.3935C45.8912 39.2842 45.9231 39.133 45.9621 39.0576C46.0012 38.982 46.1339 38.7249 46.2572 38.4862C46.4937 38.0281 47.3604 37.1138 47.642 37.0254C47.7334 36.9966 47.8081 36.9401 47.8081 36.8996C47.8081 36.859 47.898 36.8258 48.0078 36.8258C48.1176 36.8258 48.2074 36.7959 48.2074 36.7594C48.2074 36.6387 49.1151 36.4701 49.7649 36.4701C50.3531 36.4701 50.9168 36.5772 51.2614 36.7544C51.3376 36.7937 51.4301 36.8258 51.4668 36.8258C51.5417 36.8258 51.8815 36.187 51.8815 36.0465C51.8815 35.9969 51.9174 35.9564 51.9613 35.9564C52.0053 35.9564 52.0412 35.8852 52.0412 35.7983C52.0412 35.7114 52.0772 35.6402 52.1211 35.6402C52.165 35.6402 52.201 35.5762 52.201 35.4979C52.201 35.4197 52.2418 35.3153 52.2917 35.2659C52.4005 35.1582 52.2069 34.9288 52.007 34.9288C51.9379 34.9288 51.8815 34.8974 51.8815 34.8587C51.8815 34.8203 51.7826 34.7691 51.6618 34.7451C51.541 34.7211 51.2804 34.6596 51.0827 34.6084C50.6019 34.4837 48.9206 34.427 48.7665 34.5301ZM59.9827 34.559C59.9604 34.6165 59.9526 35.0166 59.9653 35.4482L59.9883 36.233L61.6056 36.2545L63.2231 36.2757V41.2931V46.3104H64.1814H65.1399V41.2915V36.2726H66.772H68.4039L68.4293 35.4913C68.4431 35.0616 68.443 34.6526 68.4287 34.5824C68.4053 34.4667 68.0076 34.4546 64.213 34.4546C60.8145 34.4546 60.0156 34.4744 59.9827 34.559ZM32.4045 34.7906C32.3454 34.9318 32.228 35.2001 32.1434 35.3867C32.0589 35.5733 31.9314 35.8756 31.86 36.0586C31.7886 36.2415 31.6996 36.4249 31.6623 36.4662C31.625 36.5075 31.5945 36.6053 31.5945 36.6836C31.5945 36.7617 31.5585 36.8258 31.5146 36.8258C31.4707 36.8258 31.4347 36.8948 31.4347 36.9792C31.4347 37.0636 31.3988 37.1546 31.3548 37.1815C31.3109 37.2084 31.275 37.2993 31.275 37.3837C31.275 37.4681 31.2479 37.5371 31.2147 37.5371C31.1815 37.5371 31.1145 37.6526 31.0659 37.794C30.8569 38.4011 30.6717 38.8431 30.6161 38.8676C30.5831 38.8821 30.5561 38.9356 30.5561 38.9865C30.5561 39.0373 30.4304 39.3356 30.2766 39.6492C30.1229 39.9628 29.997 40.2739 29.997 40.3405C29.997 40.4071 29.9612 40.4616 29.9172 40.4616C29.8732 40.4616 29.8373 40.5505 29.8373 40.6592C29.8373 40.7678 29.8014 40.8567 29.7575 40.8567C29.7135 40.8567 29.6776 40.9279 29.6776 41.0148C29.6776 41.1017 29.6417 41.1729 29.5978 41.1729C29.5538 41.1729 29.5179 41.2261 29.5179 41.2912C29.5179 41.3561 29.39 41.6831 29.2339 42.0176C29.0778 42.3523 28.9072 42.7615 28.855 42.9269C28.8028 43.0926 28.733 43.2279 28.6998 43.2279C28.6664 43.2279 28.6393 43.2778 28.6393 43.3389C28.6393 43.4001 28.5703 43.5868 28.486 43.7539C28.4017 43.9211 28.2669 44.2266 28.1865 44.4329C28.1061 44.6393 28.0133 44.8082 27.9803 44.8084C27.9474 44.8086 27.9204 44.8718 27.9204 44.949C27.9204 45.0262 27.8137 45.3018 27.6833 45.5616C27.2978 46.3294 27.278 46.3104 28.4636 46.3104C29.5187 46.3104 29.6776 46.2669 29.6776 45.9785C29.6776 45.9002 29.7135 45.8362 29.7575 45.8362C29.8014 45.8362 29.8373 45.7473 29.8373 45.6386C29.8373 45.5299 29.8732 45.441 29.9172 45.441C29.9612 45.441 29.997 45.3698 29.997 45.2829C29.997 45.196 30.033 45.1248 30.0769 45.1248C30.1208 45.1248 30.1568 45.071 30.1568 45.0052C30.1568 44.9394 30.1902 44.8238 30.231 44.7483C30.2718 44.6728 30.3706 44.4423 30.4506 44.236L30.5961 43.8607L32.6075 43.8606L34.6187 43.8602L34.6746 44.0381C34.7053 44.1358 34.8469 44.4648 34.9894 44.7692C35.3349 45.5072 35.4811 45.8347 35.5809 46.0943L35.6638 46.3104H36.7441C37.6314 46.3104 37.8243 46.2901 37.8243 46.1966C37.8243 46.1338 37.7884 46.0606 37.7444 46.0337C37.7005 46.0069 37.6646 45.9159 37.6646 45.8316C37.6646 45.7471 37.6286 45.6781 37.5847 45.6781C37.5408 45.6781 37.5048 45.6091 37.5048 45.5247C37.5048 45.4403 37.4689 45.3493 37.425 45.3225C37.381 45.2956 37.3451 45.2046 37.3451 45.1202C37.3451 45.0357 37.3091 44.9667 37.2652 44.9667C37.2213 44.9667 37.1853 44.9178 37.1853 44.858C37.1853 44.7404 36.8783 44.0064 36.6242 43.5168C36.5374 43.3497 36.4666 43.163 36.4666 43.1018C36.4666 43.0407 36.4306 42.9908 36.3867 42.9908C36.3428 42.9908 36.3068 42.9225 36.3068 42.8391C36.3068 42.7557 36.2565 42.5867 36.195 42.4636C35.8404 41.7534 35.7477 41.5418 35.7477 41.442C35.7477 41.3809 35.7118 41.331 35.6679 41.331C35.6239 41.331 35.588 41.2421 35.588 41.1334C35.588 41.0247 35.552 40.9358 35.5081 40.9358C35.4642 40.9358 35.4282 40.882 35.4282 40.8161C35.4282 40.7504 35.3928 40.6347 35.3495 40.5593C35.1968 40.2933 34.8691 39.4921 34.8691 39.3847C34.8691 39.3249 34.8332 39.276 34.7893 39.276C34.7453 39.276 34.7094 39.207 34.7094 39.1226C34.7094 39.0382 34.6734 38.9472 34.6295 38.9203C34.5856 38.8935 34.5496 38.8025 34.5496 38.718C34.5496 38.6336 34.5137 38.5646 34.4698 38.5646C34.4258 38.5646 34.3899 38.5143 34.3899 38.4527C34.3899 38.3081 33.8136 37.0316 33.7326 36.9971C33.6988 36.9826 33.671 36.9046 33.671 36.8239C33.671 36.7431 33.6351 36.6551 33.5912 36.6282C33.5472 36.6013 33.5113 36.5291 33.5113 36.4676C33.5113 36.3682 33.2197 35.6706 33.0252 35.3054C32.9851 35.2299 32.9523 35.1143 32.9523 35.0486C32.9523 34.9826 32.9163 34.9288 32.8724 34.9288C32.8285 34.9288 32.7925 34.8616 32.7925 34.7793C32.7925 34.663 32.6522 34.5336 32.5259 34.5336C32.5184 34.5336 32.4637 34.6492 32.4045 34.7906ZM32.8241 39.7061C32.8564 39.8332 32.9524 40.0796 33.0373 40.2537C33.1223 40.4278 33.1919 40.6169 33.1919 40.674C33.1919 40.7311 33.2278 40.7777 33.2717 40.7777C33.3157 40.7777 33.3516 40.8467 33.3516 40.9311C33.3516 41.0156 33.3875 41.1066 33.4314 41.1334C33.4754 41.1603 33.5113 41.2513 33.5113 41.3356C33.5113 41.4201 33.5385 41.4891 33.5716 41.4891C33.6049 41.4891 33.6714 41.6136 33.7195 41.7657L33.807 42.0424H32.6209C31.9685 42.0424 31.4347 42.0241 31.4347 42.0017C31.4347 41.9795 31.4665 41.8994 31.5052 41.8238C31.5779 41.6826 31.7164 41.3614 31.8541 41.0148C31.8972 40.9062 31.9643 40.7555 32.0032 40.68C32.0419 40.6046 32.0737 40.4889 32.0737 40.4232C32.0737 40.3573 32.1096 40.3035 32.1536 40.3035C32.1975 40.3035 32.2337 40.2591 32.2339 40.2046C32.2342 40.1504 32.2825 40.0146 32.3414 39.903C32.4002 39.7915 32.473 39.6032 32.503 39.4847C32.5479 39.3079 32.5763 39.2877 32.6616 39.3723C32.7188 39.4288 32.7919 39.5791 32.8241 39.7061ZM31.2351 53.5775C30.6253 53.727 29.6776 54.1226 29.6776 54.2276C29.6776 54.2637 29.6057 54.2933 29.5179 54.2933C29.43 54.2933 29.3581 54.3289 29.3581 54.3724C29.3581 54.4158 29.3206 54.4514 29.2749 54.4514C29.169 54.4514 29.0794 54.5256 28.355 55.2126C28.0281 55.5225 27.7607 55.8092 27.7607 55.8496C27.7607 55.8902 27.6975 55.9923 27.6202 56.0765C27.4203 56.2944 27.0418 57.0461 27.0418 57.225C27.0418 57.308 27.0059 57.3758 26.962 57.3758C26.918 57.3758 26.8821 57.4652 26.8821 57.5746C26.8821 57.6837 26.8491 57.8349 26.8086 57.9105C26.7682 57.9859 26.6899 58.3626 26.6346 58.7477C26.5564 59.293 26.5551 59.5475 26.6283 59.8986C26.6801 60.1465 26.7223 60.4627 26.7223 60.6014C26.7223 60.7401 26.7583 60.8536 26.8022 60.8536C26.8461 60.8536 26.8821 60.978 26.8821 61.1302C26.8821 61.2823 26.918 61.4068 26.962 61.4068C27.0059 61.4068 27.0418 61.4593 27.0418 61.5234C27.0418 61.6362 27.5736 62.6706 27.6726 62.7505C27.6996 62.7722 27.8177 62.9145 27.9351 63.0666C28.3605 63.6178 29.1595 64.3312 29.3515 64.3312C29.399 64.3312 29.438 64.3667 29.438 64.4103C29.438 64.4537 29.4919 64.4893 29.5578 64.4893C29.6237 64.4893 29.6776 64.5248 29.6776 64.5683C29.6776 64.6118 29.7494 64.6474 29.8373 64.6474C29.9252 64.6474 29.997 64.6829 29.997 64.7264C29.997 64.7698 30.063 64.8055 30.1435 64.8055C30.224 64.8055 30.3145 64.8298 30.3446 64.8596C30.446 64.9599 30.9924 65.1187 31.3948 65.1648C31.6145 65.19 31.97 65.2486 32.1849 65.2953C32.4701 65.357 32.7285 65.3546 33.1433 65.2865C34.1082 65.1276 34.4794 65.0452 34.739 64.9316C34.8765 64.8716 35.0429 64.8016 35.1088 64.7762C35.8651 64.4846 37.245 63.3068 37.5904 62.6579C37.6444 62.5566 37.7106 62.456 37.7375 62.4343C37.8262 62.3627 38.2237 61.4984 38.2237 61.3769C38.2237 61.3116 38.2596 61.2361 38.3036 61.2092C38.3475 61.1823 38.3834 61.0578 38.3834 60.9326C38.3834 60.8073 38.4194 60.6828 38.4633 60.6559C38.5112 60.6266 38.5432 60.1018 38.5432 59.3471C38.5432 58.5598 38.5132 58.0872 38.4633 58.0872C38.4194 58.0872 38.3834 57.9648 38.3834 57.8152C38.3834 57.6656 38.3475 57.5213 38.3036 57.4944C38.2596 57.4675 38.2237 57.3587 38.2237 57.2526C38.2237 57.1465 38.1877 57.0596 38.1438 57.0596C38.0999 57.0596 38.0639 57.0108 38.0639 56.9511C38.0639 56.8485 37.6859 56.117 37.5891 56.0322C37.5642 56.0105 37.4375 55.8504 37.3076 55.6765C36.8889 55.1165 35.9204 54.2933 35.68 54.2933C35.6368 54.2933 35.5894 54.2666 35.5746 54.234C35.5455 54.1691 34.9689 53.8854 34.5896 53.7495C33.637 53.4079 32.222 53.3354 31.2351 53.5775ZM44.2139 59.2663C44.2139 62.4796 44.2357 65.1649 44.2624 65.2336C44.3345 65.4194 46.0902 65.4194 46.1623 65.2336C46.1889 65.1649 46.2107 64.2579 46.2107 63.2182V61.3277H46.8497C47.2409 61.3277 47.4886 61.3597 47.4886 61.4104C47.4886 61.4558 47.5785 61.5819 47.6883 61.6906C47.7981 61.7993 47.888 61.9153 47.888 61.9482C47.888 61.9812 48.0138 62.1441 48.1676 62.3102C48.3213 62.4764 48.4471 62.6378 48.4471 62.669C48.4471 62.7003 48.5368 62.8292 48.6467 62.9555C48.7564 63.0818 48.8462 63.2102 48.8463 63.2409C48.8463 63.2715 48.9362 63.3855 49.0461 63.4941C49.1559 63.6028 49.2458 63.7289 49.2458 63.7744C49.2458 63.8198 49.2739 63.857 49.3084 63.857C49.3429 63.857 49.4295 63.9547 49.501 64.0744C49.6154 64.2656 49.7286 64.4135 50.043 64.7824C50.0877 64.8348 50.1244 64.8987 50.1244 64.9242C50.1244 64.9497 50.2136 65.0591 50.3228 65.1671C50.5155 65.3578 50.55 65.363 51.5009 65.3414C52.4141 65.3207 52.4821 65.3084 52.5035 65.1596C52.5162 65.0718 52.4535 64.9221 52.3638 64.827C52.2743 64.7318 52.201 64.6331 52.201 64.6076C52.201 64.582 52.1111 64.4722 52.0013 64.3636C51.8914 64.2548 51.8016 64.1373 51.8016 64.1023C51.8016 64.0671 51.6938 63.9268 51.562 63.7904C51.4302 63.6539 51.3223 63.5153 51.3223 63.4823C51.3222 63.4493 51.2364 63.3235 51.1314 63.2027C51.0265 63.082 50.8557 62.86 50.7521 62.7094C50.6485 62.5586 50.5367 62.4352 50.5037 62.4348C50.4707 62.4346 50.4438 62.3838 50.4438 62.3223C50.4438 62.2607 50.4162 62.1986 50.3825 62.184C50.3488 62.1695 50.1787 61.962 50.0045 61.7229C49.8304 61.4838 49.6602 61.2764 49.6265 61.2619C49.448 61.1851 49.6235 60.9606 50.0045 60.7785C50.3008 60.6369 51.1626 59.7769 51.1626 59.6228C51.1626 59.5606 51.1986 59.5098 51.2425 59.5098C51.2864 59.5098 51.3224 59.4387 51.3224 59.3517C51.3224 59.2648 51.3583 59.1937 51.4022 59.1937C51.4462 59.1937 51.4821 59.1048 51.4821 58.9961C51.4821 58.8875 51.513 58.7986 51.5509 58.7986C51.7195 58.7986 51.8195 57.1305 51.6905 56.4668C51.623 56.1191 51.5923 56.0359 51.2966 55.3998C51.0895 54.9548 50.5676 54.2933 50.4233 54.2933C50.3789 54.2933 50.2846 54.2293 50.2135 54.1511C50.0334 53.9528 49.2877 53.6205 48.7826 53.5136C48.5287 53.4597 47.5298 53.4239 46.2866 53.4239H44.2139V59.2663ZM59.0698 53.5275C59.0698 53.5846 59.1417 53.7076 59.2295 53.8009C59.3174 53.8942 59.3893 53.9946 59.3893 54.0238C59.3893 54.0532 59.4537 54.1346 59.5325 54.205C59.6112 54.2753 59.7819 54.5017 59.9118 54.7081C60.0417 54.9146 60.175 55.0835 60.2079 55.0836C60.2409 55.0836 60.2679 55.1292 60.2679 55.1848C60.2679 55.2405 60.3397 55.3372 60.4276 55.3998C60.5155 55.4626 60.5873 55.5507 60.5873 55.5959C60.5873 55.6412 60.6683 55.7666 60.767 55.8749C60.8659 55.9832 61.0366 56.2047 61.1464 56.3676C61.2562 56.5303 61.373 56.6636 61.406 56.6639C61.4389 56.6642 61.4659 56.7026 61.4659 56.7491C61.4659 56.7957 61.5211 56.8885 61.5885 56.9552C61.6559 57.0219 61.8599 57.295 62.0418 57.562C62.2236 57.8291 62.3933 58.0655 62.4189 58.0872C62.4443 58.1089 62.5717 58.2689 62.7019 58.4428C62.8321 58.6167 63.0027 58.8279 63.0809 58.9123C63.2122 59.0537 63.2231 59.303 63.2231 62.1641C63.2231 64.9167 63.2371 65.2681 63.3493 65.3107C63.4188 65.3371 63.8502 65.3587 64.3078 65.3587H65.1399V62.2542C65.1399 59.2403 65.1445 59.1462 65.2997 59.0356C65.3875 58.9729 65.4597 58.8851 65.4602 58.8403C65.4609 58.7721 65.7836 58.3222 66.0973 57.9522C66.1418 57.8996 66.1783 57.8196 66.1783 57.7743C66.1783 57.729 66.2052 57.6917 66.2381 57.6914C66.2712 57.6911 66.3878 57.5577 66.4977 57.395C66.6886 57.1119 66.7301 57.0572 66.957 56.7891C67.0119 56.7242 67.0568 56.6472 67.0568 56.6178C67.0568 56.5885 67.1203 56.5069 67.1981 56.4366C67.2756 56.3664 67.4823 56.0954 67.6573 55.8346C67.8322 55.5737 68.0382 55.3028 68.1151 55.2326C68.192 55.1622 68.2548 55.0807 68.2548 55.0513C68.2548 55.022 68.2915 54.955 68.3363 54.9026C68.639 54.5472 68.7341 54.4205 68.7341 54.3724C68.7341 54.3422 68.797 54.2439 68.8738 54.154C69.5053 53.4155 69.512 53.4239 68.2892 53.4239C67.2874 53.4239 67.0568 53.482 67.0568 53.7345C67.0568 53.781 67.0269 53.8191 66.9904 53.8191C66.9539 53.8191 66.8731 53.9168 66.8109 54.0365C66.7486 54.156 66.679 54.2716 66.6564 54.2933C66.5862 54.3604 66.2267 54.8148 66.0584 55.0493C65.9705 55.1716 65.7729 55.4406 65.6191 55.6469C65.4654 55.8533 65.2677 56.1192 65.1799 56.2378C65.092 56.3564 64.9752 56.4984 64.9203 56.5534C64.8654 56.6083 64.8203 56.6824 64.8203 56.7181C64.8202 56.7743 64.6916 56.945 64.3396 57.3561C64.2056 57.5126 64.1385 57.4769 63.8931 57.1189C63.7664 56.9342 63.6428 56.7653 63.6185 56.7435C63.5941 56.7217 63.4502 56.5266 63.2988 56.3098C63.0322 55.9282 62.9768 55.8553 62.7638 55.6036C62.7089 55.5386 62.664 55.4646 62.664 55.4391C62.664 55.4136 62.5741 55.3037 62.4642 55.1951C62.3544 55.0864 62.2645 54.9724 62.2645 54.9418C62.2644 54.9112 62.1746 54.7828 62.0649 54.6564C61.955 54.5301 61.8652 54.3984 61.8652 54.3636C61.8652 54.3289 61.7754 54.2116 61.6656 54.1029C61.5558 53.9942 61.4659 53.8862 61.4659 53.8628C61.4659 53.8394 61.3875 53.7311 61.2918 53.6221C61.1228 53.4298 61.0872 53.4239 60.0937 53.4239C59.3022 53.4239 59.0698 53.4475 59.0698 53.5275ZM48.7502 55.3906C48.7665 55.4392 48.8323 55.4789 48.8964 55.4789C49.1017 55.4789 49.6029 55.9627 49.7107 56.2651C50.0658 57.2617 50.0463 57.8191 49.6291 58.6009C49.2324 59.3439 48.8112 59.5098 47.3222 59.5098H46.2107V57.3645V55.2191L47.4655 55.2608C48.283 55.288 48.7309 55.3333 48.7502 55.3906ZM33.671 55.5579C33.671 55.6014 33.7472 55.637 33.84 55.637C34.0124 55.637 34.8076 56.0236 34.8558 56.1309C34.8705 56.1636 34.9192 56.1902 34.9642 56.1902C35.0733 56.1902 35.8967 57.0619 35.9534 57.2375C35.978 57.3136 36.0315 57.3758 36.0725 57.3758C36.1135 57.3758 36.1471 57.4469 36.1471 57.5339C36.1471 57.6208 36.183 57.692 36.227 57.692C36.2709 57.692 36.3068 57.7809 36.3068 57.8896C36.3068 57.9983 36.337 58.0872 36.3738 58.0872C36.4106 58.0872 36.4886 58.3917 36.5472 58.764C36.6899 59.672 36.5904 60.2722 36.1446 61.1895C36.0443 61.3959 35.9343 61.5648 35.9003 61.5648C35.8662 61.5648 35.8181 61.6271 35.7932 61.7032C35.7204 61.9265 35.0327 62.5924 34.8749 62.5924C34.8351 62.5924 34.7906 62.6207 34.776 62.6554C34.7417 62.7363 34.0344 63.0653 33.671 63.1694C33.2568 63.2879 31.9106 63.332 31.8079 63.2304C31.7607 63.1837 31.6391 63.1456 31.5374 63.1456C31.4358 63.1456 31.2902 63.1161 31.214 63.0799C30.8777 62.9207 30.5816 62.7703 30.399 62.6657C30.126 62.5094 29.3745 61.7403 29.3157 61.5573C29.2891 61.4746 29.234 61.4068 29.193 61.4068C29.1521 61.4068 29.1185 61.3535 29.1185 61.2882C29.1185 61.223 29.0826 61.1696 29.0386 61.1696C28.9947 61.1696 28.9588 61.1045 28.9588 61.0248C28.9588 60.945 28.933 60.8545 28.9016 60.8233C28.778 60.701 28.6461 59.994 28.6428 59.4356C28.6391 58.8143 28.7872 57.9291 28.8949 57.9291C28.93 57.9291 28.9595 57.8668 28.9605 57.7907C28.9614 57.7147 29.0325 57.5636 29.1185 57.4548C29.2044 57.3462 29.2755 57.2226 29.2765 57.1804C29.2774 57.138 29.5238 56.8712 29.824 56.5873C30.3475 56.0925 31.0891 55.637 31.3712 55.637C31.4448 55.637 31.5274 55.6014 31.5546 55.5579C31.5834 55.5118 32.0346 55.4789 32.6375 55.4789C33.2733 55.4789 33.671 55.5093 33.671 55.5579ZM11.7068 64.3945C11.7068 64.8916 11.7411 65.203 11.8026 65.2638C11.875 65.3356 13.1 65.3587 16.8259 65.3587C21.2454 65.3587 21.7583 65.3458 21.8018 65.2336C21.8285 65.1649 21.8503 64.7736 21.8503 64.3643V63.6198H16.7786H11.7068V64.3945Z" fill="#373839"/>
<path d="M77.3183 3.63623H3.68188V76.3635H77.3183V3.63623Z" stroke="#373839" stroke-width="2"/>
</svg>
