<svg width="75" height="75" viewBox="0 0 75 75" fill="none" xmlns="http://www.w3.org/2000/svg">
<path fill-rule="evenodd" clip-rule="evenodd" d="M37.573 1.71561C57.228 1.71561 73.1461 17.6338 73.1461 37.2888C73.1461 56.9439 57.228 72.862 37.573 72.862C17.9179 72.862 1.99979 56.9439 1.99979 37.2888C1.99979 17.6338 17.9179 1.71561 37.573 1.71561ZM37.573 0.405273C57.956 0.405273 74.4565 16.9058 74.4565 37.2888C74.4565 57.6719 57.956 74.1723 37.573 74.1723C17.1899 74.1723 0.689453 57.6719 0.689453 37.2888C0.689453 16.9058 17.1899 0.405273 37.573 0.405273Z" fill="#2A2A2A"/>
<path d="M29.905 20.1575C30.0021 19.9633 30.0991 19.8663 30.2447 19.7692C30.0021 19.5751 29.8079 19.3324 29.6623 19.0898C29.4682 19.1868 29.2741 19.3324 29.08 19.478C28.2549 20.1575 28.0123 21.2252 28.4976 21.759C28.9829 22.3414 30.0506 22.1958 30.8271 21.5163C31.2153 21.1766 31.5065 20.7398 31.6036 20.3031C31.3609 20.3031 31.1183 20.206 30.8756 20.1089C30.7786 20.0604 30.6815 20.0119 30.5844 19.9633C30.4874 20.0604 30.4388 20.1575 30.3418 20.2545C29.4682 22.0502 28.5461 21.2737 28.5461 21.2737C29.2255 21.2737 29.3226 21.0796 29.905 20.1575Z" fill="#2A2A2A"/>
<path d="M31.9436 17.3912C30.9729 17.003 29.9052 17.1971 29.614 17.8765C29.517 18.1677 29.517 18.5074 29.7111 18.8472C29.8082 19.0898 30.0023 19.3325 30.2935 19.5266C30.3906 19.6237 30.4876 19.6722 30.6332 19.7693C30.7303 19.8178 30.8273 19.8663 30.9244 19.9148C31.1671 20.0119 31.4097 20.0604 31.6524 20.109C32.3803 20.206 33.0113 19.9148 33.2539 19.4295C33.4965 18.653 32.9142 17.7795 31.9436 17.3912ZM32.8171 19.381C32.8171 19.381 32.6715 18.9442 31.798 18.8957C31.6038 18.8957 31.4582 18.8957 31.3127 18.8957C30.9244 18.8472 30.6332 18.7501 30.4391 18.653C29.9052 18.3133 30.0023 17.7795 30.0023 17.7795C30.342 18.3618 30.5847 18.3618 31.6524 18.4589C33.0598 18.556 32.8171 19.381 32.8171 19.381Z" fill="#2A2A2A"/>
<path d="M28.9835 18.8957C29.3717 18.3618 29.3717 17.6824 28.9835 17.3912C28.5952 17.1 27.9158 17.2941 27.5275 17.7794C27.1393 18.3133 27.1393 18.9927 27.5275 19.2839C27.9158 19.6236 28.5952 19.4295 28.9835 18.8957ZM27.5275 19.0412C27.9158 18.9442 27.9643 18.7986 28.1585 18.1677C28.4011 17.3912 28.935 17.6824 28.935 17.6824C28.935 17.6824 28.6438 17.6824 28.4982 18.2162C28.2555 19.381 27.5275 19.0412 27.5275 19.0412Z" fill="#2A2A2A"/>
<path d="M40.8251 12.3926C40.9706 12.5382 41.1162 12.6352 41.2618 12.7323C41.3589 12.5382 41.553 12.3926 41.7471 12.247C41.6501 12.1499 41.6016 12.0529 41.5045 11.9073C41.1162 11.1793 41.0192 10.9852 40.5339 10.9366C40.5339 10.9366 41.3104 10.4028 41.8927 11.8587C41.9413 11.9558 41.9898 12.0529 42.0383 12.1014C42.1354 12.0529 42.1839 12.0043 42.281 12.0043C42.4751 11.9558 42.6692 11.9073 42.8633 11.9073C42.8148 11.5675 42.6207 11.2278 42.3295 10.9366C41.7472 10.3542 40.9221 10.1601 40.4853 10.5969C40.0971 10.9852 40.1941 11.8102 40.8251 12.3926Z" fill="#2A2A2A"/>
<path d="M42.8627 12.1016C42.6686 12.1016 42.4744 12.1501 42.2803 12.1986C42.1833 12.1986 42.1347 12.2472 42.0377 12.2957C41.9406 12.3442 41.8435 12.3927 41.7465 12.4413C41.5523 12.5869 41.3582 12.7325 41.2612 12.9266C41.1156 13.1692 41.067 13.4119 41.1156 13.6545C41.3097 14.2368 42.0862 14.431 42.9112 14.1883C43.6877 13.9457 44.2216 13.2663 44.0275 12.7325C43.9304 12.3442 43.4451 12.1016 42.8627 12.1016ZM42.8627 13.3633C42.0377 13.3633 41.8435 13.3633 41.5038 13.8001C41.5038 13.8001 41.4553 13.4118 41.8921 13.1692C42.0377 13.0722 42.2803 13.0237 42.5715 13.0237C42.6686 13.0237 42.8142 13.0237 42.9598 13.0237C43.6392 13.0237 43.7848 12.6839 43.7848 12.6839C43.7848 12.6839 43.8819 13.3633 42.8627 13.3633Z" fill="#2A2A2A"/>
<path d="M40.6788 12.8777C40.3876 12.4409 39.9024 12.2468 39.5627 12.4895C39.223 12.6836 39.1745 13.2174 39.4656 13.6542C39.7568 14.091 40.2421 14.2851 40.5818 14.0425C40.9215 13.8484 40.97 13.3145 40.6788 12.8777ZM40.0479 13.4116C39.9509 12.9263 39.9024 12.7807 39.5627 12.6836C39.5627 12.6836 40.145 12.4409 40.2421 13.4116C40.3391 13.7998 40.5332 13.8484 40.5332 13.8484C40.5332 13.8484 40.1935 14.0425 40.0479 13.4116Z" fill="#2A2A2A"/>
<path d="M31.1669 16.3721C31.264 16.081 31.5552 15.8868 31.7493 15.6927C31.992 15.45 32.2832 15.2074 32.6229 15.1103C32.7685 15.0618 32.6714 14.8677 32.5258 14.9162C32.4288 14.8191 32.3802 14.7706 32.3317 14.6736C32.2346 14.5765 32.1376 14.431 32.089 14.2854C31.992 14.1398 31.992 13.9942 31.9434 13.8486L31.8949 13.7515C31.8464 13.8001 31.8464 13.8486 31.7979 13.8486C31.6523 13.9942 31.4096 14.0427 31.2155 13.9942C31.1184 14.1398 31.0213 14.2854 30.9243 14.3824C30.7302 14.528 30.4875 14.6251 30.2448 14.6736C30.2448 14.9162 30.0993 15.1589 29.9537 15.3044C29.9051 15.353 29.8081 15.4015 29.7595 15.4015L29.8566 15.4986C30.0022 15.4986 30.1963 15.4986 30.3419 15.5956C30.6331 15.7412 30.9243 15.9839 31.1184 16.2751C31.1184 16.2751 31.1184 16.3236 31.0699 16.3721C30.9243 16.4207 31.1669 16.5177 31.1669 16.3721ZM31.4581 14.3339C31.5067 14.3339 31.5552 14.3339 31.5552 14.3824L31.9434 15.0133C31.9434 15.0618 31.9434 15.1103 31.9434 15.1103C31.8949 15.1103 31.8464 15.1103 31.8464 15.0618L31.4581 14.431C31.4581 14.3824 31.4581 14.3339 31.4581 14.3339ZM30.9728 14.7221C31.0213 14.7221 31.0699 14.7221 31.0699 14.7221L31.5552 15.3044C31.5552 15.353 31.5552 15.4015 31.5552 15.4015C31.5067 15.4015 31.4581 15.4015 31.4581 15.4015L30.9728 14.8192C30.9728 14.7706 30.9728 14.7221 30.9728 14.7221ZM30.4875 15.2074C30.439 15.1589 30.439 15.1103 30.4875 15.1103H30.5846L31.1184 15.6442C31.1669 15.6927 31.1669 15.7412 31.1184 15.7412H31.0213L30.4875 15.2074Z" fill="#2A2A2A"/>
<path d="M28.4495 13.8481C28.401 13.9452 28.3524 13.9452 28.3524 13.9937C28.3524 13.9937 28.3039 14.0423 28.3039 14.0908C28.3039 14.0908 28.3039 14.1393 28.2554 14.1393C28.2554 14.1393 28.2554 14.1879 28.2068 14.2364C28.1583 14.3335 28.1583 14.4305 28.1583 14.5761C28.1583 14.7702 28.2554 14.9644 28.4495 15.11C28.498 15.1585 28.5466 15.1585 28.5466 15.207C28.7892 15.4012 29.1288 15.4497 29.3715 15.3526H29.42C29.42 15.3526 29.42 15.3526 29.4686 15.3526C29.5656 15.3526 29.6142 15.3041 29.7112 15.2556C29.9053 15.11 30.0024 14.8673 30.0024 14.6247C30.2936 14.6247 30.5363 14.5276 30.7304 14.382C30.876 14.2849 30.973 14.1393 31.0216 13.9937C31.2157 14.0423 31.4584 13.9937 31.6039 13.8481C31.7981 13.7026 31.8951 13.5084 31.9437 13.2658C31.9922 13.0231 31.9437 12.7805 31.8466 12.5378C31.7495 12.2466 31.5554 12.0525 31.2642 11.9554C30.973 11.8098 30.5848 11.8098 30.2936 12.0039C30.2936 12.0039 30.2936 12.0039 30.2451 12.0039L30.1965 11.9554C29.9053 11.6642 29.323 11.6157 28.9347 11.8098C28.6436 11.9554 28.4495 12.1495 28.2554 12.4407C28.1098 12.6834 28.1098 12.9746 28.2068 13.2658C28.2554 13.3628 28.3039 13.5084 28.3524 13.6055C28.401 13.654 28.4495 13.7026 28.4495 13.7511V13.8481ZM29.2259 12.0039C29.4686 11.8584 29.8083 11.9069 30.0024 12.0525C30.0995 12.1495 29.9539 12.2951 29.8568 12.1981C29.7112 12.101 29.4686 12.101 29.323 12.1495C29.2259 12.2466 29.1288 12.0525 29.2259 12.0039ZM28.9347 12.1495C29.0803 12.1495 29.0803 12.3437 28.9347 12.3437C28.7891 12.3922 28.7891 12.1495 28.9347 12.1495Z" fill="#2A2A2A"/>
<path d="M30.6331 24.5254C30.1963 24.7195 30.0507 25.2534 30.2934 25.5446C30.4875 25.7872 30.8757 25.8843 31.1669 25.8358C32.1861 25.6902 31.5067 24.1857 30.6331 24.5254Z" fill="#2A2A2A"/>
<path d="M32.5748 23.8942C32.5748 23.7486 32.6233 23.603 32.5748 23.506C32.5748 23.506 32.5748 23.4574 32.5263 23.4574C32.5263 23.4574 32.4777 23.4089 32.4292 23.4089C32.2836 23.3118 32.0409 23.4089 31.8468 23.4089C31.7983 23.4089 31.7498 23.3604 31.7012 23.3118V23.1662C31.5556 22.8751 31.41 22.8751 31.1188 22.9721C30.8277 23.0692 30.4879 23.1662 30.1967 23.3118C30.1482 23.3604 30.0997 23.4089 30.0511 23.4574L30.0026 23.5545C29.9541 23.7001 29.8085 23.7972 29.6629 23.8457L29.1776 23.9428C29.032 23.9428 28.9349 23.9428 28.8864 23.8457C28.8864 23.7486 28.7408 23.7486 28.5952 23.7486L28.4011 23.7972C28.2556 23.7972 28.1585 23.8942 28.1585 23.9913C28.1585 24.0398 28.1585 24.0883 28.11 24.1369L28.0615 24.1854C28.0129 24.1854 27.9644 24.2339 27.9644 24.2825C27.9159 24.3795 27.9159 24.4281 27.9644 24.5251C27.9644 24.7192 28.11 24.9133 28.1585 25.1074C28.2555 25.4471 28.3041 25.7869 28.3526 26.078C28.4011 26.3207 28.3526 26.7575 28.5467 26.9516C28.6437 27.0972 28.7893 27.0487 28.9349 27.0487C29.3232 27.0001 29.7114 27.0001 30.1482 26.9516C31.0703 26.8545 31.9924 26.5634 32.963 26.5148C33.0116 26.5148 33.0601 26.4663 33.0601 26.4178C33.0116 26.1751 32.963 25.9324 32.866 25.7383C32.7689 25.0589 32.6719 24.4766 32.5748 23.8942ZM28.9349 24.5251C28.7893 24.5736 28.6437 24.6222 28.4982 24.6222H28.4496V24.3795C28.4982 24.331 28.5467 24.331 28.5952 24.2825H28.7408C28.7893 24.2825 28.8379 24.2825 28.8864 24.2825L28.9349 24.331C28.9349 24.331 28.9349 24.3795 28.9835 24.3795C28.9349 24.4281 28.9349 24.4766 28.9349 24.5251ZM31.3615 26.1266C30.8762 26.2722 30.2453 26.1266 30.0026 25.6413C29.76 25.1559 29.9541 24.4766 30.4394 24.2339C31.1674 23.9428 31.7012 24.331 31.8468 24.8648C32.0409 25.3986 31.9439 25.981 31.3615 26.1266ZM32.2351 23.9913C32.138 23.9913 32.0409 23.9428 31.9924 23.8457C31.9924 23.7486 32.0895 23.6516 32.1865 23.6516C32.2351 23.6516 32.2836 23.6516 32.3321 23.7001C32.3321 23.7486 32.3807 23.7972 32.3321 23.8942C32.3807 23.9428 32.3321 23.9913 32.2351 23.9913Z" fill="#2A2A2A"/>
<path d="M42.523 9.33513C42.6685 9.18953 42.7656 8.99543 42.717 8.80124L42.62 7.19976L43.9303 7.73365L43.9788 8.89834C43.7361 8.70424 43.3964 8.75274 43.1052 8.99543C42.8141 9.28663 42.8141 9.67483 43.0567 9.91752C43.2994 10.1601 43.7361 10.1601 43.9788 9.86893C44.1244 9.72333 44.2215 9.52923 44.1729 9.33513L44.0759 7.15126L42.3774 6.32617L42.4744 8.26744C42.2318 8.07334 41.8435 8.12185 41.6009 8.36454C41.3097 8.65574 41.3097 9.04393 41.5523 9.28663C41.795 9.62633 42.2318 9.62633 42.523 9.33513Z" fill="#2A2A2A"/>
<path d="M40.4368 17.3911C40.4853 17.3426 41.0192 16.8573 40.4368 16.372C40.2427 16.2264 40.0971 16.1778 39.9029 16.2264C39.5632 16.2264 39.5147 16.1293 39.5147 16.1293C39.6117 16.1293 39.7573 16.1293 39.8059 16.0808C39.8059 16.0808 39.8059 16.0808 39.8544 16.0808C39.9515 16.0322 40.0485 15.9837 40.0971 15.8866C40.1456 15.7896 40.1941 15.6925 40.1941 15.5469C40.1941 15.4984 40.1941 15.4984 40.1941 15.4499C40.1941 15.3528 40.0971 15.2557 40 15.1587C39.9515 15.0616 39.8544 15.0616 39.7573 15.0131C39.6117 14.9645 39.272 15.0616 39.175 15.2072V15.2557C39.175 15.2557 39.175 15.2557 39.175 15.3043C39.175 15.4499 39.2235 15.5469 39.3206 15.5955C39.3691 15.644 39.4662 15.5955 39.5147 15.644C39.4176 15.741 39.2235 15.741 39.175 15.644H39.1264C39.0294 15.5955 38.9323 15.5955 38.7867 15.644C38.6411 15.6925 38.447 16.0322 38.7867 16.2749C38.8838 16.372 38.9808 16.4205 39.1264 16.469C39.1264 16.469 39.1264 16.469 39.1264 16.5176C39.1264 16.5176 39.1264 16.5176 39.0779 16.5176C38.8352 16.469 38.6896 16.372 38.5441 16.2749C38.4955 16.1778 38.447 16.0808 38.3499 16.0322C38.2043 15.9352 38.0587 15.8866 37.8646 15.9352C37.6705 15.9837 37.4764 16.2749 37.5734 16.469C37.5734 16.5661 37.6705 16.6632 37.7675 16.6632L40.2912 17.3426C40.2912 17.4882 40.3883 17.4397 40.4368 17.3911Z" fill="#2A2A2A"/>
<path d="M39.9017 18.168C39.9502 18.168 39.9988 18.1195 40.0473 18.071C40.1444 17.9739 40.2414 17.7798 40.2414 17.6827C40.2414 17.5857 40.0958 17.5857 40.0473 17.6827C39.9502 17.8769 39.9502 17.9254 39.9017 17.9254C39.8532 17.9254 39.8532 17.8283 39.9017 17.6342C39.9017 17.5857 39.9017 17.5371 39.8532 17.5371C39.8046 17.5371 39.7561 17.5371 39.7561 17.5857C39.659 17.7798 39.659 17.8769 39.562 17.8283C39.5134 17.8283 39.5134 17.7313 39.562 17.5371C39.562 17.4886 39.562 17.4401 39.5134 17.4401C39.4649 17.4401 39.4164 17.4401 39.4164 17.4886C39.3193 17.6827 39.3193 17.7798 39.2223 17.7313C39.1737 17.7313 39.1737 17.6342 39.2223 17.4401C39.2223 17.3915 39.2223 17.343 39.1737 17.343C39.1252 17.343 39.0767 17.343 39.0767 17.3915C38.9797 17.5857 38.9797 17.6827 38.8826 17.6342C38.8341 17.6342 38.8341 17.5371 38.8826 17.343C38.8826 17.2945 38.8826 17.2459 38.8341 17.2459C38.7855 17.2459 38.737 17.2459 38.737 17.2945C38.64 17.4886 38.64 17.5371 38.5429 17.5371C38.4944 17.5371 38.4944 17.4401 38.5429 17.2459C38.5429 17.1974 38.5429 17.1489 38.4944 17.1489C38.4459 17.1489 38.3973 17.1489 38.3973 17.1974C38.3003 17.3915 38.3003 17.4886 38.2032 17.4401C38.1547 17.4401 38.1547 17.343 38.2032 17.1489C38.2032 17.1003 38.2032 17.0518 38.1061 17.0518C38.0576 17.0518 38.0091 17.0518 38.0091 17.1003C37.912 17.2945 37.912 17.343 37.8149 17.343C37.7664 17.343 37.7664 17.2459 37.8149 17.0518C37.8149 17.0033 37.8149 16.9548 37.7664 16.9548C37.7179 16.8577 37.5723 16.9062 37.5723 17.0033C37.5723 17.1489 37.5723 17.2945 37.6208 17.4401C37.6693 17.5371 37.7179 17.5857 37.7664 17.6342C37.7664 17.7313 37.7664 17.7798 37.7664 17.8769C37.6693 17.9739 37.6208 18.1195 37.7664 18.168C37.8635 18.2166 38.0091 18.168 38.1547 18.168C38.4944 18.2651 38.8341 18.3136 39.1737 18.4592C39.3193 18.5078 39.4649 18.5563 39.562 18.6534C39.659 18.7504 39.7561 18.799 39.8532 18.7019C39.9017 18.6534 39.9017 18.5563 39.8532 18.4592C39.8532 18.3622 39.9017 18.3136 39.9502 18.2651C39.8532 18.2166 39.9017 18.168 39.9017 18.168Z" fill="#2A2A2A"/>
<path d="M41.0674 23.3608C41.0674 23.3608 40.8247 22.099 40.7762 22.099C40.8247 22.099 40.9218 22.0505 40.9218 22.0505C41.0188 22.0019 40.9703 21.8078 40.8247 21.8564C40.7762 21.8564 40.2909 21.9534 40.1453 22.0019C40.0482 22.0505 39.4658 22.1475 39.3202 22.1961C39.2717 22.1961 39.2232 22.1961 39.1261 22.2446C39.029 22.0505 38.932 21.6622 38.8349 21.5166C38.8349 21.4681 38.8349 21.4681 38.7864 21.4196C39.0776 21.3225 39.3688 21.2254 39.6599 21.0798C39.9026 20.9828 40.1453 20.8857 40.3879 20.8372C40.8247 20.6431 41.1159 20.546 41.0674 20.4489C41.0674 20.4004 40.8247 20.4004 40.485 20.4489C40.1938 20.4975 39.9997 20.5945 39.7085 20.6431C39.7085 20.6431 39.6599 20.6431 39.6114 20.6431C39.3202 20.6916 39.0776 20.7401 38.8349 20.8372H38.7864C38.7864 20.8372 38.7378 20.8372 38.6893 20.8372C38.4952 20.8857 38.3981 20.5945 38.4467 20.4489C38.4467 20.4489 38.4467 20.4489 38.4467 20.4004C38.3981 20.2548 38.204 20.3033 38.2525 20.4489C38.3496 20.546 38.3981 20.6431 38.3981 20.7887C38.3981 20.8372 38.3981 20.8857 38.3496 20.8857C38.0099 20.9828 37.9129 20.9828 37.6217 21.1284C37.6217 21.1284 37.5247 21.2254 37.4761 21.2254C37.0879 21.3225 36.5055 21.5166 36.1658 21.7593C36.2628 21.8078 36.554 21.7593 36.9908 21.7108C37.1364 21.7108 37.2335 21.6622 37.3791 21.6137C37.8158 21.5652 38.204 21.5652 38.6408 21.4681C38.6893 21.6622 38.7378 21.7593 38.7864 21.9049C38.7864 21.9049 38.8349 22.099 38.8834 22.1961C38.8349 22.1961 38.7864 22.2446 38.6893 22.2446C38.6408 22.2446 38.6408 22.2446 38.5922 22.2446C38.5437 22.2446 38.4952 22.2446 38.4952 22.2446C38.2525 22.2931 37.6702 22.4387 37.6217 22.4873C37.5247 22.4873 37.5247 22.5843 37.5732 22.6329C37.5732 22.6814 37.6217 22.6814 37.6703 22.6814C37.7188 22.6814 37.7673 22.6814 37.8158 22.6814L37.8643 22.8755C38.6408 23.0696 39.3688 23.8947 39.3688 23.8947C39.5144 23.8947 40.8247 23.5064 41.213 23.4094C41.3585 23.4579 41.2615 23.3123 41.0674 23.3608Z" fill="#2A2A2A"/>
<path d="M36.8453 23.0695L36.9424 22.8268C36.9909 22.8268 37.0394 22.8268 37.088 22.8268C37.1365 22.8268 37.185 22.8268 37.185 22.7783C37.185 22.7298 37.185 22.6327 37.1365 22.6327C37.088 22.6327 36.5056 22.4386 36.2629 22.39H36.1659C36.1173 22.39 36.1173 22.39 36.0688 22.39C35.8747 22.3415 35.632 22.293 35.4379 22.2444C35.2923 22.1959 34.7585 22.0988 34.6129 22.0503C34.4673 22.0018 33.982 21.9047 33.9334 21.9047C33.8364 21.8562 33.7393 22.0503 33.8364 22.0988C33.8364 22.0988 33.9334 22.1474 33.982 22.1474L33.7878 23.4092C33.6422 23.3121 33.6422 23.5063 33.7393 23.5063C34.079 23.6033 35.2438 23.9916 35.3894 23.943C35.3894 23.9916 36.0688 23.2636 36.8453 23.0695Z" fill="#2A2A2A"/>
<path d="M39.4657 25.8845C39.6113 25.4963 39.6598 25.011 39.3686 24.38C39.2716 24.1859 39.0774 23.9433 38.8348 23.7491C38.5436 23.5065 38.3495 23.3609 37.9127 23.2153C37.3788 23.0697 36.7964 23.2153 36.3111 23.5065C36.0199 23.7006 35.5832 24.1374 35.389 24.7683C35.389 24.8168 35.292 25.3021 35.3405 25.4963C35.3405 25.5933 35.389 25.6904 35.389 25.7389C35.389 25.7875 35.389 25.7875 35.389 25.836C35.389 25.8845 35.4376 25.9331 35.4861 25.9816V26.0301C35.292 26.3213 34.9037 26.9037 34.8552 27.0007C34.8552 27.0493 34.9037 27.0978 34.9522 27.1463C35.0008 27.1949 35.0493 27.1949 35.0978 27.1949C35.0978 27.1949 35.1949 27.1949 35.1949 27.1463C35.1949 27.1463 35.1949 27.1463 35.2434 27.1463C35.3405 27.0978 35.4376 26.9522 35.5346 26.9037C35.6802 26.8066 35.8258 26.661 36.0199 26.564C36.0199 26.564 36.0199 26.6125 36.0685 26.6125C36.0685 26.661 36.117 26.661 36.117 26.7096C36.117 26.7096 36.845 27.4861 38.0583 27.0978C38.3009 27.0007 38.5436 26.9037 38.7377 26.7581C38.7862 26.7096 38.9804 26.564 39.0289 26.5154C39.0774 26.564 39.126 26.6125 39.126 26.6125C39.2716 26.8066 39.5142 27.0007 39.6598 27.1949C39.7083 27.2434 39.7569 27.2434 39.7569 27.2434C39.8054 27.2434 39.8539 27.1949 39.9025 27.1949C39.9025 27.1949 39.951 27.1463 39.951 27.0978C39.8054 26.8552 39.3686 26.2242 39.3201 26.1272C39.3686 26.0301 39.4171 25.9816 39.4657 25.8845ZM38.495 25.3021C38.398 25.9816 37.7671 26.2242 37.1847 26.1272C36.9906 26.0786 36.7964 25.9816 36.6994 25.836C36.5053 25.6904 36.4567 25.3992 36.4567 25.2051C36.4567 24.9139 36.5538 24.6712 36.7964 24.4771C36.7964 24.4771 36.8935 24.38 36.942 24.38C36.942 24.38 37.0391 24.283 37.0876 24.283C37.1847 24.1859 37.2818 24.1859 37.4274 24.1859C37.5244 24.1859 37.6215 24.1859 37.67 24.1859C38.1068 24.1859 38.398 24.4771 38.495 24.8168C38.495 24.8654 38.495 24.8654 38.5436 24.9139C38.495 25.0595 38.495 25.2051 38.495 25.3021Z" fill="#2A2A2A"/>
<path d="M47.9105 18.7503C47.9105 18.7988 47.959 18.8959 48.0561 18.9444C48.1531 19.0415 48.2017 19.09 48.2017 19.2356C48.2017 19.3326 48.1531 19.3812 48.1046 19.4297C48.1046 19.4782 48.0561 19.5268 48.0561 19.5268C48.0561 19.5753 48.0561 19.5753 48.1046 19.6238C48.1046 19.7209 48.2502 19.7694 48.3473 19.7694C48.4929 19.7694 48.5899 19.6724 48.6384 19.5268C48.687 19.4297 48.687 19.3812 48.687 19.2841C48.687 19.2356 48.687 19.2356 48.687 19.1871C48.687 19.0415 48.5899 18.8959 48.4443 18.7988C48.3958 18.7988 48.3473 18.7503 48.3473 18.7017C48.2502 18.6047 48.2502 18.5076 48.2502 18.4591C48.2502 18.3135 48.2502 18.2164 48.2017 18.0708C48.1046 17.8767 47.959 17.9252 47.8619 17.7311V17.6826C47.8619 17.634 47.8619 17.5855 47.8619 17.4884C47.9105 17.2943 47.8619 17.1487 47.7649 17.0031L47.7164 16.9546C47.6193 16.8575 47.4737 16.9061 47.3281 16.9546C47.231 16.9546 47.0854 17.0031 46.9884 17.0517C46.9884 17.0031 46.9884 17.0031 46.9884 16.9546C46.9884 16.9061 46.9398 16.9061 46.8913 16.9061H46.7942C46.7942 17.0031 46.7943 17.1973 46.6972 17.1973C46.6972 17.1002 46.6001 16.9546 46.5516 16.9061C46.5516 16.9061 46.6972 16.9061 46.7457 16.7119C46.7943 16.5178 46.6487 16.4208 46.6002 16.4208C46.6002 16.4208 46.1634 16.2752 45.9208 16.1781C45.9208 16.1781 45.9208 16.1781 45.8722 16.1781L45.8237 16.1296C45.7752 16.0325 45.8237 15.9354 45.8722 15.9354C45.9208 15.9354 45.9693 15.9354 45.9693 15.9354C46.1149 15.9354 46.212 15.8869 46.2605 15.7413C46.3575 15.5957 46.2605 15.4016 46.1634 15.3045C46.0664 15.2075 45.9693 15.1104 45.8722 15.1104C45.7752 15.0619 45.6296 15.1104 45.5325 15.1104C45.3869 15.1104 45.2413 15.256 45.1928 15.4016C45.1928 15.5472 45.2413 15.6442 45.3384 15.7413C45.5325 15.7413 45.484 15.984 45.3384 16.0325H45.2899C44.9987 15.984 44.5619 15.8384 44.5619 15.8384C44.5619 15.8384 44.3678 15.7898 44.2707 15.984C44.2222 16.1781 44.3192 16.2266 44.3192 16.2266C44.2222 16.2266 44.0766 16.3237 44.028 16.3722C43.931 16.4693 43.931 16.6634 43.9795 16.809C43.7854 16.7605 43.5427 16.9061 43.4457 17.0517C43.3486 17.1973 43.3486 17.4399 43.4457 17.5855C43.3001 17.5855 43.1545 17.6826 43.0574 17.6826C42.7662 17.8767 42.6206 18.265 42.7662 18.5076C42.475 18.4105 42.2324 18.362 42.0868 18.0223C41.9897 17.7311 41.9897 17.3914 42.0868 17.0031C42.0868 16.9546 42.0868 16.9061 42.0868 16.8575C42.0868 16.8575 42.2324 15.8869 42.0868 15.5957C42.0383 15.4016 41.7956 15.256 41.65 15.1104C41.65 15.1104 41.3588 15.1104 41.2617 15.1589C41.3103 15.1589 41.8441 15.3045 41.8441 15.7898C41.8441 16.081 41.5044 17.7311 41.5529 18.1679C41.65 18.6047 42.0383 18.6532 42.3294 18.8473C42.2809 18.9444 42.2324 19.0415 42.2324 19.1385C42.2324 19.4297 42.4265 19.5753 42.6692 19.6724C42.6692 19.6724 42.6692 19.6724 42.7177 19.6724L45.5325 20.5459H45.5811C45.8237 20.5945 46.0664 20.5945 46.2605 20.3518C46.6002 19.915 46.309 19.5268 46.2605 19.5268C46.5516 19.3812 46.6002 18.9929 46.5031 18.6532C46.5031 18.5561 46.4061 18.4591 46.2605 18.362C46.4061 18.265 46.5516 18.1194 46.5516 17.9252C46.5516 17.7796 46.4546 17.537 46.309 17.4399C46.4061 17.3914 46.5031 17.3429 46.5031 17.3429V17.2458C46.6487 17.1973 46.6972 17.3429 46.6972 17.4884C46.7457 17.4884 46.7942 17.4399 46.7942 17.3914V17.1487C46.7942 17.1487 46.7942 17.1487 46.8428 17.1487C46.8428 17.1487 47.2796 17.0031 47.3281 17.2458C47.3281 17.3429 47.3281 17.4884 47.2796 17.5855C47.231 17.6826 47.2796 17.7796 47.3281 17.8767C47.4252 17.9252 47.4737 17.9738 47.5222 18.0708C47.5708 18.1194 47.6193 18.1679 47.6678 18.265C47.9105 18.5561 47.9105 18.6532 47.9105 18.7503ZM45.8722 15.3045C45.9693 15.3045 46.0664 15.4987 46.0664 15.5957C46.0664 15.6442 46.0178 15.6928 45.9693 15.6442V15.5957C45.9693 15.5472 45.9693 15.4987 45.9208 15.4016C45.8723 15.3531 45.8237 15.3045 45.7267 15.3045C45.8237 15.3045 45.8237 15.3045 45.8722 15.3045ZM44.8046 16.0325C44.8531 16.0325 44.9501 16.0325 44.9987 16.0325C44.9987 16.0325 45.0472 16.0325 45.0957 16.0325L46.1149 16.3237C46.1149 16.3237 46.1634 16.3237 46.2119 16.3237C46.2119 16.3237 46.3575 16.3722 46.3575 16.4208V16.4693C46.3575 16.4693 46.309 16.4693 46.2605 16.4693C45.8722 16.2752 45.484 16.2266 45.0957 16.1296L44.9502 16.081C44.9502 16.1296 44.756 16.081 44.8046 16.0325C44.756 16.081 44.756 16.0325 44.8046 16.0325ZM46.1149 19.8665C45.9693 19.818 45.7752 19.7694 45.6296 19.7209C45.2413 19.6238 44.9501 19.4782 44.5619 19.3812C44.3192 19.2841 43.9795 19.1871 43.7369 19.1385C43.5913 19.09 43.4457 19.0415 43.2515 18.9444C43.1545 18.8959 43.0089 18.8473 42.9118 18.8473L42.8633 18.7988C42.8633 18.7988 42.8633 18.7988 42.9118 18.7988C42.9604 18.7988 43.0574 18.7988 43.3971 18.8959L45.6296 19.5753C46.0178 19.6724 46.0178 19.7209 46.0664 19.7694L46.1149 19.818C46.1634 19.818 46.1149 19.8665 46.1149 19.8665ZM46.3575 18.8959C46.0664 18.7988 45.7267 18.7017 45.4355 18.6047C45.0472 18.4591 44.7075 18.362 44.3678 18.265C44.0766 18.1679 43.8339 18.1194 43.5427 18.0708C43.4942 18.0708 43.4457 18.0708 43.3971 18.0223C43.3486 17.9738 43.3001 17.9738 43.3001 17.9252C43.3001 17.9252 43.3486 17.8767 43.3971 17.9252C43.4942 17.9252 43.5913 17.9252 43.7854 18.0223C44.028 18.1194 44.2707 18.1679 44.5134 18.265C44.6104 18.265 44.7075 18.3135 44.8046 18.362H44.9016C44.9987 18.4105 45.0957 18.4105 45.1928 18.4591C45.4355 18.5561 45.6781 18.6047 45.9208 18.7017C46.0664 18.7503 46.212 18.7988 46.2605 18.8473C46.3575 18.8959 46.4061 18.8959 46.3575 18.8959ZM46.3575 17.9252C46.2605 17.8282 45.6781 17.7311 45.3869 17.634C44.9501 17.4884 44.4648 17.2943 44.028 17.2458C43.931 17.1973 43.8825 17.1487 43.8825 17.1487C43.8825 17.1002 44.1251 17.1487 44.3192 17.2458L46.0664 17.7796C46.212 17.7796 46.4061 17.8767 46.3575 17.9252ZM46.4061 17.1973C46.4061 17.1973 46.3575 17.1973 46.309 17.1973C45.7752 16.9546 45.2413 16.8575 44.7075 16.7119L44.3192 16.5178C44.3192 16.5178 44.3192 16.5178 44.3678 16.4693C44.4163 16.4693 44.5619 16.5178 44.6104 16.5178C44.659 16.5178 44.659 16.5178 44.7075 16.5663L46.1149 17.0031C46.1634 17.0031 46.1634 17.0031 46.2119 17.0517C46.2119 17.0517 46.3576 17.1002 46.4061 17.1973C46.4061 17.1487 46.4061 17.1487 46.4061 17.1973Z" fill="#2A2A2A"/>
<path d="M33.6907 16.8575C33.8848 17.0517 34.1275 17.1973 34.2245 17.2943C34.3216 17.3429 34.3701 17.4399 34.4187 17.4884C34.5157 17.634 34.5643 17.8767 34.6613 18.0223L34.7099 18.0708L35.3408 17.7796L35.9231 17.4884V17.4399C35.6805 17.1487 35.632 16.7605 35.729 16.3722C35.729 16.3237 35.729 16.2266 35.7776 16.1781C35.7776 16.081 35.7776 16.0325 35.7776 15.9354V15.8384C35.6805 15.6442 35.5834 15.4501 35.4378 15.256C35.3408 15.2075 35.2437 15.1589 35.1466 15.0619C35.0496 15.0133 35.0011 15.0133 34.904 14.9648C34.7584 14.9648 34.6128 14.9648 34.5157 14.9648C34.4187 14.9648 34.3216 15.0133 34.176 15.0619C34.079 15.1104 33.9334 15.1589 33.8848 15.256C33.7878 15.3045 33.6907 15.4501 33.6422 15.5472C33.5936 15.6442 33.5451 15.6928 33.5451 15.7898C33.4966 15.9354 33.448 16.0325 33.448 16.1296C33.448 16.4693 33.5451 16.6634 33.6907 16.8575ZM34.6613 15.3045C34.8555 15.256 35.0496 15.3531 35.1952 15.4987C35.2922 15.5957 35.1466 15.6928 35.0496 15.5957C34.9525 15.4987 34.8069 15.4501 34.6613 15.4987C34.5643 15.4987 34.5157 15.3045 34.6613 15.3045Z" fill="#2A2A2A"/>
<path d="M34.8547 20.5945H34.9033L37.718 19.2356V19.1871C37.718 19.1386 37.718 19.09 37.6695 19.09C37.6695 19.09 37.6695 19.09 37.6209 19.0415C37.6209 18.993 37.621 18.993 37.5724 18.9444C37.5724 18.8959 37.5239 18.8474 37.4754 18.7989L37.4268 18.7503C37.3783 18.7503 37.3298 18.7018 37.3298 18.7018C37.0386 18.7503 36.7474 18.8474 36.4562 18.7503C36.0194 18.6047 35.7768 18.1194 35.8253 17.6826L34.9518 18.1194C35.2915 18.4106 35.4856 18.8959 35.2915 19.2842C35.1459 19.5754 34.9033 19.721 34.6606 19.8665C34.6606 19.9151 34.6121 19.9636 34.6121 19.9636V20.0607C34.6121 20.1092 34.6606 20.1577 34.6606 20.2063C34.6606 20.2548 34.7092 20.3033 34.7092 20.3519C34.7092 20.3519 34.7092 20.4004 34.7577 20.4489C34.8062 20.546 34.8547 20.5945 34.8547 20.5945Z" fill="#2A2A2A"/>
<path d="M34.8075 8.75283C34.8075 8.65573 34.8075 8.65573 34.8075 8.55873C34.8075 8.41313 34.8075 8.26753 34.8075 8.12194C34.8075 8.07334 34.8075 8.02484 34.759 7.97634C34.7104 7.68514 34.6134 7.44245 34.4678 7.24835C34.4678 7.19985 34.4192 7.19985 34.4192 7.15125C34.3222 7.05425 34.2736 6.90865 34.2251 6.81156C34.1766 6.71455 34.0795 6.66596 34.031 6.56895C33.9825 6.52036 33.9339 6.47186 33.8369 6.42336C33.7398 6.37476 33.6427 6.32626 33.4971 6.27776C33.4486 6.27776 33.4001 6.22916 33.303 6.18066C32.9148 6.08366 32.478 6.08366 32.0897 6.18066C31.9441 6.22916 31.7985 6.27776 31.7015 6.37476L31.6529 6.42336C31.4588 6.66596 31.2647 6.90865 31.022 7.10275C30.7794 7.29685 30.4397 7.29685 30.1485 7.29685H30.0514C29.8087 7.34544 29.5661 7.49104 29.372 7.68514C29.1778 7.87924 28.9837 8.21894 28.8867 8.51014C28.8867 8.55873 28.8867 9.04402 28.8867 9.04402C28.7411 9.09253 26.7028 9.82051 26.6543 9.82051L26.3631 9.67492C26.3631 9.67492 24.713 9.96611 24.1306 10.1117V10.1602C24.1306 10.2087 24.0336 10.4029 23.9851 10.4514C24.1792 10.7426 24.5189 11.0823 24.6645 11.3735C24.7616 11.3735 24.8586 11.4706 24.9072 11.4706C25.1498 11.3735 26.7028 10.7426 26.7028 10.7426C26.7028 10.6941 26.8969 10.4029 26.8969 10.4029C26.8969 10.4029 28.6926 9.72342 28.9837 9.62642C29.0808 9.77201 29.1293 9.91752 29.2264 10.0631C29.3234 10.1602 29.4205 10.3058 29.5661 10.3543C29.6631 10.4029 29.7602 10.4514 29.8573 10.4999C30.2941 10.6941 30.7794 10.6455 31.2162 10.4029C31.2647 10.4029 31.2647 10.3543 31.3132 10.3058C31.3132 10.3058 31.3132 10.3058 31.3132 10.2573C31.3618 10.2087 31.4103 10.2087 31.4103 10.1602C31.5559 9.96611 31.7985 9.86902 32.0412 9.91752C32.2839 9.91752 32.478 10.0631 32.7206 10.1117C32.7692 10.1117 32.8662 10.1117 32.9148 10.1602H33.1574C33.2545 10.1602 33.303 10.1117 33.4001 10.1117C34.1281 9.91752 34.6134 9.38372 34.8075 8.75283ZM32.3324 8.84992C32.1383 9.28663 31.6529 9.48082 31.2162 9.28663C30.925 9.18962 30.7308 8.89843 30.7308 8.60723C30.6823 8.26753 30.9735 7.73364 31.3618 7.68514C31.5073 7.63664 31.6529 7.63664 31.7985 7.68514C31.8471 7.68514 31.9441 7.73364 31.9927 7.78224C32.3809 7.97634 32.478 8.46163 32.3324 8.84992ZM33.6913 8.46163C33.6913 8.12194 33.5457 7.78224 33.4001 7.49104C33.4001 7.39395 33.3515 7.29685 33.3515 7.24835C33.3515 7.24835 33.4001 7.19985 33.4486 7.19985C33.4486 7.19985 33.4486 7.24835 33.4971 7.24835C33.5457 7.29685 33.5942 7.34545 33.5942 7.44245C33.6913 7.73364 33.8369 8.02484 33.8854 8.31604C33.8369 8.41313 33.7883 8.46163 33.6913 8.46163Z" fill="#2A2A2A"/>
<path d="M25.9256 9.62657L26.0712 9.57807L26.1197 9.14128C26.1197 9.14128 26.1197 9.09277 26.0712 9.09277L25.7315 9.14128C25.7315 9.14128 25.683 9.18978 25.7315 9.18978L25.9256 9.62657Z" fill="#2A2A2A"/>
<path d="M25.2949 9.72334L25.4405 9.67475L25.489 9.23795C25.489 9.23795 25.489 9.18945 25.4405 9.18945L25.1008 9.23795C25.0523 9.23795 25.0523 9.28655 25.1008 9.28655L25.2949 9.72334Z" fill="#2A2A2A"/>
<path d="M24.7119 9.86876L24.8575 9.82026V9.38346C24.8575 9.38346 24.8575 9.33496 24.809 9.33496L24.4207 9.38346C24.4207 9.38346 24.3722 9.43206 24.4207 9.43206L24.7119 9.86876Z" fill="#2A2A2A"/>
<path d="M25.5372 12.004L25.8769 11.8584C25.8769 11.8584 25.9254 11.8099 25.8769 11.8099L25.5372 11.4702L25.3916 11.5672L25.4401 12.004C25.4401 12.004 25.4886 12.004 25.5372 12.004Z" fill="#2A2A2A"/>
<path d="M26.0715 11.7619L26.4112 11.6163C26.4112 11.6163 26.4597 11.5677 26.4112 11.5677L26.0715 11.228L25.9744 11.3251L26.023 11.7619C26.023 11.7619 26.0715 11.8104 26.0715 11.7619Z" fill="#2A2A2A"/>
<path d="M26.7018 11.5187L27.0415 11.3731V11.3246L26.7018 10.9849L26.6047 11.082L26.6532 11.5187C26.6532 11.5187 26.7018 11.5673 26.7018 11.5187Z" fill="#2A2A2A"/>
<path d="M31.4587 7.7334C30.8278 7.976 30.8764 8.50989 30.8764 8.55839C30.8764 8.94668 31.1675 9.23788 31.4587 9.23788C31.7984 9.23788 32.2352 8.94668 32.2837 8.55839C32.3322 8.2672 32.1866 7.7334 31.4587 7.7334ZM31.8954 8.99518C31.7013 9.14078 31.3616 9.14078 31.216 8.89809C31.216 8.89809 30.9249 8.55839 31.1675 8.0731C31.6043 7.6848 31.944 7.976 32.0896 8.1216C32.2352 8.41279 32.0896 8.80108 31.8954 8.99518Z" fill="#2A2A2A"/>
<path d="M22.5286 21.6619C22.7227 21.7104 22.8683 21.6619 23.0624 21.6619C23.0139 21.6134 22.9654 21.5163 22.9654 21.4678C22.8683 21.3707 22.8198 21.2737 22.7712 21.1766C22.7227 21.0795 22.6742 21.031 22.6256 20.9339C22.6256 20.9339 22.48 20.7883 22.48 20.7398C22.48 20.6913 22.48 20.6913 22.5286 20.6913C22.9168 20.6427 23.3536 20.6427 23.7419 20.6913H24.664C24.9551 20.6913 25.2463 20.6913 25.5375 20.6913C25.5861 20.6913 25.5861 20.6913 25.5861 20.7398C25.5861 20.8369 25.4405 20.9825 25.4405 20.9825C25.3919 21.0795 25.3434 21.1281 25.2949 21.1766C25.2463 21.2737 25.1978 21.3707 25.1007 21.4678C25.0522 21.5163 25.0037 21.6134 24.9551 21.6619C25.1493 21.6619 25.3434 21.7104 25.489 21.6619C25.5375 21.3222 25.7802 20.8369 26.1684 20.7398C26.2655 20.6913 26.0714 20.3516 26.0228 20.3516C25.3434 20.2545 22.6742 20.2545 22.0433 20.3516C21.9463 20.3516 21.8007 20.6913 21.8977 20.7398C22.2374 20.8369 22.5286 21.3707 22.5286 21.6619Z" fill="#2A2A2A"/>
<path d="M25.7805 22.341C25.732 22.2439 25.6834 22.1954 25.6349 22.0983C25.5864 22.0013 25.5378 21.9042 25.5378 21.8071H22.9658C22.8202 21.8071 22.6746 21.8557 22.529 21.8071C22.4319 21.8071 22.4319 21.9042 22.4319 21.9527V22.0013C22.7231 22.1954 23.0143 22.4866 23.0143 22.8748C23.0143 23.069 23.0143 23.3116 22.8687 23.4572C22.7716 23.6028 22.626 23.7484 22.5775 23.894C22.5775 24.0881 22.8202 23.9911 22.8202 24.0396C23.7908 24.0396 24.81 23.9911 25.7805 23.9911C25.7805 23.8455 25.829 23.7484 25.8775 23.6513C25.8775 23.6028 25.5864 23.3601 25.5864 22.9719C25.5378 22.7778 25.5864 22.438 25.7805 22.341Z" fill="#2A2A2A"/>
<path d="M26.9932 21.1769C26.9447 21.1769 26.8961 21.1284 26.8476 21.1284H26.7991C26.702 21.1284 26.6049 21.1284 26.5079 21.1284C26.4593 21.1284 26.4108 21.1284 26.3623 21.1769C26.1196 21.2254 25.877 21.3225 25.7799 21.4681C25.6828 21.6622 25.6343 21.9534 25.7314 22.099C25.8284 22.2446 26.0226 22.3417 26.2167 22.2446C26.2167 22.2446 26.3137 22.1475 26.3623 22.0505C26.3623 22.0019 26.3623 21.9534 26.3623 21.9534H26.3137C26.1681 21.9534 26.1681 21.7593 26.2167 21.6622C26.2652 21.4681 26.5564 21.4195 26.7505 21.4681C26.8961 21.5166 26.9932 21.6137 27.0417 21.7107C27.0417 21.7107 27.0417 21.7107 27.0417 21.7593C27.0417 21.7593 27.0417 21.8078 27.0417 21.8563C27.0417 21.9049 27.0417 21.9534 27.0417 22.0019V22.099C26.9932 22.2446 26.9447 22.3902 26.8476 22.4872L26.7991 22.5358C26.702 22.6814 26.5079 22.827 26.4108 22.924C26.0226 23.3123 25.9255 23.7005 25.9255 23.7005C25.9255 23.8461 25.877 23.9917 25.877 24.0888C25.877 24.3314 26.0711 24.5256 26.3137 24.5741C26.5079 24.6226 26.7991 24.5741 26.8961 24.3314C26.8961 24.2829 26.8961 24.2829 26.8961 24.2344C26.8961 24.1373 26.8476 24.0403 26.702 23.9432H26.5079C26.5079 23.9432 26.4593 23.9917 26.4593 24.0403C26.4593 24.1859 26.1681 24.1859 26.2167 24.0403C26.2652 23.5064 26.8476 23.3123 27.1388 22.924C27.1873 22.827 27.2844 22.6814 27.3329 22.5358C27.3329 22.4872 27.3814 22.4872 27.3814 22.4387C27.3814 22.3902 27.3814 22.3417 27.43 22.2931C27.43 22.2446 27.43 22.1961 27.43 22.1961C27.4785 21.8078 27.43 21.371 26.9932 21.1769Z" fill="#2A2A2A"/>
<path d="M25.7317 24.2825C25.7317 24.234 25.6832 24.1369 25.6832 24.0884H25.2949C25.3435 24.234 25.4405 24.2825 25.5376 24.3796C25.5376 24.3796 25.5861 24.4281 25.5861 24.4766C25.6347 24.5737 25.6832 24.6222 25.7803 24.7678C25.8288 24.8163 25.8773 24.8649 25.8773 24.9134C26.0229 25.1075 26.12 25.3502 26.1685 25.5928C26.1685 25.8355 26.1685 26.0782 26.0229 26.2723C25.9744 26.4664 25.8288 26.5634 25.6347 26.612H25.5376C24.8582 26.7575 24.2759 26.7575 23.5964 26.709C23.3052 26.709 23.0141 26.6605 22.8199 26.5149C22.2861 26.1752 22.2375 25.7384 22.4802 25.3502C22.6258 24.9134 22.917 24.4766 23.1596 24.1854H22.7229C22.5287 24.3796 22.4317 24.6222 22.2375 24.8649C22.1405 24.9619 22.092 25.1075 22.0434 25.2046C21.8493 25.4958 21.8493 25.884 21.8978 26.1752C21.9464 26.4664 22.189 26.6605 22.4802 26.7575V26.8061C22.4802 26.9031 22.4802 27.0002 22.6258 27.0002H22.6743C22.6743 27.0002 22.6743 27.0002 22.7229 27.0002C22.9655 27.0972 23.9362 27.1943 25.0523 27.0972C25.3435 27.0972 25.5861 27.0972 25.8288 27.0002C25.8288 27.0002 25.8288 27.0002 25.8773 27.0002H25.9258C26.0229 26.9516 26.0714 26.9031 26.0714 26.8061V26.7575C26.3626 26.6605 26.6538 26.4664 26.6538 26.1752C26.7024 25.787 26.6538 25.3987 26.4597 25.1075C26.3141 25.0105 25.7803 24.4281 25.7317 24.2825Z" fill="#2A2A2A"/>
<path d="M23.4506 24.1852C23.4021 24.1852 23.3535 24.2337 23.3535 24.2337C22.8682 24.622 22.48 25.3014 22.6741 25.8838C22.8682 26.5633 23.8388 26.4662 24.4212 26.5147C24.7609 26.5147 25.3433 26.4177 25.3918 26.4177C25.586 26.3206 25.586 26.2721 25.6345 26.2721C25.7316 26.175 25.7801 26.0779 25.8286 25.9809C25.8771 25.7867 25.8771 25.5926 25.8286 25.35C25.7801 25.1558 25.683 25.0102 25.586 24.9132C25.3918 24.7191 25.1977 24.5249 25.1007 24.2337V24.1367C24.7609 24.1367 24.5183 24.1852 24.1786 24.1852C24.1786 24.1852 23.9359 24.3308 23.8874 24.3793C23.5476 24.6705 23.4021 25.2529 23.4991 25.6897C23.4506 25.6897 23.3535 25.6897 23.3535 25.6412C23.3535 25.5926 23.305 25.447 23.305 25.447V25.35C23.305 24.9617 23.4506 24.4279 23.6932 24.1852C23.5962 24.1852 23.5476 24.1852 23.4506 24.1852Z" fill="#2A2A2A"/>
<path d="M53.2483 23.5548C53.2483 23.3121 53.1998 23.0694 53.1027 22.8268C53.0056 22.5841 52.8115 22.3415 52.6174 22.1959C52.5689 22.1473 52.5203 22.1473 52.5203 22.0988C52.5203 22.0988 52.4718 22.0503 52.4233 22.0503C52.2291 21.9047 52.1321 21.8076 52.0835 21.565H52.3262C52.3262 21.4679 52.3262 21.3223 52.2777 21.2252C52.2777 21.2252 52.2777 21.2252 52.2777 21.1767H51.9865V21.0311C51.9865 21.0311 51.938 20.9826 51.8895 20.9826C51.7924 20.9826 51.7439 21.0311 51.7924 20.837V20.7885C51.7924 20.4973 51.8409 20.2061 52.0835 20.012C52.1806 19.9635 52.2777 19.915 52.4233 19.8664C52.4718 19.8179 52.5689 19.8179 52.6174 19.7694C52.7145 19.6723 52.763 19.5267 52.8115 19.3811C52.8115 19.2355 52.8601 19.0899 52.8601 18.9444C52.8601 18.6532 53.0542 17.1002 53.1027 16.3236C53.1027 16.2751 53.1027 16.2266 53.0542 16.2266C53.0542 16.1781 53.0056 16.1295 52.9571 16.1295C52.9086 16.1295 52.9086 16.081 52.8601 16.081H52.8115C52.6659 16.0325 52.4718 16.0325 52.3262 16.0325C52.3262 15.9354 52.3747 15.8869 52.4233 15.8383C52.4233 15.8383 52.4233 15.7898 52.4233 15.7413C52.4233 15.6927 52.3747 15.6442 52.3262 15.6442H52.1321C51.938 15.4501 51.5013 15.353 51.3071 15.4015C51.0645 15.4015 50.7248 15.4501 50.5792 15.6442H50.385C50.3365 15.6442 50.288 15.6927 50.288 15.6927C50.2394 15.7413 50.2394 15.7898 50.288 15.8383C50.3365 15.9354 50.3365 15.9839 50.385 16.0325C50.1909 16.0325 50.0453 16.0325 49.8997 16.081H49.8512C49.8027 16.081 49.7541 16.081 49.7541 16.1295C49.7056 16.1295 49.7056 16.2266 49.6571 16.2266C49.6571 16.2751 49.6571 16.3236 49.6085 16.3236C49.6571 17.1002 49.8512 18.6532 49.8512 18.9444C49.8512 19.1385 49.8997 19.2841 49.8997 19.4297C49.8997 19.4297 49.8997 19.4782 49.8997 19.5267C49.9483 19.6238 49.9968 19.7209 50.0939 19.7209C50.1424 19.7694 50.2394 19.7694 50.288 19.8179C50.385 19.8664 50.5306 19.915 50.5792 19.9635C50.7248 20.0605 50.7733 20.2061 50.8218 20.3517C50.5792 20.3517 50.2394 20.3517 50.1909 20.3517H50.0939C50.0939 20.2546 50.0453 20.2546 49.9968 20.2546V20.1576C49.9968 20.012 49.7541 20.012 49.7541 20.1576V20.2546C49.7056 20.2546 49.7056 20.3031 49.7056 20.3517V20.4002H48.6379C48.5894 20.4002 48.5408 20.4487 48.4438 20.4973C48.4438 20.5458 48.3952 20.5458 48.3952 20.5943C48.3952 20.5943 48.3952 20.6429 48.3952 20.6914C48.3952 20.6914 48.3952 20.7399 48.3952 20.7885C48.3467 20.8855 48.3467 21.0796 48.3467 21.2252C48.3467 21.2252 48.1526 21.2252 48.1041 21.2738C48.007 21.3223 48.007 21.4679 48.007 21.565C48.007 21.7591 48.007 21.8076 48.1041 21.8076H48.2982C48.2982 22.0503 48.1526 21.9047 48.1526 22.0017C48.0555 22.4385 48.1526 23.0694 48.1526 23.5062C48.0555 23.5062 47.9585 23.4577 47.9585 23.6033V23.9915C47.9585 24.1371 48.1526 24.0886 48.1526 24.0886C48.2011 24.671 48.1526 25.2534 48.2982 25.8357C48.2982 25.8843 48.4438 25.7872 48.4923 25.8843C48.5408 26.0299 48.5408 26.4181 48.4923 26.7093C48.4923 27.0976 48.832 27.1946 49.2203 27.2432C49.2688 27.2432 49.6571 27.2917 49.7056 27.2917C49.8027 27.2917 51.2586 27.2917 51.4527 27.3402C51.7924 27.3402 52.2291 27.3402 52.5203 27.3402C52.6174 27.3402 52.6174 27.3402 52.6659 27.2917C52.7145 27.2432 52.763 27.1946 52.8115 27.0976C52.8115 27.0005 52.8601 26.8064 52.8601 26.6608V26.5637C52.8601 26.5637 52.8601 26.5152 52.8115 26.4666C52.8115 26.4666 52.763 26.4666 52.763 26.4181H52.6659C52.6174 26.4181 52.5689 26.5152 52.5689 26.5637C52.5689 26.6608 52.5689 26.7578 52.5203 26.8549C52.4718 27.1461 52.4233 27.049 51.5498 27.049C51.3071 27.049 50.6277 27.049 50.385 27.0005C50.2394 27.0005 50.1909 26.8549 50.1909 26.7093C50.1424 26.4666 50.1909 26.224 50.1424 25.9813H50.0453C49.8512 25.9813 49.56 25.9813 49.2688 26.0299C49.1232 26.0299 48.9776 26.0299 48.8806 26.1269V26.0299C48.8806 25.6416 49.0747 25.9328 49.0747 25.7387C49.1232 25.2534 49.0747 24.5739 49.0747 24.0886H49.2203C49.3173 24.0401 49.2688 23.6033 49.2688 23.5062C49.2688 23.4577 49.1232 23.5062 49.0747 23.5062C49.0747 23.0694 49.1717 22.39 49.0262 22.0017C48.9776 21.9047 48.832 22.0503 48.8806 21.8076C48.9776 21.8076 49.0747 21.8076 49.0747 21.662V21.3223C49.0747 21.2738 49.0262 21.2252 48.9776 21.2252C48.9776 21.2252 48.735 21.2252 48.6864 21.2252C48.6864 21.0796 48.6864 20.837 48.735 20.7885C49.0747 20.7885 49.3659 20.7885 49.7056 20.7885V20.837C49.7056 20.8855 49.7541 20.934 49.7541 20.934V20.9826C49.7541 21.1282 50.0453 21.1767 50.0453 20.9826C50.0939 20.9826 50.1424 20.934 50.1424 20.8855V20.7885H50.9189V20.8855C50.9189 21.0796 50.9189 21.0311 50.8218 21.0311C50.7733 21.0311 50.7733 21.0311 50.7248 21.0796V21.2252H50.4821C50.4821 21.2252 50.4821 21.2252 50.4821 21.2738C50.4336 21.3708 50.4336 21.5164 50.4336 21.6135H50.6762C50.6277 21.8076 50.5306 21.9532 50.3365 22.0988C50.3365 22.0988 50.288 22.1473 50.2394 22.1473C50.1909 22.1473 50.1424 22.1959 50.1424 22.2444C49.9483 22.39 49.7541 22.6327 49.6571 22.8753C49.56 23.0694 49.5115 23.3606 49.5115 23.6033C49.5115 23.943 49.6085 24.2342 49.8027 24.4769C49.8512 24.5254 49.9968 24.671 50.0939 24.671C49.8512 24.7195 49.8027 25.1563 49.9968 25.2534C50.0938 25.3019 50.1424 25.3504 50.2394 25.3504C50.3365 25.496 50.3365 25.6901 50.385 26.0299C50.385 26.224 50.385 26.3211 50.4336 26.4181C50.4336 26.9034 50.4821 26.7578 51.5013 26.8064C52.3262 26.8549 52.3747 26.8064 52.4233 26.4666C52.4233 26.3696 52.4233 26.2725 52.4718 26.0299C52.5203 25.6901 52.4718 25.496 52.6174 25.3504C52.7145 25.3019 52.8115 25.3019 52.8601 25.2534C53.0542 25.1078 53.0542 24.671 52.763 24.671C52.8115 24.6224 52.9571 24.5254 53.0542 24.4769C53.1512 24.1857 53.2483 23.8945 53.2483 23.5548ZM50.9189 19.9635C50.5306 19.8179 50.1909 19.6238 50.1424 19.3811C49.9968 18.6046 49.9483 18.0223 49.8997 17.0031C49.8997 17.0031 49.8512 16.8575 49.9483 16.8575C50.3365 16.7119 50.7248 16.7119 51.1615 16.7119C51.6468 16.7119 52.2291 16.7119 52.7145 16.906C52.763 16.906 52.8115 16.9546 52.8115 17.0031C52.8115 17.7796 52.7145 18.6532 52.5689 19.3811C52.5203 19.5753 52.2291 19.7694 51.8895 19.915C51.5983 20.012 51.1615 20.0605 50.9189 19.9635ZM51.9865 26.4666C51.9865 26.3696 51.938 25.7387 51.8895 25.496C51.9865 25.496 52.0835 25.496 52.1806 25.4475C52.1321 25.5445 52.0836 26.2725 51.9865 26.4666ZM51.113 25.2048C50.8218 25.1563 50.3365 25.1078 50.0939 24.9136C50.0939 24.8651 50.0939 24.8651 50.0939 24.8166C50.8218 25.0107 51.7439 25.1563 52.4718 24.768C52.5203 24.768 52.5203 24.768 52.5689 24.8166V24.8651C52.2777 25.2048 51.5012 25.2534 51.113 25.2048ZM52.6174 24.3313C51.8409 24.9136 51.3071 24.8166 50.6277 24.7195C50.288 24.6224 49.9968 24.3798 49.8512 24.1371C49.6085 23.7489 49.6085 23.3121 49.8027 22.8753C50.0453 22.39 50.385 22.1473 50.8704 21.9047C50.9189 21.8561 50.9189 21.8076 50.9189 21.7591C50.9189 21.7591 50.9189 21.6135 50.9189 21.565C51.016 21.565 51.113 21.565 51.2101 21.565V22.5356H51.4042V21.5164C51.5012 21.5164 51.5983 21.5164 51.6953 21.5164C51.6953 21.6135 51.6953 21.7106 51.6953 21.7106C51.6953 21.7591 51.7439 21.8076 51.7439 21.8561C52.2291 22.0988 52.5689 22.2929 52.8115 22.8268C53.0056 23.215 52.9086 23.7003 52.7145 24.0886C52.763 24.2342 52.7145 24.2827 52.6174 24.3313Z" fill="#2A2A2A"/>
<path d="M50.4821 22.3898V22.3413C50.0939 22.6325 49.8997 23.1178 49.8997 23.5546C49.8997 24.2826 50.6762 24.6223 51.2585 24.6223C51.9865 24.6223 52.8601 24.2826 52.8601 23.5546C52.8601 23.1178 52.6659 22.584 52.2777 22.3413C52.2777 22.3413 52.2777 22.3898 52.2291 22.3898C52.1806 22.4384 52.1806 22.4384 52.1321 22.4869C52.2291 22.584 52.2777 22.7296 52.3262 22.8752C52.4233 23.0693 52.5203 23.409 52.4233 23.6517C52.4233 23.6517 52.4233 23.6517 52.4233 23.7002C52.4233 23.7487 52.3747 23.7487 52.3262 23.7487C52.3747 23.5546 52.3262 23.3119 52.2777 23.1178C52.2291 22.9722 52.035 22.5354 51.8894 22.584H51.8409C51.7924 22.584 51.7438 22.584 51.6953 22.584H51.5012V23.409C51.5012 23.5061 51.4526 23.5061 51.4041 23.5061C51.3556 23.5061 51.307 23.4575 51.307 23.409V22.584C51.21 22.584 51.1614 22.584 51.1129 22.584C50.6761 22.5354 50.5306 22.4384 50.4821 22.3898Z" fill="#2A2A2A"/>
<path d="M51.3565 19.8176C51.7448 19.8176 52.3757 19.5749 52.4242 19.1381C52.4727 18.7984 52.5698 17.5852 52.5698 17.0999C52.4242 17.0028 52.2786 17.0028 52.0845 17.0028C52.0845 17.0999 52.0845 17.1969 52.0845 17.2455C52.0845 17.4396 52.0845 17.6337 52.0845 17.7793C52.0845 17.9249 52.036 18.0705 51.9874 18.2161C51.9874 18.1675 51.9389 18.119 51.8904 18.0705C51.8904 17.8764 51.8904 17.6337 51.8418 17.4396C51.8418 17.3425 51.8418 17.1969 51.7933 17.0999C51.7933 17.0028 51.6962 16.9543 51.5992 16.9543C51.5021 16.9058 51.3565 16.9058 51.2109 16.9058C50.9683 16.9058 50.7741 16.9058 50.5315 16.9058C50.5315 16.9058 50.5315 16.9058 50.483 16.9058C50.3374 16.9058 50.1918 16.9543 50.0947 17.0028C50.0947 17.4396 50.1918 18.7499 50.2403 19.0896C50.3374 19.5264 50.9197 19.8176 51.3565 19.8176Z" fill="#2A2A2A"/>
<path d="M47.2305 13.0718C47.2305 13.1203 47.3276 13.1203 47.3761 13.0718L50.5791 12.1498C50.6277 12.1498 50.6762 12.0527 50.6762 12.0042C50.6762 11.9556 50.6277 11.9556 50.5791 11.9556L49.1232 12.3439C49.0746 12.2468 48.9776 12.1983 48.929 12.2468C48.832 12.2954 48.7835 12.3439 48.832 12.441L47.4247 12.8777C47.2791 12.9262 47.2305 12.9748 47.2305 13.0718Z" fill="#2A2A2A"/>
<path d="M45.2898 12.3442C45.3384 12.3928 45.3869 12.4413 45.4354 12.4898L45.581 12.3928C45.484 12.2472 45.581 12.053 45.6781 11.956C45.9693 11.6648 46.4061 11.3736 46.7943 11.1795C47.134 10.9853 47.4252 10.8883 47.8135 10.6941C48.3473 10.4515 49.1723 10.2574 49.4149 10.2088C49.9973 10.1603 50.337 10.1118 50.6282 10.1118C50.9194 10.1118 51.1621 10.2088 51.4047 10.2574C51.6959 10.3059 51.9871 10.5486 52.0842 10.7427C52.0842 10.7427 52.0842 10.7912 52.1327 10.7912V10.9368C52.0842 10.8883 52.0356 10.8397 51.9871 10.7912C51.8415 10.6941 51.6474 10.5971 51.4532 10.5971C50.4826 10.7427 49.4149 11.228 49.4149 11.228C49.4149 11.1795 49.3664 11.1795 49.3179 11.1795L49.2209 11.228C49.2209 11.1795 49.2209 11.1309 49.1723 11.1309C49.1238 11.0824 49.0268 11.1309 49.0753 11.1795C49.0753 11.228 49.0753 11.228 49.1238 11.2765L49.0267 11.3251C48.9782 11.3251 48.9782 11.3736 48.9782 11.4221L48.8326 11.4707C48.6385 11.5192 48.6385 11.5677 48.687 11.6648C48.687 11.7618 48.7356 11.7618 48.7841 11.7618L48.9782 11.7133C48.9782 11.7133 48.9782 11.7133 49.0267 11.7618C49.1238 11.8589 49.3664 12.1501 49.4635 12.1986C49.4635 12.1986 49.5605 11.9074 49.5605 11.7133C49.7061 11.6162 49.8517 11.5192 50.0458 11.4707L50.1429 11.4221C50.4341 11.2765 50.6767 11.1795 51.0165 11.1309C51.1135 11.1309 51.2591 11.0824 51.3562 11.1309C51.6959 11.1309 52.0356 11.3251 52.1812 11.8104C52.2783 12.1016 52.2783 12.3928 52.0356 12.6354C51.793 12.8781 51.4047 13.1207 51.065 13.1207C50.8223 13.0722 50.5797 12.8781 50.7253 12.5869L50.7738 12.5383C50.7738 12.4898 50.7738 12.4413 50.7738 12.4413C50.7253 12.3928 50.6767 12.3442 50.5797 12.3928L47.2796 13.3149C47.1826 13.3149 47.134 13.4119 47.134 13.509C47.134 13.509 47.134 13.5575 47.1826 13.606C47.2311 13.606 47.2796 13.606 47.3282 13.6546C47.4252 13.8002 47.5223 14.0428 47.5223 14.1884C47.5223 14.2855 47.6194 14.6252 47.5223 14.7708C47.5223 14.8193 47.5223 14.8679 47.5223 14.9164L51.2591 13.8487L51.2106 13.8002C51.1621 13.7516 51.1135 13.7516 51.065 13.7031H51.1621C51.3562 13.6546 51.6474 13.5575 51.6959 13.5575C52.5209 13.2663 53.2489 12.4898 52.9577 11.4221C52.9092 11.2765 52.8607 11.1309 52.8607 11.0339C52.7636 10.8397 52.6665 10.6456 52.5695 10.4515C52.4724 10.3544 52.3753 10.2574 52.2783 10.1603C51.9871 9.86915 51.6474 9.77205 51.1621 9.57795C50.8709 9.48095 50.1914 9.28676 49.9002 9.18975C49.6576 9.09266 49.415 9.04415 49.2209 8.99556C48.7356 8.89856 48.4444 8.80146 47.9591 8.60736C47.7649 8.51026 47.3282 8.31617 47.134 8.21907C46.6002 7.97647 46.2605 7.73377 46.1149 7.63677C45.9207 7.49117 45.4354 7.29698 45.3384 7.05438C45.3384 7.05438 45.2898 6.90878 45.3384 6.86028C45.2898 6.81169 45.2413 6.76318 45.1928 6.76318C45.1928 6.76318 45.1442 6.86028 45.0957 6.95728V7.15138C45.0957 7.83087 45.1928 11.0339 45.1928 11.6648C45.2413 11.7133 45.2413 12.2957 45.2898 12.3442Z" fill="#2A2A2A"/>
<path d="M48.25 15.2073C48.347 15.1588 49.7544 14.7706 49.997 14.722C50.1911 14.6735 50.3367 14.625 50.5309 14.5764C50.8706 14.4794 51.6471 14.2367 51.6471 14.2367C51.6471 14.2367 51.55 14.0911 51.55 14.0426C51.55 14.0426 51.453 13.897 51.4044 13.897C50.9191 13.994 50.2882 14.2367 49.4632 14.4794C49.075 14.5764 48.6868 14.6735 48.2985 14.8191C48.1044 14.9161 47.7161 14.9161 47.522 15.0617C47.522 15.1588 47.522 15.3529 47.522 15.45C47.522 15.4015 48.0558 15.2559 48.25 15.2073Z" fill="#2A2A2A"/>
<path d="M23.4018 15.8867H22.7224L22.6738 18.7015L25.1975 19.0412L26.1196 16.3234L25.4401 16.2749C25.1975 16.5176 24.7607 16.7602 24.3239 16.7117C23.7415 16.6146 23.5474 16.2264 23.4018 15.8867Z" fill="#2A2A2A"/>
<path d="M22.7712 13.7027V15.2072L23.5477 15.3528C23.6933 15.2072 23.9359 15.0616 24.1786 14.9646C24.761 14.7219 25.5375 15.0616 25.586 15.6925H26.2654L26.7022 14.2366L27.2846 14.3337C27.2846 14.3337 27.2361 13.6542 27.1875 13.6542L26.6052 13.4601C26.6052 13.4601 26.6052 13.4116 26.6052 13.266V12.9748C26.5081 12.9748 25.4404 12.6351 25.1007 12.5865C25.1007 12.5865 23.4506 12.538 23.4506 12.5865L23.2565 12.9748L22.577 12.9262L22.2859 13.7027C22.2373 13.7027 22.6256 13.6542 22.7712 13.7027ZM24.5668 12.8777C24.7124 12.8777 24.858 12.7806 25.0036 12.8292C25.0036 12.8292 25.0522 12.8292 25.1007 12.8292C25.1007 12.8292 25.3433 12.8777 25.4404 12.9262C25.4404 12.9748 25.2948 12.9748 25.2463 12.9748C25.1007 12.9748 24.9066 12.9748 24.761 12.9748C24.6639 12.9748 24.4212 12.8777 24.4698 12.8777C24.4698 12.9262 24.5668 12.8777 24.5668 12.8777Z" fill="#2A2A2A"/>
<path d="M24.0329 16.3721C24.227 16.4692 24.4211 16.5177 24.6153 16.4692C24.8094 16.4207 25.052 16.3236 25.1491 16.178C25.3432 15.8868 25.2947 15.353 24.955 15.2074C24.7608 15.1103 24.5182 15.1103 24.2755 15.1589C24.1785 15.1589 24.0814 15.2074 23.9843 15.3044C23.8873 15.353 23.8388 15.4015 23.7902 15.4986C23.6446 15.7412 23.6932 16.0324 23.8873 16.2751C23.9358 16.2751 23.9843 16.3721 24.0329 16.3721ZM24.8579 15.4986C24.955 15.6442 24.9064 15.9354 24.8579 16.081C24.8094 16.178 24.7608 16.2265 24.6638 16.2751C24.6153 16.2751 24.6153 16.2751 24.5667 16.2751H24.4697C24.3241 16.2751 24.1785 16.178 24.0329 16.0324C23.8387 15.4986 24.5182 15.2074 24.8579 15.4986Z" fill="#2A2A2A"/>
<path d="M35.1461 12.7812C35.2432 12.8297 35.777 13.0723 35.9712 13.1694C36.1653 13.2179 36.3109 13.315 36.505 13.3635C36.5536 13.3635 36.6506 13.412 36.6991 13.412C36.8933 13.4606 36.9418 13.412 36.9903 13.3635C36.9903 13.3635 36.9903 13.3635 36.9903 13.315C36.9903 13.315 36.9903 13.2664 37.0389 13.2179C37.0874 13.1209 37.0874 12.9753 37.1359 12.8297C37.1845 12.6842 37.233 12.5871 37.2815 12.4415C37.233 12.2474 37.0874 12.1503 36.9418 12.1018L36.8447 12.0533C36.7477 12.0047 36.6506 11.9562 36.5536 11.9562C36.408 11.9077 36.2624 11.8106 36.1168 11.7621H36.0682C35.9712 11.8106 35.8741 12.0533 35.8741 12.1503C35.8256 12.2959 35.777 12.4415 35.8256 12.5871C35.8256 12.6356 35.8256 12.6842 35.8741 12.7327C35.7285 12.6356 35.6315 12.49 35.6315 12.2474C35.6315 12.1989 35.6314 12.0533 35.68 11.9077C35.68 11.8591 35.7285 11.8106 35.777 11.7621L35.8741 11.665V11.6165C35.8741 11.5679 35.8741 11.5679 35.8256 11.5679H35.777C35.7285 11.5679 35.68 11.5679 35.68 11.6165L35.1947 12.393C35.0976 12.6356 35.0491 12.7327 35.1461 12.7812Z" fill="#2A2A2A"/>
<path d="M34.3704 11.3249C34.3218 11.3734 34.2733 11.4705 34.2733 11.519C34.2733 11.5675 34.2733 11.5675 34.2248 11.6161C34.1277 11.7617 34.1277 11.9558 34.1277 12.1499C34.1277 12.1985 34.1277 12.247 34.1762 12.247C34.2733 12.247 34.4189 12.1985 34.5645 12.1985C34.613 12.1985 34.6616 12.1985 34.6616 12.1014C34.6616 11.9073 34.6616 11.7131 34.7586 11.519C34.8072 11.4219 34.8557 11.3249 34.9528 11.2278C35.0013 11.2278 35.0983 11.1793 35.1469 11.1308H35.2439C35.341 11.1308 35.5837 11.1308 35.6807 11.1793C35.7293 11.1793 35.7778 11.3249 35.5837 11.2764L35.5351 11.3249C35.4381 11.4219 35.3895 11.519 35.341 11.6161C35.2439 11.7617 35.1469 11.8587 35.0498 12.0043C34.9042 12.1985 34.6616 12.5382 34.5645 12.6838C34.5645 12.6838 34.5645 12.7808 34.613 12.8294C34.7101 12.8779 34.8072 12.9264 34.9042 12.9264C35.0498 12.975 35.1469 13.0235 35.2925 13.072C35.4381 13.1206 36.3602 13.5088 36.6999 13.6059C36.7969 13.6544 37.3307 13.8 37.3307 13.8L37.4278 13.7029C37.5248 13.2176 37.719 12.5867 37.816 12.1985V12.1499C37.7675 12.0529 37.6704 12.0529 37.6219 11.9558C37.6219 11.9558 37.5248 11.7617 37.9131 11.8587C38.0101 11.7131 38.3013 11.2764 38.3013 11.2764H38.2043C38.2043 11.2764 37.0395 10.8881 36.991 10.8881C36.4087 10.6454 35.7293 10.4028 35.7293 10.4028C35.7293 10.4513 35.7293 10.5969 35.7293 10.694V11.0337C35.5351 10.9366 35.1469 10.9852 35.0498 10.9852C34.8072 10.9852 34.613 11.1308 34.4674 11.2764C34.4189 11.2764 34.3704 11.3249 34.3704 11.3249ZM35.9234 10.7425L37.8645 11.519C37.816 11.5675 37.7675 11.6161 37.6704 11.7131H37.5734L35.8749 10.9852C35.8263 10.9852 35.8263 10.9366 35.8263 10.8881L35.9234 10.7425ZM35.6807 11.519C35.8749 11.519 36.1175 11.6161 36.3602 11.7131C36.6028 11.8102 36.8454 11.9073 37.0395 12.0529C37.1366 12.1499 37.2336 12.1985 37.3307 12.247C37.4278 12.3926 37.3792 12.5382 37.3307 12.6838C37.2822 12.8779 37.1366 13.3632 37.088 13.4117C37.088 13.4603 37.0395 13.5088 37.0395 13.5573L36.991 13.6544C36.9425 13.6544 36.7484 13.6544 36.6999 13.6059C36.6028 13.5573 36.4087 13.5088 36.3116 13.4603C36.2146 13.4117 36.1175 13.3632 36.0205 13.3147C35.9234 13.2661 35.8749 13.2661 35.8263 13.2176C35.8263 13.2176 35.8263 13.2176 35.7778 13.2176C35.5837 13.1206 35.341 13.0235 35.1469 12.9264H35.0983C34.9528 12.8294 34.8072 12.6838 34.8557 12.5382L35.341 11.6646C35.3895 11.6161 35.4381 11.5675 35.4866 11.519C35.5837 11.519 35.6322 11.519 35.6807 11.519Z" fill="#2A2A2A"/>
<path d="M37.3309 14.3334L37.2823 14.1393L34.3705 12.9746L34.1279 13.1687L34.0308 13.2658L37.3309 14.5761V14.3334Z" fill="#2A2A2A"/>
<path d="M39.0289 8.55852L40.0966 8.99522C40.0966 8.99522 40.0966 8.94672 40.1452 8.94672C40.1937 8.89821 40.2422 8.75262 40.2422 8.75262L40.0966 8.70402C40.0966 8.70402 40.0966 8.70402 40.0481 8.70402L38.2039 7.97613L38.1068 7.92753L36.0685 7.10254C36.0685 7.10254 36.02 7.29664 36.02 7.44224L37.9127 8.17023L39.0289 8.55852Z" fill="#2A2A2A"/>
<path d="M35.8264 10.2085L36.8941 10.5967L37.3309 10.7909L38.35 11.2277C38.4471 11.1791 38.5442 11.0335 38.6898 10.8879C38.6898 10.8879 39.2721 10.2085 39.3207 10.1114C39.4177 9.96577 39.5148 9.82018 39.6119 9.72317C39.7089 9.57757 39.903 9.38348 40.0001 9.23788L38.1559 8.55839L37.6706 8.36429L36.069 7.7334C36.0205 7.9275 36.0205 8.1216 36.0205 8.21869C36.0205 8.41279 35.972 8.55839 35.972 8.70399C35.972 8.80108 35.972 8.84959 35.9235 8.94668C35.9235 9.04369 35.8749 9.52898 35.8749 9.57758V9.91727C35.8264 10.16 35.8264 10.2085 35.8264 10.2085Z" fill="#2A2A2A"/>
<path d="M46.2604 25.3503C46.3089 25.3018 46.5031 25.2533 46.5516 25.2047C46.6972 25.1077 46.8428 25.0106 46.9398 24.9135C47.134 24.6709 47.134 24.137 46.8428 23.9914C46.6972 23.8944 46.4545 23.8458 46.2604 23.9914C46.2604 23.8458 46.406 23.7002 46.406 23.7002L45.2898 23.8458C45.2412 23.8458 43.8339 23.7488 42.9604 23.7488C42.9604 23.8458 42.9604 23.9429 42.9604 24.04C42.9604 24.4282 43.0089 24.865 43.0574 25.3018C43.0574 25.3018 43.0089 25.2533 43.0089 25.2047C42.9604 25.1077 42.9604 25.0106 42.9118 24.865C42.8633 24.6709 42.8148 24.4767 42.7662 24.2826C42.7177 24.0885 42.6692 23.8944 42.6692 23.7002C42.4265 23.7002 42.2324 23.7002 42.2324 23.7002C42.2324 23.7002 42.5236 25.69 43.1059 26.2239C43.203 26.3209 43.3486 26.418 43.4942 26.4665L41.6985 26.3695L41.8927 26.6121C41.8927 26.6121 42.9118 26.9033 42.9604 26.9033C43.0089 26.9033 43.0574 26.9518 43.0574 26.9518H45.581L45.678 26.9033C45.7266 26.9033 46.7457 26.6121 46.7457 26.6121L46.9398 26.3695L45.0956 26.4665C45.3383 26.3695 45.6295 26.2239 45.7266 25.9812C45.7266 25.9327 45.7751 25.8842 45.8236 25.7871C45.8721 25.8842 45.9692 25.9812 46.0663 25.9812C46.1148 25.9327 46.3089 25.7386 46.3575 25.7386C46.3575 25.7386 46.2604 25.69 46.2119 25.69C46.1633 25.6415 46.1148 25.593 46.1148 25.5444C46.1148 25.4474 46.1633 25.3503 46.2604 25.3503ZM45.9692 25.2533C46.0177 25.0591 46.0663 24.865 46.1148 24.6709C46.1148 24.6709 46.1633 24.6709 46.2119 24.6709C46.2119 24.6709 46.3089 24.6223 46.3575 24.5738C46.3575 24.5738 46.3575 24.5738 46.3575 24.5253C46.3575 24.5253 46.3575 24.4767 46.3575 24.4282C46.3575 24.4282 46.3089 24.3797 46.3089 24.3312C46.2604 24.2341 46.4545 24.0885 46.6001 24.137C46.6487 24.137 46.6487 24.137 46.6972 24.1856C46.7942 24.2826 46.8428 24.4282 46.7942 24.5738C46.7942 24.6223 46.7457 24.7679 46.6001 24.865C46.2604 25.1077 46.1148 25.2047 45.9692 25.2533Z" fill="#2A2A2A"/>
<path d="M44.0759 22.7782C44.0274 23.0209 44.0759 23.2635 44.173 23.4091C44.173 23.4577 44.27 23.5062 44.27 23.5062H44.3186C44.3671 23.5062 44.4156 23.5547 44.4642 23.5547C44.4156 23.5062 44.4156 23.4577 44.3671 23.4091C44.27 23.2635 44.2215 23.0694 44.27 22.9238C44.27 22.5356 44.5612 22.0988 44.7068 21.662C44.8039 21.3708 44.7068 21.1281 44.6098 20.8369C44.4642 21.5649 44.173 22.1473 44.0759 22.7782Z" fill="#2A2A2A"/>
<path d="M45.1441 22.7295C45.1441 22.681 45.1926 22.681 45.1926 22.6324C45.1926 22.5839 45.2412 22.5354 45.2412 22.5354V22.2927C45.2412 22.1957 45.1441 22.1471 45.1441 22.0986C45.1441 22.3412 44.9985 22.5354 44.8529 22.7295C44.8529 22.778 44.8044 22.778 44.8044 22.8266V22.8751C44.8044 22.9236 44.8044 22.9722 44.8044 22.9722V23.1178C44.8044 23.2148 44.8529 23.4089 44.95 23.506H44.9985C44.95 23.4089 44.95 23.3604 44.9014 23.2633C44.9014 23.1178 44.95 22.9722 45.047 22.8751C45.047 22.8266 45.0956 22.778 45.1441 22.7295Z" fill="#2A2A2A"/>
<path d="M43.7851 23.6029C43.8336 23.6029 43.8336 23.6029 43.7851 23.6029C43.688 23.3602 43.688 23.0205 43.688 22.7293C43.688 22.5352 43.7365 22.3896 43.8336 22.244C43.9307 22.0499 44.0277 21.8558 44.0277 21.6616C43.8821 21.9043 43.6395 22.0499 43.4453 22.3896C43.3483 22.7779 43.3968 23.3117 43.7851 23.6029Z" fill="#2A2A2A"/>
<path fill-rule="evenodd" clip-rule="evenodd" d="M49.1236 35.4448H48.5412V33.7948L47.4735 30.0093H48.0559L48.8324 33.2124L49.5604 30.0093H50.1428L49.1236 33.7948V35.4448ZM44.95 32.63H45.775C45.8721 32.63 45.9692 32.63 46.0177 32.5815C46.0662 32.533 46.0662 32.4844 46.0662 32.3389V30.7373C46.0662 30.6402 46.0662 30.5432 46.0177 30.4947C45.9692 30.4461 45.9206 30.4461 45.775 30.4461H44.95V32.63ZM44.95 33.1154V35.3963H44.3676V29.9608H45.9691C46.4544 29.9608 46.6485 30.2035 46.6485 30.6402V32.4359C46.6485 32.8727 46.4544 33.0668 46.1147 33.1154L46.9397 35.3963H46.2603L45.4839 33.1154H44.95ZM41.8925 34.911H43.397V35.4448H41.3101V29.9608H43.3485V30.4947H41.8925V32.3389H43.0573V32.8727H41.8925V34.911ZM40.4366 29.9608V30.4947H39.563V35.4448H38.9806V30.4947H38.1071V29.9608H40.4366ZM36.7483 34.6198V33.1154C36.7483 33.0183 36.7483 32.9212 36.6997 32.8727C36.6512 32.8242 36.6027 32.8242 36.4571 32.8242H35.8747C35.3894 32.8242 35.1953 32.5815 35.1953 32.1447V30.6402C35.1953 30.1549 35.4379 29.9608 35.8747 29.9608H36.6512C37.1365 29.9608 37.3306 30.2035 37.3306 30.6402V31.4653H36.7483V30.7373C36.7483 30.6402 36.7483 30.5432 36.6997 30.4947C36.6512 30.4461 36.6027 30.4461 36.4571 30.4461H36.0688C35.9718 30.4461 35.8747 30.4461 35.8262 30.4947C35.7776 30.5432 35.7776 30.5917 35.7776 30.7373V32.0477C35.7776 32.1447 35.7776 32.2418 35.8262 32.2903C35.8747 32.3389 35.9232 32.3389 36.0688 32.3389H36.6512C37.1365 32.3389 37.3306 32.5815 37.3306 33.0183V34.7169C37.3306 35.2022 37.088 35.3963 36.6512 35.3963H35.8747C35.3894 35.3963 35.1953 35.1537 35.1953 34.7169V33.8919H35.7776V34.6198C35.7776 34.7169 35.7776 34.814 35.8262 34.8625C35.8747 34.911 35.9232 34.911 36.0688 34.911H36.4571C36.5541 34.911 36.6512 34.911 36.6997 34.8625C36.7483 34.814 36.7483 34.7654 36.7483 34.6198ZM32.526 33.5036H33.4967L33.0113 30.3491L32.526 33.5036ZM33.7878 35.4448L33.5452 34.0375H32.429L32.2348 35.4448H31.6525L32.526 29.9608H33.4967L34.4188 35.4448H33.7878ZM30.1481 34.6198V30.7373C30.1481 30.6402 30.1481 30.5432 30.0995 30.4947C30.051 30.4461 30.0025 30.4461 29.8569 30.4461H29.323C29.226 30.4461 29.1289 30.4461 29.0804 30.4947C29.0318 30.5432 29.0318 30.5917 29.0318 30.7373V34.6198C29.0318 34.7169 29.0318 34.814 29.0804 34.8625C29.1289 34.911 29.1774 34.911 29.323 34.911H29.8569C29.9539 34.911 30.051 34.911 30.0995 34.8625C30.1481 34.814 30.1481 34.7654 30.1481 34.6198ZM29.1774 29.9608H30.051C30.5362 29.9608 30.7304 30.2035 30.7304 30.6402V34.7169C30.7304 35.2022 30.4877 35.3963 30.051 35.3963H29.1774C28.6921 35.3963 28.498 35.1537 28.498 34.7169V30.6402C28.4495 30.2035 28.6921 29.9608 29.1774 29.9608ZM25.5861 32.63H26.4111C26.5082 32.63 26.6053 32.63 26.6538 32.5815C26.7023 32.533 26.7023 32.4844 26.7023 32.3389V30.7373C26.7023 30.6402 26.7023 30.5432 26.6538 30.4947C26.6053 30.4461 26.5567 30.4461 26.4111 30.4461H25.5861V32.63ZM25.5861 33.1154V35.3963H25.0037V29.9608H26.6053C27.0906 29.9608 27.2847 30.2035 27.2847 30.6402V32.4359C27.2847 32.8727 27.0906 33.0668 26.7509 33.1154L27.5759 35.3963H26.945L26.1685 33.1154H25.5861ZM64.9447 30.8344C63.5373 29.6696 61.5961 29.6211 60.8196 31.4168C60.577 31.9991 60.577 32.5815 60.7711 33.2124C60.8196 33.4065 60.9652 33.5036 61.2079 33.5036C61.4505 33.5036 61.6931 33.5521 61.9358 33.6007C62.324 33.6977 62.6637 33.8433 62.7123 34.2801C62.7608 34.7169 62.7608 35.1537 62.3725 35.4448C61.7417 35.9301 61.0138 36.2213 60.2858 36.4154C59.5578 36.6095 58.7813 36.6095 58.0533 36.6581H53.54V27.6313H21.8978L21.8007 36.5125C19.5198 36.5125 16.6564 36.5125 14.4725 36.1727C13.7931 36.0757 13.3078 35.6875 13.0166 35.0566C12.8225 34.6684 12.9196 34.3286 13.1137 33.9889C13.3078 33.6492 13.599 33.6492 13.9387 33.6977H14.2299C14.327 33.4065 14.5211 33.1154 14.5696 32.7756C14.6666 32.1447 14.5696 31.5138 14.1814 30.98C13.9387 30.6888 13.6961 30.4461 13.3563 30.3005C11.9004 29.427 9.76501 30.4947 9.57091 32.0477C9.47382 33.0183 9.57091 33.9889 9.95911 34.8625C10.5415 36.1242 11.5607 36.9493 12.9196 37.289C13.8417 37.4831 15.5402 37.7258 16.5593 37.7258C17.5785 37.7258 21.0242 37.7743 22.0434 37.7743C32.4775 37.6772 42.8631 37.7743 53.2973 37.7743C55.0929 37.7743 56.8886 37.7743 58.6842 37.7258C60.7711 37.7258 63.2946 37.386 64.7021 35.736C65.0418 35.3478 65.2844 34.8625 65.43 34.4257C65.6242 33.7948 65.7212 33.1154 65.6727 32.4359C65.6242 31.7565 65.3815 31.2226 64.9447 30.8344Z" fill="#2A2A2A"/>
<path fill-rule="evenodd" clip-rule="evenodd" d="M40.2911 61.5057C39.7087 60.341 38.5441 60.0983 37.622 60.0498C36.6028 60.0498 35.5351 60.5351 35.0013 61.5057C34.9527 61.5543 34.9527 61.5543 34.9527 61.6028C34.1762 63.3499 36.6513 67.3294 37.8161 68.4942C37.8646 68.5427 37.9132 68.4942 37.9617 68.4942C38.6411 67.9603 41.0191 62.8646 40.2911 61.5057Z" fill="#2A2A2A"/>
<path fill-rule="evenodd" clip-rule="evenodd" d="M51.2104 54.4691C51.5986 54.6632 52.0354 55.2456 51.5016 55.7309C51.3074 56.0221 50.4339 56.7501 48.4926 56.556C46.9396 56.3618 43.8822 54.7603 43.1057 54.5662C41.5527 54.1779 39.7085 53.6927 38.3982 54.9059C37.9129 55.3912 37.6217 56.0706 37.5247 56.4104C37.5247 56.4104 37.6703 57.6722 38.7379 58.7884C38.932 58.9825 41.0674 60.6811 45.9691 60.2929C53.2972 59.5649 53.2972 56.556 53.3943 55.7794C53.2972 54.4206 52.2295 53.7897 51.2104 54.4691Z" fill="#2A2A2A"/>
<path fill-rule="evenodd" clip-rule="evenodd" d="M23.9847 54.4691C23.5964 54.6632 23.1596 55.2456 23.6935 55.7309C23.8876 56.0221 24.7612 56.7501 26.7024 56.556C28.2554 56.3618 31.3129 54.7603 32.0894 54.5662C33.6423 54.1779 35.4865 53.6927 36.7968 54.9059C37.2821 55.3912 37.5733 56.0706 37.6219 56.4104C37.6219 56.4104 37.4763 57.6722 36.4086 58.7884C36.2144 58.9825 34.0791 60.6811 29.1775 60.2929C21.8493 59.5649 21.8493 56.556 21.7522 55.7794C21.8493 54.4206 22.917 53.7897 23.9847 54.4691Z" fill="#2A2A2A"/>
<path d="M59.3637 40.3948H60.4799V51.5569H59.3637V45.9273H57.1798V51.5083H56.0636V40.3462H57.1798V44.9566H59.3637V40.3948ZM55.0445 43.3551H53.9283V41.8022C53.9283 41.6081 53.8798 41.4625 53.8312 41.3654C53.7827 41.3169 53.6371 41.2683 53.443 41.2683H52.5694C52.3753 41.2683 52.2297 41.3169 52.1326 41.3654C52.0841 41.4139 52.0356 41.5595 52.0356 41.8022V50.0039C52.0356 50.1981 52.0841 50.3437 52.1326 50.3922C52.1811 50.4407 52.3267 50.4892 52.5694 50.4892H53.443C53.6371 50.4892 53.7827 50.4407 53.8312 50.3922C53.8798 50.3437 53.9283 50.1981 53.9283 50.0039V48.4509H55.0445V50.1495C55.0445 51.0231 54.6077 51.4598 53.7342 51.4598H52.1326C51.259 51.4598 50.8223 51.0231 50.8223 50.1495V41.6566C50.8223 40.783 51.259 40.3462 52.1326 40.3462H53.7342C54.6077 40.3462 55.0445 40.783 55.0445 41.6566V43.3551ZM48.6383 51.5083H47.5222V48.4024L45.5324 40.3462H46.6486L48.1045 46.267L49.4634 40.3462H50.5796L48.6383 48.4024V51.5083ZM44.0765 40.3948H45.1927L43.5426 51.5569H41.747L40.0969 40.3948H41.2131L42.6205 50.7319L44.0765 40.3948ZM38.7381 50.0525V41.8507C38.7381 41.6566 38.6896 41.511 38.641 41.4139C38.5925 41.3654 38.4469 41.3169 38.2528 41.3169H37.2336C37.0395 41.3169 36.8939 41.3654 36.8454 41.4139C36.7968 41.4625 36.7483 41.6081 36.7483 41.8507V50.0525C36.7483 50.2466 36.7968 50.3922 36.8454 50.4892C36.8939 50.5378 37.0395 50.5863 37.2336 50.5863H38.2528C38.4469 50.5863 38.5925 50.5378 38.641 50.4892C38.6896 50.3922 38.7381 50.2466 38.7381 50.0525ZM36.8939 40.3948H38.544C39.4175 40.3948 39.8542 40.8316 39.8542 41.7051V50.2951C39.8542 51.1687 39.4175 51.6054 38.544 51.6054H36.8939C36.0203 51.6054 35.5835 51.1687 35.5835 50.2951V41.6566C35.5835 40.783 36.0203 40.3948 36.8939 40.3948ZM33.3511 40.3948H34.4673V51.5569H33.3511V45.9273H31.1673V51.5083H30.051V40.3462H31.1673V44.9566H33.3511V40.3948ZM26.6053 50.5378H29.3716V51.5083H25.4405V40.3462H29.2745V41.3169H26.6053V44.714H28.7892V45.6846H26.6053V50.5378ZM23.1111 40.3948H24.2273V51.5569H23.1111V45.9273H20.9272V51.5083H19.811V40.3462H20.9272V44.9566H23.1111V40.3948ZM18.8403 43.3551H17.7241V41.8022C17.7241 41.6081 17.6756 41.4625 17.6271 41.3654C17.5785 41.3169 17.4329 41.2683 17.2388 41.2683H16.3652C16.1711 41.2683 16.0255 41.3169 15.9285 41.3654C15.88 41.4139 15.8314 41.5595 15.8314 41.8022V50.0039C15.8314 50.1981 15.88 50.3437 15.9285 50.3922C15.977 50.4407 16.1226 50.4892 16.3652 50.4892H17.2388C17.4329 50.4892 17.5785 50.4407 17.6271 50.3922C17.6756 50.3437 17.7241 50.1981 17.7241 50.0039V48.4509H18.8403V50.1495C18.8403 51.0231 18.4036 51.4598 17.53 51.4598H15.9285C15.055 51.4598 14.6182 51.0231 14.6182 50.1495V41.6566C14.6182 40.783 15.055 40.3462 15.9285 40.3462H17.53C18.4036 40.3462 18.8403 40.783 18.8403 41.6566V43.3551Z" fill="#2A2A2A"/>
</svg>
