<svg width="65" height="75" viewBox="0 0 65 75" fill="none" xmlns="http://www.w3.org/2000/svg">
<path d="M32.062 0.405273C22.0803 0.405273 13.9133 8.58825 13.9133 18.5897C13.9133 28.5911 22.0803 36.7741 32.062 36.7741C42.0438 36.7741 50.2107 28.5911 50.2107 18.5897C50.2107 8.58825 42.1345 0.405273 32.062 0.405273ZM19.5395 30.5005L19.1764 30.0459C18.8135 29.5004 18.632 28.9548 18.632 28.2274C18.632 26.7727 19.0857 25.9544 20.0839 25.9544C20.2654 25.9544 20.3561 26.0453 20.3561 26.1362L20.2654 26.7727L20.3561 27.5001C20.6283 27.7729 20.9005 27.9547 21.2636 27.9547C22.0803 27.9547 22.4432 27.5001 22.4432 26.5908C22.4432 25.4998 21.808 24.9542 20.6283 24.9542C19.8117 24.9542 19.1764 25.318 18.632 26.0453C18.1783 26.6817 17.9061 27.4092 17.9061 28.3184V28.773C12.3707 20.9536 14.1855 10.2249 21.9895 4.67862C24.8933 2.58741 28.4323 1.49634 31.9712 1.49634C35.8732 1.49634 39.4122 2.76925 42.3161 4.95138L41.2271 5.49692L40.2289 6.04246L38.3233 5.67876C34.6936 4.95138 30.8823 5.49692 27.5248 7.13348C26.6174 7.58816 25.8007 8.3155 24.984 9.22468C23.4414 10.9522 22.5339 13.1343 22.5339 15.4984C22.5339 16.7712 22.8062 17.6805 23.2599 18.4079C23.8951 19.408 24.984 20.2263 26.4359 20.2263C28.0693 20.3172 29.612 19.499 30.7916 17.8623C31.7898 16.5894 32.425 15.0437 32.425 13.4072C32.425 12.1342 32.1528 11.5887 31.5176 11.5887L31.2454 11.6796C31.6083 12.0433 31.8805 12.5888 31.8805 13.3163C31.8805 14.68 31.4268 15.953 30.4287 17.3168C28.886 19.8626 24.0766 20.9536 23.7137 16.4985C23.7137 15.2256 24.0766 13.9527 24.7118 12.8616C27.2526 7.13348 33.7862 4.40585 39.6845 6.49705L39.3215 6.95164C36.0547 10.8613 33.7862 15.4984 32.5157 20.4081C31.7898 23.0448 30.6101 25.5907 28.9768 27.8638C27.0712 30.3186 24.8025 31.5916 22.4432 31.5916C21.3543 31.5916 20.4469 31.3188 19.8117 30.7732L19.5395 30.5005ZM32.062 35.9558C27.8879 35.9558 23.9859 34.4101 20.9913 31.9553L22.4432 32.1371C24.4395 32.1371 26.4359 31.4098 28.3415 29.955C30.0656 28.682 31.5176 27.0454 32.6065 25.1361C33.5139 23.4995 34.4213 21.4083 35.238 18.8624L37.2344 12.6797C38.1418 10.4976 38.9585 8.77009 39.866 7.49724C40.2289 6.95164 40.5012 6.67889 40.7734 6.67889L41.5901 7.04256C43.2235 7.95183 44.1309 9.67936 44.0402 11.4978C44.0402 14.4982 42.9512 16.7712 40.8641 18.226C40.4104 18.5897 39.9567 18.6806 39.6845 18.6806L39.2307 18.4988C38.5048 18.1351 36.1454 17.6805 36.1454 18.9534C36.1454 19.499 36.5992 19.7717 37.4159 19.7717L38.3233 19.5899L39.2307 19.499C39.7752 19.499 40.0474 20.2263 40.0474 21.6811L39.5029 27.2274C39.5029 29.1367 40.1382 30.3187 41.4994 30.8642L42.5883 31.137C44.1309 31.137 45.3105 30.2277 46.1272 28.4093L46.3994 27.5001C46.3994 27.0455 46.1272 26.9545 46.1272 27.1364C46.1272 27.7729 45.855 28.4093 45.2198 29.1367C44.6753 29.8641 44.0402 30.1368 43.4049 30.1368C42.4975 30.1368 41.953 29.5913 41.6808 28.4093L41.4994 27.5001C41.4994 25.318 41.7716 23.3177 41.2271 21.1356C40.9549 20.2263 40.4104 19.6808 40.1382 19.3171C41.6808 18.5897 42.9512 18.1351 44.3124 16.7712C46.7625 14.4073 47.1254 11.4978 44.9476 8.77009C44.0402 7.67908 42.8605 6.7698 41.5901 6.2243C41.4086 6.13338 41.4086 6.13338 41.4994 6.04246C41.8623 5.58783 42.4068 5.31507 42.9512 5.13323C46.9439 8.3155 49.4847 13.1343 49.4847 18.6806C49.3033 28.1365 41.5901 35.9558 32.062 35.9558Z" fill="#2A2A2A"/>
<path d="M24.872 54.6119L25.6483 54.7845L25.562 55.1294L23.5784 55.0432L21.5086 55.1294C21.4224 55.0432 21.4224 54.7845 21.5086 54.7845L22.3711 54.6119C22.6298 54.5256 22.716 54.3531 22.8022 53.7493V48.2291C22.8022 48.0565 22.8023 47.9703 22.6298 47.7978C22.4573 47.5391 22.1123 47.4528 21.7674 47.3665V47.0215C22.3711 46.9353 23.5784 46.7628 24.3546 46.3315L24.2684 50.0404V53.8356C24.3546 54.2669 24.5271 54.5256 24.872 54.6119ZM34.3586 54.2669C33.4962 53.5769 31.5126 51.0755 30.8226 50.0404V49.9542L33.1512 47.6253C33.5824 47.194 34.0998 46.9353 34.7898 46.849C34.876 46.7628 34.876 46.5039 34.7898 46.5039C33.7549 46.6764 32.375 46.6764 31.0814 46.6764C30.9952 46.7628 30.9952 47.0215 31.0814 47.0215L32.03 47.194L32.375 47.4528C32.375 47.7978 30.9089 49.3504 30.219 50.0404C29.7878 50.3855 29.4428 50.4717 29.1841 50.558L29.2703 42.1912C29.2703 40.8111 29.3566 40.2937 29.4428 40.0348L29.3566 39.8623C28.6666 40.1211 27.9767 40.3799 26.4244 40.4661C26.3382 40.5524 26.3382 40.7249 26.4244 40.8111L27.2868 40.8974C27.6318 40.9837 27.718 41.2424 27.718 41.5012L27.8042 50.2991L27.718 53.7493C27.718 54.1807 27.5455 54.3531 27.2868 54.5256L26.5106 54.6982C26.4244 54.7845 26.4244 55.0432 26.5106 55.0432L28.4942 54.9569L30.6502 55.0432C30.7364 54.9569 30.7364 54.7845 30.6502 54.6982L29.874 54.6119C29.4428 54.5256 29.2703 54.3531 29.2703 53.6631L29.1841 50.8167C29.6153 50.8167 29.7878 50.9892 29.874 51.1618C30.7364 52.283 31.9438 54.0944 32.7199 54.6982C32.9787 54.9569 33.3236 55.1294 33.8411 55.1294L35.8246 55.0432C35.9108 54.9569 35.9108 54.6982 35.8246 54.6982C35.2209 54.7845 34.876 54.7845 34.3586 54.2669ZM20.8187 49.5228L20.7325 49.7817C19.8701 50.0404 16.8516 50.2129 15.1269 50.2991L14.9543 50.558C14.9543 51.4205 15.2993 52.3693 15.7306 52.9731C16.4205 53.7493 17.1967 54.0944 18.1453 54.0944C19.0077 54.0944 19.7839 53.9218 20.56 53.1455L20.6463 53.2319L20.56 53.5769C19.6977 54.6119 18.4903 55.2157 17.1104 55.3019C15.9893 55.3019 15.1269 54.8707 14.5232 54.2669C13.6607 53.4044 13.402 52.1105 13.402 50.9029C13.402 49.0916 14.092 47.7978 15.2993 47.0215C15.903 46.5902 16.9379 46.3315 17.5416 46.3315C19.6113 46.3315 20.3013 48.2291 20.4738 49.3504C20.56 49.4366 20.56 49.5228 20.8187 49.5228ZM18.9214 49.4366C18.7489 48.3153 18.1453 46.9353 16.9379 46.9353C15.9893 46.9353 15.1269 47.884 15.0406 49.6091L15.1269 49.7817C15.7306 49.8679 18.404 49.6954 18.8352 49.6091L18.9214 49.4366ZM23.1473 44.1751C23.3197 44.2613 23.8372 44.1751 24.0096 44.0888C24.2684 44.0026 24.4409 43.5713 24.4409 43.2263L24.2684 42.7088L23.6647 42.5363C23.3197 42.5363 22.9748 42.7088 22.8022 42.8812C22.716 43.0537 22.6298 43.2263 22.716 43.3988C22.6298 43.7438 22.8022 44.0888 23.1473 44.1751ZM13.402 54.7845L13.3158 55.1294C12.2809 55.2157 11.1598 55.1294 10.1249 54.7845L9.09004 54.0082C8.22761 53.0593 6.76149 50.558 5.98537 49.3504C5.81285 49.0916 5.64042 49.0054 5.4679 49.0054H4.08808L4.00178 49.1779L4.08808 53.4906C4.08808 54.4394 4.26051 54.5256 4.69168 54.6982L5.81285 54.8707C5.89906 54.9569 5.89906 55.1294 5.81285 55.2157L3.22565 55.1294L0.638413 55.2157C0.55217 55.2157 0.55217 54.8707 0.638413 54.8707L1.67332 54.6982C2.1907 54.5256 2.27701 54.2669 2.36322 53.4906L2.44944 48.4016L2.36322 43.1401C2.36322 42.5363 2.1907 42.2774 1.67332 42.1912L0.638413 42.0187C0.55217 41.9325 0.638413 41.6737 0.638413 41.6737L2.8807 41.76L6.24402 41.6737C8.745 41.6737 9.95238 43.1401 9.95238 44.9514C9.95238 46.849 8.65878 47.884 7.36518 48.4016C7.27897 48.4878 7.27897 48.4878 7.36518 48.5741C8.1414 49.7817 10.0387 52.6281 11.0735 53.6631C12.1084 54.6119 12.4534 54.6982 13.402 54.7845ZM6.76149 48.1428C7.4514 47.884 8.31383 47.194 8.31383 45.3827C8.31383 43.3988 7.19266 42.105 4.8642 42.105L4.1743 42.1912L4.08808 42.45L4.00178 48.1428L4.08808 48.2291C4.95042 48.4016 5.89906 48.3153 6.76149 48.1428ZM49.3645 46.3315C48.9332 46.3315 48.5882 46.5039 48.2433 46.7628C47.7258 47.194 47.2947 47.7115 46.9497 48.2291H46.8635V46.4177L46.7772 46.3315C46.1735 46.6764 44.9661 47.0215 44.2762 47.1077L44.19 47.3665C45.1386 47.6253 45.2248 47.9703 45.2248 48.2291L45.3111 50.0404L45.2248 53.9218C45.2248 54.3532 45.0524 54.4394 44.8799 54.5256L44.1038 54.6982C44.0175 54.7845 44.0175 55.0432 44.1038 55.0432L46.1735 54.9569L48.4157 55.0432L48.502 54.6982L47.3809 54.5256C47.1221 54.4394 46.9497 54.1807 46.9497 53.7493L46.8635 49.5228L47.0359 48.6603C47.3809 48.1428 47.7258 47.7978 48.1571 47.7978C48.5882 47.7978 49.1057 48.0565 49.4507 48.4016L49.6231 48.3153C49.8818 47.9703 50.1406 47.5391 50.3131 47.1077V46.7628C50.1406 46.5039 49.7956 46.3315 49.3645 46.3315ZM55.0563 54.2669C54.5389 54.2669 54.1077 54.0082 53.9352 53.4906C53.7627 53.0593 53.7627 52.6281 53.7627 52.1968V47.6253L53.8489 47.4528H56.005L56.1774 46.5039L53.7627 46.5902L53.6764 46.4177C53.6764 44.8651 53.7627 44.0026 53.8489 43.6575L53.5902 43.5713C53.4178 43.8301 52.6416 44.5201 52.2104 44.6926V46.4177L52.1241 46.5902L51.1754 46.7628L51.003 47.2802L52.1241 47.3665L52.2104 47.5391V51.7655C52.2104 53.1455 52.2104 53.7493 52.4691 54.2669C52.8141 54.9569 53.504 55.2157 54.1939 55.2157C54.8838 55.2157 55.66 54.9569 56.1774 54.2669L56.2637 53.9218C55.9188 54.1807 55.5737 54.2669 55.0563 54.2669ZM42.8964 54.1807L43.6725 54.0944L43.5863 54.5256C43.0688 55.1294 42.3789 55.3019 41.8614 55.3019C41.344 55.3019 40.9991 55.1294 40.8266 54.7845L40.6541 54.1807L40.5678 54.0944C39.8779 54.6119 39.0155 55.0432 38.1532 55.2157C37.7219 55.2157 37.3769 55.0432 37.032 54.6982C36.6008 54.2669 36.3421 53.5769 36.3421 52.8006L36.6008 51.7655C37.2045 51.4205 39.8779 50.7304 40.6541 50.2991L40.8266 50.1266V49.2641C40.8266 48.8328 40.6541 48.3153 40.4816 47.9703C40.0504 47.4528 39.4468 47.1077 38.7568 47.1077C38.4981 47.1077 38.2394 47.194 37.9806 47.2802C37.7219 47.4528 37.3769 48.0565 37.1182 48.8328C37.032 48.9191 36.687 48.5741 36.687 48.4016C36.687 48.1428 36.9458 47.4528 37.1182 47.3665C37.9806 46.6764 39.3604 46.0727 39.8779 46.0727C40.7404 46.0727 41.4303 46.5039 41.8614 47.194C42.2065 47.7978 42.2927 48.6603 42.2927 49.3504L42.2065 52.9731C42.1202 53.6631 42.2927 54.1807 42.8964 54.1807ZM40.7404 50.9029C39.7917 51.0755 38.8431 51.4205 37.9806 51.938L37.8082 52.6281C37.8082 53.5769 38.4118 54.2669 39.3605 54.2669C39.7055 54.2669 40.1367 54.1807 40.4816 53.9218L40.6541 53.4906L40.7404 50.9029ZM63.7666 52.6281C63.0767 54.3531 62.4731 54.6119 62.2143 54.6119C61.6968 54.6119 59.9721 54.6119 59.3684 54.4394L59.2821 54.2669L63.5941 46.7628L63.5079 46.5039L61.8694 46.5902H58.9371L57.471 46.4177L56.9536 48.8328C57.0398 48.9191 57.2986 49.0054 57.3848 48.9191C58.0748 47.2802 58.3334 47.194 58.9371 47.1077L61.6968 47.0215C61.6968 47.0215 61.7831 47.0215 61.6968 47.1077C60.662 49.0916 58.3334 52.8006 57.2124 54.6119L57.2986 54.8707L63.0767 54.9569C63.163 54.9569 63.4217 54.8707 63.5079 54.6119C63.6804 54.1807 64.0253 53.4044 64.1978 52.4555L64.1116 52.3693C64.1116 52.5418 63.8529 52.5418 63.7666 52.6281Z" fill="#2A2A2A"/>
<path d="M40.376 66.6661C40.4327 66.7221 40.4327 66.8901 40.376 66.8901L39.9223 67.0022C39.6386 67.0582 39.5819 67.2823 39.5819 67.7864C39.5252 68.3466 39.5252 68.8508 39.5819 69.4109C39.6386 69.691 39.6386 69.691 39.9223 69.803L39.8656 70.0271C39.4685 70.1391 38.0505 70.5313 36.8595 70.5313C33.6265 70.5313 31.8682 68.9628 31.8682 65.8259C31.8682 63.9773 32.8324 62.5208 34.3638 61.8486C35.1579 61.5125 35.9519 61.2884 37.143 61.2884C38.2207 61.2884 39.0715 61.5125 39.8089 61.5686C39.6954 61.9606 39.5819 62.969 39.5819 63.6412L39.2984 63.6972C39.1849 62.6329 39.0148 62.2967 38.6177 62.0727C38.164 61.7926 37.4833 61.6806 36.6325 61.6806C34.3638 61.6806 33.1728 63.2491 33.1728 65.7698C33.1728 68.2906 34.534 70.1952 37.0296 70.1952C37.4266 70.1952 37.8804 70.1391 38.0505 70.0271C38.3342 69.915 38.3909 69.747 38.4476 69.3549L38.5043 67.7304C38.4476 67.1703 38.3909 67.0582 37.9371 66.9462L37.2565 66.8342C37.1998 66.7781 37.1998 66.6101 37.2565 66.6101L39.0715 66.6661H40.376ZM51.0392 67.3943C51.0392 68.4026 50.5854 69.3549 49.7346 69.915C49.3942 70.1391 48.7704 70.4192 48.1465 70.4192C46.1046 70.4192 45.3672 68.8508 45.3672 67.4503C45.3672 66.386 45.8777 65.6018 46.6151 65.1537C47.0688 64.8176 47.7494 64.5935 48.4301 64.5935C50.0749 64.5935 51.0392 65.8259 51.0392 67.3943ZM49.9047 67.8425C49.9047 66.2179 49.2241 64.9856 47.9195 64.9856C47.6927 64.9856 47.3524 65.0416 47.1822 65.2096C46.8419 65.4337 46.4449 66.0499 46.4449 67.1142C46.4449 68.7947 47.239 70.0271 48.4301 70.0271C48.7136 70.0271 49.054 69.915 49.3375 69.691C49.7913 69.2989 49.9047 68.6827 49.9047 67.8425ZM64.1978 67.1703C64.1978 68.2345 63.8008 69.0748 63.0068 69.691C62.3829 70.1952 61.5888 70.4752 60.738 70.5313L60.1708 70.4192L60.1141 70.4752L60.1708 73.164C60.1708 73.5562 60.2842 73.6681 60.6245 73.7242L61.3051 73.7803C61.3618 73.8362 61.3051 74.0043 61.2484 74.0043H60.5678C59.3768 74.0043 58.6394 74.1723 58.1289 74.1723C58.0722 74.1164 58.0722 73.9483 58.1289 73.9483L58.6961 73.7803C58.923 73.6682 59.0364 73.5001 59.0364 73.164L59.0931 69.4109L59.0364 66.0499C59.0364 65.8259 58.9797 65.6578 58.8663 65.6018C58.7529 65.5457 58.526 65.4337 58.2423 65.4337C58.1856 65.3777 58.2424 65.2657 58.2991 65.2096C58.8096 65.0976 59.6603 64.7615 60.0574 64.4815L60.1708 64.5935L60.1141 65.5457H60.1708C61.0216 64.9856 61.7022 64.6495 62.2127 64.6495C62.7798 64.6495 63.2903 64.9296 63.5739 65.2657C63.971 65.8259 64.1978 66.4981 64.1978 67.1703ZM63.1769 67.7304C63.1769 67.0022 62.9501 66.386 62.6664 65.9939C62.3261 65.6018 61.9291 65.4337 61.4186 65.4337C60.9649 65.4337 60.5678 65.6018 60.2275 65.8818C60.1708 65.9379 60.0574 66.0499 60.0574 66.162V68.9628C60.0574 69.4109 60.1708 69.5789 60.3977 69.803C60.6245 69.9711 60.9649 70.0831 61.4186 70.0831C61.8156 70.0831 62.1559 69.915 62.4963 69.691C62.9501 69.2428 63.1769 68.6267 63.1769 67.7304ZM57.505 69.691C57.2215 69.691 57.108 69.5789 57.108 69.0188V66.2179L57.1647 64.7055C56.8244 64.8176 55.6901 64.9296 54.9527 64.9296L54.896 65.1537L55.8035 65.2657C56.0303 65.3217 56.087 65.5457 56.087 65.6578V68.9067C56.087 69.0748 56.0303 69.2428 55.9169 69.2989C55.5766 69.5789 55.1796 69.691 54.7826 69.691C54.0452 69.691 53.7049 69.2989 53.5915 68.7947L53.5347 67.2823L53.5915 64.5935C53.1944 64.7055 52.2869 64.8176 51.7197 64.8176L51.663 65.0416L52.2869 65.1537C52.4571 65.2096 52.4571 65.3777 52.5138 65.6578V68.4586C52.5138 69.4109 52.7974 70.3632 54.1587 70.3632C54.6123 70.3632 55.2363 70.1391 56.0303 69.4669C56.087 69.4109 56.1437 69.4669 56.1437 69.523V70.3632L56.2573 70.4752L58.0155 69.915L58.0722 69.691H57.505ZM19.617 69.747C19.2767 69.747 18.9931 69.5789 18.8797 69.2428C18.7662 68.9628 18.7662 68.6827 18.7662 68.4026V65.4337L18.823 65.3217H20.2409L20.3544 64.7055L18.7662 64.7615L18.7095 64.6495C18.7095 63.6412 18.7663 63.081 18.823 62.8569L18.6528 62.8009C18.5393 62.969 18.0289 63.4171 17.7453 63.5291V64.6495L17.6886 64.7615L17.0646 64.8735L16.9512 65.2096L17.6886 65.2657L17.7453 65.3777V68.1225C17.7453 69.0188 17.7453 69.4109 17.9154 69.747C18.1424 70.1952 18.596 70.3632 19.0498 70.3632C19.5036 70.3632 20.014 70.1952 20.3544 69.747L20.4111 69.523C20.1841 69.691 19.9573 69.747 19.617 69.747ZM44.4598 64.5935C44.1761 64.5935 43.9493 64.7055 43.7224 64.8735C43.3821 65.1537 43.0985 65.4898 42.8717 65.8259H42.815V64.6495L42.7582 64.5935C42.3612 64.8176 41.5671 65.0416 41.1133 65.0976L41.0566 65.2657C41.6805 65.4337 41.7372 65.6578 41.7372 65.8259L41.7939 67.0022L41.7372 69.523C41.7372 69.803 41.6238 69.8591 41.5104 69.915L40.9999 70.0271C40.9432 70.0831 40.9432 70.2511 40.9999 70.2511L42.3612 70.1952L43.8359 70.2511L43.8926 70.0271L43.1552 69.915C42.9851 69.8591 42.8717 69.691 42.8717 69.4109L42.815 66.6661L42.9284 66.1059C43.1552 65.7698 43.3821 65.5457 43.6657 65.5457C43.9493 65.5457 44.2896 65.7138 44.5165 65.9379L44.6299 65.8818C44.8 65.6578 44.9702 65.3777 45.0837 65.0976V64.8735C44.9135 64.7055 44.6866 64.5935 44.4598 64.5935ZM16.2139 67.3943C16.2139 68.4026 15.7601 69.3549 14.9093 69.915C14.569 70.1391 13.9451 70.4192 13.3212 70.4192C11.2794 70.4192 10.5421 68.8508 10.5421 67.4503C10.5421 66.386 11.0525 65.6018 11.7898 65.1537C12.2436 64.8176 12.9242 64.5935 13.6049 64.5935C15.3064 64.5935 16.2139 65.8259 16.2139 67.3943ZM15.1363 67.8425C15.1363 66.2179 14.4556 64.9856 13.1511 64.9856C12.9242 64.9856 12.5839 65.0416 12.4137 65.2096C12.0735 65.4337 11.6764 66.0499 11.6764 67.1142C11.6764 68.7947 12.4704 70.0271 13.6616 70.0271C13.9451 70.0271 14.2855 69.915 14.5691 69.691C15.0228 69.2989 15.1363 68.6827 15.1363 67.8425ZM28.1815 69.9711C27.9547 69.8591 27.8979 69.747 27.8979 69.2989L27.8412 65.5457V62.1287C27.8412 61.1764 27.8979 60.7843 27.9547 60.5042L27.8979 60.4482C27.3874 60.7283 26.5934 60.8964 26.0262 60.9523C25.9695 61.0084 25.9695 61.1204 26.0262 61.1764L26.5934 61.2884C26.7635 61.3445 26.7635 61.5125 26.8202 61.6806L26.8769 65.6578L26.8202 69.523C26.8202 69.803 26.7068 69.8591 26.5934 69.9711C26.4233 70.0271 26.1963 70.0831 26.0262 70.0831V70.3072L27.3874 70.2511L28.7487 70.3072L28.8054 70.0831L28.1815 69.9711ZM25.5725 66.6661L25.5158 66.8342C24.9486 67.0022 22.9634 67.1142 21.8291 67.1703L21.7155 67.3383C21.7155 67.8984 21.9425 68.5147 22.226 68.9067C22.6798 69.4109 23.1902 69.635 23.8142 69.635C24.3814 69.635 24.8919 69.523 25.4023 69.0188L25.459 69.0748L25.4023 69.2989C24.8351 69.9711 24.0411 70.3632 23.1335 70.4192C22.3962 70.4192 21.8291 70.1391 21.432 69.747C20.8648 69.1869 20.6946 68.3466 20.6946 67.5623C20.6946 66.386 21.1484 65.5457 21.9425 65.0416C22.3395 64.7615 23.0201 64.5935 23.4172 64.5935C24.7784 64.5935 25.2321 65.8259 25.3455 66.554L25.5725 66.6661ZM24.3814 66.6101C24.2679 65.8818 23.8709 64.9856 23.0768 64.9856C22.4529 64.9856 21.8858 65.6018 21.8291 66.7221L21.8858 66.8342C22.2828 66.8901 24.0411 66.7781 24.3247 66.7221L24.3814 66.6101ZM9.3509 69.915C9.06736 69.803 9.01065 69.691 9.01065 69.2428L8.95394 65.9939L9.01065 62.5769C9.01065 62.0167 9.12406 61.9047 9.40761 61.8486L10.0316 61.7366C10.0883 61.6806 10.0883 61.5686 10.0316 61.5125L8.44347 61.5686L6.79856 61.5125C6.74185 61.5686 6.74185 61.6806 6.79856 61.7366L7.47924 61.8486C7.70608 61.9047 7.76278 62.0727 7.76278 62.3528L7.81949 65.4898L7.76278 65.5457H5.55079L2.99845 65.4898L2.94174 65.3777L2.99845 62.4648C2.99845 61.9606 3.11186 61.9047 3.3955 61.7926L3.96267 61.6806C4.01938 61.6245 4.01938 61.5125 3.96267 61.4565L2.37456 61.5125L0.616269 61.4565C0.559551 61.5125 0.559551 61.6245 0.616269 61.6806L1.35362 61.7926C1.58046 61.8486 1.69388 62.0167 1.75068 62.4088L1.80739 65.7138V68.7947C1.75068 69.4669 1.75068 69.747 1.35362 69.8591L0.672978 69.9711C0.61626 70.0271 0.61626 70.1952 0.672978 70.1952L2.43127 70.1391L4.07609 70.1952L4.1328 69.9711L3.33879 69.803C2.99845 69.691 2.99845 69.4109 2.94174 68.9628L2.88503 66.0499L2.94174 65.9379L5.43737 65.8818H7.64937L7.70608 65.9939V69.0748C7.70608 69.5789 7.59266 69.747 7.30903 69.803L6.62843 69.915C6.57172 69.9711 6.57172 70.0831 6.62843 70.1391L8.32996 70.0831L9.97487 70.1391L10.0316 69.915C9.69124 70.0271 9.52112 70.0271 9.3509 69.915Z" fill="#2A2A2A"/>
<path d="M0.57373 58.1128H63.5004V59.0144H0.57373V58.1128Z" fill="#2A2A2A"/>
</svg>
