<svg width="66" height="75" viewBox="0 0 66 75" fill="none" xmlns="http://www.w3.org/2000/svg">
<path d="M35.1574 48.4424L41.995 46.6629L42.6456 51.9876L47.8498 50.6189L43.2268 13.2773L38.0226 14.6462L34.1331 15.6591L29.261 55.4918L34.4653 54.123L35.1574 48.4424ZM38.6593 19.6971L41.4275 41.9268L35.7664 43.4599L38.6593 19.6971Z" fill="#2A2A2A"/>
<path d="M5.10776 11.6212C5.31966 11.4799 5.49172 11.2877 5.60799 11.0627C5.72418 10.8376 5.7807 10.587 5.77213 10.3345V5.21506C5.78872 5.05304 5.76447 4.88948 5.70149 4.739C5.63851 4.58852 5.53874 4.45584 5.41122 4.35278C5.28379 4.24973 5.13238 4.17953 4.97074 4.14847C4.8091 4.1174 4.6422 4.12644 4.48489 4.17476L0.470947 5.21506V21.1618L4.69254 20.0531C5.06037 19.945 5.38485 19.726 5.62063 19.4265C5.8564 19.1271 5.99158 18.7623 6.00744 18.3831C6.00744 17.9041 6.00744 13.2912 6.00744 12.6888C6.00744 12.0865 5.67531 11.6074 5.10776 11.6212ZM2.45021 6.76185L3.83436 6.39228V11.0462L2.45021 11.4022V6.76185ZM4.05584 18.1641L2.42255 18.5885V13.4554L4.06967 13.031L4.05584 18.1641Z" fill="#2A2A2A"/>
<path d="M8.77579 3.10707L7.12866 19.5329L9.06643 19.0265L9.38483 15.8371L11.544 15.1664L11.7793 18.1641L13.6756 17.6713L12.1669 2.17627L8.77579 3.10707ZM9.59239 13.6607L10.4921 4.70859L11.3226 13.209L9.59239 13.6607Z" fill="#2A2A2A"/>
<path d="M19.5038 8.29491C19.7283 8.14646 19.9084 7.94111 20.0252 7.70035C20.1421 7.45959 20.1915 7.19219 20.1682 6.92607V1.43714C20.1917 1.27518 20.1735 1.10998 20.1152 0.956851C20.057 0.803711 19.9606 0.667592 19.835 0.561119C19.7094 0.454636 19.5586 0.381247 19.3966 0.347747C19.2347 0.314239 19.0669 0.321708 18.9086 0.369453L14.9224 1.45082V17.3976L16.8463 16.8912V10.1291L18.4657 9.69114V16.4531L20.3896 15.9467V9.38999C20.4034 8.8288 20.0851 8.26753 19.5038 8.29491ZM18.2304 7.70634L16.8463 8.07592V2.9976L18.2304 2.62802V7.70634Z" fill="#2A2A2A"/>
<path d="M26.2442 1.45038L23.3237 2.21693C22.9496 2.32122 22.6201 2.54342 22.3853 2.84975C22.1504 3.1561 22.0231 3.52985 22.0226 3.91427V8.58198C22.011 8.74178 22.0388 8.90204 22.1039 9.04874C22.169 9.19554 22.2693 9.32436 22.3961 9.42412C22.5229 9.52399 22.6724 9.59167 22.8316 9.62136C22.9909 9.65114 23.155 9.64201 23.3098 9.5949L25.5937 8.99259V12.5516L24.0019 12.9758V11.6071L22.0642 12.1272V14.2078C22.0525 14.3676 22.0804 14.5279 22.1455 14.6747C22.2105 14.8214 22.3108 14.9503 22.4376 15.0501C22.5644 15.1498 22.7139 15.2175 22.8731 15.2472C23.0324 15.277 23.1965 15.2679 23.3514 15.2207L26.2858 14.4542C26.6465 14.3176 26.9564 14.0753 27.174 13.7597C27.3917 13.4442 27.5068 13.0704 27.5038 12.6884V7.80171C27.5179 7.64081 27.4918 7.47889 27.4277 7.33025C27.3637 7.1817 27.2637 7.05095 27.1365 6.94952C27.0093 6.84809 26.8589 6.77921 26.6985 6.74878C26.5381 6.71835 26.3726 6.72739 26.2165 6.77515L24.0019 7.37737V4.09221L25.6352 3.66788V4.94089L27.5176 4.47549V2.44963C27.533 2.29059 27.5079 2.13029 27.4446 1.98329C27.3813 1.8363 27.2819 1.70728 27.1554 1.60797C27.0288 1.50867 26.8791 1.44223 26.72 1.41472C26.5609 1.38719 26.3973 1.39946 26.2442 1.45038Z" fill="#2A2A2A"/>
<path d="M35.5039 64.4163L33.843 64.8543L33.8706 57.3805L31.9052 57.887L31.8499 74.0938L33.8153 73.5737L33.843 66.9349L35.5039 66.4969L35.4762 73.1494L37.4417 72.6292L37.4971 56.436L35.5316 56.9425L35.5039 64.4163Z" fill="#2A2A2A"/>
<path d="M43.5305 54.8486L40.61 55.6288C40.2269 55.7389 39.888 55.9641 39.64 56.2731C39.3921 56.5821 39.2473 56.9597 39.2259 57.3536V70.8091C39.2144 70.9706 39.2427 71.1325 39.3085 71.2809C39.3743 71.4293 39.4756 71.5596 39.6036 71.6605C39.7317 71.7616 39.8826 71.8303 40.0434 71.8608C40.2042 71.8913 40.3702 71.8827 40.527 71.8357L43.5028 71.0554C43.8847 70.9479 44.2233 70.7253 44.4714 70.4187C44.7194 70.1121 44.8647 69.7366 44.887 69.3444V55.9026C44.9073 55.7326 44.8832 55.5601 44.8168 55.4019C44.7504 55.2437 44.644 55.105 44.5078 54.9991C44.3716 54.8934 44.2102 54.8239 44.0391 54.7976C43.868 54.7712 43.6928 54.7888 43.5305 54.8486ZM42.8246 69.1392L41.1637 69.5771V57.5452L42.8246 57.1072V69.1392Z" fill="#2A2A2A"/>
<path d="M50.1754 67.2226L48.5006 67.6606V53.5344L46.5351 54.0545V68.8788C46.5201 69.0413 46.5462 69.205 46.6109 69.355C46.6757 69.5051 46.7771 69.637 46.906 69.7387C47.035 69.8405 47.1875 69.909 47.3499 69.9381C47.5122 69.9672 47.6794 69.9559 47.8362 69.9054L50.8121 69.1252C51.181 69.0146 51.5059 68.7929 51.7415 68.4912C51.9772 68.1894 52.1119 67.8225 52.127 67.4416V52.6035L50.1615 53.11L50.1754 67.2226Z" fill="#2A2A2A"/>
<path d="M58.2166 51.0157L55.2407 51.7824C54.8454 51.875 54.4936 52.0972 54.2422 52.4129C53.9909 52.7285 53.855 53.119 53.8566 53.5207V59.653C53.8442 59.8161 53.8725 59.9798 53.9391 60.1296C54.0056 60.2793 54.1083 60.4107 54.238 60.512C54.3679 60.6134 54.5209 60.6817 54.6837 60.7109C54.8464 60.7402 55.014 60.7294 55.1716 60.6797L57.4831 60.0637V65.2926L55.8221 65.7306V62.993L53.8566 63.5132V67.031C53.8451 67.1926 53.8735 67.3545 53.9392 67.5028C54.005 67.6511 54.1063 67.7814 54.2344 67.8825C54.3623 67.9834 54.5133 68.0521 54.6742 68.0827C54.835 68.1132 55.001 68.1046 55.1576 68.0576L58.1336 67.2774C58.5155 67.1699 58.854 66.9473 59.1022 66.6406C59.3502 66.3339 59.4954 65.9584 59.5176 65.5664V58.8591C59.5296 58.6956 59.5001 58.5318 59.4319 58.3824C59.3637 58.233 59.2588 58.1029 59.127 58.0037C58.995 57.9045 58.8401 57.8394 58.6763 57.8142C58.5126 57.7891 58.345 57.8048 58.1889 57.8598L55.8359 58.4211V53.7534L57.4831 53.3154V56.053L59.4485 55.5329V52.0287C59.4636 51.8732 59.4401 51.7164 59.38 51.572C59.3199 51.4275 59.225 51.2998 59.1035 51.2C58.9821 51.1001 58.8378 51.0311 58.6832 50.9989C58.5286 50.9669 58.3685 50.9727 58.2166 51.0157Z" fill="#2A2A2A"/>
<path d="M61.2195 66.4148L65.8979 65.1829V63.1023L63.185 63.8141L63.2127 58.3251L65.9117 57.6133L65.9255 55.5327L63.2127 56.2445L63.2265 51.7821L65.9394 51.0703V48.9897L61.261 50.208L61.2195 66.4148Z" fill="#2A2A2A"/>
<path d="M59.4623 9.03417L50.1194 11.498V16.9733L50.0225 44.555V50.0303L59.3792 47.5665C61.2315 46.9746 62.8535 45.8309 64.023 44.2921C65.1926 42.7532 65.8524 40.8944 65.9123 38.9702V14.1673C65.9537 10.4167 63.0471 8.08968 59.4623 9.03417ZM60.6664 40.3938C60.6491 40.789 60.5059 41.1685 60.2573 41.4782C60.0087 41.788 59.6674 42.0121 59.2823 42.1185L55.1299 43.2136L55.213 15.6319L59.3653 14.5368C59.5245 14.4887 59.6931 14.4801 59.8564 14.5119C60.0197 14.5438 60.1724 14.615 60.3012 14.7193C60.43 14.8236 60.5307 14.9578 60.5944 15.1097C60.658 15.2618 60.6828 15.427 60.6664 15.5908V40.3938Z" fill="#2A2A2A"/>
<path d="M27.1154 56.0529L27.24 17.4658L22.6723 18.6567L22.0356 18.821L18.2016 19.8339L13.8139 55.7381L9.64776 22.0651L5.17701 23.2422L0.595522 24.4331L0.470947 63.0202L5.67531 61.6651L5.77213 28.0605L9.79999 60.5838L13.3295 59.6667L17.814 58.4894L22.0218 23.9541L21.9111 57.4081L27.1154 56.0529Z" fill="#2A2A2A"/>
</svg>
