<svg width="23" height="23" viewBox="0 0 23 23" fill="none" xmlns="http://www.w3.org/2000/svg">
<g id="quick-response (1) 5">
<g id="Quick">
<path id="Vector" d="M6.15401 14.7383C6.03709 14.7385 5.92447 14.6942 5.83902 14.6144C5.75358 14.5346 5.70173 14.4253 5.69401 14.3086C5.6579 13.8485 5.67147 13.3858 5.73449 12.9286C5.74319 12.8688 5.76358 12.8113 5.79451 12.7594C5.82543 12.7075 5.86628 12.6621 5.91471 12.626C5.96315 12.5899 6.01823 12.5636 6.07682 12.5488C6.1354 12.5339 6.19633 12.5308 6.25613 12.5395C6.31594 12.5482 6.37344 12.5686 6.42536 12.5995C6.47729 12.6304 6.52261 12.6712 6.55875 12.7197C6.59488 12.7681 6.62113 12.8232 6.63598 12.8818C6.65082 12.9404 6.65399 13.0013 6.64529 13.0611C6.592 13.4528 6.58089 13.8492 6.61217 14.2433C6.61617 14.3036 6.60825 14.3641 6.58887 14.4213C6.56948 14.4785 6.53902 14.5314 6.4992 14.5768C6.45939 14.6223 6.41101 14.6594 6.35684 14.6862C6.30266 14.7129 6.24374 14.7288 6.18345 14.7327L6.15401 14.7383Z" fill="black"/>
<path id="Vector_2" d="M20.655 6.87048C20.5886 6.87048 20.5229 6.85609 20.4625 6.8283C20.4022 6.8005 20.3486 6.75997 20.3054 6.70948C19.7769 6.09304 19.148 5.57047 18.4452 5.16388C18.345 5.10023 18.2734 5.00035 18.2451 4.88511C18.2169 4.76988 18.2343 4.64819 18.2937 4.54547C18.3531 4.44275 18.4498 4.36695 18.5638 4.33389C18.6777 4.30083 18.8 4.31308 18.9052 4.36808C19.698 4.82596 20.4072 5.41517 21.0028 6.11056C21.0602 6.1773 21.0972 6.25911 21.1095 6.34628C21.1218 6.43344 21.1088 6.5223 21.0721 6.60231C21.0354 6.68232 20.9765 6.75011 20.9024 6.79765C20.8283 6.84518 20.743 6.87046 20.655 6.87048Z" fill="black"/>
<path id="Vector_3" d="M12.3189 20.387C11.3858 20.4081 10.4589 20.2298 9.60028 19.8639C8.74163 19.4981 7.97099 18.9531 7.33987 18.2655C6.80966 17.6894 6.39546 17.0166 6.11995 16.2838C6.09613 16.2267 6.08407 16.1654 6.08448 16.1035C6.0849 16.0417 6.09779 15.9805 6.12238 15.9238C6.14697 15.867 6.18276 15.8158 6.2276 15.7732C6.27244 15.7306 6.32542 15.6975 6.38336 15.6758C6.4413 15.6541 6.50302 15.6444 6.56481 15.6471C6.62661 15.6498 6.68722 15.665 6.74302 15.6917C6.79882 15.7184 6.84867 15.7561 6.88957 15.8025C6.93047 15.8489 6.96159 15.9031 6.98107 15.9618C7.21598 16.5871 7.56927 17.1612 8.02159 17.6528C8.56766 18.2434 9.23344 18.7107 9.97448 19.0236C10.7155 19.3364 11.5148 19.4876 12.3189 19.467C14.2095 19.4061 16.0215 18.696 17.45 17.4561C18.8786 16.2163 19.8366 14.5222 20.1628 12.659C20.3128 11.8242 20.2783 10.9667 20.0619 10.1467C19.8454 9.32661 19.4522 8.56382 18.9098 7.91179C18.3627 7.28978 17.6859 6.79526 16.9271 6.46305C16.1683 6.13084 15.3458 5.96902 14.5177 5.98899C12.6307 6.01977 10.8176 6.72764 9.40895 7.98355C8.361 8.88061 7.55498 10.0264 7.06479 11.3158C7.02233 11.4302 6.93616 11.5231 6.82522 11.574C6.71428 11.6249 6.58766 11.6296 6.47323 11.5872C6.35879 11.5447 6.26591 11.4586 6.21501 11.3476C6.16412 11.2367 6.15937 11.1101 6.20183 10.9956C6.7462 9.56112 7.64208 8.28628 8.80727 7.28803C10.3828 5.8871 12.4096 5.09949 14.5177 5.06899C15.4782 5.04773 16.4317 5.23729 17.311 5.62434C18.1903 6.01139 18.9741 6.58651 19.6072 7.30919C20.2375 8.06232 20.695 8.94454 20.9475 9.89367C21.1999 10.8428 21.2411 11.8357 21.0681 12.8025C20.7026 14.8792 19.6333 16.7668 18.04 18.148C16.4467 19.5292 14.4265 20.3198 12.3189 20.387Z" fill="black"/>
<path id="Vector_4" d="M12.5313 19.0044C12.4093 19.0044 12.2923 18.956 12.206 18.8697C12.1198 18.7834 12.0713 18.6664 12.0713 18.5444C12.0713 18.4224 12.1198 18.3054 12.206 18.2192C12.2923 18.1329 12.4093 18.0844 12.5313 18.0844C14.0381 18.0355 15.482 17.4691 16.6202 16.4805C17.7584 15.4919 18.5214 14.1415 18.7808 12.6564C18.8023 12.5385 18.8689 12.4337 18.9665 12.3642C19.0641 12.2946 19.1849 12.2659 19.3034 12.2842C19.4218 12.3024 19.5284 12.3661 19.6006 12.4617C19.6728 12.5574 19.7048 12.6774 19.6898 12.7963C19.3915 14.496 18.517 16.0412 17.2132 17.1718C15.9095 18.3025 14.2561 18.9496 12.5313 19.0044Z" fill="black"/>
<path id="Vector_5" d="M13.3061 13.9296C13.1479 13.9314 12.9912 13.8988 12.8468 13.8341C12.7024 13.7695 12.5738 13.6743 12.4698 13.5551C12.3666 13.4326 12.2912 13.289 12.2487 13.1345C12.2063 12.98 12.1979 12.8181 12.2241 12.66C12.2758 12.3483 12.4349 12.0646 12.6739 11.8579C12.9128 11.6512 13.2165 11.5346 13.5324 11.5284C13.6907 11.5267 13.8475 11.5592 13.992 11.6239C14.1365 11.6885 14.2653 11.7837 14.3696 11.9028C14.4726 12.0255 14.5478 12.1691 14.5902 12.3236C14.6326 12.4781 14.6412 12.6399 14.6152 12.798C14.5635 13.1098 14.4042 13.3937 14.1651 13.6004C13.926 13.8071 13.6221 13.9235 13.3061 13.9296ZM13.5324 12.4484C13.4368 12.4552 13.3461 12.4931 13.2741 12.5562C13.202 12.6193 13.1525 12.7042 13.1331 12.798C13.1273 12.8253 13.1274 12.8535 13.1333 12.8807C13.1391 12.908 13.1507 12.9337 13.1671 12.9562C13.1853 12.9743 13.207 12.9884 13.231 12.9976C13.2549 13.0068 13.2805 13.0109 13.3061 13.0096C13.4016 13.0029 13.4924 12.9651 13.5645 12.902C13.6366 12.8389 13.6861 12.7539 13.7053 12.66C13.7114 12.6328 13.7117 12.6046 13.7059 12.5773C13.7002 12.55 13.6887 12.5242 13.6722 12.5017C13.6539 12.4835 13.6321 12.4694 13.608 12.4602C13.5839 12.451 13.5581 12.447 13.5324 12.4484Z" fill="black"/>
<path id="Vector_6" d="M14.0246 12.6646C13.9308 12.6647 13.8391 12.6361 13.762 12.5827C13.6848 12.5292 13.6259 12.4535 13.5931 12.3655C13.5602 12.2776 13.555 12.1818 13.5782 12.0908C13.6014 11.9999 13.6519 11.9182 13.7229 11.8568L16.8619 9.13361C16.9076 9.09404 16.9606 9.06386 17.0179 9.04478C17.0753 9.0257 17.1358 9.0181 17.1961 9.02241C17.2563 9.02673 17.3152 9.04287 17.3692 9.06992C17.4232 9.09697 17.4714 9.1344 17.511 9.18007C17.5505 9.22574 17.5807 9.27875 17.5998 9.33609C17.6189 9.39342 17.6265 9.45395 17.6222 9.51422C17.6178 9.57449 17.6017 9.63332 17.5746 9.68735C17.5476 9.74139 17.5102 9.78956 17.4645 9.82913L14.3255 12.5523C14.2419 12.6247 14.1351 12.6645 14.0246 12.6646Z" fill="black"/>
<path id="Vector_7" d="M9.10817 8.10513C9.04143 8.10504 8.9755 8.09043 8.91498 8.06231C8.85445 8.03419 8.80076 7.99323 8.75765 7.94229L8.05937 7.11889C8.01872 7.07302 7.98764 7.0195 7.96796 6.96146C7.94828 6.90342 7.9404 6.84203 7.94478 6.7809C7.94916 6.71977 7.96571 6.66013 7.99346 6.60548C8.0212 6.55084 8.05959 6.50229 8.10637 6.46269C8.15314 6.42309 8.20736 6.39323 8.26583 6.37488C8.3243 6.35652 8.38585 6.35003 8.44687 6.3558C8.50788 6.36156 8.56713 6.37946 8.62113 6.40844C8.67513 6.43743 8.7228 6.47691 8.76133 6.52457L9.45961 7.35257C9.51489 7.41964 9.55004 7.501 9.56098 7.58723C9.57193 7.67346 9.55821 7.76102 9.52143 7.83978C9.48466 7.91853 9.42632 7.98526 9.35318 8.03222C9.28004 8.07918 9.19509 8.10446 9.10817 8.10513Z" fill="black"/>
<path id="Vector_8" d="M9.80085 16.5755H2.30009C2.17809 16.5755 2.06109 16.5271 1.97482 16.4408C1.88855 16.3545 1.84009 16.2375 1.84009 16.1155C1.84009 15.9935 1.88855 15.8765 1.97482 15.7902C2.06109 15.704 2.17809 15.6555 2.30009 15.6555H9.80085C9.92285 15.6555 10.0399 15.704 10.1261 15.7902C10.2124 15.8765 10.2608 15.9935 10.2608 16.1155C10.2608 16.2375 10.2124 16.3545 10.1261 16.4408C10.0399 16.5271 9.92285 16.5755 9.80085 16.5755Z" fill="black"/>
<path id="Vector_9" d="M8.76023 13.4566H4.31571C4.19371 13.4566 4.07671 13.4082 3.99044 13.3219C3.90418 13.2356 3.85571 13.1186 3.85571 12.9966C3.85571 12.8746 3.90418 12.7576 3.99044 12.6714C4.07671 12.5851 4.19371 12.5366 4.31571 12.5366H8.76023C8.88223 12.5366 8.99923 12.5851 9.0855 12.6714C9.17177 12.7576 9.22023 12.8746 9.22023 12.9966C9.22023 13.1186 9.17177 13.2356 9.0855 13.3219C8.99923 13.4082 8.88223 13.4566 8.76023 13.4566Z" fill="black"/>
<path id="Vector_10" d="M9.53029 5.13899H5.32865C5.20665 5.13899 5.08965 5.09053 5.00338 5.00426C4.91712 4.918 4.86865 4.80099 4.86865 4.67899C4.86865 4.55699 4.91712 4.43999 5.00338 4.35373C5.08965 4.26746 5.20665 4.21899 5.32865 4.21899H9.53029C9.65229 4.21899 9.76929 4.26746 9.85556 4.35373C9.94183 4.43999 9.99029 4.55699 9.99029 4.67899C9.99029 4.80099 9.94183 4.918 9.85556 5.00426C9.76929 5.09053 9.65229 5.13899 9.53029 5.13899Z" fill="black"/>
<path id="Vector_11" d="M6.04991 19.3724H4.31571C4.19371 19.3724 4.07671 19.3239 3.99044 19.2377C3.90418 19.1514 3.85571 19.0344 3.85571 18.9124C3.85571 18.7904 3.90418 18.6734 3.99044 18.5871C4.07671 18.5009 4.19371 18.4524 4.31571 18.4524H6.04991C6.17191 18.4524 6.28892 18.5009 6.37518 18.5871C6.46145 18.6734 6.50991 18.7904 6.50991 18.9124C6.50991 19.0344 6.46145 19.1514 6.37518 19.2377C6.28892 19.3239 6.17191 19.3724 6.04991 19.3724Z" fill="black"/>
<path id="Vector_12" d="M4.79973 11.0306H2.30009C2.17809 11.0306 2.06109 10.9821 1.97482 10.8959C1.88855 10.8096 1.84009 10.6926 1.84009 10.5706C1.84009 10.4486 1.88855 10.3316 1.97482 10.2453C2.06109 10.1591 2.17809 10.1106 2.30009 10.1106H4.79973C4.92173 10.1106 5.03873 10.1591 5.125 10.2453C5.21126 10.3316 5.25973 10.4486 5.25973 10.5706C5.25973 10.6926 5.21126 10.8096 5.125 10.8959C5.03873 10.9821 4.92173 11.0306 4.79973 11.0306Z" fill="black"/>
<path id="Vector_13" d="M15.7321 4.76825H13.6769C13.5326 4.77115 13.3895 4.74204 13.2579 4.68301C13.1263 4.62399 13.0093 4.53652 12.9156 4.4269C12.8218 4.31727 12.7535 4.18823 12.7155 4.04904C12.6776 3.90985 12.671 3.76399 12.6961 3.62194C12.7421 3.34428 12.8839 3.09148 13.0968 2.90745C13.3097 2.72343 13.5804 2.61979 13.8618 2.61454H15.9253C16.068 2.61337 16.2093 2.64301 16.3395 2.70144C16.4697 2.75987 16.5858 2.84571 16.6797 2.9531C16.7729 3.06372 16.841 3.19318 16.8795 3.33261C16.9179 3.47203 16.9257 3.61812 16.9024 3.76085C16.8559 4.03913 16.7134 4.29231 16.4996 4.47637C16.2858 4.66043 16.0142 4.76371 15.7321 4.76825ZM13.8655 3.53453C13.8041 3.53985 13.7461 3.5647 13.6999 3.60543C13.6537 3.64617 13.6217 3.70064 13.6088 3.76085C13.6088 3.76085 13.5885 3.84826 13.6769 3.84826H15.7321C15.7936 3.84323 15.8518 3.81848 15.898 3.7777C15.9443 3.73692 15.9761 3.68228 15.9888 3.62194C15.9888 3.62194 16.0035 3.53453 15.9217 3.53453H13.8655Z" fill="black"/>
</g>
</g>
</svg>
