<svg width="284" height="222" viewBox="0 0 284 222" fill="none" xmlns="http://www.w3.org/2000/svg">
<path d="M257.566 104.52C259.94 106.032 262.314 107.52 264.686 108.983C266.893 110.344 269.071 111.668 271.217 112.953C271.851 113.307 272.452 113.665 273.025 114.032L273.52 114.325C273.919 114.561 274.282 114.826 274.611 115.117C288.026 124.944 282.333 138.748 278.982 146.868C278.683 147.592 278.403 148.272 278.253 148.653C274.491 158.191 266.204 170.165 256.697 180.429C250.067 187.587 242.805 193.957 236.024 198.144C228.792 202.61 221.951 204.644 216.643 202.719C215.362 202.254 214.186 201.572 213.129 200.653C210.121 198.038 207.106 195.431 204.065 192.817C201.449 190.569 199.04 188.508 196.852 186.647C194.63 188.892 192.64 191.024 190.706 193.198C187.961 196.282 185.326 199.447 182.309 203.125L168.338 220.441C167.467 221.528 165.858 221.733 164.746 220.898C163.634 220.064 163.439 218.506 164.31 217.419L178.283 200.104L178.299 200.088C181.382 196.328 184.069 193.1 186.846 189.981C189.658 186.821 192.563 183.766 196.052 180.384C200.563 176.012 206.483 170.146 212.797 163.463C219.119 156.771 225.822 149.276 231.876 141.673C241.03 130.177 248.76 118.391 251.523 108.709C253.94 100.237 252.273 93.4669 243.671 90.3349C242.961 92.3206 241.846 94.3272 240.265 96.2845L229.526 109.577C228.649 110.662 227.038 110.862 225.928 110.022C224.817 109.183 224.627 107.622 225.504 106.537L236.243 93.2442C239.907 88.7096 240.228 83.9829 238.577 80.5677C237.963 79.2973 237.081 78.2107 236.007 77.3918C234.952 76.5888 233.702 76.0395 232.329 75.8255C228.745 75.2668 224.262 77.0284 219.988 82.4874L212.569 91.962C211.712 93.0589 210.107 93.283 208.984 92.4624C207.862 91.6419 207.647 90.0874 208.504 88.9904L215.922 79.5158C216.627 78.6154 217.344 77.7929 218.069 77.0442C218.139 76.9233 218.22 76.8064 218.312 76.6948C221.925 72.3655 222.531 69.1172 221.842 66.6946C221.152 64.2701 219.121 62.4501 217.513 61.2373C215.036 59.369 212.034 58.4671 208.885 59.197C206.352 59.7843 203.65 61.4117 200.928 64.4015C200.578 64.8346 200.208 65.2664 199.817 65.6962L199.791 65.7287L191.326 76.401C190.464 77.4963 188.856 77.7149 187.735 76.8893C186.614 76.0636 186.405 74.5062 187.267 73.4108L195.75 62.7135L195.769 62.6884C196.211 62.1416 196.655 61.624 197.102 61.1339C200.869 56.3199 201.407 51.4753 199.974 47.8255C199.36 46.2626 198.397 44.9272 197.188 43.9234C195.998 42.9344 194.55 42.253 192.948 41.9812C189.074 41.3241 184.261 43.1129 179.78 48.7328L159.349 74.3584C158.483 75.4471 156.877 75.6574 155.764 74.8281C154.65 73.9989 154.449 72.444 155.315 71.3553L173.148 48.9892C166.201 43.3349 161.471 44.7462 157.405 48.8518C154.836 51.4453 152.345 55.1392 149.784 58.9379C148.991 60.1133 148.191 61.2999 147.004 62.9916C128.883 88.8198 129.198 90.4343 135.449 122.446L136.462 127.631C139.697 144.179 140.898 150.322 137.785 156.326C136.777 158.27 135.342 160.684 133.416 163.587C131.678 166.204 129.56 169.197 127.019 172.57C126.185 173.685 124.583 173.942 123.442 173.144C122.301 172.346 122.052 170.795 122.886 169.68C125.411 166.328 127.471 163.421 129.122 160.935C130.94 158.195 132.282 155.939 133.214 154.143C135.101 150.504 134.741 146.094 132.957 136.474C127.445 132.569 121.779 128.671 115.892 124.74C109.578 120.524 103.085 116.322 96.3316 112.085C90.7188 108.564 88.3031 103.564 87.7642 97.8539C87.2605 92.5162 88.4624 86.6062 90.1708 80.7778L90.228 80.7932C91.2765 77.0545 93.0624 72.8977 95.3987 68.5561C99.0166 61.8334 103.923 54.5852 109.339 47.8328C114.773 41.0573 120.738 34.7494 126.451 29.9327C136.287 21.6415 145.69 17.6806 151.404 22.581C156.377 26.8457 161.192 30.9722 164.932 34.1571C168.883 37.5205 172.874 40.8982 176.945 44.3099C182.494 38.1064 188.666 36.1982 193.881 37.0828C196.376 37.506 198.644 38.5792 200.525 40.1415C202.388 41.6889 203.854 43.7016 204.765 46.0209C205.819 48.7049 206.147 51.8093 205.496 55.0737C206.248 54.7813 206.997 54.5507 207.741 54.3782C212.555 53.2624 217.04 54.5632 220.669 57.3004C222.883 58.9709 225.701 61.5466 226.78 65.341C227.291 67.1345 227.403 69.151 226.864 71.396C229.06 70.7407 231.203 70.6178 233.199 70.9289C235.426 71.2759 237.457 72.1703 239.176 73.4792C240.873 74.7723 242.255 76.4661 243.204 78.4294C244.206 80.5018 244.732 82.8764 244.639 85.3911C244.664 85.3985 244.689 85.406 244.713 85.4141C255.088 88.8397 258.574 95.729 257.566 104.52ZM88.1756 9.31419C89.6955 9.38232 91.1629 9.06556 92.444 8.4317C93.7134 7.80357 94.7999 6.8625 95.5708 5.67577L98.8014 0.702685L98.5217 6.54648C98.4533 7.97598 98.7467 9.41778 99.4558 10.6757C100.092 11.8041 101.066 12.7937 102.416 13.5033L108.468 16.6839L101.567 16.4162C99.9552 16.3537 98.5358 16.8149 97.2963 17.5749C95.9759 18.3843 94.8417 19.5299 93.8841 20.7617L91.007 24.4628L91.0117 19.8505C91.0132 18.2982 90.6472 16.7196 89.9463 15.3314C89.2983 14.0481 88.3668 12.929 87.1803 12.1522L82.4541 9.05781L88.1756 9.31419ZM93.8678 11.1942C93.153 11.548 92.3972 11.8303 91.6127 12.035C92.0721 12.6328 92.4731 13.2756 92.8135 13.9496C93.1995 14.7142 93.5081 15.5194 93.7363 16.3444C94.3177 15.835 94.9388 15.368 95.6018 14.9616C96.3092 14.528 97.061 14.1631 97.8588 13.8874C97.3885 13.3557 96.9866 12.7867 96.6504 12.1904C96.2612 11.4999 95.9604 10.7745 95.7436 10.03C95.1598 10.4762 94.5314 10.8659 93.8678 11.1942ZM5.35187 57.8053C5.61989 57.8084 5.95727 57.7161 6.30338 57.5394C6.64484 57.3651 6.96861 57.1158 7.21748 56.8015L10.1897 53.0468L10.0828 57.7551C10.0757 58.0638 10.1759 58.4034 10.3648 58.7202C10.5508 59.0323 10.8154 59.3051 11.1409 59.488L16.2285 62.3463L10.323 62.3847C9.99999 62.3867 9.65521 62.5023 9.32204 62.6821C8.85388 62.9348 8.43381 63.2988 8.1113 63.6759L5.44215 66.797L5.28258 62.7713C5.26474 62.3199 5.13875 61.8268 4.93686 61.3964C4.77157 61.044 4.57398 60.7572 4.37202 60.616L0.268501 57.7461L5.35187 57.8053ZM39.9899 98.1844C41.5099 98.2525 42.9772 97.9357 44.2584 97.3019C45.5278 96.6738 46.6143 95.7327 47.3851 94.546L50.6158 89.5728L50.3361 95.4167C50.2677 96.8462 50.561 98.288 51.2701 99.5459C51.9063 100.674 52.8799 101.664 54.2303 102.373L60.2823 105.554L53.381 105.286C51.7696 105.224 50.3501 105.685 49.1106 106.445C47.7903 107.255 46.6561 108.4 45.6985 109.632L42.8214 113.333L42.826 108.721C42.8276 107.168 42.4615 105.59 41.7606 104.202C41.1126 102.918 40.1811 101.799 38.9947 101.022L34.2684 97.9279L39.9899 98.1844ZM45.6822 100.064C44.9673 100.418 44.2115 100.7 43.4271 100.905C43.8865 101.503 44.2875 102.146 44.6278 102.82C45.0139 103.584 45.3225 104.39 45.5506 105.215C46.132 104.705 46.7532 104.238 47.4162 103.832C48.1236 103.398 48.8753 103.033 49.6732 102.758C49.2028 102.226 48.801 101.657 48.4648 101.061C48.0756 100.37 47.7748 99.6447 47.558 98.9002C46.9742 99.3464 46.3457 99.7361 45.6822 100.064ZM70.3136 135.512C69.4724 135.264 69.0047 134.399 69.2691 133.581C69.5334 132.763 70.4298 132.3 71.271 132.549L109.466 143.819C110.307 144.067 110.775 144.932 110.511 145.75C110.246 146.568 109.35 147.031 108.509 146.782L70.3136 135.512ZM28.4479 67.5563C27.6067 67.3081 27.139 66.4434 27.4033 65.625C27.6677 64.8066 28.564 64.3444 29.4052 64.5926L67.6003 75.8626C68.4415 76.1108 68.9092 76.9755 68.6448 77.7939C68.3805 78.6123 67.4841 79.0745 66.6429 78.8263L28.4479 67.5563ZM30.9474 23.5992C30.1062 23.351 29.6384 22.4861 29.9028 21.6678C30.1671 20.8494 31.0635 20.3872 31.9047 20.6354L94.3762 39.0685C95.2173 39.3167 95.685 40.1815 95.4207 40.9998C95.1563 41.8182 94.26 42.2805 93.4188 42.0323L30.9474 23.5992ZM7.52513 39.0354C6.68394 38.7872 6.21626 37.9224 6.48061 37.104C6.74496 36.2857 7.64131 35.8234 8.4825 36.0716L70.9539 54.5048C71.7951 54.753 72.2628 55.6177 71.9985 56.4361C71.7341 57.2544 70.8378 57.7167 69.9966 57.4685L7.52513 39.0354ZM163.965 39.9613C163.159 39.2772 162.353 38.5911 161.545 37.9034C156.259 33.403 152.062 29.8081 147.997 26.3217C144.654 23.4551 137.643 27.0456 129.788 33.6671C124.322 38.2754 118.597 44.3331 113.367 50.8545C108.118 57.3992 103.386 64.3799 99.9264 70.8087C97.6988 74.9482 95.9774 78.8103 94.9888 82.0794L95.0812 82.1044C94.7902 83.0972 94.5153 84.0907 94.2633 85.0801C93.7445 88.1217 94.1468 90.3688 95.7484 91.4344L100.862 94.8358C106.871 98.8318 112.634 102.664 116.769 105.429C118.195 106.383 120.712 108.075 124.925 110.914C126.206 111.777 127.398 112.581 128.49 113.32C123.966 88.795 125.59 84.7471 142.785 60.2391C143.463 59.2719 144.488 57.753 145.502 56.2486C148.173 52.2873 150.771 48.4351 153.731 45.4458C156.837 42.3106 160.157 40.1977 163.965 39.9613ZM129.824 120.311C126.607 118.118 124.056 116.388 121.993 114.998C120.862 114.236 117.944 112.282 113.831 109.532C107.756 105.47 102.952 102.275 97.9438 98.9446L92.8299 95.5432C92.8092 95.5295 92.7896 95.5148 92.7692 95.5009C92.776 96.1323 92.8067 96.7534 92.8641 97.3625C93.2662 101.622 95.0342 105.331 99.1283 107.9C105.958 112.184 112.491 116.411 118.81 120.631C123.126 123.512 127.377 126.415 131.589 129.356L131.44 128.594L130.428 123.408C130.22 122.345 130.019 121.313 129.824 120.311ZM200.463 183.09C202.967 185.217 205.296 187.206 207.471 189.076C210.389 191.584 213.421 194.207 216.568 196.942C217.145 197.444 217.779 197.814 218.462 198.061C222.103 199.382 227.402 197.613 233.313 193.963C239.676 190.034 246.564 183.977 252.905 177.131C262.023 167.286 269.932 155.902 273.468 146.935C273.763 146.189 273.985 145.65 274.222 145.076C276.28 140.089 279.398 132.531 276.725 125.777C276.093 128.947 274.787 132.547 272.952 136.393C269.291 144.07 263.556 152.914 257.095 161.118C250.624 169.333 243.381 176.961 236.713 182.195C228.003 189.033 219.978 191.874 214.997 187.292C213.014 185.467 211.045 183.674 209.093 181.913C207.707 180.663 206.411 179.501 205.205 178.427C203.514 180.109 201.923 181.67 200.463 183.09ZM208.777 174.843C210.12 176.037 211.394 177.177 212.597 178.262C214.534 180.01 216.513 181.813 218.533 183.671C221.22 186.143 226.881 183.566 233.514 178.359C239.841 173.392 246.783 166.065 253.036 158.127C259.297 150.178 264.824 141.671 268.314 134.353C271.77 127.108 273.309 121.297 271.459 119.096C270.941 118.702 270.385 118.319 269.79 117.945C269.467 117.752 269.145 117.561 268.825 117.37C268.761 117.333 268.699 117.296 268.633 117.259C266.308 115.869 264.069 114.506 261.909 113.174C260.074 112.043 258.272 110.918 256.5 109.8C256.482 109.866 256.464 109.932 256.445 109.999C253.483 120.379 245.421 132.732 235.91 144.676C229.713 152.46 222.927 160.051 216.558 166.793C213.867 169.642 211.247 172.342 208.777 174.843Z" fill="#D2D2D2" fill-opacity="0.17"/>
</svg>
