<svg width="37" height="37" viewBox="0 0 37 37" fill="none" xmlns="http://www.w3.org/2000/svg">
<path d="M19.6562 16.9584C19.6562 16.3198 19.1386 15.8021 18.5 15.8021C17.8614 15.8021 17.3438 16.3198 17.3438 16.9584V26.2084C17.3438 26.8469 17.8614 27.3646 18.5 27.3646C19.1386 27.3646 19.6562 26.8469 19.6562 26.2084V16.9584Z" fill="#F66801"/>
<path fill-rule="evenodd" clip-rule="evenodd" d="M18.4999 1.92712C9.34695 1.92712 1.927 9.34707 1.927 18.5C1.927 27.6531 9.34695 35.073 18.4999 35.073C27.6529 35.073 35.0728 27.6531 35.0728 18.5C35.0728 9.34707 27.6529 1.92712 18.4999 1.92712ZM4.2395 18.5C4.2395 10.6242 10.6241 4.23962 18.4999 4.23962C26.3757 4.23962 32.7603 10.6242 32.7603 18.5C32.7603 26.3758 26.3757 32.7605 18.4999 32.7605C10.6241 32.7605 4.2395 26.3758 4.2395 18.5Z" fill="#F66801"/>
<path d="M20.0416 12.3334C20.0416 13.1848 19.3514 13.8751 18.4999 13.8751C17.6485 13.8751 16.9583 13.1848 16.9583 12.3334C16.9583 11.482 17.6485 10.7917 18.4999 10.7917C19.3514 10.7917 20.0416 11.482 20.0416 12.3334Z" fill="#F66801"/>
</svg>
