<svg width="26" height="26" viewBox="0 0 26 26" fill="none" xmlns="http://www.w3.org/2000/svg">
<g id="phone 1">
<g id="_x32_7-Phone">
<path id="Vector" d="M21.1849 17.3377L18.553 15.4989C18.2089 15.2589 17.8066 15.1323 17.3894 15.1323C16.7261 15.1323 16.1034 15.4576 15.7242 16.0019L15.1132 16.8775C14.0892 16.1908 12.9467 15.2319 11.8574 14.1429C10.7684 13.0538 9.80973 11.9113 9.1232 10.8873L9.99838 10.2763C10.4445 9.9657 10.7424 9.50034 10.8371 8.96634C10.9315 8.43274 10.8125 7.89359 10.5014 7.44727L8.66299 4.81537C8.27856 4.2655 7.65828 3.93701 7.00348 3.93701C6.77655 3.93701 6.55398 3.97708 6.34213 4.05524C6.10151 4.1441 5.87736 4.2532 5.65757 4.39127L5.29417 4.64716C5.20332 4.71777 5.11882 4.79514 5.03788 4.87607C4.59454 5.31921 4.27993 5.88019 4.1024 6.54352C3.34485 9.3833 5.22157 13.6775 8.77229 17.2282C11.7541 20.21 15.3364 22.0623 18.1208 22.0627C18.5977 22.0627 19.0474 22.0072 19.4572 21.8977C20.1205 21.7204 20.6815 21.4058 21.125 20.9622C21.2056 20.8817 21.2825 20.7972 21.365 20.6905L21.6211 20.3251C21.7463 20.1251 21.8552 19.901 21.9453 19.6586C22.2549 18.8215 21.9423 17.8669 21.1849 17.3377Z" fill="#FF7A00"/>
</g>
</g>
</svg>
