<svg width="20" height="20" viewBox="0 0 20 20" fill="none" xmlns="http://www.w3.org/2000/svg">
<g clip-path="url(#clip0_72_2320)">
<path d="M19.4399 2.60315H3.19466C2.93302 2.60315 2.72168 2.81449 2.72168 3.07613V19.5272C2.72168 19.7887 2.93302 20 3.19466 20H15.7713C16.0328 20 16.2441 19.7887 16.2441 19.5272V15.3275H19.4399C19.7014 15.3275 19.9127 15.1162 19.9127 14.8547V3.07613C19.9127 2.81449 19.7014 2.60315 19.4399 2.60315ZM18.967 14.3818H15.7713C15.5099 14.3818 15.2986 14.5931 15.2986 14.8547V19.0543H3.66742V3.54889H18.967V14.3818Z" fill="black"/>
<path d="M1.58402 3.46552C1.79834 3.46552 1.9734 3.29024 1.9734 3.07614C1.9734 2.86183 1.79834 2.68677 1.58402 2.68677H0.507782C0.29368 2.68677 0.118408 2.86183 0.118408 3.07614C0.118408 3.29024 0.29368 3.46552 0.507782 3.46552H0.652498V19.1379H0.507782C0.29368 19.1379 0.118408 19.3129 0.118408 19.5272C0.118408 19.7413 0.29368 19.9166 0.507782 19.9166H1.58402C1.79834 19.9166 1.9734 19.7413 1.9734 19.5272C1.9734 19.3129 1.79834 19.1379 1.58402 19.1379H1.42827V3.46552H1.58402Z" fill="black"/>
<path d="M3.19452 1.8552C3.40862 1.8552 3.58389 1.67993 3.58389 1.46562V1.30987H18.9891V1.46562C18.9891 1.67993 19.1644 1.8552 19.3785 1.8552C19.5928 1.8552 19.7678 1.67993 19.7678 1.46562V0.389374C19.7678 0.175271 19.5928 0 19.3785 0C19.1644 0 18.9891 0.175271 18.9891 0.389374V0.534089H3.58389V0.389374C3.58389 0.175271 3.40862 0 3.19452 0C2.9802 0 2.80493 0.175271 2.80493 0.389374V1.46562C2.80493 1.67993 2.97744 1.8552 3.19452 1.8552Z" fill="black"/>
<path d="M7.88631 13.5976V10.6161C8.1785 10.249 8.47599 10.0599 8.76521 10.0599C8.946 10.0599 9.06843 10.11 9.13803 10.2129C9.19363 10.2935 9.2575 10.4715 9.2575 10.8497V13.5976H10.2503V10.6161C10.5453 10.2462 10.8428 10.0599 11.135 10.0599C11.3128 10.0599 11.4325 10.11 11.5021 10.2129C11.5577 10.2935 11.6215 10.4715 11.6215 10.8497V13.5976H12.6174V10.8219C12.6174 9.47849 11.8692 9.19775 11.2379 9.19775C11.0376 9.19775 10.8345 9.24486 10.6287 9.33674C10.4562 9.41462 10.2644 9.57036 10.0447 9.80951C9.83042 9.40337 9.43829 9.19775 8.87364 9.19775C8.51779 9.19775 8.18677 9.33122 7.88355 9.59816V9.28942H6.88794V13.6003H7.88631V13.5976Z" fill="black"/>
<path d="M14.2862 8.02114H13.2099C13.271 7.96278 13.3572 7.88491 13.4796 7.782C13.7911 7.52333 13.9942 7.32302 14.1026 7.17279C14.2193 7.00876 14.2806 6.8197 14.2806 6.6056C14.2806 6.36624 14.1972 6.16339 14.0358 6.00191C13.8745 5.84064 13.6464 5.76001 13.3572 5.76001C13.0875 5.76001 12.8621 5.83788 12.6926 5.99363C12.5228 6.14938 12.4254 6.35797 12.4032 6.61387L12.3921 6.76411H13.0068L13.0151 6.63615C13.0234 6.51648 13.0597 6.43033 13.1208 6.37473C13.1849 6.31914 13.2598 6.29113 13.3517 6.29113C13.4601 6.29113 13.538 6.31617 13.5908 6.369C13.6436 6.42205 13.6687 6.49696 13.6687 6.59711C13.6687 6.7223 13.6326 6.82798 13.5575 6.92813C13.4713 7.03932 13.3043 7.19783 13.0597 7.39262C12.7925 7.60672 12.6117 7.78475 12.509 7.93775C12.3976 8.09901 12.342 8.27428 12.342 8.45507V8.59406H14.2862V8.02114Z" fill="black"/>
</g>
<defs>
<clipPath id="clip0_72_2320">
<rect width="20" height="20" fill="white"/>
</clipPath>
</defs>
</svg>
