<svg width="16" height="16" viewBox="0 0 16 16" fill="none" xmlns="http://www.w3.org/2000/svg">
<path d="M14.9556 6.87512L11.8411 9.91112L12.5766 14.1991C12.6086 14.3866 12.5316 14.5761 12.3776 14.6881C12.2906 14.7516 12.1871 14.7836 12.0836 14.7836C12.0041 14.7836 11.9241 14.7646 11.8511 14.7261L8.00008 12.7016L4.14958 14.7256C3.98158 14.8146 3.77708 14.8001 3.62308 14.6876C3.46908 14.5756 3.39208 14.3861 3.42408 14.1986L4.15958 9.91061L1.04458 6.87512C0.908578 6.74212 0.859078 6.54312 0.918078 6.36262C0.977078 6.18212 1.13358 6.04962 1.32208 6.02212L5.62658 5.39712L7.55158 1.49612C7.72008 1.15462 8.28008 1.15462 8.44858 1.49612L10.3736 5.39712L14.6781 6.02212C14.8666 6.04962 15.0231 6.18162 15.0821 6.36262C15.1411 6.54362 15.0916 6.74162 14.9556 6.87512Z" fill="#F66801"/>
</svg>
