<svg width="23" height="23" viewBox="0 0 23 23" fill="none" xmlns="http://www.w3.org/2000/svg">
<path d="M6.15401 14.7384C6.03709 14.7386 5.92447 14.6944 5.83902 14.6146C5.75358 14.5348 5.70173 14.4254 5.69401 14.3087C5.6579 13.8486 5.67147 13.386 5.73449 12.9287C5.74319 12.8689 5.76358 12.8114 5.79451 12.7595C5.82543 12.7076 5.86628 12.6623 5.91471 12.6261C5.96315 12.59 6.01823 12.5637 6.07682 12.5489C6.1354 12.534 6.19633 12.5309 6.25613 12.5396C6.31594 12.5483 6.37344 12.5687 6.42536 12.5996C6.47729 12.6305 6.52261 12.6714 6.55875 12.7198C6.59488 12.7682 6.62113 12.8233 6.63598 12.8819C6.65082 12.9405 6.65399 13.0014 6.64529 13.0612C6.592 13.453 6.58089 13.8493 6.61217 14.2434C6.61617 14.3037 6.60825 14.3642 6.58887 14.4214C6.56948 14.4787 6.53902 14.5315 6.4992 14.577C6.45939 14.6224 6.41101 14.6596 6.35684 14.6863C6.30266 14.7131 6.24374 14.7289 6.18345 14.7329L6.15401 14.7384Z" fill="black"/>
<path d="M20.655 6.8706C20.5886 6.8706 20.5229 6.85621 20.4625 6.82842C20.4022 6.80063 20.3486 6.76009 20.3054 6.7096C19.7769 6.09317 19.148 5.57059 18.4452 5.164C18.345 5.10035 18.2734 5.00047 18.2451 4.88524C18.2169 4.77 18.2343 4.64831 18.2937 4.54559C18.3531 4.44287 18.4498 4.36707 18.5638 4.33401C18.6777 4.30096 18.8 4.3132 18.9052 4.3682C19.698 4.82608 20.4072 5.41529 21.0028 6.11068C21.0602 6.17742 21.0972 6.25923 21.1095 6.3464C21.1218 6.43356 21.1088 6.52243 21.0721 6.60243C21.0354 6.68244 20.9765 6.75023 20.9024 6.79777C20.8283 6.8453 20.743 6.87058 20.655 6.8706Z" fill="black"/>
<path d="M12.3189 20.3872C11.3858 20.4084 10.4589 20.23 9.60028 19.8642C8.74163 19.4983 7.97099 18.9533 7.33987 18.2657C6.80966 17.6897 6.39546 17.0169 6.11995 16.284C6.09613 16.2269 6.08407 16.1656 6.08448 16.1038C6.0849 16.0419 6.09779 15.9808 6.12238 15.924C6.14697 15.8673 6.18276 15.816 6.2276 15.7734C6.27244 15.7308 6.32542 15.6977 6.38336 15.676C6.4413 15.6544 6.50302 15.6446 6.56481 15.6473C6.62661 15.6501 6.68722 15.6652 6.74302 15.6919C6.79882 15.7186 6.84867 15.7563 6.88957 15.8027C6.93047 15.8491 6.96159 15.9033 6.98107 15.962C7.21598 16.5873 7.56927 17.1615 8.02159 17.653C8.56766 18.2436 9.23344 18.711 9.97448 19.0238C10.7155 19.3367 11.5148 19.4878 12.3189 19.4672C14.2095 19.4064 16.0215 18.6963 17.45 17.4564C18.8786 16.2165 19.8366 14.5225 20.1628 12.6592C20.3128 11.8245 20.2783 10.967 20.0619 10.1469C19.8454 9.32685 19.4522 8.56407 18.9098 7.91204C18.3627 7.29002 17.6859 6.7955 16.9271 6.46329C16.1683 6.13108 15.3458 5.96927 14.5177 5.98924C12.6307 6.02001 10.8176 6.72788 9.40895 7.9838C8.361 8.88085 7.55498 10.0266 7.06479 11.316C7.02233 11.4305 6.93616 11.5234 6.82522 11.5743C6.71428 11.6252 6.58766 11.6299 6.47323 11.5874C6.35879 11.545 6.26591 11.4588 6.21501 11.3479C6.16412 11.2369 6.15937 11.1103 6.20183 10.9959C6.7462 9.56137 7.64208 8.28652 8.80727 7.28828C10.3828 5.88734 12.4096 5.09974 14.5177 5.06924C15.4782 5.04797 16.4317 5.23754 17.311 5.62459C18.1903 6.01163 18.9741 6.58675 19.6072 7.30944C20.2375 8.06257 20.695 8.94478 20.9475 9.89391C21.1999 10.843 21.2411 11.836 21.0681 12.8028C20.7026 14.8795 19.6333 16.767 18.04 18.1482C16.4467 19.5294 14.4265 20.3201 12.3189 20.3872Z" fill="black"/>
<path d="M12.5313 19.0044C12.4093 19.0044 12.2923 18.956 12.206 18.8697C12.1198 18.7834 12.0713 18.6664 12.0713 18.5444C12.0713 18.4224 12.1198 18.3054 12.206 18.2192C12.2923 18.1329 12.4093 18.0844 12.5313 18.0844C14.0381 18.0355 15.482 17.4691 16.6202 16.4805C17.7584 15.4919 18.5214 14.1415 18.7808 12.6564C18.8023 12.5385 18.8689 12.4337 18.9665 12.3642C19.0641 12.2946 19.1849 12.2659 19.3034 12.2842C19.4218 12.3024 19.5284 12.3661 19.6006 12.4617C19.6728 12.5574 19.7048 12.6774 19.6898 12.7963C19.3915 14.496 18.517 16.0412 17.2132 17.1718C15.9095 18.3025 14.2561 18.9496 12.5313 19.0044Z" fill="black"/>
<path d="M13.3061 13.9297C13.1479 13.9315 12.9912 13.8989 12.8468 13.8343C12.7024 13.7696 12.5738 13.6744 12.4698 13.5553C12.3666 13.4327 12.2912 13.2892 12.2487 13.1346C12.2063 12.9801 12.1979 12.8182 12.2241 12.6601C12.2758 12.3484 12.4349 12.0647 12.6739 11.858C12.9128 11.6513 13.2165 11.5348 13.5324 11.5285C13.6907 11.5268 13.8475 11.5594 13.992 11.624C14.1365 11.6886 14.2653 11.7838 14.3696 11.9029C14.4726 12.0257 14.5478 12.1692 14.5902 12.3237C14.6326 12.4782 14.6412 12.64 14.6152 12.7981C14.5635 13.1099 14.4042 13.3938 14.1651 13.6005C13.926 13.8072 13.6221 13.9237 13.3061 13.9297ZM13.5324 12.4485C13.4368 12.4553 13.3461 12.4932 13.2741 12.5563C13.202 12.6194 13.1525 12.7043 13.1331 12.7981C13.1273 12.8254 13.1274 12.8536 13.1333 12.8808C13.1391 12.9081 13.1507 12.9338 13.1671 12.9563C13.1853 12.9744 13.207 12.9885 13.231 12.9977C13.2549 13.0069 13.2805 13.011 13.3061 13.0097C13.4016 13.003 13.4924 12.9652 13.5645 12.9021C13.6366 12.839 13.6861 12.754 13.7053 12.6601C13.7114 12.6329 13.7117 12.6047 13.7059 12.5774C13.7002 12.5501 13.6887 12.5243 13.6722 12.5019C13.6539 12.4837 13.6321 12.4695 13.608 12.4603C13.5839 12.4511 13.5581 12.4471 13.5324 12.4485Z" fill="black"/>
<path d="M14.0246 12.6647C13.9308 12.6648 13.8391 12.6362 13.762 12.5828C13.6848 12.5294 13.6259 12.4536 13.5931 12.3657C13.5602 12.2778 13.555 12.1819 13.5782 12.091C13.6014 12 13.6519 11.9184 13.7229 11.8569L16.8619 9.13373C16.9076 9.09416 16.9606 9.06398 17.0179 9.0449C17.0753 9.02582 17.1358 9.01822 17.1961 9.02254C17.2563 9.02685 17.3152 9.04299 17.3692 9.07004C17.4232 9.09709 17.4714 9.13452 17.511 9.18019C17.5505 9.22586 17.5807 9.27887 17.5998 9.33621C17.6189 9.39354 17.6265 9.45407 17.6222 9.51434C17.6178 9.57461 17.6017 9.63344 17.5746 9.68748C17.5476 9.74151 17.5102 9.78968 17.4645 9.82925L14.3255 12.5525C14.2419 12.6248 14.1351 12.6646 14.0246 12.6647Z" fill="black"/>
<path d="M9.10817 8.10525C9.04143 8.10516 8.9755 8.09055 8.91498 8.06243C8.85445 8.03431 8.80076 7.99336 8.75765 7.94241L8.05937 7.11901C8.01872 7.07315 7.98764 7.01962 7.96796 6.96158C7.94828 6.90354 7.9404 6.84215 7.94478 6.78102C7.94916 6.71989 7.96571 6.66025 7.99346 6.60561C8.0212 6.55096 8.05959 6.50241 8.10637 6.46281C8.15314 6.42321 8.20736 6.39335 8.26583 6.375C8.3243 6.35664 8.38585 6.35016 8.44687 6.35592C8.50788 6.36169 8.56713 6.37958 8.62113 6.40857C8.67513 6.43755 8.7228 6.47703 8.76133 6.52469L9.45961 7.35269C9.51489 7.41976 9.55004 7.50113 9.56098 7.58735C9.57193 7.67358 9.55821 7.76115 9.52143 7.8399C9.48466 7.91866 9.42632 7.98538 9.35318 8.03234C9.28004 8.0793 9.19509 8.10458 9.10817 8.10525Z" fill="black"/>
<path d="M9.80085 16.5756H2.30009C2.17809 16.5756 2.06109 16.5272 1.97482 16.4409C1.88855 16.3546 1.84009 16.2376 1.84009 16.1156C1.84009 15.9936 1.88855 15.8766 1.97482 15.7904C2.06109 15.7041 2.17809 15.6556 2.30009 15.6556H9.80085C9.92285 15.6556 10.0399 15.7041 10.1261 15.7904C10.2124 15.8766 10.2608 15.9936 10.2608 16.1156C10.2608 16.2376 10.2124 16.3546 10.1261 16.4409C10.0399 16.5272 9.92285 16.5756 9.80085 16.5756Z" fill="black"/>
<path d="M8.76023 13.4569H4.31571C4.19371 13.4569 4.07671 13.4084 3.99044 13.3221C3.90418 13.2359 3.85571 13.1189 3.85571 12.9969C3.85571 12.8749 3.90418 12.7579 3.99044 12.6716C4.07671 12.5853 4.19371 12.5369 4.31571 12.5369H8.76023C8.88223 12.5369 8.99923 12.5853 9.0855 12.6716C9.17177 12.7579 9.22023 12.8749 9.22023 12.9969C9.22023 13.1189 9.17177 13.2359 9.0855 13.3221C8.99923 13.4084 8.88223 13.4569 8.76023 13.4569Z" fill="black"/>
<path d="M9.53029 5.13912H5.32865C5.20665 5.13912 5.08965 5.09065 5.00338 5.00439C4.91712 4.91812 4.86865 4.80112 4.86865 4.67912C4.86865 4.55712 4.91712 4.44011 5.00338 4.35385C5.08965 4.26758 5.20665 4.21912 5.32865 4.21912H9.53029C9.65229 4.21912 9.76929 4.26758 9.85556 4.35385C9.94183 4.44011 9.99029 4.55712 9.99029 4.67912C9.99029 4.80112 9.94183 4.91812 9.85556 5.00439C9.76929 5.09065 9.65229 5.13912 9.53029 5.13912Z" fill="black"/>
<path d="M6.04991 19.3725H4.31571C4.19371 19.3725 4.07671 19.3241 3.99044 19.2378C3.90418 19.1515 3.85571 19.0345 3.85571 18.9125C3.85571 18.7905 3.90418 18.6735 3.99044 18.5872C4.07671 18.501 4.19371 18.4525 4.31571 18.4525H6.04991C6.17191 18.4525 6.28892 18.501 6.37518 18.5872C6.46145 18.6735 6.50991 18.7905 6.50991 18.9125C6.50991 19.0345 6.46145 19.1515 6.37518 19.2378C6.28892 19.3241 6.17191 19.3725 6.04991 19.3725Z" fill="black"/>
<path d="M4.79973 11.0308H2.30009C2.17809 11.0308 2.06109 10.9824 1.97482 10.8961C1.88855 10.8098 1.84009 10.6928 1.84009 10.5708C1.84009 10.4488 1.88855 10.3318 1.97482 10.2456C2.06109 10.1593 2.17809 10.1108 2.30009 10.1108H4.79973C4.92173 10.1108 5.03873 10.1593 5.125 10.2456C5.21126 10.3318 5.25973 10.4488 5.25973 10.5708C5.25973 10.6928 5.21126 10.8098 5.125 10.8961C5.03873 10.9824 4.92173 11.0308 4.79973 11.0308Z" fill="black"/>
<path d="M15.7321 4.76838H13.6769C13.5326 4.77127 13.3895 4.74216 13.2579 4.68313C13.1263 4.62411 13.0093 4.53664 12.9156 4.42702C12.8218 4.3174 12.7535 4.18835 12.7155 4.04916C12.6776 3.90997 12.671 3.76411 12.6961 3.62206C12.7421 3.3444 12.8839 3.0916 13.0968 2.90758C13.3097 2.72355 13.5804 2.61991 13.8618 2.61466H15.9253C16.068 2.61349 16.2093 2.64314 16.3395 2.70156C16.4697 2.75999 16.5858 2.84583 16.6797 2.95322C16.7729 3.06384 16.841 3.1933 16.8795 3.33273C16.9179 3.47216 16.9257 3.61825 16.9024 3.76098C16.8559 4.03925 16.7134 4.29243 16.4996 4.47649C16.2858 4.66055 16.0142 4.76383 15.7321 4.76838ZM13.8655 3.53466C13.8041 3.53997 13.7461 3.56482 13.6999 3.60555C13.6537 3.64629 13.6217 3.70076 13.6088 3.76098C13.6088 3.76098 13.5885 3.84838 13.6769 3.84838H15.7321C15.7936 3.84335 15.8518 3.8186 15.898 3.77782C15.9443 3.73704 15.9761 3.6824 15.9888 3.62206C15.9888 3.62206 16.0035 3.53466 15.9217 3.53466H13.8655Z" fill="black"/>
</svg>
