<svg width="25" height="24" viewBox="0 0 25 24" fill="none" xmlns="http://www.w3.org/2000/svg">
<g id="Image">
<path id="Icon" fill-rule="evenodd" clip-rule="evenodd" d="M21.0999 2V3H22.0999V21H21.0999V22H3.09985V21H2.09985V3H3.09985V2H21.0999ZM19.0999 14H20.0999V5H19.0999V4H5.09985V5H4.09985V19H5.09985V20H6.09985V19H7.09985V18H8.09985V17H9.09985V16H10.0999V15H11.0999V14H12.0999V13H13.0999V12H14.0999V11H17.0999V12H18.0999V13H19.0999V14ZM19.0999 19H20.0999V17H19.0999V16H18.0999V15H17.0999V14H16.0999V13H15.0999V14H14.0999V15H13.0999V16H12.0999V17H11.0999V18H10.0999V19H9.09985V20H19.0999V19ZM7.09985 6H11.0999V7H12.0999V11H11.0999V12H7.09985V11H6.09985V7H7.09985V6ZM8.09985 10H10.0999V8H8.09985V10Z" fill="black"/>
</g>
</svg>
