<svg width="25" height="24" viewBox="0 0 25 24" fill="none" xmlns="http://www.w3.org/2000/svg">
<g id="Show">
<path id="Icon" fill-rule="evenodd" clip-rule="evenodd" d="M20.8999 7H21.8999V9H23.8999V15H21.8999V17H20.8999V18H19.8999V19H17.8999V21H7.8999V19H5.8999V18H4.8999V17H3.8999V15H1.8999V9H3.8999V7H4.8999V6H5.8999V5H7.8999V3H17.8999V5H19.8999V6H20.8999V7ZM18.8999 15H19.8999V13H21.8999V11H19.8999V9H18.8999V8H17.8999V7H15.8999V5H9.8999V7H7.8999V8H6.8999V9H5.8999V10V11H3.8999V13H5.8999V15H6.8999V16H7.8999V17H9.8999V19H15.8999V17H17.8999V16H18.8999V15ZM10.8999 9H14.8999V10H15.8999V14H14.8999V15H10.8999V14H9.8999V10H10.8999V9ZM11.8999 13H13.8999V11H11.8999V13Z" fill="black"/>
</g>
</svg>
