<svg width="41" height="41" viewBox="0 0 41 41" fill="none" xmlns="http://www.w3.org/2000/svg">
<path d="M36.7046 6.07572C36.7046 5.74652 36.4353 5.47729 36.1061 5.47729H31.9451C31.616 5.47729 31.3467 5.74652 31.3467 6.07572V9.75571C31.3467 10.0849 31.616 10.3541 31.9451 10.3541H36.1061C36.4353 10.3541 36.7046 10.0849 36.7046 9.75571V6.07572Z" fill="#D2D4D5"/>
<path d="M29.496 6.99829C28.5086 6.99829 27.7007 7.8062 27.7007 8.79364V33.7274C27.7007 34.7149 28.5086 35.5228 29.496 35.5228H38.5554C39.5428 35.5228 40.3507 34.7149 40.3507 33.7274V8.79364C40.3507 7.8062 39.5428 6.99829 38.5554 6.99829H29.496Z" fill="#3E4A57"/>
<path d="M38.5554 6.99829H29.496C28.5086 6.99829 27.7007 7.8062 27.7007 8.79364V14.8935H40.3506V8.79364C40.3507 7.8062 39.5428 6.99829 38.5554 6.99829Z" fill="#F66801"/>
<path d="M35.6216 10.6468H34.3249V9.35003C34.3249 9.18467 34.191 9.05078 34.0257 9.05078C33.8603 9.05078 33.7264 9.18467 33.7264 9.35003V10.6467H32.4299C32.2646 10.6467 32.1306 10.7806 32.1306 10.9459C32.1306 11.1113 32.2646 11.2452 32.4299 11.2452H33.7264V12.5418C33.7264 12.7071 33.8603 12.841 34.0257 12.841C34.191 12.841 34.3249 12.7071 34.3249 12.5418V11.2452H35.6216C35.7869 11.2452 35.9209 11.1113 35.9209 10.9459C35.9209 10.7807 35.7868 10.6468 35.6216 10.6468Z" fill="white"/>
<path d="M35.6216 33.5079H32.4299C32.2646 33.5079 32.1306 33.374 32.1306 33.2088C32.1306 33.0434 32.2646 32.9094 32.4299 32.9094H35.6216C35.7869 32.9094 35.9209 33.0434 35.9209 33.2088C35.9209 33.3741 35.7868 33.5079 35.6216 33.5079Z" fill="white"/>
<path d="M6.97414 22.8728C3.48089 22.8728 0.64917 25.7045 0.64917 29.1978C0.64917 32.691 3.48081 35.5227 6.97414 35.5227H27.9813C31.4744 35.5227 34.3062 32.6911 34.3062 29.1978C34.3062 25.7046 31.4745 22.8728 27.9813 22.8728H6.97414Z" fill="#3E4A57"/>
<path d="M27.9815 35.5227C31.4747 35.5227 34.3065 32.6911 34.3065 29.1978C34.3065 25.7046 31.4748 22.8728 27.9815 22.8728H22.3746C18.8814 22.8728 16.0496 25.7045 16.0496 29.1978C16.0496 32.691 18.8813 35.5227 22.3746 35.5227H27.9815Z" fill="#F66801"/>
<path d="M27.9817 35.5232C31.475 35.5232 34.3069 32.6913 34.3069 29.198C34.3069 25.7047 31.475 22.8728 27.9817 22.8728C24.4884 22.8728 21.6565 25.7047 21.6565 29.198C21.6565 32.6913 24.4884 35.5232 27.9817 35.5232Z" fill="#A4A9AD"/>
<path d="M29.3339 31.9434C30.8501 31.9434 32.0793 30.7142 32.0793 29.1979C32.0793 27.6816 30.8501 26.4524 29.3339 26.4524C27.8176 26.4524 26.5884 27.6816 26.5884 29.1979C26.5884 30.7142 27.8176 31.9434 29.3339 31.9434Z" fill="#E8E8E8"/>
<path d="M20.5034 28.3619H19.2067V27.0653C19.2067 26.9 19.0727 26.7661 18.9075 26.7661C18.7421 26.7661 18.6082 26.9 18.6082 27.0653V28.3619H17.3117C17.1463 28.3619 17.0125 28.4959 17.0125 28.6612C17.0125 28.8265 17.1463 28.9604 17.3117 28.9604H18.6082V30.257C18.6082 30.4224 18.7421 30.5564 18.9075 30.5564C19.0728 30.5564 19.2067 30.4224 19.2067 30.257V28.9604H20.5034C20.6687 28.9604 20.8025 28.8265 20.8025 28.6612C20.8025 28.496 20.6687 28.3619 20.5034 28.3619Z" fill="white"/>
<path d="M5.78178 28.9603H2.59002C2.42474 28.9603 2.29077 28.8264 2.29077 28.6611C2.29077 28.4958 2.42466 28.3618 2.59002 28.3618H5.7817C5.94706 28.3618 6.08095 28.4958 6.08095 28.6611C6.08103 28.8264 5.94706 28.9603 5.78178 28.9603Z" fill="white"/>
<path d="M38.5555 6.34897H37.354V6.07574C37.354 5.38779 36.7942 4.82812 36.1063 4.82812H31.9452C31.2573 4.82812 30.6976 5.38787 30.6976 6.07574V6.34897H29.4961C28.1482 6.34897 27.0516 7.44564 27.0516 8.79351V22.2235H6.97416C3.12865 22.2235 0 25.3521 0 29.1977C0 33.0433 3.12865 36.1718 6.97416 36.1718H27.9813C28.3043 36.1718 28.6217 36.148 28.9332 36.1052C29.1171 36.1488 29.3057 36.1718 29.4961 36.1718H38.5555C39.9033 36.1718 41 35.0752 41 33.7273V8.79351C41 7.44564 39.9033 6.34897 38.5555 6.34897ZM31.9961 6.12659H36.0555V6.34897H31.9961V6.12659ZM6.97416 34.8734C3.84463 34.8734 1.29847 32.3274 1.29847 29.1977C1.29847 26.068 3.84463 23.522 6.97416 23.522H18.3292C16.5581 24.7879 15.4003 26.8596 15.4003 29.1977C15.4003 31.5359 16.5582 33.6074 18.3292 34.8734H6.97416V34.8734ZM22.3745 34.8734C19.2449 34.8734 16.6988 32.3274 16.6988 29.1977C16.6988 26.0681 19.2449 23.522 22.3745 23.522H23.9362C22.1651 24.788 21.0072 26.8597 21.0072 29.1977C21.0072 31.5359 22.1651 33.6075 23.9362 34.8734H22.3745ZM27.9815 34.8734C24.8518 34.8734 22.3058 32.3274 22.3058 29.1977C22.3058 26.0681 24.8518 23.522 27.9815 23.522C31.1111 23.522 33.6572 26.0681 33.6572 29.1977C33.6572 32.3274 31.111 34.8734 27.9815 34.8734ZM39.7015 33.7274C39.7015 34.3593 39.1874 34.8734 38.5555 34.8734H32.0267C33.7979 33.6075 34.9556 31.5358 34.9556 29.1977C34.9556 25.4759 32.0249 22.4258 28.35 22.2334V15.5427H39.7016V33.7274H39.7015ZM39.7015 14.2441H28.3499V8.79343C28.3499 8.16146 28.864 7.64736 29.496 7.64736H38.5554C39.1873 7.64736 39.7015 8.16146 39.7015 8.79343L39.7015 14.2441ZM29.3336 25.8029C27.4618 25.8029 25.9389 27.3258 25.9389 29.1977C25.9389 31.0696 27.4618 32.5924 29.3336 32.5924C31.2054 32.5924 32.7283 31.0696 32.7283 29.1977C32.7282 27.3258 31.2053 25.8029 29.3336 25.8029ZM29.3336 31.2939C28.1777 31.2939 27.2374 30.3535 27.2374 29.1977C27.2374 28.0417 28.1777 27.1013 29.3336 27.1013C30.4894 27.1013 31.4298 28.0417 31.4298 29.1977C31.4297 30.3536 30.4893 31.2939 29.3336 31.2939Z" fill="black"/>
</svg>
