<svg width="48" height="48" viewBox="0 0 48 48" fill="none" xmlns="http://www.w3.org/2000/svg">
<g clip-path="url(#clip0_564_643)">
<path fill-rule="evenodd" clip-rule="evenodd" d="M39.5533 8.85993C40.0475 8.65191 40.5885 8.58017 41.1199 8.65216C41.6513 8.72416 42.1536 8.93727 42.5747 9.2693C42.9957 9.60133 43.3201 10.0402 43.514 10.5401C43.708 11.04 43.7643 11.5828 43.6773 12.1119L39.1413 39.6259C38.7013 42.2799 35.7893 43.8019 33.3553 42.4799C31.3193 41.3739 28.2953 39.6699 25.5753 37.8919C24.2153 37.0019 20.0493 34.1519 20.5613 32.1239C21.0013 30.3899 28.0013 23.8739 32.0013 19.9999C33.5713 18.4779 32.8553 17.5999 31.0013 18.9999C26.3973 22.4759 19.0053 27.7619 16.5613 29.2499C14.4053 30.5619 13.2813 30.7859 11.9373 30.5619C9.48531 30.1539 7.21131 29.5219 5.35531 28.7519C2.84731 27.7119 2.96931 24.2639 5.35331 23.2599L39.5533 8.85993Z" fill="white"/>
</g>
<defs>
<clipPath id="clip0_564_643">
<rect width="48" height="48" fill="white"/>
</clipPath>
</defs>
</svg>
