<svg width="24" height="24" viewBox="0 0 24 24" fill="none" xmlns="http://www.w3.org/2000/svg">
<g id="mingcute:telegram-fill" clip-path="url(#clip0_545_810)">
<g id="Group">
<path id="Vector" fill-rule="evenodd" clip-rule="evenodd" d="M19.7767 4.43C20.0238 4.32599 20.2943 4.29011 20.5599 4.32611C20.8256 4.36211 21.0768 4.46866 21.2873 4.63468C21.4979 4.8007 21.6601 5.02011 21.757 5.27008C21.854 5.52005 21.8822 5.79144 21.8387 6.056L19.5707 19.813C19.3507 21.14 17.8947 21.901 16.6777 21.24C15.6597 20.687 14.1477 19.835 12.7877 18.946C12.1077 18.501 10.0247 17.076 10.2807 16.062C10.5007 15.195 14.0007 11.937 16.0007 10C16.7857 9.239 16.4277 8.8 15.5007 9.5C13.1987 11.238 9.50265 13.881 8.28065 14.625C7.20265 15.281 6.64065 15.393 5.96865 15.281C4.74265 15.077 3.60565 14.761 2.67765 14.376C1.42365 13.856 1.48465 12.132 2.67665 11.63L19.7767 4.43Z" fill="#259BD6"/>
</g>
</g>
<defs>
<clipPath id="clip0_545_810">
<rect width="24" height="24" fill="white"/>
</clipPath>
</defs>
</svg>
