<svg width="139" height="50" viewBox="0 0 139 50" fill="none" xmlns="http://www.w3.org/2000/svg">
<path d="M23.5 0C23.5 0 15.5 2.5 13 3.5C11.8 9.5 3.83333 11.6667 0 12C0.666667 12.5 2.4 13.7 4 14.5C5.6 14.5 12.3333 13.5 15.5 13L9.5 18L11.5 19H13C15 17.5 22 14 26 14C29.2 14 33 15.8333 34.5 16.5L45 23.5L31.5 32L33.5 42.5L39.5 47.5L39 40.5L36.5 39.5V33.5C38.6667 32.6667 44.8 30.2 52 27C59 30 75 28.5 78 24C78.4 17.2 82.1667 15.8333 84 16C86.5 16 88.7074 17.7074 92 21C101.6 30.6 117 32.6667 123.5 32.5L135.5 43.5V44L133 49.5H139V42.5C134.5 40 130.5 35 129.5 28C116.3 26.8 108 15.8333 105.5 10.5C116 11 123.077 11.1759 127.5 10C134.777 8.06538 137.5 2.50001 137.5 2.50001L136 1.50001C129.5 9.00001 124 8.00001 113 7.50001C102 7.00001 31 5.50001 30.5 5.50001C30.1 5.50001 30 5.16667 30 5.00001C31.5 4.66667 34.9 3.8 36.5 3V2.5L23.5 0Z" fill="black"/>
</svg>
