<svg width="307" height="46" viewBox="0 0 307 46" fill="none" xmlns="http://www.w3.org/2000/svg">
<path d="M18.2165 23.0819V21.6807C19.5836 20.266 20.346 18.3784 20.3434 16.4151V10.5434C20.3434 9.31195 20.0998 8.09261 19.6266 6.95493C19.1534 5.81726 18.4597 4.78355 17.5853 3.91281C16.7109 3.04208 15.6729 2.35137 14.5304 1.88013C13.3879 1.40889 12.1635 1.16635 10.9269 1.16635H0V44.8333H10.0895C13.0378 44.8333 15.8654 43.667 17.9502 41.591C20.035 39.515 21.2063 36.6993 21.2064 33.7634V28.6181C21.207 27.521 20.9341 26.4409 20.4123 25.4747C19.8904 24.5084 19.136 23.6863 18.2165 23.0819ZM14.7335 34.0241C14.7335 35.1923 14.2675 36.3126 13.438 37.1386C12.6085 37.9646 11.4834 38.4287 10.3104 38.4287H6.22633V25.6908H10.8806C11.3866 25.6908 11.8876 25.7901 12.3551 25.9829C12.8225 26.1757 13.2473 26.4583 13.6051 26.8146C13.9628 27.1709 14.2467 27.5938 14.4403 28.0593C14.6339 28.5249 14.7336 29.0238 14.7335 29.5276V34.0241ZM14.7335 14.9014C14.7335 15.9963 14.2968 17.0464 13.5193 17.8206C12.7418 18.5948 11.6873 19.0298 10.5878 19.0298H6.22633V7.58175H10.8344C11.8685 7.58175 12.8603 7.99083 13.5915 8.719C14.3227 9.44716 14.7335 10.4348 14.7335 11.4646V14.9014Z" fill="black"/>
<path d="M226.685 23.0819V21.6807C228.052 20.266 228.814 18.3784 228.812 16.4151V10.5434C228.812 9.31195 228.568 8.09261 228.095 6.95493C227.622 5.81726 226.928 4.78355 226.054 3.91281C225.179 3.04208 224.141 2.35137 222.999 1.88013C221.856 1.40889 220.632 1.16635 219.395 1.16635H208.468V44.8333H218.558C221.506 44.8333 224.334 43.667 226.418 41.591C228.503 39.515 229.674 36.6993 229.674 33.7634V28.6181C229.675 27.521 229.402 26.4409 228.88 25.4747C228.359 24.5085 227.604 23.6863 226.685 23.0819ZM223.202 34.0241C223.202 35.1923 222.736 36.3126 221.906 37.1386C221.077 37.9646 219.952 38.4287 218.779 38.4287H214.695V25.6908H219.349C219.855 25.6908 220.356 25.7901 220.823 25.9829C221.291 26.1757 221.716 26.4583 222.073 26.8146C222.431 27.1709 222.715 27.5939 222.909 28.0594C223.102 28.5249 223.202 29.0238 223.202 29.5276V34.0241ZM223.202 14.9014C223.202 15.4436 223.095 15.9804 222.886 16.4813C222.678 16.9822 222.373 17.4373 221.988 17.8206C221.603 18.204 221.146 18.5081 220.643 18.7155C220.14 18.923 219.601 19.0298 219.056 19.0298H214.695V7.58175H219.303C219.815 7.58174 220.322 7.68216 220.795 7.87729C221.268 8.07241 221.698 8.35842 222.06 8.71897C222.422 9.07953 222.709 9.50757 222.905 9.97865C223.101 10.4497 223.202 10.9547 223.202 11.4646V14.9014Z" fill="black"/>
<path d="M50.0776 44.8333L46.2522 31.8562C47.288 30.863 48.1116 29.6717 48.6737 28.3537C49.2357 27.0357 49.5245 25.6182 49.5227 24.1863V11.8069C49.5227 8.98488 48.397 6.2784 46.3931 4.28291C44.3892 2.28741 41.6713 1.16635 38.8373 1.16635H28.1519V44.8333H34.183V34.8472H38.817C39.3105 34.8471 39.8035 34.8133 40.2924 34.746L43.2656 44.8333H50.0776ZM34.3984 27.9724V7.83717H39.4125C40.4589 7.83717 41.4624 8.2511 42.2023 8.98789C42.9422 9.72469 43.3579 10.724 43.3579 11.766V24.33C43.3579 24.8084 43.2633 25.282 43.0795 25.7239C42.8957 26.1658 42.6263 26.5674 42.2866 26.9056C41.947 27.2438 41.5438 27.5121 41.1 27.6952C40.6562 27.8782 40.1806 27.9724 39.7003 27.9724H34.3984Z" fill="black"/>
<path d="M72.2909 44.8333H78.5378L70.1539 1.16635H63.1672L54.4134 44.8333H60.6601L62.0015 38.1421H71.0062L72.2909 44.8333ZM63.2487 31.9219L66.6011 17.6184L69.8119 31.9219H63.2487Z" fill="black"/>
<path d="M97.1859 1.16635L91.5019 28.3817L85.8121 1.16635H79.1234L87.9491 44.8336H88.6889H94.196H94.9358L104.059 1.16635H97.1859Z" fill="black"/>
<path d="M127.978 8.10317V1.16635H115.464H111.149H108.498V44.8336H111.149H115.464H127.978V37.8968H115.464V26.9698H125.944V20.0329H115.464V8.10317H127.978Z" fill="black"/>
<path d="M191.346 0C188.558 0 185.885 1.10277 183.913 3.06571C181.942 5.02865 180.835 7.69097 180.835 10.467V35.513C180.835 38.2889 181.942 40.9511 183.914 42.914C185.885 44.8769 188.558 45.9796 191.346 45.9796C194.134 45.9796 196.807 44.8769 198.778 42.914C200.749 40.9511 201.857 38.2889 201.857 35.513V10.467C201.857 7.69097 200.75 5.02865 198.778 3.06571C196.807 1.10277 194.134 0 191.346 0ZM195.209 35.6152C195.209 36.5894 194.82 37.5237 194.129 38.2125C193.437 38.9013 192.499 39.2883 191.521 39.2883H191.171C190.193 39.2883 189.255 38.9013 188.563 38.2125C187.871 37.5237 187.483 36.5894 187.483 35.6152V10.3644C187.483 9.88204 187.578 9.4044 187.764 8.95876C187.949 8.51311 188.221 8.10819 188.563 7.7671C188.906 7.42602 189.312 7.15545 189.76 6.97086C190.207 6.78627 190.687 6.69126 191.171 6.69126H191.521C192.005 6.69126 192.485 6.78627 192.932 6.97086C193.38 7.15545 193.786 7.42602 194.129 7.7671C194.471 8.10819 194.743 8.51311 194.928 8.95876C195.114 9.4044 195.209 9.88204 195.209 10.3644L195.209 35.6152Z" fill="black"/>
<path d="M246.273 0C243.485 0 240.812 1.10277 238.841 3.06571C236.869 5.02865 235.762 7.69097 235.762 10.467V35.513C235.762 38.2889 236.869 40.9511 238.841 42.914C240.812 44.8769 243.485 45.9796 246.273 45.9796C249.061 45.9796 251.734 44.8769 253.705 42.914C255.676 40.9511 256.784 38.2889 256.784 35.513V10.467C256.784 7.69097 255.677 5.02865 253.705 3.06571C251.734 1.10277 249.061 0 246.273 0ZM250.136 35.6152C250.136 36.5894 249.748 37.5237 249.056 38.2125C248.364 38.9013 247.426 39.2883 246.448 39.2883H246.098C245.12 39.2883 244.182 38.9013 243.49 38.2125C242.798 37.5237 242.41 36.5894 242.41 35.6152V10.3644C242.41 9.88204 242.505 9.4044 242.691 8.95876C242.876 8.51311 243.148 8.10819 243.49 7.7671C243.833 7.42602 244.239 7.15545 244.687 6.97086C245.134 6.78627 245.614 6.69126 246.098 6.69126H246.448C246.932 6.69126 247.412 6.78627 247.859 6.97086C248.307 7.15545 248.713 7.42602 249.056 7.7671C249.398 8.10819 249.67 8.51311 249.855 8.95876C250.041 9.4044 250.136 9.88204 250.136 10.3644V35.6152Z" fill="black"/>
<path d="M282.65 1.07428H260.703V7.45866H268.224V44.7211H275.129V7.45866H282.65V1.07428Z" fill="black"/>
<path d="M306.239 13.0142V10.467C306.239 4.68642 301.398 0 295.427 0C289.455 0 284.614 4.6861 284.614 10.467V10.7466C284.614 13.4528 285.98 16.2766 287.669 18.4326L297.953 30.8538C299.022 32.2127 299.604 33.8887 299.607 35.6152C299.607 37.6437 297.908 39.2882 295.812 39.2882H295.453C293.357 39.2882 291.658 37.6437 291.658 35.6151V32.9653H284.376V35.513C284.376 41.2935 289.661 45.9796 295.632 45.9796C301.604 45.9796 306.445 41.2935 306.445 35.5126C306.441 32.6046 305.426 29.7877 303.573 27.54L293.155 15.0895C292.056 13.7573 291.455 12.0879 291.452 10.3644C291.452 8.33576 293.151 6.69126 295.247 6.69126H295.606C297.702 6.69126 299.401 8.33576 299.401 10.3643V13.0142H306.239Z" fill="black"/>
<path d="M174.736 44.8333L170.91 31.8562C171.946 30.863 172.77 29.6717 173.332 28.3537C173.894 27.0357 174.182 25.6182 174.181 24.1863V11.8069C174.181 10.4096 173.904 9.02593 173.367 7.73496C172.83 6.44398 172.043 5.27097 171.051 4.28291C170.059 3.29484 168.881 2.51106 167.584 1.97632C166.288 1.44158 164.899 1.16635 163.495 1.16635H152.81V44.8333H158.841V34.8472H163.475C163.969 34.8471 164.462 34.8133 164.951 34.746L167.924 44.8333H174.736ZM159.057 27.9724V7.83717H164.071C165.117 7.83717 166.121 8.2511 166.861 8.98789C167.601 9.72469 168.016 10.724 168.016 11.766V24.33C168.016 25.2961 167.631 26.2225 166.945 26.9056C166.259 27.5887 165.329 27.9724 164.359 27.9724H159.057Z" fill="black"/>
</svg>
