<svg width="226" height="53" viewBox="0 0 226 53" fill="none" xmlns="http://www.w3.org/2000/svg">
<path d="M21.2398 41.6354C19.5469 41.9676 18.0008 42.3128 16.6033 42.6562C15.1231 43.019 13.7989 43.3828 12.6317 43.7308C8.85416 44.8593 6.13895 45.9989 4.27897 47.0262C1.86741 48.3589 0.897952 49.4929 0.897952 50.1694C0.897952 50.4766 1.10781 50.7652 1.55726 50.9675C1.97234 51.1559 2.59171 51.2738 3.43023 51.2738C5.22057 51.2738 8.19207 50.1518 11.4969 48.3514C14.6876 46.6142 18.1884 44.2422 21.2398 41.6354ZM140.331 22.855C140.492 22.9153 140.772 22.9859 141.208 23.0481C141.634 23.1084 142.21 23.1613 142.968 23.1873H142.982C142.939 23.1288 142.877 23.0722 142.8 23.0184C142.669 22.9274 142.49 22.8467 142.28 22.7845C141.916 22.6759 141.495 22.636 141.121 22.6592C140.797 22.6787 140.509 22.7474 140.331 22.855ZM111.567 35.5698C110.165 35.5698 109.064 35.2162 108.238 34.6102C107.326 33.943 106.748 32.9667 106.463 31.8234C105.923 29.6685 106.162 27.29 107.169 24.7092C108.174 22.1349 109.947 19.3545 112.476 16.3914C114.967 13.4737 117.44 11.0348 119.923 9.05074C122.408 7.06663 124.909 5.53354 127.455 4.43013C128.074 4.16286 129 3.79444 130.087 3.46406C131.176 3.13461 132.434 2.83858 133.719 2.71979C135.115 2.58801 136.327 2.68452 137.343 3.00655C138.365 3.33135 139.194 3.88353 139.815 4.65935C140.597 5.63377 140.886 6.8337 140.915 8.01228C140.963 9.94349 140.316 11.8255 140.023 12.5735C139.621 13.598 139.072 14.6031 138.386 15.5747C137.701 16.5445 136.872 17.4892 135.911 18.395C134.924 19.3248 134.074 20.0236 133.144 20.6306C132.215 21.2384 131.195 21.7618 129.865 22.3455C129.763 22.3901 129.65 22.3873 129.555 22.3511C129.459 22.3121 129.377 22.2379 129.332 22.1367C129.288 22.0365 129.288 21.9233 129.326 21.8268C129.362 21.7312 129.438 21.6477 129.539 21.6022C130.832 21.0361 131.808 20.5387 132.699 19.9568C133.589 19.3759 134.397 18.7086 135.355 17.8057C136.272 16.9417 137.062 16.0415 137.716 15.1181C138.369 14.1957 138.89 13.2454 139.269 12.2784C139.761 11.0256 140.117 9.52867 140.099 8.14221C140.084 7.01652 139.821 5.96043 139.184 5.16605C138.173 3.90394 136.578 3.47612 134.895 3.47427C131.927 3.47148 128.676 4.78185 127.776 5.17254C125.29 6.24997 122.845 7.75058 120.41 9.69757C117.976 11.6427 115.547 14.0416 113.094 16.9157C110.647 19.7814 108.931 22.4569 107.956 24.9171C106.983 27.3698 106.744 29.6138 107.247 31.6294C107.478 32.5538 107.946 33.3017 108.597 33.8335C109.252 34.3643 110.099 34.6845 111.09 34.7522C112.861 34.8747 114.693 34.665 116.397 34.3216C118.1 33.9792 119.686 33.4966 120.959 33.0799C123.077 32.3849 125.21 31.5172 127.414 30.4481C129.613 29.3799 131.892 28.1076 134.308 26.6033C134.403 26.4288 134.508 26.2618 134.619 26.1068C134.733 25.9463 134.858 25.7922 134.988 25.653C135.409 25.2029 136.21 24.3993 136.986 23.912C137.501 23.5872 138.011 23.3988 138.406 23.5325C138.507 23.5668 138.594 23.6262 138.655 23.6986C138.718 23.7728 138.76 23.8666 138.772 23.9668C138.794 24.1468 138.851 24.6303 136.61 26.0929L134.923 27.1731C134.772 27.4905 134.67 27.8153 134.632 28.1104C134.593 28.3962 134.614 28.6561 134.702 28.8575C134.777 29.0273 134.906 29.1591 135.086 29.2444C135.267 29.3317 135.507 29.3744 135.797 29.3707C136.704 29.366 137.561 29.0765 138.336 28.6635C139.118 28.2468 139.821 27.7058 140.419 27.2047C140.98 26.7341 141.645 26.0808 142.17 25.4154C142.556 24.9273 142.868 24.4308 143.006 23.9993L142.968 23.9974C141.357 23.9417 140.499 23.7803 140.039 23.6039C139.547 23.4183 139.474 23.2049 139.433 23.0805C139.401 22.9803 139.386 22.8532 139.43 22.7121C139.471 22.5757 139.57 22.4244 139.757 22.2722C140.048 22.0365 140.484 21.9047 140.954 21.862C141.479 21.8138 142.052 21.8713 142.513 22.0068C142.852 22.108 143.14 22.2537 143.36 22.43C143.585 22.6091 143.743 22.8253 143.82 23.062L143.859 23.217C144.749 23.2411 145.971 23.2615 147.189 23.2105C148.434 23.1576 149.679 23.0295 150.564 22.7594L150.622 22.7474C150.976 22.4912 151.349 22.2565 151.732 22.0588C152.095 21.8695 152.473 21.7089 152.851 21.5929C153.853 21.2811 154.519 21.3721 154.952 21.5799C155.392 21.7906 155.595 22.1256 155.67 22.288C155.9 22.7882 155.848 23.3868 155.57 23.9659C155.296 24.5347 154.798 25.0897 154.136 25.5073C154.041 25.5667 153.93 25.5825 153.831 25.5611C153.733 25.5398 153.638 25.4776 153.578 25.3848C153.516 25.2874 153.502 25.1779 153.523 25.0776C153.545 24.9774 153.609 24.8827 153.702 24.8234C154.219 24.4967 154.58 24.1041 154.788 23.7246C155.017 23.3079 155.063 22.9061 154.933 22.6277C154.831 22.4059 154.611 22.2667 154.308 22.2184C153.987 22.1683 153.571 22.2156 153.092 22.365C152 22.7056 150.908 23.4564 150.021 24.3176C149.025 25.2874 148.284 26.3973 148.086 27.2223C147.997 27.6018 147.98 27.9489 148.034 28.2459C148.086 28.5373 148.21 28.7832 148.398 28.966C148.714 29.2704 149.491 29.2927 150.46 29.134C151.601 28.9456 153.001 28.5002 154.246 27.9656C155.026 27.6315 155.844 27.2724 156.663 26.8808C157.472 26.4929 158.296 26.066 159.099 25.5908L159.275 25.2725C159.553 24.802 159.853 24.3937 160.172 24.054C160.49 23.7125 160.829 23.436 161.182 23.2299C161.534 23.0267 161.852 22.9116 162.112 22.8912C162.389 22.8699 162.607 22.9506 162.737 23.1362C162.861 23.3125 162.87 23.5186 162.764 23.745C162.666 23.9547 162.465 24.1858 162.165 24.4373C161.775 24.7621 161.371 25.0693 160.961 25.357C160.562 25.6363 160.143 25.9073 159.715 26.1662C159.526 26.5671 159.37 27.007 159.301 27.4107C159.241 27.7587 159.244 28.0779 159.34 28.3155C159.387 28.4352 159.461 28.5354 159.558 28.6143C159.655 28.6941 159.785 28.7563 159.939 28.7981C160.746 29.0152 161.747 28.7572 162.726 28.2719C163.99 27.6464 165.219 26.6441 165.97 25.7968C166.35 25.3681 166.664 24.8874 166.858 24.403C167.021 23.9928 167.099 23.5752 167.06 23.1808L166.043 23.2531C165.676 23.2698 165.308 23.2736 164.948 23.2513C164.486 23.2216 164.194 23.1186 164.017 22.9896C163.828 22.8522 163.762 22.6815 163.752 22.5302C163.737 22.2954 163.86 22.0755 164.092 21.8955C164.312 21.7256 164.634 21.5892 165.027 21.5094C165.705 21.373 166.221 21.3971 166.611 21.5094C167.136 21.6607 167.439 21.9734 167.612 22.2732L167.637 22.3168L168.617 22.2537C169.587 22.2193 172.237 21.9864 174.891 21.7544C177.554 21.5224 180.225 21.2885 181.22 21.2523C182.696 21.1985 184.068 21.2941 185.319 21.7897C186.572 22.2871 187.703 23.1882 188.69 24.7426L188.989 25.241L189.225 25.6929C190.631 25.5351 192.136 25.4071 193.743 25.3161C195.378 25.2243 197.129 25.1686 199.002 25.1574L199.409 25.1556C204.401 25.1556 209.384 25.6799 213.879 26.6311C218.372 27.5805 222.385 28.9586 225.434 30.6606C225.533 30.7163 225.599 30.8063 225.627 30.9047C225.653 30.9965 225.645 31.1005 225.601 31.1924L225.59 31.2128C225.536 31.3093 225.445 31.377 225.346 31.4049C225.254 31.4299 225.152 31.4244 225.059 31.3789L225.039 31.3687C222.048 29.6992 218.106 28.347 213.683 27.4153C209.254 26.4817 204.339 25.9648 199.41 25.9648L199.005 25.9657C197.237 25.976 195.574 26.0279 194.02 26.1105C192.424 26.1968 190.937 26.3184 189.561 26.4697C189.851 27.2381 190.019 28.0232 190.062 28.8166C190.107 29.6426 190.019 30.4815 189.797 31.3278C189.434 32.7069 188.563 34.4014 187.09 36.0533C185.889 37.3989 184.285 38.7214 182.229 39.8192C180.841 40.5626 179.031 41.4228 177.162 42.0205C175.761 42.4678 174.321 42.7713 172.992 42.7713C172.192 42.7713 171.43 42.6608 170.742 42.4084C170.051 42.155 169.431 41.7551 168.913 41.1769C167.929 40.0744 167.695 38.7882 167.931 37.501C168.217 35.9327 169.202 34.3578 170.373 33.0966C171.102 32.3115 172.437 30.8759 175.183 29.4421C177.912 28.0176 182.042 26.5912 188.368 25.7959L188.006 25.176C187.13 23.796 186.092 23.0193 184.921 22.6045C183.744 22.1869 182.425 22.1275 180.99 22.1776C180.022 22.2128 177.454 22.4142 174.877 22.6165C172.268 22.8207 169.643 23.0258 168.647 23.061L167.868 23.1102C167.92 23.6355 167.828 24.1607 167.631 24.6665C167.402 25.2567 167.028 25.8247 166.576 26.3332C165.878 27.1221 164.469 28.3359 162.939 29.0644C161.865 29.5748 160.729 29.8495 159.728 29.5785C159.457 29.5061 159.218 29.3846 159.027 29.224C158.834 29.0635 158.686 28.8593 158.588 28.6208C158.46 28.3071 158.429 27.9591 158.454 27.6148C158.474 27.3392 158.531 27.0617 158.607 26.7991C157.96 27.1499 157.299 27.4775 156.647 27.7828C155.916 28.1234 155.223 28.4278 154.565 28.7108C154.297 28.824 152.98 29.3753 151.551 29.7298C150.11 30.088 148.553 30.243 147.835 29.547C147.537 29.2593 147.338 28.8881 147.249 28.4593C147.16 28.0371 147.175 27.5545 147.299 27.0348C147.416 26.5356 147.691 25.962 148.077 25.3783C148.418 24.8596 148.852 24.3306 149.344 23.8378C148.464 23.9612 147.477 24.0197 146.532 24.042C145.529 24.0652 144.571 24.0475 143.838 24.0271C143.706 24.6034 143.352 25.2076 142.936 25.7607C142.199 26.7351 141.246 27.5666 140.939 27.8236C140.29 28.3665 139.524 28.9558 138.668 29.4041C137.805 29.8569 136.841 30.1762 135.802 30.1817H135.781C135.215 30.1817 134.81 30.0462 134.523 29.8551C134.233 29.663 134.061 29.4096 133.962 29.1823C133.865 28.9595 133.814 28.7173 133.804 28.4686C133.796 28.2626 133.815 28.0482 133.855 27.8329C131.618 29.1915 129.476 30.3219 127.402 31.2917C125.274 32.2874 123.223 33.1143 121.212 33.8483C119.638 34.4228 118.097 34.8543 116.514 35.1411C114.93 35.4278 113.308 35.5698 111.567 35.5698ZM164.793 22.4216L165 22.443C165.297 22.4615 165.605 22.4606 165.912 22.4495L166.648 22.4031C166.523 22.3223 166.368 22.2685 166.187 22.2425C165.918 22.2036 165.583 22.224 165.19 22.3029C165.058 22.3288 164.945 22.3632 164.854 22.3975L164.793 22.4216ZM188.728 26.5643C182.434 27.3281 178.344 28.7183 175.655 30.1075C172.963 31.4967 171.671 32.8878 170.967 33.647C170.549 34.098 169.117 35.7471 168.744 37.5678C168.536 38.5979 168.665 39.6856 169.518 40.6405C170.602 41.8544 172.281 42.1281 174.118 41.9054C176.789 41.5797 179.799 40.2006 181.848 39.1065C183.417 38.2676 185.149 37.0101 186.541 35.4566C187.679 34.1899 188.592 32.7227 189.014 31.1228C189.219 30.3367 189.297 29.5553 189.245 28.7851C189.195 28.0334 189.022 27.29 188.728 26.5643ZM53.3413 22.3873L53.5568 22.3984C53.736 22.417 54.0062 22.4263 54.3461 22.4263C54.8512 22.4263 55.518 22.4049 56.2878 22.3632C55.8588 22.2314 55.2347 22.1692 54.6646 22.1692C54.3266 22.1692 54.0062 22.1915 53.7611 22.2342C53.5354 22.2722 53.3766 22.3261 53.3413 22.3873ZM88.6326 21.6514C88.2138 21.6514 87.705 21.7266 87.1376 21.889C86.6231 22.0365 86.0613 22.2574 85.4782 22.5599C84.5867 23.0202 83.6739 23.6856 82.8605 24.4187C82.0628 25.1389 81.3571 25.9314 80.8547 26.6701C83.0285 26.2339 85.4187 25.4581 87.1766 24.5626C88.705 23.784 89.7525 22.9191 89.7525 22.1219C89.7525 21.914 89.5807 21.7971 89.3671 21.7331C89.1313 21.6625 88.8378 21.6514 88.6326 21.6514ZM56.6713 23.1743L56.6286 23.19C56.5951 23.1975 54.8763 23.6568 53.2856 24.6851C52.4879 25.2011 51.7209 25.8627 51.2251 26.6785C51.0626 26.9467 50.9576 27.2882 50.9576 27.626C50.9576 27.8441 51.0013 28.0594 51.0978 28.2524C51.1944 28.4454 51.3476 28.6199 51.5649 28.7517C51.8435 28.9196 52.2326 29.0254 52.7545 29.0254C53.3683 29.0254 54.087 28.8435 54.8262 28.451C55.4864 28.1011 56.1661 27.5777 56.8096 26.8631C57.3631 26.2479 57.7224 25.6576 57.8794 25.1166C58.0345 24.5821 57.9955 24.0884 57.7587 23.6541C57.7048 23.5529 57.6389 23.4555 57.5683 23.3673L57.3426 23.126L56.6713 23.1743ZM79.2557 28.941C79.2547 28.7749 79.277 28.4788 79.3188 28.1948C79.3429 28.0269 79.3764 27.8608 79.4154 27.7216L78.5769 27.8116C78.2741 27.8357 77.9807 27.8506 77.7086 27.8524C77.1171 27.8552 76.5813 27.768 76.1105 27.5944C75.6351 27.419 75.2209 27.1545 74.8745 26.8037C74.4548 26.3815 74.1484 25.8442 73.945 25.1899C73.7426 24.5385 73.6386 23.7673 73.6191 22.8708C73.607 22.8188 73.6024 22.8309 73.5457 22.8337L73.4965 22.8569L73.126 23.2606C71.2279 25.3403 69.4488 27.291 66.3315 29.1535L66.129 29.276C65.7232 29.5266 65.0574 29.9108 64.4028 30.0926C63.724 30.281 63.0554 30.2578 62.6737 29.6732C62.3599 29.1943 62.4611 28.4798 62.8975 27.6195C63.3442 26.7397 64.1483 25.6938 65.2162 24.5849C65.7641 24.016 66.0668 23.5984 66.2302 23.2968C66.389 23.0072 66.4169 22.83 66.4169 22.7288C66.4169 22.4764 66.1077 22.3808 65.4521 22.3808C64.7779 22.3808 63.7732 22.4857 62.4007 22.6277L58.3288 23.0378L58.47 23.268C58.73 23.7459 58.9027 24.4085 58.6882 25.241C58.5266 25.8646 58.1431 26.5903 57.4114 27.4042C56.3546 28.58 55.1558 29.302 54.0368 29.6305C52.7637 30.0045 51.5872 29.869 50.8388 29.3131C50.4432 29.0189 50.1247 28.5531 50.0671 27.9564C50.0207 27.4738 50.1442 26.8993 50.5333 26.2599C51.0078 25.4785 51.6773 24.8326 52.3942 24.3092C52.9968 23.8694 53.6376 23.5121 54.2254 23.2327C52.4499 23.1594 52.3951 22.74 52.3644 22.4968L52.3598 22.4281C52.3598 22.1442 52.566 21.927 52.8789 21.7702C53.1742 21.6217 53.5716 21.5224 53.9802 21.4704C54.217 21.4407 54.4603 21.4249 54.685 21.4249C55.2171 21.4249 55.777 21.5001 56.3017 21.657C56.7734 21.7989 57.2219 22.0096 57.6027 22.2926C59.4181 22.1256 61.2298 21.9363 63.0424 21.746C65.6499 21.4713 66.506 21.3804 67.0669 21.7943C67.1988 21.8917 67.2898 22.005 67.3501 22.1321C67.4096 22.2592 67.4411 22.3984 67.4532 22.5497C67.4792 22.868 67.3176 23.2596 67.0214 23.7023C66.7308 24.1329 66.3055 24.6201 65.7994 25.1463C64.8968 26.0836 64.2635 26.9402 63.8809 27.638C63.4519 28.4204 63.334 28.9957 63.5002 29.2472L63.5104 29.2611C63.607 29.3762 63.8725 29.3994 64.3257 29.2649C64.8058 29.1229 65.4846 28.7971 66.3742 28.2134C67.0112 27.7967 67.7569 27.2455 68.6139 26.5356C69.4701 25.8265 70.4535 24.8447 71.5492 23.7487L73.0006 22.3094C73.2179 22.0968 73.4101 21.9948 73.5652 21.9558C73.7305 21.914 73.8624 21.9381 73.9524 21.9734C74.0992 22.0309 74.2189 22.1414 74.3007 22.2843C74.3787 22.4226 74.4214 22.5961 74.4186 22.7854C74.4075 23.565 74.492 24.2554 74.6665 24.8363C74.8393 25.4126 75.1021 25.8859 75.4484 26.2349C75.7168 26.5059 76.0436 26.7109 76.4197 26.8464C76.7949 26.981 77.2267 27.046 77.704 27.0404C78.0151 27.0395 78.3549 27.02 78.7115 26.9894C79.0523 26.9597 79.42 26.9133 79.8017 26.8557C80.3059 25.9453 81.1221 24.9635 82.0526 24.0809C83.0109 23.1696 84.1001 22.3604 85.1067 21.8398C86.0697 21.3414 87.041 21.0194 87.8897 20.8978C88.7478 20.7744 89.4879 20.8533 89.9819 21.1521C90.1667 21.2635 90.3134 21.4073 90.41 21.5697C90.5084 21.7331 90.5622 21.9205 90.5622 22.1191C90.5622 23.1121 89.7701 23.9464 88.7422 24.6183C87.7309 25.2799 86.4838 25.7913 85.5506 26.1467C84.7121 26.465 83.8225 26.7518 82.9394 26.9931C82.0535 27.2371 81.1667 27.4376 80.3356 27.5814C80.1805 28.0835 80.0543 28.7507 80.1527 29.4041C80.226 29.8913 80.4266 30.3766 80.8343 30.7831C81.0739 31.0225 81.4964 31.2016 81.9978 31.3223C82.5865 31.4643 83.2858 31.5264 83.9302 31.5209C86.8646 31.506 100.139 28.7795 101.279 28.5456L101.356 28.5299C101.464 28.5076 101.574 28.5308 101.66 28.5874C101.744 28.6431 101.813 28.735 101.835 28.8445C101.857 28.9549 101.834 29.0644 101.777 29.1489C101.72 29.2314 101.632 29.2973 101.525 29.3196L101.47 29.3317C100.392 29.5553 87.0048 32.3301 83.9358 32.3301C81.7731 32.3301 80.6058 31.8271 79.979 31.1543C79.3448 30.4759 79.2594 29.6268 79.2557 28.941ZM3.43023 52.0849C1.87391 52.0849 1.01774 51.7619 0.552515 51.3591C0.0742876 50.9452 0 50.4515 0 50.1258C0 49.053 1.21739 47.8188 3.38287 46.5752C5.53165 45.3409 8.62666 44.0835 12.3995 42.9569C13.6921 42.5708 15.1779 42.1653 16.8642 41.7616C18.5394 41.3597 20.4124 40.956 22.4859 40.5737C25.97 37.5326 29.638 33.8456 33.1741 30.0258C37.8208 25.008 42.2585 19.7489 45.7798 15.417C48.0613 12.6143 50.1386 9.98061 51.8909 7.7181C55.3582 3.24505 57.5664 0.211352 57.598 0.166807C57.6639 0.0767893 57.7615 0.0192521 57.8636 0.00440383C57.9639 -0.0104445 58.0744 0.0118281 58.1645 0.0777175C58.2536 0.141751 58.3112 0.239193 58.327 0.340347C58.3418 0.440573 58.3205 0.551007 58.2564 0.641953C58.1115 0.840549 53.1798 7.60395 46.4094 15.9274C43.397 19.6302 39.716 24.0113 35.8085 28.3415C31.9697 32.5955 27.8997 36.8106 24.0144 40.3018C27.2561 39.7441 30.9668 39.2374 35.1734 38.8392C39.4988 38.43 44.3405 38.1339 49.7263 38.0216C59.8601 37.8082 68.4431 37.888 75.376 38.0885C89.1368 38.4847 96.4291 39.3599 96.5368 39.3738C96.6473 39.3849 96.743 39.4443 96.8052 39.525C96.8683 39.6058 96.9027 39.7125 96.8888 39.8239L96.886 39.8369C96.8702 39.9408 96.8126 40.0345 96.7365 40.0948C96.6575 40.157 96.5526 40.1895 96.4458 40.1756L96.4198 40.1728C95.7726 40.0986 79.4692 38.2063 49.744 38.8309C44.4853 38.9422 39.7588 39.2244 35.5355 39.6169C30.6641 40.0689 26.4492 40.6702 22.8509 41.3291L22.681 41.4757C19.95 43.8338 15.7481 47.0039 11.6576 49.2618C8.65451 50.9165 5.70622 52.0849 3.43023 52.0849Z" fill="white"/>
</svg>
