<svg width="238" height="24" viewBox="0 0 238 24" fill="none" xmlns="http://www.w3.org/2000/svg">
<path d="M13.3467 23.4809L4.67484 4.16187V19.4982C4.67484 20.9119 4.82728 21.7954 5.12628 22.1471C5.5384 22.6205 6.19319 22.8576 7.09119 22.8576H7.89301V23.4809H0V22.8576H0.807306C1.76705 22.8576 2.44483 22.5632 2.85091 21.974C3.09358 21.6108 3.21824 20.7851 3.21824 19.4982V4.50246C3.21824 3.48614 3.10503 2.7476 2.88481 2.29728C2.7268 1.96823 2.43879 1.69703 2.02125 1.47218C1.59759 1.25279 0.925852 1.14314 0 1.14314V0.51971H6.4364L14.5328 18.4708L22.5553 0.51971H28.93V1.14314H28.1451C27.1684 1.14314 26.4852 1.43745 26.0785 2.02607C25.8358 2.38929 25.7118 3.21494 25.7118 4.50246V19.4982C25.7118 20.9119 25.8697 21.7954 26.1802 22.1471C26.5923 22.6205 27.2471 22.8576 28.1451 22.8576H28.93V23.4809H19.3093V22.8576H20.1165C21.0872 22.8576 21.765 22.5632 22.1602 21.974C22.4029 21.6108 22.5275 20.7851 22.5275 19.4982V4.16187L13.8889 23.4809H13.3467ZM41.9893 0C44.8964 0 47.4205 1.13151 49.5488 3.39405C51.6832 5.65668 52.7501 8.4792 52.7501 11.8672C52.7501 15.3534 51.6772 18.2454 49.5265 20.5481C47.3811 22.8515 44.7778 24.0001 41.7236 24.0001C38.6409 24.0001 36.0496 22.8747 33.9492 20.6291C31.8487 18.3837 30.7987 15.4807 30.7987 11.9135C30.7987 8.27137 32.0126 5.29892 34.4346 2.99563C36.5405 0.998675 39.0585 0 41.9893 0ZM41.6728 1.21197C39.674 1.21197 38.0648 1.97425 36.8569 3.4977C35.3495 5.39702 34.5925 8.17326 34.5925 11.8325C34.5925 15.5788 35.3719 18.4647 36.9356 20.4847C38.1387 22.0203 39.7193 22.7881 41.6897 22.7881C43.7956 22.7881 45.5289 21.9454 46.9007 20.2654C48.2726 18.5799 48.9558 15.931 48.9558 12.3059C48.9558 8.37501 48.1994 5.4433 46.692 3.51534C45.484 1.97979 43.8126 1.21197 41.6728 1.21197ZM66.4532 0C69.3604 0 71.8845 1.13151 74.0128 3.39405C76.1472 5.65668 77.2141 8.4792 77.2141 11.8672C77.2141 15.3534 76.1411 18.2454 73.9904 20.5481C71.8446 22.8515 69.2418 24.0001 66.1876 24.0001C63.1049 24.0001 60.5136 22.8747 58.4131 20.6291C56.3126 18.3837 55.2627 15.4807 55.2627 11.9135C55.2627 8.27137 56.4766 5.29892 58.8985 2.99563C61.0044 0.998675 63.5224 0 66.4532 0ZM66.1367 1.21197C64.1379 1.21197 62.5288 1.97425 61.3209 3.4977C59.8135 5.39702 59.0564 8.17326 59.0564 11.8325C59.0564 15.5788 59.8358 18.4647 61.3996 20.4847C62.6026 22.0203 64.1833 22.7881 66.1537 22.7881C68.2596 22.7881 69.9928 21.9454 71.3652 20.2654C72.7371 18.5799 73.4203 15.931 73.4203 12.3059C73.4203 8.37501 72.6634 5.4433 71.1559 3.51534C69.948 1.97979 68.2765 1.21197 66.1367 1.21197ZM79.1167 23.4809V22.8576H79.9579C80.9068 22.8576 81.5785 22.5455 81.9737 21.9277C82.2163 21.5584 82.3349 20.7218 82.3349 19.4287V4.57137C82.3349 3.14001 82.1824 2.24546 81.872 1.88722C81.4429 1.39117 80.8051 1.14314 79.9579 1.14314H79.1167V0.51971H88.2467C91.5998 0.51971 94.1523 0.90611 95.897 1.68548C97.6471 2.46484 99.0529 3.76337 100.114 5.58168C101.181 7.39943 101.712 9.50106 101.712 11.8788C101.712 15.0766 100.764 17.7432 98.8665 19.8906C96.7382 22.286 93.497 23.4809 89.1386 23.4809H79.1167ZM85.5192 21.7954C86.9196 22.1124 88.0881 22.2689 89.0369 22.2689C91.5889 22.2689 93.7064 21.3507 95.3942 19.5092C97.0765 17.6738 97.9177 15.1803 97.9177 12.0348C97.9177 8.86552 97.0765 6.36658 95.3942 4.54273C93.7064 2.71287 91.5436 1.80067 88.9014 1.80067C87.9132 1.80067 86.784 1.9627 85.5192 2.29118V21.7954ZM118.554 0V7.93077H117.944C117.747 6.40677 117.391 5.19472 116.877 4.29415C116.363 3.39405 115.629 2.67814 114.676 2.14735C113.727 1.61601 112.745 1.3509 111.728 1.3509C110.576 1.3509 109.628 1.70858 108.877 2.42402C108.126 3.14001 107.748 3.95957 107.748 4.87177C107.748 5.57013 107.984 6.21057 108.459 6.78763C109.148 7.63093 110.774 8.76196 113.348 10.1701C115.449 11.3249 116.883 12.2078 117.65 12.8196C118.418 13.4375 119.011 14.159 119.424 14.9956C119.836 15.8324 120.044 16.7043 120.044 17.6219C120.044 19.3592 119.384 20.8546 118.068 22.1124C116.748 23.3713 115.048 24.0001 112.976 24.0001C112.321 24.0001 111.711 23.9483 111.135 23.8441C110.791 23.7862 110.085 23.579 109.007 23.2208C107.934 22.863 107.251 22.6839 106.963 22.6839C106.686 22.6839 106.466 22.7705 106.308 22.938C106.15 23.1111 106.031 23.4633 105.952 24.0001H105.342V16.1388H105.952C106.24 17.7841 106.624 19.0187 107.11 19.8327C107.595 20.6523 108.34 21.3336 109.34 21.8704C110.339 22.4128 111.434 22.6839 112.626 22.6839C114.003 22.6839 115.099 22.3091 115.895 21.5645C116.696 20.8138 117.097 19.9309 117.097 18.915C117.097 18.3489 116.945 17.778 116.646 17.2009C116.341 16.6233 115.872 16.0864 115.234 15.5843C114.805 15.2437 113.625 14.5283 111.7 13.4314C109.774 12.3407 108.403 11.4632 107.589 10.8112C106.776 10.1591 106.156 9.43159 105.737 8.64621C105.314 7.85577 105.105 6.98439 105.105 6.03746C105.105 4.39281 105.727 2.97245 106.963 1.78358C108.199 0.594711 109.78 0 111.688 0C112.885 0 114.15 0.300401 115.488 0.894559C116.109 1.17787 116.544 1.31617 116.798 1.31617C117.086 1.31617 117.323 1.22961 117.504 1.05659C117.684 0.87747 117.831 0.530786 117.944 0H118.554ZM141.46 0.51971L141.697 5.91626H141.07C140.946 4.96988 140.782 4.28861 140.573 3.88465C140.229 3.23203 139.777 2.7476 139.207 2.44166C138.637 2.12971 137.892 1.97425 136.966 1.97425H133.804V19.4982C133.804 20.9119 133.95 21.7954 134.25 22.1471C134.667 22.6205 135.311 22.8576 136.181 22.8576H136.954V23.4809H127.401V22.8576H128.209C129.168 22.8576 129.846 22.5632 130.253 21.974C130.495 21.6108 130.62 20.7851 130.62 19.4982V1.97425H127.927C126.876 1.97425 126.131 2.05471 125.691 2.21072C125.115 2.42402 124.629 2.83407 124.217 3.44587C123.81 4.05222 123.568 4.87731 123.488 5.91626H122.862L123.099 0.51971H141.46ZM154.304 0C157.212 0 159.736 1.13151 161.864 3.39405C163.999 5.65668 165.066 8.4792 165.066 11.8672C165.066 15.3534 163.993 18.2454 161.842 20.5481C159.696 22.8515 157.093 24.0001 154.039 24.0001C150.956 24.0001 148.365 22.8747 146.265 20.6291C144.164 18.3837 143.114 15.4807 143.114 11.9135C143.114 8.27137 144.328 5.29892 146.75 2.99563C148.856 0.998675 151.374 0 154.304 0ZM153.988 1.21197C151.989 1.21197 150.38 1.97425 149.172 3.4977C147.665 5.39702 146.908 8.17326 146.908 11.8325C146.908 15.5788 147.687 18.4647 149.251 20.4847C150.454 22.0203 152.035 22.7881 154.005 22.7881C156.111 22.7881 157.844 21.9454 159.216 20.2654C160.588 18.5799 161.271 15.931 161.271 12.3059C161.271 8.37501 160.515 5.4433 159.007 3.51534C157.799 1.97979 156.128 1.21197 153.988 1.21197ZM189.304 23.4809H183.291L175.663 12.7447C175.115 12.7678 174.669 12.7794 174.325 12.7794C174.183 12.7794 174.032 12.7734 173.873 12.7678C173.71 12.7618 173.546 12.7563 173.371 12.7447V19.4287C173.371 20.8717 173.523 21.7663 173.834 22.1124C174.252 22.609 174.878 22.8576 175.714 22.8576H176.589V23.4809H166.968V22.8576H167.809C168.758 22.8576 169.435 22.5395 169.842 21.9106C170.074 21.5645 170.186 20.7333 170.186 19.4287V4.57137C170.186 3.12846 170.034 2.2339 169.723 1.88722C169.294 1.39117 168.657 1.14314 167.809 1.14314H166.968V0.51971H175.144C177.532 0.51971 179.288 0.698352 180.417 1.0505C181.552 1.40826 182.512 2.06634 183.296 3.01873C184.087 3.9712 184.482 5.10825 184.482 6.42995C184.482 7.84422 184.031 9.06782 183.132 10.1068C182.229 11.1457 180.841 11.8788 178.949 12.312L183.595 18.8858C184.657 20.3982 185.566 21.4085 186.328 21.9051C187.085 22.4072 188.078 22.7186 189.304 22.8576V23.4809ZM173.371 11.671C173.579 11.671 173.76 11.671 173.913 11.6765C174.065 11.6826 174.189 11.6886 174.286 11.6886C176.403 11.6886 178.001 11.2152 179.073 10.2682C180.151 9.31585 180.688 8.10989 180.688 6.6438C180.688 5.21237 180.253 4.04612 179.39 3.14603C178.52 2.25099 177.368 1.80067 175.94 1.80067C175.307 1.80067 174.449 1.90486 173.371 2.11262V11.671ZM199.455 22.8576V23.4809H189.834V22.8576H190.63C191.562 22.8576 192.234 22.5803 192.658 22.0319C192.923 21.6681 193.053 20.8022 193.053 19.4287V4.57137C193.053 3.41114 192.979 2.64341 192.838 2.2741C192.725 1.99134 192.5 1.74885 192.155 1.5471C191.669 1.27597 191.161 1.14314 190.63 1.14314H189.834V0.51971H199.455V1.14314H198.648C197.733 1.14314 197.067 1.41981 196.649 1.96823C196.373 2.33201 196.237 3.19785 196.237 4.57137V19.4287C196.237 20.5889 196.31 21.3567 196.452 21.726C196.559 22.0087 196.79 22.2512 197.146 22.4535C197.62 22.7247 198.117 22.8576 198.648 22.8576H199.455ZM207.348 1.76649V10.8398H212.294C213.576 10.8398 214.428 10.6436 214.857 10.2512C215.433 9.73144 215.75 8.81979 215.817 7.51518H216.427V15.5154H215.817C215.665 14.3955 215.507 13.6739 215.354 13.3565C215.157 12.964 214.829 12.6521 214.378 12.4272C213.926 12.2023 213.232 12.0866 212.294 12.0866H207.348V19.6596C207.348 20.6755 207.394 21.2933 207.478 21.5121C207.569 21.7315 207.721 21.9106 207.941 22.0374C208.162 22.1702 208.585 22.2341 209.2 22.2341H213C214.265 22.2341 215.185 22.1416 215.761 21.9625C216.331 21.7839 216.884 21.4256 217.41 20.8948C218.093 20.1965 218.793 19.1399 219.509 17.7317H220.187L218.251 23.4809H200.946V22.8576H201.742C202.272 22.8576 202.775 22.7247 203.249 22.4645C203.605 22.286 203.847 22.0148 203.972 21.6511C204.102 21.2873 204.164 20.5481 204.164 19.4287V4.50246C204.164 3.04737 204.023 2.15289 203.735 1.81831C203.334 1.36799 202.673 1.14314 201.742 1.14314H200.946V0.51971H218.256L218.493 5.57558H217.85C217.618 4.35808 217.364 3.52088 217.082 3.06501C216.8 2.60867 216.382 2.26254 215.834 2.02006C215.394 1.85304 214.615 1.76649 213.503 1.76649H207.348ZM236.509 0V7.93077H235.9C235.702 6.40677 235.347 5.19472 234.833 4.29415C234.319 3.39405 233.585 2.67814 232.631 2.14735C231.682 1.61601 230.7 1.3509 229.684 1.3509C228.532 1.3509 227.583 1.70858 226.832 2.42402C226.081 3.14001 225.703 3.95957 225.703 4.87177C225.703 5.57013 225.94 6.21057 226.415 6.78763C227.104 7.63093 228.73 8.76196 231.305 10.1701C233.404 11.3249 234.839 12.2078 235.607 12.8196C236.374 13.4375 236.967 14.159 237.379 14.9956C237.791 15.8324 238 16.7043 238 17.6219C238 19.3592 237.34 20.8546 236.024 22.1124C234.703 23.3713 233.004 24.0001 230.932 24.0001C230.276 24.0001 229.667 23.9483 229.091 23.8441C228.747 23.7862 228.041 23.579 226.963 23.2208C225.89 22.863 225.206 22.6839 224.918 22.6839C224.642 22.6839 224.422 22.7705 224.264 22.938C224.106 23.1111 223.987 23.4633 223.908 24.0001H223.298V16.1388H223.908C224.196 17.7841 224.58 19.0187 225.065 19.8327C225.551 20.6523 226.296 21.3336 227.295 21.8704C228.295 22.4128 229.39 22.6839 230.581 22.6839C231.959 22.6839 233.054 22.3091 233.85 21.5645C234.652 20.8138 235.053 19.9309 235.053 18.915C235.053 18.3489 234.901 17.778 234.601 17.2009C234.296 16.6233 233.828 16.0864 233.19 15.5843C232.761 15.2437 231.581 14.5283 229.655 13.4314C227.73 12.3407 226.359 11.4632 225.545 10.8112C224.732 10.1591 224.111 9.43159 223.693 8.64621C223.27 7.85577 223.061 6.98439 223.061 6.03746C223.061 4.39281 223.682 2.97245 224.918 1.78358C226.155 0.594711 227.736 0 229.645 0C230.841 0 232.106 0.300401 233.444 0.894559C234.065 1.17787 234.5 1.31617 234.754 1.31617C235.042 1.31617 235.279 1.22961 235.46 1.05659C235.64 0.87747 235.787 0.530786 235.9 0H236.509Z" fill="#7F4D36"/>
</svg>
