<svg width="223" height="67" viewBox="0 0 223 67" fill="none" xmlns="http://www.w3.org/2000/svg">
<path d="M12.5057 38.519L4.37995 20.8174V34.8702C4.37995 36.1652 4.52305 36.9738 4.80302 37.2972C5.04376 37.5307 5.3331 37.7099 5.651 37.8223C5.9689 37.9346 6.30777 37.9775 6.64414 37.948H7.39562V38.5177H0V37.948H0.755471C1.65493 37.948 2.28997 37.6785 2.67037 37.1385C2.89745 36.8055 3.01433 36.0491 3.01433 34.8702V21.1295C3.05639 20.4418 2.95038 19.7531 2.70325 19.1087C2.52241 18.7779 2.23856 18.5132 1.89357 18.3536C1.29293 18.1156 0.646119 18.0123 0 18.0512L0 17.4815H6.03088L13.6167 33.9297L21.1336 17.4802H27.1081V18.0499H26.3713C25.4558 18.0499 24.8159 18.3199 24.435 18.8589C24.2075 19.192 24.0911 19.9484 24.0911 21.1281V34.8702C24.0911 36.1652 24.2391 36.9738 24.5301 37.2972C24.7708 37.5308 25.0602 37.71 25.3781 37.8224C25.696 37.9348 26.0349 37.9776 26.3713 37.948H27.1081V38.5177H18.0922V37.948H18.8477C19.7573 37.948 20.3919 37.6785 20.7626 37.1385C20.9901 36.8055 21.1065 36.0491 21.1065 34.8702V20.8174L13.0137 38.519H12.5057ZM39.3427 17.0038C40.6793 16.9991 42.0017 17.2739 43.2226 17.8103C44.4435 18.3466 45.5351 19.1323 46.4255 20.1154C47.4196 21.1507 48.1963 22.3697 48.7111 23.7021C49.2259 25.0345 49.4686 26.4541 49.4251 27.8793C49.4251 31.0735 48.4178 33.7249 46.4032 35.8334C45.4742 36.8246 44.3485 37.6169 43.0959 38.1611C41.8433 38.7052 40.4907 38.9896 39.122 38.9966C37.7533 39.0036 36.3978 38.733 35.1396 38.2017C33.8814 37.6703 32.7474 36.8896 31.808 35.9079C29.8399 33.8502 28.8559 31.1882 28.8559 27.9218C28.8559 24.5847 29.9915 21.8609 32.2626 19.7503C34.1619 17.9482 36.7074 16.9607 39.3427 17.0038ZM39.0458 18.1143C38.1795 18.0876 37.3191 18.2634 36.5349 18.6274C35.7507 18.9914 35.065 19.5333 34.5339 20.2087C33.1213 21.9494 32.414 24.4952 32.4119 27.846C32.4119 31.2789 33.1438 33.9215 34.6077 35.7738C35.126 36.4501 35.8007 36.9945 36.5756 37.3616C37.3504 37.7288 38.203 37.908 39.0623 37.8844C40.0023 37.8993 40.9328 37.6982 41.7803 37.297C42.6278 36.8957 43.3689 36.3054 43.9449 35.5727C45.2306 34.0289 45.8725 31.598 45.8704 28.2799C45.8704 24.6778 45.1634 21.9928 43.7493 20.2249C43.1912 19.5307 42.4736 18.9772 41.6559 18.6103C40.8382 18.2433 39.9433 18.0733 39.0458 18.1143ZM62.2646 17.0038C63.6012 16.999 64.9237 17.2739 66.1447 17.8103C67.3656 18.3466 68.4574 19.1323 69.3478 20.1154C70.3418 21.1508 71.1185 22.3697 71.6333 23.7021C72.1481 25.0345 72.3908 26.4541 72.3475 27.8793C72.3475 31.0735 71.3402 33.7249 69.3256 35.8334C68.3965 36.8247 67.2707 37.6169 66.0181 38.1611C64.7655 38.7052 63.4128 38.9896 62.0441 38.9966C60.6754 39.0036 59.3198 38.733 58.0616 38.2017C56.8033 37.6704 55.6693 36.8896 54.7299 35.9079C52.7621 33.8502 51.7782 31.1882 51.7782 27.9218C51.7782 24.5847 52.9138 21.8609 55.1849 19.7503C57.084 17.9492 59.6288 16.9624 62.2632 17.0056L62.2646 17.0038ZM61.9682 18.1143C61.1018 18.0875 60.2413 18.2633 59.457 18.6273C58.6727 18.9913 57.987 19.5332 57.4558 20.2087C56.0435 21.9494 55.3362 24.4952 55.3338 27.846C55.3338 31.2789 56.0657 33.9215 57.5296 35.7738C58.0478 36.4501 58.7225 36.9944 59.4972 37.3615C60.272 37.7287 61.1245 37.9079 61.9837 37.8844C62.9238 37.8994 63.8545 37.6983 64.7021 37.297C65.5498 36.8958 66.291 36.3054 66.8672 35.5727C68.1524 34.0289 68.7942 31.598 68.7927 28.2799C68.7927 24.6778 68.0854 21.9928 66.6708 20.2249C66.1127 19.5307 65.3952 18.9772 64.5776 18.6103C63.76 18.2433 62.8655 18.0733 61.9682 18.1143ZM74.1299 38.519V37.9493H74.9178C75.2808 37.9834 75.6466 37.9227 75.9782 37.7731C76.3099 37.6236 76.5957 37.3905 76.807 37.0973C77.034 36.759 77.1451 35.9925 77.1451 34.8075V21.1926C77.1451 19.8813 77.0025 19.0614 76.7114 18.7331C76.482 18.496 76.2022 18.3119 75.8921 18.194C75.582 18.0761 75.2493 18.0273 74.9178 18.0512H74.1299V17.4815H82.6845C85.8249 17.4815 88.2143 17.8375 89.8526 18.5495C91.5236 19.2913 92.9088 20.5427 93.8042 22.1195C94.8258 23.8729 95.3433 25.8679 95.3009 27.8898C95.3009 30.8199 94.4121 33.2669 92.6345 35.2309C90.6401 37.4256 87.6017 38.5221 83.5195 38.5203L74.1299 38.519ZM80.1292 36.9746C81.209 37.2355 82.314 37.3809 83.4253 37.4085C84.544 37.435 85.6553 37.2228 86.6831 36.7864C87.7108 36.35 88.6309 35.6998 89.3802 34.8803C90.9566 33.1983 91.7447 30.9153 91.7444 28.0314C91.7444 25.1276 90.9563 22.8392 89.3802 21.1663C88.6082 20.3417 87.6653 19.6905 86.6156 19.257C85.5659 18.8235 84.4339 18.6178 83.2964 18.6538C82.2253 18.673 81.1607 18.8241 80.1275 19.1035V36.9746H80.1292ZM111.082 17.0038V24.2699H110.51C110.397 23.1067 110.058 21.9759 109.511 20.9393C109.022 20.1074 108.308 19.4263 107.448 18.9724C106.607 18.4983 105.655 18.2469 104.686 18.2427C103.699 18.2089 102.738 18.5624 102.015 19.2257C101.688 19.5049 101.425 19.8491 101.243 20.2356C101.06 20.6222 100.963 21.0424 100.957 21.4687C100.958 22.1138 101.195 22.7368 101.623 23.2243C102.269 23.9969 103.792 25.0333 106.205 26.3235C107.607 27.0349 108.954 27.8464 110.236 28.7514C110.932 29.2867 111.5 29.9675 111.897 30.745C112.28 31.4911 112.479 32.3154 112.479 33.1514C112.483 33.9275 112.321 34.6956 112.001 35.405C111.682 36.1143 111.214 36.7487 110.627 37.2661C109.33 38.4415 107.615 39.063 105.855 38.9949C105.277 38.998 104.7 38.9501 104.131 38.8521C103.455 38.7013 102.789 38.5111 102.136 38.2824C101.518 38.0476 100.876 37.8826 100.221 37.7906C100.108 37.785 99.9948 37.8028 99.8891 37.8429C99.7835 37.883 99.6876 37.9445 99.6075 38.0234C99.4094 38.3122 99.2941 38.6485 99.2738 38.9967H98.7023V31.7915H99.2738C99.4336 32.9733 99.8006 34.1188 100.359 35.1765C100.867 35.9766 101.59 36.6227 102.447 37.0434C103.394 37.5428 104.453 37.799 105.526 37.7885C106.643 37.8487 107.74 37.4814 108.589 36.763C108.942 36.4616 109.226 36.0888 109.42 35.6699C109.615 35.251 109.715 34.7958 109.716 34.3351C109.707 33.7853 109.561 33.2461 109.293 32.7644C108.962 32.1845 108.512 31.6798 107.97 31.2832C106.902 30.569 105.797 29.9107 104.658 29.311C103.318 28.6032 102.03 27.8008 100.807 26.9099C100.098 26.372 99.5085 25.6971 99.0738 24.9264C98.6753 24.1914 98.4714 23.3692 98.481 22.5358C98.4763 21.8018 98.629 21.0752 98.929 20.4035C99.229 19.7318 99.6695 19.1302 100.222 18.638C100.814 18.0917 101.511 17.6662 102.27 17.3857C103.03 17.1053 103.839 16.9755 104.65 17.0038C105.881 17.0297 107.094 17.309 108.21 17.8238C108.592 18.0241 109.008 18.1549 109.437 18.2099C109.68 18.2198 109.918 18.1343 110.098 17.9719C110.322 17.692 110.465 17.3574 110.511 17.0038H111.082ZM132.544 17.4802L132.766 22.4249H132.179C132.124 21.7841 131.967 21.1558 131.713 20.5632C131.432 20.0048 130.986 19.5437 130.433 19.2411C129.78 18.9295 129.058 18.7824 128.333 18.8129H125.37V34.8702C125.37 36.1652 125.508 36.9738 125.789 37.2972C126.025 37.5281 126.308 37.7058 126.621 37.8182C126.933 37.9305 127.266 37.9748 127.598 37.948H128.323V38.5177H119.371V37.948H120.127C121.026 37.948 121.661 37.6785 122.042 37.1385C122.269 36.8055 122.385 36.0491 122.385 34.8702V18.8129H119.863C119.157 18.7814 118.451 18.8552 117.767 19.032C117.196 19.2539 116.712 19.6505 116.387 20.1636C115.965 20.8476 115.73 21.6272 115.704 22.4271H115.117L115.339 17.4824L132.544 17.4802ZM144.578 17.0038C145.915 16.999 147.238 17.2738 148.459 17.8101C149.68 18.3465 150.772 19.1322 151.662 20.1154C152.656 21.1507 153.433 22.3697 153.948 23.7021C154.463 25.0345 154.705 26.4541 154.662 27.8793C154.662 31.0735 153.654 33.7249 151.64 35.8334C150.711 36.8246 149.585 37.6169 148.333 38.1611C147.08 38.7052 145.727 38.9896 144.359 38.9966C142.99 39.0036 141.634 38.733 140.376 38.2017C139.118 37.6703 137.984 36.8896 137.045 35.9079C135.077 33.8502 134.093 31.1882 134.093 27.9218C134.093 24.5847 135.228 21.8609 137.499 19.7503C139.398 17.9493 141.943 16.9626 144.577 17.0056L144.578 17.0038ZM144.283 18.1143C143.416 18.0876 142.556 18.2634 141.771 18.6274C140.987 18.9914 140.301 19.5333 139.77 20.2087C138.358 21.9494 137.651 24.4952 137.649 27.846C137.649 31.2789 138.38 33.9215 139.844 35.7738C140.362 36.4501 141.037 36.9944 141.812 37.3615C142.587 37.7287 143.439 37.9079 144.299 37.8844C145.238 37.8994 146.169 37.6983 147.017 37.297C147.864 36.8958 148.605 36.3054 149.181 35.5727C150.466 34.0289 151.108 31.598 151.107 28.2799C151.107 24.6778 150.4 21.9928 148.986 20.2249C148.427 19.5307 147.71 18.9772 146.892 18.6103C146.074 18.2433 145.18 18.0733 144.283 18.1143ZM177.372 38.519H171.738L164.591 28.6817C164.078 28.7028 163.66 28.7133 163.337 28.7133C163.204 28.7133 163.062 28.708 162.914 28.7028C162.765 28.6975 162.607 28.6922 162.443 28.6817V34.8062C162.443 36.1284 162.586 36.9483 162.877 37.2652C163.1 37.5021 163.374 37.6866 163.679 37.8048C163.984 37.923 164.312 37.9719 164.638 37.948H165.458V38.5177H156.444V37.948H157.232C157.599 37.9804 157.968 37.9174 158.302 37.7651C158.636 37.6128 158.924 37.3767 159.137 37.0802C159.354 36.7634 159.459 36.0017 159.459 34.8062V21.1926C159.459 19.8705 159.315 19.0507 159.026 18.7331C158.796 18.4961 158.516 18.312 158.206 18.1941C157.896 18.0762 157.564 18.0274 157.232 18.0512H156.444V17.4815H164.104C166.342 17.4815 167.989 17.6437 169.046 17.968C170.105 18.2942 171.043 18.9215 171.743 19.7713C172.485 20.6463 172.879 21.7568 172.854 22.8969C172.874 24.1362 172.423 25.338 171.59 26.2657C170.745 27.218 169.442 27.8898 167.67 28.2864L172.025 34.3101C173.019 35.6958 173.871 36.6214 174.585 37.0767C175.433 37.5787 176.387 37.8776 177.373 37.9493V38.519H177.372ZM162.443 27.6979C162.639 27.6979 162.808 27.6979 162.951 27.7031C163.094 27.7084 163.21 27.7141 163.3 27.7141C165.284 27.7141 166.779 27.2802 167.786 26.4125C168.274 26.0056 168.663 25.4961 168.925 24.9214C169.187 24.3466 169.315 23.7214 169.299 23.0915C169.323 22.5043 169.227 21.9185 169.018 21.3682C168.809 20.8179 168.491 20.3142 168.083 19.8866C167.659 19.4724 167.153 19.149 166.597 18.9369C166.041 18.7247 165.446 18.6284 164.85 18.6538C164.041 18.6783 163.235 18.7739 162.443 18.9396V27.6979ZM186.885 37.948V38.5177H177.869V37.948H178.615C178.969 37.9788 179.326 37.9263 179.656 37.7948C179.987 37.6633 180.28 37.4566 180.514 37.1916C180.762 36.8581 180.885 36.0648 180.885 34.8062V21.1926C180.924 20.4854 180.857 19.7764 180.684 19.089C180.553 18.8021 180.327 18.5674 180.044 18.4229C179.608 18.1802 179.115 18.0526 178.615 18.0525H177.869V17.4828H186.883V18.0525H186.128C185.777 18.0227 185.425 18.0757 185.099 18.2072C184.773 18.3386 184.484 18.5448 184.255 18.8085C183.996 19.142 183.869 19.9357 183.869 21.1939V34.8062C183.829 35.5134 183.897 36.2225 184.07 36.9098C184.201 37.2008 184.431 37.4371 184.721 37.5768C185.149 37.8202 185.634 37.9478 186.128 37.9467L186.885 37.948ZM194.28 18.6214V26.9349H198.915C200.114 26.9349 200.914 26.7552 201.314 26.3954C201.854 25.9195 202.15 25.0842 202.214 23.8886H202.785V31.2205H202.214C202.153 30.5459 202.007 29.8815 201.78 29.2422C201.579 28.8668 201.258 28.5671 200.866 28.3894C200.246 28.1475 199.58 28.0411 198.914 28.0774H194.279V35.0179C194.247 35.5864 194.287 36.1568 194.401 36.7152C194.486 36.9198 194.639 37.0899 194.835 37.1973C195.208 37.3477 195.612 37.4094 196.014 37.3774H199.574C200.444 37.4107 201.314 37.3268 202.161 37.128C202.749 36.9311 203.28 36.5953 203.706 36.1499C204.502 35.2839 205.165 34.3075 205.674 33.2517H206.308L204.494 38.5194H188.28V37.9497H189.025C189.52 37.9496 190.006 37.8257 190.438 37.5895C190.596 37.5167 190.738 37.4132 190.854 37.2852C190.97 37.1572 191.059 37.0073 191.115 36.8445C191.272 36.1773 191.333 35.4918 191.295 34.808V21.1295C191.295 19.7963 191.162 18.9768 190.893 18.67C190.518 18.2572 189.899 18.0512 189.027 18.0512H188.282V17.4815H204.502L204.724 22.1142H204.121C204.009 21.314 203.767 20.5371 203.402 19.8138C203.121 19.3839 202.713 19.0496 202.233 18.8563C201.522 18.6656 200.784 18.5872 200.048 18.624L194.28 18.6214ZM221.604 17.0025V24.2699H221.032C220.919 23.1067 220.579 21.9758 220.032 20.9393C219.543 20.1073 218.829 19.4261 217.969 18.9724C217.128 18.4983 216.177 18.2469 215.208 18.2427C214.221 18.2088 213.26 18.5623 212.536 19.2257C212.21 19.5049 211.946 19.8491 211.764 20.2357C211.582 20.6222 211.485 21.0424 211.479 21.4687C211.48 22.1138 211.717 22.7369 212.145 23.2243C212.79 23.997 214.317 25.0301 216.726 26.3235C218.128 27.035 219.476 27.8464 220.757 28.7514C221.454 29.2868 222.021 29.9676 222.418 30.745C222.801 31.4911 223 32.3154 223 33.1514C223.004 33.9274 222.842 34.6956 222.523 35.4049C222.203 36.1143 221.735 36.7487 221.149 37.2661C219.852 38.4414 218.136 39.0629 216.376 38.9949C215.798 38.9979 215.221 38.9501 214.651 38.8521C213.976 38.7013 213.31 38.5111 212.657 38.2824C212.04 38.0476 211.397 37.8827 210.742 37.7906C210.629 37.7851 210.516 37.8029 210.41 37.843C210.304 37.883 210.208 37.9445 210.128 38.0234C209.931 38.3126 209.816 38.6487 209.795 38.9967H209.224V31.7915H209.795C209.954 32.9734 210.321 34.1188 210.879 35.1765C211.388 35.9766 212.111 36.6227 212.968 37.0434C213.915 37.5427 214.974 37.7989 216.047 37.7885C217.164 37.8489 218.261 37.4814 219.11 36.763C219.464 36.4617 219.747 36.089 219.942 35.67C220.136 35.2511 220.237 34.7958 220.237 34.3351C220.228 33.7853 220.083 33.2461 219.814 32.7644C219.484 32.1844 219.033 31.6797 218.492 31.2832C217.423 30.5691 216.318 29.9108 215.18 29.311C213.839 28.6034 212.552 27.8009 211.329 26.9099C210.62 26.3721 210.03 25.6971 209.596 24.9264C209.197 24.1914 208.993 23.3691 209.003 22.5358C208.998 21.8018 209.151 21.0752 209.451 20.4035C209.751 19.7317 210.191 19.1301 210.743 18.638C211.336 18.0917 212.033 17.6661 212.793 17.3856C213.552 17.1052 214.361 16.9754 215.172 17.0038C216.403 17.0297 217.616 17.309 218.731 17.8238C219.114 18.0241 219.53 18.1549 219.959 18.2099C220.203 18.2199 220.44 18.1343 220.62 17.9719C220.844 17.6919 220.986 17.3573 221.033 17.0038L221.604 17.0025Z" fill="#94603F"/>
<path fill-rule="evenodd" clip-rule="evenodd" d="M119.315 66.894C118.631 66.6458 118.019 65.1191 117.479 62.3138C116.75 58.4109 116.334 54.4574 116.236 50.49V40.7973C116.268 39.9233 116.305 39.0566 116.347 38.1971C116.228 38.3949 116.09 38.6183 115.933 38.8673C113.248 43.3964 110.223 47.7233 106.883 51.8121C104.485 54.8076 102.359 56.5009 100.505 56.8922C100.23 56.9663 99.9453 57.0023 99.6599 56.9991H98.4337L98.4332 57C97.3597 56.7918 96.3841 56.2475 95.6528 55.4488C93.5816 53.3098 92.3821 49.6545 92.0545 44.483C92.0188 43.9129 92.0006 43.1999 92 42.344C91.9999 42.1359 92.0008 41.9352 92.0029 41.7419C91.8059 42.0459 91.6325 42.3092 91.4828 42.5316C90.5381 43.9748 89.698 44.8951 88.9627 45.2926C88.7496 45.389 88.5304 45.4704 88.3066 45.5361C88.0748 45.5952 87.8365 45.6226 87.5977 45.6178C87.3679 45.6195 87.1387 45.592 86.9154 45.5361C86.6903 45.4751 86.4771 45.3744 86.2852 45.2385C84.9547 44.445 83.9398 42.8214 83.2403 40.3677C83.0653 39.6461 82.8904 38.7799 82.7154 37.769C82.6712 37.5124 82.6098 37.2593 82.5318 37.0114C82.4793 36.8675 82.4351 36.7944 82.4005 36.7944C82.3301 36.7944 82.2344 36.8675 82.1119 37.0114C81.9693 37.1826 81.8378 37.3634 81.7183 37.5526C81.3684 38.058 80.9573 38.7345 80.4849 39.5821C80.0126 40.4296 79.3737 41.5756 78.5684 43.02C77.9727 44.1024 77.5354 44.8874 77.2563 45.3751C77.0182 45.7972 76.7553 46.2039 76.4691 46.5928C76.1061 47.1719 75.5985 47.6393 74.9995 47.9458C74.7239 48.0181 74.435 48.0181 74.1594 47.9458L74.1585 47.9449C73.8037 47.7969 73.5077 47.5298 73.3183 47.1868C73.0866 46.6417 72.9788 46.0491 73.0034 45.4545C73.0341 44.374 73.1927 43.3014 73.4758 42.2605C74.1002 39.508 75.1839 36.8884 76.6786 34.5187C77.8676 32.6065 79.0225 31.4696 80.1433 31.1082C80.6235 30.9639 81.1336 30.9639 81.6137 31.1082C82.1583 31.3449 82.5916 31.7918 82.8208 32.3534C83.0583 32.935 83.1659 33.5642 83.1357 34.1944V35.1686L83.3461 35.4392C83.5359 35.6835 83.6865 35.9576 83.7922 36.251C83.9681 36.7982 84.0997 37.3595 84.1858 37.9291C84.2555 38.3624 84.3166 38.6963 84.3691 38.9308C84.422 39.1658 84.4653 39.3642 84.5003 39.5261C84.5353 39.688 84.5878 39.8969 84.6582 40.149C85.148 41.9178 85.813 43.1448 86.653 43.83C86.9206 44.0989 87.2767 44.2537 87.6502 44.2634C87.9254 44.2555 88.195 44.1812 88.4374 44.0465C88.6527 43.9347 88.8553 43.7986 89.0414 43.6406C89.2774 43.4337 89.4968 43.2075 89.6975 42.9641C90.2142 42.4439 90.6803 41.8727 91.0891 41.2589C91.3429 40.8955 91.6716 40.4155 92.0754 39.8186C92.4275 34.4701 93.5473 29.8913 95.4348 26.0824C96.9245 23.2305 98.5054 21.5722 100.178 21.1075C100.407 21.0348 100.646 20.9987 100.887 21.0006C101.124 20.9964 101.361 21.0145 101.595 21.0545C102.903 21.4472 103.739 22.5883 104.103 24.4778C104.143 24.8866 104.161 25.2973 104.157 25.7081V26.9919C104.028 28.1917 103.809 29.3807 103.503 30.5493C103.212 31.6375 102.921 32.306 102.631 32.5546C102.544 32.5864 102.452 32.6045 102.359 32.6081H102.195C102.128 32.5785 102.068 32.5342 102.021 32.4786C101.974 32.423 101.94 32.3575 101.923 32.2872L101.814 32.0733L102.032 31.0569C102.177 30.0587 102.286 29.2566 102.359 28.6505C102.43 28.0647 102.467 27.4754 102.468 26.8854C102.468 26.6715 102.458 26.4572 102.441 26.2433C102.423 26.0294 102.413 25.8512 102.413 25.7086C102.318 25.1849 102.163 24.6734 101.95 24.1841C101.816 23.8152 101.556 23.5033 101.214 23.3013C101.109 23.2665 100.998 23.2484 100.887 23.2478C100.015 23.2478 98.9426 24.3891 97.6707 26.6715C96.3306 29.1942 95.3154 32.4243 94.6253 36.3617C94.6451 36.3603 94.6651 36.3599 94.6851 36.3606C94.7265 36.3553 94.7686 36.3628 94.8059 36.382C94.8433 36.4013 94.8743 36.4315 94.895 36.4688C94.9255 36.496 94.9504 36.5291 94.9684 36.5663C94.9864 36.6034 94.9972 36.6439 95 36.6853C94.996 36.7777 94.9783 36.869 94.9475 36.9559C94.8886 37.0763 94.7022 37.398 94.3881 37.9208C94.1506 39.7066 94.0268 41.5056 94.0179 43.3074C94.007 45.2638 94.1895 47.2166 94.5628 49.1384C94.7831 50.2843 95.1493 51.3984 95.6528 52.4547C96.6702 54.5232 97.9418 55.5574 99.4678 55.5571C100.558 55.5571 101.829 54.9865 103.283 53.8455C104.882 52.5264 107.063 49.9944 109.825 46.2494C112.049 43.2765 114.106 40.1872 115.988 36.9952C116.085 36.8371 116.204 36.693 116.342 36.567C116.371 36.543 116.403 36.5228 116.437 36.5066C116.631 33.1173 116.907 29.8428 117.263 26.6832C117.479 24.5177 117.704 22.5655 117.938 20.8266C118.172 19.0876 118.469 17.2242 118.829 15.2361C118.901 14.846 118.955 14.5443 118.991 14.331C119.021 14.1727 119.039 14.0124 119.045 13.8514V13.6917C119.029 13.6785 119.016 13.6623 119.007 13.6439C118.998 13.6256 118.992 13.6056 118.991 13.5852C118.992 13.578 118.991 13.5706 118.989 13.5638C118.987 13.5569 118.983 13.5506 118.978 13.5455C118.972 13.5403 118.966 13.5364 118.959 13.5341C118.955 13.5328 118.951 13.532 118.947 13.5317C118.944 13.5314 118.94 13.5315 118.937 13.532L118.775 13.5852C118.647 13.5927 118.521 13.6105 118.397 13.6384C118.217 13.6745 117.973 13.7366 117.667 13.8248C117.361 13.9129 116.956 14.0284 116.452 14.1713H116.344C113.858 14.846 111.643 15.4851 109.699 16.0885C107.754 16.6919 105.647 17.4018 103.377 18.2182C102.873 18.3956 102.513 18.511 102.297 18.5642C102.139 18.6089 101.975 18.6358 101.811 18.6445H101.649C101.515 18.6477 101.383 18.6104 101.271 18.5376C101.179 18.4551 101.106 18.3556 101.054 18.2448C101.015 18.1336 100.997 18.0163 101 17.8987C101.007 17.7498 101.056 17.6056 101.142 17.483C101.228 17.3604 101.347 17.2644 101.487 17.2061C101.94 16.9296 102.419 16.6978 102.918 16.514C103.62 16.2303 104.368 15.9463 105.16 15.6621C108.078 14.6327 112.148 13.461 117.37 12.1468L117.803 12.0403C118.198 11.9338 118.54 11.8362 118.829 11.7475C118.988 11.6926 119.15 11.6482 119.315 11.6143H119.369L119.45 11.5349C119.487 11.477 119.514 11.414 119.531 11.3481C119.577 11.1997 119.613 11.0486 119.639 10.8956C119.696 10.6169 119.769 10.3414 119.856 10.0703C119.891 9.89285 119.927 9.69718 119.963 9.48421C120.396 7.46071 120.819 5.61439 121.233 3.94525C121.647 2.2761 121.944 1.21126 122.125 0.750715C122.341 0.360272 122.566 0.13843 122.8 0.0851875C122.95 0.0435937 123.104 0.0150885 123.259 0C123.392 0.00355008 123.523 0.0336974 123.644 0.088612C123.765 0.143527 123.873 0.222063 123.962 0.319453C124.072 0.432427 124.157 0.566248 124.213 0.712773C124.268 0.859299 124.293 1.01547 124.286 1.17177C124.274 1.44467 124.22 1.71411 124.124 1.97041C123.98 2.43243 123.791 3.12487 123.557 4.04774C123.323 4.9706 123.089 5.92926 122.855 6.92371C122.62 7.91845 122.431 8.75287 122.287 9.42698C122.183 9.84718 122.111 10.2745 122.071 10.7052V10.7585C122.091 10.8117 122.128 10.8567 122.177 10.8858C122.226 10.9149 122.284 10.9264 122.341 10.9182H122.503C122.721 10.896 122.938 10.8604 123.152 10.8117C123.44 10.7407 123.782 10.6702 124.178 10.5988C130.027 9.3264 135.972 8.52513 141.953 8.20285C142.456 8.16765 143.131 8.1499 143.978 8.14961C144.825 8.14931 145.644 8.15819 146.436 8.17623C147.228 8.19427 147.805 8.20315 148.165 8.20285C150.11 8.38032 151.28 8.66443 151.675 9.05517C151.797 9.1644 151.89 9.30154 151.946 9.45449C151.976 9.54942 151.995 9.64782 152 9.74732C151.998 9.89585 151.961 10.0419 151.892 10.1737C151.851 10.2368 151.795 10.2892 151.729 10.3263C151.663 10.3634 151.589 10.3841 151.513 10.3867C151.369 10.3867 151.225 10.2623 151.081 10.0135C151.032 9.96388 150.987 9.91063 150.946 9.85425C150.892 9.78326 150.846 9.74732 150.811 9.74732C150.104 9.48308 149.352 9.35651 148.596 9.37462C147.551 9.33942 146.849 9.32168 146.489 9.32138C145.012 9.32138 143.391 9.37462 141.628 9.48111C138.17 9.76536 134.316 10.2802 130.066 11.0256C129.021 11.2385 127.878 11.4694 126.636 11.7182C125.394 11.9669 124.304 12.1976 123.367 12.4103C122.818 12.5164 122.276 12.6588 121.747 12.8367L121.584 12.9964C121.548 13.1384 121.421 13.7596 121.206 14.8599C120.991 15.9602 120.757 17.3006 120.504 18.881C120.252 20.4614 120.018 22.0325 119.802 23.5943C118.83 30.4468 118.217 37.3442 117.965 44.2589C117.928 44.8984 117.91 45.8927 117.91 47.2418V51.2092C117.91 52.5063 117.928 53.438 117.965 54.0045C118.252 59.7564 118.775 63.5379 119.531 65.3491C119.555 65.4679 119.611 65.5782 119.693 65.6681C119.737 65.7064 119.789 65.7356 119.844 65.754C119.9 65.7724 119.959 65.7795 120.017 65.775C120.133 65.7989 120.243 65.844 120.342 65.9081C120.419 65.9699 120.476 66.0535 120.504 66.1477C120.538 66.2139 120.556 66.2869 120.557 66.3611C120.558 66.4308 120.544 66.4998 120.516 66.5639C120.488 66.628 120.447 66.6858 120.396 66.7338C120.219 66.896 119.989 66.9904 119.747 67C119.597 66.9988 119.449 66.9624 119.315 66.894ZM75.8384 45.2921C75.5896 45.6442 75.3084 45.9706 74.9987 46.2668H74.9974C74.9361 46.3182 74.8646 46.355 74.7879 46.3745C74.6829 46.3745 74.6304 46.3024 74.6304 46.1581C74.5511 46.0093 74.5147 45.8403 74.5254 45.671C74.5319 45.4447 74.5494 45.2189 74.5779 44.9945C74.6356 44.5824 74.7234 44.1753 74.8403 43.7768C75.5625 40.5983 76.9216 37.6107 78.8304 35.0062C79.0756 34.7173 79.3557 34.4104 79.6705 34.0857C79.8916 33.8421 80.138 33.6243 80.4053 33.4363C80.5242 33.3359 80.672 33.2788 80.8256 33.2739C81.0355 33.2742 81.228 33.4186 81.4029 33.7069C81.5244 34.0074 81.6296 34.3147 81.7178 34.6274C81.7497 34.8424 81.7672 35.0594 81.7703 35.2768V35.4938C81.6849 35.7586 81.5412 35.9994 81.3504 36.1973C81.0008 36.7027 80.6072 37.3162 80.1696 38.0378C79.7319 38.7594 79.0932 39.8784 78.2535 41.3946C77.9383 41.9367 77.6408 42.442 77.3609 42.9104C77.1856 43.1991 77.0632 43.3975 76.9935 43.5057C76.6493 44.1282 76.2633 44.7251 75.8384 45.2921ZM122.061 41.5683C122.383 44.9749 123.025 46.7678 123.988 46.9471C124.085 46.979 124.187 46.9969 124.291 47C124.337 46.9973 124.382 46.9864 124.423 46.968C124.464 46.9495 124.501 46.9238 124.531 46.8924C124.621 46.8524 124.696 46.7911 124.75 46.7152C124.803 46.6392 124.831 46.5517 124.832 46.4621C124.825 46.3299 124.783 46.201 124.712 46.0851C124.494 45.7615 124.341 45.4064 124.26 45.0358C124.129 44.4226 124.039 43.8029 123.989 43.1801V42.3733C124.004 41.1314 124.105 39.8915 124.29 38.6606C124.298 38.3631 124.328 38.0665 124.38 37.7726C124.44 37.3958 124.49 37.0281 124.53 36.6695C124.569 36.3468 124.621 35.9702 124.681 35.5399C124.741 35.1093 124.811 34.7147 124.891 34.3561C124.972 33.7113 125.012 33.245 125.012 32.9572V32.6883C125.016 32.5429 124.996 32.3978 124.952 32.258C124.892 32.0566 124.759 31.8787 124.573 31.7521C124.388 31.6256 124.161 31.5576 123.928 31.5587C123.326 31.5587 122.884 31.9892 122.604 32.8501C122.523 33.1725 122.423 33.7464 122.303 34.5718C122.183 35.3971 122.102 36.1503 122.061 36.8313C122.015 37.2966 121.995 37.7636 122.001 38.2307V40.0891C122.002 40.7166 122.022 41.2097 122.061 41.5683ZM124.83 19.1296C124.83 19.8109 125.05 20.2591 125.492 20.4743C125.637 20.5525 125.805 20.5901 125.974 20.5823C126.123 20.5853 126.27 20.5476 126.395 20.4743C126.599 20.3028 126.759 20.0936 126.863 19.8614C126.966 19.6291 127.012 19.3793 126.997 19.1296C127.002 18.9576 126.982 18.7858 126.937 18.6186C126.882 18.4757 126.776 18.3529 126.636 18.2689C126.42 18.0982 126.142 18.0027 125.854 18C125.614 18.0121 125.384 18.0869 125.191 18.2152C125.077 18.3153 124.985 18.434 124.92 18.5648C124.85 18.7462 124.82 18.9379 124.83 19.1296ZM132.25 48.9455C131.383 48.6573 130.583 47.6844 129.85 46.0267C128.883 43.6563 128.178 41.1707 127.75 38.6216C127.65 38.0458 127.567 37.4963 127.5 36.9731C127.434 36.4498 127.367 35.8463 127.3 35.1625C127.1 33.0728 127 31.6318 127 30.8396V30.3533C127.04 29.9788 127.189 29.6278 127.425 29.3505C127.554 29.2148 127.721 29.1292 127.9 29.1073C128.039 29.109 128.176 29.1459 128.3 29.215C128.373 29.2399 128.44 29.282 128.496 29.3381C128.552 29.3942 128.596 29.463 128.625 29.5396C128.735 29.8333 128.802 30.1432 128.825 30.4587C128.875 30.891 128.933 31.5035 129 32.2963C129.066 33.377 129.174 34.6203 129.325 36.0261C129.475 37.4319 129.617 38.621 129.75 39.5934C130.35 43.269 131.133 45.7555 132.1 47.0529C132.138 47.0935 132.18 47.1298 132.225 47.161C132.269 47.193 132.311 47.2291 132.35 47.2691C132.395 47.3206 132.449 47.3616 132.509 47.3895C132.569 47.4175 132.634 47.4318 132.7 47.4316C132.811 47.4136 132.917 47.3705 133.012 47.3053C133.106 47.2401 133.187 47.1541 133.249 47.0529C133.572 46.6052 133.841 46.1148 134.05 45.5935C134.344 44.8796 134.603 44.1487 134.824 43.4042C135.107 42.4853 135.566 40.9809 136.199 38.8909C136.932 36.3326 137.573 34.1615 138.123 32.3774C138.674 30.5933 139.249 28.9089 139.85 27.3242C140.183 26.2795 140.508 25.3696 140.825 24.5945C141.001 24.1189 141.21 23.6582 141.45 23.2161C141.55 23.0725 141.633 23 141.7 23H141.8C141.866 23 141.916 23.054 141.95 23.1621C141.985 23.2069 142.003 23.2652 142 23.3242C141.995 23.4253 141.978 23.5254 141.95 23.6219C141.897 23.7989 141.83 23.9707 141.75 24.1352C140.482 27.4866 139.165 31.6128 137.8 36.5138C137.667 36.9824 137.542 37.4597 137.425 37.9457C137.308 38.4317 137.133 39.1072 136.9 39.972C136.833 40.1882 136.766 40.4225 136.7 40.675C136.166 42.8013 135.766 44.2785 135.5 45.1068C134.833 47.2333 134.133 48.4766 133.4 48.8365C133.304 48.8924 133.204 48.9376 133.1 48.9716C132.985 48.9942 132.867 49.0032 132.75 48.9987H132.55C132.447 49.0053 132.345 48.9872 132.25 48.9455ZM141.926 47.8284C142.511 48.4042 143.255 48.7939 144.063 48.9483C144.257 48.9847 144.454 49.0019 144.651 48.9998C145.914 48.9435 147.128 48.4964 148.124 47.7205C149.024 47.0459 149.848 46.2775 150.583 45.4284C151.664 44.1832 152.681 42.8845 153.63 41.5372C154.534 40.3024 155.372 39.0215 156.142 37.6997C156.213 37.5576 156.303 37.3885 156.409 37.1931C156.495 37.0279 156.603 36.8753 156.73 36.7397C156.811 36.6118 156.882 36.4782 156.944 36.3401C156.977 36.2642 156.995 36.1829 156.997 36.1003C157.003 36.0568 156.999 36.0125 156.985 35.9709C156.971 35.9293 156.948 35.8914 156.917 35.8604C156.886 35.8294 156.848 35.806 156.806 35.7922C156.764 35.7783 156.72 35.7744 156.676 35.7806C156.627 35.7791 156.577 35.7878 156.531 35.8061C156.485 35.8245 156.444 35.852 156.409 35.8871C156.285 36.0223 156.169 36.1648 156.062 36.3139C155.901 36.527 155.678 36.8467 155.394 37.273C155.251 37.522 155.127 37.7529 155.02 37.9657C154.841 38.2153 154.699 38.4107 154.592 38.5523C154.215 39.1612 153.805 39.7484 153.362 40.3112C152.792 41.0578 152.24 41.7508 151.705 42.3902C149.639 44.9133 147.821 46.4769 146.253 47.0811C145.809 47.2487 145.339 47.3388 144.864 47.3475C144.702 47.3457 144.541 47.3279 144.383 47.2942C143.242 46.9393 142.494 45.8378 142.138 43.9897C142.028 43.2844 141.975 42.5718 141.977 41.8582C141.986 40.6611 142.093 39.4668 142.298 38.2872C142.314 38.274 142.326 38.2577 142.336 38.2394C142.345 38.2211 142.35 38.2011 142.352 38.1806C142.37 37.9453 142.415 37.7127 142.485 37.4875C142.531 37.3581 142.604 37.24 142.7 37.1411C142.827 37.0188 142.961 36.9032 143.1 36.7948H143.154C143.367 36.5813 143.661 36.2881 144.036 35.9151C144.369 35.5879 144.681 35.2408 144.971 34.8756C146.503 32.8499 147.376 31.1265 147.59 29.7056V29.5453C147.615 29.3095 147.585 29.0712 147.501 28.8492C147.418 28.6273 147.283 28.4277 147.109 28.2664C146.917 28.0973 146.671 28.0027 146.415 28C146.174 28.0058 145.938 28.0602 145.719 28.1599C145.407 28.347 145.112 28.5611 144.838 28.7997C144.495 29.0881 144.182 29.4094 143.903 29.7589C141.852 32.5646 140.564 35.8514 140.162 39.3001C140.058 40.0776 140.004 40.8611 140.002 41.6455C139.981 42.8922 140.161 44.134 140.536 45.3236C140.771 46.2655 141.25 47.1293 141.926 47.8284ZM143.876 34.9027C143.644 35.1688 143.475 35.3555 143.368 35.4626C143.297 35.5341 143.243 35.5692 143.208 35.567C143.136 35.567 143.101 35.4964 143.101 35.3534C143.156 35.0135 143.255 34.6821 143.395 34.3676C143.591 33.8522 143.823 33.3015 144.09 32.7153C144.315 32.2099 144.574 31.7203 144.865 31.25C145.186 30.7532 145.479 30.3363 145.746 29.9991C146.012 29.6619 146.217 29.4753 146.36 29.4392H146.414C146.556 29.4392 146.627 29.5457 146.627 29.7589C146.603 30.0873 146.531 30.4105 146.414 30.7184C145.981 31.9166 145.348 33.0337 144.544 34.023C144.34 34.33 144.117 34.6238 143.876 34.9027Z" fill="black"/>
</svg>
