<svg width="133" height="39" viewBox="0 0 133 39" fill="none" xmlns="http://www.w3.org/2000/svg">
<path id="sandog" fill-rule="evenodd" clip-rule="evenodd" d="M34.4027 7.48657C33.7873 7.60966 33.2847 8.31741 33.1103 8.6559L32.991 8.64836C29.6156 8.43477 26.2525 8.22194 21.3863 13.1793C16.4628 18.1951 15.8474 24.1648 15.8474 25.3341L15.8473 25.425C15.845 26.6608 15.8392 29.7121 19.14 30.0422C21.8479 30.313 26.0534 26.4624 27.8176 24.5033C27.7415 24.7525 27.6435 25.0422 27.5364 25.359L27.5363 25.3592C27.1672 26.4509 26.6891 27.8651 26.6175 29.0575C26.556 29.7653 27.0175 30.0422 27.9715 30.0422C30.8332 30.0422 34.2797 27.0573 36.0029 25.488L34.8335 29.7037H38.5261L40.5571 21.18C41.0066 19.3018 41.5027 17.7335 42.3111 16.4411C44.101 13.5794 47.85 11.1389 49.2655 11.3023C50.5747 11.4533 50.0675 13.1151 49.5457 14.8246C49.5033 14.9634 49.4609 15.1024 49.4193 15.241C49.3548 15.4562 49.2647 15.7488 49.156 16.102C48.3318 18.7792 46.4345 24.942 46.4345 27.3343C46.4345 29.5006 47.7269 30.0422 48.3731 30.0422C50.6194 30.3499 54.8351 25.9803 54.989 25.7957C54.989 29.2668 57.1225 30.155 58.1892 30.1653C61.5045 30.1653 65.1837 26.3236 66.7529 24.685L66.8976 24.5341C66.5181 25.7444 65.7529 28.3436 65.7283 29.0575C65.6975 29.9499 66.3437 30.1653 67.2361 30.1653C69.7123 30.1653 73.981 26.7732 76.3089 24.9234C76.44 24.8192 76.5649 24.7199 76.683 24.6264C77.1959 26.5342 79.2868 30.1691 83.5759 30.0114C87.7608 29.8576 89.5763 26.9651 90.0071 25.8265L90.2533 29.7037H92.9612V0.0398291H89.8225V11.8869C89.1763 10.5124 87.0408 7.78813 83.6682 7.88659C79.4525 8.00968 74.5598 11.0868 76.3445 23.2109C74.929 24.4931 71.7965 27.0389 70.5902 26.9651C69.4662 26.8962 69.8319 25.1082 70.0677 23.9552C70.103 23.7825 70.1354 23.6241 70.1594 23.4878C70.9322 19.1086 73.6551 8.38511 75.9445 0.0398291C73.2981 -0.237128 72.6827 0.966258 72.098 2.53233C71.8108 3.30163 71.021 5.53565 70.1594 8.31741C62.3742 6.56343 55.4198 18.5336 55.0813 24.1956C53.8812 25.4265 50.1271 28.996 50.1271 26.2573C50.1271 24.7681 51.3008 20.8313 52.3767 17.2226L52.3768 17.2225L52.3768 17.2224L52.3768 17.2224C53.2795 14.1947 54.1133 11.398 54.1274 10.4714C54.1582 8.4405 52.4657 6.96346 49.1424 8.8713C46.5997 10.331 43.913 12.8714 42.7359 13.9844L42.7358 13.9844L42.7358 13.9845L42.7357 13.9846C42.3744 14.3262 42.1553 14.5333 42.1264 14.5333C42.0033 14.5333 42.6188 11.8562 42.8649 10.8715C42.8865 10.7854 42.9115 10.6907 42.9382 10.5896L42.9384 10.5891C43.2176 9.53257 43.6815 7.77699 42.2495 7.91738C40.994 8.04047 38.6082 9.03542 37.5722 9.51751L37.0183 11.5177C37.603 11.2099 38.84 10.6499 39.1108 10.8715C39.3816 11.093 39.2236 12.1946 39.1108 12.7178L36.526 23.4878C35.2644 24.5649 32.4764 26.7373 31.4179 26.8112C30.3304 26.8871 30.6979 25.2376 31.4272 21.9652L31.4272 21.965C31.5852 21.2561 31.7602 20.4709 31.941 19.6106C32.7534 15.7457 34.5566 9.79445 35.3567 7.30194C35.2951 7.3122 35.0182 7.36349 34.4027 7.48657ZM84.5307 27.5207C88.1915 27.5207 89.972 23.6182 89.9215 18.8764C89.9215 12.9024 87.3755 10.3166 84.3477 10.3489C81.3199 10.3812 78.9569 12.9024 78.9569 18.9932C79.0074 23.7351 80.5293 27.5207 84.5307 27.5207ZM67.8739 18.7417L69.6978 10.9946C66.3436 10.133 65.2357 10.6868 63.9434 11.5485C62.7703 12.2747 62.1569 13.3184 61.6431 14.1926L61.6424 14.1937L61.6418 14.1948L61.6412 14.1958C61.5896 14.2836 61.539 14.3697 61.4889 14.4536C61.4306 14.5652 61.3609 14.6945 61.2832 14.8386C60.9412 15.4732 60.445 16.3938 60.092 17.3406C58.6207 21.2869 57.8423 26.8242 60.9979 26.7113C65.0824 26.5652 67.2838 21.3373 67.8739 18.7417ZM28.679 18.9336L30.5869 11.4253C28.1577 10.8138 26.2912 11.2057 24.8941 12.0212C23.7605 12.6829 22.936 13.6235 22.3708 14.5333C21.8879 15.2261 21.3767 16.2411 20.9231 17.395C19.3822 21.3148 18.506 26.8374 21.6631 26.7804C25.7496 26.7065 28.0431 21.5184 28.679 18.9336ZM5.13887 14.3179C5.15938 12.2459 6.62206 8.102 12.3087 8.102C15.7243 8.102 17.0167 9.88675 16.9244 10.9638L16.9234 10.9641C16.8908 11.9211 16.1046 12.687 15.1397 12.687C14.5447 12.687 14.0178 12.3959 13.6935 11.9484L13.6934 11.9485L13.6927 11.9472C13.6456 11.8821 13.6028 11.8138 13.5647 11.7425C13.0114 10.8951 11.8501 9.5418 10.7393 9.60981C9.2315 9.70212 8.12372 11.0253 8.12372 12.8101C8.12372 14.1907 9.31305 15.5465 10.6245 17.0416C12.236 18.8787 14.0319 20.9261 14.0319 23.4878C13.9703 25.6624 12.2348 30.0114 5.78508 30.0114C0.307717 30.0114 0 26.8112 0 25.6111L0.00104106 25.6111C0.000348883 25.5906 0 25.5701 0 25.5495C0 24.5638 0.799063 23.7648 1.78476 23.7648C2.77045 23.7648 3.56951 24.5638 3.56951 25.5495L3.56925 25.5803L3.56951 25.5803V26.965C3.61054 27.5497 4.1911 28.6944 6.18511 28.5959C8.67761 28.4728 10.7085 27.3035 10.8316 24.8418C10.8987 23.4995 9.83927 22.3158 8.61567 20.9487C7.0902 19.2443 5.30962 17.2548 5.13887 14.3179ZM98.3111 29.4408C103.577 31.7347 108.526 28.5711 111.332 23.1494C114.532 16.5335 114.309 10.5783 110.378 8.47127C107.587 6.79375 100.777 7.02499 96.8077 15.1487C94.1962 20.4932 93.6382 27.4055 98.3111 29.4408ZM100.346 27.3651C103.731 28.6721 107.125 25.5348 108.993 21.2108C111.279 15.6878 110.95 11.832 108.316 10.6561C105.682 9.48008 101.98 10.5773 99.415 16.8131C97.6693 21.0569 96.9615 26.0581 100.346 27.3651ZM132.995 7.36347C130.665 7.20197 129.171 8.64057 128.553 9.50582C127.192 8.36367 125.301 7.82507 123.21 7.82507C119.063 7.82507 115.702 9.75934 115.702 14.6871C115.702 17.4772 116.779 19.3076 118.467 20.3707C117.404 20.6557 115.64 21.8552 115.64 24.0417C115.64 26.3803 117.271 27.2727 118.102 27.5804C114.68 28.6882 114.255 30.8114 114.255 32.3808C114.255 33.9502 114.594 38.0736 123.117 38.0736C131.29 38.0736 133.108 33.6219 132.995 31.3961C132.995 25.5595 126.897 25.6331 124.013 25.6679H124.013C123.81 25.6703 123.623 25.6726 123.456 25.6726C123.254 25.6726 123.031 25.6779 122.794 25.6835C120.974 25.7268 118.348 25.7892 118.348 23.6109C118.348 21.8299 119.382 21.2646 120.416 21.206C121.28 21.4396 122.222 21.5492 123.21 21.5492C127.357 21.5492 130.718 19.2465 130.718 14.6871C130.718 13.1194 130.351 11.8383 129.709 10.8257C130.501 10.0524 132.209 10.1185 132.995 10.256V7.36347ZM123.179 19.2721C125.745 19.2721 127.826 17.7335 127.826 14.6871C127.826 11.5176 125.745 10.1021 123.179 10.1021C120.613 10.1021 118.533 11.3945 118.533 14.6871C118.533 17.9797 120.613 19.2721 123.179 19.2721ZM130.133 31.6423C130.133 34.3194 127.202 35.7657 123.548 35.7657C119.894 35.7657 116.932 34.8733 116.932 32.0423C116.932 30.3354 117.704 29.0918 119.302 28.5651C120.153 28.2845 121.238 28.2968 122.565 28.3117C122.879 28.3152 123.207 28.3189 123.548 28.3189C128.041 28.3189 130.133 28.9651 130.133 31.6423Z" fill="black"/>
</svg>
