<svg width="10" height="10" viewBox="0 0 10 10" fill="none" xmlns="http://www.w3.org/2000/svg">
<path d="M8.23257 8.58983C8.18564 8.58985 8.13917 8.5806 8.09582 8.5626C8.05248 8.54461 8.01312 8.51823 7.98 8.48498L1.51428 2.02012C1.44722 1.95306 1.40955 1.8621 1.40955 1.76726C1.40955 1.67242 1.44722 1.58147 1.51428 1.5144C1.58134 1.44734 1.6723 1.40967 1.76714 1.40967C1.86198 1.40967 1.95294 1.44734 2.02 1.5144L8.48571 7.98012C8.53553 8.03012 8.56943 8.09375 8.58314 8.16299C8.59685 8.23223 8.58975 8.30398 8.56274 8.3692C8.53572 8.43441 8.49001 8.49016 8.43135 8.52943C8.37269 8.56869 8.30373 8.58971 8.23314 8.58983H8.23257Z" fill="white"/>
<path d="M1.76741 8.58983C1.69678 8.58982 1.62773 8.56889 1.56899 8.52966C1.51024 8.49044 1.46444 8.43469 1.43736 8.36946C1.41027 8.30423 1.40312 8.23243 1.41681 8.16313C1.4305 8.09384 1.46441 8.03015 1.51427 7.98012L7.97998 1.5144C8.01319 1.4812 8.05261 1.45486 8.096 1.43689C8.13938 1.41892 8.18588 1.40967 8.23284 1.40967C8.2798 1.40967 8.3263 1.41892 8.36969 1.43689C8.41307 1.45486 8.45249 1.4812 8.4857 1.5144C8.5189 1.54761 8.54524 1.58703 8.56321 1.63042C8.58119 1.6738 8.59044 1.7203 8.59044 1.76726C8.59044 1.81422 8.58119 1.86072 8.56321 1.90411C8.54524 1.94749 8.5189 1.98691 8.4857 2.02012L2.01998 8.48583C1.98679 8.51893 1.9474 8.54515 1.90406 8.563C1.86072 8.58084 1.81428 8.58996 1.76741 8.58983Z" fill="white"/>
</svg>
