<svg width="190" height="46" viewBox="0 0 190 46" fill="none" xmlns="http://www.w3.org/2000/svg">
<g id="Layer_1">
<g id="Vector" filter="url(#filter0_i_13_98)">
<path d="M96.3467 0.923096C84.2738 0.923096 74.4888 10.9251 74.4888 23.2721C74.4888 35.6191 84.2738 45.6154 96.3467 45.6154C108.42 45.6154 118.21 35.6134 118.21 23.2721C118.21 10.9308 108.42 0.923096 96.3467 0.923096ZM96.3467 36.4065C90.5898 36.4065 85.917 32.3498 85.917 26.0907C85.917 19.8316 96.3467 7.3933 96.3467 7.3933C96.3467 7.3933 106.776 19.8373 106.776 26.0907C106.776 32.3441 102.109 36.4065 96.3467 36.4065Z" fill="url(#paint0_linear_13_98)"/>
</g>
<g id="Group">
<path id="Vector_2" d="M32.5268 8.62856C29.1424 4.96164 24.6893 3.12549 19.1566 3.12549H2.15918V42.8639H18.5413C23.4046 42.8639 27.4529 41.6632 30.6862 39.2509C35.2904 35.7347 37.5953 30.3986 37.5953 23.2478C37.5953 17.1686 35.9058 12.2955 32.5268 8.62856ZM25.1157 31.6639C23.4424 33.6132 21.008 34.5824 17.818 34.5824H12.0208V11.3532H17.9259C20.9757 11.3532 23.3507 12.4193 25.0617 14.5463C26.7674 16.6786 27.6203 19.5755 27.6203 23.2478C27.6203 26.9201 26.789 29.7201 25.1157 31.6639Z" fill="#151515"/>
<path id="Vector_3" d="M71.9138 40.7263C71.7681 39.7786 71.6439 38.357 71.5522 36.4455C71.4604 34.5393 71.3039 32.9347 71.0772 31.637C70.559 27.8947 68.6266 25.4663 65.2854 24.357V24.1901C69.8897 22.5963 72.1945 19.3924 72.1945 14.5732C72.1945 10.9816 70.8936 8.17626 68.2919 6.15703C65.6956 4.1378 62.349 3.12549 58.263 3.12549H39.209V42.8639H49.0706V27.9701H55.0351C58.9323 27.9701 61.1453 29.8601 61.6635 33.6401C61.8093 34.5663 61.9442 35.8424 62.0522 37.4739C62.1655 39.1055 62.3059 40.3655 62.4732 41.254C62.6405 42.1424 62.8726 42.6809 63.1695 42.8639H72.7505V42.3632C72.3402 42.2178 72.0649 41.6686 71.9138 40.7263ZM60.8809 19.4086C59.8823 20.2647 58.4141 20.6901 56.4817 20.6901H49.0706V10.9063H56.703C58.5598 10.9063 59.974 11.3586 60.9402 12.2686C61.9064 13.1786 62.3868 14.3739 62.3868 15.8547C62.3868 17.3355 61.8848 18.5578 60.8809 19.4086Z" fill="#151515"/>
</g>
<g id="Group_2">
<path id="Vector_4" d="M149.971 6.79217C147.407 4.34755 143.785 3.12524 139.105 3.12524H121.163V42.8637H131.192V29.5799H140.497C144.546 29.5799 147.806 28.3791 150.278 25.9668C152.745 23.5599 153.981 20.4314 153.981 16.576C153.981 12.7206 152.642 9.27447 149.971 6.79217ZM142.586 20.356C141.604 21.3199 140.238 21.7991 138.49 21.7991H131.192V11.4068H138.49C140.238 11.4068 141.604 11.8591 142.586 12.7691C143.569 13.6791 144.065 14.9283 144.065 16.5222C144.065 18.116 143.569 19.3922 142.586 20.356Z" fill="#151515"/>
<path id="Vector_5" d="M186.378 25.6061C185.655 24.1469 184.559 22.9515 183.091 22.0253C181.623 21.0992 180.187 20.383 178.773 19.8823C177.364 19.3815 175.561 18.8753 173.37 18.353C169.877 17.5777 167.502 16.8992 166.239 16.323C164.976 15.7523 164.345 14.8369 164.345 13.5769C164.345 12.4623 164.874 11.563 165.932 10.8792C166.99 10.1953 168.371 9.85073 170.082 9.85073C171.939 9.85073 173.424 10.2653 174.541 11.1C175.653 11.9346 176.301 13.1138 176.49 14.6323H186.13C185.941 10.6261 184.408 7.58919 181.531 5.51612C178.654 3.44304 174.946 2.40381 170.417 2.40381C165.888 2.40381 161.883 3.4215 158.969 5.46227C156.048 7.49765 154.591 10.5561 154.591 14.6323C154.591 16.2261 154.882 17.6584 155.455 18.94C156.032 20.2161 156.729 21.2446 157.544 22.0253C158.364 22.8007 159.471 23.5169 160.863 24.163C162.256 24.8092 163.497 25.2938 164.593 25.6061C165.689 25.9238 167.092 26.2846 168.803 26.6938C168.873 26.6938 168.949 26.6992 169.025 26.7207C169.1 26.7369 169.154 26.7584 169.192 26.7746C169.23 26.7961 169.3 26.823 169.413 26.8607C171.642 27.4153 173.154 27.8246 173.953 28.083C174.752 28.3415 175.54 28.7938 176.322 29.44C177.105 30.0915 177.494 30.8992 177.494 31.863C177.494 33.2684 176.867 34.313 175.626 35.0023C174.379 35.6861 172.868 36.0307 171.086 36.0307C166.293 36.0307 163.692 34.1407 163.287 30.3607H153.366C153.479 34.6953 155.12 38.023 158.299 40.3384C161.473 42.6538 165.754 43.8115 171.14 43.8115C175.896 43.8115 179.804 42.6646 182.87 40.3653C185.936 38.0661 187.463 34.9 187.463 30.8615C187.463 28.8207 187.102 27.0707 186.378 25.6061Z" fill="#151515"/>
</g>
</g>
<defs>
<filter id="filter0_i_13_98" x="74.4888" y="0.923096" width="43.7217" height="44.6924" filterUnits="userSpaceOnUse" color-interpolation-filters="sRGB">
<feFlood flood-opacity="0" result="BackgroundImageFix"/>
<feBlend mode="normal" in="SourceGraphic" in2="BackgroundImageFix" result="shape"/>
<feColorMatrix in="SourceAlpha" type="matrix" values="0 0 0 0 0 0 0 0 0 0 0 0 0 0 0 0 0 0 127 0" result="hardAlpha"/>
<feOffset/>
<feGaussianBlur stdDeviation="2.93295"/>
<feComposite in2="hardAlpha" operator="arithmetic" k2="-1" k3="1"/>
<feColorMatrix type="matrix" values="0 0 0 0 0 0 0 0 0 0.364706 0 0 0 0 1 0 0 0 0.18 0"/>
<feBlend mode="normal" in2="shape" result="effect1_innerShadow_13_98"/>
</filter>
<linearGradient id="paint0_linear_13_98" x1="96.3496" y1="0.923096" x2="96.3496" y2="45.6154" gradientUnits="userSpaceOnUse">
<stop stop-color="#0ACDFF"/>
<stop offset="1" stop-color="#0079F4"/>
</linearGradient>
</defs>
</svg>
