<svg width="168" height="39" viewBox="0 0 168 39" fill="none" xmlns="http://www.w3.org/2000/svg">
<g id="Layer_1">
<g id="Vector" filter="url(#filter0_i_2015_201)">
<path d="M85.1908 0.0769424C74.5158 0.0769424 65.8638 8.65008 65.8638 19.2332C65.8638 29.8164 74.5158 38.3846 85.1908 38.3846C95.8658 38.3846 104.523 29.8115 104.523 19.2332C104.523 8.65497 95.8658 0.0769424 85.1908 0.0769424ZM85.1908 30.4913C80.1005 30.4913 75.9687 27.0141 75.9687 21.6492C75.9687 16.2842 85.1908 5.62283 85.1908 5.62283C85.1908 5.62283 94.4129 16.2891 94.4129 21.6492C94.4129 27.0092 90.2861 30.4913 85.1908 30.4913Z" fill="url(#paint0_linear_2015_201)"/>
</g>
<g id="Group">
<path id="Vector_2" d="M28.7605 6.68154C25.768 3.53846 21.8305 1.96461 16.9385 1.96461H1.90918V36.0261H16.3944C20.6946 36.0261 24.2742 34.9969 27.133 32.9292C31.2042 29.9154 33.2421 25.3415 33.2421 19.2123C33.2421 14.0015 31.7483 9.82461 28.7605 6.68154ZM22.2076 26.4261C20.728 28.0969 18.5755 28.9277 15.7549 28.9277H10.629V9.01692H15.8503C18.5469 9.01692 20.6469 9.93077 22.1599 11.7538C23.668 13.5815 24.4221 16.0646 24.4221 19.2123C24.4221 22.36 23.6871 24.76 22.2076 26.4261Z" fill="white"/>
<path id="Vector_3" d="M63.5869 34.1938C63.458 33.3815 63.3483 32.1631 63.2671 30.5246C63.186 28.8908 63.0476 27.5154 62.8471 26.4031C62.3889 23.1954 60.6803 21.1138 57.726 20.1631V20.02C61.7971 18.6538 63.8351 15.9077 63.8351 11.7769C63.8351 8.69845 62.6849 6.29384 60.3844 4.56307C58.0887 2.8323 55.1296 1.96461 51.5167 1.96461H34.6689V36.0261H43.3887V23.26H48.6626C52.1085 23.26 54.0653 24.88 54.5235 28.12C54.6524 28.9138 54.7717 30.0077 54.8671 31.4061C54.9674 32.8046 55.0914 33.8846 55.2394 34.6461C55.3874 35.4077 55.5926 35.8692 55.8551 36.0261H64.3267V35.5969C63.9639 35.4723 63.7205 35.0015 63.5869 34.1938ZM53.8314 15.9215C52.9485 16.6554 51.6503 17.02 49.9417 17.02H43.3887V8.63384H50.1374C51.7792 8.63384 53.0296 9.02153 53.8839 9.80153C54.7383 10.5815 55.163 11.6061 55.163 12.8754C55.163 14.1446 54.7192 15.1923 53.8314 15.9215Z" fill="white"/>
</g>
<g id="Group_2">
<path id="Vector_4" d="M132.605 5.10768C130.338 3.0123 127.136 1.96461 122.998 1.96461H107.133V36.0261H116.001V24.64H124.229C127.809 24.64 130.691 23.6108 132.877 21.5431C135.059 19.48 136.151 16.7985 136.151 13.4938C136.151 10.1892 134.968 7.23538 132.605 5.10768ZM126.076 16.7338C125.208 17.56 124 17.9708 122.454 17.9708H116.001V9.06307H122.454C124 9.06307 125.208 9.45076 126.076 10.2308C126.945 11.0108 127.384 12.0815 127.384 13.4477C127.384 14.8138 126.945 15.9077 126.076 16.7338Z" fill="white"/>
<path id="Vector_5" d="M164.797 21.2338C164.158 19.9831 163.189 18.9585 161.891 18.1646C160.593 17.3708 159.323 16.7569 158.073 16.3277C156.827 15.8985 155.233 15.4646 153.295 15.0169C150.207 14.3523 148.107 13.7708 146.99 13.2769C145.874 12.7877 145.315 12.0031 145.315 10.9231C145.315 9.96768 145.783 9.19691 146.718 8.61076C147.654 8.02461 148.876 7.72922 150.389 7.72922C152.03 7.72922 153.343 8.08461 154.331 8.79999C155.314 9.51538 155.887 10.5261 156.054 11.8277H164.578C164.411 8.39384 163.055 5.79076 160.512 4.01384C157.968 2.23691 154.689 1.34615 150.684 1.34615C146.68 1.34615 143.139 2.21845 140.562 3.96768C137.979 5.7123 136.691 8.33384 136.691 11.8277C136.691 13.1938 136.949 14.4215 137.454 15.52C137.965 16.6138 138.581 17.4954 139.302 18.1646C140.027 18.8292 141.005 19.4431 142.237 19.9969C143.468 20.5508 144.566 20.9661 145.535 21.2338C146.504 21.5061 147.744 21.8154 149.257 22.1661C149.319 22.1661 149.386 22.1708 149.453 22.1892C149.52 22.2031 149.568 22.2215 149.601 22.2354C149.634 22.2538 149.697 22.2769 149.797 22.3092C151.768 22.7846 153.104 23.1354 153.811 23.3569C154.517 23.5785 155.214 23.9661 155.906 24.52C156.598 25.0785 156.942 25.7708 156.942 26.5969C156.942 27.8015 156.388 28.6969 155.29 29.2877C154.188 29.8738 152.851 30.1692 151.276 30.1692C147.038 30.1692 144.738 28.5492 144.38 25.3092H135.607C135.708 29.0246 137.159 31.8769 139.97 33.8615C142.776 35.8461 146.561 36.8385 151.324 36.8385C155.529 36.8385 158.984 35.8554 161.695 33.8846C164.406 31.9138 165.757 29.2 165.757 25.7385C165.757 23.9892 165.437 22.4892 164.797 21.2338Z" fill="white"/>
</g>
</g>
<defs>
<filter id="filter0_i_2015_201" x="65.8638" y="0.0769424" width="38.6592" height="38.3077" filterUnits="userSpaceOnUse" color-interpolation-filters="sRGB">
<feFlood flood-opacity="0" result="BackgroundImageFix"/>
<feBlend mode="normal" in="SourceGraphic" in2="BackgroundImageFix" result="shape"/>
<feColorMatrix in="SourceAlpha" type="matrix" values="0 0 0 0 0 0 0 0 0 0 0 0 0 0 0 0 0 0 127 0" result="hardAlpha"/>
<feOffset/>
<feGaussianBlur stdDeviation="2.93295"/>
<feComposite in2="hardAlpha" operator="arithmetic" k2="-1" k3="1"/>
<feColorMatrix type="matrix" values="0 0 0 0 0 0 0 0 0 0.364706 0 0 0 0 1 0 0 0 0.18 0"/>
<feBlend mode="normal" in2="shape" result="effect1_innerShadow_2015_201"/>
</filter>
<linearGradient id="paint0_linear_2015_201" x1="85.1933" y1="0.0769424" x2="85.1933" y2="38.3846" gradientUnits="userSpaceOnUse">
<stop stop-color="#0ACDFF"/>
<stop offset="1" stop-color="#0079F4"/>
</linearGradient>
</defs>
</svg>
