<svg width="80" height="80" viewBox="0 0 80 80" fill="none" xmlns="http://www.w3.org/2000/svg">
<path d="M73.6009 61.0024H69.4009V65.2024H65.2009V69.4024H61.0009V73.6024H19.0009V69.4024H14.8009V65.2024H10.6009V61.0024H6.40088V19.0023H10.6009V14.8023H14.8009V10.6023H19.0009V6.40234H61.0009V10.6023H65.2009V14.8023H69.4009V19.0023H73.6009V61.0024Z" fill="#5BBDCA"/>
<path d="M76 12V8H72V4H68V0H12V4H8V8H4V12H0V68H4V72H8V76H12V80H68V76H72V72H76V68H80V12H76ZM72 60H68V64H64V68H60V72H20V68H16V64H12V60H8V20H12V16H16V12H20V8H60V12H64V16H68V20H72V60Z" fill="white"/>
<path fill-rule="evenodd" clip-rule="evenodd" d="M36.1074 24.4015C34.0279 25.4948 32.3187 26.4178 32.3252 26.4571C32.3252 26.5553 37.3227 29.1018 37.4982 29.0953C37.5761 29.0953 38.161 28.8204 38.7979 28.493L39.9546 27.8973L41.2154 28.552L42.4761 29.2066L44.5427 28.2705C47.649 26.863 47.974 26.7059 47.922 26.66C47.857 26.588 46.7392 25.9858 43.7109 24.3819C42.2487 23.6094 40.832 22.8435 40.559 22.6929C40.2861 22.5358 40.0261 22.418 39.9806 22.418C39.9351 22.418 38.187 23.3083 36.1074 24.4015ZM26.9769 29.1673L24.8063 30.2933V35.2424C24.8063 37.9657 24.8323 40.1915 24.8713 40.1915C24.9038 40.1915 25.9696 39.7267 27.2433 39.1571L29.5503 38.1228V32.9053L30.6746 33.5207C31.5454 33.9986 32.4097 34.4699 33.2805 34.9478L34.7622 35.753L35.4186 35.4519C35.8345 35.262 36.2439 35.0722 36.6533 34.8823C36.9718 34.7318 37.7516 34.3782 38.3885 34.0968C39.0253 33.8153 39.6102 33.5272 39.6947 33.4618C39.8052 33.3766 38.4535 32.6238 34.6972 30.6795C31.8638 29.2131 29.4528 28.0217 29.3424 28.0282C29.2319 28.0348 28.1661 28.5454 26.9769 29.1673ZM48.3054 29.4815C46.8302 30.1558 45.6215 30.7319 45.6215 30.7646C45.6215 30.7974 46.4273 31.2818 47.4086 31.8382C48.3964 32.3947 49.1957 32.8791 49.1957 32.9184C49.1957 32.9577 48.3249 33.3832 47.2591 33.8611C46.1933 34.3455 43.5029 35.5697 41.2739 36.5844L33.8199 39.982C31.9418 40.833 30.2522 41.6055 30.0637 41.6906C26.236 43.4385 25.1767 43.9229 25.0338 44.008C24.8908 44.0931 24.8583 44.5775 24.8323 47.0194L24.7998 49.9325L26.7364 50.9276L28.673 51.9226L31.3634 50.6984C32.8386 50.0242 34.0539 49.4415 34.0539 49.3957C34.0539 49.3499 33.7809 49.1731 33.4495 48.9964C33.1181 48.8196 32.4292 48.4268 31.9158 48.1257C31.4089 47.8246 30.902 47.5496 30.7916 47.5103C30.6811 47.4711 30.5901 47.4121 30.5901 47.3663C30.5901 47.327 31.7729 46.7575 33.222 46.1094C36.0295 44.8459 38.174 43.8705 42.7816 41.7691C44.8416 40.833 46.9017 39.8903 48.9683 38.9542C50.7814 38.1293 52.8869 37.167 53.6473 36.8135L55.0315 36.172L55.064 33.2261L55.0965 30.2802L53.1339 29.2721C52.0551 28.7156 51.1258 28.2574 51.0803 28.2574C51.0283 28.2574 49.7806 28.8138 48.3054 29.4815ZM54.5116 40.1129C54.2192 40.2569 53.6473 40.5253 53.2379 40.7086C52.8285 40.8919 52.0486 41.2454 51.5092 41.4942L50.5279 41.9459L50.5084 44.5317C50.4954 45.9523 50.4435 47.111 50.3915 47.1045C50.2745 47.0848 48.4354 46.1356 46.5833 45.134C45.2445 44.4139 45.1601 44.3812 44.8481 44.5383C44.6662 44.6299 43.5809 45.1209 42.4371 45.625C41.2934 46.1356 40.3186 46.5807 40.2731 46.6266C40.2276 46.6658 42.5281 47.9228 45.394 49.4219L50.5929 52.1452L52.8155 50.9865C54.0372 50.3515 55.077 49.7688 55.1225 49.6968C55.233 49.5332 55.22 39.8314 55.116 39.8445C55.0705 39.851 54.7975 39.9689 54.5116 40.1129ZM42.2032 51.4971C41.8198 51.6608 41.4298 51.831 41.0464 52.0012C39.8832 52.5052 40.1106 52.5249 38.7264 51.831C37.8036 51.3662 37.4072 51.2287 37.2317 51.2942C37.1017 51.3465 35.9905 51.8506 34.7557 52.4136C33.5275 52.9766 32.4747 53.4414 32.4227 53.4414C31.9028 53.4414 32.7671 53.9585 36.0815 55.641L39.9676 57.618L41.6053 56.8062C42.5021 56.3611 44.3217 55.4642 45.6345 54.8161C46.9537 54.168 48.013 53.6247 47.9935 53.5985C47.974 53.5789 46.8692 53.0093 45.537 52.3285L43.1195 51.0978L42.2032 51.4971Z" fill="white"/>
</svg>
