<svg width="80" height="80" viewBox="0 0 80 80" fill="none" xmlns="http://www.w3.org/2000/svg">
<path d="M73.6009 61.0024H69.4009V65.2024H65.2009V69.4024H61.0009V73.6024H19.0009V69.4024H14.8009V65.2024H10.6009V61.0024H6.40088V19.0023H10.6009V14.8023H14.8009V10.6023H19.0009V6.40234H61.0009V10.6023H65.2009V14.8023H69.4009V19.0023H73.6009V61.0024Z" fill="#64D5FF"/>
<path d="M76 12V8H72V4H68V0H12V4H8V8H4V12H0V68H4V72H8V76H12V80H68V76H72V72H76V68H80V12H76ZM72 60H68V64H64V68H60V72H20V68H16V64H12V60H8V20H12V16H16V12H20V8H60V12H64V16H68V20H72V60Z" fill="white"/>
<path d="M52.987 25.0183C55.2708 24.3084 56.8 25.3225 56.8 26.8439C56.8 26.8439 50.948 51.8915 49.9285 53.9196C48.9091 55.9476 47.3798 54.9336 47.3798 54.9336L38.713 48.8486L35.1449 52.3977C33.1059 54.4258 32.0864 52.3977 32.0864 52.3977L28.5183 42.7644C28.5183 42.7644 22.8394 42.1246 20.8722 40.2293C19.0785 38.5045 20.6073 37.4909 20.6073 37.4909L52.987 25.0183ZM37.9397 42.0545L51.7026 28.8716L31.3131 40.5334L34.3715 48.6457L37.9397 42.0545Z" fill="white"/>
</svg>
