<svg width="80" height="80" viewBox="0 0 80 80" fill="none" xmlns="http://www.w3.org/2000/svg">
<path d="M73.6009 61.0024H69.4009V65.2024H65.2009V69.4024H61.0009V73.6024H19.0009V69.4024H14.8009V65.2024H10.6009V61.0024H6.40088V19.0023H10.6009V14.8023H14.8009V10.6023H19.0009V6.40234H61.0009V10.6023H65.2009V14.8023H69.4009V19.0023H73.6009V61.0024Z" fill="#E486EA"/>
<path d="M76 12V8H72V4H68V0H12V4H8V8H4V12H0V68H4V72H8V76H12V80H68V76H72V72H76V68H80V12H76ZM72 60H68V64H64V68H60V72H20V68H16V64H12V60H8V20H12V16H16V12H20V8H60V12H64V16H68V20H72V60Z" fill="white"/>
<path d="M41.5083 25.3516C43.1583 25.356 43.9957 25.3648 44.7188 25.3853L45.0033 25.3956C45.3319 25.4073 45.656 25.422 46.0476 25.4396C47.6081 25.5129 48.6729 25.7593 49.6072 26.1216C50.5752 26.4941 51.3907 26.9986 52.2061 27.8126C52.9519 28.5458 53.529 29.4327 53.8972 30.4116C54.2595 31.3458 54.5059 32.4106 54.5792 33.9726C54.5968 34.3628 54.6115 34.6869 54.6232 35.0169L54.632 35.3014C54.654 36.023 54.6628 36.8605 54.6657 38.5105L54.6672 39.6046V41.526C54.6708 42.5958 54.6596 43.6656 54.6335 44.7351L54.6247 45.0196C54.6129 45.3496 54.5983 45.6737 54.5807 46.0639C54.5073 47.6259 54.258 48.6892 53.8972 49.6249C53.5301 50.6043 52.9528 51.4914 52.2061 52.2239C51.4727 52.9694 50.5859 53.5464 49.6072 53.9149C48.6729 54.2772 47.6081 54.5236 46.0476 54.5969C45.6996 54.6133 45.3515 54.628 45.0033 54.6409L44.7188 54.6497C43.9957 54.6703 43.1583 54.6805 41.5083 54.6835L40.4141 54.6849H38.4943C37.424 54.6886 36.3537 54.6774 35.2837 54.6512L34.9992 54.6424C34.651 54.6292 34.3029 54.6141 33.9549 54.5969C32.3944 54.5236 31.3296 54.2772 30.3939 53.9149C29.4151 53.5473 28.5286 52.9702 27.7964 52.2239C27.0499 51.4909 26.4723 50.604 26.1039 49.6249C25.7416 48.6907 25.4952 47.6259 25.4219 46.0639C25.4055 45.7158 25.3908 45.3677 25.3779 45.0196L25.3705 44.7351C25.3435 43.6656 25.3313 42.5958 25.3339 41.526V38.5105C25.3298 37.4407 25.3405 36.3709 25.3661 35.3014L25.3764 35.0169C25.3881 34.6869 25.4028 34.3628 25.4204 33.9726C25.4937 32.4106 25.7401 31.3473 26.1024 30.4116C26.4707 29.4317 27.0494 28.5445 27.7979 27.8126C28.5299 27.0668 29.4158 26.4897 30.3939 26.1216C31.3296 25.7593 32.3929 25.5129 33.9549 25.4396C34.3451 25.422 34.6707 25.4073 34.9992 25.3956L35.2837 25.3868C36.3532 25.3607 37.423 25.3495 38.4928 25.353L41.5083 25.3516ZM40.0005 32.6849C38.0556 32.6849 36.1903 33.4575 34.8151 34.8328C33.4398 36.2081 32.6672 38.0733 32.6672 40.0182C32.6672 41.9632 33.4398 43.8284 34.8151 45.2037C36.1903 46.579 38.0556 47.3516 40.0005 47.3516C41.9454 47.3516 43.8107 46.579 45.186 45.2037C46.5612 43.8284 47.3339 41.9632 47.3339 40.0182C47.3339 38.0733 46.5612 36.2081 45.186 34.8328C43.8107 33.4575 41.9454 32.6849 40.0005 32.6849ZM40.0005 35.6182C40.5783 35.6181 41.1505 35.7319 41.6844 35.9529C42.2183 36.1739 42.7034 36.4979 43.112 36.9065C43.5207 37.315 43.8448 37.8 44.0661 38.3338C44.2873 38.8676 44.4012 39.4397 44.4013 40.0175C44.4014 40.5953 44.2876 41.1675 44.0666 41.7014C43.8456 42.2352 43.5216 42.7204 43.1131 43.129C42.7045 43.5376 42.2195 43.8618 41.6857 44.083C41.152 44.3042 40.5798 44.4182 40.002 44.4182C38.835 44.4182 37.7159 43.9547 36.8907 43.1295C36.0656 42.3044 35.602 41.1852 35.602 40.0182C35.602 38.8513 36.0656 37.7321 36.8907 36.907C37.7159 36.0818 38.835 35.6182 40.002 35.6182M47.702 30.4849C47.2158 30.4849 46.7495 30.6781 46.4056 31.0219C46.0618 31.3657 45.8687 31.832 45.8687 32.3182C45.8687 32.8045 46.0618 33.2708 46.4056 33.6146C46.7495 33.9584 47.2158 34.1516 47.702 34.1516C48.1882 34.1516 48.6545 33.9584 48.9984 33.6146C49.3422 33.2708 49.5353 32.8045 49.5353 32.3182C49.5353 31.832 49.3422 31.3657 48.9984 31.0219C48.6545 30.6781 48.1882 30.4849 47.702 30.4849Z" fill="white"/>
</svg>
