<svg width="80" height="80" viewBox="0 0 80 80" fill="none" xmlns="http://www.w3.org/2000/svg">
<path d="M73.6009 61.0024H69.4009V65.2024H65.2009V69.4024H61.0009V73.6024H19.0009V69.4024H14.8009V65.2024H10.6009V61.0024H6.40088V19.0023H10.6009V14.8023H14.8009V10.6023H19.0009V6.40234H61.0009V10.6023H65.2009V14.8023H69.4009V19.0023H73.6009V61.0024Z" fill="#EBA51E"/>
<path d="M76 12V8H72V4H68V0H12V4H8V8H4V12H0V68H4V72H8V76H12V80H68V76H72V72H76V68H80V12H76ZM72 60H68V64H64V68H60V72H20V68H16V64H12V60H8V20H12V16H16V12H20V8H60V12H64V16H68V20H72V60Z" fill="white"/>
<path d="M32.8004 29.6094C35.5586 29.6094 38.2039 30.7051 40.1543 32.6555C42.1047 34.6058 43.2004 37.2511 43.2004 40.0094C43.2004 42.7676 42.1047 45.4129 40.1543 47.3633C38.2039 49.3137 35.5586 50.4094 32.8004 50.4094C30.0421 50.4094 27.3969 49.3137 25.4465 47.3633C23.4961 45.4129 22.4004 42.7676 22.4004 40.0094C22.4004 37.2511 23.4961 34.6058 25.4465 32.6555C27.3969 30.7051 30.0421 29.6094 32.8004 29.6094ZM48.4004 31.3427C51.0004 31.3427 52.7337 35.2236 52.7337 40.0094C52.7337 44.7951 51.0004 48.676 48.4004 48.676C45.8004 48.676 44.067 44.7951 44.067 40.0094C44.067 35.2236 45.8004 31.3427 48.4004 31.3427ZM55.3337 32.2094C55.9924 32.2094 56.5678 33.6428 56.859 36.1024L56.9405 36.8703L56.9734 37.2776L57.0254 38.1339L57.0428 38.5828L57.0636 39.5206L57.067 40.0094L57.0636 40.4982L57.0428 41.4359L57.0254 41.8866L56.9734 42.7411L56.9388 43.1484L56.8608 43.9163C56.5678 46.3776 55.9941 47.8094 55.3337 47.8094C54.675 47.8094 54.0996 46.3759 53.8084 43.9163L53.7269 43.1484C53.715 43.0127 53.704 42.877 53.694 42.7411L53.642 41.8848C53.6353 41.7352 53.6295 41.5856 53.6246 41.4359L53.6038 40.4982V39.5206L53.6246 38.5828L53.642 38.1322L53.694 37.2776L53.7286 36.8703L53.8066 36.1024C54.0996 33.6411 54.6733 32.2094 55.3337 32.2094Z" fill="white"/>
</svg>
