<svg width="80" height="80" viewBox="0 0 80 80" fill="none" xmlns="http://www.w3.org/2000/svg">
<g id="Group 41">
<g id="Group 36">
<path id="Icon" d="M73.6009 61.0024H69.4009V65.2024H65.2009V69.4024H61.0009V73.6024H19.0009V69.4024H14.8009V65.2024H10.6009V61.0024H6.40088V19.0023H10.6009V14.8023H14.8009V10.6023H19.0009V6.40234H61.0009V10.6023H65.2009V14.8023H69.4009V19.0023H73.6009V61.0024Z" fill="black"/>
<path id="Icon_2" d="M76 12V8H72V4H68V0H12V4H8V8H4V12H0V68H4V72H8V76H12V80H68V76H72V72H76V68H80V12H76ZM72 60H68V64H64V68H60V72H20V68H16V64H12V60H8V20H12V16H16V12H20V8H60V12H64V16H68V20H72V60Z" fill="white"/>
</g>
<path id="Vector" d="M49.7819 22.418H55.4249L43.0968 36.6506L57.5998 56.018H46.2423L37.3481 44.2718L27.1711 56.018H21.5248L34.7109 40.7946L20.7998 22.418H32.4421L40.4817 33.1545L49.7819 22.418ZM47.8015 52.6063H50.9283L30.7448 25.6505H27.3894L47.8015 52.6063Z" fill="white"/>
</g>
</svg>
