<svg width="78" height="86" viewBox="0 0 78 86" fill="none" xmlns="http://www.w3.org/2000/svg">
<g id="solar:xxx-bold" filter="url(#filter0_d_2006_99)">
<path id="Vector" fill-rule="evenodd" clip-rule="evenodd" d="M34 57C26.929 57 23.3935 57 21.196 54.8025C19 52.608 19 49.071 19 42C19 34.929 19 31.3935 21.196 29.196C23.395 27 26.929 27 34 27C41.071 27 44.6065 27 46.8025 29.196C49 31.395 49 34.929 49 42C49 49.071 49 52.6065 46.8025 54.8025C44.608 57 41.071 57 34 57ZM22.126 36.564C22.3742 36.3985 22.6781 36.3384 22.9706 36.3969C23.2632 36.4555 23.5205 36.6278 23.686 36.876L25.75 39.972L27.814 36.876C27.9472 36.6761 28.1409 36.5242 28.3667 36.4423C28.5925 36.3605 28.8386 36.353 29.0689 36.4211C29.2992 36.4891 29.5017 36.6291 29.6468 36.8206C29.7918 37.012 29.8718 37.2448 29.875 37.485C29.8782 37.2448 29.9582 37.012 30.1032 36.8206C30.2483 36.6291 30.4508 36.4891 30.6811 36.4211C30.9114 36.353 31.1575 36.3605 31.3833 36.4423C31.6091 36.5242 31.8028 36.6761 31.936 36.876L34 39.972L36.064 36.876C36.1972 36.6761 36.3909 36.5242 36.6167 36.4423C36.8425 36.3605 37.0886 36.353 37.3189 36.4211C37.5492 36.4891 37.7517 36.6291 37.8968 36.8206C38.0418 37.012 38.1218 37.2448 38.125 37.485C38.1272 37.2443 38.2066 37.0107 38.3515 36.8185C38.4964 36.6264 38.6993 36.4858 38.9301 36.4176C39.1609 36.3494 39.4075 36.3572 39.6336 36.4397C39.8597 36.5222 40.0534 36.6751 40.186 36.876L42.25 39.972L44.314 36.876C44.3952 36.7513 44.5002 36.644 44.6232 36.5602C44.7461 36.4763 44.8844 36.4178 45.0302 36.3878C45.1759 36.3578 45.3261 36.357 45.4721 36.3855C45.6182 36.414 45.7571 36.4711 45.8809 36.5537C46.0047 36.6362 46.1109 36.7424 46.1933 36.8663C46.2758 36.9901 46.3328 37.1291 46.3612 37.2751C46.3896 37.4212 46.3887 37.5714 46.3586 37.7171C46.3286 37.8628 46.2699 38.0011 46.186 38.124L43.6015 42L46.186 45.876C46.2699 45.9989 46.3286 46.1372 46.3586 46.2829C46.3887 46.4286 46.3896 46.5788 46.3612 46.7249C46.3328 46.8709 46.2758 47.0099 46.1933 47.1337C46.1109 47.2576 46.0047 47.3638 45.8809 47.4464C45.7571 47.5289 45.6182 47.586 45.4721 47.6145C45.3261 47.643 45.1759 47.6422 45.0302 47.6122C44.8844 47.5822 44.7461 47.5236 44.6232 47.4398C44.5002 47.356 44.3952 47.2487 44.314 47.124L42.25 44.028L40.186 47.124C40.0528 47.3239 39.8591 47.4758 39.6333 47.5577C39.4075 47.6395 39.1614 47.647 38.9311 47.5789C38.7008 47.5109 38.4983 47.3709 38.3532 47.1794C38.2082 46.988 38.1282 46.7552 38.125 46.515C38.1228 46.7557 38.0434 46.9893 37.8985 47.1815C37.7536 47.3736 37.5507 47.5142 37.3199 47.5824C37.0891 47.6506 36.8425 47.6428 36.6164 47.5603C36.3903 47.4778 36.1966 47.3249 36.064 47.124L34 44.028L31.936 47.124C31.8028 47.3239 31.6091 47.4758 31.3833 47.5577C31.1575 47.6395 30.9114 47.647 30.6811 47.5789C30.4508 47.5109 30.2483 47.3709 30.1032 47.1794C29.9582 46.988 29.8782 46.7552 29.875 46.515C29.8728 46.7557 29.7934 46.9893 29.6485 47.1815C29.5036 47.3736 29.3007 47.5142 29.0699 47.5824C28.8391 47.6506 28.5925 47.6428 28.3664 47.5603C28.1403 47.4778 27.9466 47.3249 27.814 47.124L25.75 44.028L23.686 47.124C23.6048 47.2487 23.4998 47.356 23.3768 47.4398C23.2539 47.5236 23.1156 47.5822 22.9698 47.6122C22.8241 47.6422 22.6739 47.643 22.5279 47.6145C22.3818 47.586 22.2429 47.5289 22.1191 47.4464C21.9953 47.3638 21.8891 47.2576 21.8067 47.1337C21.7242 47.0099 21.6672 46.8709 21.6388 46.7249C21.6104 46.5788 21.6113 46.4286 21.6414 46.2829C21.6714 46.1372 21.7301 45.9989 21.814 45.876L24.3985 42L21.814 38.124C21.6485 37.8758 21.5884 37.5719 21.6469 37.2794C21.7055 36.9868 21.8778 36.7295 22.126 36.564Z" fill="#F30FAC"/>
<path id="Vector_2" d="M29.6861 38.124L27.1016 42L29.6861 45.876C29.8065 46.0559 29.8722 46.267 29.8751 46.4835C29.878 46.267 29.9436 46.0559 30.0641 45.876L32.6486 42L30.0641 38.124C29.9439 37.9445 29.8782 37.734 29.8751 37.518C29.8719 37.734 29.8062 37.9445 29.6861 38.124ZM37.9361 38.124L35.3516 42L37.9361 45.876C38.0565 46.0559 38.1222 46.267 38.1251 46.4835C38.128 46.267 38.1936 46.0559 38.3141 45.876L40.8986 42L38.3141 38.124C38.1936 37.944 38.128 37.733 38.1251 37.5165C38.1222 37.733 38.0565 37.944 37.9361 38.124Z" fill="#F30FAC"/>
</g>
<defs>
<filter id="filter0_d_2006_99" x="-12.3" y="-4.3" width="92.6" height="92.6" filterUnits="userSpaceOnUse" color-interpolation-filters="sRGB">
<feFlood flood-opacity="0" result="BackgroundImageFix"/>
<feColorMatrix in="SourceAlpha" type="matrix" values="0 0 0 0 0 0 0 0 0 0 0 0 0 0 0 0 0 0 127 0" result="hardAlpha"/>
<feOffset/>
<feGaussianBlur stdDeviation="14.15"/>
<feComposite in2="hardAlpha" operator="out"/>
<feColorMatrix type="matrix" values="0 0 0 0 1 0 0 0 0 0.391667 0 0 0 0 0.810563 0 0 0 0.65 0"/>
<feBlend mode="normal" in2="BackgroundImageFix" result="effect1_dropShadow_2006_99"/>
<feBlend mode="normal" in="SourceGraphic" in2="effect1_dropShadow_2006_99" result="shape"/>
</filter>
</defs>
</svg>
