<svg width="76" height="89" viewBox="0 0 76 89" fill="none" xmlns="http://www.w3.org/2000/svg">
<g id="eos-icons:ai-healing" filter="url(#filter0_d_2006_135)">
<path id="Vector" d="M32.5 30H35.5V31.5H32.5V30Z" fill="#F30FAC"/>
<path id="Vector_2" d="M29.5 31.5C30.3284 31.5 31 30.8284 31 30C31 29.1716 30.3284 28.5 29.5 28.5C28.6716 28.5 28 29.1716 28 30C28 30.8284 28.6716 31.5 29.5 31.5Z" fill="#F30FAC"/>
<path id="Vector_3" d="M38.5 31.5C39.3284 31.5 40 30.8284 40 30C40 29.1716 39.3284 28.5 38.5 28.5C37.6716 28.5 37 29.1716 37 30C37 30.8284 37.6716 31.5 38.5 31.5Z" fill="#F30FAC"/>
<path id="Vector_4" d="M43 39H35.5V36L40 35.985C41.1909 35.985 42.3332 35.513 43.1767 34.6723C44.0202 33.8316 44.496 32.6909 44.5 31.5V28.5C44.4964 27.3076 44.0212 26.1651 43.178 25.322C42.3349 24.4788 41.1924 24.0036 40 24H28C26.8076 24.0036 25.6651 24.4788 24.822 25.322C23.9788 26.1651 23.5036 27.3076 23.5 28.5V31.5C23.5036 32.6924 23.9788 33.8349 24.822 34.678C25.6651 35.5212 26.8076 35.9964 28 36H32.5V39H25C23.8076 39.0036 22.6651 39.4788 21.822 40.322C20.9788 41.1651 20.5036 42.3076 20.5 43.5V55.5C20.5036 56.6924 20.9788 57.8349 21.822 58.678C22.6651 59.5212 23.8076 59.9964 25 60H43C44.1924 59.9964 45.3349 59.5212 46.178 58.678C47.0212 57.8349 47.4964 56.6924 47.5 55.5V43.5C47.4964 42.3076 47.0212 41.1651 46.178 40.322C45.3349 39.4788 44.1924 39.0036 43 39ZM28 33C27.6025 32.9988 27.2217 32.8404 26.9407 32.5593C26.6596 32.2783 26.5012 31.8975 26.5 31.5V28.5C26.5012 28.1025 26.6596 27.7217 26.9407 27.4407C27.2217 27.1596 27.6025 27.0012 28 27H39.985C40.384 27.0008 40.7666 27.1586 41.0501 27.4393C41.3337 27.72 41.4953 28.101 41.5 28.5V31.5C41.4953 31.899 41.3337 32.28 41.0501 32.5607C40.7666 32.8414 40.384 32.9992 39.985 33H28ZM34.6525 54.108L34 54.75L33.3475 54.102C31.03 51.8115 29.5 50.301 29.5 48.447C29.4827 48.1068 29.5332 47.7665 29.6487 47.446C29.7642 47.1255 29.9423 46.8311 30.1726 46.5801C30.403 46.3291 30.681 46.1265 30.9904 45.9839C31.2998 45.8414 31.6345 45.7619 31.975 45.75C32.3679 45.7573 32.754 45.8532 33.1047 46.0306C33.4553 46.208 33.7614 46.4623 34 46.7745C34.2386 46.4623 34.5447 46.208 34.8953 46.0306C35.246 45.8532 35.6321 45.7573 36.025 45.75C36.3655 45.7619 36.7002 45.8414 37.0096 45.9839C37.319 46.1265 37.597 46.3291 37.8274 46.5801C38.0577 46.8311 38.2358 47.1255 38.3513 47.446C38.4668 47.7665 38.5173 48.1068 38.5 48.447C38.5 50.301 36.97 51.8115 34.6525 54.108Z" fill="#F30FAC"/>
</g>
<defs>
<filter id="filter0_d_2006_135" x="-12.3" y="-4.3" width="92.6" height="92.6" filterUnits="userSpaceOnUse" color-interpolation-filters="sRGB">
<feFlood flood-opacity="0" result="BackgroundImageFix"/>
<feColorMatrix in="SourceAlpha" type="matrix" values="0 0 0 0 0 0 0 0 0 0 0 0 0 0 0 0 0 0 127 0" result="hardAlpha"/>
<feOffset/>
<feGaussianBlur stdDeviation="14.15"/>
<feComposite in2="hardAlpha" operator="out"/>
<feColorMatrix type="matrix" values="0 0 0 0 1 0 0 0 0 0.391667 0 0 0 0 0.810563 0 0 0 0.65 0"/>
<feBlend mode="normal" in2="BackgroundImageFix" result="effect1_dropShadow_2006_135"/>
<feBlend mode="normal" in="SourceGraphic" in2="effect1_dropShadow_2006_135" result="shape"/>
</filter>
</defs>
</svg>
