<svg width="36" height="42" viewBox="0 0 36 42" fill="none" xmlns="http://www.w3.org/2000/svg">
<path d="M34.8024 4.30443C34.2627 3.85399 33.6119 3.6823 32.9201 3.80797C28.3217 4.64256 24.2542 2.78734 19.1049 0.438375C18.8301 0.313031 18.5525 0.186375 18.2717 0.0588164C18.0991 -0.0196055 17.9011 -0.0196055 17.7286 0.0588164C17.4479 0.186457 17.1702 0.313113 16.8954 0.438375C11.746 2.78734 7.6785 4.6428 3.08016 3.80797C2.38847 3.68214 1.73755 3.85391 1.19779 4.30451C0.65827 4.75502 0.373047 5.36476 0.373047 6.06769V21.7487C0.373047 26.6796 2.17068 31.4507 5.43487 35.1831C8.66682 38.8788 13.0959 41.2973 17.9062 41.9932C17.9374 41.9977 17.9688 42 18.0002 42C18.0317 42 18.0631 41.9978 18.0943 41.9932C22.9046 41.2973 27.3336 38.8788 30.5656 35.1831C33.8298 31.4507 35.6275 26.6795 35.6275 21.7487V6.06769C35.6273 5.36476 35.3421 4.75502 34.8024 4.30443ZM34.3148 21.7486C34.3148 31.1644 27.3078 39.2862 18.0002 40.6804C8.69257 39.2863 1.68555 31.1645 1.68555 21.7486V6.06769C1.68555 5.75786 1.80121 5.51061 2.03902 5.3121C2.22433 5.15739 2.42547 5.08102 2.64941 5.08102C2.71291 5.08102 2.77829 5.08717 2.84563 5.09939C7.84946 6.00805 12.0816 4.07695 17.4401 1.63259C17.6255 1.54801 17.8122 1.46286 18.0002 1.37722C18.1882 1.46286 18.3748 1.54801 18.5602 1.63259C22.9967 3.65638 26.6608 5.32809 30.6302 5.32793C31.4551 5.32793 32.2937 5.25566 33.1545 5.09939C33.4597 5.04402 33.7235 5.11358 33.9612 5.31202C34.1991 5.51061 34.3148 5.75786 34.3148 6.06769V21.7486ZM31.6503 7.26018C26.7868 7.55295 22.2634 5.48822 18.2728 3.66614C18.0997 3.58706 17.9007 3.58706 17.7276 3.66614C13.9941 5.37083 9.79491 7.28831 5.28655 7.28815C4.97598 7.28815 4.66345 7.27904 4.35 7.26018C4.16962 7.24902 3.99243 7.31341 3.86069 7.43745C3.72903 7.56148 3.6543 7.73432 3.6543 7.91528V21.7487C3.6543 25.7718 5.09591 29.6968 7.71369 32.8004C10.3243 35.8954 13.9373 37.9792 17.8875 38.6679C17.9248 38.6744 17.9625 38.6777 18.0002 38.6777C18.0378 38.6777 18.0756 38.6744 18.1129 38.6679C22.063 37.9792 25.6762 35.8955 28.2866 32.8004C30.9044 29.6968 32.346 25.7718 32.346 21.7487V7.91528C32.346 7.73432 32.2713 7.56148 32.1396 7.43745C32.008 7.31341 31.8307 7.24927 31.6503 7.26018ZM31.0335 21.7486C31.0335 29.3125 25.4387 36.001 18.0002 37.3547C10.5616 36.001 4.9668 29.3125 4.9668 21.7486V8.59786C9.76694 8.68932 14.1235 6.75347 18.0002 4.98455C21.877 6.75347 26.2308 8.69006 31.0335 8.59786V21.7486ZM24.2833 14.7865L16.7159 22.4292L13.2217 18.9349C12.7958 18.509 12.2295 18.2745 11.6272 18.2745C11.0248 18.2745 10.4585 18.509 10.0326 18.9349C9.60673 19.3609 9.3722 19.9271 9.3722 20.5295C9.3722 21.1318 9.60673 21.6981 10.0326 22.1239L15.1262 27.2175C15.5521 27.6434 16.1184 27.8779 16.7207 27.8779C17.3231 27.8779 17.8893 27.6434 18.3153 27.2175C20.3014 25.2313 22.308 23.1962 24.2484 21.2281C25.3241 20.1371 26.3997 19.0462 27.4758 17.9593C27.8997 17.533 28.1323 16.9673 28.1306 16.3661C28.1289 15.7649 27.8933 15.2005 27.4671 14.7765C26.587 13.9015 25.1592 13.9056 24.2833 14.7865ZM26.5441 17.0349C25.4663 18.1235 24.3902 19.215 23.3137 20.3067C21.3749 22.2731 19.37 24.3066 17.3871 26.2895C17.2091 26.4675 16.9724 26.5655 16.7206 26.5655C16.4689 26.5655 16.2322 26.4675 16.0542 26.2895L10.9607 21.1959C10.7826 21.018 10.6846 20.7813 10.6846 20.5296C10.6846 20.2778 10.7826 20.0411 10.9607 19.8631C11.1386 19.6851 11.3753 19.5871 11.6271 19.5871C11.8787 19.5871 12.1155 19.6851 12.2935 19.8631L16.7205 24.2901L25.2149 15.711C25.5796 15.3443 26.1747 15.3426 26.5414 15.7073C26.7191 15.884 26.8173 16.1193 26.818 16.3699C26.8188 16.6204 26.7218 16.8562 26.5441 17.0349Z" fill="#1B1B1B"/>
</svg>
