<svg width="24" height="24" viewBox="0 0 24 24" fill="none" xmlns="http://www.w3.org/2000/svg">
<g id="prime:check">
<path id="Vector" d="M9.00089 18.2496C8.90018 18.2462 8.80123 18.2223 8.71009 18.1793C8.61895 18.1363 8.53756 18.0752 8.47089 17.9996L3.47089 12.9996C3.37556 12.9378 3.29552 12.8551 3.23681 12.7579C3.17809 12.6606 3.14225 12.5513 3.13198 12.4381C3.12171 12.325 3.13728 12.2109 3.17751 12.1047C3.21775 11.9984 3.2816 11.9027 3.36424 11.8248C3.44688 11.7468 3.54616 11.6886 3.65458 11.6546C3.76299 11.6207 3.87771 11.6117 3.99007 11.6286C4.10243 11.6454 4.2095 11.6876 4.30319 11.7518C4.39687 11.8161 4.47474 11.9008 4.53089 11.9996L9.00089 16.4396L19.4709 5.9996C19.6118 5.90821 19.7794 5.86679 19.9467 5.88198C20.114 5.89717 20.2714 5.96808 20.3936 6.08336C20.5158 6.19864 20.5957 6.35161 20.6206 6.51774C20.6455 6.68388 20.6139 6.85357 20.5309 6.9996L9.53089 17.9996C9.46422 18.0752 9.38283 18.1363 9.29169 18.1793C9.20056 18.2223 9.1016 18.2462 9.00089 18.2496Z" fill="#D3F643"/>
</g>
</svg>
