<svg width="18" height="18" viewBox="0 0 18 18" fill="none" xmlns="http://www.w3.org/2000/svg">
<g id="Group">
<g id="Group_2">
<path id="Vector" d="M9 18C13.962 18 18 13.962 18 9C18 4.03801 13.962 0 9 0C4.03796 0 0 4.03801 0 9C0 13.962 4.03801 18 9 18ZM9 1.19998C13.302 1.19998 16.8 4.69797 16.8 9C16.8 13.302 13.302 16.8 9 16.8C4.69797 16.8 1.19998 13.302 1.19998 9C1.19998 4.69797 4.69802 1.19998 9 1.19998Z" fill="#1B1B1B"/>
<path id="Vector_2" d="M11.6254 11.8676C11.7364 11.9576 11.8684 11.9996 12.0004 11.9996C12.1774 11.9996 12.3514 11.9216 12.4684 11.7746C12.6754 11.5166 12.6333 11.1386 12.3754 10.9316L9.60037 8.7116V4.1996C9.60037 3.86959 9.33039 3.59961 9.00038 3.59961C8.67038 3.59961 8.40039 3.86959 8.40039 4.1996V8.99962C8.40039 9.18263 8.48441 9.35362 8.62539 9.4676L11.6254 11.8676Z" fill="#1B1B1B"/>
</g>
</g>
</svg>
