<svg width="76" height="76" viewBox="0 0 76 76" fill="none" xmlns="http://www.w3.org/2000/svg">
<rect width="76" height="76" fill="#F5F5F5"/>
<g id="Thank you" clip-path="url(#clip0_0_1)">
<rect width="1440" height="800" transform="translate(-489 -529)" fill="#7DB0DA"/>
<g id="Frame 84">
<g id="Frame 82">
<g id="Frame 80">
<g id="Group 11">
<circle id="Ellipse 10" cx="38" cy="38" r="38" fill="white"/>
<path id="Vector" d="M31.7004 53.2966C31.5829 53.2966 31.4638 53.2773 31.3477 53.2386C30.8908 53.0853 30.5842 52.6596 30.5842 52.1804V42.0227C30.5842 41.7028 30.7211 41.3991 30.9608 41.1863L35.6668 37.0161L27.8919 41.5361C27.5689 41.7236 27.1701 41.737 26.8322 41.5703L18.0974 37.217C17.7015 37.0206 17.4604 36.6083 17.4812 36.1678C17.5021 35.7257 17.7789 35.3388 18.1911 35.1781L51.6779 22.1182C52.0544 21.9664 52.4875 22.0393 52.8016 22.3043C53.1141 22.5662 53.2585 22.9785 53.1781 23.3788L47.3544 52.4007C47.2829 52.7519 47.0493 53.0481 46.7219 53.1969C46.3959 53.3457 46.0164 53.3294 45.7068 53.1508L36.3692 47.8331L32.5934 52.8531C32.3776 53.1374 32.0442 53.2966 31.7004 53.2966ZM36.0671 45.2598C36.2561 45.2598 36.4466 45.3074 36.6193 45.4056L45.4672 50.445L50.5855 24.94L21.3493 36.3434L27.2906 39.3051L44.2423 29.4496C44.7379 29.1579 45.3735 29.2963 45.7068 29.7606C46.0447 30.225 45.9732 30.8694 45.5431 31.2504L32.8167 42.5258V48.8421L35.1756 45.7063C35.3929 45.4161 35.7278 45.2598 36.0671 45.2598Z" fill="#7DB0DA"/>
</g>
</g>
</g>
</g>
</g>
<defs>
<clipPath id="clip0_0_1">
<rect width="1440" height="800" fill="white" transform="translate(-489 -529)"/>
</clipPath>
</defs>
</svg>
