<svg width="24" height="24" viewBox="0 0 24 24" fill="none" xmlns="http://www.w3.org/2000/svg">
<g id="icon">
<path id="Vector" d="M16.61 19.9999C17.95 20.0099 19.24 19.5099 20.23 18.6099C23.5 15.7499 21.75 10.0099 17.44 9.46995C15.9 0.129949 2.42998 3.66995 5.61998 12.5599" stroke="#344449" stroke-width="1.5" stroke-miterlimit="10" stroke-linecap="round" stroke-linejoin="round"/>
<path id="Vector_2" d="M7.27999 12.9698C6.74999 12.6998 6.15999 12.5598 5.56999 12.5698C0.909986 12.8998 0.919986 19.6798 5.56999 20.0098" stroke="#344449" stroke-width="1.5" stroke-miterlimit="10" stroke-linecap="round" stroke-linejoin="round"/>
<path id="Vector_3" d="M15.8199 9.88998C16.3399 9.62998 16.8999 9.48998 17.4799 9.47998" stroke="#344449" stroke-width="1.5" stroke-miterlimit="10" stroke-linecap="round" stroke-linejoin="round"/>
<path id="Vector_4" d="M9.96997 20L7.96997 22" stroke="#344449" stroke-width="1.5" stroke-miterlimit="10" stroke-linecap="round" stroke-linejoin="round"/>
<path id="Vector_5" d="M13.97 20L11.97 22" stroke="#344449" stroke-width="1.5" stroke-miterlimit="10" stroke-linecap="round" stroke-linejoin="round"/>
<path id="Vector_6" d="M13.97 16L11.97 18" stroke="#344449" stroke-width="1.5" stroke-miterlimit="10" stroke-linecap="round" stroke-linejoin="round"/>
<path id="Vector_7" d="M9.96997 16L7.96997 18" stroke="#344449" stroke-width="1.5" stroke-miterlimit="10" stroke-linecap="round" stroke-linejoin="round"/>
</g>
</svg>
