<svg width="23" height="23" viewBox="0 0 23 23" fill="none" xmlns="http://www.w3.org/2000/svg">
<path id="icon" d="M16.0627 12.4261C19.1717 12.4261 21.6919 9.86827 21.6919 6.71305C21.6919 6.16776 21.6167 5.64031 21.4761 5.14083C21.3674 4.75459 20.8954 4.66493 20.6155 4.94896L19.1119 6.475C18.3346 7.26381 17.0745 7.26381 16.2973 6.475C15.52 5.6862 15.52 4.40728 16.2973 3.61848L17.8009 2.09244C18.0808 1.8084 17.9924 1.32938 17.6118 1.21906C17.1197 1.07639 16.6 1 16.0627 1C12.9538 1 10.4335 3.55782 10.4335 6.71305C10.4335 6.99526 10.4536 7.27269 10.4926 7.54394C10.6098 8.36038 10.5228 9.23285 10.069 9.89132C9.99663 9.99626 9.91499 10.0958 9.82338 10.1887L1.58293 18.5519C0.805691 19.3407 0.805691 20.6196 1.58293 21.4084C2.36016 22.1972 3.62031 22.1972 4.39755 21.4084L11.5 14.2002L12.638 13.0453C13.3045 12.3689 14.3113 12.2282 15.244 12.3661C15.2741 12.3706 15.3042 12.3748 15.3345 12.3787C15.5729 12.41 15.8159 12.4261 16.0627 12.4261Z" stroke="#344449" stroke-width="1.478" stroke-linecap="round"/>
</svg>
