<svg width="26" height="26" viewBox="0 0 26 26" fill="none" xmlns="http://www.w3.org/2000/svg">
<path id="icon" d="M14.3333 14.3333L18.3333 7.66667M7.66667 7.66667H7.68M13 5H13.0133M21 13H21.0133M5 13H5.01333M15.6667 17C15.6667 18.4728 14.4728 19.6667 13 19.6667C11.5272 19.6667 10.3333 18.4728 10.3333 17C10.3333 15.5272 11.5272 14.3333 13 14.3333C14.4728 14.3333 15.6667 15.5272 15.6667 17ZM25 13C25 19.6275 19.6275 25 13 25C6.37259 25 1 19.6275 1 13C1 6.37259 6.37259 1 13 1C19.6275 1 25 6.37259 25 13Z" stroke="#344449" stroke-width="1.5" stroke-linecap="round" stroke-linejoin="round"/>
</svg>
