<svg width="14" height="29" viewBox="0 0 14 29" fill="none" xmlns="http://www.w3.org/2000/svg">
<path id="icon" d="M7 20.4997C6.17155 20.4997 5.5 21.1712 5.5 21.9997C5.5 22.8281 6.17155 23.4997 7 23.4997C7.82845 23.4997 8.5 22.8281 8.5 21.9997C8.5 21.1712 7.82845 20.4997 7 20.4997ZM7 20.4997V14.5M7 21.9997L7.01065 22.0104M13 21.9997C13 25.3135 10.3136 27.9997 7 27.9997C3.68629 27.9997 1 25.3135 1 21.9997C1 20.4781 1.56646 19.0887 2.5 18.031V5.5C2.5 3.01472 4.51465 1 7 1C9.48535 1 11.5 3.01472 11.5 5.5V18.031C12.4336 19.0887 13 20.4781 13 21.9997Z" stroke="#344449" stroke-width="1.7" stroke-linecap="round" stroke-linejoin="round"/>
</svg>
