<svg width="26" height="26" viewBox="0 0 26 26" fill="none" xmlns="http://www.w3.org/2000/svg">
<g id="icon">
<path id="Vector" d="M13 16.25C14.7949 16.25 16.25 14.7949 16.25 13C16.25 11.2051 14.7949 9.75 13 9.75C11.2051 9.75 9.75 11.2051 9.75 13C9.75 14.7949 11.2051 16.25 13 16.25Z" stroke="#344449" stroke-width="1.625" stroke-miterlimit="10" stroke-linecap="round" stroke-linejoin="round"/>
<path id="Vector_2" d="M2.16675 13.9542V12.0475C2.16675 10.9209 3.08758 9.9892 4.22508 9.9892C6.18591 9.9892 6.98758 8.60253 6.00175 6.9017C5.43841 5.9267 5.77425 4.6592 6.76008 4.09587L8.63425 3.02337C9.49008 2.5142 10.5951 2.81753 11.1042 3.67337L11.2234 3.8792C12.1984 5.58003 13.8017 5.58003 14.7876 3.8792L14.9067 3.67337C15.4159 2.81753 16.5209 2.5142 17.3767 3.02337L19.2509 4.09587C20.2367 4.6592 20.5726 5.9267 20.0092 6.9017C19.0234 8.60253 19.8251 9.9892 21.7859 9.9892C22.9126 9.9892 23.8442 10.91 23.8442 12.0475V13.9542C23.8442 15.0809 22.9234 16.0125 21.7859 16.0125C19.8251 16.0125 19.0234 17.3992 20.0092 19.1C20.5726 20.0859 20.2367 21.3425 19.2509 21.9059L17.3767 22.9784C16.5209 23.4875 15.4159 23.1842 14.9067 22.3284L14.7876 22.1225C13.8126 20.4217 12.2092 20.4217 11.2234 22.1225L11.1042 22.3284C10.5951 23.1842 9.49008 23.4875 8.63425 22.9784L6.76008 21.9059C5.77425 21.3425 5.43841 20.075 6.00175 19.1C6.98758 17.3992 6.18591 16.0125 4.22508 16.0125C3.08758 16.0125 2.16675 15.0809 2.16675 13.9542Z" stroke="#344449" stroke-width="1.625" stroke-miterlimit="10" stroke-linecap="round" stroke-linejoin="round"/>
</g>
</svg>
