<svg width="24" height="22" viewBox="0 0 24 22" fill="none" xmlns="http://www.w3.org/2000/svg">
<g id="icon">
<path id="Vector" d="M10.7247 0.907084L10.725 0.907055C11.616 0.817708 13.7607 0.881149 14.7179 1.02756L14.7181 1.02759C17.3894 1.44019 20.0476 2.55696 22.1742 4.15716C22.8638 4.67423 23.2122 5.011 23.4179 5.41842C23.4938 5.56417 23.5425 5.67431 23.569 5.82466C23.5944 5.96882 23.5987 6.14594 23.5987 6.42411C23.5987 6.71025 23.5961 6.88724 23.5696 7.03154C23.5418 7.18301 23.4887 7.29434 23.4044 7.45107L23.4039 7.45193C23.1627 7.89269 22.8033 8.23341 22.3296 8.4594L22.3296 8.4594L22.3286 8.45984C22.1826 8.52811 22.064 8.57396 21.926 8.60135C21.7898 8.62838 21.6408 8.63618 21.4357 8.63618C21.1252 8.63618 20.8941 8.60859 20.6415 8.4992C20.3952 8.39255 20.1357 8.21102 19.7613 7.92187C15.3094 4.48981 9.13083 4.49628 4.70371 7.9467L4.70369 7.94671C4.34395 8.22697 4.09001 8.40271 3.84094 8.5056C3.58685 8.61055 3.34682 8.63618 3.02274 8.6362L3.02086 8.63617C2.79645 8.63302 2.64162 8.62525 2.5021 8.59544C2.35969 8.56502 2.23979 8.51313 2.08241 8.43254C1.59845 8.18471 1.17538 7.71229 0.991137 7.20775C0.93363 7.05711 0.897832 6.93314 0.879966 6.79111C0.862339 6.65098 0.862844 6.49833 0.872136 6.29214L0.872127 6.29214L0.872214 6.2906C0.897728 5.83985 0.98534 5.49601 1.23471 5.15007C1.47831 4.81214 1.87094 4.48016 2.48281 4.03614L2.4829 4.03608C4.91838 2.27163 7.68898 1.21799 10.7247 0.907084ZM14.5418 2.30033L14.5416 2.30031C13.6234 2.15707 11.6556 2.09477 10.8448 2.18152L10.8448 2.18153C7.78923 2.50634 5.13234 3.57366 2.72992 5.43464L2.72969 5.43482C2.47168 5.63378 2.3203 5.7837 2.2313 5.92967C2.14548 6.07043 2.11183 6.21738 2.11183 6.42411C2.11183 6.58661 2.13581 6.71079 2.18755 6.82135C2.23964 6.93266 2.32438 7.03984 2.46049 7.16145L2.46065 7.16158C2.63562 7.31838 2.82197 7.38956 3.01508 7.38628C3.21063 7.38295 3.42836 7.3029 3.66178 7.12877L3.66232 7.12837C5.56595 5.7231 7.05701 4.96452 8.87923 4.49955L8.87947 4.49949C11.7166 3.78102 14.6414 3.9781 17.3424 5.07188L17.3426 5.07199C18.469 5.53088 19.4134 6.08534 20.8269 7.13475C21.0602 7.30568 21.2779 7.38439 21.4736 7.38706C21.6671 7.38969 21.8536 7.31836 22.0285 7.16158L22.0287 7.16145C22.1648 7.03984 22.2495 6.93266 22.3016 6.82135C22.3533 6.71079 22.3773 6.58661 22.3773 6.42411C22.3773 6.21738 22.3437 6.07043 22.2579 5.92967C22.1689 5.7837 22.0175 5.63378 21.7595 5.43482L21.7592 5.43464C19.5819 3.74813 17.1992 2.71233 14.5418 2.30033Z" fill="#344449" stroke="#344449" stroke-width="0.268462"/>
<path id="Vector_2" d="M11.4961 7.30261L11.4973 7.30251C11.6599 7.28919 12.1463 7.28957 12.5832 7.30846C14.4379 7.37229 16.0708 7.85741 17.6579 8.81995C18.1793 9.13334 18.5526 9.44601 18.7947 9.80233C19.039 10.162 19.143 10.5561 19.143 11.019C19.143 12.7152 17.4024 13.7828 15.9372 12.9686C15.0025 12.4507 14.3177 12.136 13.6798 11.9648C13.0448 11.7944 12.4494 11.7644 11.6914 11.8265L11.6904 11.8266C10.7046 11.9 10.0791 12.1285 8.59786 12.9435C8.37188 13.07 8.23191 13.1473 8.0812 13.1879C7.9295 13.2288 7.7726 13.2311 7.51832 13.2311L7.51643 13.2311C7.29179 13.2279 7.13491 13.2201 6.99495 13.1923C6.8519 13.1639 6.73245 13.1158 6.58003 13.041L6.58003 13.041L6.57947 13.0408C5.28263 12.3968 4.9374 10.6245 5.89904 9.53247L5.89932 9.53216C6.06345 9.34691 6.39261 9.10075 6.77093 8.86085C7.15281 8.6187 7.59814 8.37459 8.00475 8.19517C9.01518 7.74169 10.3084 7.41089 11.4961 7.30261ZM8.7998 11.3863L8.79984 11.3863C9.84759 10.808 10.9767 10.5259 12.246 10.5259C13.5345 10.5259 14.6636 10.8146 15.7416 11.4116C16.2388 11.6868 16.5025 11.8317 16.6677 11.9087C16.7493 11.9467 16.801 11.9653 16.8409 11.975C16.8788 11.9843 16.9106 11.9867 16.9553 11.9867C17.4613 11.9867 17.8908 11.5534 17.8908 11.0127C17.8908 10.8077 17.8486 10.653 17.7477 10.5064C17.6434 10.3546 17.47 10.2024 17.1889 10.0166C16.0155 9.24856 14.6285 8.76407 13.0928 8.60242C12.1857 8.50955 11.3328 8.55881 10.3553 8.75775C9.62765 8.91242 8.78707 9.22444 8.08889 9.56991C7.73997 9.74255 7.42959 9.9221 7.18836 10.0925C6.94246 10.2661 6.7841 10.4196 6.7198 10.5361C6.65215 10.6586 6.61117 10.8247 6.60342 10.9929C6.59563 11.162 6.62212 11.3162 6.67287 11.418C6.84971 11.7628 7.20007 11.9867 7.53676 11.9867C7.60968 11.9867 7.66835 11.9797 7.83738 11.9008C8.01276 11.8191 8.29067 11.6676 8.7998 11.3863Z" fill="#344449" stroke="#344449" stroke-width="0.268462"/>
<path id="Vector_3" d="M11.8253 13.8532L11.8262 13.853C12.1144 13.8089 12.4831 13.8334 12.8495 13.9043C13.2171 13.9754 13.5936 14.0953 13.8989 14.25C14.1311 14.3672 14.4449 14.6304 14.7244 14.912C15.0046 15.1941 15.2697 15.5141 15.396 15.7558L15.3962 15.7563C15.5104 15.9769 15.6165 16.2886 15.6939 16.5985C15.7712 16.9081 15.8231 17.2286 15.8231 17.4677L15.8231 17.4681C15.8168 19.4839 14.2173 21.1342 12.2461 21.1342C9.91713 21.1342 8.22259 18.8951 8.79594 16.5979C8.88088 16.2532 8.98147 15.975 9.12817 15.7144C9.27469 15.4541 9.46413 15.2167 9.72083 14.9506C10.295 14.3496 11.0104 13.9836 11.8253 13.8532ZM13.0658 15.2699L13.0658 15.27L13.0629 15.2688C12.9221 15.2123 12.6942 15.1636 12.4629 15.1359C12.2302 15.1079 12.0169 15.1038 11.9024 15.125C10.9932 15.3043 10.3068 15.9291 10.0321 16.8268C9.69529 17.9395 10.2355 19.1566 11.3081 19.67L11.3081 19.67L11.3094 19.6706C11.4583 19.7438 11.5509 19.7799 11.6714 19.8004C11.7976 19.8218 11.9586 19.8268 12.2461 19.8268C12.5336 19.8268 12.6946 19.8218 12.8207 19.8004C12.9413 19.7799 13.0339 19.7438 13.1828 19.6706L13.1828 19.6706L13.184 19.6701C13.3667 19.5823 13.6502 19.3831 13.8072 19.2344C14.6633 18.411 14.8048 17.1909 14.155 16.1537L14.1546 16.153C13.9371 15.8014 13.4754 15.4236 13.0658 15.2699ZM11.8772 14.9932C12.1477 14.9428 12.7994 15.0183 13.1129 15.1443L11.8772 14.9932Z" fill="#344449" stroke="#344449" stroke-width="0.268462"/>
</g>
</svg>
