<svg width="15" height="14" viewBox="0 0 15 14" fill="none" xmlns="http://www.w3.org/2000/svg">
<g id="file-check" clip-path="url(#clip0_113_2956)">
<path id="icon" opacity="0.24" d="M7.98379 4.55097V1.65527H8.28301C8.50187 1.65527 8.71211 1.74063 8.86903 1.89319L11.5723 4.52133C11.7351 4.67962 11.8269 4.89703 11.8269 5.1241V5.39165H8.82448C8.36018 5.39165 7.98379 5.01526 7.98379 4.55097Z" fill="white"/>
<path id="icon_2" d="M12.9478 10.0621L10.706 12.3039L9.5851 11.183M7.98379 1.65527H4.54099C3.61239 1.65527 2.85962 2.40805 2.85962 3.33664V11.183C2.85962 12.1116 3.61239 12.8644 4.54099 12.8644H7.34327M7.98379 1.65527V4.55097C7.98379 5.01526 8.36018 5.39165 8.82448 5.39165H11.8269M7.98379 1.65527H8.28301C8.50187 1.65527 8.71211 1.74063 8.86903 1.89319L11.5723 4.52133C11.7351 4.67962 11.8269 4.89703 11.8269 5.1241V5.39165M11.8269 5.39165V6.69938" stroke="white" stroke-width="1.12091" stroke-linecap="round" stroke-linejoin="round"/>
</g>
<defs>
<clipPath id="clip0_113_2956">
<rect width="13.451" height="13.451" fill="white" transform="translate(0.617798 0.534668)"/>
</clipPath>
</defs>
</svg>
