<svg width="22" height="22" viewBox="0 0 22 22" fill="none" xmlns="http://www.w3.org/2000/svg">
<g id="update 1" clip-path="url(#clip0_127_1595)">
<path id="Vector" d="M10.3502 6.19244V7.86997C10.3502 8.58906 11.2196 8.94918 11.7281 8.44071L15.0154 5.15342C15.3306 4.83821 15.3306 4.32716 15.0154 4.01194L11.7281 0.724656C11.2196 0.21618 10.3502 0.576309 10.3502 1.29539V3.04208C6.24367 3.37274 3.01687 6.80756 3.01687 10.9993C3.01687 12.4911 3.43303 13.8788 4.14232 15.0695C4.41707 15.5307 5.04012 15.587 5.40216 15.225L6.51918 14.1079C6.77236 13.8548 6.82266 13.4744 6.66813 13.1691C6.33787 12.5168 6.1502 11.7826 6.1502 10.9993C6.1502 8.53999 7.97827 6.50967 10.3502 6.19244ZM7.77075 16.8453L8.23037 17.3049L7.77075 16.8453C7.45554 17.1605 7.45554 17.6715 7.77075 17.9868L11.058 21.274L11.5028 20.8292L11.058 21.274C11.5665 21.7825 12.4359 21.4224 12.4359 20.7033V18.9566C16.5425 18.626 19.7692 15.1911 19.7692 10.9993C19.7692 9.50756 19.3531 8.11991 18.6438 6.92924C18.3691 6.46802 17.746 6.41169 17.384 6.77373L16.2669 7.89076C16.0138 8.14393 15.9635 8.52432 16.118 8.82955C16.4482 9.4819 16.6359 10.2161 16.6359 10.9993C16.6359 13.4587 14.8078 15.489 12.4359 15.8063V14.1287C12.4359 13.4096 11.5665 13.0495 11.058 13.558L7.77075 16.8453Z" stroke="#344449" stroke-width="1.3"/>
</g>
<defs>
<clipPath id="clip0_127_1595">
<rect width="22" height="22" fill="white"/>
</clipPath>
</defs>
</svg>
