<svg width="83" height="71" viewBox="0 0 83 71" fill="none" xmlns="http://www.w3.org/2000/svg">
<path d="M62.0698 4.77555C68.0535 9.28055 71.1582 16.3394 70.9793 23.3994C73.07 23.6631 75.1321 24.4627 76.9644 25.8287C82.7011 30.1058 84.0104 38.3178 79.8886 44.1706L63.8965 66.8792L51.5477 57.6725L42.8208 70.1916L8.13164 44.0881C-0.62194 36.7069 -2.44202 23.5145 4.18848 14.0262C10.8265 4.52714 23.5052 2.21655 33.0002 8.56868C40.0261 -0.412159 52.8119 -2.19473 62.0698 4.77555ZM44.4836 36.3091C42.675 38.8771 43.246 42.4582 45.7631 44.3348L62.2636 56.6374L74.1188 39.803C75.9273 37.235 75.3564 33.6539 72.8392 31.7773C70.2893 29.8761 66.7157 30.4472 64.8773 33.058L59.6714 40.426L53.9231 36.1436L52.439 35.0377C49.8891 33.1365 46.3156 33.7076 44.4836 36.3091ZM9.9733 18.372C5.60583 24.6219 6.72567 33.3349 12.4591 38.2916L41.1807 59.9044L45.7497 53.3519L41.638 50.2838C35.9013 46.0067 34.592 37.7946 38.7137 31.9419C42.8354 26.0891 50.8274 24.8118 56.5642 29.089L58.0461 30.1931L59.1139 28.6815C60.3605 26.9115 61.9611 25.5596 63.7463 24.6538C64.4132 19.4512 62.3322 14.0276 57.918 10.704C51.7842 6.08615 43.251 7.22286 38.5533 13.2278L34.56 18.3321L29.1759 14.73C22.8276 10.4831 14.3811 12.0645 9.9733 18.372Z" fill="white"/>
</svg>
