<svg width="78" height="86" viewBox="0 0 78 86" fill="none" xmlns="http://www.w3.org/2000/svg">
<g id="ic:baseline-video-chat" filter="url(#filter0_d_2006_127)">
<path id="Vector" d="M46 27H22C20.35 27 19.015 28.35 19.015 30L19 57L25 51H46C47.65 51 49 49.65 49 48V30C49 28.35 47.65 27 46 27ZM41.5 43.5L38.5 40.515V43.5C38.5 44.325 37.825 45 37 45H28C27.175 45 26.5 44.325 26.5 43.5V34.5C26.5 33.675 27.175 33 28 33H37C37.825 33 38.5 33.675 38.5 34.5V37.485L41.5 34.5V43.5Z" fill="#F30FAC"/>
</g>
<defs>
<filter id="filter0_d_2006_127" x="-12.3" y="-4.3" width="92.6" height="92.6" filterUnits="userSpaceOnUse" color-interpolation-filters="sRGB">
<feFlood flood-opacity="0" result="BackgroundImageFix"/>
<feColorMatrix in="SourceAlpha" type="matrix" values="0 0 0 0 0 0 0 0 0 0 0 0 0 0 0 0 0 0 127 0" result="hardAlpha"/>
<feOffset/>
<feGaussianBlur stdDeviation="14.15"/>
<feComposite in2="hardAlpha" operator="out"/>
<feColorMatrix type="matrix" values="0 0 0 0 1 0 0 0 0 0.391667 0 0 0 0 0.810563 0 0 0 0.65 0"/>
<feBlend mode="normal" in2="BackgroundImageFix" result="effect1_dropShadow_2006_127"/>
<feBlend mode="normal" in="SourceGraphic" in2="effect1_dropShadow_2006_127" result="shape"/>
</filter>
</defs>
</svg>
