<svg width="54" height="45" viewBox="0 0 54 45" fill="none" xmlns="http://www.w3.org/2000/svg">
<path d="M52.502 18.4215C51.3533 13.3485 48.1778 8.87409 44.1635 5.56665C40.4006 2.46634 35.7315 0.272212 30.8566 0.192633C28.1383 0.148272 25.4559 0.752572 22.8045 1.35353C20.8296 1.80113 18.8485 2.25053 16.9459 2.94359C11.4506 4.94534 6.74244 9.02922 3.98437 14.1866C0.781555 20.1757 0.349777 27.7983 3.69259 33.7103C5.9774 37.7512 9.90973 40.8021 14.3578 42.1303C16.5097 42.7729 26.5266 44.4095 29.0574 44.4284C32.538 44.4544 35.498 43.409 38.911 42.7257C40.7954 42.3484 42.6708 41.7994 44.3177 40.809C48.6773 38.1871 51.6217 33.2295 52.8849 28.3015C53.768 24.8566 53.0881 21.0096 52.502 18.4215Z" fill="#FEC7C2" stroke="#FEC7C2" stroke-width="0.1824" stroke-miterlimit="10"/>
<path opacity="0.46" d="M4.45439 12.6808C2.62202 16.3088 3.29219 20.737 4.8642 24.4851C7.58228 30.9659 12.8556 36.2544 19.1471 39.3858C25.4385 42.5172 32.6872 43.5445 39.667 42.7249C33.9049 44.1557 27.8702 44.9042 22.0241 43.8685C18.7945 43.2962 15.6867 42.1923 12.5965 41.093C11.1653 40.5839 9.72256 40.0694 8.42509 39.2793C6.47577 38.0924 4.92995 36.3227 3.74305 34.3734C-0.363758 27.6284 -0.0257339 18.4454 4.45439 12.6808Z" fill="#EBA8A2"/>
<path d="M37.0873 0.938975C41.8135 2.57359 46.0415 5.59297 49.1051 9.54777C52.1515 13.4804 53.9872 18.2897 53.9999 23.2892C54.0124 28.2041 52.3769 33.1039 49.3467 36.9786C47.8011 38.9551 45.8729 40.6103 43.693 41.8518C41.3541 43.1838 38.7641 44.0421 36.1182 44.5053C30.6867 45.456 25.0958 44.9026 19.723 43.8444C14.4312 42.8022 8.83272 41.1471 5.08402 37.0268C1.63931 33.2407 0.18671 27.9403 0.564064 22.8947C0.932503 17.968 3.01448 13.2122 6.42508 9.63357C9.66389 6.23518 13.9157 4.14283 18.2705 2.54816C20.6633 1.67198 23.1259 0.966321 25.6356 0.517993C28.2072 0.0586424 30.8527 -0.155785 33.4556 0.146403C34.684 0.289048 35.9155 0.539117 37.0873 0.938975C37.745 1.16339 37.4626 2.2126 36.7987 1.98603C32.0529 0.366708 26.7573 1.13362 22.038 2.46612C19.8242 3.09116 17.6344 3.88385 15.5499 4.81023C13.5094 5.71699 11.5368 6.76451 9.75096 8.11345C6.03563 10.9198 3.40885 14.9018 2.23432 19.401C1.01911 24.0559 1.48499 29.2621 3.86098 33.4836C5.08414 35.6568 6.80996 37.4742 8.89843 38.8349C11.1245 40.2853 13.6305 41.2247 16.1838 41.9176C18.741 42.6116 21.366 43.1119 23.9916 43.463C26.6542 43.8191 29.3511 43.9908 32.0364 43.8644C37.1088 43.6256 42.2802 42.1938 46.1593 38.7805C49.6806 35.6821 51.9013 31.3013 52.6497 26.6967C53.4121 22.0065 52.4905 17.2084 50.1609 13.0795C47.8141 8.92042 44.1971 5.52591 39.9603 3.33997C38.9393 2.81321 37.8844 2.36154 36.7987 1.98603C36.5217 1.89021 36.3382 1.61394 36.4195 1.31821C36.4935 1.04894 36.809 0.842688 37.0873 0.938975Z" fill="#520C05"/>
<path opacity="0.46" d="M5.05276 17.2024C5.44041 19.1722 6.0893 21.0748 6.90829 22.9068C7.72483 24.7335 8.70356 26.4756 9.84391 28.1199C12.1 31.3729 15.0062 34.162 18.3308 36.2958C20.2294 37.5145 22.2067 38.6043 24.2981 39.457C24.6247 39.5901 24.5086 40.1002 24.1481 40.0011C22.1798 39.4599 20.2295 38.6811 18.472 37.6361C16.6987 36.5818 15.0422 35.3201 13.5275 33.9206C10.521 31.1427 8.01431 27.7434 6.36825 23.9884C5.44167 21.8747 4.80377 19.6548 4.38501 17.3865C4.30474 16.952 4.96638 16.7634 5.05276 17.2024Z" fill="#EBA8A2"/>
<path opacity="0.51" d="M42.2144 6.61522C43.3501 7.33386 44.3997 8.19537 45.3179 9.17721C46.2267 10.149 47.0771 11.2475 47.6582 12.449C47.9898 13.1347 48.2476 13.8498 48.4453 14.585C48.5447 14.9548 47.9858 15.218 47.8084 14.8535C47.2556 13.7173 46.5918 12.6104 45.8705 11.5733C45.1554 10.5453 44.302 9.61317 43.3532 8.79648C42.8225 8.33959 42.258 7.92729 41.6663 7.55285C41.0774 7.18015 41.6216 6.2401 42.2144 6.61522Z" fill="white"/>
<path opacity="0.51" d="M49.1159 16.4356C49.7145 18.4326 49.9448 20.5952 49.3617 22.6244C49.2724 22.935 48.8124 22.8698 48.8033 22.5488C48.7475 20.5863 48.6358 18.616 48.0689 16.7242C47.8678 16.0534 48.9155 15.7668 49.1159 16.4356Z" fill="white"/>
<path d="M40.2434 23.0707C40.1433 22.3809 40.0229 21.4115 39.1568 21.1097C38.7727 20.9758 38.3973 21.0926 38.085 21.3012C37.9011 21.4239 37.7353 21.569 37.5803 21.7184C37.4106 21.8819 37.2399 22.0384 37.0623 22.1958C36.9564 22.2896 36.7697 22.2872 36.6573 22.2043C36.5306 22.1108 36.522 21.9813 36.5885 21.857C36.84 21.387 37.291 21.0048 37.7924 20.7271C38.2443 20.4769 38.81 20.3743 39.3236 20.5535C40.4526 20.9475 40.7301 22.0045 40.866 22.9418C40.8876 23.0909 40.8136 23.2396 40.6316 23.2771C40.4788 23.3086 40.2651 23.2209 40.2434 23.0707Z" fill="#520C05"/>
<path d="M23.8937 22.771C23.3711 22.2433 22.6573 21.5021 21.7517 21.6699C21.3615 21.7421 21.1308 22.0066 21.0049 22.3207C20.9346 22.4961 20.8859 22.6803 20.854 22.8641C20.8107 23.1131 20.7671 23.3572 20.7145 23.605C20.6599 23.8621 20.1662 23.8403 20.1205 23.5868C20.0947 23.4432 20.0616 23.2912 20.065 23.1455C20.0683 22.9981 20.112 22.8409 20.1446 22.6966C20.1986 22.4574 20.2743 22.2242 20.3893 22.002C20.6113 21.573 20.9964 21.2252 21.541 21.1217C22.7276 20.896 23.6509 21.6763 24.359 22.3915C24.6287 22.6639 24.1645 23.0445 23.8937 22.771Z" fill="#520C05"/>
<path d="M32.9606 21.685C33.0172 22.8372 32.9739 24.1373 31.7858 24.8654C31.2875 25.1708 30.6398 25.2868 30.0535 25.0976C29.4571 24.9053 28.9629 24.4736 28.6529 23.9982C28.2766 23.421 27.9325 22.6607 28.0227 21.9928C28.0491 21.7975 28.386 21.6766 28.4991 21.8961C28.6569 22.2023 28.7495 22.5207 28.8914 22.8315C29.0306 23.1365 29.21 23.4304 29.4102 23.7086C29.712 24.1278 30.1447 24.5841 30.7761 24.5372C31.3546 24.4941 31.8356 24.0673 32.0543 23.6261C32.3568 23.0157 32.3218 22.3167 32.3019 21.6648C32.2906 21.2951 32.9427 21.3194 32.9606 21.685Z" fill="#520C05"/>
<g opacity="0.46">
<path d="M23.7911 25.9732C23.9184 25.2175 23.3399 24.6331 22.7081 24.3231C21.6244 23.7914 20.2361 23.7111 19.0633 23.9094C18.4371 24.0152 17.7966 24.3353 17.7858 25.0548C17.7713 26.0191 19.2256 26.8148 20.031 26.9694C20.9702 27.1496 23.5572 27.3605 23.7911 25.9732Z" fill="#EBA8A2"/>
<path d="M37.1085 25.5562C37.0146 24.7957 37.6184 24.2373 38.2632 23.9555C39.3693 23.4721 40.7598 23.4531 41.9227 23.7029C42.5437 23.8363 43.1693 24.1843 43.1484 24.9035C43.1203 25.8675 41.6324 26.5983 40.821 26.7172C39.8747 26.8558 37.281 26.9525 37.1085 25.5562Z" fill="#EBA8A2"/>
</g>
</svg>
