<svg width="55" height="51" viewBox="0 0 55 51" fill="none" xmlns="http://www.w3.org/2000/svg">
<path d="M54.1112 26.8177C53.0096 21.4401 51.2328 16.1253 48.1578 11.5781C45.0828 7.03095 40.6111 3.28741 35.3259 1.80442C32.5877 1.03608 29.7189 0.885558 26.8772 0.772258C25.4812 0.71661 24.0546 0.672621 22.7182 1.08003C19.9731 1.91691 14.677 5.00694 12.305 6.13946C11.3626 6.58941 10.6387 7.38856 9.97565 8.19532C4.98113 14.2718 2.00048 21.976 1.60481 29.8317C1.50798 31.7545 1.56691 33.7177 2.16947 35.5463C2.72727 37.239 3.73071 38.7521 4.85533 40.1346C10.4059 46.9581 19.3459 50.9045 28.122 50.3149C30.0991 50.1821 32.0585 49.8338 33.9774 49.3398C39.7096 47.8641 45.1829 44.9993 49.1423 40.5996C52.6143 36.7416 55.0579 31.4398 54.1112 26.8177Z" fill="#F9EEE8"/>
<path d="M13.9045 5.51048C8.39135 12.1329 6.66433 23.9218 11.1236 31.2951C24.2852 53.0572 50.0475 39.4539 50.0475 39.4539C50.0475 39.4539 45.3795 45.1745 38.7913 47.5465C33.4911 49.4547 28.2684 50.3677 22.6687 49.7548C17.6672 49.2075 13.0348 46.8685 8.80091 44.15C6.82005 42.8782 4.8513 41.4677 3.55147 39.505C1.80702 36.871 1.47209 33.5643 1.41496 30.4055C1.35294 26.9755 1.56788 23.4936 2.6536 20.2393C4.66339 14.2151 9.41209 9.57392 13.9045 5.51048Z" fill="#F0DBCE"/>
<path d="M53.0757 35.1397C52.0286 37.5231 50.5462 39.6772 48.74 41.5479C46.9352 43.4172 44.8198 44.9706 42.553 46.2333C40.2423 47.5203 37.7624 48.4875 35.2102 49.1748C32.6515 49.8638 30.0117 50.2589 27.3634 50.3488C24.8176 50.4352 22.2698 50.24 19.7719 49.7359C17.2915 49.2353 14.8607 48.4607 12.5802 47.3593C10.3358 46.2754 8.24368 44.8903 6.4417 43.1638C4.68624 41.4819 3.24106 39.4755 2.27609 37.2396C1.0465 34.3905 0.637619 31.2604 0.820507 28.1766C1.00504 25.0654 1.77093 21.983 2.89287 19.0815C3.90115 16.4739 5.23255 13.9782 6.86718 11.7088C8.49348 9.45099 10.4378 7.40021 12.6622 5.72391C14.8593 4.06829 17.32 2.80673 19.9399 1.9708C22.5535 1.13684 25.2628 0.693251 28.005 0.633517C30.7147 0.574503 33.4339 0.92021 36.0307 1.70257C38.557 2.4637 40.9735 3.67482 43.0251 5.34235C44.7258 6.7247 46.1624 8.42252 47.4547 10.1843C48.9183 12.1796 50.2093 14.3109 51.2982 16.5331C52.4622 18.9085 53.3997 21.4123 53.969 23.9988C54.5203 26.5038 54.7006 29.1198 54.2549 31.6567C54.0401 32.8792 53.6287 34.0296 53.1351 35.1629C52.9053 35.6906 52.0674 35.3676 52.2989 34.8359C52.7757 33.741 53.037 32.5484 53.2107 31.3716C53.3867 30.1783 53.4271 28.9556 53.3491 27.7766C53.1825 25.2595 52.5997 22.7944 51.7289 20.4313C50.857 18.0651 49.7261 15.7945 48.4126 13.6433C47.3009 11.8228 46.0092 10.0316 44.5773 8.41875C43.0368 6.68364 41.2304 5.22841 39.159 4.17093C36.8695 3.00208 34.3788 2.28346 31.8348 1.95782C29.2364 1.62521 26.5984 1.69288 24.0161 2.127C21.4511 2.55825 18.9389 3.34851 16.6233 4.53948C14.2368 5.76686 12.0837 7.43371 10.2296 9.36962C8.38307 11.2977 6.81249 13.5132 5.55654 15.8671C4.23348 18.3469 3.20324 21.011 2.56139 23.749C1.85735 26.7523 1.59257 29.8919 2.10715 32.9472C2.53366 35.4795 3.52063 37.8874 5.02317 39.9717C6.39387 41.873 8.13054 43.473 10.0724 44.7779C12.0778 46.1255 14.2893 47.1478 16.583 47.898C18.9175 48.6615 21.3439 49.1329 23.7909 49.3358C26.291 49.543 28.8073 49.4467 31.2889 49.0837C33.844 48.71 36.3583 48.0565 38.7602 47.1061C41.1256 46.1702 43.3863 44.9549 45.4191 43.4214C47.414 41.9166 49.183 40.12 50.5888 38.0504C51.2742 37.0414 51.865 35.9746 52.3584 34.8591C52.5579 34.4079 53.2759 34.684 53.0757 35.1397Z" fill="#520C05"/>
<path d="M10.8342 18.2838C10.755 19.3898 10.8242 20.5036 10.9291 21.6063C11.0352 22.7215 11.2235 23.8337 11.4846 24.923C11.9994 27.0713 12.8459 29.1473 13.9677 31.05C16.2396 34.9032 19.7667 37.9199 23.8526 39.7095C26.1751 40.7267 28.594 41.473 31.1129 41.7932C31.4425 41.8351 31.3797 42.2952 31.0604 42.2962C28.7377 42.3036 26.3386 41.9238 24.1688 41.0797C21.9827 40.2294 19.9189 39.0198 18.1009 37.5383C14.4579 34.5697 11.8631 30.4656 10.6545 25.9316C10.3246 24.6941 10.1028 23.4331 10.0032 22.156C9.8999 20.8321 9.96601 19.526 10.0864 18.2058C10.1305 17.723 10.8687 17.8019 10.8342 18.2838Z" fill="#F0DBCE"/>
<path opacity="0.51" d="M49.6624 24.3829C49.4497 21.9792 48.7377 19.602 47.7729 17.3949C46.8134 15.1998 45.552 13.1519 43.996 11.3287C43.556 10.8131 43.0936 10.3165 42.6099 9.84163C42.1294 9.36988 41.5682 8.96564 41.166 8.42603C40.9038 8.07423 41.2551 7.4663 41.7067 7.68609C41.854 7.75777 42.021 7.82239 42.1555 7.91586C42.2767 7.99999 42.3855 8.11569 42.4954 8.21405C42.7554 8.44682 43.0096 8.686 43.2601 8.92894C43.7104 9.36572 44.1426 9.82112 44.5557 10.2932C45.3664 11.2198 46.1023 12.2095 46.7544 13.2537C48.0769 15.3714 49.0921 17.679 49.6693 20.1121C49.992 21.472 50.1613 22.8898 50.2603 24.2832C50.2877 24.668 49.697 24.7736 49.6624 24.3829Z" fill="white"/>
<path opacity="0.51" d="M42.7007 11.1945C43.8091 12.5558 44.822 14.0252 45.5626 15.6202C46.2919 17.1907 46.9317 18.8464 47.2859 20.5447C47.348 20.8425 46.8827 20.9895 46.7714 20.7011C46.1583 19.1118 45.5034 17.5553 44.6332 16.0863C43.7761 14.6396 42.8679 13.2268 41.8019 11.9236C41.3297 11.3463 42.2296 10.6161 42.7007 11.1945Z" fill="white"/>
<path d="M30.3025 25.4571C30.5893 26.4029 30.2095 27.4979 29.3358 27.9959C28.9042 28.2419 28.416 28.3466 27.9221 28.276C27.4193 28.2042 26.9917 27.9423 26.6592 27.5657C26.337 27.2008 25.9963 26.5467 26.2081 26.0624C26.291 25.8729 26.5993 25.828 26.71 26.0188C26.8297 26.2249 26.8553 26.4556 26.9548 26.6713C27.0361 26.8478 27.1586 27.01 27.3032 27.1394C27.6189 27.422 28.0091 27.5422 28.4231 27.5096C28.8558 27.4756 29.2478 27.275 29.4954 26.9124C29.7361 26.5601 29.8121 26.0945 29.694 25.6845C29.6455 25.516 29.7115 25.3313 29.8846 25.2666C30.0411 25.208 30.2514 25.2886 30.3025 25.4571Z" fill="#520C05"/>
<path d="M23.2472 25.7408C23.0255 26.6189 23.5882 27.4933 24.5084 27.5707C24.9152 27.6049 25.3263 27.4805 25.6324 27.2063C25.7908 27.0644 25.9147 26.8854 26.0012 26.6923C26.0931 26.4872 26.1012 26.26 26.2082 26.0624C26.3327 25.8322 26.6368 25.8562 26.7449 26.0846C26.9471 26.512 26.6593 27.0999 26.4161 27.4561C26.1516 27.8436 25.7472 28.1517 25.2922 28.2738C24.2907 28.5426 23.2364 28.0776 22.7718 27.1492C22.5396 26.6852 22.4728 26.1325 22.6073 25.63C22.6527 25.4606 22.7986 25.3336 22.9827 25.3654C23.1456 25.3936 23.2904 25.5698 23.2472 25.7408Z" fill="#520C05"/>
<path d="M18.4753 26.9161C18.0441 26.2957 18.1974 25.4433 18.8177 25.0121C19.4381 24.5808 20.2905 24.7341 20.7217 25.3544C21.153 25.9748 20.9997 26.8272 20.3794 27.2585C19.759 27.6897 18.9066 27.5364 18.4753 26.9161Z" fill="#520C05"/>
<path d="M34.1947 27.4391C33.4395 27.4212 32.8417 26.7945 32.8595 26.0393C32.8773 25.284 33.504 24.6862 34.2593 24.704C35.0146 24.7218 35.6124 25.3486 35.5945 26.1038C35.5767 26.8591 34.95 27.4569 34.1947 27.4391Z" fill="#520C05"/>
<path d="M22.0153 29.9008C22.0153 29.1015 21.3189 28.6005 20.6154 28.3912C19.4084 28.0321 17.9664 28.1901 16.7945 28.5972C16.1686 28.8147 15.5653 29.2548 15.6789 29.9968C15.8311 30.9912 17.4649 31.5577 18.3202 31.5771C19.3175 31.5997 22.0151 31.3684 22.0153 29.9008Z" fill="#EFA69A"/>
<path d="M31.0536 29.7768C31.0845 28.978 31.7998 28.5044 32.5109 28.3224C33.7308 28.0102 35.1656 28.2238 36.3209 28.676C36.9379 28.9174 37.5237 29.3806 37.3816 30.1176C37.191 31.1054 35.5365 31.6083 34.6812 31.5947C33.6837 31.5787 30.997 31.2432 31.0536 29.7768Z" fill="#EFA69A"/>
</svg>
