<svg width="53" height="47" viewBox="0 0 53 47" fill="none" xmlns="http://www.w3.org/2000/svg">
<path d="M13.3939 4.6361C9.80273 7.63212 6.6057 11.1001 3.91106 14.9226C2.2302 17.307 0.711066 19.921 0.333941 22.8139C-0.207851 26.97 1.67134 31.0461 3.8233 34.6429C4.75473 36.1996 5.75344 37.7286 6.98702 39.0588C10.0104 42.3191 14.2897 44.1958 18.6476 45.0782C29.7228 47.3208 41.8622 43.191 49.2722 34.6598C50.4867 33.2615 51.5938 31.7324 52.229 29.9925C53.8025 25.6821 52.2484 20.8692 50.1561 16.7854C48.1761 12.9206 45.622 9.22083 42.0316 6.77836C40.3241 5.61675 38.4265 4.76927 36.5404 3.92807C33.6244 2.62756 30.6474 1.31022 27.4719 0.977994C22.2695 0.433737 16.6916 1.88501 13.3939 4.6361Z" fill="#EEF2D3"/>
<path d="M0.0276887 24.5455C-0.00192517 29.3302 1.90669 33.9458 4.90528 37.6245C8.04516 41.4765 12.3427 44.2159 17.1282 45.5267C22.5556 47.0133 28.4041 46.7098 33.7835 45.1704C38.7285 43.7553 43.5241 41.3182 47.2446 37.7236C48.9826 36.0444 50.4903 34.0819 51.5099 31.8832C52.6102 29.5104 53.1227 26.9189 52.9752 24.3042C52.6671 18.8423 49.8925 13.7053 46.2234 9.75172C42.8189 6.08337 38.4572 3.30374 33.6944 1.76709C31.3143 0.999173 28.8252 0.539332 26.3215 0.505405C23.8505 0.47194 21.3621 0.832736 19.0034 1.57008C16.6823 2.29568 14.4637 3.38211 12.4964 4.81444C11.491 5.54639 10.5439 6.35771 9.68163 7.25437C8.96204 8.00261 8.32344 8.82206 7.64736 9.60877C4.7187 13.0168 1.5254 16.5771 0.334031 21.0238C0.18369 21.5849 0.0690844 22.1891 0.0418196 22.7709C0.0287263 23.0503 0.00292745 23.3303 0.00019327 23.6122C-0.00281048 23.9236 0.0302304 24.2355 0.0276887 24.5455C0.0241073 24.9786 0.697062 24.979 0.700644 24.5455C0.705342 23.9736 0.846789 23.3751 0.968749 22.8195C1.09383 22.2497 1.25884 21.686 1.43175 21.129C1.77113 20.0358 2.22578 18.9834 2.76815 17.9761C3.81811 16.0261 5.15875 14.2527 6.57687 12.5583C7.21232 11.799 7.86471 11.0542 8.50917 10.3026C9.16722 9.53522 9.79011 8.7383 10.4929 8.01031C12.1317 6.31269 14.0663 4.929 16.1799 3.88374C20.3904 1.80144 25.3077 1.11235 29.9283 1.95864C34.6401 2.82164 39.1088 4.94853 42.785 8.01536C46.6524 11.2417 49.8001 15.5556 51.1983 20.4308C51.9285 22.9769 52.1509 25.6892 51.5837 28.2913C51.0879 30.5656 50.0393 32.6672 48.6462 34.5233C45.7828 38.3386 41.5571 41.0712 37.1857 42.8568C32.1738 44.9041 26.6667 45.8672 21.2658 45.2706C16.3351 44.726 11.6212 42.7817 7.89344 39.4866C4.45141 36.4443 1.87126 32.3712 1.00707 27.8277C0.801232 26.7454 0.701453 25.6471 0.700606 24.5456C0.700298 24.1124 0.0303459 24.1119 0.0276887 24.5455Z" fill="#520C05"/>
<path opacity="0.44" d="M52.2176 24.1679C51.8824 21.7449 50.1854 15.7252 50.0959 16.1915C47.8363 27.9607 35.3831 38.2155 22.8892 40.2212C25.1153 39.4607 27.2842 38.5242 29.3638 37.4251C31.5107 36.2904 33.558 34.9709 35.4871 33.4963C37.4142 32.0233 39.2364 30.3862 40.8639 28.5858C42.4861 26.7912 43.9668 24.8389 45.3243 22.8379C45.4922 22.5905 45.6571 22.3411 45.8198 22.0902C45.9946 21.8207 45.5623 21.5691 45.3896 21.8388C44.0949 23.8616 42.6153 25.7245 40.9344 27.4405C39.2733 29.1362 37.516 30.745 35.6278 32.1858C31.8426 35.074 27.6449 37.4182 23.1483 38.9989C21.8861 39.4427 20.6031 39.8284 19.3053 40.1538C18.7328 40.2974 18.1572 40.4271 17.5816 40.5566C11.7848 40.3308 6.29974 38.0607 2.18945 33.0391C3.61801 38.0863 8.48536 41.3149 13.2283 43.5554C15.2213 44.4969 17.2775 45.3523 19.4446 45.7551C22.2858 46.2831 25.2128 46.0149 28.073 45.6016C34.0036 44.7447 40.0151 43.1909 44.8264 39.6191C49.6378 36.0473 53.0388 30.1036 52.2176 24.1679Z" fill="#CCCEAB"/>
<path opacity="0.51" d="M3.86166 22.325C3.98936 20.9025 4.47469 19.4313 5.35264 18.2921C6.27987 17.089 7.5319 16.2862 8.69543 15.3405C9.30392 14.846 9.82842 14.2851 10.2727 13.6381C10.6925 13.0268 11.0315 12.3666 11.3638 11.7052C12.004 10.431 12.6945 9.17753 13.6223 8.08643C14.136 7.48233 14.6887 6.90719 15.3106 6.41281C15.9377 5.91426 16.6349 5.54592 17.3091 5.12108C17.4633 5.02388 17.3663 4.77022 17.1828 4.82159C16.492 5.01487 15.8284 5.38514 15.2186 5.7566C14.5967 6.13538 14.0017 6.55664 13.4463 7.02789C12.2983 8.00187 11.4271 9.1934 10.7498 10.5309C10.4025 11.2165 10.08 11.9163 9.6971 12.5832C9.31143 13.255 8.8542 13.8453 8.29181 14.3785C7.72599 14.915 7.09713 15.3781 6.51709 15.8983C5.94665 16.4099 5.4382 16.97 5.01772 17.612C4.0906 19.0278 3.47414 20.6313 3.35045 22.325C3.3263 22.6548 3.83251 22.6494 3.86166 22.325Z" fill="white"/>
<path d="M23.6078 25.1734C24.5878 25.1008 25.5661 25.0663 26.5485 25.0993C27.0273 25.1153 27.5057 25.1414 27.9834 25.1776C28.2356 25.1967 28.4863 25.2269 28.738 25.2503C28.8507 25.2607 28.9639 25.2663 29.0769 25.2727C29.2299 25.2813 29.3611 25.2459 29.5085 25.2093C29.7955 25.138 29.885 24.6596 29.5878 24.5339C29.4504 24.4758 29.3201 24.4122 29.1703 24.3967C29.0453 24.3838 28.9193 24.3731 28.7937 24.3668C28.5434 24.3544 28.2912 24.3631 28.0407 24.3626C27.5505 24.3615 27.0604 24.3707 26.5706 24.3907C25.5779 24.4313 24.5832 24.4931 23.5951 24.5979C23.232 24.6365 23.2343 25.2012 23.6078 25.1734Z" fill="#520C05"/>
<path d="M35.4284 21.2082C35.4068 22.0394 35.3973 23.2055 34.5365 23.6466C34.1548 23.8422 33.7524 23.7384 33.4043 23.5194C33.1994 23.3904 33.0105 23.2332 32.8323 23.0699C32.6372 22.891 32.4419 22.7207 32.2394 22.55C32.1186 22.4481 31.9256 22.4686 31.8191 22.578C31.6991 22.7012 31.7056 22.8564 31.7892 22.9981C32.1053 23.5343 32.6176 23.9473 33.1696 24.2308C33.6672 24.4864 34.2649 24.5553 34.7753 24.2935C35.8972 23.7179 36.0589 22.4326 36.0882 21.3032C36.0929 21.1235 35.9986 20.9534 35.8058 20.9258C35.6438 20.9026 35.4331 21.0272 35.4284 21.2082Z" fill="#520C05"/>
<path d="M20.7823 22.8201C20.3041 23.4979 19.6532 24.4481 18.6959 24.3335C18.2834 24.2841 18.0131 23.9908 17.8455 23.6284C17.7519 23.4261 17.6796 23.2112 17.6247 22.9953C17.5503 22.7027 17.4762 22.416 17.3923 22.1258C17.3053 21.8247 16.7968 21.8971 16.7796 22.2034C16.7699 22.3768 16.7537 22.561 16.7745 22.7343C16.7955 22.9096 16.8594 23.0927 16.9103 23.2616C16.9945 23.5415 17.1007 23.8121 17.2461 24.066C17.5269 24.5562 17.9668 24.9342 18.5429 25.0063C19.798 25.1634 20.661 24.1469 21.3091 23.2284C21.5559 22.8785 21.0302 22.4687 20.7823 22.8201Z" fill="#520C05"/>
<g opacity="0.44">
<path d="M32.8688 27.1607C32.8121 26.3944 33.4442 25.8649 34.1038 25.6144C35.2353 25.1846 36.6288 25.2339 37.7811 25.5412C38.3964 25.7052 39.0059 26.0844 38.9496 26.8037C38.8742 27.7678 37.3481 28.4266 36.5297 28.5058C35.5752 28.5981 32.9729 28.5674 32.8688 27.1607Z" fill="#CCCEAB"/>
<path d="M21.5368 27.2048C21.5368 26.4365 20.8674 25.955 20.1912 25.7537C19.0311 25.4085 17.645 25.5604 16.5185 25.9518C15.9169 26.1608 15.337 26.5839 15.4462 27.2971C15.5925 28.2529 17.1629 28.7975 17.985 28.8161C18.9437 28.8378 21.5366 28.6154 21.5368 27.2048Z" fill="#CCCEAB"/>
</g>
</svg>
