<svg width="622" height="172" viewBox="0 0 622 172" fill="none" xmlns="http://www.w3.org/2000/svg">
<mask id="path-1-outside-1_7_478" maskUnits="userSpaceOnUse" x="0" y="0" width="622" height="172" fill="black">
<rect fill="white" width="622" height="172"/>
<path fill-rule="evenodd" clip-rule="evenodd" d="M143.696 43.826C143.696 44.6195 143.674 45.4079 143.63 46.1906L143.764 46.2219C143.719 45.429 143.696 44.6301 143.696 43.826ZM561.826 124.163C566.848 126.297 572.373 127.478 578.174 127.478C601.274 127.478 620 108.752 620 85.652C620 62.5522 601.274 43.826 578.174 43.826C572.373 43.826 566.848 45.0069 561.826 47.1414C561.912 46.0475 561.956 44.9418 561.956 43.826C561.956 20.7261 543.23 2 520.13 2C497.03 2 478.304 20.7261 478.304 43.826C478.304 44.6195 478.326 45.4079 478.37 46.1906L478.236 46.222C478.281 45.429 478.304 44.6301 478.304 43.826C478.304 20.7261 459.578 2 436.478 2C413.395 2 394.679 20.6985 394.652 43.775C394.624 20.6985 375.909 2 352.826 2C329.743 2 311.027 20.6985 311 43.775C310.972 20.6985 292.257 2 269.174 2C246.074 2 227.348 20.7261 227.348 43.826C227.348 20.7261 208.622 2 185.522 2C162.422 2 143.696 20.7261 143.696 43.826C143.696 20.7261 124.97 2 101.87 2C78.7704 2 60.0442 20.7261 60.0442 43.826C60.0442 44.9419 60.0879 46.0476 60.1737 47.1414C55.1518 45.0069 49.6268 43.826 43.826 43.826C20.7261 43.826 2 62.5522 2 85.652C2 108.752 20.7261 127.478 43.826 127.478C49.6268 127.478 55.1518 126.297 60.1737 124.163C60.0879 125.257 60.0442 126.362 60.0442 127.478C60.0442 150.578 78.7703 169.304 101.87 169.304C124.97 169.304 143.696 150.578 143.696 127.478C143.696 126.685 143.674 125.896 143.63 125.113L143.764 125.082C143.719 125.875 143.696 126.674 143.696 127.478C143.696 150.578 162.422 169.304 185.522 169.304C208.622 169.304 227.348 150.578 227.348 127.478C227.348 150.578 246.074 169.304 269.174 169.304C292.257 169.304 310.972 150.606 311 127.529C311.028 150.606 329.743 169.304 352.826 169.304C375.909 169.304 394.624 150.606 394.652 127.529C394.679 150.606 413.395 169.304 436.478 169.304C459.578 169.304 478.304 150.578 478.304 127.478C478.304 126.674 478.281 125.875 478.236 125.082C478.281 125.093 478.325 125.103 478.37 125.113C478.326 125.896 478.304 126.685 478.304 127.478C478.304 150.578 497.03 169.304 520.13 169.304C543.23 169.304 561.956 150.578 561.956 127.478C561.956 126.362 561.912 125.257 561.826 124.163Z"/>
</mask>
<path fill-rule="evenodd" clip-rule="evenodd" d="M143.696 43.826C143.696 44.6195 143.674 45.4079 143.63 46.1906L143.764 46.2219C143.719 45.429 143.696 44.6301 143.696 43.826ZM561.826 124.163C566.848 126.297 572.373 127.478 578.174 127.478C601.274 127.478 620 108.752 620 85.652C620 62.5522 601.274 43.826 578.174 43.826C572.373 43.826 566.848 45.0069 561.826 47.1414C561.912 46.0475 561.956 44.9418 561.956 43.826C561.956 20.7261 543.23 2 520.13 2C497.03 2 478.304 20.7261 478.304 43.826C478.304 44.6195 478.326 45.4079 478.37 46.1906L478.236 46.222C478.281 45.429 478.304 44.6301 478.304 43.826C478.304 20.7261 459.578 2 436.478 2C413.395 2 394.679 20.6985 394.652 43.775C394.624 20.6985 375.909 2 352.826 2C329.743 2 311.027 20.6985 311 43.775C310.972 20.6985 292.257 2 269.174 2C246.074 2 227.348 20.7261 227.348 43.826C227.348 20.7261 208.622 2 185.522 2C162.422 2 143.696 20.7261 143.696 43.826C143.696 20.7261 124.97 2 101.87 2C78.7704 2 60.0442 20.7261 60.0442 43.826C60.0442 44.9419 60.0879 46.0476 60.1737 47.1414C55.1518 45.0069 49.6268 43.826 43.826 43.826C20.7261 43.826 2 62.5522 2 85.652C2 108.752 20.7261 127.478 43.826 127.478C49.6268 127.478 55.1518 126.297 60.1737 124.163C60.0879 125.257 60.0442 126.362 60.0442 127.478C60.0442 150.578 78.7703 169.304 101.87 169.304C124.97 169.304 143.696 150.578 143.696 127.478C143.696 126.685 143.674 125.896 143.63 125.113L143.764 125.082C143.719 125.875 143.696 126.674 143.696 127.478C143.696 150.578 162.422 169.304 185.522 169.304C208.622 169.304 227.348 150.578 227.348 127.478C227.348 150.578 246.074 169.304 269.174 169.304C292.257 169.304 310.972 150.606 311 127.529C311.028 150.606 329.743 169.304 352.826 169.304C375.909 169.304 394.624 150.606 394.652 127.529C394.679 150.606 413.395 169.304 436.478 169.304C459.578 169.304 478.304 150.578 478.304 127.478C478.304 126.674 478.281 125.875 478.236 125.082C478.281 125.093 478.325 125.103 478.37 125.113C478.326 125.896 478.304 126.685 478.304 127.478C478.304 150.578 497.03 169.304 520.13 169.304C543.23 169.304 561.956 150.578 561.956 127.478C561.956 126.362 561.912 125.257 561.826 124.163Z" fill="url(#paint0_linear_7_478)"/>
<path d="M143.63 46.1906L141.634 46.0793L141.54 47.7528L143.172 48.1372L143.63 46.1906ZM143.764 46.2219L143.305 48.1686L145.911 48.7829L145.76 46.1092L143.764 46.2219ZM561.826 124.163L562.609 122.322L559.575 121.032L559.832 124.319L561.826 124.163ZM561.826 47.1414L559.833 46.9851L559.575 50.2715L562.609 48.982L561.826 47.1414ZM478.37 46.1906L478.828 48.1372L480.46 47.7528L480.367 46.0793L478.37 46.1906ZM478.236 46.222L476.24 46.1092L476.089 48.7829L478.695 48.1686L478.236 46.222ZM394.652 43.775L392.652 43.7774L396.652 43.7774L394.652 43.775ZM311 43.775L309 43.7774L313 43.7774L311 43.775ZM60.1737 47.1414L59.3914 48.9821L62.4253 50.2716L62.1676 46.9851L60.1737 47.1414ZM60.1737 124.163L62.1676 124.319L62.4253 121.032L59.3914 122.322L60.1737 124.163ZM143.63 125.113L143.172 123.167L141.54 123.551L141.633 125.225L143.63 125.113ZM143.764 125.082L145.76 125.195L145.912 122.521L143.305 123.135L143.764 125.082ZM311 127.529L313 127.527L309 127.527L311 127.529ZM394.652 127.529L396.652 127.527L392.652 127.527L394.652 127.529ZM478.236 125.082L478.696 123.136L476.088 122.519L476.239 125.195L478.236 125.082ZM478.37 125.113L480.367 125.225L480.46 123.55L478.827 123.166L478.37 125.113ZM145.627 46.3018C145.673 45.4822 145.696 44.6567 145.696 43.826H141.696C141.696 44.5824 141.675 45.3336 141.634 46.0793L145.627 46.3018ZM144.222 44.2753L144.089 44.2439L143.172 48.1372L143.305 48.1686L144.222 44.2753ZM141.696 43.826C141.696 44.6678 141.72 45.5042 141.767 46.3347L145.76 46.1092C145.718 45.3538 145.696 44.5925 145.696 43.826H141.696ZM561.044 126.003C566.309 128.241 572.1 129.478 578.174 129.478V125.478C572.647 125.478 567.388 124.353 562.609 122.322L561.044 126.003ZM578.174 129.478C602.378 129.478 622 109.856 622 85.652H618C618 107.647 600.169 125.478 578.174 125.478V129.478ZM622 85.652C622 61.4476 602.378 41.826 578.174 41.826V45.826C600.169 45.826 618 63.6567 618 85.652H622ZM578.174 41.826C572.1 41.826 566.309 43.063 561.044 45.3007L562.609 48.982C567.388 46.9508 572.647 45.826 578.174 45.826V41.826ZM563.82 47.2977C563.91 46.1519 563.956 44.9941 563.956 43.826H559.956C559.956 44.8896 559.914 45.9431 559.833 46.9851L563.82 47.2977ZM563.956 43.826C563.956 19.6216 544.334 0 520.13 0V4C542.125 4 559.956 21.8307 559.956 43.826H563.956ZM520.13 0C495.925 0 476.304 19.6216 476.304 43.826H480.304C480.304 21.8307 498.135 4 520.13 4V0ZM476.304 43.826C476.304 44.6567 476.327 45.4821 476.373 46.3018L480.367 46.0793C480.325 45.3337 480.304 44.5824 480.304 43.826H476.304ZM477.911 44.2439L477.778 44.2753L478.695 48.1686L478.828 48.1372L477.911 44.2439ZM480.233 46.3347C480.28 45.5043 480.304 44.6678 480.304 43.826H476.304C476.304 44.5925 476.282 45.3538 476.24 46.1092L480.233 46.3347ZM480.304 43.826C480.304 19.6216 460.682 0 436.478 0V4C458.473 4 476.304 21.8307 476.304 43.826H480.304ZM436.478 0C412.291 0 392.681 19.5926 392.652 43.7726L396.652 43.7774C396.678 21.8044 414.499 4 436.478 4V0ZM396.652 43.7726C396.623 19.5927 377.013 0 352.826 0V4C374.805 4 392.626 21.8044 392.652 43.7774L396.652 43.7726ZM352.826 0C328.639 0 309.029 19.5926 309 43.7726L313 43.7774C313.026 21.8044 330.847 4 352.826 4V0ZM313 43.7726C312.971 19.5927 293.361 0 269.174 0V4C291.153 4 308.974 21.8044 309 43.7774L313 43.7726ZM269.174 0C244.97 0 225.348 19.6216 225.348 43.826H229.348C229.348 21.8307 247.179 4 269.174 4V0ZM229.348 43.826C229.348 19.6216 209.727 0 185.522 0V4C207.517 4 225.348 21.8307 225.348 43.826H229.348ZM185.522 0C161.318 0 141.696 19.6216 141.696 43.826H145.696C145.696 21.8307 163.527 4 185.522 4V0ZM145.696 43.826C145.696 19.6216 126.075 0 101.87 0V4C123.865 4 141.696 21.8307 141.696 43.826H145.696ZM101.87 0C77.6658 0 58.0442 19.6216 58.0442 43.826H62.0442C62.0442 21.8307 79.8749 4 101.87 4V0ZM58.0442 43.826C58.0442 44.9941 58.09 46.152 58.1798 47.2978L62.1676 46.9851C62.0859 45.9432 62.0442 44.8896 62.0442 43.826H58.0442ZM60.9561 45.3008C55.6912 43.063 49.9005 41.826 43.826 41.826V45.826C49.3531 45.826 54.6124 46.9508 59.3914 48.9821L60.9561 45.3008ZM43.826 41.826C19.6216 41.826 0 61.4476 0 85.652H4C4 63.6567 21.8307 45.826 43.826 45.826V41.826ZM0 85.652C0 109.856 19.6216 129.478 43.826 129.478V125.478C21.8307 125.478 4 107.647 4 85.652H0ZM43.826 129.478C49.9005 129.478 55.6912 128.241 60.956 126.003L59.3914 122.322C54.6124 124.353 49.3531 125.478 43.826 125.478V129.478ZM58.1798 124.006C58.0899 125.152 58.0442 126.31 58.0442 127.478H62.0442C62.0442 126.415 62.0858 125.361 62.1676 124.319L58.1798 124.006ZM58.0442 127.478C58.0442 151.683 77.6657 171.304 101.87 171.304V167.304C79.8749 167.304 62.0442 149.474 62.0442 127.478H58.0442ZM101.87 171.304C126.075 171.304 145.696 151.683 145.696 127.478H141.696C141.696 149.474 123.865 167.304 101.87 167.304V171.304ZM145.696 127.478C145.696 126.648 145.673 125.822 145.627 125.002L141.633 125.225C141.675 125.97 141.696 126.722 141.696 127.478H145.696ZM144.089 127.06L144.222 127.029L143.305 123.135L143.172 123.167L144.089 127.06ZM141.767 124.969C141.72 125.8 141.696 126.636 141.696 127.478H145.696C145.696 126.712 145.718 125.95 145.76 125.195L141.767 124.969ZM141.696 127.478C141.696 151.683 161.318 171.304 185.522 171.304V167.304C163.527 167.304 145.696 149.474 145.696 127.478H141.696ZM185.522 171.304C209.727 171.304 229.348 151.683 229.348 127.478H225.348C225.348 149.474 207.517 167.304 185.522 167.304V171.304ZM225.348 127.478C225.348 151.683 244.97 171.304 269.174 171.304V167.304C247.179 167.304 229.348 149.474 229.348 127.478L225.348 127.478ZM269.174 171.304C293.361 171.304 312.971 151.712 313 127.532L309 127.527C308.974 149.5 291.153 167.304 269.174 167.304V171.304ZM309 127.532C309.029 151.712 328.639 171.304 352.826 171.304V167.304C330.847 167.304 313.026 149.5 313 127.527L309 127.532ZM352.826 171.304C377.013 171.304 396.623 151.712 396.652 127.532L392.652 127.527C392.626 149.5 374.805 167.304 352.826 167.304V171.304ZM392.652 127.532C392.681 151.712 412.291 171.304 436.478 171.304V167.304C414.499 167.304 396.678 149.5 396.652 127.527L392.652 127.532ZM436.478 171.304C460.682 171.304 480.304 151.683 480.304 127.478H476.304C476.304 149.474 458.473 167.304 436.478 167.304V171.304ZM480.304 127.478C480.304 126.636 480.28 125.8 480.233 124.969L476.239 125.195C476.282 125.95 476.304 126.712 476.304 127.478H480.304ZM477.776 127.028C477.821 127.039 477.867 127.05 477.913 127.061L478.827 123.166C478.784 123.156 478.74 123.146 478.696 123.136L477.776 127.028ZM480.304 127.478C480.304 126.722 480.325 125.97 480.367 125.225L476.373 125.002C476.327 125.822 476.304 126.648 476.304 127.478H480.304ZM520.13 167.304C498.135 167.304 480.304 149.474 480.304 127.478H476.304C476.304 151.683 495.926 171.304 520.13 171.304V167.304ZM559.956 127.478C559.956 149.474 542.125 167.304 520.13 167.304V171.304C544.334 171.304 563.956 151.683 563.956 127.478H559.956ZM559.832 124.319C559.914 125.361 559.956 126.415 559.956 127.478H563.956C563.956 126.31 563.91 125.152 563.82 124.006L559.832 124.319Z" fill="black" mask="url(#path-1-outside-1_7_478)"/>
<defs>
<linearGradient id="paint0_linear_7_478" x1="311" y1="2" x2="311" y2="169.304" gradientUnits="userSpaceOnUse">
<stop offset="0.348958" stop-color="white"/>
<stop offset="1" stop-color="#BDFFFF"/>
</linearGradient>
</defs>
</svg>
