<svg width="19" height="20" viewBox="0 0 19 20" fill="none" xmlns="http://www.w3.org/2000/svg">
<path d="M17.7597 8.48334L14.0612 12.0886L14.9346 17.1806C14.9726 17.4032 14.8812 17.6283 14.6983 17.7613C14.595 17.8367 14.4721 17.8747 14.3492 17.8747C14.2548 17.8747 14.1598 17.8521 14.0731 17.8064L9.50003 15.4023L4.92756 17.8058C4.72806 17.9115 4.48522 17.8943 4.30234 17.7607C4.11947 17.6277 4.02803 17.4026 4.06603 17.18L4.93944 12.088L1.24038 8.48334C1.07888 8.3254 1.02009 8.08909 1.09016 7.87474C1.16022 7.6604 1.34606 7.50306 1.56991 7.4704L6.6815 6.72821L8.96744 2.09577C9.16753 1.69024 9.83253 1.69024 10.0326 2.09577L12.3186 6.72821L17.4302 7.4704C17.654 7.50306 17.8398 7.65981 17.9099 7.87474C17.98 8.08968 17.9212 8.32481 17.7597 8.48334Z" fill="#FFCE53"/>
</svg>
