<svg width="74" height="65" viewBox="0 0 74 65" fill="none" xmlns="http://www.w3.org/2000/svg">
<path d="M71.9276 26.6076C70.3386 19.2781 65.9458 12.8132 60.3927 8.0345C55.1873 3.55506 48.7285 0.384907 41.9848 0.269928C38.2245 0.205834 34.514 1.07895 30.8462 1.94723C28.1143 2.59394 25.3738 3.24326 22.7418 4.24461C15.1399 7.13681 8.62706 13.0373 4.81176 20.4889C0.38121 29.1422 -0.21608 40.1555 4.40813 48.6975C7.56876 54.5359 13.0085 58.944 19.1616 60.863C22.1384 61.7914 35.9951 64.156 39.496 64.1833C44.3109 64.2209 48.4055 62.7106 53.1268 61.7232C55.7335 61.1781 58.3278 60.3849 60.606 58.9539C66.6368 55.1657 70.7098 48.0027 72.4572 40.8827C73.6789 35.9054 72.7383 30.3471 71.9276 26.6076Z" fill="#FEC7C2" stroke="#FEC7C2" stroke-width="0.1824" stroke-miterlimit="10"/>
<path opacity="0.46" d="M5.46225 18.3125C2.92748 23.5543 3.85455 29.9524 6.02915 35.3679C9.78915 44.7315 17.0839 52.3724 25.7871 56.8968C34.4902 61.4213 44.5176 62.9056 54.1729 61.7213C46.2019 63.7886 37.854 64.8701 29.767 63.3736C25.2993 62.5468 21.0002 60.9517 16.7255 59.3635C14.7456 58.6279 12.7499 57.8845 10.955 56.743C8.25848 55.0282 6.12011 52.4711 4.47824 49.6547C-1.20283 39.9094 -0.735233 26.6414 5.46225 18.3125Z" fill="#EBA8A2"/>
<path d="M50.6042 1.34785C57.1421 3.70959 62.9908 8.07211 67.2288 13.7861C71.443 19.4681 73.9823 26.4168 73.9999 33.6402C74.0172 40.7415 71.7547 47.8209 67.563 53.4192C65.4249 56.2749 62.7576 58.6664 59.742 60.4602C56.5065 62.3847 52.9238 63.6249 49.2636 64.2941C41.7501 65.6677 34.0159 64.8681 26.5836 63.3392C19.2633 61.8333 11.5188 59.442 6.33311 53.4889C1.56796 48.0186 -0.441467 40.3604 0.0805283 33.0702C0.590202 25.952 3.47027 19.0807 8.18825 13.9101C12.6686 9 18.5503 5.97689 24.5744 3.67286C27.8843 2.40691 31.2909 1.38736 34.7628 0.739596C38.3201 0.0759101 41.9796 -0.233902 45.5804 0.20271C47.2797 0.408808 48.9832 0.770117 50.6042 1.34785C51.514 1.67209 51.1234 3.18802 50.2049 2.86067C43.64 0.521014 36.3144 1.62908 29.786 3.55433C26.7237 4.45741 23.6944 5.60271 20.8108 6.94118C17.9883 8.2513 15.2595 9.76479 12.789 11.7138C7.64951 15.7685 4.01581 21.5218 2.39104 28.0224C0.710014 34.7481 1.35448 42.2701 4.64125 48.3695C6.33327 51.5094 8.72066 54.1352 11.6097 56.1013C14.6891 58.1969 18.1557 59.5541 21.6877 60.5553C25.2252 61.558 28.8564 62.2809 32.4886 62.7882C36.1717 63.3026 39.9024 63.5507 43.6171 63.3681C50.6339 63.0231 57.7877 60.9543 63.1537 56.0227C68.0249 51.546 71.0968 45.2164 72.1321 38.5636C73.1867 31.787 71.9119 24.8544 68.6892 18.8889C65.4429 12.8797 60.4394 7.97522 54.5785 4.81689C53.1661 4.05581 51.7068 3.40322 50.2049 2.86067C49.8217 2.72222 49.5679 2.32307 49.6804 1.89578C49.7827 1.50672 50.2191 1.20873 50.6042 1.34785Z" fill="#520C05"/>
<path opacity="0.46" d="M6.29005 24.8465C6.82629 27.6927 7.72392 30.4415 8.85686 33.0885C9.9864 35.7277 11.3403 38.2449 12.9178 40.6206C16.0387 45.3207 20.0589 49.3504 24.6579 52.4335C27.2844 54.1942 30.0196 55.7688 32.9127 57.0008C33.3644 57.1932 33.2038 57.9302 32.7052 57.787C29.9824 57.005 27.2845 55.8798 24.8533 54.37C22.4002 52.8466 20.1087 51.0237 18.0134 49.0016C13.8545 44.988 10.3868 40.0766 8.1098 34.6513C6.82804 31.5973 5.94561 28.3899 5.36634 25.1126C5.25529 24.4847 6.17056 24.2123 6.29005 24.8465Z" fill="#EBA8A2"/>
<path opacity="0.51" d="M57.6967 9.54822C59.2678 10.5865 60.7196 11.8313 61.9898 13.2499C63.247 14.6539 64.4234 16.2411 65.2272 17.9771C65.6859 18.9678 66.0426 20.0011 66.316 21.0632C66.4536 21.5976 65.6804 21.9779 65.4351 21.4511C64.6703 19.8095 63.7521 18.2103 62.7542 16.7118C61.7651 15.2265 60.5845 13.8798 59.2721 12.6998C58.5379 12.0396 57.757 11.4439 56.9385 10.9029C56.1238 10.3645 56.8766 9.00623 57.6967 9.54822Z" fill="white"/>
<path opacity="0.51" d="M67.2441 23.7373C68.072 26.6226 68.3906 29.7472 67.584 32.6791C67.4605 33.1279 66.8241 33.0337 66.8115 32.5699C66.7344 29.7343 66.5799 26.8876 65.7956 24.1543C65.5175 23.1851 66.9668 22.771 67.2441 23.7373Z" fill="white"/>
<path d="M54.9703 33.3241C54.832 32.3275 54.6654 30.9269 53.4672 30.4908C52.9359 30.2974 52.4167 30.4662 51.9845 30.7675C51.7302 30.9448 51.5008 31.1545 51.2865 31.3702C51.0516 31.6066 50.8155 31.8327 50.5699 32.06C50.4234 32.1956 50.1651 32.1921 50.0096 32.0723C49.8343 31.9372 49.8225 31.7501 49.9145 31.5705C50.2623 30.8915 50.8862 30.3392 51.5799 29.938C52.205 29.5765 52.9875 29.4283 53.698 29.6872C55.2598 30.2565 55.6437 31.7836 55.8316 33.1378C55.8615 33.3533 55.7591 33.5681 55.5074 33.6223C55.2961 33.6679 55.0005 33.5412 54.9703 33.3241Z" fill="#520C05"/>
<path d="M32.3533 32.8924C31.6304 32.1299 30.643 31.0591 29.3903 31.3014C28.8505 31.4059 28.5313 31.788 28.3572 32.2418C28.2599 32.4953 28.1925 32.7614 28.1484 33.027C28.0886 33.3867 28.0282 33.7394 27.9554 34.0974C27.8799 34.4688 27.197 34.4374 27.1338 34.0711C27.098 33.8637 27.0523 33.644 27.0569 33.4335C27.0616 33.2205 27.122 32.9935 27.1671 32.7849C27.2417 32.4393 27.3465 32.1024 27.5056 31.7813C27.8127 31.1615 28.3454 30.659 29.0988 30.5094C30.7402 30.1834 32.0174 31.3108 32.997 32.344C33.3701 32.7376 32.728 33.2876 32.3533 32.8924Z" fill="#520C05"/>
<path d="M44.8957 31.3225C44.9739 32.9872 44.9141 34.8656 43.2705 35.9177C42.5812 36.3589 41.6852 36.5265 40.8742 36.2532C40.0492 35.9753 39.3655 35.3516 38.9367 34.6647C38.4162 33.8307 37.9402 32.7322 38.0649 31.7672C38.1014 31.485 38.5675 31.3104 38.7239 31.6275C38.9422 32.07 39.0704 32.5299 39.2667 32.979C39.4592 33.4196 39.7073 33.8444 39.9843 34.2462C40.4018 34.852 41.0004 35.5113 41.8738 35.4434C42.674 35.3813 43.3394 34.7645 43.6419 34.1272C44.0605 33.2452 44.0121 32.2353 43.9844 31.2933C43.9688 30.7592 44.8709 30.7943 44.8957 31.3225Z" fill="#520C05"/>
<g opacity="0.46">
<path d="M32.2108 37.5176C32.3869 36.4258 31.5866 35.5814 30.7127 35.1335C29.2136 34.3653 27.293 34.2493 25.6707 34.5358C24.8044 34.6887 23.9185 35.1511 23.9035 36.1907C23.8835 37.584 25.8952 38.7336 27.0094 38.9569C28.3086 39.2173 31.8873 39.5221 32.2108 37.5176Z" fill="#EBA8A2"/>
<path d="M50.6334 36.9151C50.5035 35.8163 51.3387 35.0095 52.2306 34.6024C53.7608 33.9039 55.6844 33.8765 57.293 34.2374C58.152 34.4301 59.0175 34.9329 58.9886 35.9721C58.9497 37.3649 56.8914 38.4208 55.7689 38.5926C54.46 38.7929 50.872 38.9325 50.6334 36.9151Z" fill="#EBA8A2"/>
</g>
</svg>
