<svg width="75" height="65" viewBox="0 0 75 65" fill="none" xmlns="http://www.w3.org/2000/svg">
<path d="M18.929 5.84047C13.8537 10.0746 9.33552 14.9756 5.52734 20.3778C3.15186 23.7476 1.00496 27.4418 0.471987 31.5301C-0.293697 37.4038 2.36206 43.1643 5.4033 48.2474C6.71965 50.4475 8.13107 52.6083 9.87442 54.4882C14.1472 59.0957 20.1949 61.748 26.3537 62.9951C42.0056 66.1644 59.1616 60.328 69.6337 48.2713C71.3502 46.2951 72.9147 44.1341 73.8123 41.6753C76.0361 35.5836 73.8399 28.7817 70.8829 23.0103C68.0846 17.5485 64.4751 12.3198 59.401 8.868C56.9878 7.22637 54.3061 6.02867 51.6406 4.83984C47.5196 3.0019 43.3123 1.14018 38.8246 0.670665C31.4723 -0.0985033 23.5893 1.95251 18.929 5.84047Z" fill="#EEF2D3"/>
<path d="M0.039131 33.9775C-0.00272074 40.7395 2.69462 47.2625 6.93236 52.4614C11.3698 57.9052 17.4433 61.7767 24.2063 63.6291C31.8766 65.7301 40.142 65.3011 47.7444 63.1256C54.7328 61.1258 61.5103 57.6814 66.7682 52.6014C69.2244 50.2283 71.3551 47.4548 72.7961 44.3475C74.3511 40.9941 75.0753 37.3318 74.8669 33.6366C74.4315 25.9175 70.5103 18.6577 65.3249 13.0703C60.5135 7.88605 54.3494 3.95775 47.6185 1.78609C44.2548 0.700828 40.7371 0.0509598 37.1987 0.00301266C33.7066 -0.0442814 30.1899 0.465611 26.8565 1.50766C23.5762 2.53311 20.4408 4.0685 17.6604 6.09273C16.2396 7.12716 14.9011 8.27375 13.6825 9.54095C12.6656 10.5984 11.7631 11.7565 10.8076 12.8683C6.66868 17.6847 2.15577 22.7163 0.472068 29.0005C0.259598 29.7935 0.0976332 30.6473 0.0591013 31.4696C0.0405973 31.8644 0.00413721 32.2602 0.000273137 32.6586C-0.0039719 33.0986 0.0427229 33.5395 0.039131 33.9775C0.0340696 34.5896 0.98512 34.5902 0.990181 33.9775C0.996821 33.1693 1.19672 32.3235 1.36908 31.5384C1.54585 30.733 1.77905 29.9363 2.02341 29.1492C2.50305 27.6042 3.14557 26.1169 3.91207 24.6933C5.39593 21.9375 7.29058 19.4313 9.29473 17.0367C10.1928 15.9636 11.1148 14.911 12.0255 13.8489C12.9555 12.7643 13.8358 11.6381 14.829 10.6093C17.145 8.21013 19.8792 6.25464 22.8662 4.77742C28.8167 1.83463 35.766 0.860779 42.2961 2.05679C48.9549 3.27642 55.2703 6.28224 60.4656 10.6164C65.9313 15.176 70.3797 21.2726 72.3557 28.1624C73.3876 31.7608 73.702 35.5938 72.9004 39.2712C72.1997 42.4855 70.7177 45.4554 68.749 48.0786C64.7022 53.4706 58.7303 57.3324 52.5525 59.8559C45.4694 62.7492 37.6866 64.1103 30.0537 63.2672C23.0855 62.4976 16.4237 59.7497 11.1554 55.093C6.29093 50.7934 2.64455 45.0372 1.42323 38.6161C1.13234 37.0866 0.991325 35.5344 0.990128 33.9777C0.989693 33.3655 0.0428862 33.3647 0.039131 33.9775Z" fill="#520C05"/>
<path opacity="0.44" d="M73.7963 33.4437C73.3226 30.0193 70.9243 21.512 70.7977 22.171C67.6044 38.8037 50.005 53.2963 32.348 56.1308C35.4941 55.0561 38.5592 53.7326 41.4982 52.1793C44.5323 50.5757 47.4257 48.711 50.152 46.627C52.8755 44.5452 55.4506 42.2316 57.7507 39.6871C60.0432 37.151 62.1358 34.392 64.0543 31.564C64.2915 31.2143 64.5247 30.8619 64.7546 30.5074C65.0016 30.1265 64.3907 29.7709 64.1467 30.152C62.3169 33.0107 60.2258 35.6435 57.8504 38.0685C55.5028 40.4651 53.0193 42.7387 50.3507 44.7749C45.0013 48.8565 39.069 52.1696 32.7143 54.4035C30.9304 55.0306 29.1173 55.5758 27.2831 56.0357C26.474 56.2385 25.6606 56.4218 24.8471 56.6049C16.6548 56.2858 8.90308 53.0776 3.09424 45.9807C5.11313 53.1137 11.9919 57.6765 18.6948 60.8429C21.5115 62.1734 24.4173 63.3823 27.48 63.9516C31.4953 64.6978 35.6319 64.3188 39.674 63.7347C48.0554 62.5236 56.5511 60.3278 63.3507 55.2799C70.1504 50.2321 74.9568 41.8322 73.7963 33.4437Z" fill="#CCCEAB"/>
<path opacity="0.51" d="M5.45729 30.84C5.63776 28.8296 6.32366 26.7504 7.56441 25.1405C8.87482 23.4402 10.6442 22.3056 12.2886 20.9692C13.1485 20.2703 13.8898 19.4776 14.5177 18.5632C15.1109 17.6994 15.59 16.7663 16.0597 15.8316C16.9644 14.0308 17.9402 12.2594 19.2515 10.7174C19.9775 9.86363 20.7585 9.05082 21.6375 8.35213C22.5238 7.64756 23.509 7.127 24.4618 6.5266C24.6797 6.38924 24.5426 6.03075 24.2833 6.10335C23.3071 6.3765 22.3692 6.89978 21.5074 7.42475C20.6285 7.96006 19.7877 8.5554 19.0027 9.22139C17.3803 10.5979 16.1492 12.2818 15.1919 14.172C14.7011 15.141 14.2453 16.1299 13.7042 17.0725C13.1592 18.0219 12.513 18.856 11.7182 19.6096C10.9185 20.3679 10.0298 21.0223 9.21007 21.7574C8.4039 22.4805 7.68534 23.272 7.09109 24.1794C5.78084 26.1801 4.90963 28.4463 4.73483 30.84C4.7007 31.306 5.41609 31.2984 5.45729 30.84Z" fill="white"/>
<path d="M33.3635 34.8653C34.7485 34.7626 36.1311 34.7139 37.5194 34.7604C38.1961 34.7831 38.8722 34.82 39.5473 34.8712C39.9036 34.8982 40.258 34.9409 40.6137 34.9738C40.773 34.9886 40.933 34.9965 41.0927 35.0055C41.3089 35.0176 41.4944 34.9676 41.7026 34.9159C42.1082 34.8151 42.2347 34.1391 41.8147 33.9615C41.6205 33.8794 41.4364 33.7895 41.2247 33.7675C41.0481 33.7493 40.8699 33.7342 40.6925 33.7254C40.3388 33.7077 39.9823 33.7201 39.6283 33.7193C38.9356 33.7178 38.2428 33.7309 37.5506 33.7591C36.1477 33.8164 34.742 33.9038 33.3456 34.0519C32.8324 34.1064 32.8356 34.9044 33.3635 34.8653Z" fill="#520C05"/>
<path d="M45.0117 32.0974C45.6254 31.0954 46.4611 29.6748 47.8262 29.7432C48.4315 29.7736 48.8508 30.185 49.1221 30.699C49.2818 31.0016 49.4018 31.3276 49.5045 31.6533C49.6169 32.0102 49.7355 32.3565 49.8628 32.7086C49.9386 32.9186 50.1893 33.0299 50.397 32.9713C50.631 32.9053 50.7326 32.7108 50.7304 32.4782C50.7224 31.5986 50.3872 30.7312 49.912 29.9941C49.4836 29.3297 48.8008 28.823 47.991 28.7828C46.2112 28.6945 45.1051 30.1533 44.2712 31.5148C44.1385 31.7315 44.1337 32.0063 44.3502 32.1763C44.532 32.3192 44.878 32.3156 45.0117 32.0974Z" fill="#520C05"/>
<path d="M24.8508 33.9936C25.2557 32.8934 25.7966 31.3583 27.1454 31.1646C27.7266 31.0811 28.2028 31.3826 28.5641 31.8159C28.766 32.0579 28.9432 32.3248 29.0971 32.5995C29.3056 32.9717 29.5117 33.3359 29.7324 33.7014C29.9613 34.0806 30.629 33.7957 30.5404 33.3713C30.4902 33.1311 30.4449 32.8737 30.3532 32.6447C30.2604 32.4131 30.1062 32.1865 29.975 31.9746C29.7576 31.6233 29.5137 31.2927 29.2223 30.9993C28.6598 30.4329 27.9209 30.0778 27.1081 30.1901C25.3373 30.4348 24.531 32.138 23.9824 33.629C23.7734 34.1968 24.6409 34.564 24.8508 33.9936Z" fill="#520C05"/>
<g opacity="0.44">
<path d="M46.4518 37.6727C46.3717 36.5897 47.265 35.8414 48.1971 35.4873C49.7962 34.88 51.7656 34.9497 53.3941 35.3839C54.2637 35.6157 55.125 36.1517 55.0455 37.1682C54.9389 38.5306 52.7822 39.4617 51.6255 39.5736C50.2766 39.7041 46.5989 39.6608 46.4518 37.6727Z" fill="#CCCEAB"/>
<path d="M30.4369 37.7347C30.4369 36.6488 29.4909 35.9683 28.5352 35.684C26.8957 35.1961 24.9368 35.4108 23.3448 35.9639C22.4946 36.2592 21.6751 36.8572 21.8294 37.865C22.0361 39.2159 24.2555 39.9855 25.4173 40.0118C26.7722 40.0425 30.4367 39.7282 30.4369 37.7347Z" fill="#CCCEAB"/>
</g>
</svg>
