<svg width="70" height="65" viewBox="0 0 70 65" fill="none" xmlns="http://www.w3.org/2000/svg">
<path d="M69.4858 34.1231C68.0506 27.1167 65.7356 20.192 61.7292 14.2676C57.7228 8.34316 51.8967 3.46576 45.0107 1.53359C41.4431 0.532533 37.7055 0.336421 34.003 0.188805C32.1842 0.116301 30.3255 0.058988 28.5844 0.589792C25.0078 1.68016 18.1076 5.70611 15.0171 7.18164C13.7893 7.76788 12.8462 8.80908 11.9823 9.86019C5.47499 17.7771 1.59155 27.8148 1.07604 38.0499C0.949875 40.5551 1.02666 43.113 1.81172 45.4953C2.53848 47.7007 3.84583 49.6721 5.31109 51.4734C12.5428 60.3637 24.1906 65.5054 35.6249 64.7372C38.2008 64.5642 40.7537 64.1104 43.2538 63.4667C50.7221 61.5441 57.8532 57.8116 63.0119 52.0792C67.5355 47.0527 70.7193 40.145 69.4858 34.1231Z" fill="#F9EEE8"/>
<path d="M17.1011 6.36353C9.91802 14.9917 7.66791 30.3514 13.4779 39.9579C30.6259 68.3115 64.1912 50.5879 64.1912 50.5879C64.1912 50.5879 58.1093 58.0412 49.5256 61.1316C42.6201 63.6178 35.8156 64.8073 28.5198 64.0088C22.0034 63.2957 15.9678 60.2482 10.4516 56.7064C7.8708 55.0493 5.30573 53.2116 3.61221 50.6545C1.3394 47.2227 0.903015 42.9144 0.828579 38.7989C0.747776 34.3299 1.02782 29.7934 2.44239 25.5535C5.06092 17.7046 11.2479 11.6577 17.1011 6.36353Z" fill="#F0DBCE"/>
<path d="M68.1366 44.966C66.7725 48.0713 64.841 50.8778 62.4877 53.3151C60.1364 55.7506 57.3802 57.7745 54.4268 59.4196C51.4162 61.0965 48.1852 62.3567 44.86 63.2521C41.5262 64.1498 38.087 64.6645 34.6365 64.7817C31.3196 64.8943 28.0002 64.6399 24.7457 63.9831C21.514 63.3309 18.3469 62.3217 15.3756 60.8867C12.4515 59.4745 9.72572 57.6699 7.37794 55.4205C5.09077 53.2291 3.20787 50.615 1.95063 47.7019C0.34861 43.9899 -0.184113 39.9117 0.0541763 35.8939C0.294601 31.8404 1.29247 27.8243 2.75422 24.0439C4.06789 20.6465 5.80255 17.3949 7.93229 14.4382C10.0512 11.4965 12.5844 8.82462 15.4826 6.64059C18.3451 4.4835 21.5512 2.83983 24.9645 1.75072C28.3698 0.66416 31.8996 0.08622 35.4724 0.00839241C39.0028 -0.0684956 42.5456 0.381921 45.9289 1.40125C49.2205 2.39291 52.3689 3.97087 55.0419 6.14346C57.2577 7.94451 59.1294 10.1566 60.8131 12.4519C62.7201 15.0516 64.4021 17.8285 65.8208 20.7237C67.3374 23.8186 68.5589 27.0807 69.3005 30.4507C70.0188 33.7145 70.2537 37.1228 69.673 40.428C69.3932 42.0207 68.8572 43.5196 68.2141 44.9963C67.9146 45.6838 66.8229 45.2629 67.1247 44.5701C67.7459 43.1437 68.0863 41.5898 68.3125 40.0566C68.5419 38.5018 68.5945 36.9088 68.4929 35.3727C68.2758 32.0932 67.5164 28.8814 66.382 25.8027C65.246 22.7197 63.7726 19.7614 62.0612 16.9587C60.6128 14.5867 58.9298 12.2529 57.0642 10.1517C55.0571 7.891 52.7036 5.99501 50.0048 4.61724C47.0218 3.09435 43.7768 2.15807 40.4622 1.73381C37.0768 1.30046 33.6398 1.38862 30.2754 1.95424C26.9335 2.5161 23.6603 3.54571 20.6433 5.09741C17.534 6.69655 14.7288 8.86826 12.3132 11.3905C9.90732 13.9026 7.86104 16.7891 6.22467 19.856C4.50089 23.0869 3.15861 26.5579 2.32233 30.1252C1.40506 34.0382 1.06008 38.1287 1.73052 42.1093C2.28622 45.4087 3.57212 48.5459 5.52976 51.2615C7.31562 53.7387 9.57831 55.8234 12.1083 57.5235C14.7211 59.2792 17.6024 60.6111 20.5909 61.5885C23.6325 62.5833 26.7937 63.1975 29.9819 63.4618C33.2393 63.7319 36.5177 63.6063 39.7509 63.1334C43.08 62.6465 46.3558 61.7951 49.4852 60.5569C52.567 59.3375 55.5125 57.754 58.161 55.7561C60.7601 53.7955 63.0649 51.4547 64.8965 48.7583C65.7895 47.4437 66.5593 46.0537 67.2021 44.6003C67.4621 44.0125 68.3975 44.3722 68.1366 44.966Z" fill="#520C05"/>
<path d="M13.101 23.0055C12.9978 24.4464 13.0879 25.8976 13.2246 27.3342C13.3628 28.7872 13.6082 30.2363 13.9483 31.6556C14.6191 34.4546 15.722 37.1594 17.1836 39.6384C20.1435 44.6587 24.739 48.589 30.0625 50.9206C33.0884 52.2459 36.24 53.2183 39.5218 53.6355C39.9512 53.6901 39.8695 54.2895 39.4534 54.2909C36.4271 54.3005 33.3015 53.8056 30.4744 52.706C27.6262 51.598 24.9373 50.022 22.5687 48.0919C17.8223 44.2241 14.4415 38.8769 12.8669 32.9697C12.4371 31.3573 12.1481 29.7144 12.0183 28.0505C11.8837 26.3255 11.9698 24.6238 12.1266 22.9039C12.1841 22.2749 13.1459 22.3775 13.101 23.0055Z" fill="#F0DBCE"/>
<path opacity="0.51" d="M63.6895 30.9516C63.4124 27.8199 62.4847 24.7226 61.2278 21.847C59.9777 18.9871 58.3341 16.3189 56.3069 13.9435C55.7336 13.2717 55.1311 12.6247 54.5009 12.006C53.8748 11.3914 53.1438 10.8647 52.6197 10.1616C52.278 9.70327 52.7358 8.91122 53.3242 9.19758C53.516 9.29096 53.7336 9.37516 53.9089 9.49693C54.0668 9.60655 54.2086 9.7573 54.3518 9.88545C54.6905 10.1887 55.0217 10.5003 55.3481 10.8169C55.9348 11.3859 56.4979 11.9793 57.0361 12.5944C58.0924 13.8016 59.0512 15.091 59.9008 16.4515C61.6238 19.2107 62.9464 22.2172 63.6986 25.3872C64.119 27.1591 64.3395 29.0063 64.4685 30.8217C64.5042 31.323 63.7346 31.4606 63.6895 30.9516Z" fill="white"/>
<path opacity="0.51" d="M54.6191 13.769C56.0633 15.5425 57.383 17.457 58.3479 19.535C59.2981 21.5812 60.1316 23.7385 60.5932 25.9511C60.6741 26.3391 60.0678 26.5307 59.9229 26.1549C59.124 24.0842 58.2707 22.0563 57.1369 20.1424C56.0203 18.2575 54.8369 16.4168 53.4481 14.7189C52.8328 13.9667 54.0054 13.0153 54.6191 13.769Z" fill="white"/>
<path d="M38.4659 32.3523C38.8396 33.5846 38.3447 35.0112 37.2064 35.6601C36.6441 35.9806 36.008 36.117 35.3645 36.025C34.7095 35.9314 34.1523 35.5902 33.7191 35.0996C33.2993 34.6241 32.8555 33.7719 33.1314 33.141C33.2394 32.8941 33.6411 32.8356 33.7853 33.0841C33.9412 33.3527 33.9746 33.6532 34.1042 33.9343C34.2102 34.1643 34.3699 34.3756 34.5582 34.5441C34.9696 34.9123 35.4779 35.0689 36.0173 35.0265C36.5811 34.9822 37.0917 34.7208 37.4144 34.2484C37.728 33.7894 37.8269 33.1828 37.6732 32.6485C37.61 32.429 37.6959 32.1884 37.9215 32.1041C38.1253 32.0278 38.3994 32.1328 38.4659 32.3523Z" fill="#520C05"/>
<path d="M29.2738 32.7222C28.9849 33.8663 29.718 35.0056 30.9169 35.1064C31.447 35.151 31.9826 34.9889 32.3814 34.6316C32.5878 34.4468 32.7492 34.2136 32.862 33.9619C32.9817 33.6948 32.9922 33.3988 33.1316 33.1412C33.2939 32.8414 33.6901 32.8726 33.8309 33.1702C34.0944 33.7271 33.7194 34.493 33.4025 34.9572C33.0579 35.4619 32.5311 35.8633 31.9381 36.0225C30.6334 36.3727 29.2597 35.7668 28.6545 34.5573C28.3519 33.9527 28.2648 33.2326 28.4401 32.5779C28.4992 32.3572 28.6894 32.1917 28.9292 32.2332C29.1415 32.27 29.3301 32.4995 29.2738 32.7222Z" fill="#520C05"/>
<path d="M23.0564 34.2519C22.4945 33.4437 22.6942 32.333 23.5025 31.7712C24.3107 31.2093 25.4213 31.409 25.9832 32.2173C26.545 33.0255 26.3453 34.1361 25.5371 34.698C24.7289 35.2598 23.6182 35.0601 23.0564 34.2519Z" fill="#520C05"/>
<path d="M43.537 34.9335C42.553 34.9103 41.7741 34.0937 41.7973 33.1097C41.8206 32.1257 42.6371 31.3468 43.6211 31.37C44.6051 31.3933 45.384 32.2098 45.3608 33.1938C45.3375 34.1778 44.521 34.9567 43.537 34.9335Z" fill="#520C05"/>
<path d="M27.6685 38.1419C27.6685 37.1005 26.7612 36.4478 25.8446 36.1751C24.2721 35.7072 22.3933 35.913 20.8664 36.4435C20.051 36.7268 19.265 37.3003 19.4129 38.2669C19.6112 39.5626 21.7398 40.3007 22.8542 40.326C24.1536 40.3554 27.6682 40.054 27.6685 38.1419Z" fill="#EFA69A"/>
<path d="M39.4445 37.9798C39.4847 36.9392 40.4166 36.322 41.3431 36.0849C42.9324 35.6782 44.8018 35.9565 46.3071 36.5456C47.111 36.8602 47.8742 37.4637 47.689 38.4239C47.4408 39.7109 45.2852 40.3661 44.1707 40.3483C42.8711 40.3275 39.3707 39.8904 39.4445 37.9798Z" fill="#EFA69A"/>
</svg>
