<svg width="78" height="65" viewBox="0 0 78 65" fill="none" xmlns="http://www.w3.org/2000/svg">
<path d="M75.1118 26.6017C73.4525 19.2735 68.8652 12.8099 63.0663 8.03207C57.6305 3.55347 50.8858 0.383909 43.8436 0.26895C39.9168 0.204869 36.042 1.07782 32.2118 1.94594C29.359 2.59253 26.4972 3.24172 23.7487 4.24289C15.8103 7.13454 9.00915 13.034 5.02495 20.4842C0.39827 29.1358 -0.225464 40.1471 4.60345 48.6874C7.904 54.5248 13.5845 58.932 20.01 60.8506C23.1186 61.7789 37.5887 64.143 41.2445 64.1703C46.2726 64.2079 50.5484 62.6978 55.4788 61.7107C58.2008 61.1657 60.9101 60.3726 63.2891 58.9419C69.5868 55.1544 73.8401 47.9928 75.6649 40.8741C76.9407 35.8977 75.9584 30.3405 75.1118 26.6017Z" fill="#C2ECFE" stroke="#C2ECFE" stroke-width="0.1824" stroke-miterlimit="10"/>
<path opacity="0.46" d="M5.70391 18.3086C3.05693 23.5495 4.02504 29.9463 6.2959 35.3607C10.2223 44.7226 17.84 52.3621 26.9285 56.8857C36.0169 61.4093 46.4881 62.8933 56.5708 61.7093C48.247 63.7761 39.5296 64.8575 31.0845 63.3612C26.4191 62.5346 21.9297 60.9398 17.4657 59.3519C15.3982 58.6165 13.3141 57.8732 11.4398 56.7319C8.62392 55.0174 6.39088 52.4608 4.67633 49.6449C-1.25622 39.9014 -0.767925 26.6359 5.70391 18.3086Z" fill="#A2B6EB"/>
<path d="M52.8444 1.34759C59.6717 3.7089 65.7793 8.07059 70.2049 13.7836C74.6057 19.4644 77.2574 26.4119 77.2758 33.6339C77.2939 40.7339 74.9312 47.8119 70.5539 53.4092C68.3211 56.2643 65.5358 58.6554 62.3867 60.4488C59.008 62.373 55.2667 63.6129 51.4444 64.282C43.5984 65.6553 35.5218 64.8559 27.7605 63.3273C20.1161 61.8217 12.0288 59.4308 6.61356 53.4789C1.63745 48.0096 -0.460922 40.3528 0.0841827 33.064C0.616425 25.9471 3.62398 19.0771 8.55081 13.9075C13.2295 8.99831 19.3715 5.97577 25.6623 3.67217C29.1188 2.40646 32.6762 1.3871 36.3017 0.739457C40.0166 0.0758958 43.838 -0.233858 47.5982 0.202672C49.3727 0.408731 51.1516 0.769972 52.8444 1.34759C53.7945 1.67177 53.3866 3.18742 52.4274 2.86014C45.5719 0.520916 37.9221 1.62878 31.1046 3.55366C27.9067 4.45657 24.7434 5.60166 21.7322 6.93988C18.7846 8.24975 15.935 9.76296 13.3553 11.7116C7.98823 15.7656 4.19366 21.5178 2.49698 28.0171C0.741531 34.7416 1.41453 42.2622 4.84679 48.3604C6.61372 51.4997 9.1068 54.125 12.1237 56.0908C15.3394 58.1859 18.9595 59.5429 22.6479 60.5439C26.342 61.5465 30.1339 62.2692 33.9268 62.7764C37.773 63.2907 41.6689 63.5388 45.548 63.3562C52.8754 63.0112 60.3459 60.9429 65.9495 56.0122C71.0362 51.5363 74.2442 45.2079 75.3253 38.5563C76.4266 31.7811 75.0953 24.8498 71.73 18.8854C68.34 12.8773 63.115 7.97372 56.9946 4.81598C55.5197 4.05505 53.9959 3.40258 52.4274 2.86014C52.0273 2.72171 51.7623 2.32263 51.8797 1.89542C51.9866 1.50644 52.4423 1.2085 52.8444 1.34759Z" fill="#052452"/>
<path opacity="0.46" d="M6.56828 24.8396C7.12826 27.6852 8.06562 30.4336 9.24871 33.0801C10.4283 35.7188 11.8421 38.2355 13.4894 40.6107C16.7485 45.3099 20.9466 49.3389 25.7492 52.4214C28.492 54.1818 31.3483 55.7561 34.3695 56.9879C34.8412 57.1802 34.6735 57.9171 34.1528 57.7739C31.3094 56.9921 28.4921 55.867 25.9533 54.3575C23.3916 52.8345 20.9986 51.0119 18.8106 48.9902C14.4676 44.9773 10.8464 40.0669 8.46858 34.6425C7.13009 31.5892 6.20859 28.3824 5.60367 25.1056C5.48772 24.4779 6.4435 24.2055 6.56828 24.8396Z" fill="#A2B6EB"/>
<path opacity="0.51" d="M60.2507 9.54722C61.8913 10.5853 63.4075 11.8298 64.7339 13.2482C66.0467 14.652 67.2751 16.2388 68.1146 17.9746C68.5936 18.965 68.9661 19.9981 69.2516 21.0601C69.3952 21.5944 68.5878 21.9745 68.3316 21.4479C67.533 19.8066 66.5741 18.2076 65.5321 16.7095C64.4992 15.2244 63.2663 13.878 61.8958 12.6982C61.1291 12.0382 60.3137 11.4426 59.4589 10.9017C58.6082 10.3633 59.3943 9.00533 60.2507 9.54722Z" fill="white"/>
<path opacity="0.51" d="M70.2205 23.7333C71.0852 26.6181 71.4178 29.7421 70.5755 32.6734C70.4466 33.1221 69.782 33.0279 69.7689 32.5642C69.6884 29.7292 69.527 26.883 68.708 24.1502C68.4175 23.1812 69.931 22.7672 70.2205 23.7333Z" fill="white"/>
<path d="M57.4037 33.3205C57.2592 32.324 57.0852 30.9237 55.834 30.4877C55.2792 30.2943 54.7369 30.4631 54.2857 30.7643C54.0201 30.9416 53.7806 31.1513 53.5567 31.367C53.3115 31.6033 53.0649 31.8293 52.8084 32.0566C52.6554 32.1922 52.3857 32.1887 52.2233 32.0689C52.0403 31.9338 52.028 31.7467 52.124 31.5672C52.4873 30.8883 53.1388 30.3361 53.8631 29.935C54.516 29.5735 55.333 29.4254 56.075 29.6843C57.7059 30.2534 58.1068 31.7803 58.3031 33.1342C58.3343 33.3497 58.2273 33.5644 57.9645 33.6186C57.7438 33.6642 57.4351 33.5375 57.4037 33.3205Z" fill="#052452"/>
<path d="M33.7854 32.888C33.0305 32.1257 31.9993 31.0551 30.6912 31.2974C30.1275 31.4018 29.7942 31.7838 29.6123 32.2376C29.5108 32.491 29.4405 32.7571 29.3944 33.0226C29.3319 33.3823 29.2689 33.7349 29.1928 34.0928C29.114 34.4642 28.4008 34.4327 28.3348 34.0665C28.2975 33.8591 28.2497 33.6395 28.2545 33.429C28.2594 33.2161 28.3226 32.9891 28.3696 32.7805C28.4476 32.435 28.557 32.0981 28.7231 31.7772C29.0438 31.1574 29.6001 30.6551 30.3868 30.5055C32.1009 30.1795 33.4346 31.3068 34.4576 32.3398C34.8472 32.7333 34.1767 33.2832 33.7854 32.888Z" fill="#052452"/>
<path d="M46.8833 31.3176C46.965 32.982 46.9025 34.86 45.1862 35.9119C44.4664 36.353 43.5307 36.5205 42.6837 36.2473C41.8222 35.9694 41.1083 35.3459 40.6605 34.6591C40.1169 33.8253 39.6199 32.727 39.7501 31.7621C39.7882 31.48 40.275 31.3054 40.4383 31.6225C40.6662 32.0649 40.8001 32.5247 41.0051 32.9738C41.2061 33.4143 41.4652 33.8389 41.7545 34.2407C42.1905 34.8464 42.8156 35.5055 43.7276 35.4377C44.5633 35.3756 45.2581 34.7589 45.574 34.1217C46.0111 33.2399 45.9605 32.2301 45.9317 31.2883C45.9154 30.7544 46.8574 30.7894 46.8833 31.3176Z" fill="#052452"/>
<g opacity="0.46">
<path d="M33.6367 37.5119C33.8207 36.4203 32.9849 35.5761 32.0723 35.1283C30.5068 34.3602 28.5012 34.2442 26.8071 34.5306C25.9025 34.6835 24.9773 35.1459 24.9617 36.1852C24.9408 37.5782 27.0416 38.7277 28.205 38.951C29.5618 39.2113 33.2989 39.516 33.6367 37.5119Z" fill="#A2C4EB"/>
<path d="M52.8748 36.9094C52.7392 35.8108 53.6114 35.0042 54.5428 34.5971C56.1407 33.8988 58.1494 33.8714 59.8292 34.2322C60.7262 34.4249 61.6301 34.9276 61.5998 35.9666C61.5593 37.3591 59.4099 38.4149 58.2377 38.5867C56.8708 38.7868 53.124 38.9264 52.8748 36.9094Z" fill="#A2C4EB"/>
</g>
</svg>
