<svg width="194" height="112" viewBox="0 0 194 112" fill="none" xmlns="http://www.w3.org/2000/svg">
<path d="M35.3316 91.6527C35.2616 90.6226 35.1361 89.2669 34.911 87.6822C34.3921 84.0287 33.3401 79.1332 31.2022 74.2006C29.0639 69.2672 25.8246 64.2634 20.9144 60.4427C16.7329 57.189 11.3794 54.8248 4.55019 54.0682C11.7741 49.6626 14.5749 41.7395 15.0692 33.7324C15.5451 26.0223 13.9095 18.0367 11.877 12.5152C35.4751 26.207 51.7364 23.7492 62.2155 17.4366C67.6005 14.1926 71.3829 9.97434 73.8161 6.57841C74.8214 5.17535 75.5994 3.90843 76.1677 2.90178C80.515 16.6167 93.3625 24.556 107.275 27.8708C121.366 31.2282 136.907 29.939 146.565 24.8567C146.573 24.9026 146.581 24.9495 146.59 24.9974C146.773 26.0104 147.082 27.4505 147.587 29.1787C148.596 32.6323 150.391 37.2526 153.542 41.9144C159.541 50.7903 170.395 59.7252 189.8 61.1359C188.674 61.8411 187.263 62.7524 185.658 63.846C181.549 66.646 176.159 70.6511 171.054 75.4617C165.957 80.2653 161.1 85.9144 158.109 92.01C155.631 97.0618 154.415 102.466 155.454 107.948C154.45 107.068 153.179 105.997 151.684 104.824C147.723 101.716 142.167 97.8735 135.82 94.9739C129.48 92.0773 122.282 90.0911 115.063 90.7837C108.051 91.4563 101.104 94.6491 94.9813 101.806C94.7335 101.609 94.4292 101.37 94.0719 101.096C92.9893 100.264 91.4198 99.103 89.4644 97.7814C85.5572 95.1405 80.0917 91.8449 73.8787 89.2476C62.0485 84.3022 47.1748 81.7691 35.3316 91.6527Z" fill="white" stroke="black" stroke-width="2"/>
</svg>
