<svg width="248" height="117" viewBox="0 0 248 117" fill="none" xmlns="http://www.w3.org/2000/svg">
<path d="M61.8116 114.632C61.3435 113.521 60.6313 111.957 59.6452 110.122C57.6657 106.439 54.572 101.642 50.1175 97.212C41.7655 88.9069 28.6678 81.9457 9.38366 85.927C12.6273 82.7748 14.6179 79.197 15.6284 75.4154C16.9473 70.4793 16.5793 65.264 15.2567 60.2827C12.9945 51.7622 7.89663 43.7629 3.29015 38.6819C37.998 44.6499 57.3805 35.9851 68.1016 25.4294C73.5963 20.0196 76.7617 14.164 78.5538 9.66171C79.4262 7.47014 79.9747 5.59547 80.3087 4.24271C90.5923 17.5674 109.645 21.3016 128.323 19.6358C147.253 17.9475 166.27 10.6809 176.279 1.61792C176.357 1.75455 176.443 1.90166 176.536 2.05862C177.134 3.06473 178.043 4.47641 179.301 6.12014C181.816 9.40659 185.73 13.6291 191.335 17.3895C202.07 24.5904 218.899 30.0223 243.737 24.138C242.557 25.3341 241.047 26.9062 239.338 28.7812C235.245 33.2708 229.997 39.5123 225.398 46.5002C220.807 53.4762 216.82 61.2614 215.317 68.832C214.037 75.2817 214.554 81.6349 218.087 87.1634C216.414 86.5533 214.169 85.7823 211.49 84.9769C205.437 83.1568 197.145 81.1539 188.223 80.4404C170.643 79.0347 150.274 82.6328 140.098 102.954C139.669 102.82 139.083 102.641 138.355 102.43C136.709 101.951 134.337 101.305 131.427 100.632C125.611 99.2864 117.627 97.8273 108.975 97.3831C92.3113 96.5276 72.8009 99.4257 61.8116 114.632Z" fill="white" stroke="black" stroke-width="2"/>
</svg>
