<svg width="217" height="89" viewBox="0 0 217 89" fill="none" xmlns="http://www.w3.org/2000/svg">
<path d="M41.041 67.9413C40.9103 67.1278 40.695 66.0347 40.3434 64.7445C39.5691 61.9027 38.1304 58.091 35.4696 54.2047C30.5912 47.0793 21.6803 39.8155 5.53868 37.7159C8.35763 36.4831 10.4974 34.828 12.0568 32.8693C14.39 29.9388 15.348 26.4244 15.4379 22.8629C15.5814 17.1813 13.5228 11.2472 11.0975 6.94923C38.0693 18.4697 55.9714 17.3937 67.2774 13.1608C73.1287 10.97 77.1677 7.94952 79.7511 5.46197C80.9473 4.31016 81.831 3.273 82.4384 2.48566C85.0459 7.70274 89.802 11.9421 95.7036 15.288C102.225 18.9851 110.232 21.6428 118.547 23.341C134.599 26.6198 152.055 26.3703 162.503 22.8965C162.523 22.9607 162.545 23.0275 162.567 23.0967C162.829 23.8922 163.253 25.0184 163.912 26.3726C165.231 29.0818 167.488 32.703 171.256 36.4106C178.327 43.3701 190.636 50.5565 211.818 52.6802C210.814 53.0836 209.661 53.5597 208.4 54.1035C203.942 56.0253 198.105 58.8008 192.625 62.2056C187.165 65.5982 181.966 69.6723 178.878 74.2212C177.327 76.5061 176.283 78.9486 176.037 81.5122C175.889 83.0553 176.033 84.6184 176.508 86.1895C175.315 85.4519 173.777 84.5347 171.957 83.5194C167.375 80.9634 160.986 77.777 153.771 75.2682C139.608 70.3433 121.906 67.9133 108.59 78.5523C108.264 78.3668 107.814 78.1133 107.249 77.8039C105.999 77.1194 104.188 76.1612 101.938 75.0616C97.4412 72.8634 91.1783 70.0948 84.1233 67.8199C70.5773 63.452 53.7802 60.7957 41.041 67.9413Z" fill="white" stroke="black" stroke-width="2"/>
</svg>
