<svg width="116" height="34" viewBox="0 0 116 34" fill="none" xmlns="http://www.w3.org/2000/svg">
<path d="M9.76404 0.528456C10.3007 0.398193 10.8414 0.727678 10.9717 1.26438L13.0944 10.0105C13.2247 10.5472 12.8952 11.0878 12.3585 11.2181C11.8218 11.3484 11.2811 11.0189 11.1509 10.4822L9.26398 2.70789L1.48969 4.59479C0.952982 4.72505 0.412299 4.39557 0.282036 3.85887C0.151773 3.32216 0.481257 2.78148 1.01796 2.65122L9.76404 0.528456ZM115.634 6.37329C76.4844 28.4166 45.0935 35.5334 25.8247 32.9917C16.1967 31.7217 9.38695 28.0036 6.33111 22.2837C3.25994 16.5351 4.17399 9.13886 9.14596 0.979867L10.8538 2.02062C6.07586 9.86126 5.48993 16.4649 8.09515 21.3413C10.7157 26.2464 16.7587 29.7785 26.0862 31.0089C44.7283 33.4679 75.6593 26.5859 114.653 4.63054L115.634 6.37329Z" fill="black"/>
</svg>
