<svg width="218" height="186" viewBox="0 0 218 186" fill="none" xmlns="http://www.w3.org/2000/svg">
<g id="Group 47">
<g id="Group">
<path id="Vector" d="M206.844 72.4921C201.495 52.9084 188.346 36.0061 172.126 23.798C156.921 12.3544 138.339 4.59973 119.317 5.12549C108.71 5.41871 98.3545 8.23504 88.119 11.0331C80.4952 13.117 72.8476 15.2091 65.5475 18.2379C44.4631 26.9856 26.8053 43.7171 16.9355 64.3001C5.47401 88.2023 5.09769 117.999 19.1461 140.478C28.7481 155.843 44.6045 167.065 62.1764 171.481C70.6774 173.617 110.017 178.281 119.888 177.92C133.464 177.425 144.827 172.841 158.018 169.591C165.301 167.797 172.519 165.334 178.771 161.19C195.321 150.219 205.951 130.383 210.032 110.951C212.884 97.3673 209.573 82.4834 206.844 72.4921Z" fill="white" stroke="#FFDFB0" stroke-width="0.1824" stroke-miterlimit="10"/>
<path id="Vector_2" opacity="0.46" d="M18.5103 58.3483C11.9876 72.8089 15.3602 89.9607 22.1326 104.306C33.8426 129.11 55.3117 148.827 80.3806 159.958C105.45 171.089 133.89 173.852 160.966 169.459C138.743 176.026 115.341 179.98 92.3678 176.944C79.6765 175.266 67.3691 171.494 55.1311 167.738C49.4631 165.999 43.7493 164.24 38.5547 161.382C30.7502 157.088 24.4192 150.452 19.4568 143.055C2.28661 117.459 2.02974 81.5941 18.5103 58.3483Z" fill="#EBC1A2"/>
<g id="Group_2">
<path id="Vector_3" d="M143.741 6.96778C162.449 12.531 179.453 23.5792 192.077 38.4745C204.631 53.2863 212.613 71.7243 213.52 91.2163C214.412 110.379 208.875 129.765 197.724 145.393C192.036 153.365 184.801 160.149 176.514 165.364C167.623 170.959 157.671 174.75 147.433 177.01C126.418 181.649 104.522 180.45 83.391 177.245C62.5782 174.088 40.4645 168.595 25.1408 153.172C11.0597 139 4.48661 118.581 5.09266 98.8423C5.68437 79.5687 12.9869 60.6678 25.672 46.1288C37.718 32.3221 53.9382 23.4344 70.6452 16.4695C79.8248 12.6427 89.306 9.46881 99.0154 7.29024C108.964 5.05809 119.242 3.76829 129.444 4.50019C134.258 4.84572 139.103 5.60961 143.741 6.96778C146.343 7.73004 145.422 11.8696 142.795 11.1C124.012 5.59977 103.495 9.49837 85.3213 15.5035C76.7965 18.3203 68.3938 21.7868 60.4246 25.7565C52.624 29.6421 45.1118 34.0649 38.3797 39.6311C24.374 51.211 14.8144 67.1881 11.0062 84.933C7.06617 103.292 9.77561 123.513 19.7642 139.566C24.9063 147.83 31.9474 154.62 40.3242 159.568C49.2529 164.842 59.1856 168.075 69.2603 170.339C79.3506 172.606 89.6717 174.107 99.9701 175.026C110.413 175.957 120.958 176.165 131.408 175.211C151.145 173.41 171.064 166.94 185.604 152.966C198.803 140.28 206.711 122.817 208.84 104.735C211.008 86.3158 206.592 67.7645 196.8 52.0646C186.936 36.2498 172.25 23.6341 155.355 15.8371C151.283 13.9583 147.093 12.378 142.795 11.1C141.698 10.7739 140.935 9.72813 141.202 8.56105C141.444 7.49839 142.639 6.64007 143.741 6.96778Z" fill="black"/>
</g>
<g id="Group_3">
<path id="Vector_4" opacity="0.46" d="M21.6187 75.8763C23.4681 83.4908 26.3246 90.798 29.8322 97.8011C33.3294 104.784 37.4445 111.409 42.173 117.625C51.5279 129.922 63.3381 140.299 76.6675 148.049C84.2799 152.475 92.1767 156.386 100.478 159.352C101.774 159.815 101.409 161.824 99.9863 161.5C92.2186 159.727 84.4804 157.024 77.4482 153.251C70.3527 149.444 63.6772 144.809 57.5311 139.611C45.3317 129.295 34.9743 116.471 27.9119 102.111C23.9365 94.0283 21.0684 85.4817 19.0466 76.7088C18.6591 75.0281 21.2066 74.1794 21.6187 75.8763Z" fill="#EBC1A2"/>
</g>
<g id="Group_4">
<path id="Vector_5" opacity="0.51" d="M164.706 28.2213C169.258 30.8286 173.498 34.0079 177.246 37.6789C180.957 41.3122 184.461 45.4497 186.933 50.0352C188.344 52.6519 189.472 55.3961 190.368 58.2288C190.819 59.6539 188.685 60.7759 187.931 59.3848C185.581 55.0493 182.803 50.8472 179.812 46.927C176.848 43.0412 173.36 39.553 169.52 36.5312C167.373 34.8407 165.101 33.3299 162.729 31.9713C160.369 30.6191 162.33 26.8602 164.706 28.2213Z" fill="white"/>
</g>
<g id="Group_5">
<path id="Vector_6" opacity="0.51" d="M193.301 65.3298C195.978 73.0139 197.246 81.4069 195.321 89.4193C195.026 90.6458 193.221 90.4705 193.13 89.2203C192.577 81.5775 191.803 73.914 189.268 66.6348C188.369 64.0537 192.405 62.7564 193.301 65.3298Z" fill="white"/>
</g>
</g>
<g id="Group_6">
<g id="Group_7">
<g id="Group_8">
<path id="Vector_7" d="M159.842 92.7234C159.334 90.0508 158.698 86.2916 155.269 85.2633C153.749 84.8073 152.305 85.3271 151.123 86.1938C150.427 86.704 149.805 87.2982 149.227 87.9071C148.593 88.574 147.954 89.2134 147.289 89.8574C146.892 90.2416 146.163 90.264 145.711 89.96C145.201 89.6172 145.145 89.1137 145.383 88.6176C146.283 86.7421 147.976 85.1742 149.884 84.0056C151.603 82.9522 153.791 82.4554 155.824 83.066C160.294 84.4086 161.557 88.4824 162.248 92.1139C162.358 92.6917 162.095 93.2841 161.392 93.4616C160.801 93.6108 159.953 93.3053 159.842 92.7234Z" fill="black"/>
</g>
<g id="Group_9">
<path id="Vector_8" d="M96.0393 94.3588C93.9113 92.3907 91.0007 89.6232 87.4985 90.4325C85.9893 90.7813 85.1351 91.8521 84.698 93.0984C84.4539 93.7946 84.2957 94.5212 84.2028 95.2432C84.0769 96.2215 83.9486 97.1808 83.7859 98.156C83.6172 99.1677 81.6883 99.1675 81.4668 98.1868C81.3414 97.6315 81.1864 97.0445 81.1744 96.4757C81.1623 95.9003 81.3058 95.28 81.408 94.7115C81.5774 93.7696 81.8327 92.8474 82.243 91.9613C83.035 90.2504 84.477 88.8283 86.5829 88.3311C91.171 87.2478 94.9049 90.1321 97.7886 92.7991C98.8871 93.815 97.1424 95.3789 96.0393 94.3588Z" fill="black"/>
</g>
</g>
<g id="Group_10">
<path id="Vector_9" d="M131.208 88.5689C131.626 93.0518 131.68 98.1286 127.172 101.172C125.281 102.448 122.776 103.011 120.457 102.374C118.099 101.726 116.097 100.128 114.807 98.3272C113.241 96.1412 111.769 93.2355 112.006 90.6158C112.075 89.8497 113.369 89.3206 113.847 90.1571C114.515 91.3241 114.931 92.5495 115.537 93.7372C116.132 94.9024 116.882 96.0179 117.711 97.0681C118.959 98.6512 120.725 100.356 123.179 100.065C125.427 99.7979 127.229 98.0509 128.006 96.2933C129.081 93.8613 128.825 91.1417 128.635 88.6029C128.528 87.1636 131.075 87.1464 131.208 88.5689Z" fill="black"/>
</g>
</g>
<g id="Group_11" opacity="0.46">
<path id="Vector_10" d="M96.188 106.862C96.5549 103.894 94.1987 101.714 91.6823 100.614C87.3653 98.7264 81.938 98.6515 77.3991 99.6257C74.9755 100.146 72.5331 101.504 72.6144 104.311C72.7233 108.074 78.5303 110.927 81.6973 111.391C85.3905 111.933 95.5141 112.312 96.188 106.862Z" fill="#EBC1A2"/>
<path id="Vector_11" d="M148.044 102.952C147.548 100.003 149.807 97.722 152.272 96.5126C156.503 94.438 161.921 94.1256 166.498 94.9C168.943 95.3136 171.442 96.5631 171.484 99.3713C171.54 103.135 165.863 106.24 162.72 106.843C159.054 107.545 148.957 108.367 148.044 102.952Z" fill="#EBC1A2"/>
</g>
</g>
</svg>
