<svg width="96" height="34" viewBox="0 0 96 34" fill="none" xmlns="http://www.w3.org/2000/svg">
<g id="hover" clip-path="url(#clip0_70_1755)">
<path id="Vector" d="M8.29597 2.43798C10.386 2.43798 12.135 2.63599 13.543 3.03199C14.973 3.40599 16.04 4.03299 16.744 4.91299C17.47 5.77099 17.833 6.93699 17.833 8.41098C17.833 9.29099 17.69 10.094 17.404 10.82C17.118 11.546 16.7 12.14 16.15 12.602C15.622 13.064 14.973 13.361 14.203 13.493V13.658C14.995 13.812 15.71 14.087 16.348 14.483C16.986 14.879 17.492 15.451 17.866 16.199C18.24 16.947 18.427 17.937 18.427 19.169C18.427 20.599 18.075 21.831 17.371 22.865C16.689 23.877 15.699 24.658 14.401 25.208C13.103 25.736 11.563 26 9.78097 26H0.969971V2.43798H8.29597ZM8.85697 11.777C10.309 11.777 11.31 11.546 11.86 11.084C12.432 10.622 12.718 9.95098 12.718 9.07098C12.718 8.16898 12.388 7.51998 11.728 7.12398C11.068 6.72798 10.023 6.52998 8.59297 6.52998H5.95297V11.777H8.85697ZM5.95297 15.737V21.875H9.21997C10.716 21.875 11.761 21.589 12.355 21.017C12.949 20.423 13.246 19.642 13.246 18.674C13.246 18.08 13.114 17.563 12.85 17.123C12.608 16.683 12.179 16.342 11.563 16.1C10.947 15.858 10.111 15.737 9.05497 15.737H5.95297ZM27.6629 26H22.7459V0.919983H27.6629V26ZM40.1926 7.61898C42.6126 7.61898 44.4606 8.14699 45.7366 9.20298C47.0346 10.237 47.6836 11.832 47.6836 13.988V26H44.2516L43.2946 23.558H43.1626C42.6566 24.196 42.1286 24.724 41.5786 25.142C41.0506 25.56 40.4346 25.857 39.7306 26.033C39.0486 26.231 38.2016 26.33 37.1896 26.33C36.1336 26.33 35.1766 26.132 34.3186 25.736C33.4826 25.318 32.8226 24.691 32.3386 23.855C31.8546 22.997 31.6126 21.919 31.6126 20.621C31.6126 18.707 32.2836 17.299 33.6256 16.397C34.9676 15.473 36.9806 14.967 39.6646 14.879L42.7996 14.78V13.988C42.7996 13.042 42.5466 12.349 42.0406 11.909C41.5566 11.469 40.8746 11.249 39.9946 11.249C39.1146 11.249 38.2566 11.381 37.4206 11.645C36.5846 11.887 35.7486 12.195 34.9126 12.569L33.2956 9.23598C34.2636 8.72998 35.3306 8.33399 36.4966 8.04799C37.6846 7.76198 38.9166 7.61898 40.1926 7.61898ZM40.8856 17.717C39.3016 17.761 38.2016 18.047 37.5856 18.575C36.9696 19.103 36.6616 19.796 36.6616 20.654C36.6616 21.402 36.8816 21.941 37.3216 22.271C37.7616 22.579 38.3336 22.733 39.0376 22.733C40.0936 22.733 40.9846 22.425 41.7106 21.809C42.4366 21.171 42.7996 20.28 42.7996 19.136V17.651L40.8856 17.717ZM60.0426 26.33C58.2606 26.33 56.7426 26.011 55.4886 25.373C54.2346 24.713 53.2776 23.701 52.6176 22.337C51.9576 20.973 51.6276 19.224 51.6276 17.09C51.6276 14.89 52.0016 13.097 52.7496 11.711C53.4976 10.325 54.5316 9.30198 55.8516 8.64198C57.1936 7.98199 58.7336 7.65198 60.4716 7.65198C61.7036 7.65198 62.7706 7.77298 63.6726 8.01499C64.5966 8.25699 65.3996 8.54298 66.0816 8.87298L64.6296 12.668C63.8596 12.36 63.1336 12.107 62.4516 11.909C61.7916 11.711 61.1316 11.612 60.4716 11.612C59.6136 11.612 58.8986 11.821 58.3266 12.239C57.7546 12.635 57.3256 13.24 57.0396 14.054C56.7756 14.846 56.6436 15.847 56.6436 17.057C56.6436 18.245 56.7866 19.235 57.0726 20.027C57.3806 20.797 57.8206 21.38 58.3926 21.776C58.9646 22.15 59.6576 22.337 60.4716 22.337C61.5056 22.337 62.4186 22.205 63.2106 21.941C64.0026 21.655 64.7726 21.27 65.5206 20.786V24.977C64.7726 25.461 63.9806 25.802 63.1446 26C62.3306 26.22 61.2966 26.33 60.0426 26.33ZM74.5848 12.14C74.5848 12.822 74.5518 13.504 74.4858 14.186C74.4418 14.846 74.3868 15.517 74.3208 16.199H74.3868C74.6068 15.891 74.8268 15.583 75.0468 15.275C75.2888 14.967 75.5308 14.659 75.7728 14.351C76.0148 14.043 76.2678 13.746 76.5318 13.46L81.5808 7.98198H87.1248L79.9638 15.803L87.5538 26H81.8778L76.6968 18.707L74.5848 20.39V26H69.6678V0.919983H74.5848V12.14Z" fill="#707070"/>
<path id="Vector_2" d="M88.6796 33.92C88.1296 33.92 87.5576 33.876 86.9636 33.788C86.3476 33.722 85.8416 33.634 85.4456 33.524V29.663C85.8416 29.751 86.2156 29.817 86.5676 29.861C86.9196 29.927 87.3156 29.96 87.7556 29.96C88.4156 29.96 88.9766 29.773 89.4386 29.399C89.9006 29.025 90.1316 28.299 90.1316 27.221V7.98198H95.0486V27.947C95.0486 29.047 94.8396 30.048 94.4216 30.95C94.0036 31.852 93.3216 32.567 92.3756 33.095C91.4516 33.645 90.2196 33.92 88.6796 33.92ZM89.9336 3.32898C89.9336 2.40498 90.1866 1.77798 90.6926 1.44798C91.2206 1.09598 91.8586 0.919983 92.6066 0.919983C93.3326 0.919983 93.9596 1.09598 94.4876 1.44798C95.0156 1.77798 95.2796 2.40498 95.2796 3.32898C95.2796 4.23098 95.0156 4.85798 94.4876 5.20998C93.9596 5.56199 93.3326 5.73798 92.6066 5.73798C91.8586 5.73798 91.2206 5.56199 90.6926 5.20998C90.1866 4.85798 89.9336 4.23098 89.9336 3.32898Z" fill="#FF4932"/>
</g>
<defs>
<clipPath id="clip0_70_1755">
<rect width="96" height="34" fill="white"/>
</clipPath>
</defs>
</svg>
