<svg width="103" height="81" viewBox="0 0 103 81" fill="none" xmlns="http://www.w3.org/2000/svg">
<path d="M93.0904 38.0328C93.9465 38.5769 94.8023 39.1124 95.6578 39.6387C96.4536 40.1284 97.2387 40.6048 98.0125 41.0672L98.0131 41.0662C98.2416 41.1933 98.4578 41.3232 98.6645 41.4552L98.8429 41.5608C98.9868 41.6458 99.1176 41.7411 99.2365 41.8459C104.073 45.3817 102.021 50.3489 100.812 53.2704C100.705 53.531 100.604 53.7757 100.549 53.9126C99.193 57.3447 96.2049 61.6533 92.7769 65.3465C90.3865 67.922 87.7681 70.2142 85.3231 71.7206C82.7153 73.3274 80.2487 74.0593 78.3349 73.3666C77.8729 73.1995 77.4486 72.9539 77.0676 72.6234C75.9832 71.6826 74.8958 70.7443 73.7993 69.8039C72.856 68.9948 71.9874 68.2533 71.1986 67.5838C70.3976 68.3916 69.6801 69.1587 68.9825 69.9408C67.9927 71.0507 67.0427 72.1893 65.955 73.5127L65.9556 73.5132L60.9174 79.7433C60.6032 80.1345 60.0233 80.2082 59.6222 79.908C59.2212 79.6077 59.1508 79.0472 59.4651 78.656L64.5032 72.4259L64.5088 72.4202C65.6207 71.0672 66.5896 69.9058 67.5906 68.7834C68.6047 67.6463 69.652 66.5471 70.9102 65.3302C72.5367 63.757 74.6714 61.6465 76.9479 59.2417C79.2275 56.8336 81.6445 54.137 83.8273 51.4013C87.1278 47.2648 89.9152 43.024 90.9113 39.5402C91.7831 36.4915 91.1819 34.0557 88.0801 32.9287C87.8242 33.6432 87.4224 34.3652 86.8522 35.0695L82.98 39.8523C82.6639 40.243 82.0829 40.3147 81.6825 40.0126C81.282 39.7106 81.2137 39.149 81.5298 38.7584L85.402 33.9755C86.7229 32.3439 86.8389 30.6431 86.2436 29.4143C86.0222 28.9571 85.7042 28.5662 85.3167 28.2715C84.9365 27.9826 84.4858 27.7849 83.9908 27.7079C82.6982 27.5069 81.0818 28.1408 79.5407 30.105L76.8658 33.5142C76.5567 33.9089 75.978 33.9895 75.5732 33.6942C75.1685 33.399 75.091 32.8396 75.4001 32.4449L78.0749 29.0358C78.3291 28.7118 78.5875 28.4158 78.8488 28.1464C78.874 28.1029 78.9032 28.0609 78.9366 28.0207C80.2392 26.4629 80.4577 25.2941 80.2092 24.4225C79.9604 23.5501 79.2281 22.8952 78.6484 22.4588C77.7553 21.7865 76.673 21.462 75.5376 21.7246C74.624 21.936 73.6499 22.5215 72.6683 23.5974C72.5422 23.7532 72.4088 23.9085 72.2679 24.0632L72.2584 24.0749L69.2062 27.915C68.8952 28.3091 68.3154 28.3878 67.9113 28.0907C67.5071 27.7936 67.4317 27.2332 67.7426 26.8391L70.8015 22.99L70.8082 22.9809C70.9674 22.7842 71.1277 22.5979 71.2888 22.4216C72.6471 20.6894 72.8412 18.9462 72.3243 17.6329C72.103 17.0706 71.7558 16.5901 71.32 16.2289C70.8906 15.8731 70.3688 15.6279 69.7909 15.5301C68.3942 15.2936 66.6587 15.9373 65.0431 17.9594L57.6762 27.18C57.3638 27.5718 56.785 27.6474 56.3834 27.349C55.9817 27.0507 55.9093 26.4912 56.2216 26.0995L62.6515 18.0517C60.1469 16.0172 58.4414 16.525 56.9752 18.0022C56.049 18.9354 55.1508 20.2646 54.2273 21.6314C53.9415 22.0544 53.653 22.4813 53.2251 23.09C46.691 32.3835 46.8047 32.9645 49.0586 44.4827L49.4237 46.3487C50.5902 52.303 51.0232 54.5131 49.9007 56.6737C49.5374 57.3731 49.0199 58.2418 48.3253 59.2861C47.6988 60.2281 46.935 61.3048 46.019 62.5185C45.7182 62.9197 45.1407 63.0121 44.7291 62.725C44.3176 62.4379 44.2278 61.8798 44.5286 61.4786C45.439 60.2725 46.182 59.2265 46.7771 58.3319C47.4326 57.3463 47.9167 56.5345 48.2526 55.888C48.9329 54.5786 48.8031 52.9919 48.1601 49.5306C46.1726 48.1253 44.1295 46.7226 42.0068 45.3082C39.7302 43.7912 37.3889 42.2793 34.9539 40.755C32.9301 39.488 32.059 37.6887 31.8647 35.6342C31.6831 33.7136 32.1165 31.587 32.7325 29.4899L32.7531 29.4954C33.1312 28.1502 33.7751 26.6544 34.6175 25.0923C35.922 22.6733 37.6913 20.0652 39.6439 17.6356C41.6032 15.1976 43.754 12.9279 45.8142 11.1948C49.3605 8.21145 52.7509 6.78624 54.8113 8.54948C56.6044 10.084 58.3405 11.5688 59.6894 12.7148C61.1139 13.925 62.5528 15.1404 64.0209 16.368C66.0217 14.1358 68.2471 13.4492 70.1274 13.7675C71.0269 13.9198 71.8447 14.306 72.523 14.8681C73.1948 15.4249 73.7235 16.1491 74.0519 16.9836C74.432 17.9494 74.5502 19.0664 74.3156 20.241C74.5866 20.1358 74.8566 20.0528 75.125 19.9908C76.8607 19.5893 78.478 20.0573 79.7864 21.0422C80.5849 21.6433 81.6007 22.5701 81.99 23.9354C82.174 24.5807 82.2143 25.3063 82.0203 26.1141C82.8121 25.8783 83.5848 25.8341 84.3044 25.946C85.1072 26.0709 85.8398 26.3927 86.4594 26.8637C87.0715 27.329 87.5697 27.9384 87.912 28.6449C88.2731 29.3905 88.4627 30.245 88.4294 31.1498C88.4384 31.1525 88.4473 31.1552 88.4561 31.1581C92.1969 32.3907 93.4539 34.8696 93.0904 38.0328ZM32.0131 3.77582C32.5611 3.80033 33.0902 3.68636 33.5521 3.45828C34.0099 3.23227 34.4016 2.89365 34.6796 2.46664L35.8444 0.677226L35.7436 2.77994C35.7189 3.29431 35.8247 3.81309 36.0804 4.26572C36.3098 4.67175 36.6608 5.0278 37.1477 5.28314L39.33 6.42759L36.8415 6.33128C36.2605 6.30879 35.7486 6.47474 35.3017 6.74817C34.8256 7.03944 34.4167 7.45163 34.0714 7.89486L33.034 9.22658L33.0357 7.567C33.0362 7.00843 32.9043 6.44043 32.6515 5.94093C32.4179 5.47916 32.082 5.07652 31.6542 4.797L29.95 3.68357L32.0131 3.77582ZM34.0655 4.45229C33.8078 4.57959 33.5352 4.68115 33.2524 4.75482C33.418 4.96992 33.5626 5.2012 33.6853 5.44372C33.8245 5.71884 33.9358 6.00856 34.0181 6.30543C34.2277 6.12215 34.4517 5.9541 34.6908 5.80787C34.9458 5.65184 35.2169 5.52054 35.5045 5.42135C35.335 5.23004 35.1901 5.0253 35.0688 4.81072C34.9285 4.56228 34.8201 4.30128 34.7419 4.03337C34.5314 4.19392 34.3048 4.33416 34.0655 4.45229ZM2.14921 21.2239C2.24585 21.225 2.3675 21.1918 2.4923 21.1282C2.61542 21.0655 2.73216 20.9758 2.8219 20.8627L3.89361 19.5117L3.85504 21.2058C3.8525 21.3169 3.88863 21.4391 3.95674 21.5531C4.02382 21.6654 4.11919 21.7635 4.23657 21.8294L6.071 22.8578L3.94165 22.8716C3.82519 22.8724 3.70088 22.914 3.58074 22.9787C3.41194 23.0696 3.26047 23.2006 3.14418 23.3363L2.18176 24.4593L2.12423 23.0107C2.1178 22.8483 2.07237 22.6709 1.99957 22.516C1.93997 22.3892 1.86873 22.286 1.79591 22.2353L0.316296 21.2026L2.14921 21.2239ZM14.6387 35.7531C15.1868 35.7776 15.7158 35.6636 16.1778 35.4356C16.6355 35.2095 17.0273 34.8709 17.3052 34.4439L18.4701 32.6545L18.3692 34.7572C18.3446 35.2716 18.4503 35.7904 18.706 36.243C18.9354 36.649 19.2865 37.0051 19.7734 37.2604L21.9555 38.4048L19.4671 38.3086C18.8861 38.2861 18.3743 38.452 17.9274 38.7254C17.4513 39.0167 17.0423 39.4289 16.697 39.8721L15.6596 41.2038L15.6613 39.5443C15.6619 38.9857 15.5299 38.4177 15.2772 37.9182C15.0435 37.4564 14.7076 37.0538 14.2798 36.7743L12.5757 35.6608L14.6387 35.7531ZM16.6912 36.4296C16.4334 36.5569 16.1609 36.6584 15.878 36.7321C16.0437 36.9472 16.1883 37.1785 16.311 37.421C16.4502 37.6961 16.5615 37.9858 16.6437 38.2827C16.8534 38.0994 17.0773 37.9314 17.3164 37.7852C17.5715 37.6291 17.8425 37.4978 18.1302 37.3986C17.9606 37.2073 17.8157 37.0026 17.6945 36.788C17.5542 36.5396 17.4457 36.2786 17.3675 36.0106C17.157 36.1712 16.9304 36.3114 16.6912 36.4296ZM25.5726 49.1844C25.2692 49.0951 25.1006 48.784 25.1959 48.4895C25.2912 48.195 25.6144 48.0287 25.9178 48.118L39.6898 52.1732C39.9931 52.2625 40.1617 52.5737 40.0664 52.8681C39.9711 53.1626 39.6479 53.3289 39.3446 53.2396L25.5726 49.1844ZM10.477 24.7325C10.1737 24.6432 10.005 24.332 10.1003 24.0376C10.1956 23.7431 10.5188 23.5768 10.8222 23.6661L24.5942 27.7213C24.8975 27.8106 25.0661 28.1217 24.9708 28.4162C24.8755 28.7107 24.5523 28.877 24.249 28.7877L10.477 24.7325ZM11.3782 8.91584C11.0749 8.82653 10.9062 8.51535 11.0016 8.22089C11.0969 7.92643 11.4201 7.7601 11.7234 7.84941L34.2488 14.482C34.5521 14.5713 34.7208 14.8825 34.6254 15.177C34.5301 15.4714 34.2069 15.6378 33.9036 15.5485L11.3782 8.91584ZM2.93283 14.4701C2.62952 14.3808 2.46089 14.0696 2.5562 13.7752C2.65152 13.4807 2.97472 13.3144 3.27803 13.4037L25.8034 20.0363C26.1067 20.1256 26.2754 20.4368 26.1801 20.7312C26.0847 21.0257 25.7615 21.192 25.4582 21.1027L2.93283 14.4701ZM59.3405 14.8033C59.0501 14.5571 58.7592 14.3102 58.4679 14.0628C56.5619 12.4435 55.0488 11.1499 53.5829 9.89546C52.3777 8.86401 49.8496 10.1559 47.0174 12.5385C45.0464 14.1966 42.9821 16.3763 41.0963 18.7229C39.2037 21.0778 37.4975 23.5896 36.2501 25.9028C35.4469 27.3922 34.8262 28.7819 34.4697 29.9582L34.503 29.9672C34.3981 30.3244 34.299 30.6819 34.2081 31.0379C34.0211 32.1323 34.1661 32.9409 34.7436 33.3243L36.5875 34.5482C38.7542 35.9861 40.8321 37.3651 42.3229 38.3598C42.8373 38.703 43.7449 39.3118 45.2639 40.3334C45.7257 40.644 46.1555 40.9333 46.5494 41.1991C44.9182 32.3746 45.5036 30.9181 51.7036 22.0996C51.9483 21.7516 52.3176 21.2051 52.6834 20.6638C53.6464 19.2384 54.583 17.8523 55.6506 16.7767C56.7703 15.6486 57.9673 14.8883 59.3405 14.8033ZM47.0302 43.7148C45.8703 42.9257 44.9504 42.3032 44.2068 41.8031C43.7989 41.5288 42.7467 40.8258 41.2637 39.8362C39.0733 38.3747 37.3409 37.225 35.5352 36.0266L33.6913 34.8028C33.6838 34.7978 33.6768 34.7925 33.6694 34.7875C33.6718 35.0147 33.6829 35.2382 33.7036 35.4574C33.8486 36.9902 34.4861 38.3248 35.9623 39.2489C38.4247 40.7905 40.7806 42.3114 43.0591 43.8298C44.615 44.8665 46.1478 45.9112 47.6667 46.9692L47.613 46.695L47.2479 44.8291C47.1731 44.4465 47.1004 44.0753 47.0302 43.7148ZM72.5006 66.3037C73.4036 67.0692 74.2431 67.785 75.0277 68.4579C76.0796 69.3601 77.1731 70.3039 78.3076 71.2881C78.5157 71.4686 78.7443 71.6017 78.9906 71.6908C80.3036 72.1659 82.214 71.5294 84.3455 70.2161C86.6397 68.8025 89.1233 66.623 91.4097 64.1597C94.6976 60.6174 97.5492 56.5211 98.8243 53.2947C98.9305 53.026 99.0107 52.8321 99.096 52.6258C99.8382 50.8311 100.962 48.1117 99.9987 45.6814C99.7708 46.8221 99.2997 48.1175 98.6382 49.5015C97.3182 52.2637 95.2503 55.4459 92.9204 58.3977C90.5873 61.3536 87.9758 64.0984 85.5716 65.9819C82.4309 68.4422 79.5372 69.4647 77.7413 67.8158C77.026 67.1592 76.3163 66.5139 75.6125 65.8804C75.1127 65.4305 74.6455 65.0124 74.2106 64.6259C73.6006 65.2311 73.027 65.7928 72.5006 66.3037ZM75.4984 63.3366C75.9828 63.7661 76.442 64.1763 76.8757 64.5666C77.5744 65.1956 78.288 65.8443 79.0161 66.5128C79.9852 67.4025 82.0264 66.475 84.4179 64.6014C86.6994 62.8141 89.2025 60.1779 91.4568 57.3218C93.7145 54.4615 95.7076 51.4003 96.9659 48.7672C98.2118 46.1603 98.7667 44.0696 98.0997 43.2775C97.9132 43.1359 97.7127 42.9978 97.498 42.8632C97.3815 42.7941 97.2656 42.7251 97.1502 42.6564C97.1269 42.6432 97.1045 42.6298 97.0809 42.6166L97.0816 42.6155C96.243 42.1154 95.435 41.626 94.6562 41.1468C93.9947 40.7398 93.3448 40.3351 92.7062 39.9326C92.6995 39.9565 92.6931 39.9802 92.6862 40.0042C91.6183 43.7391 88.7111 48.184 85.2818 52.4819C83.0473 55.2824 80.6005 58.0139 78.304 60.4398C77.3337 61.4648 76.3893 62.4365 75.4984 63.3366Z" fill="#FF7A00"/>
</svg>
