<svg width="167" height="32" viewBox="0 0 167 32" fill="none" xmlns="http://www.w3.org/2000/svg">
<path d="M34.3316 14.749C34.6111 14.9267 34.8906 15.1016 35.1699 15.2735C35.4298 15.4334 35.6862 15.589 35.9389 15.74C36.0135 15.7815 36.0843 15.8236 36.1518 15.8667L36.2101 15.9011C36.2571 15.9289 36.2998 15.96 36.3386 15.9942C37.9182 17.1489 37.2478 18.771 36.8533 19.7251C36.8181 19.8102 36.785 19.89 36.7674 19.9348C36.3244 21.0556 35.3486 22.4626 34.2292 23.6687C33.4486 24.5097 32.5935 25.2582 31.795 25.7502C30.9434 26.2749 30.1379 26.5139 29.513 26.2877C29.3621 26.2331 29.2235 26.1529 29.0991 26.045C28.745 25.7378 28.3899 25.4314 28.0318 25.1242C27.7238 24.8601 27.4401 24.6179 27.1825 24.3993C26.9209 24.6631 26.6866 24.9136 26.4588 25.169C26.1356 25.5314 25.8253 25.9032 25.4702 26.3354L23.8251 28.3701C23.7225 28.4978 23.5331 28.5219 23.4021 28.4239C23.2712 28.3258 23.2482 28.1428 23.3508 28.015L24.9961 25.9805L24.9979 25.9786C25.361 25.5368 25.6774 25.1575 26.0043 24.791C26.3355 24.4197 26.6775 24.0607 27.0883 23.6633C27.6195 23.1496 28.3166 22.4604 29.06 21.675C29.8044 20.8887 30.5937 20.0081 31.3066 19.1147C32.3844 17.7639 33.2946 16.379 33.6199 15.2413C33.9046 14.2457 33.7083 13.4503 32.6954 13.0822C32.6118 13.3156 32.4806 13.5513 32.2944 13.7813L31.0299 15.3432C30.9266 15.4708 30.7369 15.4942 30.6061 15.3956C30.4754 15.2969 30.4531 15.1135 30.5563 14.986L31.8208 13.4241C32.2522 12.8913 32.29 12.3359 32.0957 11.9346C32.0233 11.7853 31.9195 11.6576 31.7929 11.5614C31.6688 11.467 31.5216 11.4025 31.36 11.3773C30.9378 11.3117 30.41 11.5187 29.9067 12.1601L29.0332 13.2734C28.9323 13.4023 28.7433 13.4286 28.6111 13.3322C28.4789 13.2358 28.4536 13.0531 28.5546 12.9243L29.4281 11.8109C29.5111 11.7052 29.5955 11.6085 29.6808 11.5205C29.689 11.5063 29.6985 11.4926 29.7095 11.4795C30.1348 10.9708 30.2062 10.5891 30.125 10.3044C30.0438 10.0195 29.8046 9.80567 29.6153 9.66317C29.3237 9.44363 28.9703 9.33765 28.5995 9.42342C28.3011 9.49244 27.983 9.68366 27.6625 10.035C27.6213 10.0859 27.5777 10.1366 27.5317 10.1871L27.5286 10.1909L26.5319 11.4449C26.4303 11.5737 26.241 11.5993 26.109 11.5023C25.977 11.4053 25.9524 11.2223 26.0539 11.0936L27.0528 9.83662L27.055 9.83367C27.107 9.76942 27.1594 9.7086 27.212 9.65102C27.6555 9.08536 27.7189 8.5161 27.5501 8.08723C27.4779 7.90359 27.3645 7.74668 27.2222 7.62873C27.0819 7.51252 26.9115 7.43245 26.7228 7.40051C26.2667 7.3233 25.7 7.53348 25.1724 8.19384L22.7666 11.2049C22.6646 11.3329 22.4756 11.3576 22.3444 11.2601C22.2133 11.1627 22.1896 10.98 22.2916 10.8521L24.3914 8.22397C23.5735 7.55958 23.0165 7.72541 22.5377 8.20783C22.2352 8.51257 21.9419 8.94662 21.6403 9.39298C21.547 9.53109 21.4528 9.67052 21.3131 9.8693C19.1793 12.9042 19.2164 13.0939 19.9525 16.8553L20.0717 17.4647C20.4526 19.4091 20.594 20.1309 20.2274 20.8364C20.1088 21.0648 19.9398 21.3485 19.713 21.6896C19.5084 21.9972 19.259 22.3488 18.9598 22.7451C18.8616 22.8761 18.673 22.9063 18.5386 22.8126C18.4042 22.7188 18.3749 22.5366 18.4731 22.4055C18.7704 22.0117 19.0131 21.6701 19.2074 21.3779C19.4214 21.0561 19.5796 20.791 19.6892 20.5798C19.9114 20.1523 19.869 19.6341 19.659 18.5038C19.01 18.0449 18.3428 17.5868 17.6496 17.1249C16.9061 16.6295 16.1416 16.1358 15.3464 15.638C14.6855 15.2243 14.401 14.6367 14.3376 13.9657C14.2783 13.3385 14.4198 12.6441 14.621 11.9592L14.6277 11.9611C14.7512 11.5217 14.9614 11.0333 15.2365 10.5232C15.6625 9.73321 16.2403 8.88152 16.878 8.08809C17.5178 7.29195 18.2202 6.55075 18.8929 5.98477C20.051 5.01053 21.1582 4.54511 21.831 5.12092C22.4166 5.62203 22.9836 6.10691 23.4241 6.48115C23.8893 6.87636 24.3592 7.27326 24.8386 7.67413C25.4919 6.9452 26.2187 6.72099 26.8327 6.82493C27.1264 6.87465 27.3935 7.00076 27.615 7.18433C27.8344 7.36616 28.007 7.60267 28.1143 7.87518C28.2384 8.19057 28.277 8.55535 28.2004 8.93892C28.2889 8.90456 28.3771 8.87747 28.4647 8.8572C29.0316 8.72609 29.5597 8.87893 29.987 9.20057C30.2477 9.39686 30.5794 9.69951 30.7066 10.1454C30.7667 10.3561 30.7798 10.5931 30.7165 10.8568C30.975 10.7798 31.2274 10.7654 31.4624 10.802C31.7245 10.8427 31.9638 10.9478 32.1661 11.1016C32.366 11.2536 32.5287 11.4526 32.6405 11.6833C32.7584 11.9268 32.8203 12.2058 32.8094 12.5013C32.8124 12.5022 32.8153 12.5031 32.8182 12.504C34.0398 12.9065 34.4503 13.7161 34.3316 14.749ZM14.386 3.56202C14.565 3.57003 14.7378 3.53281 14.8886 3.45833C15.0381 3.38452 15.166 3.27394 15.2568 3.1345L15.6372 2.55014L15.6043 3.23681C15.5962 3.40478 15.6308 3.57419 15.7143 3.72201C15.7892 3.8546 15.9038 3.97087 16.0628 4.05426L16.7755 4.42799L15.9628 4.39654C15.7731 4.38919 15.6059 4.44339 15.46 4.53268C15.3045 4.62779 15.171 4.7624 15.0582 4.90714L14.7194 5.34203L14.72 4.80008C14.7202 4.61767 14.6771 4.43218 14.5945 4.26906C14.5182 4.11827 14.4085 3.98678 14.2688 3.8955L13.7123 3.5319L14.386 3.56202ZM15.0563 3.78293C14.9721 3.8245 14.8831 3.85767 14.7907 3.88173C14.8448 3.95197 14.8921 4.0275 14.9321 4.10669C14.9776 4.19654 15.0139 4.29115 15.0408 4.38809C15.1093 4.32824 15.1824 4.27336 15.2605 4.22561C15.3438 4.17466 15.4323 4.13178 15.5262 4.09939C15.4708 4.03691 15.4235 3.97005 15.3839 3.89998C15.3381 3.81885 15.3027 3.73362 15.2772 3.64613C15.2084 3.69856 15.1344 3.74435 15.0563 3.78293ZM4.63364 9.25989C4.6652 9.26025 4.70492 9.24941 4.74568 9.22865C4.78589 9.20817 4.82401 9.17887 4.85331 9.14194L5.20329 8.70075L5.1907 9.25399C5.18987 9.29026 5.20167 9.33017 5.22391 9.3674C5.24581 9.40407 5.27696 9.43612 5.31529 9.45761L5.91434 9.79347L5.21898 9.79799C5.18095 9.79823 5.14035 9.81181 5.10112 9.83294C5.046 9.86263 4.99654 9.9054 4.95856 9.94971L4.64427 10.3165L4.62548 9.84341C4.62338 9.79037 4.60855 9.73243 4.58477 9.68186C4.56531 9.64045 4.54204 9.60675 4.51826 9.59017L4.03508 9.25294L4.63364 9.25989ZM8.71223 14.0046C8.8912 14.0126 9.06397 13.9754 9.21483 13.9009C9.3643 13.8271 9.49224 13.7165 9.583 13.577L9.96341 12.9927L9.93047 13.6794C9.92242 13.8473 9.95696 14.0167 10.0405 14.1646C10.1154 14.2972 10.23 14.4134 10.389 14.4968L11.1016 14.8705L10.289 14.8391C10.0993 14.8318 9.93213 14.8859 9.78618 14.9752C9.63071 15.0703 9.49716 15.205 9.3844 15.3497L9.04563 15.7846L9.04617 15.2426C9.04636 15.0602 9.00326 14.8747 8.92072 14.7116C8.84442 14.5608 8.73474 14.4293 8.59504 14.3381L8.03853 13.9744L8.71223 14.0046ZM9.38248 14.2255C9.29831 14.2671 9.20932 14.3002 9.11695 14.3243C9.17104 14.3945 9.21826 14.47 9.25833 14.5492C9.30379 14.6391 9.34013 14.7337 9.36699 14.8306C9.43545 14.7708 9.50859 14.7159 9.58666 14.6682C9.66996 14.6172 9.75847 14.5743 9.85242 14.5419C9.79703 14.4795 9.74972 14.4126 9.71013 14.3425C9.6643 14.2614 9.62888 14.1762 9.60335 14.0887C9.53462 14.1411 9.46062 14.1869 9.38248 14.2255ZM12.2828 18.3907C12.1838 18.3616 12.1287 18.26 12.1598 18.1638C12.1909 18.0676 12.2965 18.0133 12.3955 18.0425L16.893 19.3667C16.992 19.3959 17.0471 19.4975 17.0159 19.5937C16.9848 19.6898 16.8793 19.7442 16.7802 19.715L12.2828 18.3907ZM7.35316 10.4057C7.25411 10.3765 7.19904 10.2749 7.23017 10.1787C7.2613 10.0826 7.36684 10.0283 7.46589 10.0574L11.9633 11.3817C12.0624 11.4109 12.1174 11.5125 12.0863 11.6086C12.0552 11.7048 11.9496 11.7591 11.8506 11.7299L7.35316 10.4057ZM7.64748 5.24056C7.54843 5.21139 7.49335 5.10977 7.52448 5.01361C7.55561 4.91745 7.66116 4.86314 7.76021 4.8923L15.1161 7.05826C15.2152 7.08742 15.2703 7.18904 15.2391 7.2852C15.208 7.38136 15.1025 7.43568 15.0034 7.40651L7.64748 5.24056ZM4.88954 7.05436C4.79049 7.0252 4.73542 6.92358 4.76655 6.82742C4.79767 6.73126 4.90322 6.67694 5.00227 6.70611L12.3582 8.87207C12.4572 8.90123 12.5123 9.00285 12.4812 9.09901C12.4501 9.19516 12.3445 9.24948 12.2455 9.22032L4.88954 7.05436ZM23.3101 7.16316C23.2153 7.08277 23.1203 7.00216 23.0252 6.92135C22.4027 6.39254 21.9086 5.97013 21.4299 5.56046C21.0363 5.22363 20.2108 5.64552 19.2859 6.42358C18.6422 6.96506 17.9681 7.67686 17.3523 8.44315C16.7342 9.21218 16.177 10.0324 15.7697 10.7878C15.5074 11.2742 15.3047 11.7281 15.1883 12.1122L15.1992 12.1151C15.1649 12.2318 15.1325 12.3485 15.1028 12.4648C15.0418 12.8222 15.0891 13.0862 15.2777 13.2114L15.8799 13.6111C16.5874 14.0807 17.266 14.531 17.7528 14.8558C17.9208 14.9679 18.2172 15.1667 18.7132 15.5003C18.8641 15.6018 19.0044 15.6962 19.133 15.783C18.6004 12.9013 18.7915 12.4256 20.8162 9.54588C20.8961 9.43223 21.0167 9.25375 21.1362 9.07698C21.4507 8.61151 21.7565 8.15886 22.1051 7.80761C22.4708 7.43922 22.8617 7.19095 23.3101 7.16316ZM19.2901 16.6046C18.9113 16.3469 18.6109 16.1436 18.368 15.9803C18.2348 15.8907 17.8912 15.6611 17.4069 15.338C16.6916 14.8607 16.1259 14.4852 15.5362 14.0939L14.9341 13.6942C14.9316 13.6926 14.9293 13.6909 14.9269 13.6893C14.9277 13.7634 14.9313 13.8364 14.9381 13.908C14.9854 14.4086 15.1936 14.8444 15.6757 15.1462C16.4798 15.6496 17.2492 16.1463 17.9932 16.6421C18.5013 16.9807 19.0019 17.3218 19.4979 17.6673L19.4804 17.5778L19.3612 16.9684C19.3367 16.8435 19.313 16.7223 19.2901 16.6046ZM27.6077 23.9812C27.9026 24.2312 28.1768 24.465 28.4329 24.6847C28.7765 24.9793 29.1336 25.2875 29.5041 25.609C29.572 25.6679 29.6467 25.7113 29.7271 25.7404C30.1559 25.8956 30.7797 25.6878 31.4758 25.2589C32.225 24.7973 33.036 24.0855 33.7827 23.2811C34.8564 22.1243 35.7876 20.7866 36.204 19.733C36.2387 19.6453 36.2649 19.5819 36.2927 19.5145C36.5351 18.9285 36.9022 18.0404 36.5875 17.2468C36.5131 17.6193 36.3592 18.0423 36.1433 18.4943C35.7122 19.3963 35.0369 20.4355 34.276 21.3994C33.5141 22.3647 32.6613 23.2611 31.8762 23.8761C30.8506 24.6796 29.9056 25.0135 29.3191 24.475C29.0855 24.2606 28.8538 24.0499 28.6239 23.843C28.4607 23.6961 28.3081 23.5596 28.1661 23.4333C27.9669 23.631 27.7796 23.8144 27.6077 23.9812ZM28.5867 23.0123C28.7448 23.1525 28.8948 23.2865 29.0365 23.414C29.2646 23.6194 29.4976 23.8312 29.7354 24.0495C30.0519 24.3401 30.7185 24.0372 31.4994 23.4253C32.2445 22.8417 33.0619 21.9808 33.7981 21.0481C34.5354 20.114 35.1862 19.1144 35.5971 18.2545C36.004 17.4032 36.1852 16.7204 35.9674 16.4617C35.9065 16.4155 35.841 16.3704 35.7709 16.3265C35.7328 16.3039 35.695 16.2814 35.6573 16.2589C35.6497 16.2546 35.6424 16.2502 35.6347 16.2459C35.3608 16.0826 35.0972 15.9224 34.8429 15.766C34.6269 15.633 34.4146 15.5009 34.2061 15.3695C34.2039 15.3773 34.2018 15.385 34.1996 15.3928C33.8508 16.6125 32.9014 18.064 31.7816 19.4675C31.0518 20.3821 30.2528 21.2741 29.5029 22.0663C29.186 22.401 28.8776 22.7184 28.5867 23.0123Z" fill="#EE8101"/>
<path d="M44.5719 28.7312V20.5088C44.5719 20.1773 44.3219 19.9287 43.9868 19.9287H39.1434C37.1687 19.9287 35.9416 20.3808 35.3039 21.6494C34.6497 22.3573 33.7325 23.1609 33.4669 24.2471L32.3801 28.7312H31.4618C31.1285 28.7312 30.8767 28.9798 30.8767 29.3132V30.9742C30.8767 31.3057 31.1285 31.5561 31.4618 31.5561H45.6568C45.992 31.5561 46.2419 31.3057 46.2419 30.9742V29.3132C46.2419 28.9798 45.992 28.7312 45.6568 28.7312H44.5719ZM40.8968 28.7312H36.1385L37.2235 24.2471C37.4401 23.3337 38.0585 22.7518 39.1434 22.7518H40.8968V28.7312Z" fill="white"/>
<path d="M55.428 29.1477C53.5913 29.1477 52.4212 27.9839 52.4212 25.7427C52.4212 23.4998 53.5913 22.3359 55.428 22.3359C57.2646 22.3359 58.4329 23.4998 58.4329 25.7427C58.4329 27.9839 57.2646 29.1477 55.428 29.1477ZM55.428 19.5957C51.003 19.5957 48.5813 22.0044 48.5813 25.7427C48.5813 29.4792 51.003 31.8879 55.428 31.8879C59.8529 31.8879 62.2746 29.4792 62.2746 25.7427C62.2746 22.0044 59.8529 19.5957 55.428 19.5957Z" fill="white"/>
<path d="M76.1348 20.5088C76.1348 20.1773 75.883 19.9287 75.5498 19.9287H66.1981C65.863 19.9287 65.613 20.1773 65.613 20.5088V30.9742C65.613 31.3057 65.863 31.5561 66.1981 31.5561H68.7031C69.0364 31.5561 69.2863 31.3057 69.2863 30.9742V22.7518H75.5498C75.883 22.7518 76.1348 22.5032 76.1348 22.1699V20.5088Z" fill="white"/>
<path d="M89.6795 20.5088C89.6795 20.1773 89.4295 19.9287 89.0944 19.9287H84.0011C80.6611 19.9287 78.9911 21.5898 78.3227 24.2471L76.6527 30.9742C76.5694 31.2891 76.8193 31.5561 77.2377 31.5561H79.7594C80.076 31.5561 80.3278 31.3057 80.4111 30.9742L82.0811 24.2471C82.3144 23.3337 82.9161 22.7518 84.0011 22.7518H86.0044V30.9742C86.0044 31.3057 86.2562 31.5561 86.5894 31.5561H89.0944C89.4295 31.5561 89.6795 31.3057 89.6795 30.9742V20.5088Z" fill="white"/>
<path d="M95.691 26.9044V27.0702L92.6842 30.9742C92.5009 31.2228 92.6842 31.5561 93.1027 31.5561H95.9409C96.526 31.5561 96.8426 31.2228 97.0277 30.9742L99.3643 27.9007H101.619V30.9742C101.619 31.3057 101.869 31.5561 102.204 31.5561H104.709C105.043 31.5561 105.294 31.3057 105.294 30.9742V20.5088C105.294 20.1773 105.043 19.9287 104.709 19.9287H98.7811C95.0226 19.9287 93.2693 21.6726 93.2693 23.9138C93.2693 26.4054 95.691 26.9044 95.691 26.9044ZM98.7811 25.2434C97.6943 25.2434 97.111 24.6614 97.111 23.9138C97.111 23.1661 97.6943 22.586 98.7811 22.586H101.619V25.2434H98.7811Z" fill="white"/>
<path d="M121.327 20.5088C121.327 20.1773 121.075 19.9287 120.742 19.9287H118.237C117.903 19.9287 117.651 20.1773 117.651 20.5088V24.4128H112.81V20.5088C112.81 20.1773 112.558 19.9287 112.225 19.9287H109.72C109.385 19.9287 109.135 20.1773 109.135 20.5088V30.9742C109.135 31.3057 109.385 31.5561 109.72 31.5561H112.225C112.558 31.5561 112.81 31.3057 112.81 30.9742V27.2359H117.651V30.9742C117.651 31.3057 117.903 31.5561 118.237 31.5561H120.742C121.075 31.5561 121.327 31.3057 121.327 30.9742V20.5088Z" fill="white"/>
<path d="M131.895 24.9119H130.56C129.892 24.9119 129.476 24.4957 129.224 23.9138L127.806 20.5088C127.67 20.1773 127.387 19.9287 126.97 19.9287H124.465C124.047 19.9287 123.83 20.1773 123.964 20.5088L125.384 23.9138C126.385 26.3225 127.72 27.6521 130.477 27.6521H130.894L130.81 27.9007C130.677 28.3169 130.225 28.7312 129.559 28.7312H129.39C129.057 28.7312 128.555 28.5655 128.222 28.5655H127.47C127.137 28.5655 126.885 28.8141 126.885 29.1474V30.9742C126.885 31.3057 127.137 31.5561 127.47 31.5561H129.559C132.314 31.5561 133.734 30.1437 134.569 27.9007L137.324 20.5088C137.44 20.1773 137.24 19.9287 136.822 19.9287H134.4C133.984 19.9287 133.684 20.1773 133.565 20.5088L131.895 24.9119Z" fill="white"/>
<path d="M151.304 20.5088C151.304 20.1773 151.052 19.9287 150.719 19.9287H140.03C139.697 19.9287 139.445 20.1773 139.445 20.5088V22.1699C139.445 22.5032 139.697 22.7518 140.03 22.7518H143.537V30.9742C143.537 31.3057 143.789 31.5561 144.122 31.5561H146.627C146.96 31.5561 147.212 31.3057 147.212 30.9742V22.7518H150.719C151.052 22.7518 151.304 22.5032 151.304 22.1699V20.5088Z" fill="white"/>
<path d="M160.153 29.1477C158.317 29.1477 157.148 27.9839 157.148 25.7427C157.148 23.4998 158.317 22.3359 160.153 22.3359C161.99 22.3359 163.16 23.4998 163.16 25.7427C163.16 27.9839 161.99 29.1477 160.153 29.1477ZM160.153 19.5957C155.728 19.5957 153.307 22.0044 153.307 25.7427C153.307 29.4792 155.728 31.8879 160.153 31.8879C164.58 31.8879 167 29.4792 167 25.7427C167 22.0044 164.58 19.5957 160.153 19.5957Z" fill="white"/>
</svg>
