<svg width="189" height="36" viewBox="0 0 189 36" fill="none" xmlns="http://www.w3.org/2000/svg">
<path d="M39.0847 16.6512C39.3997 16.8518 39.7145 17.0492 40.0293 17.2433C40.322 17.4238 40.6109 17.5994 40.8956 17.7699C40.9797 17.8168 41.0594 17.8643 41.1355 17.913L41.2011 17.9519C41.254 17.9832 41.3022 18.0184 41.3459 18.057C43.1255 19.3606 42.3702 21.1919 41.9257 22.269C41.8861 22.3651 41.8489 22.4553 41.8289 22.5057C41.3299 23.7711 40.2306 25.3596 38.9694 26.7212C38.0899 27.6707 37.1266 28.5158 36.227 29.0712C35.2676 29.6635 34.3601 29.9334 33.656 29.678C33.486 29.6164 33.3299 29.5259 33.1898 29.404C32.7908 29.0571 32.3907 28.7112 31.9873 28.3645C31.6403 28.0662 31.3207 27.7928 31.0305 27.546C30.7358 27.8438 30.4718 28.1266 30.2152 28.415C29.851 28.8242 29.5015 29.2439 29.1013 29.7319L27.2479 32.029C27.1323 32.1732 26.919 32.2004 26.7714 32.0897C26.6239 31.979 26.598 31.7723 26.7136 31.6281L28.5672 29.3312L28.5693 29.3291C28.9783 28.8303 29.3348 28.4021 29.7031 27.9883C30.0762 27.5691 30.4615 27.1638 30.9244 26.7151C31.5228 26.1351 32.3082 25.3571 33.1457 24.4704C33.9844 23.5827 34.8736 22.5885 35.6767 21.5799C36.891 20.0549 37.9165 18.4913 38.283 17.2069C38.6037 16.083 38.3826 15.1849 37.2414 14.7694C37.1472 15.0329 36.9994 15.299 36.7896 15.5587L35.365 17.322C35.2487 17.466 35.0349 17.4925 34.8876 17.3811C34.7403 17.2698 34.7151 17.0627 34.8314 16.9187L36.2561 15.1554C36.742 14.5538 36.7847 13.9268 36.5657 13.4737C36.4842 13.3052 36.3673 13.1611 36.2247 13.0524C36.0848 12.9459 35.919 12.873 35.7369 12.8447C35.2613 12.7705 34.6666 13.0042 34.0996 13.7284L33.1155 14.9853C33.0018 15.1308 32.7889 15.1605 32.64 15.0517C32.491 14.9428 32.4625 14.7366 32.5763 14.5911L33.5604 13.3342C33.6539 13.2148 33.7489 13.1056 33.8451 13.0063C33.8543 12.9903 33.8651 12.9748 33.8774 12.96C34.3566 12.3857 34.437 11.9547 34.3456 11.6334C34.2541 11.3117 33.9846 11.0703 33.7714 10.9094C33.4428 10.6616 33.0446 10.5419 32.6268 10.6387C32.2907 10.7167 31.9324 10.9326 31.5712 11.3292C31.5248 11.3866 31.4757 11.4439 31.4239 11.5009L31.4204 11.5052L30.2975 12.921C30.1831 13.0663 29.9697 13.0953 29.8211 12.9858C29.6724 12.8762 29.6446 12.6696 29.759 12.5243L30.8844 11.1052L30.8869 11.1019C30.9454 11.0294 31.0044 10.9607 31.0637 10.8957C31.5634 10.2571 31.6348 9.61441 31.4447 9.13023C31.3632 8.92291 31.2355 8.74576 31.0752 8.6126C30.9172 8.4814 30.7252 8.39101 30.5126 8.35495C29.9987 8.26778 29.3602 8.50507 28.7658 9.25059L26.0554 12.65C25.9405 12.7945 25.7276 12.8223 25.5798 12.7123C25.432 12.6023 25.4054 12.3961 25.5203 12.2516L27.8859 9.28461C26.9645 8.53453 26.337 8.72174 25.7975 9.26638C25.4568 9.61042 25.1264 10.1005 24.7866 10.6044C24.6814 10.7603 24.5753 10.9177 24.4179 11.1421C22.0139 14.5685 22.0557 14.7826 22.885 19.0292L23.0193 19.7171C23.4485 21.9123 23.6078 22.7271 23.1948 23.5237C23.0611 23.7815 22.8707 24.1018 22.6152 24.4868C22.3847 24.8341 22.1037 25.2311 21.7667 25.6785C21.656 25.8265 21.4435 25.8605 21.2921 25.7547C21.1407 25.6488 21.1077 25.4431 21.2183 25.2952C21.5533 24.8505 21.8266 24.4649 22.0456 24.135C22.2867 23.7717 22.4649 23.4724 22.5884 23.234C22.8387 22.7513 22.791 22.1663 22.5544 20.8902C21.8232 20.3721 21.0715 19.855 20.2905 19.3335C19.453 18.7742 18.5915 18.2168 17.6957 17.6548C16.9511 17.1877 16.6307 16.5244 16.5592 15.7669C16.4923 15.0588 16.6518 14.2748 16.8784 13.5016L16.886 13.5037C17.0251 13.0077 17.262 12.4563 17.572 11.8803C18.0519 10.9885 18.7028 10.027 19.4212 9.13121C20.1421 8.23238 20.9334 7.39559 21.6913 6.75662C22.996 5.65673 24.2434 5.13129 25.0014 5.78136C25.6611 6.3471 26.2999 6.89451 26.7961 7.31701C27.3202 7.7632 27.8496 8.21128 28.3897 8.66386C29.1258 7.84092 29.9446 7.58779 30.6364 7.70514C30.9673 7.76127 31.2682 7.90365 31.5177 8.11089C31.7649 8.31617 31.9594 8.58318 32.0802 8.89084C32.2201 9.2469 32.2636 9.65872 32.1773 10.0918C32.277 10.053 32.3763 10.0224 32.475 9.9995C33.1136 9.85148 33.7087 10.024 34.19 10.3872C34.4838 10.6088 34.8575 10.9504 35.0007 11.4538C35.0685 11.6917 35.0833 11.9592 35.0119 12.257C35.3032 12.1701 35.5875 12.1538 35.8522 12.1951C36.1476 12.2411 36.4171 12.3598 36.6451 12.5334C36.8703 12.7049 37.0536 12.9296 37.1795 13.1901C37.3124 13.465 37.3821 13.78 37.3699 14.1136C37.3732 14.1146 37.3764 14.1156 37.3797 14.1167C38.756 14.5711 39.2185 15.485 39.0847 16.6512ZM16.6137 4.02141C16.8154 4.03045 17.01 3.98843 17.18 3.90434C17.3484 3.82102 17.4925 3.69618 17.5948 3.53875L18.0233 2.87903L17.9862 3.65425C17.9772 3.84389 18.0161 4.03515 18.1102 4.20203C18.1945 4.35172 18.3237 4.48299 18.5028 4.57713L19.3057 4.99906L18.3902 4.96355C18.1764 4.95526 17.9881 5.01645 17.8237 5.11725C17.6485 5.22464 17.4981 5.3766 17.371 5.54001L16.9894 6.03099L16.99 5.41914C16.9902 5.21321 16.9416 5.0038 16.8486 4.81964C16.7627 4.6494 16.6391 4.50095 16.4817 4.3979L15.8547 3.9874L16.6137 4.02141ZM17.3689 4.27081C17.274 4.31774 17.1738 4.35519 17.0697 4.38235C17.1306 4.46165 17.1838 4.54692 17.229 4.63633C17.2802 4.73776 17.3211 4.84458 17.3514 4.95402C17.4285 4.88645 17.5109 4.8245 17.5989 4.77059C17.6927 4.71306 17.7925 4.66465 17.8983 4.62808C17.8359 4.55755 17.7826 4.48207 17.738 4.40296C17.6864 4.31136 17.6465 4.21514 17.6177 4.11637C17.5403 4.17556 17.4569 4.22726 17.3689 4.27081ZM5.62654 10.4541C5.66209 10.4545 5.70685 10.4423 5.75276 10.4189C5.79806 10.3957 5.84101 10.3627 5.87402 10.321L6.26832 9.82288L6.25413 10.4475C6.25319 10.4884 6.26648 10.5335 6.29154 10.5755C6.31622 10.6169 6.35131 10.6531 6.3945 10.6774L7.0694 11.0565L6.28599 11.0616C6.24315 11.0619 6.19741 11.0772 6.15321 11.1011C6.09111 11.1346 6.03538 11.1829 5.9926 11.2329L5.63851 11.647L5.61734 11.1129C5.61498 11.053 5.59826 10.9876 5.57148 10.9305C5.54956 10.8838 5.52334 10.8457 5.49655 10.827L4.95219 10.4463L5.62654 10.4541ZM10.2215 15.8107C10.4232 15.8198 10.6178 15.7777 10.7878 15.6937C10.9562 15.6103 11.1003 15.4855 11.2026 15.3281L11.6311 14.6683L11.594 15.4436C11.585 15.6332 11.6239 15.8245 11.7179 15.9913C11.8023 16.141 11.9315 16.2723 12.1106 16.3664L12.9135 16.7883L11.998 16.7529C11.7842 16.7446 11.5959 16.8058 11.4315 16.9066C11.2563 17.014 11.1059 17.1659 10.9788 17.3293L10.5972 17.8203L10.5978 17.2085C10.598 17.0025 10.5494 16.7931 10.4564 16.609C10.3705 16.4387 10.2469 16.2903 10.0895 16.1872L9.46254 15.7767L10.2215 15.8107ZM10.9767 16.0601C10.8818 16.1071 10.7816 16.1445 10.6775 16.1717C10.7384 16.251 10.7916 16.3362 10.8368 16.4256C10.888 16.5271 10.9289 16.6339 10.9592 16.7433C11.0363 16.6758 11.1187 16.6138 11.2067 16.5599C11.3005 16.5024 11.4003 16.454 11.5061 16.4174C11.4437 16.3469 11.3904 16.2714 11.3458 16.1923C11.2942 16.1007 11.2543 16.0045 11.2255 15.9057C11.1481 15.9649 11.0647 16.0166 10.9767 16.0601ZM14.2442 20.7626C14.1326 20.7296 14.0706 20.6149 14.1057 20.5064C14.1407 20.3978 14.2596 20.3365 14.3712 20.3694L19.4381 21.8645C19.5497 21.8974 19.6117 22.0121 19.5767 22.1207C19.5416 22.2292 19.4227 22.2906 19.3111 22.2576L14.2442 20.7626ZM8.6904 11.7477C8.57881 11.7148 8.51677 11.6 8.55183 11.4915C8.5869 11.3829 8.70581 11.3216 8.8174 11.3545L13.8843 12.8496C13.9959 12.8825 14.0579 12.9972 14.0228 13.1058C13.9878 13.2143 13.8689 13.2757 13.7573 13.2427L8.6904 11.7477ZM9.02198 5.91643C8.91039 5.8835 8.84834 5.76877 8.88341 5.66021C8.91847 5.55165 9.03739 5.49033 9.14898 5.52326L17.4363 7.96856C17.5479 8.00148 17.6099 8.1162 17.5749 8.22476C17.5398 8.33332 17.4209 8.39465 17.3093 8.36173L9.02198 5.91643ZM5.91484 7.96416C5.80325 7.93123 5.74121 7.81651 5.77627 7.70795C5.81134 7.59939 5.93025 7.53806 6.04184 7.57099L14.3292 10.0163C14.4407 10.0492 14.5028 10.1639 14.4677 10.2725C14.4327 10.3811 14.3137 10.4424 14.2022 10.4095L5.91484 7.96416ZM26.6678 8.08699C26.5609 7.99623 26.4539 7.90522 26.3467 7.81399C25.6455 7.21698 25.0888 6.74009 24.5495 6.27759C24.1061 5.89732 23.176 6.37362 22.134 7.25202C21.4089 7.86334 20.6494 8.66694 19.9555 9.53206C19.2593 10.4003 18.6315 11.3263 18.1726 12.1791C17.8771 12.7283 17.6487 13.2406 17.5176 13.6743L17.5298 13.6776C17.4912 13.8093 17.4548 13.9411 17.4213 14.0723C17.3525 14.4758 17.4059 14.7739 17.6183 14.9153L18.2967 15.3665C19.0939 15.8966 19.8584 16.405 20.4068 16.7718C20.5961 16.8983 20.93 17.1227 21.4888 17.4994C21.6588 17.6139 21.8169 17.7206 21.9618 17.8186C21.3617 14.5652 21.577 14.0282 23.8581 10.777C23.9481 10.6487 24.084 10.4472 24.2186 10.2476C24.5729 9.72213 24.9175 9.2111 25.3102 8.81455C25.7222 8.39865 26.1626 8.11836 26.6678 8.08699ZM22.1387 18.7461C21.7119 18.4551 21.3735 18.2256 21.0999 18.0412C20.9499 17.9401 20.5628 17.6809 20.0171 17.3161C19.2113 16.7773 18.5739 16.3534 17.9096 15.9116L17.2312 15.4604C17.2284 15.4585 17.2258 15.4566 17.2231 15.4548C17.224 15.5385 17.2281 15.6209 17.2357 15.7017C17.289 16.2668 17.5236 16.7588 18.0667 17.0996C18.9727 17.6679 19.8394 18.2286 20.6777 18.7884C21.2501 19.1707 21.8141 19.5558 22.3729 19.9459L22.3531 19.8448L22.2188 19.1568C22.1913 19.0158 22.1645 18.8789 22.1387 18.7461ZM31.5095 27.0741C31.8417 27.3563 32.1506 27.6202 32.4392 27.8683C32.8263 28.2009 33.2286 28.5489 33.646 28.9117C33.7225 28.9783 33.8066 29.0273 33.8972 29.0602C34.3803 29.2354 35.0832 29.0007 35.8674 28.5165C36.7114 27.9953 37.6252 27.1918 38.4663 26.2836C39.676 24.9777 40.7251 23.4674 41.1943 22.2779C41.2333 22.1789 41.2628 22.1074 41.2942 22.0313C41.5673 21.3697 41.9808 20.3671 41.6263 19.4711C41.5425 19.8916 41.3692 20.3692 41.1258 20.8795C40.6401 21.8978 39.8794 23.071 39.0222 24.1593C38.1638 25.2491 37.203 26.261 36.3184 26.9554C35.163 27.8625 34.0984 28.2394 33.4376 27.6316C33.1745 27.3895 32.9133 27.1516 32.6544 26.918C32.4705 26.7521 32.2986 26.598 32.1386 26.4555C31.9142 26.6786 31.7032 26.8857 31.5095 27.0741ZM32.6124 25.9801C32.7906 26.1385 32.9596 26.2897 33.1192 26.4337C33.3762 26.6655 33.6387 26.9047 33.9066 27.1512C34.2632 27.4792 35.0141 27.1372 35.894 26.4465C36.7334 25.7875 37.6543 24.8156 38.4837 23.7626C39.3143 22.7081 40.0476 21.5795 40.5106 20.6087C40.9689 19.6476 41.1731 18.8768 40.9277 18.5848C40.859 18.5326 40.7853 18.4817 40.7063 18.4321C40.6634 18.4066 40.6208 18.3812 40.5783 18.3558C40.5698 18.351 40.5615 18.346 40.5529 18.3412C40.2443 18.1568 39.9473 17.9759 39.6608 17.7993C39.4174 17.6492 39.1783 17.5 38.9433 17.3516C38.9409 17.3604 38.9385 17.3692 38.936 17.378C38.5431 18.755 37.4735 20.3937 36.2119 21.9783C35.3897 23.0108 34.4895 24.0178 33.6446 24.9122C33.2877 25.2901 32.9402 25.6483 32.6124 25.9801Z" fill="#EE8101"/>
<path d="M50.6216 32.4368V23.1539C50.6216 22.7797 50.34 22.499 49.9625 22.499H44.5058C42.281 22.499 40.8986 23.0094 40.1801 24.4417C39.4431 25.2408 38.4098 26.1481 38.1105 27.3744L36.8861 32.4368H35.8515C35.4761 32.4368 35.1924 32.7175 35.1924 33.0938V34.9691C35.1924 35.3433 35.4761 35.626 35.8515 35.626H51.8439C52.2215 35.626 52.5031 35.3433 52.5031 34.9691V33.0938C52.5031 32.7175 52.2215 32.4368 51.8439 32.4368H50.6216ZM46.4811 32.4368H41.1204L42.3428 27.3744C42.5868 26.3432 43.2835 25.6862 44.5058 25.6862H46.4811V32.4368Z" fill="#3E3E3E"/>
<path d="M62.8522 32.907C60.7831 32.907 59.4648 31.593 59.4648 29.0629C59.4648 26.5306 60.7831 25.2166 62.8522 25.2166C64.9214 25.2166 66.2376 26.5306 66.2376 29.0629C66.2376 31.593 64.9214 32.907 62.8522 32.907ZM62.8522 22.123C57.867 22.123 55.1387 24.8424 55.1387 29.0629C55.1387 33.2812 57.867 36.0006 62.8522 36.0006C67.8375 36.0006 70.5658 33.2812 70.5658 29.0629C70.5658 24.8424 67.8375 22.123 62.8522 22.123Z" fill="#3E3E3E"/>
<path d="M86.1812 23.1539C86.1812 22.7797 85.8975 22.499 85.522 22.499H74.9863C74.6087 22.499 74.3271 22.7797 74.3271 23.1539V34.9691C74.3271 35.3433 74.6087 35.626 74.9863 35.626H77.8085C78.1839 35.626 78.4655 35.3433 78.4655 34.9691V25.6862H85.522C85.8975 25.6862 86.1812 25.4055 86.1812 25.0292V23.1539Z" fill="#3E3E3E"/>
<path d="M101.441 23.1539C101.441 22.7797 101.159 22.499 100.782 22.499H95.0434C91.2805 22.499 89.399 24.3743 88.646 27.3744L86.7646 34.9691C86.6707 35.3246 86.9523 35.626 87.4237 35.626H90.2647C90.6214 35.626 90.905 35.3433 90.9989 34.9691L92.8804 27.3744C93.1432 26.3432 93.8211 25.6862 95.0434 25.6862H97.3003V34.9691C97.3003 35.3433 97.584 35.626 97.9595 35.626H100.782C101.159 35.626 101.441 35.3433 101.441 34.9691V23.1539Z" fill="#3E3E3E"/>
<path d="M108.213 30.3744V30.5615L104.826 34.9691C104.62 35.2497 104.826 35.626 105.297 35.626H108.495C109.154 35.626 109.511 35.2497 109.719 34.9691L112.352 31.4992H114.892V34.9691C114.892 35.3433 115.174 35.626 115.552 35.626H118.374C118.749 35.626 119.033 35.3433 119.033 34.9691V23.1539C119.033 22.7797 118.749 22.499 118.374 22.499H111.695C107.46 22.499 105.485 24.4679 105.485 26.998C105.485 29.811 108.213 30.3744 108.213 30.3744ZM111.695 28.4991C110.47 28.4991 109.813 27.8421 109.813 26.998C109.813 26.154 110.47 25.4991 111.695 25.4991H114.892V28.4991H111.695Z" fill="#3E3E3E"/>
<path d="M137.095 23.1539C137.095 22.7797 136.811 22.499 136.436 22.499H133.614C133.238 22.499 132.954 22.7797 132.954 23.1539V27.5615H127.5V23.1539C127.5 22.7797 127.216 22.499 126.841 22.499H124.019C123.641 22.499 123.359 22.7797 123.359 23.1539V34.9691C123.359 35.3433 123.641 35.626 124.019 35.626H126.841C127.216 35.626 127.5 35.3433 127.5 34.9691V30.7486H132.954V34.9691C132.954 35.3433 133.238 35.626 133.614 35.626H136.436C136.811 35.626 137.095 35.3433 137.095 34.9691V23.1539Z" fill="#3E3E3E"/>
<path d="M149.002 28.1249H147.498C146.745 28.1249 146.276 27.655 145.992 26.998L144.394 23.1539C144.242 22.7797 143.923 22.499 143.454 22.499H140.631C140.16 22.499 139.916 22.7797 140.066 23.1539L141.666 26.998C142.794 29.7174 144.298 31.2185 147.404 31.2185H147.874L147.78 31.4992C147.63 31.969 147.121 32.4368 146.37 32.4368H146.18C145.804 32.4368 145.239 32.2497 144.864 32.2497H144.017C143.641 32.2497 143.358 32.5304 143.358 32.9067V34.9691C143.358 35.3433 143.641 35.626 144.017 35.626H146.37C149.473 35.626 151.073 34.0314 152.014 31.4992L155.118 23.1539C155.249 22.7797 155.024 22.499 154.553 22.499H151.824C151.355 22.499 151.017 22.7797 150.883 23.1539L149.002 28.1249Z" fill="#3E3E3E"/>
<path d="M170.867 23.1539C170.867 22.7797 170.584 22.499 170.208 22.499H158.166C157.791 22.499 157.507 22.7797 157.507 23.1539V25.0292C157.507 25.4055 157.791 25.6862 158.166 25.6862H162.117V34.9691C162.117 35.3433 162.401 35.626 162.776 35.626H165.598C165.974 35.626 166.258 35.3433 166.258 34.9691V25.6862H170.208C170.584 25.6862 170.867 25.4055 170.867 25.0292V23.1539Z" fill="#3E3E3E"/>
<path d="M180.838 32.907C178.768 32.907 177.452 31.593 177.452 29.0629C177.452 26.5306 178.768 25.2166 180.838 25.2166C182.907 25.2166 184.225 26.5306 184.225 29.0629C184.225 31.593 182.907 32.907 180.838 32.907ZM180.838 22.123C175.852 22.123 173.124 24.8424 173.124 29.0629C173.124 33.2812 175.852 36.0006 180.838 36.0006C185.825 36.0006 188.551 33.2812 188.551 29.0629C188.551 24.8424 185.825 22.123 180.838 22.123Z" fill="#3E3E3E"/>
</svg>
