<svg width="293" height="188" viewBox="0 0 293 188" fill="none" xmlns="http://www.w3.org/2000/svg">
<path d="M9.80995 163.566C9.71072 163.022 10.0707 162.501 10.614 162.402L19.4675 160.785C20.0108 160.686 20.5317 161.046 20.6309 161.589C20.7302 162.133 20.3702 162.653 19.8269 162.753L11.9571 164.19L13.3945 172.06C13.4937 172.603 13.1337 173.124 12.5904 173.223C12.0471 173.322 11.5262 172.962 11.427 172.419L9.80995 163.566ZM191.167 74.9915C183.007 125.508 148.861 155.512 111.279 169.031C92.4938 175.788 72.8307 178.437 55.0795 177.479C37.3418 176.522 21.4371 171.957 10.2251 164.209L11.3622 162.563C22.1781 170.038 37.688 174.538 55.1873 175.482C72.673 176.426 92.0692 173.815 110.602 167.149C147.653 153.821 181.173 124.323 189.193 74.6726L191.167 74.9915Z" fill="black"/>
<path d="M150.888 89.0317C150.572 88.4005 150.139 87.6023 149.576 86.6979C148.194 84.478 146.02 81.6038 142.849 78.9902C137.081 74.2367 128.106 70.4253 114.853 72.8047C116.648 71.0477 117.842 69.1275 118.532 67.113C119.605 63.9757 119.42 60.7142 118.533 57.6506C117.151 52.8748 114.03 48.4509 111.002 45.4256C135.334 47.9644 149.229 42.2988 157.087 35.6745C161.171 32.2318 163.581 28.5646 164.971 25.7461C165.546 24.5815 165.947 23.5614 166.22 22.7612C169.701 26.4064 174.566 28.7003 180.075 29.9619C186.279 31.3828 193.382 31.5152 200.464 30.7471C214.028 29.276 227.776 24.4678 235.226 18.7508C235.229 18.7552 235.232 18.7596 235.235 18.764C235.658 19.3749 236.3 20.2247 237.191 21.2068C238.973 23.1712 241.751 25.6662 245.759 27.8323C253.228 31.8687 264.862 34.7078 282.081 31.0081C281.46 31.5614 280.769 32.1892 280.026 32.8821C276.996 35.71 273.095 39.6354 269.648 44.0041C266.213 48.3567 263.165 53.2279 261.928 57.9446C260.952 61.6668 261.097 65.3519 263.103 68.566C262.017 68.277 260.682 67.9438 259.147 67.604C254.811 66.644 248.863 65.627 242.438 65.4092C229.866 64.9831 215.095 67.6147 207.302 80.2086C207.009 80.1414 206.631 80.0569 206.175 79.96C204.995 79.709 203.295 79.3738 201.208 79.035C197.036 78.3579 191.303 77.6644 185.07 77.6038C173.204 77.4884 159.175 79.6639 150.888 89.0317Z" fill="white" stroke="black" stroke-width="2"/>
</svg>
