<svg width="179" height="74" viewBox="0 0 179 74" fill="none" xmlns="http://www.w3.org/2000/svg">
<path d="M43.8881 72.0317C43.5717 71.4005 43.1388 70.6023 42.5759 69.6979C41.1943 67.478 39.0205 64.6038 35.8492 61.9902C30.0814 57.2367 21.1064 53.4253 7.85263 55.8047C9.64844 54.0477 10.8424 52.1275 11.5318 50.113C12.6054 46.9757 12.4198 43.7142 11.5331 40.6506C10.1508 35.8748 7.02999 31.4509 4.00167 28.4256C28.3341 30.9644 42.2295 25.2988 50.0872 18.6745C54.1709 15.2318 56.5809 11.5646 57.9713 8.74609C58.5459 7.58148 58.9465 6.56145 59.2197 5.76116C62.7008 9.40638 67.566 11.7003 73.0747 12.9619C79.279 14.3828 86.3824 14.5152 93.4642 13.7471C107.028 12.276 120.776 7.46782 128.226 1.75075C128.229 1.75517 128.232 1.7596 128.235 1.76404C128.658 2.37485 129.3 3.22472 130.191 4.2068C131.973 6.1712 134.751 8.66617 138.759 10.8323C146.228 14.8687 157.862 17.7078 175.081 14.0081C174.46 14.5614 173.769 15.1892 173.026 15.8821C169.996 18.71 166.095 22.6354 162.648 27.0041C159.213 31.3567 156.165 36.2279 154.928 40.9446C153.952 44.6668 154.097 48.3519 156.103 51.566C155.017 51.277 153.682 50.9438 152.147 50.604C147.811 49.644 141.863 48.627 135.438 48.4092C122.866 47.9831 108.095 50.6147 100.302 63.2086C100.009 63.1414 99.6305 63.0569 99.1749 62.96C97.9947 62.709 96.2949 62.3738 94.2076 62.035C90.0358 61.3579 84.3029 60.6644 78.0703 60.6038C66.204 60.4884 52.1748 62.6639 43.8881 72.0317Z" fill="white" stroke="black" stroke-width="2"/>
</svg>
