<svg width="161" height="82" viewBox="0 0 161 82" fill="none" xmlns="http://www.w3.org/2000/svg">
<path d="M41.6279 60.3559L41.9852 59.3962L41.0173 59.0618C19.838 51.7446 8.10084 43.5819 3.44499 35.9306C1.14089 32.1441 0.582608 28.5066 1.42524 25.1162C2.27386 21.7016 4.57459 18.4154 8.21455 15.4264C15.5102 9.43542 27.9654 4.82699 43.6892 2.92159C59.3838 1.01974 78.2336 1.82428 98.2301 6.56024C125.11 13.3758 142.26 22.1218 151.367 30.9194C155.913 35.3113 158.404 39.6663 159.164 43.7537C159.919 47.8174 158.983 51.7174 156.479 55.2817C151.427 62.4755 139.956 68.3193 123.266 70.7962C106.628 73.2652 84.9906 72.3558 59.8795 66.2432L59.5042 66.1518L59.1649 66.3365L34.3788 79.8284L41.6279 60.3559Z" fill="white" stroke="black" stroke-width="2"/>
</svg>
