<svg width="25" height="24" viewBox="0 0 25 24" fill="none" xmlns="http://www.w3.org/2000/svg">
<g id="cb wallet">
<g id="Union">
<path d="M14.4583 9.99512H10.448V14.0054H14.4583V9.99512Z" fill="#155DF7"/>
<path fill-rule="evenodd" clip-rule="evenodd" d="M4.95312 5V6H3.95312V18H4.95312V19H5.95312V20H6.95312V21H17.9531V20H18.9531V19H19.9531V18H20.9531V6H19.9531V5H18.9531V4H17.9531V3H6.95312V4H5.95312V5H4.95312ZM18.0156 8.57764H17.1598V7.72188H16.3041V6.86612H15.4483V6.01035H9.45795V6.86612H8.60219V7.72188H7.74643V8.57764H6.89066V15.4237H7.74643V16.2795H8.60219V17.1353H9.45795V17.991H15.4483V17.1353H16.3041V16.2795H17.1598V15.4237H18.0156V8.57764Z" fill="#155DF7"/>
</g>
</g>
</svg>
