<svg width="250" height="186" viewBox="0 0 250 186" fill="none" xmlns="http://www.w3.org/2000/svg">
<path d="M4 102.368C4 102.368 88.8077 77.6647 66.535 11.2203C116.563 71.1906 186.751 29.3931 215.591 0.998047C215.591 0.998047 166.762 64.0351 249 81.0721C249 81.0721 171.045 104.924 178.755 167.961C178.755 167.961 123.93 102.368 31.4126 184.998C31.4126 184.998 81.9545 123.665 4 102.368Z" fill="#E267B4" stroke="black" stroke-width="2"/>
<path d="M80.1041 136.151L64.0831 94.3132L73.0482 90.8801L89.0693 132.717L80.1041 136.151ZM92.653 131.345L76.6319 89.5078L85.5971 86.0747L103.316 113.555L104.213 113.212L89.1832 84.7015L98.4471 81.1539L114.468 122.991L105.503 126.424L87.7838 98.9437L86.8873 99.287L101.917 127.798L92.653 131.345ZM128.248 118.743C126.176 119.536 124.175 119.8 122.245 119.533C120.356 119.252 118.675 118.502 117.203 117.284C115.717 116.026 114.576 114.361 113.783 112.289C113.493 111.532 113.232 110.672 113.001 109.71C112.754 108.708 112.642 107.997 112.664 107.577L120.733 104.487C120.901 104.926 121.076 105.384 121.259 105.862C121.427 106.3 121.595 106.739 121.763 107.177C122.419 108.89 123.046 110.112 123.646 110.842C124.245 111.572 124.864 111.815 125.501 111.571C125.979 111.387 126.246 111.011 126.302 110.441C126.398 109.856 126.286 109.146 125.965 108.309C125.401 106.835 124.456 105.62 123.131 104.666C121.806 103.711 119.936 102.645 117.521 101.468C115.451 100.479 113.737 99.582 112.378 98.7774C111.019 97.9729 109.724 96.9157 108.491 95.6058C107.243 94.2562 106.261 92.645 105.544 90.7722C104.674 88.5011 104.342 86.321 104.547 84.2322C104.737 82.1035 105.446 80.2558 106.673 78.6892C107.886 77.0828 109.508 75.8904 111.54 75.1123C113.532 74.3494 115.508 74.1409 117.468 74.4869C119.413 74.793 121.152 75.6349 122.684 77.0125C124.242 78.3351 125.425 80.0523 126.233 82.164C126.493 82.8414 126.7 83.5616 126.855 84.3246C127.01 85.0876 127.1 85.7386 127.123 86.2778L119.055 89.3676C118.887 88.9293 118.719 88.491 118.551 88.0527C118.368 87.5746 118.193 87.1163 118.025 86.678C117.384 85.0045 116.744 83.8105 116.105 83.0958C115.49 82.326 114.884 82.0555 114.286 82.2844C113.808 82.4675 113.521 82.8515 113.425 83.4365C113.369 84.0062 113.502 84.7094 113.822 85.5461C114.402 87.0602 115.327 88.2823 116.597 89.2124C117.906 90.1271 119.769 91.1729 122.184 92.3497C124.309 93.3637 126.038 94.3005 127.372 95.1602C128.746 96.0046 130.057 97.1017 131.305 98.4513C132.593 99.7857 133.611 101.429 134.358 103.382C135.198 105.573 135.515 107.713 135.309 109.802C135.089 111.851 134.365 113.659 133.137 115.226C131.91 116.792 130.28 117.965 128.248 118.743ZM145.536 111.094L132.49 77.0269L125.916 79.5445L122.94 71.7747L145.054 63.3064L148.03 71.0762L141.455 73.5938L154.501 107.661L145.536 111.094ZM159.616 105.703L148.377 62.0342L162.422 56.6557L183.224 96.6621L173.96 100.21L170.484 92.5632L168.016 86.655L159.052 67.5408L158.155 67.8841L164.251 88.0969L166.36 94.1424L168.88 102.155L159.616 105.703ZM165.71 95.4877L163.034 87.6035L168.592 85.475L171.866 93.1304L165.71 95.4877Z" fill="black"/>
</svg>
