<svg width="180" height="133" viewBox="0 0 180 133" fill="none" xmlns="http://www.w3.org/2000/svg">
<path d="M2 23.8134C28.9039 27.7933 56.3757 29.1777 83.4839 30.5727C105.293 31.695 135.48 33.3277 158.395 31.875C167.17 31.3186 170.304 31.7945 175.324 26.6659C186.578 15.1669 154.73 7.82815 149.341 6.69805C115.473 -0.403227 74.4849 -1.04647 43.4241 16.0619C33.2429 21.6697 17.2186 32.3289 15.8287 45.3936C14.6744 56.2445 34.626 60.2911 41.3777 62.3229C75.4359 72.5719 113.999 76.8668 149.341 71.3147C154.638 70.4824 168.166 68.7881 170.425 62.0128C172.423 56.0176 159.167 53.0984 156.286 52.463C124.857 45.53 86.4125 48.5557 56.1986 58.9742C44.9235 62.8622 25.227 69.6334 19.3014 81.4846C14.751 90.5854 32.0506 93.903 36.9748 95.0653C64.968 101.672 96.2642 102.708 124.784 99.2201C128.282 98.7923 136.413 98.2572 139.357 95.3133C142.385 92.2851 131.352 91.8155 127.078 91.5306C109.471 90.3568 83.818 92.6599 70.0893 105.049C58.3665 115.628 81.7582 114.609 86.9566 113.483C95.2934 111.677 93.7704 107.468 85.9644 107.716C78.4635 107.954 63.0935 114.261 74.0581 123.033C80.3893 128.098 94.384 133.009 102.584 130.474C108.082 128.775 94.8995 123.613 93.5299 123.157" stroke="black" stroke-width="3" stroke-linecap="round"/>
</svg>
