<svg width="258" height="114" viewBox="0 0 258 114" fill="none" xmlns="http://www.w3.org/2000/svg">
<path d="M1 113V1H214.921L256 56.5659L214.921 113H1Z" fill="white" stroke="black" stroke-width="2"/>
<path d="M28.36 80V43.52H21.32V35.2H45V43.52H37.96V80H28.36ZM47.2325 80V35.2H65.4725V43.52H56.8325V52.8H62.9125V61.12H56.8325V71.68H65.4725V80H47.2325ZM68.3575 80V35.2H77.9575V71.68H86.5975V80H68.3575ZM88.8575 80V35.2H107.098V43.52H98.4575V52.8H104.538V61.12H98.4575V71.68H107.098V80H88.8575ZM121.198 80.96C118.51 80.96 116.227 80.0853 114.35 78.336C112.515 76.544 111.107 73.8987 110.126 70.4C109.187 66.9013 108.718 62.6347 108.718 57.6C108.718 52.5653 109.187 48.2987 110.126 44.8C111.107 41.3013 112.515 38.6773 114.35 36.928C116.227 35.136 118.51 34.24 121.198 34.24C123.288 34.24 125.166 34.8373 126.83 36.032C128.494 37.184 129.774 38.8267 130.67 40.96C131.608 43.0933 132.078 45.5467 132.078 48.32C132.078 49.1307 132.014 49.984 131.886 50.88C131.758 51.776 131.608 52.5227 131.438 53.12H122.798C122.798 52.7787 122.798 52.4373 122.798 52.096C122.798 51.7547 122.798 51.456 122.798 51.2C122.798 47.8293 122.67 45.44 122.414 44.032C122.158 42.624 121.71 41.92 121.07 41.92C120.515 41.92 120.067 42.432 119.726 43.456C119.427 44.4373 119.214 46.0373 119.086 48.256C119 50.4747 118.958 53.5893 118.958 57.6C118.958 61.6107 119 64.7253 119.086 66.944C119.214 69.1627 119.427 70.784 119.726 71.808C120.067 72.7893 120.515 73.28 121.07 73.28C121.71 73.28 122.158 72.6187 122.414 71.296C122.67 69.9307 122.798 67.6053 122.798 64.32C122.798 64.1493 122.798 63.9787 122.798 63.808C122.798 63.6373 122.798 63.4667 122.798 63.296L123.374 64.32H116.654V57.92H131.118C131.374 58.688 131.587 59.7547 131.758 61.12C131.971 62.4427 132.078 63.7227 132.078 64.96C132.078 68.16 131.608 70.976 130.67 73.408C129.774 75.7973 128.494 77.6533 126.83 78.976C125.166 80.2987 123.288 80.96 121.198 80.96ZM135.295 80V35.2H144.895C147.54 35.2 149.823 35.648 151.743 36.544C153.663 37.44 155.135 38.7413 156.159 40.448C157.183 42.112 157.695 44.096 157.695 46.4C157.695 49.9413 156.586 52.6507 154.367 54.528C152.148 56.3627 148.991 57.28 144.895 57.28H143.935V53.12H145.215C146.154 53.12 146.858 52.672 147.327 51.776C147.839 50.8373 148.095 49.472 148.095 47.68C148.095 45.888 147.839 44.544 147.327 43.648C146.858 42.7093 146.154 42.24 145.215 42.24H144.895V80H135.295ZM150.975 80C149.78 80 148.948 79.68 148.479 79.04C148.01 78.3573 147.775 77.184 147.775 75.52V65.6C147.775 64.5333 147.54 63.744 147.071 63.232C146.644 62.6773 145.919 62.4 144.895 62.4H143.935V58.24H147.455C150.783 58.24 153.258 59.008 154.879 60.544C156.543 62.08 157.375 64.2987 157.375 67.2V76.16C157.375 77.0133 157.524 77.7387 157.823 78.336C158.122 78.8907 158.506 79.232 158.975 79.36V80H150.975ZM159 80L164.12 35.2H179.16L184.28 80H174.36L173.848 71.616L173.656 65.216L172.12 44.16H171.16L169.624 65.216L169.432 71.616L168.92 80H159ZM168.344 72.64L168.664 64.32H174.616L174.936 72.64H168.344ZM186.17 80V35.2H196.09L199.93 55.04H200.57L204.41 35.2H214.33V80H204.09L207.93 48H206.97L201.85 68.48H198.65L193.53 48H192.57L196.41 80H186.17Z" fill="black"/>
</svg>
