<svg width="304" height="144" viewBox="0 0 304 144" fill="none" xmlns="http://www.w3.org/2000/svg">
<path d="M152 1.48738L169.522 20.8263L170.042 21.3993L170.727 21.0411L200.584 5.43045L203.823 25.929L203.996 27.0195L205.064 26.7404L243.358 16.7366L232.761 35.9165L231.858 37.551L233.719 37.3967L275.706 33.9151L253.034 50.0705L250.782 51.6749L253.539 51.8821L294.629 54.9711L262.24 66.7176L259.17 67.831L262.337 68.6275L298.495 77.7211L259.408 83.9131L256.356 84.3966L259.113 85.7929L286.978 99.9042L244.896 99.7457L242.561 99.7369L244.166 101.433L261.056 119.286L220.318 112.489L218.9 112.252L219.171 113.664L223.026 133.758L188.38 120.774L187.548 120.462L187.14 121.251L176.668 141.515L152.594 123.753L152 123.315L151.406 123.753L127.332 141.515L116.86 121.251L116.452 120.462L115.62 120.774L80.9739 133.758L84.829 113.664L85.0998 112.252L83.6824 112.489L42.9436 119.286L59.8344 101.433L61.4391 99.7369L59.1042 99.7457L17.022 99.9042L44.8871 85.7929L47.6443 84.3966L44.5918 83.9131L5.50467 77.7211L41.6629 68.6275L44.8299 67.831L41.7599 66.7176L9.37097 54.9711L50.4608 51.8821L53.2175 51.6749L50.9661 50.0705L28.2944 33.9151L70.2814 37.3967L72.1424 37.551L71.2394 35.9165L60.6423 16.7366L98.9361 26.7404L100.004 27.0195L100.177 25.929L103.416 5.43045L133.273 21.0411L133.958 21.3993L134.478 20.8263L152 1.48738Z" fill="#FFC017" stroke="black" stroke-width="2"/>
<path d="M77.92 96.998V52.198H87.84L91.68 72.038H92.32L96.16 52.198H106.08V96.998H95.84L99.68 64.998H98.72L93.6 85.478H90.4L85.28 64.998H84.32L88.16 96.998H77.92ZM109.92 96.998V52.198H128.16V60.518H119.52V69.798H125.6V78.118H119.52V88.678H128.16V96.998H109.92ZM131.045 96.998V52.198H140.645C143.589 52.198 146.064 53.0514 148.069 54.758C150.074 56.422 151.568 58.918 152.549 62.246C153.573 65.574 154.085 69.6914 154.085 74.598C154.085 79.5047 153.573 83.622 152.549 86.95C151.568 90.278 150.074 92.7954 148.069 94.502C146.064 96.166 143.589 96.998 140.645 96.998H131.045ZM140.965 89.318C141.733 89.318 142.309 88.8487 142.693 87.91C143.12 86.9714 143.418 85.4567 143.589 83.366C143.76 81.2327 143.845 78.31 143.845 74.598C143.845 70.886 143.76 67.9847 143.589 65.894C143.418 63.7607 143.12 62.2247 142.693 61.286C142.309 60.3474 141.733 59.878 140.965 59.878H140.645V89.318H140.965ZM157.295 96.998V52.198H166.895V96.998H157.295ZM181.933 97.958C179.671 97.958 177.687 97.318 175.981 96.038C174.317 94.7154 173.015 92.8594 172.077 90.47C171.181 88.038 170.733 85.2007 170.733 81.958V52.198H180.333V84.198C180.333 86.374 180.461 87.9314 180.717 88.87C180.973 89.8087 181.378 90.278 181.933 90.278C182.487 90.278 182.893 89.8087 183.149 88.87C183.405 87.9314 183.533 86.374 183.533 84.198V52.198H193.133V81.958C193.133 86.8647 192.109 90.7687 190.061 93.67C188.055 96.5287 185.346 97.958 181.933 97.958ZM196.983 96.998V52.198H206.903L210.743 72.038H211.383L215.223 52.198H225.143V96.998H214.903L218.743 64.998H217.783L212.663 85.478H209.463L204.343 64.998H203.383L207.223 96.998H196.983Z" fill="black"/>
</svg>
