<svg width="258" height="155" viewBox="0 0 258 155" fill="none" xmlns="http://www.w3.org/2000/svg">
<path d="M1 152.998V1.99805L128.2 36.0803L256.846 1.99805L256.846 152.998L128.2 119.263L1 152.998Z" fill="#1BF1FF" stroke="black" stroke-width="2"/>
<path d="M34.3162 98.8242V54.0242H43.9162C46.8602 54.0242 49.3349 54.8775 51.3402 56.5842C53.3456 58.2482 54.8389 60.7442 55.8202 64.0722C56.8442 67.4002 57.3562 71.5176 57.3562 76.4242C57.3562 81.3309 56.8442 85.4482 55.8202 88.7762C54.8389 92.1042 53.3456 94.6216 51.3402 96.3282C49.3349 97.9922 46.8602 98.8242 43.9162 98.8242H34.3162ZM44.2362 91.1442C45.0042 91.1442 45.5802 90.6749 45.9642 89.7362C46.3909 88.7976 46.6896 87.2829 46.8602 85.1922C47.0309 83.0589 47.1162 80.1362 47.1162 76.4242C47.1162 72.7122 47.0309 69.8109 46.8602 67.7202C46.6896 65.5869 46.3909 64.0509 45.9642 63.1122C45.5802 62.1735 45.0042 61.7042 44.2362 61.7042H43.9162V91.1442H44.2362ZM60.5662 98.8242V54.0242H78.8062V62.3442H70.1662V71.6242H76.2462V79.9442H70.1662V90.5042H78.8062V98.8242H60.5662ZM79.4512 98.8242L86.4912 73.8642L80.0912 54.0242H90.3312L92.5712 67.7842H93.5312V54.0242H103.451L96.7312 75.4642L104.091 98.8242H93.8512L90.3312 82.5042H89.3712V98.8242H79.4512ZM111.131 98.8242V62.3442H104.091V54.0242H127.771V62.3442H120.731V98.8242H111.131ZM140.274 99.7842C137.671 99.7842 135.452 98.8882 133.618 97.0962C131.826 95.2616 130.46 92.6162 129.522 89.1602C128.583 85.6616 128.114 81.4162 128.114 76.4242C128.114 71.4322 128.583 67.2082 129.522 63.7522C130.46 60.2535 131.826 57.6082 133.618 55.8162C135.452 53.9815 137.671 53.0642 140.274 53.0642C142.876 53.0642 145.074 53.9815 146.866 55.8162C148.7 57.6082 150.087 60.2535 151.026 63.7522C151.964 67.2082 152.434 71.4322 152.434 76.4242C152.434 81.4162 151.964 85.6616 151.026 89.1602C150.087 92.6162 148.7 95.2616 146.866 97.0962C145.074 98.8882 142.876 99.7842 140.274 99.7842ZM140.274 92.1042C140.999 92.1042 141.49 90.9309 141.746 88.5842C142.044 86.2376 142.194 82.1842 142.194 76.4242C142.194 70.6642 142.044 66.6109 141.746 64.2642C141.49 61.9176 140.999 60.7442 140.274 60.7442C139.548 60.7442 139.036 61.9176 138.738 64.2642C138.482 66.6109 138.354 70.6642 138.354 76.4242C138.354 82.1842 138.482 86.2376 138.738 88.5842C139.036 90.9309 139.548 92.1042 140.274 92.1042ZM167.149 99.7842C164.546 99.7842 162.327 98.8882 160.493 97.0962C158.701 95.2616 157.335 92.6162 156.397 89.1602C155.458 85.6616 154.989 81.4162 154.989 76.4242C154.989 71.4322 155.458 67.2082 156.397 63.7522C157.335 60.2535 158.701 57.6082 160.493 55.8162C162.327 53.9815 164.546 53.0642 167.149 53.0642C169.751 53.0642 171.949 53.9815 173.741 55.8162C175.575 57.6082 176.962 60.2535 177.901 63.7522C178.839 67.2082 179.309 71.4322 179.309 76.4242C179.309 81.4162 178.839 85.6616 177.901 89.1602C176.962 92.6162 175.575 95.2616 173.741 97.0962C171.949 98.8882 169.751 99.7842 167.149 99.7842ZM167.149 92.1042C167.874 92.1042 168.365 90.9309 168.621 88.5842C168.919 86.2376 169.069 82.1842 169.069 76.4242C169.069 70.6642 168.919 66.6109 168.621 64.2642C168.365 61.9176 167.874 60.7442 167.149 60.7442C166.423 60.7442 165.911 61.9176 165.613 64.2642C165.357 66.6109 165.229 70.6642 165.229 76.4242C165.229 82.1842 165.357 86.2376 165.613 88.5842C165.911 90.9309 166.423 92.1042 167.149 92.1042ZM182.504 98.8242V54.0242H192.104V90.5042H200.744V98.8242H182.504ZM212.939 99.7842C210.72 99.7842 208.757 99.3149 207.051 98.3762C205.387 97.4376 204.085 96.1362 203.147 94.4722C202.208 92.7656 201.739 90.8029 201.739 88.5842C201.739 87.7736 201.803 86.8776 201.931 85.8962C202.059 84.8722 202.208 84.1682 202.379 83.7842H211.019C211.019 84.2536 211.019 84.7442 211.019 85.2562C211.019 85.7256 211.019 86.1949 211.019 86.6642C211.019 88.4989 211.168 89.8642 211.467 90.7602C211.765 91.6562 212.256 92.1042 212.939 92.1042C213.451 92.1042 213.835 91.8482 214.091 91.3362C214.389 90.8242 214.539 90.1202 214.539 89.2242C214.539 87.6456 214.091 86.1736 213.195 84.8082C212.299 83.4429 210.933 81.7789 209.099 79.8162C207.52 78.1522 206.24 76.7016 205.259 75.4642C204.277 74.2269 203.445 72.7762 202.763 71.1122C202.08 69.4056 201.739 67.5496 201.739 65.5442C201.739 63.1122 202.208 60.9576 203.147 59.0802C204.085 57.1602 205.408 55.6882 207.115 54.6642C208.821 53.5975 210.763 53.0642 212.939 53.0642C215.072 53.0642 216.992 53.5762 218.699 54.6002C220.405 55.5815 221.728 56.9896 222.667 58.8242C223.648 60.6162 224.139 62.6429 224.139 64.9042C224.139 65.6296 224.075 66.3762 223.947 67.1442C223.819 67.9122 223.669 68.5522 223.499 69.0642H214.859C214.859 68.5949 214.859 68.1256 214.859 67.6562C214.859 67.1442 214.859 66.6536 214.859 66.1842C214.859 64.3922 214.688 63.0482 214.347 62.1522C214.048 61.2136 213.579 60.7442 212.939 60.7442C212.427 60.7442 212.021 61.0002 211.723 61.5122C211.467 62.0242 211.339 62.7282 211.339 63.6242C211.339 65.2456 211.765 66.7176 212.619 68.0402C213.515 69.3629 214.88 71.0056 216.715 72.9682C218.336 74.6749 219.616 76.1682 220.555 77.4482C221.536 78.7282 222.368 80.2216 223.051 81.9282C223.776 83.6349 224.139 85.5336 224.139 87.6242C224.139 89.9709 223.669 92.0829 222.731 93.9602C221.792 95.7949 220.469 97.2242 218.763 98.2482C217.056 99.2722 215.115 99.7842 212.939 99.7842Z" fill="black"/>
</svg>
