<svg width="279" height="144" viewBox="0 0 279 144" fill="none" xmlns="http://www.w3.org/2000/svg">
<path d="M0 143.998V-0.00195312H115.524C115.524 30.6363 168.556 30.6363 168.556 -0.00195312H278.5V143.998H188.952C188.952 96.498 108.181 98.6534 107.365 143.998H0Z" fill="black"/>
<path d="M29.36 93.998V57.518H22.32V49.198H46V57.518H38.96V93.998H29.36ZM49.5125 93.998L47.5925 49.198H57.5125L56.2325 85.038H57.1925L60.7125 61.038H67.1125L70.6325 85.038H71.5925L70.3125 49.198H80.2325L78.3125 93.998H66.7925L64.2325 75.118H63.5925L61.0325 93.998H49.5125ZM83.42 93.998V49.198H93.02V93.998H83.42ZM102.298 93.998V57.518H95.2575V49.198H118.938V57.518H111.898V93.998H102.298ZM127.235 93.998V57.518H120.195V49.198H143.875V57.518H136.835V93.998H127.235ZM146.108 93.998V49.198H164.348V57.518H155.708V66.798H161.788V75.118H155.708V85.678H164.348V93.998H146.108ZM167.233 93.998V49.198H176.833C179.478 49.198 181.761 49.646 183.681 50.542C185.601 51.438 187.073 52.7394 188.097 54.446C189.121 56.11 189.633 58.094 189.633 60.398C189.633 63.9394 188.523 66.6487 186.305 68.526C184.086 70.3607 180.929 71.278 176.833 71.278H175.873V67.118H177.153C178.091 67.118 178.795 66.67 179.265 65.774C179.777 64.8354 180.033 63.47 180.033 61.678C180.033 59.886 179.777 58.542 179.265 57.646C178.795 56.7074 178.091 56.238 177.153 56.238H176.833V93.998H167.233ZM182.913 93.998C181.718 93.998 180.886 93.678 180.417 93.038C179.947 92.3554 179.713 91.182 179.713 89.518V79.598C179.713 78.5314 179.478 77.742 179.009 77.23C178.582 76.6754 177.857 76.398 176.833 76.398H175.873V72.238H179.393C182.721 72.238 185.195 73.006 186.817 74.542C188.481 76.078 189.313 78.2967 189.313 81.198V90.158C189.313 91.0114 189.462 91.7367 189.761 92.334C190.059 92.8887 190.443 93.23 190.913 93.358V93.998H182.913ZM202.178 106.798V42.798H215.938V46.958H210.818V102.638H215.938V106.798H202.178ZM215.617 93.998L222.658 69.038L216.258 49.198H226.498L228.738 62.958H229.698V49.198H239.618L232.898 70.638L240.258 93.998H230.018L226.498 77.678H225.538V93.998H215.617ZM239.938 106.798V102.638H245.058V46.958H239.938V42.798H253.698V106.798H239.938Z" fill="white"/>
</svg>
