<svg width="42" height="42" viewBox="0 0 42 42" fill="none" xmlns="http://www.w3.org/2000/svg">
<g id="free-icon-hand-shake-493808" clip-path="url(#clip0_5037_1397)">
<g id="Group">
<g id="Group_2">
<path id="Vector" d="M33.1626 25.8742C32.3383 24.1557 29.3895 21.7704 26.5406 19.4656C24.9516 18.1811 23.4501 16.9666 22.4928 16.0094C22.2531 15.7679 21.8943 15.6909 21.5776 15.8047C20.9879 16.0182 20.6238 16.1827 20.3369 16.3104C19.8994 16.5064 19.7524 16.5729 19.1626 16.6324C18.9018 16.6586 18.6674 16.7986 18.5221 17.0156C17.2849 18.8653 16.0038 18.7078 15.1481 18.4209C14.8751 18.3299 14.8261 18.2126 14.7999 18.1006C14.6161 17.3324 15.5384 15.5439 16.7336 14.3486C19.5774 11.5031 21.0439 10.7908 24.1413 12.1751C27.6553 13.7466 31.1763 14.9769 31.2114 14.9891C31.6717 15.1483 32.1669 14.9068 32.3261 14.4501C32.4836 13.9933 32.2438 13.4946 31.7871 13.3354C31.752 13.3231 28.3011 12.1173 24.8571 10.5756C20.8444 8.7818 18.6428 9.96305 15.498 13.1096C14.301 14.3066 12.6753 16.7286 13.0953 18.5049C13.2755 19.2609 13.8075 19.8209 14.5985 20.0816C16.5813 20.7361 18.3907 20.1096 19.7382 18.3211C20.2947 18.2354 20.5975 18.1094 21.0525 17.9047C21.2169 17.8312 21.4095 17.7454 21.665 17.6422C22.666 18.5819 24.017 19.6756 25.4397 20.8254C28.0122 22.9061 30.9295 25.2652 31.5858 26.6302C31.9095 27.3039 31.5612 27.7432 31.325 27.9444C30.9785 28.2419 30.5043 28.3364 30.247 28.1561C29.9635 27.9618 29.5943 27.9496 29.302 28.1246C29.008 28.2996 28.8435 28.6303 28.8803 28.9699C28.9398 29.5264 28.4305 29.8449 28.21 29.9551C27.65 30.2386 27.0655 30.1897 26.8467 29.9866C26.6017 29.7592 26.25 29.6926 25.9385 29.8081C25.627 29.9254 25.41 30.2124 25.3785 30.5448C25.326 31.1188 24.9007 31.6701 24.3459 31.8853C24.0782 31.9868 23.6897 32.0481 23.3415 31.7295C23.1245 31.5336 22.8234 31.4583 22.5417 31.5265C22.2565 31.5965 22.0272 31.803 21.9275 32.0778C21.8943 32.1653 21.819 32.3753 21 32.3753C20.4172 32.3753 19.3689 31.9815 18.8562 31.642C18.242 31.2378 14.3902 28.3643 11.0635 25.5783C10.5963 25.1845 9.78777 24.341 9.07377 23.5955C8.44024 22.934 7.86102 22.3338 7.56349 22.0818C7.19074 21.7668 6.63949 21.814 6.32974 22.185C6.01827 22.5543 6.06371 23.1073 6.43302 23.4188C6.70429 23.6481 7.2293 24.2028 7.80852 24.8065C8.58905 25.622 9.39574 26.4655 9.93829 26.9205C13.1968 29.6488 17.1133 32.5941 17.8938 33.1068C18.5378 33.5303 19.9255 34.1253 21 34.1253C21.8628 34.1253 22.5261 33.9275 22.9863 33.5408C23.6022 33.7806 24.3023 33.7823 24.976 33.5198C25.7723 33.2118 26.4267 32.5905 26.7978 31.8381C27.4872 31.9851 28.2765 31.8818 28.994 31.5214C29.6958 31.1679 30.2032 30.6271 30.4552 29.9953C31.1517 30.0321 31.8692 29.7853 32.4624 29.2761C33.4671 28.4169 33.7435 27.0799 33.1626 25.8742Z" fill="black"/>
</g>
</g>
<g id="Group_3">
<g id="Group_4">
<path id="Vector_2" d="M17.5 11.375H9.62503C9.14203 11.375 8.75 11.767 8.75 12.25C8.75 12.733 9.14203 13.1251 9.62503 13.1251H17.5C17.983 13.1251 18.3751 12.733 18.3751 12.25C18.3751 11.767 17.983 11.375 17.5 11.375Z" fill="black"/>
</g>
</g>
<g id="Group_5">
<g id="Group_6">
<path id="Vector_3" d="M35.7261 24.0114C35.4549 23.6106 34.9124 23.5004 34.5117 23.7734L31.9532 25.4919C31.5525 25.7613 31.4457 26.3056 31.7152 26.7063C31.885 26.9566 32.1615 27.0931 32.4433 27.0931C32.6095 27.0931 32.7793 27.0459 32.9298 26.9444L35.4883 25.2259C35.8889 24.9564 35.9956 24.4122 35.7261 24.0114Z" fill="black"/>
</g>
</g>
<g id="Group_7">
<g id="Group_8">
<path id="Vector_4" d="M30.2949 28.1864C29.6684 27.6929 26.8667 24.8246 25.1342 23.0186C24.7999 22.6686 24.2452 22.6564 23.8969 22.9924C23.5469 23.3267 23.5363 23.8814 23.8706 24.2297C24.3204 24.6986 28.2876 28.8339 29.2099 29.5619C29.3691 29.6879 29.5616 29.7492 29.7506 29.7492C30.0079 29.7492 30.2651 29.6337 30.4401 29.4149C30.7394 29.0369 30.6747 28.4856 30.2949 28.1864Z" fill="black"/>
</g>
</g>
<g id="Group_9">
<g id="Group_10">
<path id="Vector_5" d="M26.7973 29.9419C25.749 29.1037 23.1153 26.3054 22.5203 25.6579C22.1913 25.3009 21.64 25.2799 21.283 25.6054C20.9277 25.9327 20.9033 26.4874 21.2305 26.8427C21.262 26.8759 24.405 30.2692 25.7035 31.3087C25.8645 31.4365 26.0588 31.4995 26.2495 31.4995C26.505 31.4995 26.7605 31.3857 26.9337 31.1722C27.2349 30.7942 27.1736 30.2429 26.7973 29.9419Z" fill="black"/>
</g>
</g>
<g id="Group_11">
<g id="Group_12">
<path id="Vector_6" d="M23.3145 31.7044C22.0667 30.6527 19.5135 27.9349 19.0147 27.4011C18.684 27.0477 18.1292 27.0284 17.7774 27.3591C17.424 27.6899 17.4064 28.2429 17.7354 28.5964C18.453 29.3646 20.8959 31.9547 22.1857 33.0432C22.3502 33.1814 22.5497 33.2496 22.7492 33.2496C22.9976 33.2496 23.2462 33.1429 23.4195 32.9382C23.7309 32.5671 23.6837 32.0159 23.3145 31.7044Z" fill="black"/>
</g>
</g>
<g id="Group_13">
<g id="Group_14">
<path id="Vector_7" d="M10.227 9.86422C8.72722 8.44319 2.73 7.98291 0.927527 7.87619C0.679055 7.86397 0.449777 7.94616 0.274805 8.11244C0.09975 8.27691 0 8.50791 0 8.74941V24.4994C0 24.9824 0.392027 25.3744 0.875027 25.3744H6.12503C6.50303 25.3744 6.83903 25.1312 6.95625 24.7707C7.08397 24.3787 10.0993 15.1247 10.4965 10.5747C10.5193 10.3087 10.4212 10.0462 10.227 9.86422ZM5.48625 23.6245H1.74997V9.68744C4.56225 9.90966 7.59675 10.3927 8.69925 10.9282C8.23553 14.7607 6.13725 21.5699 5.48625 23.6245Z" fill="black"/>
</g>
</g>
<g id="Group_15">
<g id="Group_16">
<path id="Vector_8" d="M41.1251 9.625C34.2546 9.625 30.443 11.3837 30.2838 11.4572C30.0564 11.564 29.8865 11.7617 29.8166 12.0015C29.7466 12.2413 29.7815 12.4986 29.9128 12.712C30.9943 14.4533 34.3805 24.1238 35.0315 26.4828C35.1365 26.8625 35.4813 27.125 35.8751 27.125H41.1251C41.6081 27.125 42.0001 26.7329 42.0001 26.2499V10.4999C42.0001 10.0152 41.6081 9.625 41.1251 9.625ZM40.2501 25.375H36.5296C35.7001 22.673 33.2501 15.6275 31.8834 12.7155C33.2186 12.2623 36.0869 11.4835 40.2501 11.3856V25.375Z" fill="black"/>
</g>
</g>
</g>
<defs>
<clipPath id="clip0_5037_1397">
<rect width="42" height="42" fill="white"/>
</clipPath>
</defs>
</svg>
