<svg width="40" height="40" viewBox="0 0 40 40" fill="none" xmlns="http://www.w3.org/2000/svg">
<g clip-path="url(#clip0_72_2858)">
<path d="M20 0C8.735 0 0 8.255 0 19.4C0 25.23 2.39 30.27 6.28 33.75C6.605 34.04 6.805 34.45 6.815 34.89L6.925 38.45C6.93301 38.7119 7.00524 38.9679 7.13533 39.1954C7.26543 39.4229 7.44941 39.6149 7.67111 39.7547C7.89281 39.8944 8.14544 39.9775 8.40679 39.9968C8.66815 40.016 8.93023 39.9708 9.17 39.865L13.14 38.115C13.475 37.965 13.855 37.94 14.21 38.035C16.035 38.535 17.975 38.805 20 38.805C31.265 38.805 40 30.55 40 19.405C40 8.26 31.265 0 20 0Z" fill="url(#paint0_radial_72_2858)"/>
<path d="M7.9899 25.075L13.8649 15.755C14.0859 15.4041 14.3773 15.1028 14.7206 14.8702C15.0639 14.6376 15.4517 14.4787 15.8595 14.4035C16.2673 14.3284 16.6863 14.3386 17.09 14.4335C17.4937 14.5284 17.8733 14.706 18.2049 14.955L22.8799 18.46C23.0886 18.6162 23.3425 18.7003 23.6032 18.6994C23.8639 18.6985 24.1173 18.6127 24.3249 18.455L30.6349 13.665C31.4749 13.025 32.5749 14.035 32.0149 14.93L26.1349 24.245C25.9139 24.5959 25.6225 24.8971 25.2792 25.1298C24.9359 25.3624 24.5481 25.5213 24.1403 25.5965C23.7325 25.6716 23.3135 25.6614 22.9098 25.5665C22.5061 25.4716 22.1265 25.294 21.7949 25.045L17.1199 21.54C16.9112 21.3837 16.6573 21.2997 16.3966 21.3006C16.1358 21.3015 15.8825 21.3873 15.6749 21.545L9.3649 26.335C8.5249 26.975 7.4249 25.97 7.9899 25.075Z" fill="white"/>
</g>
<defs>
<radialGradient id="paint0_radial_72_2858" cx="0" cy="0" r="1" gradientUnits="userSpaceOnUse" gradientTransform="translate(6.7 40) scale(44 44)">
<stop stop-color="#0099FF"/>
<stop offset="0.6" stop-color="#A033FF"/>
<stop offset="0.9" stop-color="#FF5280"/>
<stop offset="1" stop-color="#FF7061"/>
</radialGradient>
<clipPath id="clip0_72_2858">
<rect width="40" height="40" fill="white"/>
</clipPath>
</defs>
</svg>
