<svg width="41" height="40" viewBox="0 0 41 40" fill="none" xmlns="http://www.w3.org/2000/svg">
<rect x="0.822998" width="39.9167" height="40" rx="19.9583" fill="#7C509A"/>
<path d="M27.0223 9.54591C23.2187 8.81803 19.2689 8.81803 15.4653 9.54591C13.7829 9.90986 11.6617 11.9479 11.296 13.5493C10.6377 16.6792 10.6377 19.8819 11.296 23.0118C11.7349 24.6131 13.8561 26.6512 15.4653 27.0152C15.5384 27.0152 15.6116 27.0879 15.6116 27.1607V31.7464C15.6116 31.9648 15.9042 32.1103 16.0505 31.892L18.2448 29.6355C18.2448 29.6355 20.0003 27.8158 20.2929 27.5247C20.2929 27.5247 20.3661 27.4519 20.4392 27.4519C22.6336 27.5247 24.9011 27.3063 27.0955 26.9424C28.7778 26.5784 30.899 24.5403 31.2648 22.939C31.9231 19.8091 31.9231 16.6064 31.2648 13.4765C30.8259 11.9479 28.7047 9.90986 27.0223 9.54591ZM27.0955 23.2302C26.7297 23.958 26.2909 24.5403 25.5594 24.9043C25.34 24.9771 25.1205 25.0499 24.9011 25.1227C24.6085 25.0499 24.3891 24.9771 24.1696 24.9043C21.829 23.958 19.6346 22.6478 17.8791 20.7553C16.9282 19.6635 16.1236 18.4261 15.4653 17.1159C15.1727 16.4608 14.8801 15.8785 14.6607 15.2234C14.4412 14.6411 14.807 14.0588 15.1727 13.6221C15.5384 13.1853 15.9773 12.8942 16.4893 12.6758C16.8551 12.4575 17.2208 12.603 17.5134 12.8942C18.0985 13.6221 18.6837 14.35 19.1226 15.1506C19.4152 15.6601 19.342 16.2425 18.83 16.6064C18.6837 16.6792 18.6105 16.752 18.4643 16.8976C18.3911 16.9703 18.2448 17.0431 18.1717 17.1887C18.0254 17.4071 18.0254 17.6254 18.0985 17.8438C18.6837 19.5179 19.7809 20.8281 21.4632 21.556C21.7558 21.7016 21.9753 21.7744 22.341 21.7744C22.853 21.7016 23.0724 21.1193 23.4382 20.8281C23.8039 20.537 24.2428 20.537 24.6816 20.7553C25.0474 20.9737 25.4131 21.2649 25.852 21.556C26.2177 21.8472 26.5834 22.0655 26.9492 22.3567C27.1686 22.5023 27.2417 22.8662 27.0955 23.2302ZM24.0233 17.771C23.877 17.771 23.9502 17.771 24.0233 17.771C23.7308 17.771 23.6576 17.6254 23.5845 17.4071C23.5845 17.2615 23.5845 17.0431 23.5113 16.8976C23.4382 16.6064 23.2919 16.3152 22.9993 16.0969C22.853 16.0241 22.7067 15.9513 22.5604 15.8785C22.341 15.8057 22.1947 15.8057 21.9753 15.8057C21.7558 15.7329 21.6827 15.5874 21.6827 15.369C21.6827 15.2234 21.9021 15.0778 22.0484 15.0778C23.2187 15.1506 24.0965 15.8057 24.2428 17.1887C24.2428 17.2615 24.2428 17.4071 24.2428 17.4799C24.2428 17.6254 24.1696 17.771 24.0233 17.771ZM23.2919 14.5683C22.9261 14.4227 22.5604 14.2772 22.1215 14.2044C21.9753 14.2044 21.7558 14.1316 21.6095 14.1316C21.3901 14.1316 21.2438 13.986 21.3169 13.7676C21.3169 13.5493 21.4632 13.4037 21.6827 13.4765C22.4141 13.5493 23.0724 13.6949 23.7308 13.986C25.0474 14.6411 25.7788 15.7329 25.9983 17.1887C25.9983 17.2615 25.9983 17.3343 25.9983 17.4071C25.9983 17.5526 25.9983 17.6982 25.9983 17.9166C25.9983 17.9894 25.9983 18.0622 25.9983 18.135C25.9251 18.4261 25.4131 18.4989 25.34 18.135C25.34 18.0622 25.2668 17.9166 25.2668 17.8438C25.2668 17.1887 25.1205 16.5336 24.8279 15.9513C24.3891 15.2962 23.877 14.8595 23.2919 14.5683ZM27.2417 18.9356C27.0223 18.9356 26.876 18.7173 26.876 18.4989C26.876 18.0622 26.8029 17.6254 26.7297 17.1887C26.4371 14.8595 24.5354 12.967 22.2678 12.603C21.9021 12.5302 21.5364 12.5302 21.2438 12.4575C21.0244 12.4575 20.7318 12.4575 20.6586 12.1663C20.5855 11.9479 20.8049 11.7296 21.0244 11.7296C21.0975 11.7296 21.1707 11.7296 21.1707 11.7296C21.3169 11.7296 24.1696 11.8024 21.1707 11.7296C24.2428 11.8024 26.8029 13.8404 27.3149 16.8976C27.388 17.4071 27.4612 17.9166 27.4612 18.4989C27.6075 18.7173 27.4612 18.9356 27.2417 18.9356Z" fill="white"/>
</svg>
