<svg width="195" height="110" viewBox="0 0 195 110" fill="none" xmlns="http://www.w3.org/2000/svg">
<path d="M41.9144 83.7116C19.3204 81.2738 9.26416 77.7586 2.91896 71.2416C6.52877 68.2884 8.79777 65.0508 10.0193 61.7128C11.3246 58.146 11.4141 54.5191 10.731 51.0867C9.56516 45.2278 6.14263 39.8921 2.56012 36.2232C23.2886 37.1751 38.3016 34.0377 49.2896 28.7249C60.1949 23.4521 67.0795 16.0636 71.6365 8.52034C74.6022 11.674 79.1152 13.7253 84.3568 14.8671C90.1357 16.1261 96.9123 16.3055 103.769 15.5687C116.779 14.1707 130.328 9.44277 138.021 2.22837C139.377 6.83668 142.117 10.1216 145.778 12.4187C149.803 14.9438 154.908 16.2561 160.439 16.9053C165.978 17.5553 172.02 17.5479 177.963 17.3816C180.055 17.3231 182.131 17.2451 184.169 17.1685C187.22 17.0539 190.188 16.9424 193.008 16.9037C192.541 17.4577 191.977 18.1511 191.359 18.9634C189.666 21.1901 187.553 24.3275 185.901 27.9506C182.713 34.9403 181.16 43.969 188.009 51.6225C159.314 70.7518 114.612 88.4664 68.0762 85.1167L67.3363 85.0635L67.1512 85.7818L61.6301 107.199L42.5048 84.0296L42.2743 83.7504L41.9144 83.7116Z" fill="white" stroke="black" stroke-width="1.77867"/>
</svg>
