<svg width="25" height="24" viewBox="0 0 25 24" fill="none" xmlns="http://www.w3.org/2000/svg">
<g id="Leaf">
<path id="Vector" d="M21.5 3.70316C21.487 3.521 21.4087 3.34965 21.2795 3.22051C21.1504 3.09137 20.9791 3.0131 20.7969 3.00004C13.6438 2.57816 7.91564 4.73441 5.46877 8.77504C4.62185 10.1568 4.2042 11.7588 4.26877 13.3782C4.32502 14.8688 4.75627 16.3875 5.56252 17.8782L14.9656 8.46566C15.1114 8.34607 15.2964 8.28495 15.4847 8.29419C15.6729 8.30344 15.8511 8.3824 15.9844 8.5157C16.1177 8.649 16.1966 8.82712 16.2059 9.01541C16.2151 9.20369 16.154 9.38869 16.0344 9.53441L6.62189 18.9375C8.11252 19.7438 9.63127 20.175 11.1219 20.2313H11.4313C12.9462 20.2378 14.433 19.8223 15.725 19.0313C19.7656 16.5844 21.9219 10.8563 21.5 3.70316Z" fill="#2AB96D"/>
<path id="Vector_2" d="M5.85313 18.3844C5.75001 18.2157 5.65626 18.0469 5.56251 17.8782L3.71563 19.7157C3.5748 19.8579 3.49579 20.0499 3.49579 20.25C3.49579 20.4502 3.5748 20.6422 3.71563 20.7844C3.85899 20.923 4.0506 21.0005 4.25001 21.0005C4.44942 21.0005 4.64103 20.923 4.78438 20.7844L6.62188 18.9375L6.11563 18.6469C6.0103 18.5793 5.92077 18.4898 5.85313 18.3844Z" fill="#2AB96D"/>
</g>
</svg>
