<svg width="32" height="28" viewBox="0 0 32 28" fill="none" xmlns="http://www.w3.org/2000/svg">
<path id="Vector" d="M0.151358 3.65806L0.251726 10.4459C0.272642 11.9071 0.626291 13.3436 1.28472 14.6418C1.94315 15.94 2.88832 17.0643 4.04553 17.9258C5.20273 18.7873 6.54025 19.3625 7.95239 19.6058C9.36452 19.8491 10.8126 19.754 12.1821 19.3279C12.5589 20.2489 13.0653 21.098 13.6766 21.8551L9.78423 25.9514C9.57979 26.1667 9.46755 26.456 9.47219 26.7558C9.47683 27.0556 9.59797 27.3413 9.80898 27.5501C10.02 27.7589 10.3035 27.8736 10.5973 27.869C10.8911 27.8645 11.171 27.741 11.3754 27.5258L15.2656 23.4318C16.7482 24.6056 18.5252 25.3284 20.3921 25.517C22.259 25.7056 24.1398 25.3524 25.818 24.4979C27.4962 23.6435 28.9035 22.3226 29.878 20.6873C30.8525 19.0521 31.3545 17.1689 31.3262 15.2546L31.217 7.86577C31.1943 6.33377 29.9582 5.11127 28.4593 5.13343L21.2194 5.24048C19.9663 5.25901 18.7742 5.51169 17.6779 5.95731C16.8863 4.40639 15.6876 3.11054 14.216 2.21469C12.7444 1.31884 11.0578 0.858308 9.34493 0.884602L2.69616 0.982914C1.27031 1.004 0.129841 2.20288 0.151358 3.65806ZM16.8182 21.7974L22.165 16.1743C22.3695 15.9591 22.4817 15.6698 22.4771 15.37C22.4724 15.0702 22.3513 14.7845 22.1403 14.5757C22.0358 14.4723 21.9124 14.3909 21.7772 14.3362C21.6419 14.2815 21.4974 14.2545 21.3519 14.2567C21.0582 14.2613 20.7783 14.3848 20.5739 14.6L15.2336 20.2207C14.3571 19.0583 13.8144 17.6703 13.6664 16.2117C13.5183 14.7531 13.7707 13.2815 14.3952 11.9613C15.0198 10.6412 15.9919 9.52458 17.203 8.73633C18.414 7.94808 19.8162 7.51926 21.2528 7.49781L28.4949 7.39073C28.7717 7.38663 29.0009 7.61377 29.0051 7.89622L29.1144 15.2873C29.1362 16.7548 28.7573 18.1993 28.02 19.4589C27.2828 20.7186 26.2164 21.7437 24.9402 22.4195C23.664 23.0953 22.2285 23.395 20.7944 23.2851C19.3603 23.1752 17.9843 22.6601 16.8204 21.7973L16.8182 21.7974ZM9.38055 3.14416C10.6867 3.12449 11.9725 3.47717 13.0933 4.16253C14.2141 4.84789 15.1255 5.83872 15.725 7.02357C14.1657 8.11849 12.9434 9.64294 12.2002 11.4196L8.74819 8.00364C8.64371 7.90027 8.52032 7.8189 8.38506 7.76417C8.24979 7.70945 8.10531 7.68244 7.95985 7.6847C7.8144 7.68695 7.67082 7.71843 7.53732 7.77732C7.40381 7.83621 7.283 7.92137 7.18177 8.02793C7.08054 8.1345 7.00088 8.26038 6.94734 8.39839C6.8938 8.5364 6.86743 8.68384 6.86973 8.83229C6.87202 8.98073 6.90295 9.12728 6.96074 9.26357C7.01852 9.39985 7.10204 9.5232 7.20652 9.62658L11.5171 13.8932C11.3599 14.976 11.3739 16.0776 11.5587 17.1561C10.5167 17.4844 9.4139 17.5603 8.33783 17.3779C7.26177 17.1954 6.24202 16.7595 5.3595 16.1049C4.47698 15.4502 3.75596 14.5948 3.25366 13.6064C2.75135 12.618 2.48158 11.5239 2.46574 10.4109L2.36315 3.62309C2.36341 3.52336 2.40189 3.42771 2.47036 3.35659C2.53883 3.28547 2.63186 3.24452 2.72957 3.2425L9.38055 3.14416Z" fill="white"/>
</svg>
