<svg width="48" height="48" viewBox="0 0 48 48" fill="none" xmlns="http://www.w3.org/2000/svg">
<g opacity="0.2">
<path fill-rule="evenodd" clip-rule="evenodd" d="M24.9414 27.7536C24.4128 27.4101 23.9571 26.9658 23.6002 26.4462C23.2434 25.9265 22.9924 25.3417 22.8615 24.725C22.7307 24.1084 22.7226 23.472 22.8378 22.8522C22.9529 22.2324 23.189 21.6414 23.5326 21.1128L28.767 13.0656C29.105 12.5251 29.5473 12.0574 30.068 11.6896C30.5887 11.3219 31.1775 11.0616 31.7999 10.9239C32.4223 10.7862 33.0659 10.7738 33.6932 10.8876C34.3205 11.0013 34.9188 11.2388 35.4532 11.5863C35.9877 11.9338 36.4475 12.3843 36.806 12.9114C37.1645 13.4386 37.4144 14.0318 37.5411 14.6566C37.6677 15.2813 37.6687 15.9251 37.5439 16.5502C37.4191 17.1754 37.1711 17.7694 36.8142 18.2976L31.5822 26.3472C30.8881 27.4143 29.7984 28.162 28.5531 28.4257C27.3077 28.6895 26.0085 28.4477 24.9414 27.7536ZM19.0806 28.2384C18.2749 26.7241 17.8898 25.0215 17.9654 23.3078C18.0409 21.5941 18.5744 19.932 19.5102 18.4944L24.7422 10.4472C26.1304 8.31266 28.3098 6.817 30.8008 6.28927C32.0342 6.02797 33.307 6.01216 34.5466 6.24276C35.7861 6.47335 36.9681 6.94584 38.025 7.63323C39.0819 8.32062 39.9931 9.20946 40.7065 10.249C41.42 11.2885 41.9217 12.4584 42.183 13.6918C42.4443 14.9253 42.4601 16.1981 42.2295 17.4376C41.9989 18.6771 41.5264 19.8591 40.839 20.916L35.607 28.9632C34.6966 30.3642 33.4363 31.5033 31.9508 32.2679C30.4653 33.0326 28.8059 33.3963 27.1367 33.3231C25.4675 33.2499 23.8463 32.7423 22.4334 31.8505C21.0205 30.9588 19.8648 29.7137 19.0806 28.2384Z" fill="white"/>
<path fill-rule="evenodd" clip-rule="evenodd" d="M13.0654 37.2072C12.5368 36.8637 12.0811 36.4194 11.7243 35.8998C11.3674 35.3801 11.1164 34.7953 10.9856 34.1786C10.8547 33.5619 10.8467 32.9256 10.9618 32.3058C11.077 31.686 11.313 31.095 11.6566 30.5664L16.891 22.5192C17.229 21.9787 17.6713 21.5109 18.192 21.1432C18.7127 20.7755 19.3015 20.5152 19.9239 20.3775C20.5464 20.2398 21.19 20.2274 21.8172 20.3412C22.4445 20.4549 23.0428 20.6924 23.5772 21.0399C24.1117 21.3874 24.5716 21.8379 24.93 22.365C25.2885 22.8921 25.5384 23.4854 25.6651 24.1102C25.7918 24.7349 25.7928 25.3787 25.668 26.0038C25.5432 26.629 25.2951 27.223 24.9382 27.7512L19.7062 35.8008C19.0121 36.8679 17.9225 37.6156 16.6771 37.8793C15.4317 38.1431 14.1326 37.9013 13.0654 37.2072ZM7.20462 37.692C6.39894 36.1777 6.01384 34.4751 6.08939 32.7614C6.16495 31.0477 6.6984 29.3856 7.63422 27.948L12.8662 19.9032C13.5535 18.8463 14.4421 17.9351 15.4815 17.2216C16.5209 16.5081 17.6907 16.0063 18.924 15.7449C20.1573 15.4835 21.43 15.4676 22.6695 15.698C23.9089 15.9285 25.0909 16.4008 26.1478 17.088C27.2048 17.7753 28.116 18.6639 28.8295 19.7033C29.5429 20.7427 30.0447 21.9125 30.3061 23.1458C30.5675 24.3791 30.5835 25.6518 30.353 26.8913C30.1226 28.1307 29.6503 29.3127 28.963 30.3696L23.731 38.4168C22.8206 39.8178 21.5604 40.9569 20.0748 41.7215C18.5893 42.4862 16.9299 42.8499 15.2607 42.7767C13.5915 42.7035 11.9704 42.1959 10.5575 41.3041C9.14457 40.4124 7.98887 39.1673 7.20462 37.692Z" fill="white"/>
<path d="M3.1034 6.49681C2.66622 6.04417 2.42431 5.43792 2.42978 4.80865C2.43525 4.17938 2.68765 3.57743 3.13263 3.13245C3.57761 2.68747 4.17956 2.43506 4.80883 2.4296C5.43811 2.42413 6.04435 2.66603 6.497 3.10321L44.897 41.5032C45.3342 41.9559 45.5761 42.5621 45.5706 43.1914C45.5651 43.8206 45.3127 44.4226 44.8678 44.8676C44.4228 45.3126 43.8208 45.565 43.1916 45.5704C42.5623 45.5759 41.956 45.334 41.5034 44.8968L3.1034 6.49681Z" fill="white"/>
</g>
</svg>
