<svg width="48" height="48" viewBox="0 0 48 48" fill="none" xmlns="http://www.w3.org/2000/svg">
<g id="pepicons-pop:chain" opacity="0.2">
<g id="Group">
<path id="Vector" fill-rule="evenodd" clip-rule="evenodd" d="M24.9404 27.7536C24.4119 27.4101 23.9561 26.9658 23.5993 26.4462C23.2424 25.9265 22.9914 25.3417 22.8606 24.725C22.7297 24.1084 22.7217 23.472 22.8368 22.8522C22.952 22.2324 23.1881 21.6414 23.5316 21.1128L28.766 13.0656C29.104 12.5251 29.5463 12.0574 30.067 11.6896C30.5877 11.3219 31.1765 11.0616 31.7989 10.9239C32.4214 10.7862 33.065 10.7738 33.6922 10.8876C34.3195 11.0013 34.9178 11.2388 35.4522 11.5863C35.9867 11.9338 36.4466 12.3843 36.805 12.9114C37.1635 13.4386 37.4134 14.0318 37.5401 14.6566C37.6668 15.2813 37.6678 15.9251 37.543 16.5502C37.4182 17.1754 37.1701 17.7694 36.8132 18.2976L31.5812 26.3472C30.8871 27.4143 29.7975 28.162 28.5521 28.4257C27.3067 28.6895 26.0076 28.4477 24.9404 27.7536ZM19.0796 28.2384C18.2739 26.7241 17.8888 25.0215 17.9644 23.3078C18.0399 21.5941 18.5734 19.932 19.5092 18.4944L24.7412 10.4472C26.1295 8.31266 28.3088 6.817 30.7998 6.28927C32.0332 6.02797 33.3061 6.01216 34.5456 6.24276C35.7851 6.47335 36.9671 6.94584 38.024 7.63323C39.081 8.32062 39.9921 9.20946 40.7056 10.249C41.419 11.2885 41.9207 12.4584 42.182 13.6918C42.4433 14.9253 42.4591 16.1981 42.2285 17.4376C41.9979 18.6771 41.5254 19.8591 40.838 20.916L35.606 28.9632C34.6956 30.3642 33.4354 31.5033 31.9498 32.2679C30.4643 33.0326 28.8049 33.3963 27.1357 33.3231C25.4665 33.2499 23.8454 32.7423 22.4325 31.8505C21.0196 30.9588 19.8639 29.7137 19.0796 28.2384Z" fill="white"/>
<path id="Vector_2" fill-rule="evenodd" clip-rule="evenodd" d="M13.0654 37.2072C12.5368 36.8637 12.0811 36.4194 11.7243 35.8998C11.3674 35.3801 11.1164 34.7953 10.9856 34.1786C10.8547 33.5619 10.8467 32.9256 10.9618 32.3058C11.077 31.686 11.313 31.095 11.6566 30.5664L16.891 22.5192C17.229 21.9787 17.6713 21.5109 18.192 21.1432C18.7127 20.7755 19.3015 20.5152 19.9239 20.3775C20.5464 20.2398 21.19 20.2274 21.8172 20.3412C22.4445 20.4549 23.0428 20.6924 23.5772 21.0399C24.1117 21.3874 24.5716 21.8379 24.93 22.365C25.2885 22.8921 25.5384 23.4854 25.6651 24.1102C25.7918 24.7349 25.7928 25.3787 25.668 26.0038C25.5432 26.629 25.2951 27.223 24.9382 27.7512L19.7062 35.8008C19.0121 36.8679 17.9225 37.6156 16.6771 37.8793C15.4317 38.1431 14.1326 37.9013 13.0654 37.2072ZM7.20462 37.692C6.39894 36.1777 6.01384 34.4751 6.08939 32.7614C6.16495 31.0477 6.6984 29.3856 7.63422 27.948L12.8662 19.9032C13.5535 18.8463 14.4421 17.9351 15.4815 17.2216C16.5209 16.5081 17.6907 16.0063 18.924 15.7449C20.1573 15.4835 21.43 15.4676 22.6695 15.698C23.9089 15.9285 25.0909 16.4008 26.1478 17.088C27.2048 17.7753 28.116 18.6639 28.8295 19.7033C29.5429 20.7427 30.0447 21.9125 30.3061 23.1458C30.5675 24.3791 30.5835 25.6518 30.353 26.8913C30.1226 28.1307 29.6503 29.3127 28.963 30.3696L23.731 38.4168C22.8206 39.8178 21.5604 40.9569 20.0748 41.7215C18.5893 42.4862 16.9299 42.8499 15.2607 42.7767C13.5915 42.7035 11.9704 42.1959 10.5575 41.3041C9.14457 40.4124 7.98887 39.1673 7.20462 37.692Z" fill="white"/>
</g>
</g>
</svg>
