<svg width="150" height="50" viewBox="0 0 150 50" fill="none" xmlns="http://www.w3.org/2000/svg">
<g id="logo">
<g id="Mask group">
<mask id="mask0_1_788" style="mask-type:alpha" maskUnits="userSpaceOnUse" x="0" y="0" width="150" height="50">
<path id="Vector" d="M116.557 33.7153V39.3296H87.951V10.6457H93.5653V33.7153H116.557ZM63.3554 16.2599H82.0941V10.6457H61.8454C57.222 10.6457 53.4699 14.3938 53.4699 19.0212V30.956C53.4699 35.5794 57.222 39.3315 61.8454 39.3315H82.0941V24.0327H76.4799V33.7153H63.3554C60.9979 33.7153 59.0821 31.8015 59.0821 29.442V20.5312C59.0821 18.1698 60.996 16.2579 63.3554 16.2579V16.2599ZM150 16.9184V11.3042H122.17V39.3296H150V33.7153H127.784V28.3259H149.29V22.7117H127.784V16.5481H150V16.9184ZM48.2336 14.8036C45.9895 11.9368 43.0571 11.4355 39.9993 9.79218C38.1272 8.70992 37.216 7.0348 36.9793 4.96577C36.8858 4.14214 36.6113 3.68257 35.7637 3.38415C31.9858 1.89406 27.9492 1.3947 23.9205 1.8105C23.463 1.91196 23.0114 2.04923 22.5359 2.03531L22.512 2.04923C17.5861 3.03202 13.0482 5.59444 9.59849 9.259C7.26088 11.9388 5.47038 15.0244 4.41995 18.4244C-1.77123 40.0915 22.5797 57.1789 40.8866 44.0386C28.4167 54.8334 7.55532 49.6667 1.85355 34.0893V34.0854C0.763335 31.71 0.303772 29.07 0.116764 26.4797L0.122732 26.4837C-0.145844 24.7528 0.0710064 22.9902 0.345551 21.2733C0.381361 20.6446 0.480833 20.0259 0.695694 19.4311H0.691715C2.11019 12.4222 6.98435 6.2231 13.3108 2.96438C14.7193 2.14473 16.2035 1.5081 17.791 1.12215C21.3343 0.0239719 25.2455 -0.369939 28.8783 0.401968C35.2186 1.1699 40.8667 4.76483 45.1281 9.39429C43.4331 6.39618 40.4191 4.44055 37.5025 2.72366C42.9457 2.04326 47.5393 6.47775 48.0048 11.7677C48.16 12.7644 48.3152 13.7591 48.2316 14.8036H48.2336ZM3.57244 28.9347C3.59631 28.9824 3.62019 29.0322 3.64207 29.0799C3.62417 29.0302 3.60228 28.9804 3.57244 28.9347ZM12.7359 18.7407C12.8095 18.4065 12.9447 18.1041 13.1715 17.8455C13.1596 17.6744 13.2392 17.553 13.3804 17.4655C13.3804 17.4655 13.3804 17.4655 13.3844 17.4655H13.3804C21.9231 2.19446 45.3987 8.81138 44.768 26.239C44.8058 26.3663 44.7959 26.4857 44.7222 26.6011C44.8018 26.979 44.76 27.3491 44.6447 27.7132C44.018 33.4607 40.1425 38.8024 34.765 40.9947C21 47.4425 6.11098 32.456 12.7378 18.7447L12.7359 18.7407ZM42.0305 20.6048C42.1877 21.2992 42.697 20.8376 42.9715 20.8098C43.266 20.7779 42.9576 20.4517 42.9417 20.2547C42.9337 20.1453 42.8661 20.0438 42.8223 19.9364C42.7686 19.9185 42.7129 19.9046 42.6612 19.8847C41.9032 19.5385 42.0405 19.8847 42.0305 20.6048ZM20.6837 11.706V11.712L20.6897 11.706H20.6817H20.6837ZM22.9736 39.2878C22.5259 38.1816 21.9729 37.1073 21.7003 35.9356C21.1671 35.3606 20.3017 35.3367 19.8521 34.6384C19.49 34.1729 19.1518 33.6855 18.6962 33.2916C17.6896 32.1795 19.0981 31.318 18.5709 30.2855C18.3421 30.1085 18.2924 29.7543 17.7672 30.007C17.4727 30.1602 16.7705 29.6867 16.6073 29.1277C15.9747 28.6462 15.3957 28.0832 14.5502 27.9598C14.1126 27.8982 13.3267 27.1084 13.2909 26.7363C13.1875 25.7098 12.5906 24.8464 12.336 23.8496C12.133 24.6056 12.0376 25.3557 12.0216 26.1176C12.0316 26.1176 12.0435 26.1216 12.0515 26.1236V26.1295C12.0435 26.1295 12.0336 26.1296 12.0256 26.1256C12.33 33.0369 17.4011 39.9184 24.396 41.0823C24.1573 40.368 23.2262 40.0119 22.9736 39.2898V39.2878ZM30.7284 24.9617C30.7205 23.402 28.1561 27.1203 27.6329 27.3769C27.615 26.8199 27.9969 26.6428 28.1899 26.3583C28.731 25.672 29.0812 24.8265 29.9605 24.4982C30.2351 24.3848 30.6648 24.2197 30.4957 23.7721C30.3126 23.2846 30.3982 22.5923 29.5726 22.5366C28.739 22.4789 27.8935 22.4033 27.2549 21.7488C26.9405 22.6878 27.2449 23.9252 27.1514 24.9558C27.4936 25.0334 27.8358 25.105 28.1879 25.292C27.8239 25.6043 27.4777 25.2104 27.1554 25.3358C27.3145 27.5719 27.2071 29.812 27.2171 32.0502C27.2171 32.3665 27.2927 32.5833 27.6627 32.5575C30.7841 33.3433 28.0009 34.0695 28.0387 35.4442C28.0865 36.4548 27.2787 36.7174 26.4611 36.974C26.0811 37.5888 26.1348 38.5019 25.3052 38.7884C25.1958 39.2679 24.8496 39.5802 24.5592 39.9284C25.0983 42.1128 27.9591 41.6035 29.6681 41.4364C29.5547 41.3966 29.4393 41.3608 29.3279 41.319C29.3736 41.313 29.4214 41.3091 29.4651 41.2991C28.7589 40.9629 28.0964 40.4934 27.7642 39.7394C27.4518 39.1067 27.4876 38.3945 27.5175 37.6385C27.7602 37.7738 27.9293 37.8733 27.9472 38.108C28.7549 38.866 30.0381 38.9555 30.5613 40.1074C30.6489 38.6412 30.5991 37.2188 30.7225 35.8043C30.7265 32.1874 30.7284 28.5726 30.7304 24.9578L30.7284 24.9617ZM26.7117 21.6732C26.2323 21.6155 26.095 22.2839 25.6414 22.2064C25.341 22.7415 24.3383 23.2826 24.8297 23.9491C24.9829 23.79 25.2475 23.7601 25.3311 24.0028C25.4385 24.2873 25.6892 24.3569 25.8802 24.5161C25.8802 24.5579 25.8802 24.5917 25.8861 24.6196C25.9378 24.6454 25.9896 24.6713 26.0413 24.6952C26.2363 24.6036 26.4849 24.6355 26.6381 24.7688C26.5406 24.5619 26.6123 24.4007 26.7794 24.2634C26.6521 24.1441 26.6163 23.9829 26.6242 23.8218C26.664 23.1056 26.475 22.3755 26.7117 21.6712V21.6732ZM25.4663 31.8413C25.7389 32.0183 26.1348 32.1118 26.4631 32.0999C26.5048 32.0681 26.5466 32.0322 26.5824 31.9925C26.6282 30.2855 26.5844 26.8875 26.6819 25.1925C26.0811 25.1667 25.5101 25.0174 24.9769 24.5957C25.1202 26.6985 24.9988 28.7039 25.0446 30.6973C25.1063 30.9102 25.2236 31.0932 25.347 31.2723C25.4524 31.4374 25.534 31.6125 25.4663 31.8393V31.8413ZM31.2179 24.2734C31.1741 24.7409 33.8877 24.8861 34.0648 25.4114C33.076 25.1527 32.1191 25.3457 31.3133 24.7966C31.0348 24.6056 30.9552 24.6693 30.9334 24.9617C31.009 28.6621 30.9413 32.3625 31.0547 36.0649C31.0746 37.165 31.0865 38.2672 31.0806 39.3674C31.4188 39.3236 31.383 38.9257 31.6237 38.7884C32.0693 38.0245 32.895 37.6206 32.9924 36.5423C33.9016 37.9588 33.7226 39.632 32.5687 40.8376C33.633 40.6108 36.1537 39.7533 36.5953 38.8103C36.5914 38.8063 36.5854 38.8004 36.5814 38.7984C36.3546 38.7725 36.3964 38.673 36.4998 38.5358C37.1026 37.6246 37.4966 36.598 37.8825 35.5874C37.8765 35.5794 37.8726 35.5695 37.8686 35.5615C37.8765 35.5615 37.8825 35.5655 37.8925 35.5675C38.3202 34.7339 39.307 33.9501 38.9847 32.9195C38.4833 32.1118 39.8043 30.9142 38.7957 30.7391C38.6146 30.8585 38.5211 30.7073 38.4913 30.5402C37.9482 30.576 36.6769 30.7113 36.1517 30.6098C35.907 30.6993 35.6862 30.8386 35.4056 30.6357C35.0475 30.3512 33.8718 28.9287 33.9394 28.5587C33.9394 28.5626 33.9315 28.5666 33.9315 28.5666C33.9255 28.5666 33.9195 28.5626 33.9136 28.5587C33.9215 28.5467 33.9315 28.5348 33.9414 28.5229C33.7445 27.9181 34.3015 27.2039 33.9633 26.5255C33.9374 26.4499 33.9792 26.3305 34.023 26.2529C34.3751 25.6322 34.5721 24.904 35.2644 24.5201C35.4255 24.4306 35.5747 24.2853 35.5767 24.0645C35.6881 23.3602 36.3586 22.3954 37.1285 22.6898C37.8288 22.3774 38.5331 22.1964 39.3129 22.1705C40.1982 21.9995 39.5258 22.9882 40.0172 23.209C40.4569 23.3384 40.7533 23.6626 41.1213 23.8894C41.4118 24.0685 41.565 24.1043 41.5908 23.6945C41.5869 22.9285 42.6075 24.0784 43.2859 23.8218C43.3674 21.4344 42.5756 23.3264 41.9072 21.4026C41.6684 21.3489 42.311 22.1666 41.6466 22.2302C41.38 22.2521 41.3183 21.8861 41.2188 21.6851C41.0099 21.2375 40.1007 19.7772 39.5835 20.006C40.0709 20.6088 41.3024 21.1738 40.5683 22.091C40.3634 22.2999 40.248 22.083 40.0948 21.9796C40.6299 21.6513 40.6498 21.4464 40.1366 21.0942C39.6233 20.8635 39.3905 20.0936 38.7957 20.1433C38.6743 20.3383 38.4813 20.3363 38.2844 20.3263C38.1153 20.3184 38.0078 20.3721 37.9561 20.5651C37.8268 21.0246 37.3553 21.333 37.3911 21.8821C36.8739 22.6878 35.4912 22.2402 35.5668 21.2136C35.3579 19.5962 36.7346 20.8316 37.0151 20.1353C37.1763 19.4032 36.3666 19.3077 36.0482 18.7925C36.9256 18.884 37.2857 18.0981 37.608 17.5331C38.4953 17.1989 37.5165 16.8706 37.7413 16.5225C37.9502 16.3991 38.0059 16.7334 38.1312 16.8348C38.4595 17.3024 38.9429 17.4237 39.5059 17.0795C39.8779 16.8507 39.4303 16.3912 39.667 16.0848C39.2333 15.856 39.5835 15.6591 39.8103 15.3945C38.171 15.7028 38.7022 14.1272 38.0079 13.9223C37.5901 14.0178 38.0834 14.8673 38.1053 15.1637C38.734 15.3248 38.6564 15.9933 38.7977 16.4668C38.6604 17.3362 37.9541 16.0251 37.6955 15.8162C37.6478 15.8222 37.596 15.8262 37.5483 15.8242C37.039 16.419 36.2014 15.0264 36.5874 14.6126C36.7067 14.0715 36.4004 13.5622 36.3825 13.0608C36.6371 12.4978 36.275 12.2511 35.8712 12.0243C34.8088 11.4613 31.2218 9.7504 30.239 10.2796C30.0122 11.1589 31.0169 10.4905 30.7523 12.651C30.7881 12.9733 30.44 13.2101 30.0699 13.2339C29.6462 13.2598 29.3358 13.5562 28.9718 13.6796C27.6448 13.8606 27.5891 16.2997 26.1229 15.2711C24.1334 13.0927 26.5705 13.0111 25.7031 12.5277C25.3987 12.3785 25.4226 12.1576 25.4564 11.901C25.6175 10.8983 24.3602 11.6662 24.3105 10.9162C24.3005 10.6377 24.4736 10.5104 24.9511 10.4049C25.0267 10.389 24.9252 10.2876 24.959 10.3572C24.5771 10.4189 24.205 10.7272 23.8071 10.8207C22.5379 11.0376 22.1778 11.708 23.2063 12.5854C23.1467 13.031 23.3038 13.3075 23.7415 13.4548C24.0777 13.5801 23.4789 14.171 23.262 13.9402C23.1526 13.8606 23.1029 13.6179 22.9238 13.789C22.7806 13.9243 22.8641 14.1053 22.9716 14.2505C23.2123 14.911 21.8754 15.287 21.8058 14.4833C21.4516 13.9601 20.9722 14.6027 20.8309 14.2505C20.8369 13.9064 21.3641 14.0436 21.5949 14.0019C21.7063 13.6636 22.3031 13.6119 22.1479 13.2677C22.0345 13.023 22.0405 12.649 21.6247 12.649C20.9344 12.9554 20.8827 13.8487 19.9476 13.6975C19.9357 13.7492 19.9198 13.8009 19.9058 13.8526C20.4828 14.3699 20.244 14.4535 19.677 14.539C19.3846 14.5927 19.3965 14.5052 19.4423 14.3958C15.3719 16.3216 19.3886 16.1803 18.748 17.6784C19.1558 17.7241 19.0225 17.3441 19.1757 17.173C19.876 16.7234 19.8461 15.9058 20.1565 15.2612C20.3714 14.4634 21.7003 14.6305 21.8635 15.3925C21.949 15.858 22.1479 15.8262 22.4464 15.6093C22.6334 15.4721 22.8622 15.4482 22.9338 15.663C23.1546 16.3255 23.6341 16.803 24.024 17.3481C24.024 17.3561 24.02 17.362 24.018 17.37C24.6367 17.6127 23.5306 18.4184 24.3761 18.5895C24.6905 18.6651 24.6149 19.0073 24.6885 19.2281C24.5353 19.3694 24.4517 19.2222 24.3483 19.2063C23.9922 19.1466 23.463 19.2063 23.3277 18.9994C23.1526 18.7487 23.7236 18.4443 23.7773 17.9748C23.3317 18.3349 22.7885 18.2812 22.3668 18.5179C22.2335 18.5935 22.2136 18.5259 22.1559 18.4523C21.9749 18.2036 21.6804 18.3389 21.5332 18.5159C21.5511 18.7169 22.1997 18.5199 21.8674 18.9297C21.8973 19.0431 21.8714 19.1625 21.8873 19.2779C22.0326 19.5186 22.4106 19.3296 22.6413 19.3972C22.9537 19.3296 23.0531 19.6121 22.7428 19.7235C22.3151 19.8548 21.8694 20.2527 21.4238 20.1871C21.0339 19.9145 20.443 20.0001 20.3117 20.4457C20.2023 20.8177 19.9794 20.9431 19.7148 21.0187C19.5179 21.14 19.4423 21.4106 19.2016 21.4703C19.1837 21.4782 19.1638 21.4802 19.1439 21.4842C18.3441 22.278 19.0683 22.3954 18.3859 22.847C16.5974 23.961 17.8507 23.9988 17.4668 25.4213C17.2221 25.2442 17.1246 24.9896 17.1345 24.7966C17.0589 23.5671 15.539 24.1401 14.8108 24.3211C14.1185 24.7469 14.2936 26.0679 14.4627 26.7761C14.6318 27.558 15.531 27.4724 15.6046 26.6985C15.6564 26.4857 15.8493 26.4379 16.0543 26.4658C16.3925 26.5115 16.1816 26.7542 16.1696 26.9134C16.1577 27.0805 16.2194 27.2655 16.0483 27.3889C15.6564 28.6522 17.3434 27.3113 17.0112 29.0322C17.037 28.9924 17.0569 28.9506 17.0709 28.9028C17.0848 29.257 17.4469 29.9871 17.9124 29.629C18.1929 29.4022 18.4297 29.7822 18.7062 29.8001C19.3428 28.3239 20.5007 29.4261 21.6068 29.3803C22.7607 29.5136 23.2899 30.6794 24.585 30.4964C24.5413 28.501 24.8059 26.5135 24.6785 24.5161C23.4013 24.8404 22.6493 26.6926 21.5272 27.3471C21.754 26.6886 22.3111 26.2589 22.6314 25.666C22.2335 25.3616 22.6115 25.1846 22.7468 24.9677C24.9232 22.276 24.0459 23.1175 23.465 20.1234C24.8039 21.8224 23.4709 22.9683 25.9836 21.5379C26.3258 21.2673 26.6401 20.9968 26.4651 20.4477C26.0493 18.7825 25.2734 17.1909 25.1222 15.492C25.729 17.177 26.8769 18.5497 26.7933 20.3522C26.5785 21.1679 27.6249 20.3462 27.4598 21.138C27.0977 21.8065 28.9678 21.7786 29.3697 22.089C30.623 22.5366 29.3179 20.6088 29.4234 20.0438C30.1535 20.7202 29.9526 21.9776 30.814 22.467C31.0985 22.5963 31.4645 22.5127 31.6933 22.7853C31.2477 23.1036 30.5593 22.4371 30.6966 23.7144C30.7145 24.1122 31.3094 23.7661 31.2079 24.2734H31.2179ZM35.141 28.119C35.1689 28.1687 35.1928 28.2264 35.2147 28.2861C35.2405 28.2463 35.2644 28.2065 35.2903 28.1687C35.2425 28.1528 35.1928 28.1369 35.143 28.119H35.141ZM45.5956 17.7361C44.0836 14.4356 41.4595 11.6822 38.3182 9.88369C35.8831 8.36773 32.9208 7.42473 30.0321 7.37897C31.5441 7.69132 33.0501 8.00366 34.5124 8.51893C42.7248 11.5409 47.6328 20.5372 46.093 29.0978C45.6732 30.6018 45.3012 32.1655 44.6347 33.6119C41.9291 39.4052 36.2452 43.2567 29.9725 44.1261C35.9627 43.9869 42.0942 40.3203 44.8754 34.9866C45.9855 33.5761 46.5505 31.6662 47.0022 29.9095C47.9292 25.865 47.589 21.4205 45.5956 17.7361ZM19.8641 44.2256C19.4502 44.1401 19.0563 44.0107 18.7082 43.764C-2.10346 34.6623 6.17464 3.9412 28.6515 6.26488C26.5327 6.22111 24.4597 6.56927 22.4026 6.98904C5.17793 12.1795 3.44512 35.9773 19.87 43.5174C20.6797 43.8237 21.4894 44.1301 22.2991 44.4345C24.2786 44.908 26.2701 45.1527 28.3073 45.1527C28.2774 45.3974 28.0944 45.3576 27.9591 45.3636C25.2157 45.473 22.4245 45.3039 19.866 44.2256H19.8641ZM22.8721 44.896C22.892 44.9 22.9119 44.904 22.9318 44.908C22.9179 44.8901 22.9019 44.8781 22.886 44.8642C22.8821 44.8761 22.8761 44.8881 22.8721 44.896ZM17.0868 28.4313C17.0967 28.5865 17.0729 28.7516 17.0828 28.9048C17.1226 28.7695 17.1246 28.5766 17.0868 28.4313ZM16.6252 27.9778C16.8699 28.0414 17.0291 28.2006 17.0868 28.4313C17.0669 28.1528 16.9276 27.9519 16.6252 27.9778ZM35.4434 16.9383C36.2691 17.2208 35.348 18.2414 36.1776 18.2732C36.9176 18.317 37.1842 17.9947 36.5933 17.4277C36.3108 17.0258 35.8254 16.809 35.6344 16.3076C35.5887 16.1903 35.2724 15.9217 35.0694 16.0788C34.8347 16.3096 35.2584 16.7712 35.4434 16.9383ZM32.4075 14.3918C33.5495 13.6636 31.4108 13.7591 30.9373 13.777C31.3452 14.549 31.7908 14.7081 32.4075 14.3918ZM18.6803 26.6011C18.0855 26.3941 17.2997 25.5665 16.7526 26.2728C17.3593 26.1315 17.9641 26.7841 18.5649 26.9631C18.8813 27.0109 18.9907 26.7304 18.6803 26.6011ZM34.9282 17.9211C35.4295 17.9688 35.5469 16.9164 35.0237 16.9005C34.5621 16.8348 34.4865 17.933 34.9282 17.9211ZM19.8342 26.9194C19.0603 26.6627 19.1797 27.6336 19.8462 27.4307C20.0153 27.3511 20.2281 27.4724 20.4271 27.2794C20.2739 27.0387 20.055 26.9611 19.8342 26.9194ZM39.3229 21.5578C39.6233 21.4802 39.4721 21.0505 39.1836 21.0167C39.102 21.2415 39.0941 21.4325 39.3229 21.5578ZM58.5072 44.3788H59.096V46.597C58.8235 46.8358 58.5032 47.0188 58.1311 47.1461C57.7611 47.2734 57.3692 47.3371 56.9594 47.3371C56.3784 47.3371 55.8552 47.2098 55.3897 46.9551C54.9242 46.7005 54.5581 46.3483 54.2935 45.8967C54.0269 45.4451 53.8956 44.9398 53.8956 44.3808C53.8956 43.8217 54.0289 43.3164 54.2935 42.8648C54.5581 42.4132 54.9242 42.0611 55.3897 41.8064C55.8552 41.5518 56.3804 41.4244 56.9673 41.4244C57.411 41.4244 57.8168 41.4961 58.1888 41.6353C58.5589 41.7766 58.8732 41.9855 59.1279 42.262L58.7459 42.6519C58.2863 42.1983 57.7014 41.9715 56.9932 41.9715C56.5217 41.9715 56.0979 42.075 55.7179 42.2839C55.338 42.4908 55.0415 42.7793 54.8247 43.1473C54.6078 43.5154 54.5004 43.9272 54.5004 44.3808C54.5004 44.8344 54.6078 45.2442 54.8247 45.6103C55.0415 45.9763 55.336 46.2648 55.714 46.4737C56.09 46.6846 56.5137 46.79 56.9852 46.79C57.584 46.79 58.0894 46.6408 58.5052 46.3424V44.3808L58.5072 44.3788ZM63.1724 43.1075C63.447 42.9583 63.7852 42.8827 64.191 42.8827V43.4557L64.0498 43.4477C63.5902 43.4477 63.2301 43.589 62.9695 43.8715C62.7089 44.154 62.5796 44.5499 62.5796 45.0592V47.2854H61.9907V42.9146H62.5557V43.77C62.6949 43.4776 62.8999 43.2547 63.1744 43.1055L63.1724 43.1075ZM70.3086 45.284H66.654C66.6878 45.7376 66.8629 46.1056 67.1772 46.3841C67.4935 46.6647 67.8914 46.8039 68.3728 46.8039C68.6434 46.8039 68.8941 46.7562 69.1209 46.6587C69.3477 46.5612 69.5446 46.42 69.7117 46.231L70.044 46.6129C69.851 46.8457 69.6083 47.0228 69.3178 47.1441C69.0274 47.2655 68.7071 47.3271 68.3589 47.3271C67.9093 47.3271 67.5134 47.2317 67.1672 47.0407C66.8211 46.8497 66.5505 46.5851 66.3575 46.2469C66.1645 45.9087 66.0671 45.5267 66.0671 45.101C66.0671 44.6752 66.1606 44.2932 66.3456 43.955C66.5306 43.6168 66.7853 43.3542 67.1095 43.1652C67.4338 42.9762 67.7979 42.8827 68.2017 42.8827C68.6056 42.8827 68.9697 42.9762 69.29 43.1652C69.6103 43.3542 69.8629 43.6148 70.046 43.9511C70.229 44.2853 70.3205 44.6692 70.3205 45.101L70.3126 45.284H70.3086ZM67.1394 43.7919C66.8529 44.0605 66.6918 44.4106 66.654 44.8423H69.7535C69.7157 44.4106 69.5526 44.0605 69.2681 43.7919C68.9816 43.5233 68.6275 43.39 68.1998 43.39C67.772 43.39 67.4259 43.5233 67.1414 43.7919H67.1394ZM76.7544 45.284H73.0998C73.1336 45.7376 73.3067 46.1056 73.623 46.3841C73.9393 46.6647 74.3372 46.8039 74.8187 46.8039C75.0892 46.8039 75.3399 46.7562 75.5667 46.6587C75.7935 46.5612 75.9904 46.42 76.1556 46.231L76.4878 46.6129C76.2928 46.8457 76.0521 47.0228 75.7617 47.1441C75.4712 47.2655 75.1509 47.3271 74.8027 47.3271C74.3551 47.3271 73.9572 47.2317 73.6111 47.0407C73.2649 46.8497 72.9943 46.5851 72.8014 46.2469C72.6064 45.9087 72.5109 45.5267 72.5109 45.101C72.5109 44.6752 72.6024 44.2932 72.7894 43.955C72.9744 43.6168 73.2291 43.3542 73.5534 43.1652C73.8776 42.9762 74.2417 42.8827 74.6456 42.8827C75.0494 42.8827 75.4135 42.9762 75.7338 43.1652C76.0541 43.3542 76.3068 43.6148 76.4898 43.9511C76.6728 44.2853 76.7643 44.6692 76.7643 45.101L76.7564 45.284H76.7544ZM73.5852 43.7919C73.3007 44.0605 73.1376 44.4106 73.0998 44.8423H76.1993C76.1595 44.4106 75.9984 44.0605 75.7139 43.7919C75.4294 43.5233 75.0733 43.39 74.6456 43.39C74.2178 43.39 73.8717 43.5233 73.5872 43.7919H73.5852ZM82.8182 43.3602C83.1425 43.6785 83.3037 44.142 83.3037 44.7528V47.2874H82.7128V44.8125C82.7128 44.3589 82.5994 44.0127 82.3726 43.774C82.1458 43.5353 81.8215 43.4159 81.3998 43.4159C80.9283 43.4159 80.5562 43.5552 80.2817 43.8357C80.0071 44.1142 79.8699 44.5021 79.8699 44.9935V47.2874H79.281V42.9165H79.846V43.7223C80.0071 43.4577 80.23 43.2508 80.5145 43.1035C80.799 42.9563 81.1312 42.8827 81.5072 42.8827C82.0543 42.8827 82.492 43.0419 82.8163 43.3602H82.8182ZM90.1155 41.4702H90.7303V46.7542H93.987V47.2854H90.1155V41.4702ZM96.263 41.8363C96.1794 41.7527 96.1376 41.6532 96.1376 41.5378C96.1376 41.4225 96.1794 41.3309 96.263 41.2474C96.3465 41.1638 96.448 41.1221 96.5693 41.1221C96.6907 41.1221 96.7941 41.1618 96.8757 41.2434C96.9593 41.323 97.001 41.4185 97.001 41.5299C97.001 41.6512 96.9593 41.7547 96.8757 41.8363C96.7921 41.9198 96.6907 41.9616 96.5693 41.9616C96.448 41.9616 96.3445 41.9198 96.263 41.8363ZM96.2709 42.9165H96.8598V47.2874H96.2709V42.9165ZM100.701 41.7865C100.572 41.9258 100.506 42.1307 100.506 42.4013V42.9165H101.853V43.4159H100.524V47.2874H99.9355V43.4159H99.1556V42.9165H99.9355V42.3774C99.9355 41.9795 100.051 41.6632 100.28 41.4304C100.51 41.1977 100.835 41.0823 101.256 41.0823C101.424 41.0823 101.583 41.1061 101.738 41.1539C101.893 41.2016 102.022 41.2693 102.128 41.3568L101.929 41.7965C101.758 41.6532 101.541 41.5816 101.28 41.5816C101.02 41.5816 100.833 41.6512 100.703 41.7885L100.701 41.7865ZM107.802 45.284H104.147C104.181 45.7376 104.354 46.1056 104.67 46.3841C104.987 46.6647 105.385 46.8039 105.866 46.8039C106.137 46.8039 106.387 46.7562 106.614 46.6587C106.841 46.5612 107.038 46.42 107.203 46.231L107.535 46.6129C107.34 46.8457 107.099 47.0228 106.809 47.1441C106.519 47.2655 106.198 47.3271 105.85 47.3271C105.402 47.3271 105.005 47.2317 104.658 47.0407C104.312 46.8497 104.042 46.5851 103.849 46.2469C103.654 45.9087 103.558 45.5267 103.558 45.101C103.558 44.6752 103.65 44.2932 103.837 43.955C104.022 43.6168 104.276 43.3542 104.601 43.1652C104.925 42.9762 105.289 42.8827 105.693 42.8827C106.097 42.8827 106.461 42.9762 106.781 43.1652C107.101 43.3542 107.354 43.6148 107.537 43.9511C107.72 44.2853 107.812 44.6692 107.812 45.101L107.804 45.284H107.802ZM104.633 43.7919C104.348 44.0605 104.185 44.4106 104.147 44.8423H107.247C107.207 44.4106 107.046 44.0605 106.761 43.7919C106.477 43.5233 106.121 43.39 105.693 43.39C105.265 43.39 104.919 43.5233 104.635 43.7919H104.633ZM118.336 46.7542V47.2854H114.224V41.4702H118.211V42.0014H114.838V44.0704H117.846V44.5936H114.838V46.7542H118.336ZM124.36 43.3602C124.684 43.6785 124.845 44.142 124.845 44.7528V47.2874H124.257V44.8125C124.257 44.3589 124.143 44.0127 123.916 43.774C123.69 43.5353 123.365 43.4159 122.943 43.4159C122.472 43.4159 122.1 43.5552 121.825 43.8357C121.551 44.1142 121.414 44.5021 121.414 44.9935V47.2874H120.825V42.9165H121.39V43.7223C121.551 43.4577 121.774 43.2508 122.058 43.1035C122.343 42.9563 122.675 42.8827 123.051 42.8827C123.6 42.8827 124.036 43.0419 124.36 43.3602ZM131.592 45.284H127.937C127.971 45.7376 128.146 46.1056 128.46 46.3841C128.777 46.6647 129.174 46.8039 129.656 46.8039C129.926 46.8039 130.177 46.7562 130.404 46.6587C130.631 46.5612 130.828 46.42 130.995 46.231L131.327 46.6129C131.134 46.8457 130.891 47.0228 130.601 47.1441C130.31 47.2655 129.99 47.3271 129.642 47.3271C129.192 47.3271 128.796 47.2317 128.45 47.0407C128.104 46.8497 127.834 46.5851 127.641 46.2469C127.448 45.9087 127.35 45.5267 127.35 45.101C127.35 44.6752 127.444 44.2932 127.629 43.955C127.814 43.6168 128.068 43.3542 128.393 43.1652C128.717 42.9762 129.081 42.8827 129.485 42.8827C129.889 42.8827 130.253 42.9762 130.573 43.1652C130.893 43.3542 131.146 43.6148 131.329 43.9511C131.512 44.2853 131.604 44.6692 131.604 45.101L131.596 45.284H131.592ZM128.422 43.7919C128.136 44.0605 127.975 44.4106 127.937 44.8423H131.037C130.999 44.4106 130.836 44.0605 130.551 43.7919C130.265 43.5233 129.911 43.39 129.483 43.39C129.055 43.39 128.709 43.5233 128.424 43.7919H128.422ZM135.304 43.1075C135.578 42.9583 135.917 42.8827 136.323 42.8827V43.4557L136.181 43.4477C135.722 43.4477 135.362 43.589 135.101 43.8715C134.84 44.154 134.711 44.5499 134.711 45.0592V47.2854H134.122V42.9146H134.687V43.77C134.826 43.4776 135.031 43.2547 135.306 43.1055L135.304 43.1075ZM142.693 42.9165V46.7542C142.693 47.4963 142.512 48.0453 142.148 48.4034C141.786 48.7615 141.238 48.9386 140.506 48.9386C140.102 48.9386 139.719 48.8789 139.356 48.7596C138.994 48.6402 138.698 48.4751 138.471 48.2662L138.77 47.8185C138.98 48.0075 139.235 48.1528 139.537 48.2582C139.84 48.3637 140.156 48.4154 140.488 48.4154C141.042 48.4154 141.449 48.2861 141.71 48.0294C141.971 47.7708 142.1 47.3709 142.1 46.8298V46.2727C141.917 46.5493 141.678 46.7602 141.382 46.9034C141.085 47.0466 140.757 47.1203 140.397 47.1203C139.987 47.1203 139.615 47.0307 139.279 46.8497C138.945 46.6706 138.68 46.418 138.489 46.0937C138.298 45.7694 138.203 45.4034 138.203 44.9935C138.203 44.5837 138.298 44.2176 138.489 43.8973C138.68 43.577 138.943 43.3264 139.275 43.1493C139.607 42.9722 139.981 42.8827 140.397 42.8827C140.767 42.8827 141.103 42.9583 141.402 43.1075C141.7 43.2567 141.943 43.4736 142.124 43.7561V42.9165H142.689H142.693ZM141.314 46.3941C141.569 46.2588 141.766 46.0698 141.909 45.8251C142.05 45.5804 142.12 45.3039 142.12 44.9935C142.12 44.6832 142.048 44.4086 141.909 44.1659C141.768 43.9252 141.571 43.7362 141.32 43.6009C141.067 43.4656 140.781 43.398 140.461 43.398C140.14 43.398 139.86 43.4636 139.609 43.5969C139.356 43.7302 139.159 43.9172 139.018 44.1619C138.877 44.4046 138.807 44.6832 138.807 44.9915C138.807 45.2999 138.879 45.5784 139.018 45.8231C139.159 46.0678 139.356 46.2568 139.609 46.3921C139.86 46.5274 140.144 46.595 140.461 46.595C140.777 46.595 141.061 46.5274 141.316 46.3921L141.314 46.3941ZM149.409 42.9165L147.225 47.8106C147.048 48.2204 146.843 48.5109 146.61 48.682C146.377 48.8531 146.097 48.9406 145.77 48.9406C145.56 48.9406 145.363 48.9068 145.182 48.8411C144.999 48.7755 144.841 48.674 144.708 48.5427L144.983 48.103C145.203 48.3239 145.47 48.4353 145.78 48.4353C145.979 48.4353 146.15 48.3796 146.292 48.2682C146.433 48.1567 146.564 47.9697 146.686 47.7032L146.877 47.2794L144.925 42.9165H145.54L147.185 46.6308L148.83 42.9165H149.411H149.409Z" fill="white"/>
</mask>
<g mask="url(#mask0_1_788)">
<rect id="Rectangle 365" x="-1.5" y="-7.49976" width="52.5" height="60" fill="url(#paint0_linear_1_788)"/>
</g>
</g>
<g id="Mask group_2">
<mask id="mask1_1_788" style="mask-type:alpha" maskUnits="userSpaceOnUse" x="0" y="0" width="150" height="50">
<path id="Vector_2" d="M116.557 33.7153V39.3296H87.951V10.6457H93.5653V33.7153H116.557ZM63.3554 16.2599H82.0941V10.6457H61.8454C57.222 10.6457 53.4699 14.3938 53.4699 19.0212V30.956C53.4699 35.5794 57.222 39.3315 61.8454 39.3315H82.0941V24.0327H76.4799V33.7153H63.3554C60.9979 33.7153 59.0821 31.8015 59.0821 29.442V20.5312C59.0821 18.1698 60.996 16.2579 63.3554 16.2579V16.2599ZM150 16.9184V11.3042H122.17V39.3296H150V33.7153H127.784V28.3259H149.29V22.7117H127.784V16.5481H150V16.9184ZM48.2336 14.8036C45.9895 11.9368 43.0571 11.4355 39.9993 9.79218C38.1272 8.70992 37.216 7.0348 36.9793 4.96577C36.8858 4.14214 36.6113 3.68257 35.7637 3.38415C31.9858 1.89406 27.9492 1.3947 23.9205 1.8105C23.463 1.91196 23.0114 2.04923 22.5359 2.03531L22.512 2.04923C17.5861 3.03202 13.0482 5.59444 9.59849 9.259C7.26088 11.9388 5.47038 15.0244 4.41995 18.4244C-1.77123 40.0915 22.5797 57.1789 40.8866 44.0386C28.4167 54.8334 7.55532 49.6667 1.85355 34.0893V34.0854C0.763335 31.71 0.303772 29.07 0.116764 26.4797L0.122732 26.4837C-0.145844 24.7528 0.0710064 22.9902 0.345551 21.2733C0.381361 20.6446 0.480833 20.0259 0.695694 19.4311H0.691715C2.11019 12.4222 6.98435 6.2231 13.3108 2.96438C14.7193 2.14473 16.2035 1.5081 17.791 1.12215C21.3343 0.0239719 25.2455 -0.369939 28.8783 0.401968C35.2186 1.1699 40.8667 4.76483 45.1281 9.39429C43.4331 6.39618 40.4191 4.44055 37.5025 2.72366C42.9457 2.04326 47.5393 6.47775 48.0048 11.7677C48.16 12.7644 48.3152 13.7591 48.2316 14.8036H48.2336ZM3.57244 28.9347C3.59631 28.9824 3.62019 29.0322 3.64207 29.0799C3.62417 29.0302 3.60228 28.9804 3.57244 28.9347ZM12.7359 18.7407C12.8095 18.4065 12.9447 18.1041 13.1715 17.8455C13.1596 17.6744 13.2392 17.553 13.3804 17.4655C13.3804 17.4655 13.3804 17.4655 13.3844 17.4655H13.3804C21.9231 2.19446 45.3987 8.81138 44.768 26.239C44.8058 26.3663 44.7959 26.4857 44.7222 26.6011C44.8018 26.979 44.76 27.3491 44.6447 27.7132C44.018 33.4607 40.1425 38.8024 34.765 40.9947C21 47.4425 6.11098 32.456 12.7378 18.7447L12.7359 18.7407ZM42.0305 20.6048C42.1877 21.2992 42.697 20.8376 42.9715 20.8098C43.266 20.7779 42.9576 20.4517 42.9417 20.2547C42.9337 20.1453 42.8661 20.0438 42.8223 19.9364C42.7686 19.9185 42.7129 19.9046 42.6612 19.8847C41.9032 19.5385 42.0405 19.8847 42.0305 20.6048ZM20.6837 11.706V11.712L20.6897 11.706H20.6817H20.6837ZM22.9736 39.2878C22.5259 38.1816 21.9729 37.1073 21.7003 35.9356C21.1671 35.3606 20.3017 35.3367 19.8521 34.6384C19.49 34.1729 19.1518 33.6855 18.6962 33.2916C17.6896 32.1795 19.0981 31.318 18.5709 30.2855C18.3421 30.1085 18.2924 29.7543 17.7672 30.007C17.4727 30.1602 16.7705 29.6867 16.6073 29.1277C15.9747 28.6462 15.3957 28.0832 14.5502 27.9598C14.1126 27.8982 13.3267 27.1084 13.2909 26.7363C13.1875 25.7098 12.5906 24.8464 12.336 23.8496C12.133 24.6056 12.0376 25.3557 12.0216 26.1176C12.0316 26.1176 12.0435 26.1216 12.0515 26.1236V26.1295C12.0435 26.1295 12.0336 26.1296 12.0256 26.1256C12.33 33.0369 17.4011 39.9184 24.396 41.0823C24.1573 40.368 23.2262 40.0119 22.9736 39.2898V39.2878ZM30.7284 24.9617C30.7205 23.402 28.1561 27.1203 27.6329 27.3769C27.615 26.8199 27.9969 26.6428 28.1899 26.3583C28.731 25.672 29.0812 24.8265 29.9605 24.4982C30.2351 24.3848 30.6648 24.2197 30.4957 23.7721C30.3126 23.2846 30.3982 22.5923 29.5726 22.5366C28.739 22.4789 27.8935 22.4033 27.2549 21.7488C26.9405 22.6878 27.2449 23.9252 27.1514 24.9558C27.4936 25.0334 27.8358 25.105 28.1879 25.292C27.8239 25.6043 27.4777 25.2104 27.1554 25.3358C27.3145 27.5719 27.2071 29.812 27.2171 32.0502C27.2171 32.3665 27.2927 32.5833 27.6627 32.5575C30.7841 33.3433 28.0009 34.0695 28.0387 35.4442C28.0865 36.4548 27.2787 36.7174 26.4611 36.974C26.0811 37.5888 26.1348 38.5019 25.3052 38.7884C25.1958 39.2679 24.8496 39.5802 24.5592 39.9284C25.0983 42.1128 27.9591 41.6035 29.6681 41.4364C29.5547 41.3966 29.4393 41.3608 29.3279 41.319C29.3736 41.313 29.4214 41.3091 29.4651 41.2991C28.7589 40.9629 28.0964 40.4934 27.7642 39.7394C27.4518 39.1067 27.4876 38.3945 27.5175 37.6385C27.7602 37.7738 27.9293 37.8733 27.9472 38.108C28.7549 38.866 30.0381 38.9555 30.5613 40.1074C30.6489 38.6412 30.5991 37.2188 30.7225 35.8043C30.7265 32.1874 30.7284 28.5726 30.7304 24.9578L30.7284 24.9617ZM26.7117 21.6732C26.2323 21.6155 26.095 22.2839 25.6414 22.2064C25.341 22.7415 24.3383 23.2826 24.8297 23.9491C24.9829 23.79 25.2475 23.7601 25.3311 24.0028C25.4385 24.2873 25.6892 24.3569 25.8802 24.5161C25.8802 24.5579 25.8802 24.5917 25.8861 24.6196C25.9378 24.6454 25.9896 24.6713 26.0413 24.6952C26.2363 24.6036 26.4849 24.6355 26.6381 24.7688C26.5406 24.5619 26.6123 24.4007 26.7794 24.2634C26.6521 24.1441 26.6163 23.9829 26.6242 23.8218C26.664 23.1056 26.475 22.3755 26.7117 21.6712V21.6732ZM25.4663 31.8413C25.7389 32.0183 26.1348 32.1118 26.4631 32.0999C26.5048 32.0681 26.5466 32.0322 26.5824 31.9925C26.6282 30.2855 26.5844 26.8875 26.6819 25.1925C26.0811 25.1667 25.5101 25.0174 24.9769 24.5957C25.1202 26.6985 24.9988 28.7039 25.0446 30.6973C25.1063 30.9102 25.2236 31.0932 25.347 31.2723C25.4524 31.4374 25.534 31.6125 25.4663 31.8393V31.8413ZM31.2179 24.2734C31.1741 24.7409 33.8877 24.8861 34.0648 25.4114C33.076 25.1527 32.1191 25.3457 31.3133 24.7966C31.0348 24.6056 30.9552 24.6693 30.9334 24.9617C31.009 28.6621 30.9413 32.3625 31.0547 36.0649C31.0746 37.165 31.0865 38.2672 31.0806 39.3674C31.4188 39.3236 31.383 38.9257 31.6237 38.7884C32.0693 38.0245 32.895 37.6206 32.9924 36.5423C33.9016 37.9588 33.7226 39.632 32.5687 40.8376C33.633 40.6108 36.1537 39.7533 36.5953 38.8103C36.5914 38.8063 36.5854 38.8004 36.5814 38.7984C36.3546 38.7725 36.3964 38.673 36.4998 38.5358C37.1026 37.6246 37.4966 36.598 37.8825 35.5874C37.8765 35.5794 37.8726 35.5695 37.8686 35.5615C37.8765 35.5615 37.8825 35.5655 37.8925 35.5675C38.3202 34.7339 39.307 33.9501 38.9847 32.9195C38.4833 32.1118 39.8043 30.9142 38.7957 30.7391C38.6146 30.8585 38.5211 30.7073 38.4913 30.5402C37.9482 30.576 36.6769 30.7113 36.1517 30.6098C35.907 30.6993 35.6862 30.8386 35.4056 30.6357C35.0475 30.3512 33.8718 28.9287 33.9394 28.5587C33.9394 28.5626 33.9315 28.5666 33.9315 28.5666C33.9255 28.5666 33.9195 28.5626 33.9136 28.5587C33.9215 28.5467 33.9315 28.5348 33.9414 28.5229C33.7445 27.9181 34.3015 27.2039 33.9633 26.5255C33.9374 26.4499 33.9792 26.3305 34.023 26.2529C34.3751 25.6322 34.5721 24.904 35.2644 24.5201C35.4255 24.4306 35.5747 24.2853 35.5767 24.0645C35.6881 23.3602 36.3586 22.3954 37.1285 22.6898C37.8288 22.3774 38.5331 22.1964 39.3129 22.1705C40.1982 21.9995 39.5258 22.9882 40.0172 23.209C40.4569 23.3384 40.7533 23.6626 41.1213 23.8894C41.4118 24.0685 41.565 24.1043 41.5908 23.6945C41.5869 22.9285 42.6075 24.0784 43.2859 23.8218C43.3674 21.4344 42.5756 23.3264 41.9072 21.4026C41.6684 21.3489 42.311 22.1666 41.6466 22.2302C41.38 22.2521 41.3183 21.8861 41.2188 21.6851C41.0099 21.2375 40.1007 19.7772 39.5835 20.006C40.0709 20.6088 41.3024 21.1738 40.5683 22.091C40.3634 22.2999 40.248 22.083 40.0948 21.9796C40.6299 21.6513 40.6498 21.4464 40.1366 21.0942C39.6233 20.8635 39.3905 20.0936 38.7957 20.1433C38.6743 20.3383 38.4813 20.3363 38.2844 20.3263C38.1153 20.3184 38.0078 20.3721 37.9561 20.5651C37.8268 21.0246 37.3553 21.333 37.3911 21.8821C36.8739 22.6878 35.4912 22.2402 35.5668 21.2136C35.3579 19.5962 36.7346 20.8316 37.0151 20.1353C37.1763 19.4032 36.3666 19.3077 36.0482 18.7925C36.9256 18.884 37.2857 18.0981 37.608 17.5331C38.4953 17.1989 37.5165 16.8706 37.7413 16.5225C37.9502 16.3991 38.0059 16.7334 38.1312 16.8348C38.4595 17.3024 38.9429 17.4237 39.5059 17.0795C39.8779 16.8507 39.4303 16.3912 39.667 16.0848C39.2333 15.856 39.5835 15.6591 39.8103 15.3945C38.171 15.7028 38.7022 14.1272 38.0079 13.9223C37.5901 14.0178 38.0834 14.8673 38.1053 15.1637C38.734 15.3248 38.6564 15.9933 38.7977 16.4668C38.6604 17.3362 37.9541 16.0251 37.6955 15.8162C37.6478 15.8222 37.596 15.8262 37.5483 15.8242C37.039 16.419 36.2014 15.0264 36.5874 14.6126C36.7067 14.0715 36.4004 13.5622 36.3825 13.0608C36.6371 12.4978 36.275 12.2511 35.8712 12.0243C34.8088 11.4613 31.2218 9.7504 30.239 10.2796C30.0122 11.1589 31.0169 10.4905 30.7523 12.651C30.7881 12.9733 30.44 13.2101 30.0699 13.2339C29.6462 13.2598 29.3358 13.5562 28.9718 13.6796C27.6448 13.8606 27.5891 16.2997 26.1229 15.2711C24.1334 13.0927 26.5705 13.0111 25.7031 12.5277C25.3987 12.3785 25.4226 12.1576 25.4564 11.901C25.6175 10.8983 24.3602 11.6662 24.3105 10.9162C24.3005 10.6377 24.4736 10.5104 24.9511 10.4049C25.0267 10.389 24.9252 10.2876 24.959 10.3572C24.5771 10.4189 24.205 10.7272 23.8071 10.8207C22.5379 11.0376 22.1778 11.708 23.2063 12.5854C23.1467 13.031 23.3038 13.3075 23.7415 13.4548C24.0777 13.5801 23.4789 14.171 23.262 13.9402C23.1526 13.8606 23.1029 13.6179 22.9238 13.789C22.7806 13.9243 22.8641 14.1053 22.9716 14.2505C23.2123 14.911 21.8754 15.287 21.8058 14.4833C21.4516 13.9601 20.9722 14.6027 20.8309 14.2505C20.8369 13.9064 21.3641 14.0436 21.5949 14.0019C21.7063 13.6636 22.3031 13.6119 22.1479 13.2677C22.0345 13.023 22.0405 12.649 21.6247 12.649C20.9344 12.9554 20.8827 13.8487 19.9476 13.6975C19.9357 13.7492 19.9198 13.8009 19.9058 13.8526C20.4828 14.3699 20.244 14.4535 19.677 14.539C19.3846 14.5927 19.3965 14.5052 19.4423 14.3958C15.3719 16.3216 19.3886 16.1803 18.748 17.6784C19.1558 17.7241 19.0225 17.3441 19.1757 17.173C19.876 16.7234 19.8461 15.9058 20.1565 15.2612C20.3714 14.4634 21.7003 14.6305 21.8635 15.3925C21.949 15.858 22.1479 15.8262 22.4464 15.6093C22.6334 15.4721 22.8622 15.4482 22.9338 15.663C23.1546 16.3255 23.6341 16.803 24.024 17.3481C24.024 17.3561 24.02 17.362 24.018 17.37C24.6367 17.6127 23.5306 18.4184 24.3761 18.5895C24.6905 18.6651 24.6149 19.0073 24.6885 19.2281C24.5353 19.3694 24.4517 19.2222 24.3483 19.2063C23.9922 19.1466 23.463 19.2063 23.3277 18.9994C23.1526 18.7487 23.7236 18.4443 23.7773 17.9748C23.3317 18.3349 22.7885 18.2812 22.3668 18.5179C22.2335 18.5935 22.2136 18.5259 22.1559 18.4523C21.9749 18.2036 21.6804 18.3389 21.5332 18.5159C21.5511 18.7169 22.1997 18.5199 21.8674 18.9297C21.8973 19.0431 21.8714 19.1625 21.8873 19.2779C22.0326 19.5186 22.4106 19.3296 22.6413 19.3972C22.9537 19.3296 23.0531 19.6121 22.7428 19.7235C22.3151 19.8548 21.8694 20.2527 21.4238 20.1871C21.0339 19.9145 20.443 20.0001 20.3117 20.4457C20.2023 20.8177 19.9794 20.9431 19.7148 21.0187C19.5179 21.14 19.4423 21.4106 19.2016 21.4703C19.1837 21.4782 19.1638 21.4802 19.1439 21.4842C18.3441 22.278 19.0683 22.3954 18.3859 22.847C16.5974 23.961 17.8507 23.9988 17.4668 25.4213C17.2221 25.2442 17.1246 24.9896 17.1345 24.7966C17.0589 23.5671 15.539 24.1401 14.8108 24.3211C14.1185 24.7469 14.2936 26.0679 14.4627 26.7761C14.6318 27.558 15.531 27.4724 15.6046 26.6985C15.6564 26.4857 15.8493 26.4379 16.0543 26.4658C16.3925 26.5115 16.1816 26.7542 16.1696 26.9134C16.1577 27.0805 16.2194 27.2655 16.0483 27.3889C15.6564 28.6522 17.3434 27.3113 17.0112 29.0322C17.037 28.9924 17.0569 28.9506 17.0709 28.9028C17.0848 29.257 17.4469 29.9871 17.9124 29.629C18.1929 29.4022 18.4297 29.7822 18.7062 29.8001C19.3428 28.3239 20.5007 29.4261 21.6068 29.3803C22.7607 29.5136 23.2899 30.6794 24.585 30.4964C24.5413 28.501 24.8059 26.5135 24.6785 24.5161C23.4013 24.8404 22.6493 26.6926 21.5272 27.3471C21.754 26.6886 22.3111 26.2589 22.6314 25.666C22.2335 25.3616 22.6115 25.1846 22.7468 24.9677C24.9232 22.276 24.0459 23.1175 23.465 20.1234C24.8039 21.8224 23.4709 22.9683 25.9836 21.5379C26.3258 21.2673 26.6401 20.9968 26.4651 20.4477C26.0493 18.7825 25.2734 17.1909 25.1222 15.492C25.729 17.177 26.8769 18.5497 26.7933 20.3522C26.5785 21.1679 27.6249 20.3462 27.4598 21.138C27.0977 21.8065 28.9678 21.7786 29.3697 22.089C30.623 22.5366 29.3179 20.6088 29.4234 20.0438C30.1535 20.7202 29.9526 21.9776 30.814 22.467C31.0985 22.5963 31.4645 22.5127 31.6933 22.7853C31.2477 23.1036 30.5593 22.4371 30.6966 23.7144C30.7145 24.1122 31.3094 23.7661 31.2079 24.2734H31.2179ZM35.141 28.119C35.1689 28.1687 35.1928 28.2264 35.2147 28.2861C35.2405 28.2463 35.2644 28.2065 35.2903 28.1687C35.2425 28.1528 35.1928 28.1369 35.143 28.119H35.141ZM45.5956 17.7361C44.0836 14.4356 41.4595 11.6822 38.3182 9.88369C35.8831 8.36773 32.9208 7.42473 30.0321 7.37897C31.5441 7.69132 33.0501 8.00366 34.5124 8.51893C42.7248 11.5409 47.6328 20.5372 46.093 29.0978C45.6732 30.6018 45.3012 32.1655 44.6347 33.6119C41.9291 39.4052 36.2452 43.2567 29.9725 44.1261C35.9627 43.9869 42.0942 40.3203 44.8754 34.9866C45.9855 33.5761 46.5505 31.6662 47.0022 29.9095C47.9292 25.865 47.589 21.4205 45.5956 17.7361ZM19.8641 44.2256C19.4502 44.1401 19.0563 44.0107 18.7082 43.764C-2.10346 34.6623 6.17464 3.9412 28.6515 6.26488C26.5327 6.22111 24.4597 6.56927 22.4026 6.98904C5.17793 12.1795 3.44512 35.9773 19.87 43.5174C20.6797 43.8237 21.4894 44.1301 22.2991 44.4345C24.2786 44.908 26.2701 45.1527 28.3073 45.1527C28.2774 45.3974 28.0944 45.3576 27.9591 45.3636C25.2157 45.473 22.4245 45.3039 19.866 44.2256H19.8641ZM22.8721 44.896C22.892 44.9 22.9119 44.904 22.9318 44.908C22.9179 44.8901 22.9019 44.8781 22.886 44.8642C22.8821 44.8761 22.8761 44.8881 22.8721 44.896ZM17.0868 28.4313C17.0967 28.5865 17.0729 28.7516 17.0828 28.9048C17.1226 28.7695 17.1246 28.5766 17.0868 28.4313ZM16.6252 27.9778C16.8699 28.0414 17.0291 28.2006 17.0868 28.4313C17.0669 28.1528 16.9276 27.9519 16.6252 27.9778ZM35.4434 16.9383C36.2691 17.2208 35.348 18.2414 36.1776 18.2732C36.9176 18.317 37.1842 17.9947 36.5933 17.4277C36.3108 17.0258 35.8254 16.809 35.6344 16.3076C35.5887 16.1903 35.2724 15.9217 35.0694 16.0788C34.8347 16.3096 35.2584 16.7712 35.4434 16.9383ZM32.4075 14.3918C33.5495 13.6636 31.4108 13.7591 30.9373 13.777C31.3452 14.549 31.7908 14.7081 32.4075 14.3918ZM18.6803 26.6011C18.0855 26.3941 17.2997 25.5665 16.7526 26.2728C17.3593 26.1315 17.9641 26.7841 18.5649 26.9631C18.8813 27.0109 18.9907 26.7304 18.6803 26.6011ZM34.9282 17.9211C35.4295 17.9688 35.5469 16.9164 35.0237 16.9005C34.5621 16.8348 34.4865 17.933 34.9282 17.9211ZM19.8342 26.9194C19.0603 26.6627 19.1797 27.6336 19.8462 27.4307C20.0153 27.3511 20.2281 27.4724 20.4271 27.2794C20.2739 27.0387 20.055 26.9611 19.8342 26.9194ZM39.3229 21.5578C39.6233 21.4802 39.4721 21.0505 39.1836 21.0167C39.102 21.2415 39.0941 21.4325 39.3229 21.5578ZM58.5072 44.3788H59.096V46.597C58.8235 46.8358 58.5032 47.0188 58.1311 47.1461C57.7611 47.2734 57.3692 47.3371 56.9594 47.3371C56.3784 47.3371 55.8552 47.2098 55.3897 46.9551C54.9242 46.7005 54.5581 46.3483 54.2935 45.8967C54.0269 45.4451 53.8956 44.9398 53.8956 44.3808C53.8956 43.8217 54.0289 43.3164 54.2935 42.8648C54.5581 42.4132 54.9242 42.0611 55.3897 41.8064C55.8552 41.5518 56.3804 41.4244 56.9673 41.4244C57.411 41.4244 57.8168 41.4961 58.1888 41.6353C58.5589 41.7766 58.8732 41.9855 59.1279 42.262L58.7459 42.6519C58.2863 42.1983 57.7014 41.9715 56.9932 41.9715C56.5217 41.9715 56.0979 42.075 55.7179 42.2839C55.338 42.4908 55.0415 42.7793 54.8247 43.1473C54.6078 43.5154 54.5004 43.9272 54.5004 44.3808C54.5004 44.8344 54.6078 45.2442 54.8247 45.6103C55.0415 45.9763 55.336 46.2648 55.714 46.4737C56.09 46.6846 56.5137 46.79 56.9852 46.79C57.584 46.79 58.0894 46.6408 58.5052 46.3424V44.3808L58.5072 44.3788ZM63.1724 43.1075C63.447 42.9583 63.7852 42.8827 64.191 42.8827V43.4557L64.0498 43.4477C63.5902 43.4477 63.2301 43.589 62.9695 43.8715C62.7089 44.154 62.5796 44.5499 62.5796 45.0592V47.2854H61.9907V42.9146H62.5557V43.77C62.6949 43.4776 62.8999 43.2547 63.1744 43.1055L63.1724 43.1075ZM70.3086 45.284H66.654C66.6878 45.7376 66.8629 46.1056 67.1772 46.3841C67.4935 46.6647 67.8914 46.8039 68.3728 46.8039C68.6434 46.8039 68.8941 46.7562 69.1209 46.6587C69.3477 46.5612 69.5446 46.42 69.7117 46.231L70.044 46.6129C69.851 46.8457 69.6083 47.0228 69.3178 47.1441C69.0274 47.2655 68.7071 47.3271 68.3589 47.3271C67.9093 47.3271 67.5134 47.2317 67.1672 47.0407C66.8211 46.8497 66.5505 46.5851 66.3575 46.2469C66.1645 45.9087 66.0671 45.5267 66.0671 45.101C66.0671 44.6752 66.1606 44.2932 66.3456 43.955C66.5306 43.6168 66.7853 43.3542 67.1095 43.1652C67.4338 42.9762 67.7979 42.8827 68.2017 42.8827C68.6056 42.8827 68.9697 42.9762 69.29 43.1652C69.6103 43.3542 69.8629 43.6148 70.046 43.9511C70.229 44.2853 70.3205 44.6692 70.3205 45.101L70.3126 45.284H70.3086ZM67.1394 43.7919C66.8529 44.0605 66.6918 44.4106 66.654 44.8423H69.7535C69.7157 44.4106 69.5526 44.0605 69.2681 43.7919C68.9816 43.5233 68.6275 43.39 68.1998 43.39C67.772 43.39 67.4259 43.5233 67.1414 43.7919H67.1394ZM76.7544 45.284H73.0998C73.1336 45.7376 73.3067 46.1056 73.623 46.3841C73.9393 46.6647 74.3372 46.8039 74.8187 46.8039C75.0892 46.8039 75.3399 46.7562 75.5667 46.6587C75.7935 46.5612 75.9904 46.42 76.1556 46.231L76.4878 46.6129C76.2928 46.8457 76.0521 47.0228 75.7617 47.1441C75.4712 47.2655 75.1509 47.3271 74.8027 47.3271C74.3551 47.3271 73.9572 47.2317 73.6111 47.0407C73.2649 46.8497 72.9943 46.5851 72.8014 46.2469C72.6064 45.9087 72.5109 45.5267 72.5109 45.101C72.5109 44.6752 72.6024 44.2932 72.7894 43.955C72.9744 43.6168 73.2291 43.3542 73.5534 43.1652C73.8776 42.9762 74.2417 42.8827 74.6456 42.8827C75.0494 42.8827 75.4135 42.9762 75.7338 43.1652C76.0541 43.3542 76.3068 43.6148 76.4898 43.9511C76.6728 44.2853 76.7643 44.6692 76.7643 45.101L76.7564 45.284H76.7544ZM73.5852 43.7919C73.3007 44.0605 73.1376 44.4106 73.0998 44.8423H76.1993C76.1595 44.4106 75.9984 44.0605 75.7139 43.7919C75.4294 43.5233 75.0733 43.39 74.6456 43.39C74.2178 43.39 73.8717 43.5233 73.5872 43.7919H73.5852ZM82.8182 43.3602C83.1425 43.6785 83.3037 44.142 83.3037 44.7528V47.2874H82.7128V44.8125C82.7128 44.3589 82.5994 44.0127 82.3726 43.774C82.1458 43.5353 81.8215 43.4159 81.3998 43.4159C80.9283 43.4159 80.5562 43.5552 80.2817 43.8357C80.0071 44.1142 79.8699 44.5021 79.8699 44.9935V47.2874H79.281V42.9165H79.846V43.7223C80.0071 43.4577 80.23 43.2508 80.5145 43.1035C80.799 42.9563 81.1312 42.8827 81.5072 42.8827C82.0543 42.8827 82.492 43.0419 82.8163 43.3602H82.8182ZM90.1155 41.4702H90.7303V46.7542H93.987V47.2854H90.1155V41.4702ZM96.263 41.8363C96.1794 41.7527 96.1376 41.6532 96.1376 41.5378C96.1376 41.4225 96.1794 41.3309 96.263 41.2474C96.3465 41.1638 96.448 41.1221 96.5693 41.1221C96.6907 41.1221 96.7941 41.1618 96.8757 41.2434C96.9593 41.323 97.001 41.4185 97.001 41.5299C97.001 41.6512 96.9593 41.7547 96.8757 41.8363C96.7921 41.9198 96.6907 41.9616 96.5693 41.9616C96.448 41.9616 96.3445 41.9198 96.263 41.8363ZM96.2709 42.9165H96.8598V47.2874H96.2709V42.9165ZM100.701 41.7865C100.572 41.9258 100.506 42.1307 100.506 42.4013V42.9165H101.853V43.4159H100.524V47.2874H99.9355V43.4159H99.1556V42.9165H99.9355V42.3774C99.9355 41.9795 100.051 41.6632 100.28 41.4304C100.51 41.1977 100.835 41.0823 101.256 41.0823C101.424 41.0823 101.583 41.1061 101.738 41.1539C101.893 41.2016 102.022 41.2693 102.128 41.3568L101.929 41.7965C101.758 41.6532 101.541 41.5816 101.28 41.5816C101.02 41.5816 100.833 41.6512 100.703 41.7885L100.701 41.7865ZM107.802 45.284H104.147C104.181 45.7376 104.354 46.1056 104.67 46.3841C104.987 46.6647 105.385 46.8039 105.866 46.8039C106.137 46.8039 106.387 46.7562 106.614 46.6587C106.841 46.5612 107.038 46.42 107.203 46.231L107.535 46.6129C107.34 46.8457 107.099 47.0228 106.809 47.1441C106.519 47.2655 106.198 47.3271 105.85 47.3271C105.402 47.3271 105.005 47.2317 104.658 47.0407C104.312 46.8497 104.042 46.5851 103.849 46.2469C103.654 45.9087 103.558 45.5267 103.558 45.101C103.558 44.6752 103.65 44.2932 103.837 43.955C104.022 43.6168 104.276 43.3542 104.601 43.1652C104.925 42.9762 105.289 42.8827 105.693 42.8827C106.097 42.8827 106.461 42.9762 106.781 43.1652C107.101 43.3542 107.354 43.6148 107.537 43.9511C107.72 44.2853 107.812 44.6692 107.812 45.101L107.804 45.284H107.802ZM104.633 43.7919C104.348 44.0605 104.185 44.4106 104.147 44.8423H107.247C107.207 44.4106 107.046 44.0605 106.761 43.7919C106.477 43.5233 106.121 43.39 105.693 43.39C105.265 43.39 104.919 43.5233 104.635 43.7919H104.633ZM118.336 46.7542V47.2854H114.224V41.4702H118.211V42.0014H114.838V44.0704H117.846V44.5936H114.838V46.7542H118.336ZM124.36 43.3602C124.684 43.6785 124.845 44.142 124.845 44.7528V47.2874H124.257V44.8125C124.257 44.3589 124.143 44.0127 123.916 43.774C123.69 43.5353 123.365 43.4159 122.943 43.4159C122.472 43.4159 122.1 43.5552 121.825 43.8357C121.551 44.1142 121.414 44.5021 121.414 44.9935V47.2874H120.825V42.9165H121.39V43.7223C121.551 43.4577 121.774 43.2508 122.058 43.1035C122.343 42.9563 122.675 42.8827 123.051 42.8827C123.6 42.8827 124.036 43.0419 124.36 43.3602ZM131.592 45.284H127.937C127.971 45.7376 128.146 46.1056 128.46 46.3841C128.777 46.6647 129.174 46.8039 129.656 46.8039C129.926 46.8039 130.177 46.7562 130.404 46.6587C130.631 46.5612 130.828 46.42 130.995 46.231L131.327 46.6129C131.134 46.8457 130.891 47.0228 130.601 47.1441C130.31 47.2655 129.99 47.3271 129.642 47.3271C129.192 47.3271 128.796 47.2317 128.45 47.0407C128.104 46.8497 127.834 46.5851 127.641 46.2469C127.448 45.9087 127.35 45.5267 127.35 45.101C127.35 44.6752 127.444 44.2932 127.629 43.955C127.814 43.6168 128.068 43.3542 128.393 43.1652C128.717 42.9762 129.081 42.8827 129.485 42.8827C129.889 42.8827 130.253 42.9762 130.573 43.1652C130.893 43.3542 131.146 43.6148 131.329 43.9511C131.512 44.2853 131.604 44.6692 131.604 45.101L131.596 45.284H131.592ZM128.422 43.7919C128.136 44.0605 127.975 44.4106 127.937 44.8423H131.037C130.999 44.4106 130.836 44.0605 130.551 43.7919C130.265 43.5233 129.911 43.39 129.483 43.39C129.055 43.39 128.709 43.5233 128.424 43.7919H128.422ZM135.304 43.1075C135.578 42.9583 135.917 42.8827 136.323 42.8827V43.4557L136.181 43.4477C135.722 43.4477 135.362 43.589 135.101 43.8715C134.84 44.154 134.711 44.5499 134.711 45.0592V47.2854H134.122V42.9146H134.687V43.77C134.826 43.4776 135.031 43.2547 135.306 43.1055L135.304 43.1075ZM142.693 42.9165V46.7542C142.693 47.4963 142.512 48.0453 142.148 48.4034C141.786 48.7615 141.238 48.9386 140.506 48.9386C140.102 48.9386 139.719 48.8789 139.356 48.7596C138.994 48.6402 138.698 48.4751 138.471 48.2662L138.77 47.8185C138.98 48.0075 139.235 48.1528 139.537 48.2582C139.84 48.3637 140.156 48.4154 140.488 48.4154C141.042 48.4154 141.449 48.2861 141.71 48.0294C141.971 47.7708 142.1 47.3709 142.1 46.8298V46.2727C141.917 46.5493 141.678 46.7602 141.382 46.9034C141.085 47.0466 140.757 47.1203 140.397 47.1203C139.987 47.1203 139.615 47.0307 139.279 46.8497C138.945 46.6706 138.68 46.418 138.489 46.0937C138.298 45.7694 138.203 45.4034 138.203 44.9935C138.203 44.5837 138.298 44.2176 138.489 43.8973C138.68 43.577 138.943 43.3264 139.275 43.1493C139.607 42.9722 139.981 42.8827 140.397 42.8827C140.767 42.8827 141.103 42.9583 141.402 43.1075C141.7 43.2567 141.943 43.4736 142.124 43.7561V42.9165H142.689H142.693ZM141.314 46.3941C141.569 46.2588 141.766 46.0698 141.909 45.8251C142.05 45.5804 142.12 45.3039 142.12 44.9935C142.12 44.6832 142.048 44.4086 141.909 44.1659C141.768 43.9252 141.571 43.7362 141.32 43.6009C141.067 43.4656 140.781 43.398 140.461 43.398C140.14 43.398 139.86 43.4636 139.609 43.5969C139.356 43.7302 139.159 43.9172 139.018 44.1619C138.877 44.4046 138.807 44.6832 138.807 44.9915C138.807 45.2999 138.879 45.5784 139.018 45.8231C139.159 46.0678 139.356 46.2568 139.609 46.3921C139.86 46.5274 140.144 46.595 140.461 46.595C140.777 46.595 141.061 46.5274 141.316 46.3921L141.314 46.3941ZM149.409 42.9165L147.225 47.8106C147.048 48.2204 146.843 48.5109 146.61 48.682C146.377 48.8531 146.097 48.9406 145.77 48.9406C145.56 48.9406 145.363 48.9068 145.182 48.8411C144.999 48.7755 144.841 48.674 144.708 48.5427L144.983 48.103C145.203 48.3239 145.47 48.4353 145.78 48.4353C145.979 48.4353 146.15 48.3796 146.292 48.2682C146.433 48.1567 146.564 47.9697 146.686 47.7032L146.877 47.2794L144.925 42.9165H145.54L147.185 46.6308L148.83 42.9165H149.411H149.409Z" fill="white"/>
</mask>
<g mask="url(#mask1_1_788)">
<rect id="Rectangle 365_2" x="52.5" y="-7.49976" width="118.5" height="60" fill="white"/>
</g>
</g>
</g>
<defs>
<linearGradient id="paint0_linear_1_788" x1="-45" y1="7" x2="61.5577" y2="-26.1465" gradientUnits="userSpaceOnUse">
<stop offset="0.14" stop-color="#CBDC2F"/>
<stop offset="0.34" stop-color="#76BB36"/>
<stop offset="0.56" stop-color="#219A3E"/>
<stop offset="0.66" stop-color="#008E42"/>
<stop offset="0.86" stop-color="#1C5473"/>
<stop offset="1" stop-color="#2E3192"/>
</linearGradient>
</defs>
</svg>
